<?xml version="1.0" encoding="utf-8"?>
<!-- Generator: Adobe Illustrator 24.2.1, SVG Export Plug-In . SVG Version: 6.00 Build 0)  -->
<svg version="1.1" id="Layer_1" xmlns="http://www.w3.org/2000/svg" xmlns:xlink="http://www.w3.org/1999/xlink" x="0px" y="0px"
	 viewBox="0 0 1920 500" style="enable-background:new 0 0 1920 500;" xml:space="preserve">
<style type="text/css">
	.st0{fill:#445A65;}
	.st1{fill:#FF6D00;}
	.st2{fill:#FFC400;}
	.st3{fill:#00E5FF;}
</style>
<path class="st0" d="M558.9,311.3c0-38.5,36.7-55.1,111.9-56.5h4.5v-3.5c0-25.3-14.5-39.2-41.2-39.2c-25.3,0-40.2,13.2-47.8,28.4
	c0,0.3-21.1,0-21.1-16.6c0-15.9,24.3-39.8,71.4-39.8s72.8,24.3,72.8,66.5v102.2c0,1.7-6.2,3.8-12.5,3.8c-12.1,0-20.8-6.6-21.1-26.7
	c-12.8,18-34.7,28.8-59.9,28.8C580,358.8,558.9,339.8,558.9,311.3 M675.3,289.2v-12.8l-9.3,0.3c-48.5,1.7-73.5,10.7-73.5,33.3
	c0,14.9,11.8,24.3,31.5,24.3C653.9,334.3,675.4,315.5,675.3,289.2"/>
<path class="st0" d="M731.1,271.5c0-50.6,36.7-87.3,86.6-87.3c49.5,0,71.4,30.5,71.4,46.1c0,14.2-19.4,17-20.4,15.2
	c-7.6-18.4-21.8-32.6-50.2-32.6c-31.2,0-54.7,24.6-54.7,58.6c0,34.3,23.3,59.3,54.7,59.3c28.1,0,42.6-14.2,50.2-32.6
	c1-1.7,20.4,0.7,20.4,15.6c0,15.2-22.2,45.7-71.4,45.7C767.4,359.6,731.1,322.8,731.1,271.5"/>
<path class="st0" d="M901.5,311.3c0-38.5,36.7-55.1,111.9-56.5h4.5v-3.5c0-25.3-14.5-39.2-41.2-39.2c-25.3,0-40.2,13.2-47.8,28.4
	c0,0.3-21.1,0-21.1-16.6c0-15.9,24.3-39.8,71.4-39.8c47.1,0,72.8,24.3,72.8,66.5v102.2c0,1.7-6.2,3.8-12.5,3.8
	c-12.1,0-20.8-6.6-21.1-26.7c-12.8,18-34.7,28.8-59.9,28.8C922.6,358.8,901.5,339.7,901.5,311.3 M1017.9,289.2v-12.8l-9.3,0.3
	c-48.5,1.7-73.5,10.7-73.5,33.3c0,14.9,11.8,24.3,31.5,24.3C996.5,334.2,1018,315.5,1017.9,289.2"/>
<path class="st0" d="M1073.7,271.8c0-52.7,32.9-87.7,79-87.7c27,0,47.5,12.5,57.2,27.4v-90.8c0-1,5.9-3.8,12.5-3.8
	c10.7,0,21.8,5.5,21.8,29.5v193.7c0,12.5-6.2,16.3-15.2,16.3h-3.5c-9,0-15.2-3.8-15.2-16.3v-12.8c-13.2,20.1-32.2,32.2-58.6,32.2
	C1107,359.5,1073.8,324.5,1073.7,271.8 M1210.3,282.3v-35.4c-8.7-21.1-25.6-34.3-51.3-34.3c-31.2,0-52,23.6-52,59.3
	c0,34.7,21.5,59.3,51.3,59.3c27.7,0,52-20.4,52-48.8"/>
<path class="st0" d="M1267.7,272.5c0-50.6,36-88.4,85.2-88.4c48.2,0,80,34,80,83.9v2.8c0,7.3-2.4,10-10.4,10h-123
	c2.4,30.8,25.3,51.6,56.8,51.6c29.1,0,43.7-12.8,52.3-27.7c0.7-0.7,18,2.4,18,17s-25.6,37.8-71,37.8
	C1303.1,359.5,1267.7,324.5,1267.7,272.5 M1300,257.6h99.8c-1.7-28.8-19.4-47.5-47.1-47.5C1325.3,210.2,1304.2,229.9,1300,257.6"/>
<path class="st0" d="M1490.2,212.3c11.4-16.3,28.8-28.1,51.6-28.1c27,0,45.7,12.8,54.4,35c11.4-19.4,30.1-35,57.9-35
	c42.3,0,62.7,25.6,62.7,68.6v87.3c0,12.5-6.2,16.3-15.2,16.3h-3.5c-9.3,0-15.6-3.8-15.6-16.3V257c0-28.1-12.1-42.6-36.7-42.6
	c-17.7,0-33.6,11.1-42.3,27.7v98.1c0,12.5-6.2,16.3-15.2,16.3h-3.5c-9,0-15.6-3.8-15.6-16.3v-81.8c0-29.5-12.1-44-36.7-44
	c-17.3,0-33.6,11.1-41.9,27.7v98.1c0,12.5-6.6,16.3-15.2,16.3h-3.8c-9,0-15.2-3.8-15.2-16.3V190.4c0-1,5.5-3.8,12.5-3.8
	C1478.3,186.6,1488.7,191.5,1490.2,212.3"/>
<path class="st0" d="M1776.4,413.2l27.7-67.6c-7.6-0.7-11.8-2.8-14.5-9.7l-59.6-139.3c-0.7-2.1,7-10,18-10c9.7,0,16.3,4.5,21.8,19.4
	l45,115l39.8-114.3c4.8-15.2,12.5-20.1,21.5-20.1c9.3,0,18.7,7.6,18,9.3l-78.6,207.6c-5.5,14.9-13.2,19.1-21.1,19.1
	C1784.7,422.5,1775.7,414.9,1776.4,413.2"/>
<path class="st1" d="M29.9,173.5c20.5-19,43.4-35.3,68.1-48.4c24.5-13,50.6-22.6,77.6-28.7c6.8-1.8,13.8,2.2,15.6,8.9
	c1.8,6.8-2.2,13.8-8.9,15.6h-0.1c-48.1,15-91.3,42.4-125.4,79.5c-7.1,7.8-19.2,8.3-26.9,1.1c-7.8-7.1-8.3-19.2-1.1-26.9
	C29.1,174.3,29.5,174,29.9,173.5L29.9,173.5z"/>
<path class="st1" d="M337.2,102.5c51.3,15.9,97.5,45,133.9,84.5c-19.3-17.8-40.9-33.1-64.2-45.3c-23-12.1-47.6-21.1-73-26.8
	c-3.4-0.8-5.6-4.2-4.8-7.6c0.8-3.4,4.2-5.6,7.6-4.8L337.2,102.5"/>
<path class="st2" d="M114.7,258.3c17.8-20.1,39.4-36.4,63.6-48.1c24.7-11.9,51.6-18.9,79-20.5c28-1.6,56.1,2.4,82.6,11.6
	c27.1,9.5,52,24.3,73.4,43.5l0.2,0.1c7.9,7,8.5,19.1,1.5,27c-7,7.9-19.1,8.5-27,1.5l0,0c-0.6-0.5-1.1-1.1-1.6-1.6
	c-16.1-18.3-35.6-33.3-57.4-44c-22.4-11-46.8-17.4-71.7-19c-25.5-1.6-51.2,1.9-75.4,10.2C157.1,227.5,134.3,240.9,114.7,258.3"/>
<path class="st3" d="M172.5,316.1c12-9.8,25.8-17.2,40.7-21.6c14.3-4.2,29.2-5.6,44-4c14.2,1.5,27.9,5.9,40.4,12.8
	c11.9,6.6,22.4,15.5,30.9,26.3c-10.2-8.1-22-14-34.5-17.4c-12-3.3-24.5-4.2-36.8-2.5c-11.7,1.5-22.9,5.4-33.1,11.3
	c-9.6,5.6-18,13.2-24.7,22.1c-6.3,8.5-18.4,10.3-26.9,4c-8.5-6.3-10.3-18.4-4-26.9c0.9-1.3,2-2.4,3.2-3.4L172.5,316.1z"/>
<path class="st3" d="M278.2,401.4c0,11.6-9.4,20.9-20.9,20.9c-11.6,0-20.9-9.4-20.9-20.9c0-11.6,9.4-20.9,20.9-20.9
	C268.8,380.5,278.2,389.8,278.2,401.4"/>
<path class="st1" d="M278.2,98.4c0,11.6-9.4,20.9-20.9,20.9c-11.6,0-20.9-9.4-20.9-20.9s9.4-20.9,20.9-20.9l0,0
	C268.8,77.5,278.2,86.8,278.2,98.4"/>
</svg>
