<?xml version="1.0" encoding="utf-8"?>
<!-- Generator: Adobe Illustrator 23.0.2, SVG Export Plug-In . SVG Version: 6.00 Build 0)  -->
<svg version="1.1" id="Capa_1" xmlns="http://www.w3.org/2000/svg" xmlns:xlink="http://www.w3.org/1999/xlink" x="0px" y="0px"
	 viewBox="0 0 163.4 111.1" style="enable-background:new 0 0 163.4 111.1;" xml:space="preserve">
<style type="text/css">
	.st0{fill-rule:evenodd;clip-rule:evenodd;fill:#00959C;}
	.st1{fill:#00959C;}
</style>
<path class="st0" d="M0,39.3c0,40.1,55.1,55,82.3,14.2c28.2,42.3,81.1,24.6,81.1-14.3s-52.6-57.5-81.1-14.1C55.3-17.8,0-0.8,0,39.3
	L0,39.3z M14.5,39.3c0-28.9,40.9-38,59.9,0C55,75.9,14.5,68.2,14.5,39.3L14.5,39.3z M90.3,39.3c17.1-38.8,59.1-28.1,59,0.1
	S106.9,76.3,90.3,39.3z"/>
<rect x="29.8" y="35.2" class="st0" width="24.3" height="8"/>
<polygon class="st0" points="117.8,43.1 109.8,43.1 109.8,34.6 117.8,34.6 117.8,26.6 126.3,26.6 126.3,34.6 134.3,34.6 134.3,43.1 
	126.3,43.1 126.3,51.1 117.8,51.1 "/>
<path class="st1" d="M155.6,7.6V4h-1V3.2h2.7V4h-1v3.6H155.6L155.6,7.6z M157.7,7.6V3.2h1l0.6,3l0.6-3h1v4.3h-0.6V4.1l-0.7,3.4H159
	l-0.7-3.4v3.4H157.7z"/>
<path class="st0" d="M69.2,99.6c0,7.9-4,11.7-11.8,11.4h-6.7V99.6V88.2h6.7C65.2,88,69.3,91.8,69.2,99.6L69.2,99.6z M63.6,99.6
	c0-4.5-2.3-6.6-7.1-6.4v6.4v6.4C61.3,106.3,63.7,104.1,63.6,99.6z"/>
<path class="st0" d="M82.3,111c-6.4,0-8.9-2.1-9.2-7.6V88.2H79v15c-0.1,2.4,1,3.4,3.3,3.4c2.3,0,3.4-1,3.3-3.4v-15h5.8v15.3
	C91.2,108.9,88.8,111,82.3,111z"/>
<polygon class="st0" points="104.6,88.2 96,88.2 96,93.1 101.7,93.1 101.7,99.6 101.7,106.2 96,106.2 96,111 104.6,111 113.1,111 
	113.1,106.2 107.5,106.2 107.5,99.6 107.5,93.1 113.1,93.1 113.1,88.2 "/>
<polygon class="st0" points="129.9,99.6 123.6,88.2 117.4,88.2 117.4,111 122.9,111 122.9,97.3 124.2,99.7 130.5,111.1 136.7,111.1 
	136.7,88.3 131.2,88.3 131.2,102 "/>
<path class="st0" d="M149.1,92.9c-3.3,0-3.6,2.9-3.6,6.7c0,3.7,0.3,6.7,3.6,6.7c3.3,0,3.5-2.9,3.5-6.7
	C152.7,95.9,152.4,92.9,149.1,92.9L149.1,92.9z M149.1,111c-6.6,0-9.7-3.6-9.7-11.4c0-7.8,3.1-11.4,9.7-11.4c6.6,0,9.5,3.6,9.5,11.4
	S155.7,111,149.1,111z"/>
<path class="st0" d="M25.7,111L18,88.2h-6.1L4.1,111h6.6l1.2-4.8h6.2l1.4,4.8H25.7L25.7,111z M16.9,101.8H13l1.9-7.2L16.9,101.8z"/>
<path class="st0" d="M28.8,88.2V111h5.7v-7.2h2.4L41,111h6.7l-5.2-8.4c6-2.6,6.2-14.4-4.7-14.4H28.8L28.8,88.2z M34.6,99.4v-6.2
	l2.7,0c5.2,0.1,3.5,6.3,0.1,6.2L34.6,99.4z"/>
</svg>
