<?xml version="1.0" encoding="utf-8"?>
<!-- Generator: Adobe Illustrator 24.2.1, SVG Export Plug-In . SVG Version: 6.00 Build 0)  -->
<svg version="1.1" id="Layer_1" xmlns="http://www.w3.org/2000/svg" xmlns:xlink="http://www.w3.org/1999/xlink" x="0px" y="0px"
	 viewBox="0 0 32 32" style="enable-background:new 0 0 32 32;" xml:space="preserve">
<style type="text/css">
	.st0{fill:#FF6D00;}
</style>
<path class="st0" d="M2.3,4.6V8H0v1.1v5.7h2.3v2.3H0v1.1V24h2.3v3.4h27.4v-2.3H32V12.6h-2.3v-8H2.3z M4.6,6.9h22.9v8h2.3v8h-2.3v2.3
	H4.6V24h2.3v-6.9H4.6v-2.3h2.3V8H4.6V6.9z M9.1,9.1v2.3H16V9.1H9.1z M18.3,9.1v2.3h6.9V9.1H18.3z M2.3,10.3h2.3v2.3H2.3V10.3z
	 M16.6,13.7c-0.9,0-1.7,0.8-1.7,1.7c0,0.9,0.8,1.7,1.7,1.7c0.9,0,1.7-0.8,1.7-1.7C18.3,14.5,17.5,13.7,16.6,13.7z M21.1,13.7
	c-0.9,0-1.7,0.8-1.7,1.7c0,0.9,0.8,1.7,1.7,1.7c0.9,0,1.7-0.8,1.7-1.7C22.9,14.5,22.1,13.7,21.1,13.7z M9.1,18.3v3.4h3.4v-3.4H9.1z
	 M2.3,19.4h2.3v2.3H2.3V19.4z M14.9,19.4v2.3h11.4v-2.3H14.9z"/>
</svg>
