<?xml version="1.0" encoding="utf-8"?>
<!-- Generator: Adobe Illustrator 24.2.1, SVG Export Plug-In . SVG Version: 6.00 Build 0)  -->
<svg version="1.1" id="Layer_1" xmlns="http://www.w3.org/2000/svg" xmlns:xlink="http://www.w3.org/1999/xlink" x="0px" y="0px"
	 viewBox="0 0 792 416.9" style="enable-background:new 0 0 792 416.9;" xml:space="preserve">
<style type="text/css">
	.st0{fill:#8EA3AE;}
	.st1{fill:#2962FF;}
</style>
<path class="st0" d="M330.9,381.1c0-9.3,6.6-16.2,15.6-16.2c8.9,0,14.7,6.2,14.7,15.4v0.5c0,1.3-0.4,1.9-1.9,1.9h-22.6
	c0.4,5.7,4.6,9.5,10.4,9.5c5.3,0,8-2.4,9.6-5.1c0.1-0.1,3.3,0.4,3.3,3.1s-4.7,6.9-13,6.9C337.4,397.1,330.9,390.7,330.9,381.1z
	 M336.9,378.4h18.3c-0.3-5.3-3.6-8.7-8.6-8.7S337.6,373.3,336.9,378.4z"/>
<path class="st0" d="M363.3,390.6c0.1-1.4,1.1-2.6,2.5-2.9c2,2.6,5.5,4.6,10.3,4.6c4.3,0,6.8-1.6,6.8-4.1c0-3.1-2.9-3.7-7.9-4.8
	c-4.5-1-10.8-2.4-10.8-8.8c0-5.7,4.8-9.6,12.2-9.6c7.8,0,11.8,3.3,11.8,6.2c-0.1,1.4-1.2,2.6-2.5,2.9c-2.1-2.8-5.5-4.4-9-4.3
	c-4.3,0-6.6,1.6-6.6,4.2c0,2.8,2.7,3.4,7.6,4.5c4.7,1,11.3,2.4,11.3,9c0,5.9-4.8,9.6-12.7,9.6C367.7,397.1,363.3,393.5,363.3,390.6z
	"/>
<path class="st0" d="M391.7,381c0-9.3,6.7-16,15.9-16s13.1,5.6,13.1,8.5c0,2.6-3.6,3.1-3.8,2.8c-1.4-3.4-4-6-9.2-6
	c-5.7,0-10,4.5-10,10.8s4.3,10.9,10,10.9c5.1,0,7.8-2.6,9.2-6c0.2-0.3,3.8,0.1,3.8,2.9s-4.1,8.4-13.1,8.4
	C398.3,397.1,391.7,390.4,391.7,381z"/>
<path class="st0" d="M422.9,381c0-9.4,6.6-16,16.1-16s16,6.7,16,16.2s-6.6,16-16,16S422.9,390.4,422.9,381z M449.1,381.1
	c0-6.4-4.3-11-10.2-11s-10.2,4.6-10.2,10.9s4.4,11,10.2,11S449.1,387.3,449.1,381.1L449.1,381.1z"/>
<path class="st0" d="M457.5,381c0-9.4,6.6-16,16.1-16s16,6.7,16,16.2s-6.6,16-16,16S457.5,390.4,457.5,381z M483.7,381.1
	c0-6.4-4.3-11-10.2-11s-10.3,4.6-10.3,10.9s4.4,11,10.3,11S483.7,387.3,483.7,381.1L483.7,381.1z"/>
<path class="st0" d="M494.1,393.6v-40.3c0.7-0.5,1.5-0.8,2.3-0.7c2,0,4,1,4,5.4v35.6c0,2.3-1.1,3-2.8,3H497
	C495.4,396.5,494.1,395.9,494.1,393.6z"/>
<path class="st0" d="M505.2,388.3c0-7.1,6.7-10.1,20.5-10.4h0.8v-0.6c0-4.6-2.7-7.2-7.6-7.2c-3.7-0.2-7.2,1.9-8.8,5.2
	c0,0.1-3.9,0-3.9-3.1s4.5-7.3,13.1-7.3c8.7,0,13.4,4.5,13.4,12.2v18.8c0,0.3-1.2,0.7-2.3,0.7c-2.2,0-3.8-1.2-3.9-4.9
	c-2.6,3.4-6.7,5.4-11,5.3C509,397,505.2,393.5,505.2,388.3z M526.5,384.2v-2.4l-1.7,0.1c-8.9,0.3-13.5,2-13.5,6.1
	c0,2.7,2.2,4.5,5.8,4.5C522.6,392.5,526.5,389,526.5,384.2z"/>
<path class="st0" d="M544.9,370.7c1.3-3.8,3.9-5.8,7.8-5.8c3.2,0,5,1.5,5,4.1s-1.8,3.4-1.9,3.2c-1.1-0.9-2.5-1.4-3.9-1.3
	c-5,0-6.9,4.8-6.9,11.9v10.8c0,2.3-1.2,3-2.8,3h-0.7c-1.7,0-2.8-0.7-2.8-3v-27.5c0.6-0.5,1.5-0.8,2.3-0.7
	C542.8,365.4,544.8,366.4,544.9,370.7z"/>
<path class="st0" d="M552.9,394.8v-0.4c-0.1-0.9,0.5-1.6,1.3-1.7c0.1,0,0.3,0,0.4,0h0.4c0.9-0.1,1.6,0.5,1.8,1.4c0,0.1,0,0.3,0,0.4
	v0.4c0.1,0.9-0.5,1.6-1.4,1.7c-0.1,0-0.2,0-0.4,0h-0.4c-0.9,0.1-1.6-0.5-1.7-1.4C552.9,395,552.9,394.9,552.9,394.8z"/>
<path class="st0" d="M557.9,388.6c-0.1-4.3,3.2-7.9,7.5-8c0.2,0,0.3,0,0.5,0c4.5,0,6.6,2.8,6.6,4.2s-1.8,1.6-1.9,1.4
	c-0.7-1.9-2.6-3.1-4.6-3c-2.8,0-5,2.3-5,5.1c0,0.1,0,0.2,0,0.3c0,3.1,2.1,5.4,5,5.4c2,0.1,3.9-1.1,4.6-3c0.1-0.2,1.9,0.1,1.9,1.4
	s-2,4.2-6.6,4.2c-4.3,0.1-7.9-3.2-8-7.5C557.9,389,557.9,388.8,557.9,388.6z"/>
<path class="st0" d="M573.6,388.6c0-4.4,3.7-8,8.1-7.9c4.4,0,8,3.7,7.9,8.1c0,4.4-3.6,7.9-8,7.9c-4.3,0.2-7.8-3.2-8-7.4
	C573.5,389.1,573.5,388.8,573.6,388.6z M586.7,388.7c0-3.2-2.1-5.5-5.1-5.5c-2.8,0-5.1,2.3-5.1,5.2c0,0.1,0,0.2,0,0.3
	c-0.2,2.9,2,5.3,4.9,5.5c0.1,0,0.2,0,0.2,0c2.8,0,5.1-2.3,5.1-5.2C586.7,388.9,586.7,388.8,586.7,388.7z"/>
<path class="st0" d="M594.9,383.2c1-1.6,2.8-2.6,4.7-2.6c2.2-0.1,4.2,1.2,5,3.2c1-2,3.1-3.2,5.3-3.2c3.9,0,5.8,2.4,5.8,6.3v8
	c0,1.1-0.6,1.5-1.4,1.5H614c-0.9,0-1.4-0.4-1.4-1.5v-7.6c0-2.6-1.1-3.9-3.4-3.9c-1.7,0.1-3.2,1-3.9,2.5v9c0,1.1-0.6,1.5-1.4,1.5
	h-0.3c-0.8,0-1.4-0.4-1.4-1.5v-7.5c0-2.7-1.1-4-3.4-4c-1.7,0.1-3.2,1-3.9,2.5v9c0,1.1-0.6,1.5-1.4,1.5h-0.3c-0.8,0-1.4-0.4-1.4-1.5
	v-13.8c0-0.1,0.5-0.4,1.1-0.4C593.8,380.8,594.8,381.3,594.9,383.2z"/>
<path class="st1" d="M16.9,313.1c0.4-29.7,0.6-58.9,0.6-87.7c0-49.6-0.6-97.8-1.9-144.5c15.8-1.8,31.7-2.7,47.6-2.9
	c25,0,42.4,3.3,52.1,9.8c14.9,10,23.3,23.5,25.2,40.6c0.4,4.4,0.6,8.6,0.6,12.6c0,11.6-2,21.7-5.9,30.2
	c-5.4,11.6-15.1,19.9-28.9,24.9c15.4,2.4,26.5,7.9,33.2,16.8c5.7,7.4,8.5,18.1,8.5,31.9c0,2.7-0.1,5.4-0.3,8.3
	c-1.3,18.1-7,31.6-17.2,40.6c-10.2,8.9-24.3,15.1-42.4,18.3c-11.9,1.9-23.9,2.8-35.9,2.7C41.4,314.7,29.6,314.2,16.9,313.1z
	 M57.9,117.7l1.1,68.5c19.8-1.1,32.4-7.8,37.7-20.3c2.8-6.1,4.2-12.8,4.3-19.5c0-5.4-1.1-10.8-3.2-15.8
	c-3.7-9.1-13.3-13.6-28.6-13.6C65.5,117,61.7,117.3,57.9,117.7z M60.9,219.1v53.5c2.5,0.1,4.8,0.2,7,0.2c19.8,0,32.3-5.4,37.5-16.3
	c2.9-6.1,4.3-11.5,4.3-16.4c0.1-4.6-1.4-9-4.2-12.6c-4.6-5.9-15.2-8.8-31.9-8.8C69.8,218.6,65.5,218.8,60.9,219.1L60.9,219.1z"/>
<path class="st1" d="M210.3,78.6c-1.9,55.5-2.9,103-2.9,142.6c0,15.8,0.2,30.3,0.5,43.6l71.2-3.5l1.1,52.1l-114,2.6
	c0.1-14.1,0.1-28.1,0.2-42c0-64-1.4-127.7-4.1-191L210.3,78.6z"/>
<path class="st1" d="M366.6,71.9c47,0,70.6,40.2,70.6,120.7c0,80.6-25.2,120.9-75.6,120.9S286,271.7,286,188.3
	C286,110.7,312.9,71.9,366.6,71.9z M333.1,197.1c-0.1,2.9-0.2,5.7-0.2,8.4c0,42.1,9.8,63.2,29.5,63.2c20.9,0,31.3-23.9,31.3-71.6
	c0-47.7-9.7-71.6-29.2-71.6C345.1,125.6,334.5,149.4,333.1,197.1z"/>
<path class="st1" d="M525.8,83.3c47.4,0,71.1,40.5,71.1,121.6c0,81.2-25.4,121.8-76.2,121.8c-50.8,0-76.2-42.1-76.2-126.2
	C444.6,122.4,471.6,83.3,525.8,83.3z M492,209.5c-0.1,2.9-0.2,5.7-0.2,8.4c0,42.5,9.9,63.7,29.7,63.7c21,0,31.6-24,31.6-72.1
	s-9.8-72.1-29.4-72.1C504.1,137.4,493.5,161.4,492,209.5z"/>
<path class="st1" d="M621.2,14.3L673,169.7l26.5-84.5l42.6,2.1c-8,23-20.6,59.3-37.7,109.1c9.6,30.9,57.3,155,73.8,201.7l-44.9,4.5
	l-61.5-174.8l-29.6,98.9l-45.4-6.4c11.3-30.2,27.6-80.4,43.7-123.9L575.4,21.1L621.2,14.3z"/>
</svg>
