<?xml version="1.0" encoding="utf-8"?>
<!-- Generator: Adobe Illustrator 19.2.1, SVG Export Plug-In . SVG Version: 6.00 Build 0)  -->
<svg version="1.1" id="Layer_1" xmlns="http://www.w3.org/2000/svg" xmlns:xlink="http://www.w3.org/1999/xlink" x="0px" y="0px"
	 viewBox="0 0 1053.7 185.8" style="enable-background:new 0 0 1053.7 185.8;" xml:space="preserve">
<style type="text/css">
	.st0{fill:#C42126;}
	.st1{fill:#F27421;}
	.st2{fill:#F7AB1A;}
	.st3{fill:#FFFFFF;}
	.st4{clip-path:url(#SVGID_2_);}
	.st5{fill:#0A4369;}
	.st6{clip-path:url(#SVGID_4_);}
	.st7{clip-path:url(#SVGID_6_);}
	.st8{fill:#FFBB00;}
</style>
<title>britannica</title>
<rect y="14.5" class="st0" width="40.6" height="156.7"/>
<rect x="45.1" y="14.5" class="st1" width="40.6" height="156.7"/>
<rect x="90.2" y="14.5" class="st2" width="40.6" height="156.7"/>
<path class="st3" d="M6.9,163.1c0-1.8,0.2-3.6,0.6-5.3c0.4-1.6,1-3.2,1.7-4.7c0.8-1.6,1.8-3,3-4.4c1.3-1.5,2.7-3,4.1-4.3l3.5-3.3
	c0.8-0.7,1.6-1.5,2.3-2.3c0.5-0.7,1-1.4,1.4-2.2c0.3-0.7,0.5-1.5,0.6-2.3c0.1-1,0.2-1.9,0.2-2.9c0-3.5-1.4-5.3-4.2-5.3
	c-1.7-0.2-3.4,0.9-4,2.5c-0.4,0.8-0.6,1.7-0.7,2.6c-0.1,1-0.2,2.1-0.2,3.2H7v-1.6c0-4,1.1-7,3.2-9.2c2.1-2.1,5.5-3.2,10.1-3.2
	c4.3,0,7.5,1,9.6,3s3.1,4.9,3.1,8.6c0,1.3-0.1,2.6-0.4,3.8c-0.2,1.2-0.6,2.3-1.1,3.4c-0.6,1.1-1.3,2.2-2.1,3.2c-1,1.1-2,2.2-3.1,3.2
	l-4.8,4.5c-1.1,1-2.2,2.1-3,3.4c-0.6,0.9-1.1,1.8-1.4,2.9h16.1v6.7L6.9,163.1L6.9,163.1z"/>
<path class="st3" d="M60.8,128.1l-0.9,9.7H60c0.8-1.1,1.9-1.9,3.1-2.4c1.5-0.5,3.1-0.8,4.7-0.8c1.8-0.1,3.5,0.3,5.1,1.2
	c1.3,0.7,2.4,1.8,3.2,3.1c0.8,1.3,1.4,2.8,1.7,4.4c0.3,1.6,0.5,3.3,0.5,5c0,2.2-0.2,4.3-0.6,6.4c-0.3,1.8-1.1,3.5-2.1,5
	c-1.1,1.4-2.5,2.5-4.1,3.1c-2.2,0.8-4.5,1.1-6.7,1c-2.2,0.1-4.5-0.3-6.5-1c-1.5-0.6-2.8-1.6-3.8-2.9c-0.9-1.1-1.5-2.5-1.8-3.9
	c-0.3-1.3-0.4-2.6-0.5-3.9V151h8.3c0,0.8,0,1.5,0.1,2.3s0.3,1.5,0.6,2.3c0.3,0.7,0.7,1.3,1.3,1.7c0.6,0.5,1.4,0.7,2.2,0.7
	c1.6,0.1,3.1-0.7,3.9-2.1c0.9-1.9,1.3-4.1,1.2-6.2c0-1.5-0.1-2.9-0.2-4.4c-0.1-1-0.4-1.9-0.8-2.8c-0.3-0.6-0.9-1.1-1.5-1.4
	c-0.8-0.3-1.6-0.4-2.4-0.4c-1.1-0.1-2.1,0.3-2.9,1c-0.7,0.8-1.1,1.8-1.2,2.9h-7.7l1.6-23.2h22.2v6.7H60.8z"/>
<path class="st3" d="M97.5,134.7c0.1-2.5,0.7-4.9,1.6-7.2c0.8-2,2.2-3.8,4-5.1c2.2-1.4,4.8-2,7.4-1.9c2.2-0.1,4.4,0.3,6.5,1.1
	c1.7,0.7,3.2,2,4.1,3.6c1.1,2,1.9,4.2,2.2,6.4c0.5,3.2,0.7,6.4,0.6,9.6c0,3-0.1,5.8-0.3,8.6c-0.1,2.5-0.7,4.9-1.6,7.2
	c-0.8,2-2.2,3.8-4,5c-2.2,1.3-4.8,2-7.4,1.8c-2.2,0.1-4.4-0.3-6.4-1c-1.7-0.7-3.2-1.9-4.1-3.5c-1.1-2-1.9-4.1-2.2-6.4
	c-0.5-3.2-0.7-6.4-0.6-9.6C97.2,140.3,97.3,137.4,97.5,134.7z M106,151.7c0.1,1.4,0.3,2.7,0.8,4c0.2,0.8,0.7,1.5,1.4,2
	c0.7,0.4,1.5,0.6,2.3,0.5c0.8,0,1.7-0.2,2.3-0.7c0.7-0.6,1.2-1.4,1.4-2.3c0.4-1.4,0.6-2.9,0.7-4.4c0.1-1.8,0.2-4.1,0.2-6.9v-4.6
	c0-2.7-0.1-4.9-0.2-6.6c-0.1-1.4-0.3-2.7-0.7-4c-0.2-0.8-0.8-1.5-1.4-2c-0.7-0.4-1.5-0.6-2.3-0.5c-0.8,0-1.7,0.2-2.3,0.7
	c-0.7,0.6-1.2,1.4-1.4,2.3c-0.4,1.4-0.6,2.9-0.7,4.4c-0.1,1.9-0.2,4.1-0.2,6.9v4.6C105.8,147.9,105.9,150,106,151.7L106,151.7z"/>
<g>
	<g>
		<defs>
			<rect id="SVGID_1_" x="90.2" y="14.5" width="40.6" height="156.7"/>
		</defs>
		<clipPath id="SVGID_2_">
			<use xlink:href="#SVGID_1_"  style="overflow:visible;"/>
		</clipPath>
		<g class="st4">
			<path class="st5" d="M51.2,41.5c1.1,0.7,2.2,1.3,3.5,1.7c-0.2-1-0.7-1.9-1.4-2.6c-1.1-1-5.3-4.6-5.4-5.1c-0.1-0.5-2.8,0-1.6,1.1
				C46.3,36.6,50.2,40.6,51.2,41.5z"/>
			<path class="st5" d="M55.2,40.4c0,0-1.8-3.6-1.7-6.1c0,0-0.3-1.2-0.9-0.4c0,0-0.4,0.7-0.9-0.4c-0.5-1.1-1.7-0.3-1.5,0
				C50.2,33.5,53.7,39.7,55.2,40.4z"/>
			<path class="st5" d="M58.5,41.3c0,0,0.4-0.7-1.3-4.6s-2.2-4.8-2.1-5.3c-0.6,0-1.1,0.5-1.1,1.1C54,32.5,55.8,39.2,58.5,41.3z"/>
			<path class="st5" d="M60.1,39.1c0-2.3-0.2-4.5-0.8-6.7c-0.8-2.4-1-1.8-1.3-0.6l-0.3,0.6h-1.6C58.1,34.2,59.5,36.5,60.1,39.1z"/>
			<path class="st5" d="M61.8,35.8c0.5,1.8,1.1,3.6,1.8,5.3c0,0,0.8-0.6,0.5-4.6c0,0-1.3-5.1-1.4-5.9c0,0-0.8-2.4-1.4-0.5
				C61.6,32,61.8,33.9,61.8,35.8z"/>
			<path class="st5" d="M66.3,37.9c0,0,0.5-0.1,0.8-1.5c0.4-1.4,0.2-4.7,0.4-5.3c0,0,1.7-3.3-0.9-1c-0.1,0.2-0.3,0.4-0.5,0.5
				c0,0-2.5-1.2-1.9,0C64.2,30.6,66.5,31.4,66.3,37.9z"/>
			<path class="st5" d="M70.5,37.5c0,0,1.4-6.2,1.8-6.4c0,0,0.6-2.3-1.2-1.1c0,0-2,5.7-2,6.5c-0.1,1-0.1,2.1,0,3.1
				C69.1,39.5,69.4,41.5,70.5,37.5z"/>
			<path class="st5" d="M72.2,37.8c0,0-0.6,3.9,1.1-0.6c0,0,1.7-2.9,2.6-3.3c0,0,2.7-2.3,0-1.4c0,0-0.7,0.6-0.9,0.4
				c0,0-0.3-3.1-1.5-1.1c0.2,0.8,0.2,1.7,0,2.5C73.4,34.3,72.5,36.8,72.2,37.8z"/>
			<path class="st5" d="M76.6,38.5c0,0,1.2-2.4,2-4.2c0,0,1.9-3.2-0.4-1.8c0,0-3.7,5.3-4.2,8.5C73.9,40.9,73.8,43,76.6,38.5z"/>
			<path class="st5" d="M77.2,40.6c0,0-1.5,1.8,1.8-0.8c0,0,7.2-8.9,2.2-5.6c-0.4,0.1-0.9,0-1.3-0.1c-0.5-0.3-0.1-0.2-0.5,0.5
				C79.9,36.8,79,39.2,77.2,40.6z"/>
			<path class="st5" d="M78.3,42.8c-1.4,1.5,1.9-0.5,2.1-0.5s5.7-3.1,6.5-4.5s0-2.5-1.3-2.1C84.2,36.2,78.3,42.8,78.3,42.8z"/>
			<path class="st5" d="M107.8,43.9c0.8-1.3,4.1-5.7,4.3-6.3c0.2-0.7,0.2-1.4,0-2.1c0,0-1.8-1-1.8,1.4c-1,1.7-2.3,3.2-3.8,4.5
				c0,0-4.5,2.9-5.3,4.6c0,0-2.3,3.9-3.7,6.6c0,0-3.3,2.7-4.5-2.8c0,0-0.1-1.7,0-2.7c0,0-1-2.3-1.8,0.4c-0.5,1.6-0.6,3.2-0.1,4.8
				c0.2,1.4,0.7,2.8,1.7,3.9c1,1.8,1.4,3.8,1.4,5.8c0,0-1.2,3.4-3.3,0.8c-0.9-0.8-1.4-1.9-1.3-3.1c0,0,0-0.8-0.6-0.7
				c0,0-0.9,0.2-0.7,2c0,0-0.4,1.3,1.3,5.7c0,0,0.9,5.7-1.2,7c-0.5,0.6-1.2,1.1-1.9,1.4c-0.7,0-1.5-0.3-1.9-0.9
				c-0.1-0.7,0.1-1.5,0.6-2.1c0,0-0.1-1.6-0.9,0.1c0,0-2.9,5.9-3.6,6.3s-1.6,1.5-3.6,0.8c-1-0.5-1.4-1.7-0.9-2.6
				c0.1-0.2,0.2-0.3,0.3-0.5c0,0,0.4-1.6-1.1-0.2c0,0-1.8,3.4-2,5.2c-0.3,0.7-0.6,1.3-1,1.9c-0.5,0.5-1.2,0.7-1.9,0.6
				c0,0-3.2-2.3,1-5.6c0,0,0.9-0.9-0.4-0.6c-0.9-0.1-1.7-0.7-2-1.5c-0.4-1.4,1-1.9,1.5-2c0.6,0,1.2,0,1.8,0.1c0,0,0.8-0.1,0.3-0.4
				s-1.3-1.4,0.7-2.1c0,0,2.4-0.6,3.5,0.5c0,0,2,0,0.6-0.8c0,0-3.1-0.8-0.4-2.3c1-0.4,2.1-0.4,3.1,0.1c0,0,2.7-0.4,0.8-0.8
				c0,0-2.2-0.4-1.4-2.2c1-0.7,2.2-1,3.3-0.8c0,0,2.1,0,0.2-1c0,0-3-0.8-0.5-2.4c0.8-0.5,1.7-0.7,2.6-0.6c0,0,1.9-0.7-0.4-1.1
				c-0.6,0.1-1.3,0.2-1.9,0.2c0,0-3.4-1.9,1.7-3.2c0,0,1.5-1.5-1.2-0.8c-0.4,0.4-1,0.6-1.6,0.7c0,0-2.4,0.1-0.6-2.5
				c0.6-0.5,1.2-1,1.9-1.4c0,0,0.7-1.8-1-1c-0.5,0.5-1,1-1.5,1.5c0,0-1,1.2-1.9-0.4c0,0-1.5-1.3,1.3-2.3c0,0,1-1.3-0.7-0.8
				c0,0-2.2,1.7-2.7-0.1c0.5-1.9,1.9-3.5,3.8-4.1c1.1-0.1,2.1-0.4,3.1-0.9c0,0,1.1-1.8-1.2-1c0,0,0.2,0.3-0.9,0.4
				c-1.1,0-2.2,0.3-3.2,0.7c0,0-3,1.4-3.4,2c0,0-1,0.9-0.5-0.7c0,0,0.5-1.9,0.7-2.6c0,0,0.1-1.1-0.8,0c0,0-2.5,2.6-2.6,2.7
				c-0.2,0.1-0.9,0.6-0.6-1.5c0,0,0.2-2.3,0.2-2.5s0.2-1.3-0.8,0c-1.1,1.3-2.7,3.1-2.7,3.1s-1.9-3.6-1.9-4.7l-1.5,5.2
				c0,0-1.6-1.9-2.6-3.2s-0.9-0.2-0.8,0s0.1,2.5,0.1,2.5c0.2,2.1-0.5,1.5-0.7,1.4S57.8,44,57.8,44C57,42.9,57,44,57,44
				c0.1,0.7,0.5,2.6,0.5,2.6c0.5,1.6-0.5,0.6-0.5,0.6c-0.4-0.7-3.4-2.2-3.4-2.2c-1-0.5-2.1-0.8-3.2-0.8c-1.1-0.2-0.9-0.4-0.9-0.4
				c-2.3-0.9-1.3,1-1.3,1c1,0.5,2,0.9,3.1,1c1.8,0.7,3.2,2.3,3.7,4.2c-0.6,1.8-2.7,0-2.7,0c-1.7-0.6-0.7,0.8-0.7,0.8
				c2.8,1.1,1.1,2.4,1.1,2.4c-0.2,0.6-0.8,0.9-1.4,0.7c-0.2-0.1-0.4-0.2-0.6-0.4c-0.5-0.5-1.1-1-1.5-1.5c-1.7-0.9-1,0.9-1,0.9
				c0.7,0.4,1.3,0.9,1.9,1.5c1.7,2.6-0.8,2.4-0.8,2.4c-0.6-0.1-1.1-0.4-1.6-0.7c-2.6-0.8-1.2,0.7-1.2,0.7c5,1.6,1.4,3.2,1.4,3.2
				c-0.6,0-1.3-0.1-1.9-0.3c-2.4,0.3-0.5,1.1-0.5,1.1c0.9-0.1,1.8,0.2,2.5,0.7c2.4,1.7-0.7,2.3-0.7,2.3c-1.9,0.9,0.2,1,0.2,1
				c1.2-0.1,2.4,0.3,3.3,1c0.8,1.9-1.5,2.2-1.5,2.2c-2,0.4,0.7,0.9,0.7,0.9c1-0.4,2.2-0.4,3.2,0.1c2.7,1.6-0.5,2.3-0.5,2.3
				c-1.5,0.7,0.6,0.8,0.6,0.8c1.2-1,3.6-0.4,3.6-0.4c2,0.7,1.2,1.9,0.6,2.1s0.2,0.4,0.2,0.4c0.6-0.1,1.2-0.1,1.9,0
				c0.4,0.1,1.9,0.7,1.4,2.1c-0.4,0.8-1.2,1.4-2.1,1.4c-1.3-0.4-0.4,0.5-0.4,0.5c4.1,3.6,0.8,5.7,0.8,5.7c-0.7,0.1-1.4-0.1-1.9-0.7
				c-0.4-0.6-0.7-1.3-0.9-2c0.5-1.8-1.1-5.2-1.1-5.2c-1.4-1.5-1.1,0.1-1.1,0.1c0.7,0.8,0.7,2-0.1,2.7c-0.2,0.2-0.4,0.3-0.6,0.4
				c-2,0.6-2.9-0.6-3.5-1s-3.3-6.5-3.3-6.5c-0.7-1.7-0.9-0.2-0.9-0.2c0.4,0.6,0.6,1.3,0.5,2.1c-0.5,0.6-1.2,0.9-2,0.8
				c-0.7-0.4-1.3-0.9-1.8-1.5c-2-1.5-0.8-7.1-0.8-7.1c2-4.3,1.7-5.6,1.7-5.6c0.3-1.8-0.6-2-0.6-2c-0.5-0.1-0.6,0.7-0.6,0.7
				c0,1.2-0.5,2.3-1.4,3c-2.3,2.5-3.3-0.9-3.3-0.9c0-2,0.6-4,1.7-5.7c1-1.1,1.6-2.4,1.9-3.8c0.5-1.6,0.6-3.2,0.1-4.8
				c-0.6-2.7-1.8-0.5-1.8-0.5c0,1-0.2,2.7-0.2,2.7c-1.5,5.4-4.7,2.6-4.7,2.6c-1.3-2.8-3.4-6.8-3.4-6.8c-0.7-1.7-5.1-4.8-5.1-4.8
				c-1.4-1.4-2.6-2.9-3.6-4.7c0.1-2.4-1.7-1.5-1.7-1.5c-0.2,0.7-0.3,1.4-0.1,2.1c0.2,0.6,3.3,5.2,4,6.5s3.9,7.2,3.9,7.2
				c2,5.5-2.3,6.7-2.3,6.7C21.9,55,22.2,52,22.2,52c-1.4-1.5-1.7,0.9-1.7,0.9c-0.4,3.3,8.3,8.6,8.3,8.6c5.6,5.4,0.5,8.5,0.5,8.5
				c-4.1,1.6-6.4,2.7-7.1,4.5s1.3,1,1.3,1c0.5-0.8,1.1-1.5,1.8-2.1c0.4-0.5,9.4-0.6,10.1,3.9s-4.3,4.9-4.3,4.9
				c-2.3-0.8-2.2,0.8-2.2,0.8c1.6,1.8,5.3,0.7,5.3,0.7c5-4.5,7.9-0.8,7.9-0.8c1.6,3.9-5,4.5-5,4.5c-1.9-0.4-1.7,0.8-1.7,0.8
				c2.9,1.9,5.3,1.2,10.5-1.6s4.8,2.4,4.8,2.4c-1.9,3.1-3.4,2.7-3.4,2.7c-1.4-0.2-2.3-0.2-2.3-0.2c-0.5,1.3,1.2,2,1.2,2
				c1.9,0.5,6-1.5,6-1.5c1-1,2.4-1.4,3.7-1.2c2.2-0.8,2.6,0.9,2.6,0.9c0.5,1-1.6,1.4-1.9,2c-0.1,0.2,0,0.6,0.2,0.7
				c0.1,0,0.1,0,0.2,0.1c2.8-1.9,4.2,1.3,4.2,1.3c0.5,2.7-4.3,3.2-4.3,3.2c-0.3,0.2-0.4,0.6-0.2,0.9l0.1,0.1
				c6.4-0.5,2.8,4.7,2.8,4.7c-1,0.4-2,0.6-3,0.7c-0.8,1.1,0.3,1.2,0.3,1.2c0.6-0.4,1.2-0.5,1.9-0.3c0.8,0.1,2.4,1.9,1.2,3.5
				c-0.7,0.9-1.7,1.6-2.8,2c-0.6,0.2-0.8,0.1-0.8,1l15.9,0.1c0-0.2-0.1-0.3-0.1-0.4c-0.2-0.4-0.5-0.8-1-1c-0.9-0.4-1.6-1.1-2.2-1.9
				c-1.1-1.6,0.6-3.3,1.4-3.4c0.6-0.1,1.3,0,1.8,0.4c0,0,1,0,0.4-1.2c-1-0.1-2-0.4-2.9-0.9c0,0-3.3-5.4,3.1-4.5
				c0.3-0.2,0.3-0.6,0.1-0.9L72.8,99c0,0-4.7-0.8-4-3.4c0,0,1.5-3.1,4.2-1c0.3,0,0.5-0.3,0.5-0.6c0-0.1,0-0.1,0-0.2
				c-0.3-0.6-2.4-1-1.8-2.1c0,0,0.5-1.7,2.6-0.8c1.3-0.1,2.6,0.3,3.6,1.3c0,0,3.9,2.3,5.8,1.8c0,0,1.7-0.6,1.3-1.9
				c0,0-0.8,0-2.3,0.1c0,0-1.5,0.3-3.2-2.9c0,0,0-5.2,4.9-2.1s7.2,3.9,10.2,2.2c0,0,0.3-1.2-1.6-0.9c0,0-6.5-1-4.7-4.8
				c0,0,3-3.5,7.7,1.2c0,0,3.6,1.3,5.3-0.4c0,0,0.3-1.6-2.1-0.9c0,0-4.9-0.7-4-5.1c0.9-4.5,9.8-3.9,10.1-3.4
				c0.7,0.6,1.3,1.3,1.7,2.1c0,0,2,0.9,1.4-0.9c-0.6-1.9-2.8-3-6.8-4.9c0,0-4.9-3.4,1-8.5c0,0,8.8-4.9,8.6-8.1c0,0-0.2-2.4-1.6-1
				c0,0,0.1,3-4.3,4c0,0-4.1-1.4-1.9-6.8C103.5,51,107,45.2,107.8,43.9z M59.6,87.8c0,0-3.7-1.2-4.9,0.1s-2.6-0.3-1.1-1.2
				c0,0,1.7-0.7,0-1.4s-3-2.4-8.3-1.4c0,0-1.4-0.1,0.8-1.5c0,0,1.1-0.7-0.6-1.3c-1.3-0.6-2.6-1.3-3.8-2.1c0,0-3.6,0.6-4.2,0.9
				c0,0-1.5,0,0.3-1.5c0.6-0.4,1.3-0.8,2.1-1c-0.4-0.5-0.8-1-1.3-1.4c-0.8-0.7-0.3-2.2-6.6-4c0,0-0.8-1,1.3-1.2
				c0.4-0.3,1-0.2,1.3,0.2c0,0,1,0.2,0.3-1.3c0,0-2.9-6.5-3.3-8.7c0,0-2.9-2.4-3.9-2.6c0,0-1-1.3,1.2-0.6c0,0,3.8,2.4,2-1.1
				c0,0-1.2-4.9-0.5-5.5c0,0-0.2-3.8,1.5,0c1.7,3.8,3.3,16.7,6.6,19.9c0,0,3.2,6.6,13,9.9l8.3,4.9C59.9,85.9,63.2,88,59.6,87.8z
				 M71.5,67.1c0,0,0.7-2.7,2-0.7c0,0,1,3.3-0.5,2C73,68.4,70.4,70.5,71.5,67.1z M58.8,59.4c1.7,1.8,1,1.3,0,1.2s-1.8,4.1-1.4-0.8
				C57.4,59.8,57.2,57.5,58.8,59.4L58.8,59.4z M59.6,56.8c0,0,0-2.7,1.5-1s1.2,1.6,0.4,1.9S59.5,60,59.6,56.8z M63.6,58.7
				c1.4,2.1,1,1.7,0,1.8c0,0-1.3,3.6-1.5-1.1C62.1,59.4,62.2,56.6,63.6,58.7L63.6,58.7z M64.3,67.6c0,0,1.5,2.1-0.6,1.4
				c0,0-0.8-0.6-1,0.1c-0.3,0.8-1.2,1.2-0.8-1.1C61.8,68,62.2,62,64.3,67.6L64.3,67.6z M64.5,63.3c0,0,0.5-3.6,2.1-0.9
				c1.6,2.7-0.6,2.3-0.6,2.3S65,67.8,64.5,63.3L64.5,63.3z M67.2,66.3c0,0,0.4-1.8,1.5,0s1.2,2.6,0,2.4c-0.6-0.2-1.3,0.1-1.4,0.7
				l0,0C67.3,69.6,65.2,72.6,67.2,66.3z M69.4,61.1c-1.2,0-1.7,3.8-2.2-1.5c0,0,0.9-2.5,2.1,0C69.3,59.5,70.6,61.1,69.4,61.1
				L69.4,61.1z M69.9,63.5c0,0-0.1-3.2,1.9-0.5c0,0,0.6,2.3-0.7,1.7C71.2,64.7,69.6,67.9,69.9,63.5L69.9,63.5z M74.8,69.7
				c-0.2,0.9-2.7,1.5-2.2,0.9c0.3-0.3,0.4-0.6,0.4-1C73,69.6,75,68.8,74.8,69.7L74.8,69.7z M73.7,63.5c0,0,0.5-2.6,1.7-1.1
				s1,3.1,0.4,2.7C75.2,64.6,75,67.5,73.7,63.5L73.7,63.5z M77.7,67.8c-0.4,0.1-2.9,1.6-1.9-1.1c0,0,1.7-1.3,1.9-0.4
				C77.8,67.1,78,67.6,77.7,67.8L77.7,67.8z M76.7,61.4c0,0,1.3-3.5,1.6-0.2c0.3,3.3,0,1.7,0,1.7S76.6,64,76.7,61.4L76.7,61.4z
				 M79.3,64.9c-2.4,0.8,0-1.2,0-1.2C80.1,63.8,81.7,64.1,79.3,64.9z M80.6,58c0.3-0.2,0.7-0.3,1-0.4c-0.1,0.6-0.5,1-1,1.2
				C79.9,58.8,80.5,58,80.6,58L80.6,58z M81.6,61.1c-0.4,0.2-0.8,0.6-1,1l-1.2-0.7C81.4,59.9,82.3,60.8,81.6,61.1L81.6,61.1z
				 M79.5,54.9l0.2,0.8C79.2,55.7,79.5,54.9,79.5,54.9L79.5,54.9z M79.3,56.9c0.7,1.6,0,1.7-0.7,1.6c-0.7-0.1-0.8-0.8-0.7-1.6
				C77.8,56.9,78.5,55.3,79.3,56.9L79.3,56.9z M77.2,51.8c0.8,0.6,0.3,0.7,0,0.6C76.9,52.3,77.2,51.8,77.2,51.8z M77.4,55
				c-0.7,1.4-1.3-1.5-1.3-1.5c0.5-0.3,1.1-0.1,1.4,0.4C77.7,54.2,77.7,54.7,77.4,55L77.4,55z M75.5,48.3c1,0.6,0.4,1.4-0.3,1.3
				C74.5,49.5,75.5,48.2,75.5,48.3L75.5,48.3z M75.6,52.8c-0.9,1.7-1.1-1.6-1.1-1.6C75,51.1,76.5,51.1,75.6,52.8L75.6,52.8z
				 M76.1,56.1c0,0,0.4,1.6-0.5,1.6s-0.9,1.9-1-0.7C74.6,57,73.7,54,76.1,56.1L76.1,56.1z M73.4,48.9c0.6-0.1,1.3,1.1-0.2,1.2
				C71.8,50.3,73.5,48.9,73.4,48.9L73.4,48.9z M72.7,53.2c0.3-0.9,1.8-0.2,0.8,1.7C72.6,56.8,72.7,53.2,72.7,53.2L72.7,53.2z
				 M73.6,59c1,2,0.4,2.2,0,1.8s-1.8,2.7-1.3-1.2C72.4,59.6,72.6,57,73.6,59L73.6,59z M71.7,52.8c-1.6,2-1-2.2-1-2.2
				C71.2,50.4,73.5,50.8,71.7,52.8L71.7,52.8z M71.7,48.4c-0.7,1.4-1.2-0.6-1.2-0.6S72.4,47,71.7,48.4L71.7,48.4z M71.8,56.2
				c1.2,2.1-0.4,0.7-0.8,2s-1.7-0.4-1.2-1.4C69.8,56.8,70.7,54.2,71.8,56.2L71.8,56.2z M68.3,49.2c0.7-0.6,2.1,0.4,0.9,1.4
				C68,51.6,68.3,49.1,68.3,49.2L68.3,49.2z M68.4,53.3c0.3-0.7,0.6-0.1,1.3,0.4s0.2,1.2-1.3,1.8C66.9,56,68.4,53.2,68.4,53.3
				L68.4,53.3z M67.4,47.8c0.4,0.5-0.6,0.8-1.1,0.7c-0.4-0.3-0.7-0.7-0.8-1.2C66.3,47.1,66.9,47.3,67.4,47.8L67.4,47.8z M67,51.3
				c1.8,1.6-1.6,1.7-1.7,0C65.3,51.3,65.3,49.7,67,51.3z M66.6,55.7c2.1,2.2,1,1.6,0,1.6s-1.3,2.8-2-0.5
				C64.6,56.8,64.5,53.6,66.6,55.7z M63.9,54.5c-0.8-0.2-0.9,2.7-1.7-0.8c0,0-0.6-1.5,1-0.4C64.9,54.3,64.6,54.7,63.9,54.5
				L63.9,54.5z M64.3,49.2c-0.5,2.2-0.8,1.3-1.4,0.5C62.4,48.9,64.3,49.3,64.3,49.2L64.3,49.2z M62.1,48c1,0.2-1.3,1-1.3,1
				C59.5,48,61,47.8,62.1,48L62.1,48z M60,51.4c0.6,0.1,1.1,0.2,1.6,0.5c0.8,0.4-0.6,1.3-1.9,0.5S60,51.4,60,51.4L60,51.4z
				 M58.8,53.7c1.7,1.3,0.4,1.3,0,1.3s-0.9,1.8-1-0.3C57.7,54.8,57,52.5,58.8,53.7L58.8,53.7z M57.2,49.3c0,0,0.6-0.7,0.9,0
				c0.3,0.7-0.1,1.5-0.6,1.3c-0.4-0.2-0.6-0.6-0.4-1C57,49.5,57.1,49.5,57.2,49.3L57.2,49.3z M55.2,52.1c0.8-0.7,2,0.7,0.9,1.5
				C55,54.4,55.1,52.2,55.2,52.1L55.2,52.1z M53.1,55.2c0,0,0.6-0.7,0.9,0c0.3,0.7-0.1,1.5-0.6,1.3c-0.4-0.1-0.6-0.6-0.5-1
				C52.9,55.4,53,55.3,53.1,55.2L53.1,55.2z M49.7,60.5c-0.3-1.2,0.9-0.7,0.9-0.7C51,62.4,49.9,61.8,49.7,60.5L49.7,60.5z
				 M50.8,63.3c-0.3-1.2,0.9-0.7,0.9-0.7C52.1,65.2,51,64.5,50.8,63.3L50.8,63.3z M51.7,58.6c0.8-0.7,2,0.7,0.9,1.5
				C51.5,60.9,51.6,58.7,51.7,58.6L51.7,58.6z M54.3,67.3c0,0-1.6-0.1-1.5-1s0.9-0.2,0.9-0.2C54.4,66.2,54.2,67.4,54.3,67.3
				L54.3,67.3z M54.5,62.4c-0.6,1-1.1,1.6-1.3-0.7c0,0,0.6-2.5,1.3-1C55.1,62,55,61.3,54.5,62.4z M56.2,56.9c1.5,1.3,0.4,1.5,0,1.6
				c-0.4,0.2-1,1.9-1.3-1C54.8,57.6,54.7,55.6,56.2,56.9L56.2,56.9z M55.7,69.9c-0.8-0.6,0.5-1,0.5-1s0-0.4,0.6,0
				C57.3,69.2,56.5,70.4,55.7,69.9z M56.9,64.8c-0.4-0.1-0.9,3.1-1.9-0.7c0,0,0.6-3.1,1.8-0.9C58.1,65.3,57.3,64.9,56.9,64.8
				L56.9,64.8z M58.9,68c0,0-1.2,3.6-1.4-1.2c0,0,0.1-3.5,1.4,0C59,66.8,60.5,68.8,58.9,68L58.9,68z M59.5,62.9c0,0,0.3-2.3,1.6-0.5
				c1.3,1.7,1.2,1.8,0.5,1.7C60.9,64,60.7,68.4,59.5,62.9L59.5,62.9z M67.1,83.6c-1.9,1.5-0.8,4.1-0.8,4.1c0.8,0.5,1.1,1.5,0.7,2.3
				c-1.4,1.2-1.1,4.3-0.6,5.1c0.4,0.8,0.6,1.7,0.7,2.6c-1.2,1.7-1.5,3.9-0.6,5.8c0.3,0.9,0.1,1.8-0.4,2.5c-1.3,3.1,0.4,4.1,0.1,4.7
				s-2.8,0-2.8,0L64,75.8h1.3c2.1-0.3,1.5,1,1.5,1c-1,0.3-0.6,4-0.6,4C66.8,81.6,67.1,82.6,67.1,83.6L67.1,83.6z M66.9,73.8
				c-2,1.7-2,0.6-2,0.6s-0.2-0.7-3.3-2.1c-3.1-1.3,0.3-1.5,0.3-1.5c0.5,0.1,1,0.3,1.4,0.7c0.9,0.7,2.7,1.7,3.5,0.6
				c0.7-0.8,1.7-1.3,2.7-1.5c3,0.4,0.7,2,0.7,2S68.8,72.1,66.9,73.8z M104.4,59.9c-0.9,0.4-4.9,2.8-5,3.7c-0.1,0.9-2.2,5.8-2.9,7.4
				c-0.6,1.6,1.9,1.1,1.9,1.1c4.2,0.2-1.8,2.1-1.8,2.1C94.7,74.5,93,77,93,77c-2.1,1.1-0.8,1.4-0.6,1.5c0.5,0.3,1,0.7,1.4,1
				c0.4,2.3-2.5,0.8-2.5,0.8c-1.8-1-3.8,0.7-3.8,0.7c-4.4,1.7-1.6,2.4-1.6,2.4c1.6,1.5-1,1.3-1,1.3c-2.2-0.9-4.7-0.6-6.7,0.7
				c-2.8,1.2-0.2,1.9-0.2,1.9c1,2.4-1.5,1-1.5,1c-1.6-1.3-3.9-0.2-3.9-0.2c-7.8,1.6,1.8-3.8,1.8-3.8c3.7-1.5,12.4-6.4,12.4-6.4
				c3.8-1.6,6-5.3,7.8-8.4s4.7-14.4,4.7-14.4c2.4-5.8,2.3,0,1.8,2.4s-0.9,2.3,1.4,1.6C104.7,58.4,105.3,59.5,104.4,59.9z"/>
		</g>
	</g>
</g>
<g>
	<g>
		<defs>
			<rect id="SVGID_3_" y="14.5" width="40.6" height="156.7"/>
		</defs>
		<clipPath id="SVGID_4_">
			<use xlink:href="#SVGID_3_"  style="overflow:visible;"/>
		</clipPath>
		<g class="st6">
			<path class="st5" d="M51.2,41.5c1.1,0.7,2.2,1.3,3.5,1.7c-0.2-1-0.7-1.9-1.4-2.6c-1.1-1-5.3-4.6-5.4-5.1c-0.1-0.5-2.8,0-1.6,1.1
				C46.3,36.6,50.2,40.6,51.2,41.5z"/>
			<path class="st5" d="M55.2,40.4c0,0-1.8-3.6-1.7-6.1c0,0-0.3-1.2-0.9-0.4c0,0-0.4,0.7-0.9-0.4c-0.5-1.1-1.7-0.3-1.5,0
				C50.2,33.5,53.7,39.7,55.2,40.4z"/>
			<path class="st5" d="M58.5,41.3c0,0,0.4-0.7-1.3-4.6s-2.2-4.8-2.1-5.3c-0.6,0-1.1,0.5-1.1,1.1C54,32.5,55.8,39.2,58.5,41.3z"/>
			<path class="st5" d="M60.1,39.1c0-2.3-0.2-4.5-0.8-6.7c-0.8-2.4-1-1.8-1.3-0.6l-0.3,0.6h-1.6C58.1,34.2,59.5,36.5,60.1,39.1z"/>
			<path class="st5" d="M61.8,35.8c0.5,1.8,1.1,3.6,1.8,5.3c0,0,0.8-0.6,0.5-4.6c0,0-1.3-5.1-1.4-5.9c0,0-0.8-2.4-1.4-0.5
				C61.6,32,61.8,33.9,61.8,35.8z"/>
			<path class="st5" d="M66.3,37.9c0,0,0.5-0.1,0.8-1.5c0.4-1.4,0.2-4.7,0.4-5.3c0,0,1.7-3.3-0.9-1c-0.1,0.2-0.3,0.4-0.5,0.5
				c0,0-2.5-1.2-1.9,0C64.2,30.6,66.5,31.4,66.3,37.9z"/>
			<path class="st5" d="M70.5,37.5c0,0,1.4-6.2,1.8-6.4c0,0,0.6-2.3-1.2-1.1c0,0-2,5.7-2,6.5c-0.1,1-0.1,2.1,0,3.1
				C69.1,39.5,69.4,41.5,70.5,37.5z"/>
			<path class="st5" d="M72.2,37.8c0,0-0.6,3.9,1.1-0.6c0,0,1.7-2.9,2.6-3.3c0,0,2.7-2.3,0-1.4c0,0-0.7,0.6-0.9,0.4
				c0,0-0.3-3.1-1.5-1.1c0.2,0.8,0.2,1.7,0,2.5C73.4,34.3,72.5,36.8,72.2,37.8z"/>
			<path class="st5" d="M76.6,38.5c0,0,1.2-2.4,2-4.2c0,0,1.9-3.2-0.4-1.8c0,0-3.7,5.3-4.2,8.5C73.9,40.9,73.8,43,76.6,38.5z"/>
			<path class="st5" d="M77.2,40.6c0,0-1.5,1.8,1.8-0.8c0,0,7.2-8.9,2.2-5.6c-0.4,0.1-0.9,0-1.3-0.1c-0.5-0.3-0.1-0.2-0.5,0.5
				C79.9,36.8,79,39.2,77.2,40.6z"/>
			<path class="st5" d="M78.3,42.8c-1.4,1.5,1.9-0.5,2.1-0.5s5.7-3.1,6.5-4.5s0-2.5-1.3-2.1C84.2,36.2,78.3,42.8,78.3,42.8z"/>
			<path class="st5" d="M107.8,43.9c0.8-1.3,4.1-5.7,4.3-6.3c0.2-0.7,0.2-1.4,0-2.1c0,0-1.8-1-1.8,1.4c-1,1.7-2.3,3.2-3.8,4.5
				c0,0-4.5,2.9-5.3,4.6c0,0-2.3,3.9-3.7,6.6c0,0-3.3,2.7-4.5-2.8c0,0-0.1-1.7,0-2.7c0,0-1-2.3-1.8,0.4c-0.5,1.6-0.6,3.2-0.1,4.8
				c0.2,1.4,0.7,2.8,1.7,3.9c1,1.8,1.4,3.8,1.4,5.8c0,0-1.2,3.4-3.3,0.8c-0.9-0.8-1.4-1.9-1.3-3.1c0,0,0-0.8-0.6-0.7
				c0,0-0.9,0.2-0.7,2c0,0-0.4,1.3,1.3,5.7c0,0,0.9,5.7-1.2,7c-0.5,0.6-1.2,1.1-1.9,1.4c-0.7,0-1.5-0.3-1.9-0.9
				c-0.1-0.7,0.1-1.5,0.6-2.1c0,0-0.1-1.6-0.9,0.1c0,0-2.9,5.9-3.6,6.3s-1.6,1.5-3.6,0.8c-1-0.5-1.4-1.7-0.9-2.6
				c0.1-0.2,0.2-0.3,0.3-0.5c0,0,0.4-1.6-1.1-0.2c0,0-1.8,3.4-2,5.2c-0.3,0.7-0.6,1.3-1,1.9c-0.5,0.5-1.2,0.7-1.9,0.6
				c0,0-3.2-2.3,1-5.6c0,0,0.9-0.9-0.4-0.6c-0.9-0.1-1.7-0.7-2-1.5c-0.4-1.4,1-1.9,1.5-2c0.6,0,1.2,0,1.8,0.1c0,0,0.8-0.1,0.3-0.4
				s-1.3-1.4,0.7-2.1c0,0,2.4-0.6,3.5,0.5c0,0,2,0,0.6-0.8c0,0-3.1-0.8-0.4-2.3c1-0.4,2.1-0.4,3.1,0.1c0,0,2.7-0.4,0.8-0.8
				c0,0-2.2-0.4-1.4-2.2c1-0.7,2.2-1,3.3-0.8c0,0,2.1,0,0.2-1c0,0-3-0.8-0.5-2.4c0.8-0.5,1.7-0.7,2.6-0.6c0,0,1.9-0.7-0.4-1.1
				c-0.6,0.1-1.3,0.2-1.9,0.2c0,0-3.4-1.9,1.7-3.2c0,0,1.5-1.5-1.2-0.8c-0.4,0.4-1,0.6-1.6,0.7c0,0-2.4,0.1-0.6-2.5
				c0.6-0.5,1.2-1,1.9-1.4c0,0,0.7-1.8-1-1c-0.5,0.5-1,1-1.5,1.5c0,0-1,1.2-1.9-0.4c0,0-1.5-1.3,1.3-2.3c0,0,1-1.3-0.7-0.8
				c0,0-2.2,1.7-2.7-0.1c0.5-1.9,1.9-3.5,3.8-4.1c1.1-0.1,2.1-0.4,3.1-0.9c0,0,1.1-1.8-1.2-1c0,0,0.2,0.3-0.9,0.4
				c-1.1,0-2.2,0.3-3.2,0.7c0,0-3,1.4-3.4,2c0,0-1,0.9-0.5-0.7c0,0,0.5-1.9,0.7-2.6c0,0,0.1-1.1-0.8,0c0,0-2.5,2.6-2.6,2.7
				c-0.2,0.1-0.9,0.6-0.6-1.5c0,0,0.2-2.3,0.2-2.5s0.2-1.3-0.8,0c-1.1,1.3-2.7,3.1-2.7,3.1s-1.9-3.6-1.9-4.7l-1.5,5.2
				c0,0-1.6-1.9-2.6-3.2s-0.9-0.2-0.8,0s0.1,2.5,0.1,2.5c0.2,2.1-0.5,1.5-0.7,1.4S57.8,44,57.8,44C57,42.9,57,44,57,44
				c0.1,0.7,0.5,2.6,0.5,2.6c0.5,1.6-0.5,0.6-0.5,0.6c-0.4-0.7-3.4-2.2-3.4-2.2c-1-0.5-2.1-0.8-3.2-0.8c-1.1-0.2-0.9-0.4-0.9-0.4
				c-2.3-0.9-1.3,1-1.3,1c1,0.5,2,0.9,3.1,1c1.8,0.7,3.2,2.3,3.7,4.2c-0.6,1.8-2.7,0-2.7,0c-1.7-0.6-0.7,0.8-0.7,0.8
				c2.8,1.1,1.1,2.4,1.1,2.4c-0.2,0.6-0.8,0.9-1.4,0.7c-0.2-0.1-0.4-0.2-0.6-0.4c-0.5-0.5-1.1-1-1.5-1.5c-1.7-0.9-1,0.9-1,0.9
				c0.7,0.4,1.3,0.9,1.9,1.5c1.7,2.6-0.8,2.4-0.8,2.4c-0.6-0.1-1.1-0.4-1.6-0.7c-2.6-0.8-1.2,0.7-1.2,0.7c5,1.6,1.4,3.2,1.4,3.2
				c-0.6,0-1.3-0.1-1.9-0.3c-2.4,0.3-0.5,1.1-0.5,1.1c0.9-0.1,1.8,0.2,2.5,0.7c2.4,1.7-0.7,2.3-0.7,2.3c-1.9,0.9,0.2,1,0.2,1
				c1.2-0.1,2.4,0.3,3.3,1c0.8,1.9-1.5,2.2-1.5,2.2c-2,0.4,0.7,0.9,0.7,0.9c1-0.4,2.2-0.4,3.2,0.1c2.7,1.6-0.5,2.3-0.5,2.3
				c-1.5,0.7,0.6,0.8,0.6,0.8c1.2-1,3.6-0.4,3.6-0.4c2,0.7,1.2,1.9,0.6,2.1s0.2,0.4,0.2,0.4c0.6-0.1,1.2-0.1,1.9,0
				c0.4,0.1,1.9,0.7,1.4,2.1c-0.4,0.8-1.2,1.4-2.1,1.4c-1.3-0.4-0.4,0.5-0.4,0.5c4.1,3.6,0.8,5.7,0.8,5.7c-0.7,0.1-1.4-0.1-1.9-0.7
				c-0.4-0.6-0.7-1.3-0.9-2c0.5-1.8-1.1-5.2-1.1-5.2c-1.4-1.5-1.1,0.1-1.1,0.1c0.7,0.8,0.7,2-0.1,2.7c-0.2,0.2-0.4,0.3-0.6,0.4
				c-2,0.6-2.9-0.6-3.5-1s-3.3-6.5-3.3-6.5c-0.7-1.7-0.9-0.2-0.9-0.2c0.4,0.6,0.6,1.3,0.5,2.1c-0.5,0.6-1.2,0.9-2,0.8
				c-0.7-0.4-1.3-0.9-1.8-1.5c-2-1.5-0.8-7.1-0.8-7.1c2-4.3,1.7-5.6,1.7-5.6c0.3-1.8-0.6-2-0.6-2c-0.5-0.1-0.6,0.7-0.6,0.7
				c0,1.2-0.5,2.3-1.4,3c-2.3,2.5-3.3-0.9-3.3-0.9c0-2,0.6-4,1.7-5.7c1-1.1,1.6-2.4,1.9-3.8c0.5-1.6,0.6-3.2,0.1-4.8
				c-0.6-2.7-1.8-0.5-1.8-0.5c0,1-0.2,2.7-0.2,2.7c-1.5,5.4-4.7,2.6-4.7,2.6c-1.3-2.8-3.4-6.8-3.4-6.8c-0.7-1.7-5.1-4.8-5.1-4.8
				c-1.4-1.4-2.6-2.9-3.6-4.7c0.1-2.4-1.7-1.5-1.7-1.5c-0.2,0.7-0.3,1.4-0.1,2.1c0.2,0.6,3.3,5.2,4,6.5s3.9,7.2,3.9,7.2
				c2,5.5-2.3,6.7-2.3,6.7C21.9,55,22.2,52,22.2,52c-1.4-1.5-1.7,0.9-1.7,0.9c-0.4,3.3,8.3,8.6,8.3,8.6c5.6,5.4,0.5,8.5,0.5,8.5
				c-4.1,1.6-6.4,2.7-7.1,4.5s1.3,1,1.3,1c0.5-0.8,1.1-1.5,1.8-2.1c0.4-0.5,9.4-0.6,10.1,3.9s-4.3,4.9-4.3,4.9
				c-2.3-0.8-2.2,0.8-2.2,0.8c1.6,1.8,5.3,0.7,5.3,0.7c5-4.5,7.9-0.8,7.9-0.8c1.6,3.9-5,4.5-5,4.5c-1.9-0.4-1.7,0.8-1.7,0.8
				c2.9,1.9,5.3,1.2,10.5-1.6s4.8,2.4,4.8,2.4c-1.9,3.1-3.4,2.7-3.4,2.7c-1.4-0.2-2.3-0.2-2.3-0.2c-0.5,1.3,1.2,2,1.2,2
				c1.9,0.5,6-1.5,6-1.5c1-1,2.4-1.4,3.7-1.2c2.2-0.8,2.6,0.9,2.6,0.9c0.5,1-1.6,1.4-1.9,2c-0.1,0.2,0,0.6,0.2,0.7
				c0.1,0,0.1,0,0.2,0.1c2.8-1.9,4.2,1.3,4.2,1.3c0.5,2.7-4.3,3.2-4.3,3.2c-0.3,0.2-0.4,0.6-0.2,0.9l0.1,0.1
				c6.4-0.5,2.8,4.7,2.8,4.7c-1,0.4-2,0.6-3,0.7c-0.8,1.1,0.3,1.2,0.3,1.2c0.6-0.4,1.2-0.5,1.9-0.3c0.8,0.1,2.4,1.9,1.2,3.5
				c-0.7,0.9-1.7,1.6-2.8,2c-0.6,0.2-0.8,0.1-0.8,1l15.9,0.1c0-0.2-0.1-0.3-0.1-0.4c-0.2-0.4-0.5-0.8-1-1c-0.9-0.4-1.6-1.1-2.2-1.9
				c-1.1-1.6,0.6-3.3,1.4-3.4c0.6-0.1,1.3,0,1.8,0.4c0,0,1,0,0.4-1.2c-1-0.1-2-0.4-2.9-0.9c0,0-3.3-5.4,3.1-4.5
				c0.3-0.2,0.3-0.6,0.1-0.9L72.8,99c0,0-4.7-0.8-4-3.4c0,0,1.5-3.1,4.2-1c0.3,0,0.5-0.3,0.5-0.6c0-0.1,0-0.1,0-0.2
				c-0.3-0.6-2.4-1-1.8-2.1c0,0,0.5-1.7,2.6-0.8c1.3-0.1,2.6,0.3,3.6,1.3c0,0,3.9,2.3,5.8,1.8c0,0,1.7-0.6,1.3-1.9
				c0,0-0.8,0-2.3,0.1c0,0-1.5,0.3-3.2-2.9c0,0,0-5.2,4.9-2.1s7.2,3.9,10.2,2.2c0,0,0.3-1.2-1.6-0.9c0,0-6.5-1-4.7-4.8
				c0,0,3-3.5,7.7,1.2c0,0,3.6,1.3,5.3-0.4c0,0,0.3-1.6-2.1-0.9c0,0-4.9-0.7-4-5.1c0.9-4.5,9.8-3.9,10.1-3.4
				c0.7,0.6,1.3,1.3,1.7,2.1c0,0,2,0.9,1.4-0.9c-0.6-1.9-2.8-3-6.8-4.9c0,0-4.9-3.4,1-8.5c0,0,8.8-4.9,8.6-8.1c0,0-0.2-2.4-1.6-1
				c0,0,0.1,3-4.3,4c0,0-4.1-1.4-1.9-6.8C103.5,51,107,45.2,107.8,43.9z M59.6,87.8c0,0-3.7-1.2-4.9,0.1s-2.6-0.3-1.1-1.2
				c0,0,1.7-0.7,0-1.4s-3-2.4-8.3-1.4c0,0-1.4-0.1,0.8-1.5c0,0,1.1-0.7-0.6-1.3c-1.3-0.6-2.6-1.3-3.8-2.1c0,0-3.6,0.6-4.2,0.9
				c0,0-1.5,0,0.3-1.5c0.6-0.4,1.3-0.8,2.1-1c-0.4-0.5-0.8-1-1.3-1.4c-0.8-0.7-0.3-2.2-6.6-4c0,0-0.8-1,1.3-1.2
				c0.4-0.3,1-0.2,1.3,0.2c0,0,1,0.2,0.3-1.3c0,0-2.9-6.5-3.3-8.7c0,0-2.9-2.4-3.9-2.6c0,0-1-1.3,1.2-0.6c0,0,3.8,2.4,2-1.1
				c0,0-1.2-4.9-0.5-5.5c0,0-0.2-3.8,1.5,0c1.7,3.8,3.3,16.7,6.6,19.9c0,0,3.2,6.6,13,9.9l8.3,4.9C59.9,85.9,63.2,88,59.6,87.8z
				 M71.5,67.1c0,0,0.7-2.7,2-0.7c0,0,1,3.3-0.5,2C73,68.4,70.4,70.5,71.5,67.1z M58.8,59.4c1.7,1.8,1,1.3,0,1.2s-1.8,4.1-1.4-0.8
				C57.4,59.8,57.2,57.5,58.8,59.4L58.8,59.4z M59.6,56.8c0,0,0-2.7,1.5-1s1.2,1.6,0.4,1.9S59.5,60,59.6,56.8z M63.6,58.7
				c1.4,2.1,1,1.7,0,1.8c0,0-1.3,3.6-1.5-1.1C62.1,59.4,62.2,56.6,63.6,58.7L63.6,58.7z M64.3,67.6c0,0,1.5,2.1-0.6,1.4
				c0,0-0.8-0.6-1,0.1c-0.3,0.8-1.2,1.2-0.8-1.1C61.8,68,62.2,62,64.3,67.6L64.3,67.6z M64.5,63.3c0,0,0.5-3.6,2.1-0.9
				c1.6,2.7-0.6,2.3-0.6,2.3S65,67.8,64.5,63.3L64.5,63.3z M67.2,66.3c0,0,0.4-1.8,1.5,0s1.2,2.6,0,2.4c-0.6-0.2-1.3,0.1-1.4,0.7
				l0,0C67.3,69.6,65.2,72.6,67.2,66.3z M69.4,61.1c-1.2,0-1.7,3.8-2.2-1.5c0,0,0.9-2.5,2.1,0C69.3,59.5,70.6,61.1,69.4,61.1
				L69.4,61.1z M69.9,63.5c0,0-0.1-3.2,1.9-0.5c0,0,0.6,2.3-0.7,1.7C71.2,64.7,69.6,67.9,69.9,63.5L69.9,63.5z M74.8,69.7
				c-0.2,0.9-2.7,1.5-2.2,0.9c0.3-0.3,0.4-0.6,0.4-1C73,69.6,75,68.8,74.8,69.7L74.8,69.7z M73.7,63.5c0,0,0.5-2.6,1.7-1.1
				s1,3.1,0.4,2.7C75.2,64.6,75,67.5,73.7,63.5L73.7,63.5z M77.7,67.8c-0.4,0.1-2.9,1.6-1.9-1.1c0,0,1.7-1.3,1.9-0.4
				C77.8,67.1,78,67.6,77.7,67.8L77.7,67.8z M76.7,61.4c0,0,1.3-3.5,1.6-0.2c0.3,3.3,0,1.7,0,1.7S76.6,64,76.7,61.4L76.7,61.4z
				 M79.3,64.9c-2.4,0.8,0-1.2,0-1.2C80.1,63.8,81.7,64.1,79.3,64.9z M80.6,58c0.3-0.2,0.7-0.3,1-0.4c-0.1,0.6-0.5,1-1,1.2
				C79.9,58.8,80.5,58,80.6,58L80.6,58z M81.6,61.1c-0.4,0.2-0.8,0.6-1,1l-1.2-0.7C81.4,59.9,82.3,60.8,81.6,61.1L81.6,61.1z
				 M79.5,54.9l0.2,0.8C79.2,55.7,79.5,54.9,79.5,54.9L79.5,54.9z M79.3,56.9c0.7,1.6,0,1.7-0.7,1.6c-0.7-0.1-0.8-0.8-0.7-1.6
				C77.8,56.9,78.5,55.3,79.3,56.9L79.3,56.9z M77.2,51.8c0.8,0.6,0.3,0.7,0,0.6C76.9,52.3,77.2,51.8,77.2,51.8z M77.4,55
				c-0.7,1.4-1.3-1.5-1.3-1.5c0.5-0.3,1.1-0.1,1.4,0.4C77.7,54.2,77.7,54.7,77.4,55L77.4,55z M75.5,48.3c1,0.6,0.4,1.4-0.3,1.3
				C74.5,49.5,75.5,48.2,75.5,48.3L75.5,48.3z M75.6,52.8c-0.9,1.7-1.1-1.6-1.1-1.6C75,51.1,76.5,51.1,75.6,52.8L75.6,52.8z
				 M76.1,56.1c0,0,0.4,1.6-0.5,1.6s-0.9,1.9-1-0.7C74.6,57,73.7,54,76.1,56.1L76.1,56.1z M73.4,48.9c0.6-0.1,1.3,1.1-0.2,1.2
				C71.8,50.3,73.5,48.9,73.4,48.9L73.4,48.9z M72.7,53.2c0.3-0.9,1.8-0.2,0.8,1.7C72.6,56.8,72.7,53.2,72.7,53.2L72.7,53.2z
				 M73.6,59c1,2,0.4,2.2,0,1.8s-1.8,2.7-1.3-1.2C72.4,59.6,72.6,57,73.6,59L73.6,59z M71.7,52.8c-1.6,2-1-2.2-1-2.2
				C71.2,50.4,73.5,50.8,71.7,52.8L71.7,52.8z M71.7,48.4c-0.7,1.4-1.2-0.6-1.2-0.6S72.4,47,71.7,48.4L71.7,48.4z M71.8,56.2
				c1.2,2.1-0.4,0.7-0.8,2s-1.7-0.4-1.2-1.4C69.8,56.8,70.7,54.2,71.8,56.2L71.8,56.2z M68.3,49.2c0.7-0.6,2.1,0.4,0.9,1.4
				C68,51.6,68.3,49.1,68.3,49.2L68.3,49.2z M68.4,53.3c0.3-0.7,0.6-0.1,1.3,0.4s0.2,1.2-1.3,1.8C66.9,56,68.4,53.2,68.4,53.3
				L68.4,53.3z M67.4,47.8c0.4,0.5-0.6,0.8-1.1,0.7c-0.4-0.3-0.7-0.7-0.8-1.2C66.3,47.1,66.9,47.3,67.4,47.8L67.4,47.8z M67,51.3
				c1.8,1.6-1.6,1.7-1.7,0C65.3,51.3,65.3,49.7,67,51.3z M66.6,55.7c2.1,2.2,1,1.6,0,1.6s-1.3,2.8-2-0.5
				C64.6,56.8,64.5,53.6,66.6,55.7z M63.9,54.5c-0.8-0.2-0.9,2.7-1.7-0.8c0,0-0.6-1.5,1-0.4C64.9,54.3,64.6,54.7,63.9,54.5
				L63.9,54.5z M64.3,49.2c-0.5,2.2-0.8,1.3-1.4,0.5C62.4,48.9,64.3,49.3,64.3,49.2L64.3,49.2z M62.1,48c1,0.2-1.3,1-1.3,1
				C59.5,48,61,47.8,62.1,48L62.1,48z M60,51.4c0.6,0.1,1.1,0.2,1.6,0.5c0.8,0.4-0.6,1.3-1.9,0.5S60,51.4,60,51.4L60,51.4z
				 M58.8,53.7c1.7,1.3,0.4,1.3,0,1.3s-0.9,1.8-1-0.3C57.7,54.8,57,52.5,58.8,53.7L58.8,53.7z M57.2,49.3c0,0,0.6-0.7,0.9,0
				c0.3,0.7-0.1,1.5-0.6,1.3c-0.4-0.2-0.6-0.6-0.4-1C57,49.5,57.1,49.5,57.2,49.3L57.2,49.3z M55.2,52.1c0.8-0.7,2,0.7,0.9,1.5
				C55,54.4,55.1,52.2,55.2,52.1L55.2,52.1z M53.1,55.2c0,0,0.6-0.7,0.9,0c0.3,0.7-0.1,1.5-0.6,1.3c-0.4-0.1-0.6-0.6-0.5-1
				C52.9,55.4,53,55.3,53.1,55.2L53.1,55.2z M49.7,60.5c-0.3-1.2,0.9-0.7,0.9-0.7C51,62.4,49.9,61.8,49.7,60.5L49.7,60.5z
				 M50.8,63.3c-0.3-1.2,0.9-0.7,0.9-0.7C52.1,65.2,51,64.5,50.8,63.3L50.8,63.3z M51.7,58.6c0.8-0.7,2,0.7,0.9,1.5
				C51.5,60.9,51.6,58.7,51.7,58.6L51.7,58.6z M54.3,67.3c0,0-1.6-0.1-1.5-1s0.9-0.2,0.9-0.2C54.4,66.2,54.2,67.4,54.3,67.3
				L54.3,67.3z M54.5,62.4c-0.6,1-1.1,1.6-1.3-0.7c0,0,0.6-2.5,1.3-1C55.1,62,55,61.3,54.5,62.4z M56.2,56.9c1.5,1.3,0.4,1.5,0,1.6
				c-0.4,0.2-1,1.9-1.3-1C54.8,57.6,54.7,55.6,56.2,56.9L56.2,56.9z M55.7,69.9c-0.8-0.6,0.5-1,0.5-1s0-0.4,0.6,0
				C57.3,69.2,56.5,70.4,55.7,69.9z M56.9,64.8c-0.4-0.1-0.9,3.1-1.9-0.7c0,0,0.6-3.1,1.8-0.9C58.1,65.3,57.3,64.9,56.9,64.8
				L56.9,64.8z M58.9,68c0,0-1.2,3.6-1.4-1.2c0,0,0.1-3.5,1.4,0C59,66.8,60.5,68.8,58.9,68L58.9,68z M59.5,62.9c0,0,0.3-2.3,1.6-0.5
				c1.3,1.7,1.2,1.8,0.5,1.7C60.9,64,60.7,68.4,59.5,62.9L59.5,62.9z M67.1,83.6c-1.9,1.5-0.8,4.1-0.8,4.1c0.8,0.5,1.1,1.5,0.7,2.3
				c-1.4,1.2-1.1,4.3-0.6,5.1c0.4,0.8,0.6,1.7,0.7,2.6c-1.2,1.7-1.5,3.9-0.6,5.8c0.3,0.9,0.1,1.8-0.4,2.5c-1.3,3.1,0.4,4.1,0.1,4.7
				s-2.8,0-2.8,0L64,75.8h1.3c2.1-0.3,1.5,1,1.5,1c-1,0.3-0.6,4-0.6,4C66.8,81.6,67.1,82.6,67.1,83.6L67.1,83.6z M66.9,73.8
				c-2,1.7-2,0.6-2,0.6s-0.2-0.7-3.3-2.1c-3.1-1.3,0.3-1.5,0.3-1.5c0.5,0.1,1,0.3,1.4,0.7c0.9,0.7,2.7,1.7,3.5,0.6
				c0.7-0.8,1.7-1.3,2.7-1.5c3,0.4,0.7,2,0.7,2S68.8,72.1,66.9,73.8z M104.4,59.9c-0.9,0.4-4.9,2.8-5,3.7c-0.1,0.9-2.2,5.8-2.9,7.4
				c-0.6,1.6,1.9,1.1,1.9,1.1c4.2,0.2-1.8,2.1-1.8,2.1C94.7,74.5,93,77,93,77c-2.1,1.1-0.8,1.4-0.6,1.5c0.5,0.3,1,0.7,1.4,1
				c0.4,2.3-2.5,0.8-2.5,0.8c-1.8-1-3.8,0.7-3.8,0.7c-4.4,1.7-1.6,2.4-1.6,2.4c1.6,1.5-1,1.3-1,1.3c-2.2-0.9-4.7-0.6-6.7,0.7
				c-2.8,1.2-0.2,1.9-0.2,1.9c1,2.4-1.5,1-1.5,1c-1.6-1.3-3.9-0.2-3.9-0.2c-7.8,1.6,1.8-3.8,1.8-3.8c3.7-1.5,12.4-6.4,12.4-6.4
				c3.8-1.6,6-5.3,7.8-8.4s4.7-14.4,4.7-14.4c2.4-5.8,2.3,0,1.8,2.4s-0.9,2.3,1.4,1.6C104.7,58.4,105.3,59.5,104.4,59.9z"/>
		</g>
	</g>
</g>
<g>
	<g>
		<defs>
			<rect id="SVGID_5_" x="45.1" y="14.5" width="40.6" height="156.7"/>
		</defs>
		<clipPath id="SVGID_6_">
			<use xlink:href="#SVGID_5_"  style="overflow:visible;"/>
		</clipPath>
		<g class="st7">
			<path class="st5" d="M51.2,41.5c1.1,0.7,2.2,1.3,3.5,1.7c-0.2-1-0.7-1.9-1.4-2.6c-1.1-1-5.3-4.6-5.4-5.1c-0.1-0.5-2.8,0-1.6,1.1
				C46.3,36.6,50.2,40.6,51.2,41.5z"/>
			<path class="st5" d="M55.2,40.4c0,0-1.8-3.6-1.7-6.1c0,0-0.3-1.2-0.9-0.4c0,0-0.4,0.7-0.9-0.4c-0.5-1.1-1.7-0.3-1.5,0
				C50.2,33.5,53.7,39.7,55.2,40.4z"/>
			<path class="st5" d="M58.5,41.3c0,0,0.4-0.7-1.3-4.6s-2.2-4.8-2.1-5.3c-0.6,0-1.1,0.5-1.1,1.1C54,32.5,55.8,39.2,58.5,41.3z"/>
			<path class="st5" d="M60.1,39.1c0-2.3-0.2-4.5-0.8-6.7c-0.8-2.4-1-1.8-1.3-0.6l-0.3,0.6h-1.6C58.1,34.2,59.5,36.5,60.1,39.1z"/>
			<path class="st5" d="M61.8,35.8c0.5,1.8,1.1,3.6,1.8,5.3c0,0,0.8-0.6,0.5-4.6c0,0-1.3-5.1-1.4-5.9c0,0-0.8-2.4-1.4-0.5
				C61.6,32,61.8,33.9,61.8,35.8z"/>
			<path class="st5" d="M66.3,37.9c0,0,0.5-0.1,0.8-1.5c0.4-1.4,0.2-4.7,0.4-5.3c0,0,1.7-3.3-0.9-1c-0.1,0.2-0.3,0.4-0.5,0.5
				c0,0-2.5-1.2-1.9,0C64.2,30.6,66.5,31.4,66.3,37.9z"/>
			<path class="st5" d="M70.5,37.5c0,0,1.4-6.2,1.8-6.4c0,0,0.6-2.3-1.2-1.1c0,0-2,5.7-2,6.5c-0.1,1-0.1,2.1,0,3.1
				C69.1,39.5,69.4,41.5,70.5,37.5z"/>
			<path class="st5" d="M72.2,37.8c0,0-0.6,3.9,1.1-0.6c0,0,1.7-2.9,2.6-3.3c0,0,2.7-2.3,0-1.4c0,0-0.7,0.6-0.9,0.4
				c0,0-0.3-3.1-1.5-1.1c0.2,0.8,0.2,1.7,0,2.5C73.4,34.3,72.5,36.8,72.2,37.8z"/>
			<path class="st5" d="M76.6,38.5c0,0,1.2-2.4,2-4.2c0,0,1.9-3.2-0.4-1.8c0,0-3.7,5.3-4.2,8.5C73.9,40.9,73.8,43,76.6,38.5z"/>
			<path class="st5" d="M77.2,40.6c0,0-1.5,1.8,1.8-0.8c0,0,7.2-8.9,2.2-5.6c-0.4,0.1-0.9,0-1.3-0.1c-0.5-0.3-0.1-0.2-0.5,0.5
				C79.9,36.8,79,39.2,77.2,40.6z"/>
			<path class="st5" d="M78.3,42.8c-1.4,1.5,1.9-0.5,2.1-0.5s5.7-3.1,6.5-4.5s0-2.5-1.3-2.1C84.2,36.2,78.3,42.8,78.3,42.8z"/>
			<path class="st5" d="M107.8,43.9c0.8-1.3,4.1-5.7,4.3-6.3c0.2-0.7,0.2-1.4,0-2.1c0,0-1.8-1-1.8,1.4c-1,1.7-2.3,3.2-3.8,4.5
				c0,0-4.5,2.9-5.3,4.6c0,0-2.3,3.9-3.7,6.6c0,0-3.3,2.7-4.5-2.8c0,0-0.1-1.7,0-2.7c0,0-1-2.3-1.8,0.4c-0.5,1.6-0.6,3.2-0.1,4.8
				c0.2,1.4,0.7,2.8,1.7,3.9c1,1.8,1.4,3.8,1.4,5.8c0,0-1.2,3.4-3.3,0.8c-0.9-0.8-1.4-1.9-1.3-3.1c0,0,0-0.8-0.6-0.7
				c0,0-0.9,0.2-0.7,2c0,0-0.4,1.3,1.3,5.7c0,0,0.9,5.7-1.2,7c-0.5,0.6-1.2,1.1-1.9,1.4c-0.7,0-1.5-0.3-1.9-0.9
				c-0.1-0.7,0.1-1.5,0.6-2.1c0,0-0.1-1.6-0.9,0.1c0,0-2.9,5.9-3.6,6.3s-1.6,1.5-3.6,0.8c-1-0.5-1.4-1.7-0.9-2.6
				c0.1-0.2,0.2-0.3,0.3-0.5c0,0,0.4-1.6-1.1-0.2c0,0-1.8,3.4-2,5.2c-0.3,0.7-0.6,1.3-1,1.9c-0.5,0.5-1.2,0.7-1.9,0.6
				c0,0-3.2-2.3,1-5.6c0,0,0.9-0.9-0.4-0.6c-0.9-0.1-1.7-0.7-2-1.5c-0.4-1.4,1-1.9,1.5-2c0.6,0,1.2,0,1.8,0.1c0,0,0.8-0.1,0.3-0.4
				s-1.3-1.4,0.7-2.1c0,0,2.4-0.6,3.5,0.5c0,0,2,0,0.6-0.8c0,0-3.1-0.8-0.4-2.3c1-0.4,2.1-0.4,3.1,0.1c0,0,2.7-0.4,0.8-0.8
				c0,0-2.2-0.4-1.4-2.2c1-0.7,2.2-1,3.3-0.8c0,0,2.1,0,0.2-1c0,0-3-0.8-0.5-2.4c0.8-0.5,1.7-0.7,2.6-0.6c0,0,1.9-0.7-0.4-1.1
				c-0.6,0.1-1.3,0.2-1.9,0.2c0,0-3.4-1.9,1.7-3.2c0,0,1.5-1.5-1.2-0.8c-0.4,0.4-1,0.6-1.6,0.7c0,0-2.4,0.1-0.6-2.5
				c0.6-0.5,1.2-1,1.9-1.4c0,0,0.7-1.8-1-1c-0.5,0.5-1,1-1.5,1.5c0,0-1,1.2-1.9-0.4c0,0-1.5-1.3,1.3-2.3c0,0,1-1.3-0.7-0.8
				c0,0-2.2,1.7-2.7-0.1c0.5-1.9,1.9-3.5,3.8-4.1c1.1-0.1,2.1-0.4,3.1-0.9c0,0,1.1-1.8-1.2-1c0,0,0.2,0.3-0.9,0.4
				c-1.1,0-2.2,0.3-3.2,0.7c0,0-3,1.4-3.4,2c0,0-1,0.9-0.5-0.7c0,0,0.5-1.9,0.7-2.6c0,0,0.1-1.1-0.8,0c0,0-2.5,2.6-2.6,2.7
				c-0.2,0.1-0.9,0.6-0.6-1.5c0,0,0.2-2.3,0.2-2.5s0.2-1.3-0.8,0c-1.1,1.3-2.7,3.1-2.7,3.1s-1.9-3.6-1.9-4.7l-1.5,5.2
				c0,0-1.6-1.9-2.6-3.2s-0.9-0.2-0.8,0s0.1,2.5,0.1,2.5c0.2,2.1-0.5,1.5-0.7,1.4S57.8,44,57.8,44C57,42.9,57,44,57,44
				c0.1,0.7,0.5,2.6,0.5,2.6c0.5,1.6-0.5,0.6-0.5,0.6c-0.4-0.7-3.4-2.2-3.4-2.2c-1-0.5-2.1-0.8-3.2-0.8c-1.1-0.2-0.9-0.4-0.9-0.4
				c-2.3-0.9-1.3,1-1.3,1c1,0.5,2,0.9,3.1,1c1.8,0.7,3.2,2.3,3.7,4.2c-0.6,1.8-2.7,0-2.7,0c-1.7-0.6-0.7,0.8-0.7,0.8
				c2.8,1.1,1.1,2.4,1.1,2.4c-0.2,0.6-0.8,0.9-1.4,0.7c-0.2-0.1-0.4-0.2-0.6-0.4c-0.5-0.5-1.1-1-1.5-1.5c-1.7-0.9-1,0.9-1,0.9
				c0.7,0.4,1.3,0.9,1.9,1.5c1.7,2.6-0.8,2.4-0.8,2.4c-0.6-0.1-1.1-0.4-1.6-0.7c-2.6-0.8-1.2,0.7-1.2,0.7c5,1.6,1.4,3.2,1.4,3.2
				c-0.6,0-1.3-0.1-1.9-0.3c-2.4,0.3-0.5,1.1-0.5,1.1c0.9-0.1,1.8,0.2,2.5,0.7c2.4,1.7-0.7,2.3-0.7,2.3c-1.9,0.9,0.2,1,0.2,1
				c1.2-0.1,2.4,0.3,3.3,1c0.8,1.9-1.5,2.2-1.5,2.2c-2,0.4,0.7,0.9,0.7,0.9c1-0.4,2.2-0.4,3.2,0.1c2.7,1.6-0.5,2.3-0.5,2.3
				c-1.5,0.7,0.6,0.8,0.6,0.8c1.2-1,3.6-0.4,3.6-0.4c2,0.7,1.2,1.9,0.6,2.1s0.2,0.4,0.2,0.4c0.6-0.1,1.2-0.1,1.9,0
				c0.4,0.1,1.9,0.7,1.4,2.1c-0.4,0.8-1.2,1.4-2.1,1.4c-1.3-0.4-0.4,0.5-0.4,0.5c4.1,3.6,0.8,5.7,0.8,5.7c-0.7,0.1-1.4-0.1-1.9-0.7
				c-0.4-0.6-0.7-1.3-0.9-2c0.5-1.8-1.1-5.2-1.1-5.2c-1.4-1.5-1.1,0.1-1.1,0.1c0.7,0.8,0.7,2-0.1,2.7c-0.2,0.2-0.4,0.3-0.6,0.4
				c-2,0.6-2.9-0.6-3.5-1s-3.3-6.5-3.3-6.5c-0.7-1.7-0.9-0.2-0.9-0.2c0.4,0.6,0.6,1.3,0.5,2.1c-0.5,0.6-1.2,0.9-2,0.8
				c-0.7-0.4-1.3-0.9-1.8-1.5c-2-1.5-0.8-7.1-0.8-7.1c2-4.3,1.7-5.6,1.7-5.6c0.3-1.8-0.6-2-0.6-2c-0.5-0.1-0.6,0.7-0.6,0.7
				c0,1.2-0.5,2.3-1.4,3c-2.3,2.5-3.3-0.9-3.3-0.9c0-2,0.6-4,1.7-5.7c1-1.1,1.6-2.4,1.9-3.8c0.5-1.6,0.6-3.2,0.1-4.8
				c-0.6-2.7-1.8-0.5-1.8-0.5c0,1-0.2,2.7-0.2,2.7c-1.5,5.4-4.7,2.6-4.7,2.6c-1.3-2.8-3.4-6.8-3.4-6.8c-0.7-1.7-5.1-4.8-5.1-4.8
				c-1.4-1.4-2.6-2.9-3.6-4.7c0.1-2.4-1.7-1.5-1.7-1.5c-0.2,0.7-0.3,1.4-0.1,2.1c0.2,0.6,3.3,5.2,4,6.5s3.9,7.2,3.9,7.2
				c2,5.5-2.3,6.7-2.3,6.7C21.9,55,22.2,52,22.2,52c-1.4-1.5-1.7,0.9-1.7,0.9c-0.4,3.3,8.3,8.6,8.3,8.6c5.6,5.4,0.5,8.5,0.5,8.5
				c-4.1,1.6-6.4,2.7-7.1,4.5s1.3,1,1.3,1c0.5-0.8,1.1-1.5,1.8-2.1c0.4-0.5,9.4-0.6,10.1,3.9s-4.3,4.9-4.3,4.9
				c-2.3-0.8-2.2,0.8-2.2,0.8c1.6,1.8,5.3,0.7,5.3,0.7c5-4.5,7.9-0.8,7.9-0.8c1.6,3.9-5,4.5-5,4.5c-1.9-0.4-1.7,0.8-1.7,0.8
				c2.9,1.9,5.3,1.2,10.5-1.6s4.8,2.4,4.8,2.4c-1.9,3.1-3.4,2.7-3.4,2.7c-1.4-0.2-2.3-0.2-2.3-0.2c-0.5,1.3,1.2,2,1.2,2
				c1.9,0.5,6-1.5,6-1.5c1-1,2.4-1.4,3.7-1.2c2.2-0.8,2.6,0.9,2.6,0.9c0.5,1-1.6,1.4-1.9,2c-0.1,0.2,0,0.6,0.2,0.7
				c0.1,0,0.1,0,0.2,0.1c2.8-1.9,4.2,1.3,4.2,1.3c0.5,2.7-4.3,3.2-4.3,3.2c-0.3,0.2-0.4,0.6-0.2,0.9l0.1,0.1
				c6.4-0.5,2.8,4.7,2.8,4.7c-1,0.4-2,0.6-3,0.7c-0.8,1.1,0.3,1.2,0.3,1.2c0.6-0.4,1.2-0.5,1.9-0.3c0.8,0.1,2.4,1.9,1.2,3.5
				c-0.7,0.9-1.7,1.6-2.8,2c-0.6,0.2-0.8,0.1-0.8,1l15.9,0.1c0-0.2-0.1-0.3-0.1-0.4c-0.2-0.4-0.5-0.8-1-1c-0.9-0.4-1.6-1.1-2.2-1.9
				c-1.1-1.6,0.6-3.3,1.4-3.4c0.6-0.1,1.3,0,1.8,0.4c0,0,1,0,0.4-1.2c-1-0.1-2-0.4-2.9-0.9c0,0-3.3-5.4,3.1-4.5
				c0.3-0.2,0.3-0.6,0.1-0.9L72.8,99c0,0-4.7-0.8-4-3.4c0,0,1.5-3.1,4.2-1c0.3,0,0.5-0.3,0.5-0.6c0-0.1,0-0.1,0-0.2
				c-0.3-0.6-2.4-1-1.8-2.1c0,0,0.5-1.7,2.6-0.8c1.3-0.1,2.6,0.3,3.6,1.3c0,0,3.9,2.3,5.8,1.8c0,0,1.7-0.6,1.3-1.9
				c0,0-0.8,0-2.3,0.1c0,0-1.5,0.3-3.2-2.9c0,0,0-5.2,4.9-2.1s7.2,3.9,10.2,2.2c0,0,0.3-1.2-1.6-0.9c0,0-6.5-1-4.7-4.8
				c0,0,3-3.5,7.7,1.2c0,0,3.6,1.3,5.3-0.4c0,0,0.3-1.6-2.1-0.9c0,0-4.9-0.7-4-5.1c0.9-4.5,9.8-3.9,10.1-3.4
				c0.7,0.6,1.3,1.3,1.7,2.1c0,0,2,0.9,1.4-0.9c-0.6-1.9-2.8-3-6.8-4.9c0,0-4.9-3.4,1-8.5c0,0,8.8-4.9,8.6-8.1c0,0-0.2-2.4-1.6-1
				c0,0,0.1,3-4.3,4c0,0-4.1-1.4-1.9-6.8C103.5,51,107,45.2,107.8,43.9z M59.6,87.8c0,0-3.7-1.2-4.9,0.1s-2.6-0.3-1.1-1.2
				c0,0,1.7-0.7,0-1.4s-3-2.4-8.3-1.4c0,0-1.4-0.1,0.8-1.5c0,0,1.1-0.7-0.6-1.3c-1.3-0.6-2.6-1.3-3.8-2.1c0,0-3.6,0.6-4.2,0.9
				c0,0-1.5,0,0.3-1.5c0.6-0.4,1.3-0.8,2.1-1c-0.4-0.5-0.8-1-1.3-1.4c-0.8-0.7-0.3-2.2-6.6-4c0,0-0.8-1,1.3-1.2
				c0.4-0.3,1-0.2,1.3,0.2c0,0,1,0.2,0.3-1.3c0,0-2.9-6.5-3.3-8.7c0,0-2.9-2.4-3.9-2.6c0,0-1-1.3,1.2-0.6c0,0,3.8,2.4,2-1.1
				c0,0-1.2-4.9-0.5-5.5c0,0-0.2-3.8,1.5,0c1.7,3.8,3.3,16.7,6.6,19.9c0,0,3.2,6.6,13,9.9l8.3,4.9C59.9,85.9,63.2,88,59.6,87.8z
				 M71.5,67.1c0,0,0.7-2.7,2-0.7c0,0,1,3.3-0.5,2C73,68.4,70.4,70.5,71.5,67.1z M58.8,59.4c1.7,1.8,1,1.3,0,1.2s-1.8,4.1-1.4-0.8
				C57.4,59.8,57.2,57.5,58.8,59.4L58.8,59.4z M59.6,56.8c0,0,0-2.7,1.5-1s1.2,1.6,0.4,1.9S59.5,60,59.6,56.8z M63.6,58.7
				c1.4,2.1,1,1.7,0,1.8c0,0-1.3,3.6-1.5-1.1C62.1,59.4,62.2,56.6,63.6,58.7L63.6,58.7z M64.3,67.6c0,0,1.5,2.1-0.6,1.4
				c0,0-0.8-0.6-1,0.1c-0.3,0.8-1.2,1.2-0.8-1.1C61.8,68,62.2,62,64.3,67.6L64.3,67.6z M64.5,63.3c0,0,0.5-3.6,2.1-0.9
				c1.6,2.7-0.6,2.3-0.6,2.3S65,67.8,64.5,63.3L64.5,63.3z M67.2,66.3c0,0,0.4-1.8,1.5,0s1.2,2.6,0,2.4c-0.6-0.2-1.3,0.1-1.4,0.7
				l0,0C67.3,69.6,65.2,72.6,67.2,66.3z M69.4,61.1c-1.2,0-1.7,3.8-2.2-1.5c0,0,0.9-2.5,2.1,0C69.3,59.5,70.6,61.1,69.4,61.1
				L69.4,61.1z M69.9,63.5c0,0-0.1-3.2,1.9-0.5c0,0,0.6,2.3-0.7,1.7C71.2,64.7,69.6,67.9,69.9,63.5L69.9,63.5z M74.8,69.7
				c-0.2,0.9-2.7,1.5-2.2,0.9c0.3-0.3,0.4-0.6,0.4-1C73,69.6,75,68.8,74.8,69.7L74.8,69.7z M73.7,63.5c0,0,0.5-2.6,1.7-1.1
				s1,3.1,0.4,2.7C75.2,64.6,75,67.5,73.7,63.5L73.7,63.5z M77.7,67.8c-0.4,0.1-2.9,1.6-1.9-1.1c0,0,1.7-1.3,1.9-0.4
				C77.8,67.1,78,67.6,77.7,67.8L77.7,67.8z M76.7,61.4c0,0,1.3-3.5,1.6-0.2c0.3,3.3,0,1.7,0,1.7S76.6,64,76.7,61.4L76.7,61.4z
				 M79.3,64.9c-2.4,0.8,0-1.2,0-1.2C80.1,63.8,81.7,64.1,79.3,64.9z M80.6,58c0.3-0.2,0.7-0.3,1-0.4c-0.1,0.6-0.5,1-1,1.2
				C79.9,58.8,80.5,58,80.6,58L80.6,58z M81.6,61.1c-0.4,0.2-0.8,0.6-1,1l-1.2-0.7C81.4,59.9,82.3,60.8,81.6,61.1L81.6,61.1z
				 M79.5,54.9l0.2,0.8C79.2,55.7,79.5,54.9,79.5,54.9L79.5,54.9z M79.3,56.9c0.7,1.6,0,1.7-0.7,1.6c-0.7-0.1-0.8-0.8-0.7-1.6
				C77.8,56.9,78.5,55.3,79.3,56.9L79.3,56.9z M77.2,51.8c0.8,0.6,0.3,0.7,0,0.6C76.9,52.3,77.2,51.8,77.2,51.8z M77.4,55
				c-0.7,1.4-1.3-1.5-1.3-1.5c0.5-0.3,1.1-0.1,1.4,0.4C77.7,54.2,77.7,54.7,77.4,55L77.4,55z M75.5,48.3c1,0.6,0.4,1.4-0.3,1.3
				C74.5,49.5,75.5,48.2,75.5,48.3L75.5,48.3z M75.6,52.8c-0.9,1.7-1.1-1.6-1.1-1.6C75,51.1,76.5,51.1,75.6,52.8L75.6,52.8z
				 M76.1,56.1c0,0,0.4,1.6-0.5,1.6s-0.9,1.9-1-0.7C74.6,57,73.7,54,76.1,56.1L76.1,56.1z M73.4,48.9c0.6-0.1,1.3,1.1-0.2,1.2
				C71.8,50.3,73.5,48.9,73.4,48.9L73.4,48.9z M72.7,53.2c0.3-0.9,1.8-0.2,0.8,1.7C72.6,56.8,72.7,53.2,72.7,53.2L72.7,53.2z
				 M73.6,59c1,2,0.4,2.2,0,1.8s-1.8,2.7-1.3-1.2C72.4,59.6,72.6,57,73.6,59L73.6,59z M71.7,52.8c-1.6,2-1-2.2-1-2.2
				C71.2,50.4,73.5,50.8,71.7,52.8L71.7,52.8z M71.7,48.4c-0.7,1.4-1.2-0.6-1.2-0.6S72.4,47,71.7,48.4L71.7,48.4z M71.8,56.2
				c1.2,2.1-0.4,0.7-0.8,2s-1.7-0.4-1.2-1.4C69.8,56.8,70.7,54.2,71.8,56.2L71.8,56.2z M68.3,49.2c0.7-0.6,2.1,0.4,0.9,1.4
				C68,51.6,68.3,49.1,68.3,49.2L68.3,49.2z M68.4,53.3c0.3-0.7,0.6-0.1,1.3,0.4s0.2,1.2-1.3,1.8C66.9,56,68.4,53.2,68.4,53.3
				L68.4,53.3z M67.4,47.8c0.4,0.5-0.6,0.8-1.1,0.7c-0.4-0.3-0.7-0.7-0.8-1.2C66.3,47.1,66.9,47.3,67.4,47.8L67.4,47.8z M67,51.3
				c1.8,1.6-1.6,1.7-1.7,0C65.3,51.3,65.3,49.7,67,51.3z M66.6,55.7c2.1,2.2,1,1.6,0,1.6s-1.3,2.8-2-0.5
				C64.6,56.8,64.5,53.6,66.6,55.7z M63.9,54.5c-0.8-0.2-0.9,2.7-1.7-0.8c0,0-0.6-1.5,1-0.4C64.9,54.3,64.6,54.7,63.9,54.5
				L63.9,54.5z M64.3,49.2c-0.5,2.2-0.8,1.3-1.4,0.5C62.4,48.9,64.3,49.3,64.3,49.2L64.3,49.2z M62.1,48c1,0.2-1.3,1-1.3,1
				C59.5,48,61,47.8,62.1,48L62.1,48z M60,51.4c0.6,0.1,1.1,0.2,1.6,0.5c0.8,0.4-0.6,1.3-1.9,0.5S60,51.4,60,51.4L60,51.4z
				 M58.8,53.7c1.7,1.3,0.4,1.3,0,1.3s-0.9,1.8-1-0.3C57.7,54.8,57,52.5,58.8,53.7L58.8,53.7z M57.2,49.3c0,0,0.6-0.7,0.9,0
				c0.3,0.7-0.1,1.5-0.6,1.3c-0.4-0.2-0.6-0.6-0.4-1C57,49.5,57.1,49.5,57.2,49.3L57.2,49.3z M55.2,52.1c0.8-0.7,2,0.7,0.9,1.5
				C55,54.4,55.1,52.2,55.2,52.1L55.2,52.1z M53.1,55.2c0,0,0.6-0.7,0.9,0c0.3,0.7-0.1,1.5-0.6,1.3c-0.4-0.1-0.6-0.6-0.5-1
				C52.9,55.4,53,55.3,53.1,55.2L53.1,55.2z M49.7,60.5c-0.3-1.2,0.9-0.7,0.9-0.7C51,62.4,49.9,61.8,49.7,60.5L49.7,60.5z
				 M50.8,63.3c-0.3-1.2,0.9-0.7,0.9-0.7C52.1,65.2,51,64.5,50.8,63.3L50.8,63.3z M51.7,58.6c0.8-0.7,2,0.7,0.9,1.5
				C51.5,60.9,51.6,58.7,51.7,58.6L51.7,58.6z M54.3,67.3c0,0-1.6-0.1-1.5-1s0.9-0.2,0.9-0.2C54.4,66.2,54.2,67.4,54.3,67.3
				L54.3,67.3z M54.5,62.4c-0.6,1-1.1,1.6-1.3-0.7c0,0,0.6-2.5,1.3-1C55.1,62,55,61.3,54.5,62.4z M56.2,56.9c1.5,1.3,0.4,1.5,0,1.6
				c-0.4,0.2-1,1.9-1.3-1C54.8,57.6,54.7,55.6,56.2,56.9L56.2,56.9z M55.7,69.9c-0.8-0.6,0.5-1,0.5-1s0-0.4,0.6,0
				C57.3,69.2,56.5,70.4,55.7,69.9z M56.9,64.8c-0.4-0.1-0.9,3.1-1.9-0.7c0,0,0.6-3.1,1.8-0.9C58.1,65.3,57.3,64.9,56.9,64.8
				L56.9,64.8z M58.9,68c0,0-1.2,3.6-1.4-1.2c0,0,0.1-3.5,1.4,0C59,66.8,60.5,68.8,58.9,68L58.9,68z M59.5,62.9c0,0,0.3-2.3,1.6-0.5
				c1.3,1.7,1.2,1.8,0.5,1.7C60.9,64,60.7,68.4,59.5,62.9L59.5,62.9z M67.1,83.6c-1.9,1.5-0.8,4.1-0.8,4.1c0.8,0.5,1.1,1.5,0.7,2.3
				c-1.4,1.2-1.1,4.3-0.6,5.1c0.4,0.8,0.6,1.7,0.7,2.6c-1.2,1.7-1.5,3.9-0.6,5.8c0.3,0.9,0.1,1.8-0.4,2.5c-1.3,3.1,0.4,4.1,0.1,4.7
				s-2.8,0-2.8,0L64,75.8h1.3c2.1-0.3,1.5,1,1.5,1c-1,0.3-0.6,4-0.6,4C66.8,81.6,67.1,82.6,67.1,83.6L67.1,83.6z M66.9,73.8
				c-2,1.7-2,0.6-2,0.6s-0.2-0.7-3.3-2.1c-3.1-1.3,0.3-1.5,0.3-1.5c0.5,0.1,1,0.3,1.4,0.7c0.9,0.7,2.7,1.7,3.5,0.6
				c0.7-0.8,1.7-1.3,2.7-1.5c3,0.4,0.7,2,0.7,2S68.8,72.1,66.9,73.8z M104.4,59.9c-0.9,0.4-4.9,2.8-5,3.7c-0.1,0.9-2.2,5.8-2.9,7.4
				c-0.6,1.6,1.9,1.1,1.9,1.1c4.2,0.2-1.8,2.1-1.8,2.1C94.7,74.5,93,77,93,77c-2.1,1.1-0.8,1.4-0.6,1.5c0.5,0.3,1,0.7,1.4,1
				c0.4,2.3-2.5,0.8-2.5,0.8c-1.8-1-3.8,0.7-3.8,0.7c-4.4,1.7-1.6,2.4-1.6,2.4c1.6,1.5-1,1.3-1,1.3c-2.2-0.9-4.7-0.6-6.7,0.7
				c-2.8,1.2-0.2,1.9-0.2,1.9c1,2.4-1.5,1-1.5,1c-1.6-1.3-3.9-0.2-3.9-0.2c-7.8,1.6,1.8-3.8,1.8-3.8c3.7-1.5,12.4-6.4,12.4-6.4
				c3.8-1.6,6-5.3,7.8-8.4s4.7-14.4,4.7-14.4c2.4-5.8,2.3,0,1.8,2.4s-0.9,2.3,1.4,1.6C104.7,58.4,105.3,59.5,104.4,59.9z"/>
		</g>
	</g>
</g>
<g>
	<path class="st5" d="M637.8,73.8v52.1h-6.3V73.8H637.8z"/>
	<path class="st5" d="M651.5,84.8h0.6l19.4,26.6l19.4-26.6h0.6v41.1h-5.8v-16.8l0.4-9.3l-4.6,6.8l-9.7,13.6h-0.4l-9.7-13.5l-4.6-6.9
		l0.3,9.2v17h-5.8V84.8H651.5z"/>
	<path class="st5" d="M718.8,84.6h0.4l19.3,41.3H732l-3.9-8.9h-18.5l-3.9,8.9h-6.3L718.8,84.6z M726.6,112.8l-5.4-12l-2.3-5.8
		l-2.3,5.8l-5.4,12H726.6L726.6,112.8z"/>
	<path class="st5" d="M777.7,123.8c-4.8,2-10,3-15.2,3c-11.7,0-21.1-6.7-21.1-21c0-13,9-20.7,20.3-20.7c6,0,10.8,1.7,14.9,5.6
		l-3.9,4.1c-2.8-3.1-6.8-4.9-11-4.8c-8.1,0-14.1,6.2-14.1,15.8c0,10.6,6.6,16.2,14.9,16.2c3.2,0,6.4-0.5,9.4-1.7v-9.5h-9.5V106h15.2
		L777.7,123.8L777.7,123.8z"/>
	<path class="st5" d="M814.5,85.9v5h-19.3v11.8H811v5h-15.8V121h20.3v5h-26.2V86L814.5,85.9L814.5,85.9z"/>
	<path class="st5" d="M848.8,72.7c14.3,0,26.2,10.4,26.2,27c0,15.1-9.6,25-21.8,26.9l7.7,13.6h-7.6l-7.2-13.4
		c-13-1.3-23.4-11.4-23.4-27.2C822.6,83,834.5,72.7,848.8,72.7z M848.8,121.8c10.9,0,19.5-8.8,19.5-22.1c0-13.1-8.6-21.7-19.5-21.7
		s-19.5,8.6-19.5,21.7C829.2,113.1,837.8,121.8,848.8,121.8z"/>
	<path class="st5" d="M891.8,109.5c0,8.5,3.6,12.4,10.6,12.4s10-4,10-12.4V85.9h6v22.3c0,7.2-0.5,18.6-15.8,18.6
		c-15.9,0-16.7-11.7-16.7-18.6V85.9h6L891.8,109.5L891.8,109.5z"/>
	<path class="st5" d="M956.1,85.9v5h-19.2v11.8h15.8v5h-15.8V121h20.3v5H931V86L956.1,85.9L956.1,85.9z"/>
	<path class="st5" d="M976.5,85.1c5.6,0,9.6,1.7,13,5.5l-3.9,3.6c-2.1-2.9-5.5-4.6-9.1-4.5c-5,0-7.5,2.3-7.5,5.7
		c0,4,3.8,5.7,8.1,7.3c5.7,2.3,12.4,4.5,12.3,12.4c-0.1,8.2-6.6,11.6-14.3,11.6c-5.9,0.2-11.6-2.6-15-7.5l4.1-3.1
		c2.4,3.7,6.5,5.9,10.9,6c6.6,0,8.6-3.4,8.6-6.7c0-4.5-4.2-6.2-8.8-8.1c-5.5-2.1-11.5-4.4-11.5-11.6
		C963.4,88.9,969.5,85.1,976.5,85.1z"/>
	<path class="st5" d="M1023.3,85.9v5H1011v34.9h-5.9V90.9h-12.7v-5H1023.3L1023.3,85.9z"/>
	<path class="st5" d="M1036.6,69.5v1.8h-4.3v11.8h-2.2V71.3h-4.4v-1.8H1036.6z M1053.3,69h0.4v14.1h-2.3V75l-4.8,6.6l-4.9-6.6v8.1
		h-2.2V69h0.4l6.7,9L1053.3,69z"/>
</g>
<g>
	<path class="st8" d="M637.1,73.3v52.1h-6.3V73.3H637.1z"/>
	<path class="st8" d="M650.8,84.3h0.6l19.4,26.6l19.4-26.6h0.6v41.1H685v-16.8l0.4-9.3l-4.6,6.8l-9.7,13.6h-0.4l-9.7-13.5l-4.6-6.9
		l0.3,9.2v17h-5.8V84.3H650.8z"/>
	<path class="st8" d="M718,84h0.4l19.3,41.3h-6.4l-3.9-8.9h-18.5l-3.9,8.9h-6.3L718,84z M725.9,112.3l-5.4-12l-2.3-5.8l-2.3,5.8
		l-5.4,12H725.9L725.9,112.3z"/>
	<path class="st8" d="M776.9,123.3c-4.8,2-10,3-15.2,3c-11.7,0-21.1-6.7-21.1-21c0-13,9-20.7,20.3-20.7c6,0,10.8,1.7,14.9,5.6
		l-3.9,4.1c-2.8-3.1-6.8-4.9-11-4.8c-8.1,0-14.1,6.2-14.1,15.8c0,10.6,6.6,16.2,14.9,16.2c3.2,0,6.4-0.5,9.4-1.7v-9.5h-9.5v-4.9
		h15.2L776.9,123.3L776.9,123.3z"/>
	<path class="st8" d="M813.7,85.4v5h-19.3v11.8h15.8v5h-15.8v13.2h20.3v5h-26.2v-40H813.7z"/>
	<path class="st8" d="M848,72.2c14.3,0,26.2,10.4,26.2,27c0,15.1-9.6,25-21.8,26.9l7.7,13.6h-7.6l-7.2-13.4
		c-13-1.3-23.4-11.4-23.4-27.2C821.8,82.5,833.8,72.2,848,72.2z M848,121.3c10.9,0,19.5-8.8,19.5-22.1c0-13.1-8.6-21.7-19.5-21.7
		s-19.5,8.6-19.5,21.7C828.5,112.5,837.1,121.3,848,121.3z"/>
	<path class="st8" d="M891,108.9c0,8.5,3.6,12.4,10.6,12.4s10-4,10-12.4V85.4h6v22.3c0,7.2-0.5,18.6-15.8,18.6
		c-15.9,0-16.7-11.7-16.7-18.6V85.4h6L891,108.9L891,108.9z"/>
	<path class="st8" d="M955.3,85.4v5h-19.2v11.8h15.8v5h-15.8v13.2h20.3v5h-26.2v-40H955.3L955.3,85.4z"/>
	<path class="st8" d="M975.8,84.6c5.6,0,9.6,1.7,13,5.5l-3.9,3.6c-2.1-2.9-5.5-4.6-9.1-4.5c-5,0-7.5,2.3-7.5,5.7
		c0,4,3.8,5.7,8.1,7.3c5.7,2.3,12.4,4.5,12.3,12.4c-0.1,8.2-6.6,11.6-14.3,11.6c-5.9,0.2-11.6-2.6-15-7.5l4.1-3.1
		c2.4,3.7,6.5,5.9,10.9,6c6.6,0,8.6-3.4,8.6-6.7c0-4.5-4.2-6.2-8.8-8.1c-5.5-2.1-11.5-4.4-11.5-11.6
		C962.7,88.3,968.7,84.6,975.8,84.6z"/>
	<path class="st8" d="M1022.5,85.4v5h-12.3v34.9h-5.9V90.4h-12.7v-5H1022.5L1022.5,85.4z"/>
	<path class="st8" d="M1035.8,68.9v1.8h-4.3v11.8h-2.2V70.7h-4.4v-1.8C1024.9,68.9,1035.8,68.9,1035.8,68.9z M1052.5,68.5h0.4v14.1
		h-2.3v-8.1l-4.8,6.6l-4.9-6.6v8.1h-2.2V68.5h0.4l6.7,9L1052.5,68.5z"/>
</g>
<path class="st5" d="M161.2,69c0-6.1,0.2-10.6,0.5-13.5c2.6-0.6,5.2-0.9,7.8-0.9c5,0,8.7,1,11.3,2.9c2.6,2,3.9,5.1,3.9,9.5
	c0,2.2-0.4,4.5-1.2,6.5c-0.7,1.7-1.7,3.2-3,4.4c-1.5,1.2-3.2,2.1-5.1,2.5c-3,0.8-6.2,1.1-9.3,1c-1.4,0-3,0-4.9-0.1V69L161.2,69z
	 M156,124.6l14.2,0.4c4.2,0.1,8.3-0.6,12.2-2.1c4.5-1.8,8.4-4.8,11.3-8.7c2.9-3.9,4.5-8.7,4.4-13.7c0-2.4-0.4-4.8-1.2-7.1
	c-0.8-2.1-2-3.9-3.6-5.5c-1.7-1.5-3.7-2.7-5.9-3.4c-3-0.9-6.1-1.4-9.3-1.7c2.4-0.6,4.7-1.5,7-2.6c1.8-0.9,3.4-2.2,4.8-3.6
	c1.5-1.5,2.7-3.3,3.5-5.3c0.9-2.1,1.3-4.3,1.3-6.5c0-2.8-0.7-5.5-2.2-7.9c-1.4-2.3-3.5-4.2-6-5.2c-2.6-1.1-6.3-1.6-11-1.6l-18,0.5
	l-10.2-0.2c-1.6,0-3,0-4.1-0.1v3.4c3.4,0,5.7,0.3,6.8,0.8c0.5,0.2,0.8,0.6,1,1c0.5,1.8,0.7,3.6,0.7,5.4c0.2,4.6,0.2,8.6,0.2,12.1
	v31.6c0,1.8-0.1,4.4-0.2,7.8c0,2.2-0.2,4.5-0.5,6.7c-0.1,0.5-0.2,1-0.5,1.4c-1,0.8-2.2,1.5-3.4,2v2.4
	C151.5,124.8,154.5,124.7,156,124.6 M161.2,105.9v-20c1.8-0.2,3.6-0.4,5.4-0.4c6.1,0,10.5,0.6,13.2,1.8c2.6,1.1,4.7,3.1,6,5.6
	c1.4,2.9,2.1,6.1,2,9.3c0.1,3.4-0.7,6.8-2.1,9.9c-1.3,2.7-3.4,5-6.1,6.4c-3.3,1.6-6.8,2.3-10.5,2.1c-2.6,0-5.2-0.3-7.8-0.9
	C161.2,112.5,161.2,107.8,161.2,105.9"/>
<path class="st5" d="M204.1,125v-3c4-0.1,6.1-0.1,6.4-0.2c0.5-0.1,0.9-0.2,1.3-0.5c0.3-0.3,0.6-0.6,0.7-1c0.4-1.2,0.6-2.5,0.6-3.8
	c0.2-9.4,0.3-14.2,0.3-14.7v-6.2c0-2.8-0.1-5.8-0.3-9c0.1-1.2-0.1-2.5-0.4-3.7c-0.3-0.4-0.7-0.7-1.2-0.9c-2.2-0.3-4.5-0.4-6.8-0.2
	v-3.1c7-1,12.1-2.2,15.3-3.8c0.4-0.3,0.9-0.4,1.4-0.5c0.2,0,0.4,0.1,0.6,0.3c0.2,0.2,0.2,0.5,0.2,0.8c0,0.2,0,0.5,0,0.8
	c-0.2,2.2-0.2,5.5-0.2,10c1.6-1.8,3-3.6,4.4-5.4c0.9-1.2,1.8-2.4,2.9-3.5c1.1-0.9,2.3-1.7,3.6-2.2c1.4-0.5,2.8-0.8,4.3-0.8
	s3,0.3,4.4,0.9l0.3,0.7c-0.5,4.7-0.8,8.8-0.9,12.3h-2.4c-0.6-1.4-1.6-2.7-2.9-3.7c-1.2-0.8-2.6-1.2-4-1.2c-2.7,0-5.2,1.2-6.9,3.3
	c-1.9,2.2-2.8,5.5-2.8,10v5.4c0,2.3,0.1,6.5,0.3,12.6c0,1.4,0.1,2.8,0.3,4.1c0.1,0.5,0.3,0.9,0.5,1.3c0.3,0.3,0.7,0.5,1.1,0.7
	c2.8,0.5,5.6,0.9,8.5,1v3c-6.1-0.3-11.4-0.4-15.7-0.4C212.6,124.7,208.3,124.8,204.1,125"/>
<path class="st5" d="M259.3,51.1c1.6,0,3.1,0.6,4.1,1.7c1.1,1.1,1.7,2.6,1.7,4.2c0,3.2-2.6,5.8-5.9,5.9c-1.6,0-3.1-0.6-4.2-1.7
	c-1.1-1.1-1.8-2.6-1.7-4.1C253.3,53.7,255.9,51.1,259.3,51.1C259.2,51.1,259.2,51.1,259.3,51.1 M246.5,81.9v-3
	c5.8-0.6,11.5-2.1,16.9-4.5l1.1,0.8c-0.2,7.4-0.3,13.1-0.3,17.1v9.5c0.2,9.1,0.3,14,0.3,14.7c0,1.3,0.1,2.6,0.6,3.8
	c0.2,0.3,0.4,0.6,0.7,0.8c0.4,0.3,0.8,0.5,1.3,0.5c0.2,0,2.1,0.1,5.8,0.2v3c-5.3-0.3-9.5-0.4-12.7-0.4c-2.8,0-7.3,0.1-13.7,0.4v-3
	l5-0.1c0.6,0,1.2-0.1,1.7-0.4c0.4-0.2,0.7-0.5,0.9-0.9c0.5-1.2,0.7-2.4,0.7-3.7c0-0.5,0.1-5.5,0.3-15v-9.2c0-5.2-0.2-8.3-0.5-9.3
	c-0.2-0.5-0.6-0.9-1.1-1.2C252.9,82,250.6,81.9,246.5,81.9"/>
<path class="st5" d="M276.3,81.8v-2.3c2.7-1.1,5.4-2.4,8-3.9V58.9c3.1-1.1,6.1-2.5,8.9-4.3l1.3,1.1c-0.4,3.1-0.8,9.9-1.3,20.3
	l5.1,0.1l5.4-0.1c1.4,0,2.8-0.1,4.1-0.3l0.4,0.4l-1.1,5.1c-2.2,0-4.3-0.1-6.1-0.1c-1.9,0-4.5,0-7.8,0.1l-0.3,22.5
	c-0.1,3.3-0.1,6.6,0.1,9.8c0.2,1,0.5,1.9,1,2.8c0.5,0.8,1.1,1.4,1.9,1.9c1.3,0.6,2.6,1,4,1.1c1.2,0,2.3,0,3.5-0.2s2.3-0.5,3.4-1
	l0.6,2.2c-1.6,1.4-3.2,2.8-4.8,4.2c-1.2,0.5-2.5,0.8-3.7,1c-1.3,0.2-2.7,0.3-4,0.3c-1.5,0.1-3-0.2-4.4-0.7c-1.1-0.4-2.1-1.1-3-1.9
	c-1-0.8-1.7-1.9-2.3-3c-0.8-1.8-1.2-3.8-1.2-5.7c0-2.5,0.1-5.3,0.2-8.3c0-0.6,0.1-1.2,0.1-1.9V81.4h-2.1
	C280.2,81.4,278.2,81.6,276.3,81.8"/>
<path class="st5" d="M341.1,111.5c-1.8,2.4-3.9,4.4-6.4,6.1c-1.9,1.3-4.2,2-6.5,2.1c-2.1,0.1-4.1-0.7-5.6-2.2
	c-1.4-1.7-2.1-3.9-2-6.1c0-2,0.4-4,1.3-5.8c0.4-1,1.1-1.9,1.9-2.7c1.9-1.3,4.1-2.3,6.3-3c3.6-1.1,7.2-1.9,10.8-2.6L341.1,111.5
	L341.1,111.5z M320.7,84.1l0.9-1.9c0.8-0.6,1.7-1.1,2.6-1.4c1.6-0.6,3.3-0.9,5.1-0.8c2.4-0.1,4.7,0.6,6.7,1.8c1.8,1.1,3.1,2.7,4,4.6
	c0.9,2.5,1.3,5.1,1.2,7.7c-4.3,0.5-8.5,1.4-12.6,2.4c-3.2,0.7-6.2,1.7-9.2,3c-1.2,0.7-2.3,1.5-3.3,2.6c-1.2,1.4-2.1,3-2.8,4.8
	c-0.8,2.1-1.2,4.4-1.1,6.6c-0.2,3.3,1,6.6,3.3,9c2.2,2.3,5.3,3.4,9.2,3.4c1.6,0.1,3.2-0.3,4.7-1c1.2-0.7,5.2-3.7,11.8-9.1L341,125
	c3.2-0.3,5.8-0.4,7.7-0.4s4.3,0.1,7,0.4v-3l-3.1-0.3c-0.7,0-1.4-0.1-2.1-0.4c-0.4-0.3-0.8-0.7-0.9-1.1c-0.3-1.2-0.4-2.4-0.4-3.6V101
	l0.2-9.6c0.1-2.7-0.3-5.5-1.3-8c-1.1-2.7-3.1-5-5.7-6.4c-2.8-1.6-6.1-2.4-9.3-2.3c-2.3,0-4.6,0.3-6.8,1.1c-3.6,1.6-7,3.5-10.1,5.8
	c0,0.9,0,2,0,3.5s0,2.6,0,3.3l2.6,0.7C319.2,87.8,319.8,86.2,320.7,84.1"/>
<path class="st5" d="M360.8,125v-3l4.8-0.1c0.6,0,1.1-0.1,1.6-0.4c0.4-0.2,0.7-0.5,0.9-0.9c0.5-1.2,0.7-2.5,0.7-3.7
	c0-0.5,0.1-5.5,0.2-15.1v-6.2c0-2.8-0.1-5.8-0.2-9c0-1.2-0.1-2.5-0.5-3.7c-0.2-0.4-0.6-0.7-1.1-0.9c-2.1-0.3-4.3-0.4-6.4-0.2v-3.1
	c6.7-1,11.5-2.2,14.6-3.8c0.4-0.3,0.9-0.4,1.3-0.5c0.2,0,0.4,0.1,0.5,0.3c0.1,0.2,0.2,0.5,0.2,0.8c0,0.2,0,0.5,0,0.8
	c-0.1,1.3-0.1,3.9-0.2,8l9.3-8.4c2.5-1,5.1-1.6,7.8-1.6c2.7,0,5.3,0.6,7.7,1.7c2.2,1,4.1,2.5,5.5,4.4c1.3,2,2.1,4.3,2.4,6.6
	c0.2,1.6,0.4,6,0.4,13.2v9.3c0,4.5,0.1,7.6,0.2,9.3c0.1,0.8,0.3,1.5,0.8,2.2c0.4,0.4,1,0.7,1.6,0.8l5.4,0.2v3
	c-3.3-0.3-6-0.4-8.1-0.4c-1.9,0-5,0.1-9.3,0.4c0.4-8.7,0.6-14.1,0.6-16.4v-8.8c0-5.5-0.2-9.1-0.6-10.8c-0.5-2.3-1.9-4.3-3.9-5.7
	c-2.1-1.5-4.7-2.2-7.2-2.2c-2.4,0-4.8,0.6-6.9,1.9c-1.8,1-3.4,2.5-4.4,4.3c-0.9,1.6-1.3,4.4-1.3,8.2v6.3c0.2,9.1,0.2,14,0.2,14.8
	c0,1.3,0.2,2.6,0.6,3.8c0.1,0.3,0.3,0.6,0.6,0.8c0.4,0.3,0.8,0.5,1.3,0.5c0.2,0,2.1,0.1,5.6,0.2v3c-4.1-0.3-7.7-0.4-11-0.4
	C371.7,124.6,367.1,124.7,360.8,125"/>
<path class="st5" d="M421.1,125v-3l4.6-0.1c0.5,0,1.1-0.1,1.6-0.4c0.4-0.2,0.6-0.5,0.8-0.9c0.5-1.2,0.7-2.5,0.7-3.7
	c0-0.5,0.1-5.5,0.2-15.1v-6.2c0-2.8-0.1-5.8-0.2-9c0-1.2-0.1-2.5-0.4-3.7c-0.2-0.4-0.6-0.7-1-0.9c-2-0.3-4.1-0.4-6.1-0.2v-3.1
	c6.4-1,11.1-2.2,14-3.8c0.4-0.3,0.8-0.5,1.3-0.5c0.2,0,0.4,0.1,0.5,0.3c0.1,0.2,0.2,0.5,0.2,0.8c0,0.2,0,0.5,0,0.8
	c-0.1,1.3-0.1,3.9-0.2,8l9-8.4c2.4-1,4.9-1.5,7.4-1.6c2.6,0,5.1,0.6,7.4,1.7c2.1,1,3.9,2.5,5.3,4.4c1.3,2,2.1,4.3,2.3,6.6
	c0.2,1.6,0.3,6,0.3,13.2v9.3c0,4.5,0.1,7.6,0.2,9.3c0.1,0.8,0.3,1.5,0.8,2.2c0.4,0.4,1,0.7,1.6,0.8l5.2,0.2v3
	c-3.1-0.3-5.7-0.4-7.8-0.4c-1.8,0-4.8,0.1-8.9,0.4c0.4-8.7,0.6-14.1,0.6-16.4v-8.8c0.1-3.6-0.1-7.2-0.6-10.8
	c-0.5-2.3-1.8-4.3-3.7-5.7c-2-1.5-4.5-2.2-7-2.2c-2.3,0-4.6,0.6-6.6,1.9c-1.8,1-3.3,2.5-4.3,4.3c-0.8,1.6-1.3,4.4-1.3,8.2v6.3
	c0.2,9.1,0.2,14,0.2,14.8c0,1.3,0.2,2.6,0.6,3.8c0.1,0.3,0.3,0.6,0.6,0.8c0.4,0.3,0.8,0.5,1.2,0.5c0.2,0,2,0.1,5.3,0.2v3
	c-3.9-0.3-7.4-0.4-10.6-0.4C431.5,124.6,427.1,124.7,421.1,125"/>
<path class="st5" d="M493.4,51.1c1.6,0,3.1,0.6,4.1,1.7c1.1,1.1,1.7,2.6,1.7,4.2c0,3.2-2.6,5.8-5.9,5.9c-1.6,0-3.1-0.6-4.2-1.7
	c-1.1-1.1-1.7-2.6-1.7-4.1C487.5,53.7,490.1,51.1,493.4,51.1L493.4,51.1 M480.6,81.9v-3c5.8-0.6,11.5-2.1,16.9-4.5l1.1,0.8
	c-0.2,7.4-0.3,13.1-0.3,17.1v9.5c0.2,9.1,0.3,14,0.3,14.7c0,1.3,0.2,2.6,0.6,3.8c0.2,0.3,0.4,0.6,0.7,0.8c0.4,0.3,0.8,0.5,1.3,0.5
	c0.2,0,2.1,0.1,5.8,0.2v3c-5.3-0.3-9.5-0.4-12.7-0.4c-2.8,0-7.3,0.1-13.7,0.4v-3l5-0.1c0.6,0,1.2-0.1,1.7-0.4
	c0.4-0.2,0.7-0.5,0.9-0.9c0.5-1.2,0.7-2.4,0.7-3.7c0-0.5,0.1-5.5,0.3-15v-9.2c0-5.2-0.2-8.3-0.5-9.3c-0.2-0.5-0.6-0.9-1.1-1.2
	C487,82,484.7,81.9,480.6,81.9"/>
<path class="st5" d="M550.4,119l-2,3.5c-2.1,1.2-4.4,2.2-6.7,2.8c-2.5,0.6-5,0.9-7.6,0.9c-6.9,0-12.4-2.2-16.6-6.6
	c-4.1-4.4-6.2-10.5-6.2-18.2c-0.1-3.6,0.5-7.2,1.7-10.7c0.9-2.6,2.3-5,4.1-7c1.9-1.7,4-3.2,6.2-4.5c2.1-1.3,4.2-2.5,6.4-3.6
	c2.6-1.1,5.3-1.6,8.1-1.5c2.7,0,5.4,0.3,8,1c1.6,0.5,3.1,1.2,4.5,2.1c-0.4,2.7-0.7,4.8-0.8,6.1c-0.2,1.4-0.4,3.9-0.6,7.6H546
	c-0.1-2.1-0.3-4.2-0.6-6.3c-0.2-0.5-0.5-1-0.9-1.4c-1.4-1.1-2.9-1.9-4.6-2.5c-1.9-0.7-4-1.1-6.1-1c-2.5-0.1-5,0.6-7.2,1.8
	c-2.1,1.4-3.8,3.4-4.7,5.7c-1.2,3.1-1.8,6.4-1.7,9.7c-0.1,4.4,0.7,8.8,2.4,12.9c1.2,3.4,3.5,6.3,6.4,8.4c2.7,1.8,5.9,2.7,9.1,2.6
	c1.7,0,3.3-0.2,4.9-0.7c2.1-0.7,4.2-1.5,6.1-2.5L550.4,119z"/>
<path class="st5" d="M585.3,111.5c-1.7,2.4-3.8,4.4-6.2,6.1c-1.9,1.3-4.1,2-6.3,2.1c-2,0.1-4-0.7-5.4-2.2c-1.4-1.7-2.1-3.9-2-6.1
	c0-2,0.4-4,1.2-5.8c0.4-1,1.1-1.9,1.9-2.7c1.9-1.3,4-2.3,6.2-3c3.5-1.1,7-1.9,10.6-2.6V111.5L585.3,111.5z M565.3,84.1l0.9-1.9
	c0.8-0.6,1.7-1.1,2.6-1.4c1.6-0.6,3.3-0.9,4.9-0.8c2.3-0.1,4.6,0.5,6.6,1.8c1.7,1.1,3.1,2.7,3.9,4.6c0.9,2.5,1.2,5.1,1.1,7.7
	c-4.2,0.5-8.3,1.4-12.4,2.4c-3.1,0.7-6.1,1.7-9,3c-1.2,0.7-2.3,1.6-3.2,2.6c-1.2,1.4-2.1,3-2.7,4.8c-0.8,2.1-1.1,4.4-1.1,6.6
	c-0.2,3.3,1,6.5,3.2,9c2.2,2.3,5.2,3.4,9,3.4c1.6,0.1,3.2-0.3,4.6-1c1.2-0.7,5.1-3.7,11.6-9.1l-0.2,9.2c3.2-0.3,5.7-0.4,7.6-0.4
	c1.9,0,4.2,0.1,6.8,0.4v-3l-3.1-0.3c-0.7,0-1.4-0.1-2-0.4c-0.4-0.3-0.7-0.7-0.9-1.1c-0.3-1.2-0.4-2.4-0.4-3.6V101l0.2-9.6
	c0.1-2.7-0.3-5.5-1.2-8c-1.1-2.7-3.1-4.9-5.5-6.4c-2.8-1.6-6-2.4-9.2-2.3c-2.3,0-4.5,0.3-6.6,1.1c-3.5,1.6-6.9,3.5-9.9,5.8
	c0,0.9,0,2.1,0,3.5s0,2.5,0,3.3l2.5,0.7C563.8,87.8,564.5,86.2,565.3,84.1"/>
<path class="st5" d="M604.1,51.1c4.6,0,8.3,3.7,8.3,8.3s-3.7,8.3-8.3,8.3s-8.3-3.7-8.3-8.3c-0.1-4.5,3.5-8.2,8-8.3
	C603.9,51.1,604,51.1,604.1,51.1L604.1,51.1z M604.1,52.3c-3.9,0.3-6.8,3.6-6.5,7.5c0.2,3.5,3,6.3,6.5,6.5c3.7-0.1,6.7-3.1,6.6-6.8
	v-0.1C610.8,55.6,607.9,52.5,604.1,52.3L604.1,52.3L604.1,52.3z M602.6,64.1h-1.5v-9.2c0.9-0.1,1.7-0.2,2.6-0.2c1-0.1,2,0.2,2.9,0.7
	c0.6,0.5,0.9,1.2,0.8,1.9c0,1.1-0.7,2-1.8,2.2v0.1c0.8,0.1,1.4,0.9,1.5,2.2c0.1,0.8,0.3,1.6,0.6,2.3h-1.6c-0.3-0.7-0.6-1.5-0.6-2.3
	c0-0.9-0.9-1.7-1.8-1.6c-0.1,0-0.1,0-0.2,0h-1L602.6,64.1L602.6,64.1z M602.6,59h1c1.2,0,2.2-0.4,2.2-1.6c0-0.8-0.6-1.6-2.2-1.6
	c-0.3,0-0.7,0-1,0.1V59L602.6,59z"/>
</svg>
