<svg id="Layer_1" data-name="Layer 1" xmlns="http://www.w3.org/2000/svg" viewBox="0 0 413.74 113.93"><defs><style>.cls-1,.cls-2{fill:#173e6a;}.cls-2{opacity:0.5;}</style></defs><path class="cls-1" d="M144.25,97.51V70.56h5.29q5.73,0,8.31,1a11.25,11.25,0,0,1,5.81,4.76,15.11,15.11,0,0,1,2.09,8.08,14.86,14.86,0,0,1-1.66,7.13,10.88,10.88,0,0,1-4.3,4.54,15.46,15.46,0,0,1-7.42,1.47ZM146.69,95h2.95a26.27,26.27,0,0,0,7.34-.69,8.57,8.57,0,0,0,4.53-3.57,11.4,11.4,0,0,0,1.65-6.29,12,12,0,0,0-1.79-6.66,9,9,0,0,0-5-3.79,28.68,28.68,0,0,0-7.89-.77h-1.81Z"/><path class="cls-1" d="M171.68,69.39a2,2,0,0,1,1.44.62,2.11,2.11,0,0,1,.6,1.51,2.05,2.05,0,0,1-.6,1.48,1.92,1.92,0,0,1-1.44.63,1.89,1.89,0,0,1-1.42-.63,2,2,0,0,1-.59-1.48,2.1,2.1,0,0,1,.59-1.51,1.92,1.92,0,0,1,1.42-.62m-1.22,8.18h2.46V97.51h-2.46Z"/><path class="cls-1" d="M194.79,77.57h2.39V93.45a19.8,19.8,0,0,1-.69,6.13,7.83,7.83,0,0,1-3.25,4.23,10.08,10.08,0,0,1-5.56,1.48,12.06,12.06,0,0,1-4.29-.72,8.31,8.31,0,0,1-3.08-1.95,11.48,11.48,0,0,1-2.2-3.57h2.58a7.07,7.07,0,0,0,2.73,2.93,8.21,8.21,0,0,0,4.14,1,8.08,8.08,0,0,0,4.12-1,5.82,5.82,0,0,0,2.4-2.45,11.78,11.78,0,0,0,.71-4.77v-1a9.13,9.13,0,0,1-12.22,2.43,9.37,9.37,0,0,1-3.48-3.67,11.09,11.09,0,0,1,.06-10.23,9.81,9.81,0,0,1,3.53-3.78,9,9,0,0,1,4.77-1.39,8.42,8.42,0,0,1,3.87.92,10.69,10.69,0,0,1,3.47,3Zm-7,2A7.06,7.06,0,0,0,184,80.59a7.32,7.32,0,0,0-2.71,2.91,8.43,8.43,0,0,0-1,4,7.54,7.54,0,0,0,2,5.42,7.6,7.6,0,0,0,10.57,0,7.82,7.82,0,0,0,2-5.59,8.62,8.62,0,0,0-.91-4,7,7,0,0,0-2.61-2.79,6.85,6.85,0,0,0-3.62-1"/><path class="cls-1" d="M203.46,69.39a2,2,0,0,1,1.44.62,2.1,2.1,0,0,1,.59,1.51A2,2,0,0,1,204.9,73a1.92,1.92,0,0,1-1.44.63A1.89,1.89,0,0,1,202,73a2,2,0,0,1-.59-1.48A2.1,2.1,0,0,1,202,70a1.92,1.92,0,0,1,1.42-.62m-1.22,8.18h2.46V97.51h-2.46Z"/><polygon class="cls-1" points="213.44 70.18 215.91 70.18 215.91 77.57 219.81 77.57 219.81 79.79 215.91 79.79 215.91 97.51 213.44 97.51 213.44 79.79 210.08 79.79 210.08 77.57 213.44 77.57 213.44 70.18"/><path class="cls-1" d="M241.42,77.57V97.51h-2.34V94.08a10.41,10.41,0,0,1-3.36,3,8.66,8.66,0,0,1-4.08,1,8.75,8.75,0,0,1-6.72-3.07,10.71,10.71,0,0,1-2.78-7.46A10.46,10.46,0,0,1,225,80.13a8.84,8.84,0,0,1,6.76-3.06,8.31,8.31,0,0,1,4.13,1,9.52,9.52,0,0,1,3.24,3.13V77.57Zm-9.52,2a6.73,6.73,0,0,0-3.67,1.06,7.52,7.52,0,0,0-2.68,3,8.64,8.64,0,0,0,0,8,7.73,7.73,0,0,0,2.69,3,6.71,6.71,0,0,0,3.63,1.07,7,7,0,0,0,3.71-1.06,7.21,7.21,0,0,0,2.69-2.87,8.7,8.7,0,0,0,.94-4.08,8.25,8.25,0,0,0-2.11-5.78,6.78,6.78,0,0,0-5.21-2.33"/><rect class="cls-1" x="246.75" y="69.89" width="2.46" height="27.61"/><polygon class="cls-1" points="266.36 70.56 268.95 70.56 268.95 94.9 278.9 94.9 278.9 97.51 266.36 97.51 266.36 70.56"/><path class="cls-1" d="M297.69,90.89l2,1.13a11.43,11.43,0,0,1-2.24,3.37,8.82,8.82,0,0,1-2.86,2A9.31,9.31,0,0,1,291,98a8.36,8.36,0,0,1-7-3.2,11.7,11.7,0,0,1-.38-14,8.42,8.42,0,0,1,7.2-3.77,8.71,8.71,0,0,1,7.43,3.86,11.51,11.51,0,0,1,2,6.81H283.91a8.55,8.55,0,0,0,2,5.69,6.21,6.21,0,0,0,4.84,2.22,7.25,7.25,0,0,0,2.7-.53,7,7,0,0,0,2.23-1.4,12,12,0,0,0,2-2.83m0-5.36a8.69,8.69,0,0,0-1.36-3.27,6.5,6.5,0,0,0-2.37-2,6.71,6.71,0,0,0-3.09-.75,6.31,6.31,0,0,0-4.59,1.89,8.66,8.66,0,0,0-2.13,4.11Z"/><path class="cls-1" d="M324.09,77.57V97.51h-2.34V94.08a10.41,10.41,0,0,1-3.36,3,8.66,8.66,0,0,1-4.08,1,8.75,8.75,0,0,1-6.72-3.07,10.67,10.67,0,0,1-2.78-7.46,10.46,10.46,0,0,1,2.81-7.35,8.86,8.86,0,0,1,6.76-3.06,8.31,8.31,0,0,1,4.13,1,9.52,9.52,0,0,1,3.24,3.13V77.57Zm-9.52,2a6.71,6.71,0,0,0-3.67,1.06,7.45,7.45,0,0,0-2.68,3,8.64,8.64,0,0,0,0,8,7.73,7.73,0,0,0,2.69,3,6.71,6.71,0,0,0,3.63,1.07,7,7,0,0,0,3.71-1.06A7.28,7.28,0,0,0,321,91.72a8.7,8.7,0,0,0,.94-4.08,8.25,8.25,0,0,0-2.11-5.78,6.78,6.78,0,0,0-5.21-2.33"/><path class="cls-1" d="M328.86,77.57h2.53v2.91a9,9,0,0,1,2.37-2.56,4.53,4.53,0,0,1,2.61-.85,4.43,4.43,0,0,1,2.18.68l-1.29,2.15a3.38,3.38,0,0,0-1.3-.35,3.5,3.5,0,0,0-2.37,1.06,6.67,6.67,0,0,0-1.75,3.27,33.11,33.11,0,0,0-.45,6.89v6.74h-2.53Z"/><path class="cls-1" d="M341.55,77.57H344v3.57a10.57,10.57,0,0,1,3.28-3.06,7.82,7.82,0,0,1,3.9-1A6.58,6.58,0,0,1,355,78.21a6.7,6.7,0,0,1,2.46,3.06,16.68,16.68,0,0,1,.79,6V97.51h-2.46V88a23.66,23.66,0,0,0-.28-4.6,5.05,5.05,0,0,0-1.64-3,4.8,4.8,0,0,0-3.17-1,5.91,5.91,0,0,0-4,1.54,7.24,7.24,0,0,0-2.34,3.81A28,28,0,0,0,344,90.2v7.31h-2.46Z"/><path class="cls-1" d="M364.54,69.39A2,2,0,0,1,366,70a2.14,2.14,0,0,1,.59,1.51A2.09,2.09,0,0,1,366,73a1.92,1.92,0,0,1-1.44.63,1.88,1.88,0,0,1-1.42-.63,2.05,2.05,0,0,1-.6-1.48,2.11,2.11,0,0,1,.6-1.51,1.9,1.9,0,0,1,1.42-.62m-1.22,8.18h2.46V97.51h-2.46Z"/><path class="cls-1" d="M371.06,77.57h2.46v3.57a10.43,10.43,0,0,1,3.27-3.06,7.88,7.88,0,0,1,3.91-1,6.58,6.58,0,0,1,3.81,1.14A6.68,6.68,0,0,1,387,81.27a16.64,16.64,0,0,1,.8,6V97.51h-2.47V88a24.81,24.81,0,0,0-.27-4.6,5.05,5.05,0,0,0-1.64-3,4.82,4.82,0,0,0-3.17-1,5.93,5.93,0,0,0-4,1.54,7.22,7.22,0,0,0-2.33,3.81,28,28,0,0,0-.35,5.42v7.31h-2.46Z"/><path class="cls-1" d="M409.12,77.57h2.38V93.45a19.87,19.87,0,0,1-.68,6.13,7.87,7.87,0,0,1-3.25,4.23,10.08,10.08,0,0,1-5.56,1.48,12.06,12.06,0,0,1-4.29-.72,8.43,8.43,0,0,1-3.09-1.95,11.67,11.67,0,0,1-2.19-3.57H395a7,7,0,0,0,2.73,2.93,8.18,8.18,0,0,0,4.14,1,8.08,8.08,0,0,0,4.12-1,5.82,5.82,0,0,0,2.4-2.45,11.78,11.78,0,0,0,.71-4.77v-1a9.16,9.16,0,0,1-3.29,2.82,9.14,9.14,0,0,1-8.93-.39,9.37,9.37,0,0,1-3.48-3.67,11.05,11.05,0,0,1,.05-10.23A9.83,9.83,0,0,1,397,78.46a9,9,0,0,1,4.77-1.39,8.39,8.39,0,0,1,3.87.92,10.8,10.8,0,0,1,3.47,3Zm-7,2a7.06,7.06,0,0,0-3.76,1.06,7.41,7.41,0,0,0-2.72,2.91,8.53,8.53,0,0,0-1,4,7.54,7.54,0,0,0,2,5.42,7.58,7.58,0,0,0,10.56,0,7.78,7.78,0,0,0,2-5.59,8.62,8.62,0,0,0-.91-4,7,7,0,0,0-2.61-2.79,6.87,6.87,0,0,0-3.62-1"/><rect class="cls-2" x="1.83" y="107.84" width="409.79" height="4.41"/><path class="cls-1" d="M152.46,33.05a79.7,79.7,0,0,1,.29-8,19.72,19.72,0,0,1,4.63-.53q4.4,0,6.68,1.73c1.53,1.15,2.29,3,2.29,5.62a9.78,9.78,0,0,1-.7,3.86,7.61,7.61,0,0,1-1.78,2.62,7.79,7.79,0,0,1-3,1.55,19.63,19.63,0,0,1-5.51.59c-.83,0-1.79,0-2.89-.07Zm-3.05,32.88,8.38.23a18.9,18.9,0,0,0,7.2-1.24,15.46,15.46,0,0,0,6.67-5.16,13.19,13.19,0,0,0,2.58-8.07,11.73,11.73,0,0,0-.72-4.21,8.56,8.56,0,0,0-2.13-3.2,9.12,9.12,0,0,0-3.49-2,27.38,27.38,0,0,0-5.47-1,20.8,20.8,0,0,0,4.11-1.51,11.36,11.36,0,0,0,2.86-2.15,9.94,9.94,0,0,0,2-3.13,9.78,9.78,0,0,0,.77-3.86A8.76,8.76,0,0,0,170.93,26a7.34,7.34,0,0,0-3.57-3,17.68,17.68,0,0,0-6.51-.94l-10.64.3-6-.16q-1.45,0-2.4-.06v2a12,12,0,0,1,4,.47,1.25,1.25,0,0,1,.61.59,11,11,0,0,1,.41,3.19q.13,4.1.14,7.14v18.7c0,1,0,2.59-.12,4.61a38.93,38.93,0,0,1-.3,4,1.68,1.68,0,0,1-.32.82,11.1,11.1,0,0,1-2,1.2v1.4c2.54-.15,4.27-.23,5.18-.23m3.05-11.12V43.06a28.87,28.87,0,0,1,3.21-.22c3.62,0,6.23.36,7.81,1.07a7.43,7.43,0,0,1,3.57,3.29,11.62,11.62,0,0,1,1.19,5.5A13,13,0,0,1,167,58.54a8.47,8.47,0,0,1-3.62,3.81,13,13,0,0,1-6.17,1.26,19.36,19.36,0,0,1-4.58-.53q-.15-6.57-.15-8.27"/><path class="cls-1" d="M177.82,66.16v-1.8c2.35,0,3.62-.08,3.81-.13a1.84,1.84,0,0,0,.79-.29,1.45,1.45,0,0,0,.43-.58,6.52,6.52,0,0,0,.37-2.23q.15-8.3.15-8.67v-3.7q0-2.49-.15-5.34a6.6,6.6,0,0,0-.26-2.18,1.17,1.17,0,0,0-.7-.51,21.94,21.94,0,0,0-4-.14v-1.8a32.52,32.52,0,0,0,9.07-2.24,2.26,2.26,0,0,1,.83-.31.38.38,0,0,1,.33.16.67.67,0,0,1,.13.46c0,.15,0,.31,0,.5q-.12,1.91-.13,5.89c.93-1.07,1.79-2.14,2.58-3.19A14.23,14.23,0,0,1,192.77,38a7.32,7.32,0,0,1,2.14-1.29,6.71,6.71,0,0,1,2.51-.48,6.42,6.42,0,0,1,2.58.56l.19.43q-.47,4.14-.53,7.28h-1.4a5.48,5.48,0,0,0-1.66-2.18,3.94,3.94,0,0,0-2.38-.69,5.15,5.15,0,0,0-4.07,2c-1.11,1.31-1.67,3.29-1.67,5.91v3.2c0,1.36.05,3.86.15,7.48a15.86,15.86,0,0,0,.15,2.45,1.69,1.69,0,0,0,.33.76,1.43,1.43,0,0,0,.66.39,31.53,31.53,0,0,0,5,.56v1.8c-3.63-.15-6.73-.23-9.28-.23s-5.21.08-7.68.23"/><path class="cls-1" d="M210.45,22.44a3.29,3.29,0,0,1,2.46,1,3.49,3.49,0,0,1,0,4.92,3.31,3.31,0,0,1-2.45,1,3.34,3.34,0,0,1-2.48-1,3.3,3.3,0,0,1-1-2.44,3.52,3.52,0,0,1,3.51-3.51m-7.56,18.22v-1.8a31.31,31.31,0,0,0,10-2.62l.68.49q-.15,6.62-.15,10.11v5.64c.1,5.38.16,8.28.18,8.72a6.56,6.56,0,0,0,.34,2.26,1.71,1.71,0,0,0,.4.48,1.88,1.88,0,0,0,.75.32c.12,0,1.27.06,3.43.1v1.8c-3.13-.15-5.64-.23-7.51-.23q-2.48,0-8.1.23v-1.8l3,0a2.35,2.35,0,0,0,1-.23,1.48,1.48,0,0,0,.54-.51,5.44,5.44,0,0,0,.44-2.2q0-.41.15-8.88V47.07a25.41,25.41,0,0,0-.31-5.48,1.29,1.29,0,0,0-.66-.7,18.33,18.33,0,0,0-4.13-.23"/><path class="cls-1" d="M220.48,40.63V39.26A47.31,47.31,0,0,0,225.21,37V27.07a24.67,24.67,0,0,0,5.26-2.51l.75.66q-.34,2.72-.75,12l3,0c.19,0,1.26,0,3.22-.08A16.94,16.94,0,0,0,239.1,37l.22.23-.65,3-3.62,0-4.58,0-.15,13.29a53.2,53.2,0,0,0,.06,5.8A4.43,4.43,0,0,0,231,61a3.42,3.42,0,0,0,1.14,1.13,6.68,6.68,0,0,0,2.38.65,14.45,14.45,0,0,0,2.08-.12,9.31,9.31,0,0,0,2-.57l.37,1.29c-1,.8-1.92,1.64-2.83,2.51a10.41,10.41,0,0,1-2.2.6,16.63,16.63,0,0,1-2.36.15,7.26,7.26,0,0,1-2.63-.39,6.08,6.08,0,0,1-1.78-1.1,5.9,5.9,0,0,1-1.37-1.78,9.21,9.21,0,0,1-.72-3.39c0-1.48.06-3.1.12-4.87,0-.35,0-.72,0-1.14V40.39H224a28.26,28.26,0,0,0-3.47.24"/><path class="cls-1" d="M258.84,58.15a15.62,15.62,0,0,1-3.77,3.59,7,7,0,0,1-3.82,1.19A4.21,4.21,0,0,1,248,61.64a5.11,5.11,0,0,1-1.18-3.59,7.87,7.87,0,0,1,.75-3.46A4.48,4.48,0,0,1,248.69,53a11.81,11.81,0,0,1,3.74-1.74,52.7,52.7,0,0,1,6.41-1.52ZM246.76,42l.52-1.11a4.47,4.47,0,0,1,1.56-.83,8.29,8.29,0,0,1,3-.49,7.27,7.27,0,0,1,4,1.05,5.87,5.87,0,0,1,2.34,2.69,12,12,0,0,1,.67,4.58,60.81,60.81,0,0,0-7.46,1.43,29.47,29.47,0,0,0-5.44,1.8A7.09,7.09,0,0,0,244,52.63a8.78,8.78,0,0,0-1.63,2.81,10.92,10.92,0,0,0-.67,3.91,7.31,7.31,0,0,0,1.94,5.33,7.22,7.22,0,0,0,5.44,2,5.76,5.76,0,0,0,2.77-.6q1.08-.6,7-5.38l-.14,5.46c1.9-.15,3.43-.23,4.57-.23s2.56.08,4.13.23v-1.8l-1.86-.19a3,3,0,0,1-1.2-.24,1.31,1.31,0,0,1-.54-.69,7.12,7.12,0,0,1-.23-2.14V51.87l.14-5.67a12.23,12.23,0,0,0-.75-4.74,8,8,0,0,0-3.35-3.81,10.66,10.66,0,0,0-5.53-1.34,11.75,11.75,0,0,0-4,.65,30.11,30.11,0,0,0-6,3.46q0,.77,0,2.07c0,.82,0,1.47,0,1.94l1.53.43c.25-.69.63-1.66,1.16-2.89"/><path class="cls-1" d="M270.46,66.16v-1.8l2.81,0a2,2,0,0,0,1-.24,1.34,1.34,0,0,0,.52-.51,5.86,5.86,0,0,0,.42-2.21c0-.26,0-3.24.14-8.91v-3.7c0-1.66-.05-3.44-.14-5.34a7.69,7.69,0,0,0-.28-2.18,1.13,1.13,0,0,0-.66-.51,19.4,19.4,0,0,0-3.77-.14v-1.8a29.58,29.58,0,0,0,8.61-2.24,2.15,2.15,0,0,1,.79-.31.35.35,0,0,1,.32.16.74.74,0,0,1,.12.46c0,.15,0,.32,0,.5,0,.75-.08,2.34-.12,4.75l5.52-4.94a12.82,12.82,0,0,1,4.59-.93,10.55,10.55,0,0,1,4.56,1,8.12,8.12,0,0,1,3.23,2.58,9.17,9.17,0,0,1,1.43,3.91q.21,1.39.21,7.79V57c0,2.69.05,4.52.15,5.5a2.58,2.58,0,0,0,.46,1.28,1.5,1.5,0,0,0,1,.45l3.2.1v1.8c-1.92-.15-3.52-.23-4.8-.23-1.1,0-2.92.08-5.47.23q.36-7.68.36-9.7V51.24a35.1,35.1,0,0,0-.36-6.4,5.63,5.63,0,0,0-2.28-3.35,7.2,7.2,0,0,0-4.3-1.28,7.69,7.69,0,0,0-4.06,1.11A6.77,6.77,0,0,0,281,43.87a10.72,10.72,0,0,0-.79,4.85v3.75q.13,8.07.14,8.72a7,7,0,0,0,.36,2.27,1.38,1.38,0,0,0,.36.48,1.9,1.9,0,0,0,.74.32c.12,0,1.22.06,3.29.1v1.8q-3.6-.22-6.51-.23-2.49,0-8.08.23"/><path class="cls-1" d="M306.12,66.16v-1.8l2.7,0a1.84,1.84,0,0,0,.92-.24,1.23,1.23,0,0,0,.5-.51,6,6,0,0,0,.4-2.21c0-.26.05-3.24.14-8.91v-3.7c0-1.66,0-3.44-.14-5.34a7.63,7.63,0,0,0-.26-2.18,1.1,1.1,0,0,0-.63-.51,18.06,18.06,0,0,0-3.63-.14v-1.8a27.58,27.58,0,0,0,8.28-2.24,2,2,0,0,1,.76-.31.36.36,0,0,1,.31.16.83.83,0,0,1,.1.46c0,.15,0,.32,0,.5,0,.75-.08,2.34-.12,4.75l5.3-4.94a12,12,0,0,1,4.42-.93,9.77,9.77,0,0,1,4.37,1,7.92,7.92,0,0,1,3.11,2.58A9.42,9.42,0,0,1,334,43.75q.19,1.39.2,7.79V57c0,2.69,0,4.52.13,5.5a2.59,2.59,0,0,0,.45,1.28,1.42,1.42,0,0,0,.93.45l3.08.1v1.8c-1.85-.15-3.39-.23-4.61-.23-1.06,0-2.81.08-5.26.23q.35-7.68.34-9.7V51.24a36.78,36.78,0,0,0-.34-6.4,5.62,5.62,0,0,0-2.19-3.35,6.74,6.74,0,0,0-4.13-1.28,7.2,7.2,0,0,0-3.91,1.11,6.81,6.81,0,0,0-2.52,2.55,11.27,11.27,0,0,0-.75,4.85v3.75q.13,8.07.13,8.72a7.35,7.35,0,0,0,.35,2.27,1.45,1.45,0,0,0,.34.48,1.86,1.86,0,0,0,.72.32c.12,0,1.17.06,3.16.1v1.8c-2.31-.15-4.39-.23-6.26-.23-1.59,0-4.17.08-7.76.23"/><path class="cls-1" d="M348.85,22.44a3.31,3.31,0,0,1,2.47,1,3.4,3.4,0,0,1,1,2.48,3.5,3.5,0,0,1-3.48,3.46,3.36,3.36,0,0,1-2.48-1,3.32,3.32,0,0,1-1-2.44,3.5,3.5,0,0,1,3.5-3.51m-7.56,18.22v-1.8a31.45,31.45,0,0,0,10-2.62l.67.49q-.15,6.62-.15,10.11v5.64c.1,5.38.17,8.28.19,8.72a6.32,6.32,0,0,0,.34,2.26,1.56,1.56,0,0,0,.4.48,1.83,1.83,0,0,0,.74.32c.13,0,1.27.06,3.43.1v1.8q-4.69-.22-7.51-.23c-1.65,0-4.34.08-8.1.23v-1.8l3,0a2.4,2.4,0,0,0,1-.23,1.48,1.48,0,0,0,.54-.51,5.81,5.81,0,0,0,.44-2.2q0-.41.15-8.88V47.07a25.41,25.41,0,0,0-.31-5.48,1.31,1.31,0,0,0-.67-.7,18.26,18.26,0,0,0-4.13-.23"/><path class="cls-1" d="M382.54,62.61l-1.17,2.09a17.11,17.11,0,0,1-4,1.68,17.4,17.4,0,0,1-4.47.53A12.68,12.68,0,0,1,363.13,63q-3.64-3.93-3.65-10.78a18.52,18.52,0,0,1,1-6.32,11.43,11.43,0,0,1,2.42-4.14,18.6,18.6,0,0,1,3.67-2.65,38.51,38.51,0,0,1,3.79-2.1,11.54,11.54,0,0,1,4.77-.9,17.73,17.73,0,0,1,4.74.58,9.59,9.59,0,0,1,2.69,1.22q-.35,2.4-.48,3.63T381.7,46H380a30.68,30.68,0,0,0-.35-3.73,1.74,1.74,0,0,0-.52-.83,10.23,10.23,0,0,0-6.3-2.12,8.14,8.14,0,0,0-4.24,1.07,7,7,0,0,0-2.78,3.39,14.73,14.73,0,0,0-1,5.76,19.93,19.93,0,0,0,1.39,7.62,10.47,10.47,0,0,0,3.81,5,9.71,9.71,0,0,0,5.39,1.56,10.9,10.9,0,0,0,2.9-.39,21.81,21.81,0,0,0,3.63-1.48Z"/><path class="cls-1" d="M403.18,58.15a15.42,15.42,0,0,1-3.69,3.59,6.79,6.79,0,0,1-3.74,1.19,4.09,4.09,0,0,1-3.21-1.29,5.15,5.15,0,0,1-1.16-3.59,8,8,0,0,1,.73-3.46A4.45,4.45,0,0,1,393.24,53a11.5,11.5,0,0,1,3.67-1.74,49.92,49.92,0,0,1,6.27-1.52ZM391.35,42l.5-1.11a4.52,4.52,0,0,1,1.54-.83,8,8,0,0,1,2.93-.49,7,7,0,0,1,3.92,1.05,5.79,5.79,0,0,1,2.28,2.69,11.86,11.86,0,0,1,.66,4.58,58.9,58.9,0,0,0-7.31,1.43,28.64,28.64,0,0,0-5.32,1.8,6.82,6.82,0,0,0-1.89,1.54,8.76,8.76,0,0,0-1.6,2.81,11.14,11.14,0,0,0-.66,3.91,7.46,7.46,0,0,0,1.9,5.33,7,7,0,0,0,5.33,2,5.52,5.52,0,0,0,2.71-.6c.72-.4,3-2.2,6.84-5.38L403,66.16c1.87-.15,3.37-.23,4.49-.23s2.5.08,4,.23v-1.8l-1.83-.19a2.82,2.82,0,0,1-1.17-.24,1.29,1.29,0,0,1-.53-.69,7.12,7.12,0,0,1-.23-2.14V51.87L408,46.2a12.67,12.67,0,0,0-.73-4.74,8.07,8.07,0,0,0-3.28-3.81,10.3,10.3,0,0,0-5.42-1.34,11.33,11.33,0,0,0-3.93.65,29.28,29.28,0,0,0-5.87,3.46q0,.77,0,2.07c0,.82,0,1.47,0,1.94l1.5.43c.24-.69.61-1.66,1.13-2.89"/><path class="cls-1" d="M411.41,34.37a2.37,2.37,0,1,1-2.35,2.36,2.34,2.34,0,0,1,2.35-2.36Zm0,.37a2,2,0,1,0,1.9,2,1.94,1.94,0,0,0-1.9-2ZM411,38.11h-.42V35.47a4.91,4.91,0,0,1,.74-.06,1.34,1.34,0,0,1,.82.2.62.62,0,0,1,.25.55.67.67,0,0,1-.52.64v0c.23,0,.39.25.44.64a2.41,2.41,0,0,0,.17.65H412a1.68,1.68,0,0,1-.18-.67.49.49,0,0,0-.57-.46H411Zm0-1.46h.3c.35,0,.64-.13.64-.45s-.17-.46-.64-.46l-.3,0Z"/><path class="cls-2" d="M134.56,69.24a19.22,19.22,0,0,1-8.41,4.85c-11,2-11.64-9-11.64-9C108,47.58,129.38,26.22,129.38,26.22c3.24-3.87,4.54-9.7,4.54-9.7C100.59,38.08,99.69,58.57,99.69,58.57c-.8,5.39-4,4.52-4,4.52C84,58.08,80.22,50.8,80.22,50.8c-3.87,8.42,6.48,28.47,6.48,28.47,5.17,14.87-2.59,13.58-2.59,13.58-11.64,0-11-8.41-11-8.41-2.26,8,2.46,18.43,3.63,20.83H94.6a48.61,48.61,0,0,0,1.94-10.69s6.45-29.19,9.23-34.07c0,0,3.17-10.54,4.14-9.62,0,0,.1-.37.43,2,0,0-6.32,21.72-4.78,28.17,0,0-.16,3.58,1.62,2.78,0,0,8.23-3.66,10.18-4.64,0,0,3.62-1.88,3.94-.91,0,0,.06,2-3.56,4.2,0,0-11,8.44-13,8.77a16.86,16.86,0,0,1-.74,4s-1.12,4.69-2.64,10h4.16c-.16-4.72,3.47-8.53,3.47-8.53,9-7.77,24.9-24.59,24.9-24.59,1.29-1.94.64-2.91.64-2.91M60,17.66s-6.47.48-21.83,15.52c0,0,17.62-1.62,21.83-15.52M47.73,13.94s-.17-2.27-1.47-1.29a2.51,2.51,0,0,1-2.1-.5s-.8-1.93-1.6-.48A31.6,31.6,0,0,1,36.08,28S44,24.93,47.73,13.94M25.89,30.75C37.21,24,38.83,7.15,38.83,7.15a26.79,26.79,0,0,0-12.94,23.6M65.34,83.46c-1.61-2.57-8.08-1-8.08-1-4.2-2.59,5.18-10,5.18-10C58.23,70.21,54,73.77,54,73.77c-1.29,1.3-1.93.64-1.93.64C48.53,68,53.71,61.48,53.71,61.48c-4.28,1.1-5.51,2.92-5.51,2.92a1.59,1.59,0,0,1-2.26.31c-6.14-4.2-.31-11-.31-11-8.75,2.6-7.13-3.55-7.13-3.55,2-11.32,13.59-14.23,13.59-14.23-7.44-1.29-19.73,7.77-19.73,7.77-1.93,1-1.93-1.3-1.93-1.3,0-2.92-.66-10.35-.66-10.35,0,1-6.46,8.41-6.46,8.41-.64,1-2.92.32-2.92.32.65-2.59,0-10.35,0-10.35,0-3.56-1.29-2.59-1.29-2.59-3.56,1.29-9,9.38-9,9.38-1.62,2.91-3.24,0-3.24,0A12.11,12.11,0,0,1,5.51,33a6.42,6.42,0,0,1-1-4.84c0-2.59-1.29-2-1.29-2a3.7,3.7,0,0,0-.91.54v17a8.87,8.87,0,0,1,2.44,1.42s.62.17-.85.81A8.64,8.64,0,0,1,3.56,49s-.27.68-1.06-.12l-.15-.24v6A2.52,2.52,0,0,1,3.82,55s3.57,1.88,5,3.68c0,0,1.27.54-2,1.5a18.26,18.26,0,0,1-1.55,6s-.73,1.38-2.17-.5a15.86,15.86,0,0,1-.72-1.57v9.21l.06-.21s.42-1.48,2.67-.35c0,0,4.09,2.07,5.69,4.08,0,0,1.45.58-2.22,1.74,0,0-.27,4.28-1.64,6.85,0,0-.8,1.59-2.47-.52a24,24,0,0,1-2.09-5.46V87.8a3.39,3.39,0,0,1,1.89,1.35S7.79,93.53,8.6,96.6c0,0,1.33,1.39-3.37.86a32.62,32.62,0,0,1-2.88,4.41v3.4H3.62a12.93,12.93,0,0,1,3.93-5.21s1.51-1.34,3.19,1.52c0,0,1,1.65,1.86,3.69h6.76a12.47,12.47,0,0,1,4-5.91s1.33-1.19,2.82,1.33a35.91,35.91,0,0,1,2.18,4.58H48.57c-2.37-4.79,9.66-10.8,9.66-10.8-10.67-6.47,7.11-11,7.11-11M44,69.16s.7-.85,1.8.43c0,0,2.37,2.17,2.89,3.64,0,0,.46,1.08-.58.94a12.23,12.23,0,0,0-1,3.8s-.83.88-1.5-.83c0,0-2.72-5.62-1.63-8M41.16,56.07c.67-2.35.68,2.78.68,2.78-.44,1.92-1.77.15-1.77.15a4.32,4.32,0,0,1,1.09-2.93m-3.77,5.31s.32-1.65,1.55-.2a10.59,10.59,0,0,1,2.29,2.54s.8,1.93-.39.81A10.31,10.31,0,0,0,40,67.81s-.72.75-1.3-.72c0,0-2-3.22-1.3-5.71m0,12.57a18.35,18.35,0,0,0-1.69,5.71s-1.3,1.27-2.22-1.35c0,0-2.64-8.63-.85-12.12,0,0,1.12-1.25,2.71.74,0,0,3.56,4,4.16,5.66,0,0,2.19,2.41-2.11,1.36M34.26,45.62c.67-2.34.7,2.79.7,2.79-.46,1.91-1.78.12-1.78.12a4.26,4.26,0,0,1,1.08-2.91m-2.73,8.83s.36-.72,1.41.1a6.53,6.53,0,0,1,2.44,2.11s1.25.83-.6,1.18c0,0-.67.32-1,1.68,0,0-.57.73-1.24-.52,0,0-2.09-3.21-1-4.55m0,8.59s1.52.53-2.18,1.79a25,25,0,0,1-1.22,5s-1,1.11-1.89-1c0,0-2.69-6.22-.54-10,0,0,.71-1.11,2.27.37,0,0,2.76,1.8,3.56,3.84M25.33,48.57a15.12,15.12,0,0,1,3.15,1.91s.45,0-1.07.62c0,0-.34,0-.84,1.2,0,0-.28.7-1.06-.13,0,0-2-1.7-1.88-3.74a2.6,2.6,0,0,1,1.7.14M26.7,74.25s1.24,1-2.72,1c0,0-1.53,4.12-3.66,6.23,0,0-1.26,1.31-2.27-1.25,0,0-1.74-8,1.55-12.2,0,0,.85-1.34,2.72.45,0,0,3.4,3.27,4.38,5.72M22.78,54.77s1.1.33-1.5,1.41a15,15,0,0,1-.76,5.1s-.49,1.21-1.83-.22c0,0-3.28-4.8-2.23-8.46,0,0,.2-1.11,1.92-.43a16,16,0,0,1,4.4,2.6M17.46,44.39a14.06,14.06,0,0,1,3.09,1.44s.39,0-.93.68c0,0-.31.08-.65,1.17,0,0-.19.67-1,0,0,0-2-1.35-2.09-3.23a2.35,2.35,0,0,1,1.57,0M7.9,47.63s.19-1,1.74-.38a14.49,14.49,0,0,1,4,2.36s1,.29-1.36,1.28a13.55,13.55,0,0,1-.69,4.6s-.44,1.08-1.66-.21c0,0-2.94-4.33-2-7.65m3.34,13.56s.53-1.33,2.5-.07c0,0,3.58,2.3,4.86,4.31,0,0,1.28.68-2.22,1.4A19.43,19.43,0,0,1,14.22,73s-.91,1.38-2.25-.73c0,0-2.91-6.77-.73-11.08M11.37,93S10,94.21,9.15,91.52c0,0-1.2-8.18,2.45-12.22,0,0,.93-1.28,2.71.66,0,0,3.2,3.53,4,6.08,0,0,1.18,1.11-2.81.86,0,0-1.85,4.07-4.15,6.07m10.06,4s-2.52,4-5.2,5.69c0,0-1.6,1.09-2.09-1.82,0,0,0-8.68,4.32-12.35,0,0,1.18-1.19,2.74,1.07,0,0,2.8,4.16,3.28,6.92,0,0,1.07,1.33-3.05.49m5.39-5.41s-1.44,1.31-2.32-1.5c0,0-1.25-8.59,2.56-12.81,0,0,1-1.35,2.85.67,0,0,3.36,3.71,4.21,6.4,0,0,1.25,1.14-2.93.9,0,0-2,4.26-4.37,6.34m10,5.32s-2.9,3.93-5.8,5.52c0,0-1.74,1-2-2,0,0,.59-9,5.36-12.48,0,0,1.32-1.17,2.77,1.3,0,0,2.6,4.48,2.89,7.41,0,0,1,1.45-3.19.29m6.55-4.61s-1.48,1.45-2.52-1.53c0,0-3-9.79-1-13.76,0,0,1.25-1.43,3.06.85,0,0,5.09,4.06,5.33,6.23,0,0,2.29,2.44-3,1.75a20.52,20.52,0,0,0-1.91,6.46m3.48,7.1c-2.06.77-1.42-1.55-1.42-1.55,1.86-2.77,3.79-2.17,3.79-2.17,1.52.55-2.37,3.72-2.37,3.72M48,68.1a4.35,4.35,0,0,1,1-2.95c.59-2.36.79,2.76.79,2.76-.39,1.93-1.78.19-1.78.19m7.7,6.82c1.56.08-1.47,4.31-1.47,4.31-1.65,1.47-1.89-.93-1.89-.93a6.7,6.7,0,0,1,3.36-3.38M53.25,88.56c-2,1-1.57-1.38-1.57-1.38,1.89-2.91,3.54-2.56,3.54-2.56,1.57.4-2,3.94-2,3.94M4.87,2.13s-1-.48-1.14.48a2.51,2.51,0,0,1-1.38.25V19.92C3.53,15.14,5.71,5.48,4.87,2.13m22.32,5.5c-2.44.16-1.79-2.26-1.79-2.26a1.15,1.15,0,0,0-.95-1.14c-4.38,2.26-5.67,19.24-5.67,19.24C20.39,20.07,29,9.24,29,9.24c1.3-3.39-1.77-1.61-1.77-1.61M15.37,2A25,25,0,0,0,9.23,28.82C15.06,22.19,15.37,2,15.37,2"/></svg>