<?xml version="1.0" encoding="utf-8"?>
<!-- Generator: Adobe Illustrator 24.0.1, SVG Export Plug-In . SVG Version: 6.00 Build 0)  -->
<svg version="1.1" id="Layer_1" xmlns="http://www.w3.org/2000/svg" xmlns:xlink="http://www.w3.org/1999/xlink" x="0px" y="0px"
	 viewBox="0 0 413.7 113.9" style="enable-background:new 0 0 413.7 113.9;" xml:space="preserve">
<style type="text/css">
	.st0{fill:#FFFFFF;}
	.st1{opacity:0.5;fill:#FFFFFF;enable-background:new    ;}
</style>
<path class="st0" d="M144.2,97.5v-27h5.3c3.8,0,6.6,0.3,8.3,1c2.4,0.9,4.5,2.6,5.8,4.8c1.4,2.4,2.2,5.2,2.1,8.1
	c0,2.5-0.5,4.9-1.7,7.1c-1,1.9-2.5,3.5-4.3,4.5c-2.3,1.1-4.9,1.6-7.4,1.5L144.2,97.5z M146.7,95h2.9c2.5,0.1,4.9-0.1,7.3-0.7
	c1.9-0.6,3.5-1.9,4.5-3.6c1.1-1.9,1.7-4.1,1.6-6.3c0.1-2.3-0.6-4.7-1.8-6.7c-1.2-1.8-2.9-3.2-5-3.8c-2.6-0.6-5.2-0.9-7.9-0.8h-1.8
	L146.7,95z"/>
<path class="st0" d="M171.7,69.4c0.5,0,1.1,0.2,1.4,0.6c0.4,0.4,0.6,0.9,0.6,1.5c0,0.6-0.2,1.1-0.6,1.5c-0.4,0.4-0.9,0.6-1.4,0.6
	c-0.5,0-1.1-0.2-1.4-0.6c-0.4-0.4-0.6-0.9-0.6-1.5c0-0.6,0.2-1.1,0.6-1.5C170.6,69.6,171.1,69.4,171.7,69.4 M170.5,77.6h2.5v19.9
	h-2.5V77.6z"/>
<path class="st0" d="M194.8,77.6h2.4v15.9c0.1,2.1-0.1,4.1-0.7,6.1c-0.6,1.7-1.7,3.2-3.2,4.2c-1.7,1-3.6,1.5-5.6,1.5
	c-1.5,0-2.9-0.2-4.3-0.7c-1.2-0.4-2.2-1.1-3.1-1.9c-0.9-1-1.7-2.3-2.2-3.6h2.6c0.6,1.2,1.6,2.2,2.7,2.9c1.3,0.7,2.7,1,4.1,1
	c1.4,0,2.9-0.3,4.1-1c1-0.6,1.9-1.4,2.4-2.4c0.6-1.5,0.8-3.1,0.7-4.8v-1c-2.8,3.9-8.1,5-12.2,2.4c-1.5-0.9-2.7-2.2-3.5-3.7
	c-1.6-3.2-1.6-7,0.1-10.2c0.8-1.6,2-2.9,3.5-3.8c1.4-0.9,3.1-1.4,4.8-1.4c1.3,0,2.7,0.3,3.9,0.9c1.4,0.7,2.5,1.8,3.5,3V77.6z
	 M187.8,79.6c-1.3,0-2.6,0.3-3.8,1c-1.2,0.7-2.1,1.7-2.7,2.9c-0.7,1.2-1,2.6-1,4c-0.1,2,0.6,4,2,5.4c2.9,2.9,7.6,2.9,10.6,0
	c1.4-1.5,2.1-3.5,2-5.6c0-1.4-0.3-2.8-0.9-4c-0.6-1.2-1.5-2.1-2.6-2.8C190.3,79.9,189,79.5,187.8,79.6"/>
<path class="st0" d="M203.5,69.4c0.5,0,1.1,0.2,1.4,0.6c0.4,0.4,0.6,0.9,0.6,1.5c0,0.6-0.2,1.1-0.6,1.5c-0.4,0.4-0.9,0.6-1.4,0.6
	c-0.6,0-1.1-0.2-1.5-0.6c-0.4-0.4-0.6-0.9-0.6-1.5c0-0.6,0.2-1.1,0.6-1.5C202.4,69.6,202.9,69.4,203.5,69.4 M202.2,77.6h2.5v20h-2.5
	V77.6z"/>
<polygon class="st0" points="213.4,70.2 215.9,70.2 215.9,77.6 219.8,77.6 219.8,79.8 215.9,79.8 215.9,97.5 213.4,97.5 213.4,79.8 
	210.1,79.8 210.1,77.6 213.4,77.6 "/>
<path class="st0" d="M241.4,77.6v19.9h-2.3v-3.4c-0.9,1.2-2,2.3-3.4,3c-1.3,0.7-2.7,1-4.1,1c-2.6,0-5-1.1-6.7-3.1
	c-1.9-2-2.8-4.7-2.8-7.5c-0.1-2.8,1-5.4,2.9-7.4c1.7-2,4.2-3.1,6.8-3.1c1.4,0,2.9,0.3,4.1,1c1.3,0.8,2.4,1.8,3.2,3.1v-3.6H241.4z
	 M231.9,79.6c-1.3,0-2.6,0.4-3.7,1.1c-1.1,0.7-2.1,1.8-2.7,3c-1.3,2.5-1.3,5.5,0,8c0.6,1.2,1.5,2.3,2.7,3c1.1,0.7,2.3,1.1,3.6,1.1
	c1.3,0,2.6-0.4,3.7-1.1c1.1-0.7,2.1-1.7,2.7-2.9c0.6-1.3,1-2.7,0.9-4.1c0.1-2.1-0.7-4.2-2.1-5.8C235.8,80.4,233.9,79.6,231.9,79.6"
	/>
<rect x="246.8" y="69.9" class="st0" width="2.5" height="27.6"/>
<polygon class="st0" points="266.4,70.6 269,70.6 269,94.9 278.9,94.9 278.9,97.5 266.4,97.5 "/>
<path class="st0" d="M297.7,90.9l2,1.1c-0.5,1.2-1.3,2.4-2.2,3.4c-0.8,0.9-1.8,1.5-2.9,2c-1.1,0.4-2.4,0.6-3.6,0.6
	c-2.7,0.1-5.3-1.1-7-3.2c-3.2-4.1-3.4-9.8-0.4-14c1.6-2.4,4.3-3.8,7.2-3.8c3-0.1,5.8,1.4,7.4,3.9c1.4,2,2.1,4.4,2,6.8h-16.3
	c0,2.1,0.7,4.1,2,5.7c1.2,1.4,3,2.2,4.8,2.2c0.9,0,1.8-0.2,2.7-0.5c0.8-0.3,1.6-0.8,2.2-1.4C296.5,92.8,297.2,91.9,297.7,90.9
	 M297.7,85.5c-0.2-1.2-0.7-2.3-1.4-3.3c-0.6-0.8-1.4-1.5-2.4-2c-1-0.5-2-0.8-3.1-0.8c-1.7,0-3.4,0.7-4.6,1.9
	c-1.1,1.2-1.8,2.6-2.1,4.1L297.7,85.5z"/>
<path class="st0" d="M324.1,77.6v19.9h-2.3v-3.4c-0.9,1.2-2,2.3-3.4,3c-1.3,0.7-2.7,1-4.1,1c-2.6,0-5-1.1-6.7-3.1
	c-1.9-2-2.9-4.7-2.8-7.5c-0.1-2.7,1-5.4,2.8-7.3c1.7-2,4.2-3.1,6.8-3.1c1.4,0,2.9,0.3,4.1,1c1.3,0.8,2.4,1.8,3.2,3.1v-3.7H324.1z
	 M314.6,79.6c-1.3,0-2.6,0.4-3.7,1.1c-1.2,0.7-2.1,1.8-2.7,3c-1.3,2.5-1.3,5.5,0,8c0.6,1.2,1.5,2.3,2.7,3c1.1,0.7,2.3,1.1,3.6,1.1
	c1.3,0,2.6-0.4,3.7-1.1c1.2-0.7,2.1-1.7,2.8-2.9c0.6-1.3,1-2.7,0.9-4.1c0.1-2.1-0.7-4.2-2.1-5.8C318.5,80.4,316.6,79.5,314.6,79.6"
	/>
<path class="st0" d="M328.9,77.6h2.5v2.9c0.6-1,1.4-1.9,2.4-2.6c0.8-0.5,1.7-0.8,2.6-0.8c0.8,0,1.5,0.3,2.2,0.7l-1.3,2.2
	c-0.4-0.2-0.8-0.3-1.3-0.3c-0.9,0-1.7,0.4-2.4,1.1c-0.9,0.9-1.5,2-1.8,3.3c-0.4,2.3-0.5,4.6-0.5,6.9v6.7h-2.5L328.9,77.6z"/>
<path class="st0" d="M341.5,77.6h2.5v3.6c0.9-1.2,2-2.3,3.3-3.1c1.2-0.7,2.5-1,3.9-1c1.4,0,2.7,0.4,3.8,1.1c1.1,0.8,2,1.8,2.5,3.1
	c0.6,1.9,0.9,4,0.8,6v10.2h-2.5V88c0.1-1.5,0-3.1-0.3-4.6c-0.2-1.2-0.8-2.2-1.6-3c-0.9-0.7-2-1.1-3.2-1c-1.5,0-2.9,0.5-4,1.5
	c-1.2,1-2,2.3-2.3,3.8c-0.3,1.8-0.4,3.6-0.4,5.4v7.3h-2.5L341.5,77.6z"/>
<path class="st0" d="M364.5,69.4c0.5,0,1.1,0.2,1.5,0.6c0.4,0.4,0.6,0.9,0.6,1.5c0,0.6-0.2,1.1-0.6,1.5c-0.4,0.4-0.9,0.6-1.4,0.6
	c-0.5,0-1.1-0.2-1.4-0.6c-0.4-0.4-0.6-0.9-0.6-1.5c0-0.6,0.2-1.1,0.6-1.5C363.5,69.6,364,69.4,364.5,69.4 M363.3,77.6h2.5v19.9h-2.5
	V77.6z"/>
<path class="st0" d="M371.1,77.6h2.5v3.6c0.9-1.2,2-2.3,3.3-3.1c1.2-0.7,2.5-1,3.9-1c1.4,0,2.7,0.4,3.8,1.1c1.1,0.7,2,1.8,2.5,3
	c0.6,1.9,0.9,4,0.8,6v10.2h-2.5V88c0.1-1.5,0-3.1-0.3-4.6c-0.2-1.2-0.8-2.2-1.6-3c-0.9-0.7-2-1.1-3.2-1c-1.5,0-2.9,0.5-4,1.5
	c-1.2,1-2,2.3-2.3,3.8c-0.3,1.8-0.4,3.6-0.4,5.4v7.3h-2.5L371.1,77.6z"/>
<path class="st0" d="M409.1,77.6h2.4v15.9c0.1,2.1-0.1,4.1-0.7,6.1c-0.6,1.7-1.7,3.2-3.2,4.2c-1.7,1-3.6,1.5-5.6,1.5
	c-1.5,0-2.9-0.2-4.3-0.7c-1.2-0.4-2.2-1.1-3.1-1.9c-0.9-1-1.7-2.3-2.2-3.6h2.6c0.6,1.2,1.6,2.2,2.7,2.9c1.3,0.7,2.7,1,4.1,1
	c1.4,0,2.9-0.3,4.1-1c1-0.6,1.9-1.4,2.4-2.4c0.6-1.5,0.8-3.1,0.7-4.8v-1c-0.9,1.2-2,2.2-3.3,2.8c-2.8,1.4-6.2,1.3-8.9-0.4
	c-1.5-0.9-2.7-2.2-3.5-3.7c-1.7-3.2-1.6-7,0-10.2c0.8-1.6,2-2.9,3.6-3.8c1.4-0.9,3.1-1.4,4.8-1.4c1.3,0,2.7,0.3,3.9,0.9
	c1.4,0.7,2.5,1.8,3.5,3L409.1,77.6z M402.1,79.6c-1.3,0-2.6,0.4-3.8,1.1c-1.2,0.7-2.1,1.7-2.7,2.9c-0.7,1.2-1,2.6-1,4
	c-0.1,2,0.6,4,2,5.4c2.9,2.9,7.6,2.9,10.6,0c1.4-1.5,2.1-3.5,2-5.6c0-1.4-0.3-2.8-0.9-4c-0.6-1.2-1.5-2.1-2.6-2.8
	C404.6,79.9,403.3,79.6,402.1,79.6"/>
<rect x="1.8" y="107.8" class="st1" width="409.8" height="4.4"/>
<path class="st0" d="M152.5,33c0-2.7,0.1-5.3,0.3-8c1.5-0.4,3.1-0.5,4.6-0.5c2.9,0,5.2,0.6,6.7,1.7c1.5,1.1,2.3,3,2.3,5.6
	c0,1.3-0.2,2.6-0.7,3.9c-0.4,1-1,1.9-1.8,2.6c-0.9,0.7-1.9,1.3-3,1.5c-1.8,0.5-3.7,0.7-5.5,0.6c-0.8,0-1.8,0-2.9-0.1L152.5,33z
	 M149.4,65.9l8.4,0.2c2.5,0.1,4.9-0.4,7.2-1.2c2.7-1.1,5-2.9,6.7-5.2c1.7-2.3,2.6-5.2,2.6-8.1c0-1.4-0.2-2.9-0.7-4.2
	c-0.5-1.2-1.2-2.3-2.1-3.2c-1-0.9-2.2-1.6-3.5-2c-1.8-0.5-3.6-0.9-5.5-1c1.4-0.4,2.8-0.9,4.1-1.5c1.1-0.6,2-1.3,2.9-2.2
	c0.9-0.9,1.5-2,2-3.1c0.5-1.2,0.8-2.5,0.8-3.9c0-1.6-0.4-3.2-1.2-4.6c-0.8-1.4-2.1-2.4-3.6-3c-2.1-0.7-4.3-1-6.5-0.9l-10.6,0.3
	l-6-0.2c-1,0-1.8,0-2.4-0.1v2c1.4-0.1,2.7,0.1,4,0.5c0.3,0.1,0.5,0.3,0.6,0.6c0.3,1,0.4,2.1,0.4,3.2c0.1,2.7,0.1,5.1,0.1,7.1v18.7
	c0,1,0,2.6-0.1,4.6c0,1.3-0.1,2.7-0.3,4c0,0.3-0.1,0.6-0.3,0.8c-0.6,0.5-1.3,0.9-2,1.2v1.4C146.8,66.1,148.5,66,149.4,65.9
	 M152.5,54.9V43.1c1.1-0.1,2.1-0.2,3.2-0.2c3.6,0,6.2,0.4,7.8,1.1c1.5,0.7,2.8,1.8,3.6,3.3c0.8,1.7,1.2,3.6,1.2,5.5
	c0,2-0.4,4-1.2,5.8c-0.8,1.6-2,3-3.6,3.8c-1.9,0.9-4,1.4-6.2,1.3c-1.5,0-3.1-0.2-4.6-0.5C152.5,58.7,152.5,55.9,152.5,54.9"/>
<path class="st0" d="M177.8,66.2v-1.8c2.4,0,3.6-0.1,3.8-0.1c0.3,0,0.6-0.1,0.8-0.3c0.2-0.2,0.3-0.4,0.4-0.6
	c0.3-0.7,0.4-1.5,0.4-2.2c0.1-5.5,0.1-8.4,0.1-8.7v-3.7c0-1.7,0-3.4-0.1-5.3c0-0.7-0.1-1.5-0.3-2.2c-0.2-0.3-0.4-0.4-0.7-0.5
	c-1.3-0.2-2.7-0.2-4-0.1v-1.8c3.1-0.3,6.2-1.1,9.1-2.2c0.3-0.2,0.5-0.3,0.8-0.3c0.1,0,0.3,0.1,0.3,0.2c0.1,0.1,0.1,0.3,0.1,0.5
	c0,0.2,0,0.3,0,0.5c-0.1,1.3-0.1,3.2-0.1,5.9c0.9-1.1,1.8-2.1,2.6-3.2c0.5-0.7,1.1-1.4,1.7-2.1c0.6-0.5,1.4-1,2.1-1.3
	c0.8-0.3,1.7-0.5,2.5-0.5c0.9,0,1.8,0.2,2.6,0.6l0.2,0.4c-0.3,2.8-0.5,5.2-0.5,7.3h-1.4c-0.4-0.9-0.9-1.6-1.7-2.2
	c-0.7-0.5-1.5-0.7-2.4-0.7c-1.6,0-3.1,0.7-4.1,2c-1.1,1.3-1.7,3.3-1.7,5.9v3.2c0,1.4,0.1,3.9,0.1,7.5c0,0.8,0,1.6,0.1,2.5
	c0,0.3,0.2,0.5,0.3,0.8c0.2,0.2,0.4,0.3,0.7,0.4c1.6,0.3,3.3,0.5,5,0.6v1.8c-3.6-0.2-6.7-0.2-9.3-0.2S180.3,66,177.8,66.2"/>
<path class="st0" d="M210.4,22.4c0.9,0,1.8,0.3,2.5,1c1.4,1.4,1.4,3.6,0,4.9c-0.6,0.7-1.5,1-2.4,1c-0.9,0-1.8-0.3-2.5-1
	c-0.7-0.6-1-1.5-1-2.4C207,24,208.6,22.4,210.4,22.4 M202.9,40.6v-1.8c3.5-0.3,6.8-1.2,10-2.6l0.7,0.5c-0.1,4.4-0.1,7.8-0.1,10.1
	v5.6c0.1,5.4,0.2,8.3,0.2,8.7c0,0.8,0.1,1.5,0.3,2.3c0.1,0.2,0.2,0.3,0.4,0.5c0.2,0.2,0.5,0.3,0.8,0.3c0.1,0,1.3,0.1,3.4,0.1v1.8
	c-3.1-0.2-5.6-0.2-7.5-0.2c-1.7,0-4.4,0.1-8.1,0.2v-1.8h3c0.3,0,0.7-0.1,1-0.2c0.2-0.1,0.4-0.3,0.5-0.5c0.3-0.7,0.4-1.4,0.4-2.2
	c0-0.3,0.1-3.2,0.1-8.9v-5.4c0.1-1.8,0-3.7-0.3-5.5c-0.1-0.3-0.4-0.6-0.7-0.7C205.7,40.7,204.4,40.6,202.9,40.6"/>
<path class="st0" d="M220.5,40.6v-1.4c1.6-0.7,3.2-1.4,4.7-2.3v-9.9c1.8-0.6,3.6-1.5,5.3-2.5l0.8,0.7c-0.2,1.8-0.5,5.8-0.8,12h3
	c0.2,0,1.3,0,3.2-0.1c0.8,0,1.6,0,2.4-0.1l0.2,0.2l-0.6,3h-3.6h-4.6l-0.1,13.3c-0.1,1.9-0.1,3.9,0.1,5.8c0.1,0.6,0.3,1.2,0.6,1.7
	c0.3,0.5,0.7,0.8,1.1,1.1c0.7,0.4,1.6,0.6,2.4,0.7c0.7,0,1.4,0,2.1-0.1c0.7-0.1,1.4-0.3,2-0.6l0.4,1.3c-1,0.8-1.9,1.6-2.8,2.5
	c-0.7,0.3-1.4,0.5-2.2,0.6c-0.8,0.1-1.6,0.2-2.4,0.2c-0.9,0-1.8-0.1-2.6-0.4c-0.7-0.3-1.3-0.6-1.8-1.1c-0.6-0.5-1-1.1-1.4-1.8
	c-0.5-1.1-0.7-2.2-0.7-3.4c0-1.5,0.1-3.1,0.1-4.9c0-0.3,0-0.7,0-1.1V40.4H224C222.8,40.4,221.7,40.5,220.5,40.6"/>
<path class="st0" d="M258.8,58.1c-1,1.4-2.3,2.6-3.8,3.6c-1.1,0.8-2.5,1.2-3.8,1.2c-1.2,0.1-2.4-0.4-3.2-1.3c-0.8-1-1.3-2.3-1.2-3.6
	c0-1.2,0.2-2.4,0.8-3.5c0.3-0.6,0.6-1.1,1.1-1.6c1.1-0.8,2.4-1.4,3.7-1.7c2.1-0.6,4.2-1.1,6.4-1.5V58.1z M246.8,42l0.5-1.1
	c0.5-0.4,1-0.7,1.6-0.8c1-0.3,2-0.5,3-0.5c1.4,0,2.8,0.3,4,1c1,0.6,1.9,1.6,2.3,2.7c0.5,1.5,0.7,3,0.7,4.6c-2.5,0.3-5,0.8-7.5,1.4
	c-1.9,0.4-3.7,1-5.4,1.8c-0.7,0.4-1.4,0.9-1.9,1.5c-0.7,0.8-1.3,1.8-1.6,2.8c-0.5,1.3-0.7,2.6-0.7,3.9c-0.1,2,0.6,3.9,1.9,5.3
	c1.5,1.4,3.4,2.1,5.4,2c1,0,1.9-0.2,2.8-0.6c0.7-0.4,3.1-2.2,7-5.4l-0.1,5.5c1.9-0.2,3.4-0.2,4.6-0.2s2.6,0.1,4.1,0.2v-1.8l-1.9-0.2
	c-0.4,0-0.8-0.1-1.2-0.2c-0.3-0.2-0.4-0.4-0.5-0.7c-0.2-0.7-0.3-1.4-0.2-2.1v-9.2l0.1-5.7c0.1-1.6-0.2-3.2-0.8-4.7
	c-0.7-1.6-1.8-2.9-3.4-3.8c-1.7-0.9-3.6-1.4-5.5-1.3c-1.4,0-2.7,0.2-4,0.7c-2.1,0.9-4.1,2.1-6,3.5c0,0.5,0,1.2,0,2.1
	c0,0.8,0,1.5,0,1.9l1.5,0.4C245.9,44.2,246.2,43.2,246.8,42"/>
<path class="st0" d="M270.5,66.2v-1.8h2.8c0.3,0,0.7-0.1,1-0.2c0.2-0.1,0.4-0.3,0.5-0.5c0.3-0.7,0.4-1.5,0.4-2.2
	c0-0.3,0-3.2,0.1-8.9v-3.7c0-1.7,0-3.4-0.1-5.3c0-0.7-0.1-1.5-0.3-2.2c-0.1-0.2-0.4-0.4-0.7-0.5c-1.2-0.2-2.5-0.2-3.8-0.1v-1.8
	c3-0.3,5.9-1.1,8.6-2.2c0.2-0.2,0.5-0.3,0.8-0.3c0.1,0,0.3,0.1,0.3,0.2c0.1,0.1,0.1,0.3,0.1,0.5c0,0.2,0,0.3,0,0.5
	c0,0.8-0.1,2.3-0.1,4.8l5.5-4.9c1.5-0.6,3-0.9,4.6-0.9c1.6,0,3.1,0.3,4.6,1c1.3,0.6,2.4,1.5,3.2,2.6c0.8,1.2,1.3,2.5,1.4,3.9
	c0.1,0.9,0.2,3.5,0.2,7.8V57c0,2.7,0,4.5,0.1,5.5c0,0.5,0.2,0.9,0.5,1.3c0.3,0.3,0.6,0.4,1,0.4l3.2,0.1v1.8
	c-1.9-0.2-3.5-0.2-4.8-0.2c-1.1,0-2.9,0.1-5.5,0.2c0.2-5.1,0.4-8.4,0.4-9.7v-5.2c0.1-2.1,0-4.3-0.4-6.4c-0.3-1.4-1.1-2.6-2.3-3.3
	c-1.3-0.9-2.8-1.3-4.3-1.3c-1.4,0-2.8,0.4-4.1,1.1c-1.1,0.6-2,1.5-2.7,2.5c-0.6,1.5-0.9,3.2-0.8,4.8v3.8c0.1,5.4,0.1,8.3,0.1,8.7
	c0,0.8,0.1,1.5,0.4,2.3c0.1,0.2,0.2,0.3,0.4,0.5c0.2,0.2,0.5,0.3,0.7,0.3c0.1,0,1.2,0.1,3.3,0.1v1.8c-2.4-0.1-4.6-0.2-6.5-0.2
	C276.9,65.9,274.2,66,270.5,66.2"/>
<path class="st0" d="M306.1,66.2v-1.8h2.7c0.3,0,0.6-0.1,0.9-0.2c0.2-0.1,0.4-0.3,0.5-0.5c0.3-0.7,0.4-1.5,0.4-2.2
	c0-0.3,0-3.2,0.1-8.9v-3.7c0-1.7,0-3.4-0.1-5.3c0-0.7-0.1-1.5-0.3-2.2c-0.1-0.2-0.4-0.4-0.6-0.5c-1.2-0.2-2.4-0.2-3.6-0.1v-1.8
	c2.9-0.3,5.7-1.1,8.3-2.2c0.2-0.2,0.5-0.3,0.8-0.3c0.1,0,0.2,0.1,0.3,0.2c0.1,0.1,0.1,0.3,0.1,0.5c0,0.2,0,0.3,0,0.5
	c0,0.8-0.1,2.3-0.1,4.8l5.3-4.9c1.4-0.6,2.9-0.9,4.4-0.9c1.5,0,3,0.3,4.4,1c1.2,0.6,2.3,1.5,3.1,2.6c0.7,1.2,1.2,2.5,1.4,3.9
	c0.1,0.9,0.2,3.5,0.2,7.8V57c0,2.7,0,4.5,0.1,5.5c0,0.5,0.2,0.9,0.5,1.3c0.2,0.3,0.6,0.4,0.9,0.4l3.1,0.1v1.8
	c-1.9-0.2-3.4-0.2-4.6-0.2c-1.1,0-2.8,0.1-5.3,0.2c0.2-5.1,0.3-8.4,0.3-9.7v-5.2c0.1-2.1,0-4.3-0.3-6.4c-0.3-1.3-1.1-2.5-2.2-3.3
	c-1.2-0.9-2.7-1.3-4.1-1.3c-1.4,0-2.7,0.4-3.9,1.1c-1.1,0.6-1.9,1.5-2.5,2.5c-0.6,1.5-0.9,3.2-0.8,4.8v3.8c0.1,5.4,0.1,8.3,0.1,8.7
	c0,0.8,0.1,1.5,0.4,2.3c0.1,0.2,0.2,0.3,0.3,0.5c0.2,0.2,0.5,0.3,0.7,0.3c0.1,0,1.2,0.1,3.2,0.1v1.8c-2.3-0.2-4.4-0.2-6.3-0.2
	C312.3,65.9,309.7,66,306.1,66.2"/>
<path class="st0" d="M348.9,22.4c0.9,0,1.8,0.3,2.5,1c0.7,0.7,1,1.6,1,2.5c0,1.9-1.6,3.4-3.5,3.5c-0.9,0-1.8-0.3-2.5-1
	c-0.7-0.6-1-1.5-1-2.4C345.4,24,346.9,22.4,348.9,22.4C348.9,22.4,348.9,22.4,348.9,22.4 M341.3,40.6v-1.8c3.5-0.3,6.8-1.2,10-2.6
	l0.7,0.5c-0.1,4.4-0.2,7.8-0.1,10.1v5.6c0.1,5.4,0.2,8.3,0.2,8.7c0,0.8,0.1,1.5,0.3,2.3c0.1,0.2,0.2,0.3,0.4,0.5
	c0.2,0.2,0.5,0.3,0.7,0.3c0.1,0,1.3,0.1,3.4,0.1v1.8c-3.1-0.1-5.6-0.2-7.5-0.2c-1.6,0-4.3,0.1-8.1,0.2v-1.8h3c0.3,0,0.7-0.1,1-0.2
	c0.2-0.1,0.4-0.3,0.5-0.5c0.3-0.7,0.4-1.4,0.4-2.2c0-0.3,0-3.2,0.1-8.9v-5.5c0.1-1.8,0-3.7-0.3-5.5c-0.1-0.3-0.4-0.6-0.7-0.7
	C344.1,40.7,342.7,40.6,341.3,40.6"/>
<path class="st0" d="M382.5,62.6l-1.2,2.1c-1.3,0.7-2.6,1.3-4,1.7c-1.5,0.4-3,0.5-4.5,0.5c-3.7,0.2-7.2-1.3-9.8-3.9
	c-2.4-2.6-3.6-6.2-3.6-10.8c0-2.1,0.3-4.3,1-6.3c0.5-1.5,1.3-2.9,2.4-4.1c1.1-1,2.3-1.9,3.7-2.7c1.2-0.8,2.5-1.5,3.8-2.1
	c1.5-0.6,3.1-0.9,4.8-0.9c1.6,0,3.2,0.2,4.7,0.6c1,0.3,1.9,0.7,2.7,1.2c-0.2,1.6-0.4,2.8-0.5,3.6c-0.1,0.8-0.2,2.3-0.4,4.5H380
	c0-1.2-0.2-2.5-0.4-3.7c-0.1-0.3-0.3-0.6-0.5-0.8c-1.8-1.4-4-2.1-6.3-2.1c-1.5,0-3,0.3-4.2,1.1c-1.3,0.8-2.2,2-2.8,3.4
	c-0.7,1.8-1.1,3.8-1,5.8c0,2.6,0.4,5.2,1.4,7.6c0.7,2,2.1,3.8,3.8,5c1.6,1,3.5,1.6,5.4,1.6c1,0,2-0.1,2.9-0.4
	c1.3-0.4,2.5-0.9,3.6-1.5L382.5,62.6z"/>
<path class="st0" d="M403.2,58.1c-1,1.4-2.3,2.6-3.7,3.6c-1.1,0.8-2.4,1.2-3.7,1.2c-1.2,0.1-2.4-0.4-3.2-1.3c-0.8-1-1.2-2.3-1.2-3.6
	c0-1.2,0.2-2.4,0.7-3.5c0.3-0.6,0.6-1.2,1.1-1.6c1.1-0.8,2.4-1.4,3.7-1.7c2.1-0.6,4.1-1.1,6.3-1.5V58.1z M391.4,42l0.5-1.1
	c0.5-0.4,1-0.7,1.5-0.8c0.9-0.3,1.9-0.5,2.9-0.5c1.4,0,2.7,0.3,3.9,1c1,0.6,1.8,1.6,2.3,2.7c0.5,1.5,0.7,3,0.7,4.6
	c-2.5,0.3-4.9,0.8-7.3,1.4c-1.8,0.4-3.6,1-5.3,1.8c-0.7,0.4-1.4,0.9-1.9,1.5c-0.7,0.8-1.2,1.8-1.6,2.8c-0.5,1.3-0.7,2.6-0.7,3.9
	c-0.1,2,0.6,3.9,1.9,5.3c1.4,1.4,3.4,2.1,5.3,2c0.9,0,1.9-0.2,2.7-0.6c0.7-0.4,3-2.2,6.8-5.4l-0.2,5.4c1.9-0.2,3.4-0.2,4.5-0.2
	s2.5,0.1,4,0.2v-1.8l-1.8-0.2c-0.4,0-0.8-0.1-1.2-0.2c-0.3-0.2-0.4-0.4-0.5-0.7c-0.2-0.7-0.3-1.4-0.2-2.1v-9.2l0.3-5.7
	c0.1-1.6-0.2-3.2-0.7-4.7c-0.7-1.6-1.8-2.9-3.3-3.8c-1.6-0.9-3.5-1.4-5.4-1.3c-1.3,0-2.7,0.2-3.9,0.7c-2.1,0.9-4.1,2.1-5.9,3.5
	c0,0.5,0,1.2,0,2.1c0,0.8,0,1.5,0,1.9l1.5,0.4C390.5,44.2,390.9,43.2,391.4,42"/>
<path class="st0" d="M411.4,34.4c1.3,0,2.4,1,2.4,2.3c0,1.3-1,2.4-2.3,2.4c-1.3,0-2.4-1-2.4-2.3c0,0,0,0,0,0
	C409,35.4,410.1,34.4,411.4,34.4C411.4,34.4,411.4,34.4,411.4,34.4z M411.4,34.7c-1.1-0.1-2,0.8-2.1,1.9s0.8,2,1.9,2.1
	c1.1,0.1,2-0.8,2.1-1.9c0,0,0-0.1,0-0.1C413.3,35.7,412.5,34.8,411.4,34.7C411.4,34.7,411.4,34.7,411.4,34.7z M411,38.1h-0.4v-2.6
	c0.2,0,0.5-0.1,0.7-0.1c0.3,0,0.6,0,0.8,0.2c0.2,0.1,0.3,0.3,0.2,0.5c0,0.3-0.2,0.6-0.5,0.6l0,0c0.2,0,0.4,0.2,0.4,0.6
	c0,0.2,0.1,0.4,0.2,0.7H412c-0.1-0.2-0.2-0.4-0.2-0.7c0-0.3-0.2-0.5-0.5-0.5c0,0,0,0-0.1,0H411V38.1z M411,36.6h0.3
	c0.4,0,0.6-0.1,0.6-0.5s-0.2-0.5-0.6-0.5H411V36.6z"/>
<path class="st1" d="M134.6,69.2c-2.3,2.3-5.2,4-8.4,4.8c-11,2-11.6-9-11.6-9c-6.5-17.5,14.9-38.9,14.9-38.9
	c3.2-3.9,4.5-9.7,4.5-9.7c-33.3,21.6-34.2,42-34.2,42c-0.8,5.4-4,4.5-4,4.5c-11.7-5-15.5-12.3-15.5-12.3c-3.9,8.4,6.5,28.5,6.5,28.5
	c5.2,14.9-2.6,13.6-2.6,13.6c-11.6,0-11-8.4-11-8.4c-2.3,8,2.5,18.4,3.6,20.8h17.9c1-3.5,1.7-7.1,1.9-10.7c0,0,6.4-29.2,9.2-34.1
	c0,0,3.2-10.5,4.1-9.6c0,0,0.1-0.4,0.4,2c0,0-6.3,21.7-4.8,28.2c0,0-0.2,3.6,1.6,2.8c0,0,8.2-3.7,10.2-4.6c0,0,3.6-1.9,3.9-0.9
	c0,0,0.1,2-3.6,4.2c0,0-11,8.4-13,8.8c-0.1,1.4-0.3,2.7-0.7,4c0,0-1.1,4.7-2.6,10h4.2c-0.2-4.7,3.5-8.5,3.5-8.5
	c9-7.8,24.9-24.6,24.9-24.6C135.2,70.2,134.5,69.2,134.6,69.2 M60,17.7c0,0-6.5,0.5-21.8,15.5C38.2,33.2,55.8,31.6,60,17.7
	 M47.7,13.9c0,0-0.2-2.3-1.5-1.3c-0.7,0.2-1.5,0-2.1-0.5c0,0-0.8-1.9-1.6-0.5C42,17.6,39.7,23.3,36.1,28C36.1,28,44,24.9,47.7,13.9
	 M25.9,30.7C37.2,24,38.8,7.1,38.8,7.1C30.6,12.1,25.7,21.1,25.9,30.7 M65.3,83.5c-1.6-2.6-8.1-1-8.1-1c-4.2-2.6,5.2-10,5.2-10
	c-4.2-2.2-8.4,1.3-8.4,1.3c-1.3,1.3-1.9,0.6-1.9,0.6c-3.5-6.4,1.6-12.9,1.6-12.9c-4.3,1.1-5.5,2.9-5.5,2.9c-0.5,0.7-1.5,0.9-2.2,0.3
	c0,0,0,0,0,0c-6.1-4.2-0.3-11-0.3-11c-8.8,2.6-7.1-3.5-7.1-3.5c2-11.3,13.6-14.2,13.6-14.2c-7.4-1.3-19.7,7.8-19.7,7.8
	c-1.9,1-1.9-1.3-1.9-1.3c0-2.9-0.7-10.3-0.7-10.3c0,1-6.5,8.4-6.5,8.4c-0.6,1-2.9,0.3-2.9,0.3c0.6-2.6,0-10.4,0-10.4
	c0-3.6-1.3-2.6-1.3-2.6c-3.6,1.3-9,9.4-9,9.4c-1.6,2.9-3.2,0-3.2,0c-0.7-1.3-1.2-2.7-1.3-4.2c-1-1.4-1.3-3.2-1-4.8
	c0-2.6-1.3-2-1.3-2c-0.3,0.1-0.6,0.3-0.9,0.5v17C3.2,44,4,44.5,4.8,45.1c0,0,0.6,0.2-0.8,0.8C4,47,3.9,48,3.6,49
	c0,0-0.3,0.7-1.1-0.1l-0.2-0.2v6c0.5,0,1,0.1,1.5,0.4c0,0,3.6,1.9,5,3.7c0,0,1.3,0.5-2,1.5c-0.2,2.1-0.7,4.1-1.6,6
	c0,0-0.7,1.4-2.2-0.5c-0.3-0.5-0.5-1-0.7-1.6v9.2l0.1-0.2c0,0,0.4-1.5,2.7-0.3c0,0,4.1,2.1,5.7,4.1c0,0,1.4,0.6-2.2,1.7
	c0,0-0.3,4.3-1.6,6.8c0,0-0.8,1.6-2.5-0.5c-0.9-1.7-1.6-3.6-2.1-5.5v8.3c0.8,0.2,1.4,0.7,1.9,1.3c0,0,3.5,4.4,4.3,7.4
	c0,0,1.3,1.4-3.4,0.9c-0.8,1.5-1.8,3-2.9,4.4v3.4h1.3c0.8-2,2.2-3.8,3.9-5.2c0,0,1.5-1.3,3.2,1.5c0,0,1,1.7,1.9,3.7h6.8
	c0.7-2.3,2.1-4.4,4-5.9c0,0,1.3-1.2,2.8,1.3c0.8,1.5,1.6,3,2.2,4.6h20.2c-2.4-4.8,9.7-10.8,9.7-10.8C47.6,88,65.3,83.5,65.3,83.5
	 M44,69.2c0,0,0.7-0.8,1.8,0.4c0,0,2.4,2.2,2.9,3.6c0,0,0.5,1.1-0.6,0.9c-0.5,1.2-0.9,2.5-1,3.8c0,0-0.8,0.9-1.5-0.8
	C45.6,77.1,42.9,71.5,44,69.2 M41.2,56.1c0.7-2.3,0.7,2.8,0.7,2.8c-0.4,1.9-1.8,0.2-1.8,0.2C40.1,57.9,40.4,56.9,41.2,56.1
	 M37.4,61.4c0,0,0.3-1.7,1.5-0.2c0.9,0.7,1.7,1.6,2.3,2.5c0,0,0.8,1.9-0.4,0.8c-0.5,1-0.7,2.1-0.8,3.3c0,0-0.7,0.8-1.3-0.7
	C38.7,67.1,36.7,63.9,37.4,61.4 M37.4,73.9c-0.9,1.8-1.4,3.7-1.7,5.7c0,0-1.3,1.3-2.2-1.3c0,0-2.6-8.6-0.8-12.1c0,0,1.1-1.2,2.7,0.7
	c0,0,3.6,4,4.2,5.7C39.5,72.6,41.7,75,37.4,73.9 M34.3,45.6c0.7-2.3,0.7,2.8,0.7,2.8c-0.5,1.9-1.8,0.1-1.8,0.1
	C33.2,47.5,33.5,46.4,34.3,45.6 M31.5,54.4c0,0,0.4-0.7,1.4,0.1c1,0.5,1.8,1.2,2.4,2.1c0,0,1.2,0.8-0.6,1.2c0,0-0.7,0.3-1,1.7
	c0,0-0.6,0.7-1.2-0.5C32.5,59,30.5,55.8,31.5,54.4 M31.5,63c0,0,1.5,0.5-2.2,1.8c-0.2,1.7-0.6,3.4-1.2,5c0,0-1,1.1-1.9-1
	c0,0-2.7-6.2-0.5-10c0,0,0.7-1.1,2.3,0.4C28,59.2,30.7,61,31.5,63 M25.3,48.6c1.1,0.5,2.2,1.1,3.1,1.9c0,0,0.5,0-1.1,0.6
	c0,0-0.3,0-0.8,1.2c0,0-0.3,0.7-1.1-0.1c0,0-2-1.7-1.9-3.7C24.2,48.3,24.8,48.3,25.3,48.6 M26.7,74.2c0,0,1.2,1-2.7,1
	c0,0-1.5,4.1-3.7,6.2c0,0-1.3,1.3-2.3-1.2c0,0-1.7-8,1.5-12.2c0,0,0.9-1.3,2.7,0.4C22.3,68.5,25.7,71.7,26.7,74.2 M22.8,54.8
	c0,0,1.1,0.3-1.5,1.4c0,1.7-0.2,3.5-0.8,5.1c0,0-0.5,1.2-1.8-0.2c0,0-3.3-4.8-2.2-8.5c0,0,0.2-1.1,1.9-0.4
	C20,52.8,21.5,53.7,22.8,54.8 M17.5,44.4c1.1,0.4,2.1,0.8,3.1,1.4c0,0,0.4,0-0.9,0.7c0,0-0.3,0.1-0.6,1.2c0,0-0.2,0.7-1,0
	c0,0-2-1.3-2.1-3.2C16.4,44.3,16.9,44.3,17.5,44.4 M7.9,47.6c0,0,0.2-1,1.7-0.4c1.5,0.6,2.8,1.4,4,2.4c0,0,1,0.3-1.4,1.3
	c0,1.6-0.2,3.1-0.7,4.6c0,0-0.4,1.1-1.7-0.2C9.9,55.3,7,50.9,7.9,47.6 M11.3,61.2c0,0,0.5-1.3,2.5-0.1c0,0,3.6,2.3,4.9,4.3
	c0,0,1.3,0.7-2.2,1.4C16,69,15.3,71.1,14.2,73c0,0-0.9,1.4-2.2-0.7C12,72.3,9.1,65.5,11.3,61.2 M11.4,93c0,0-1.4,1.2-2.2-1.5
	c0,0-1.2-8.2,2.4-12.2c0,0,0.9-1.3,2.7,0.7c0,0,3.2,3.5,4,6.1c0,0,1.2,1.1-2.8,0.9C15.5,86.9,13.6,91,11.4,93 M21.4,97
	c0,0-2.5,4-5.2,5.7c0,0-1.6,1.1-2.1-1.8c0,0,0-8.7,4.3-12.3c0,0,1.2-1.2,2.7,1.1c0,0,2.8,4.2,3.3,6.9C24.5,96.5,25.5,97.8,21.4,97
	 M26.8,91.6c0,0-1.4,1.3-2.3-1.5c0,0-1.2-8.6,2.6-12.8c0,0,1-1.3,2.9,0.7c0,0,3.4,3.7,4.2,6.4c0,0,1.2,1.1-2.9,0.9
	C31.2,85.2,29.2,89.5,26.8,91.6 M36.8,96.9c0,0-2.9,3.9-5.8,5.5c0,0-1.7,1-2-2c0,0,0.6-9,5.4-12.5c0,0,1.3-1.2,2.8,1.3
	c0,0,2.6,4.5,2.9,7.4C40,96.6,41,98.1,36.8,96.9 M43.4,92.3c0,0-1.5,1.4-2.5-1.5c0,0-3-9.8-1-13.8c0,0,1.2-1.4,3.1,0.8
	c0,0,5.1,4.1,5.3,6.2c0,0,2.3,2.4-3,1.8C44.3,87.9,43.6,90.1,43.4,92.3 M46.8,99.4c-2.1,0.8-1.4-1.6-1.4-1.6
	c1.9-2.8,3.8-2.2,3.8-2.2C50.7,96.2,46.8,99.4,46.8,99.4 M48,68.1c0-1.1,0.3-2.1,1-2.9c0.6-2.4,0.8,2.8,0.8,2.8
	C49.4,69.8,48,68.1,48,68.1 M55.7,74.9c1.6,0.1-1.5,4.3-1.5,4.3c-1.7,1.5-1.9-0.9-1.9-0.9C53,76.8,54.2,75.6,55.7,74.9 M53.2,88.6
	c-2,1-1.6-1.4-1.6-1.4c1.9-2.9,3.5-2.6,3.5-2.6C56.8,85,53.2,88.6,53.2,88.6 M4.9,2.1c0,0-1-0.5-1.1,0.5C3.3,2.8,2.8,2.9,2.3,2.9
	v17.1C3.5,15.1,5.7,5.5,4.9,2.1 M27.2,7.6c-2.4,0.2-1.8-2.3-1.8-2.3c0-0.6-0.4-1-1-1.1c-4.4,2.3-5.7,19.2-5.7,19.2
	C20.4,20.1,29,9.2,29,9.2C30.3,5.8,27.2,7.6,27.2,7.6 M15.4,2C8.1,8.9,5.7,19.5,9.2,28.8C15.1,22.2,15.4,2,15.4,2"/>
</svg>
