<?xml version="1.0" encoding="utf-8"?>
<!-- Generator: Adobe Illustrator 19.2.1, SVG Export Plug-In . SVG Version: 6.00 Build 0)  -->
<svg version="1.1" id="Layer_1" xmlns="http://www.w3.org/2000/svg" xmlns:xlink="http://www.w3.org/1999/xlink" x="0px" y="0px"
	 viewBox="0 0 122.5 22.6" style="enable-background:new 0 0 122.5 22.6;" xml:space="preserve">
<style type="text/css">
	.st0{fill:#C32227;}
	.st1{fill:#F07423;}
	.st2{fill:#F5AA1B;}
	.st3{fill:#FFFFFF;}
	.st4{clip-path:url(#SVGID_2_);}
	.st5{fill:#074469;}
	.st6{clip-path:url(#SVGID_4_);}
	.st7{clip-path:url(#SVGID_6_);}
</style>
<title>imagequest</title>
<rect y="0.6" class="st0" width="5.6" height="21.5"/>
<rect x="6.2" y="0.6" class="st1" width="5.6" height="21.5"/>
<rect x="12.5" y="0.6" class="st2" width="5.6" height="21.5"/>
<path class="st3" d="M1,21c0-0.2,0-0.5,0.1-0.7c0.1-0.2,0.1-0.4,0.2-0.6c0.1-0.2,0.2-0.4,0.4-0.6s0.4-0.4,0.6-0.6L2.7,18
	c0.1-0.1,0.2-0.2,0.3-0.3c0.1-0.1,0.1-0.2,0.2-0.3c0.1-0.1,0.1-0.2,0.1-0.4c0-0.1,0-0.3,0-0.4c0.1-0.3-0.1-0.6-0.4-0.7
	c-0.1,0-0.1,0-0.2,0c-0.2,0-0.5,0.1-0.5,0.3c0,0.1-0.1,0.2-0.1,0.4c0,0.1,0,0.3,0,0.4H1v-0.2c0-0.5,0.1-0.9,0.4-1.2
	c0.4-0.3,0.9-0.5,1.4-0.4c0.5,0,0.9,0.1,1.3,0.4c0.3,0.3,0.4,0.7,0.4,1.1c0,0.2,0,0.3,0,0.5s-0.1,0.3-0.2,0.5S4.1,18,4,18.1
	c-0.1,0.2-0.3,0.3-0.4,0.4l-0.7,0.6c-0.2,0.1-0.3,0.3-0.4,0.5c0,0.2-0.1,0.3-0.1,0.4h2.2v1H1z"/>
<path class="st3" d="M8.4,16.2l-0.1,1.3l0,0c0.1-0.1,0.3-0.3,0.4-0.3c0.2-0.1,0.4-0.1,0.6-0.1s0.5,0,0.7,0.2
	c0.2,0.1,0.3,0.2,0.4,0.4c0.1,0.2,0.2,0.4,0.2,0.6s0.1,0.5,0.1,0.7c0,0.3,0,0.6-0.1,0.9c0,0.2-0.1,0.5-0.3,0.7
	c-0.1,0.2-0.3,0.3-0.6,0.4c-0.2,0-0.5,0.1-0.8,0.1c-0.3,0-0.6,0-0.9-0.1c-0.2-0.1-0.4-0.2-0.5-0.4c-0.1-0.2-0.2-0.3-0.3-0.5
	c0-0.2-0.1-0.4-0.1-0.5v-0.2h1.1c0,0.1,0,0.2,0,0.3c0,0.1,0,0.2,0.1,0.3c0,0.1,0.1,0.2,0.2,0.2c0.1,0.1,0.2,0.1,0.3,0.1
	c0.2,0,0.4-0.1,0.5-0.3c0.1-0.3,0.2-0.6,0.2-0.9c0-0.2,0-0.4,0-0.6c0-0.1-0.1-0.3-0.1-0.4s-0.1-0.2-0.2-0.2S9,17.8,8.9,17.8
	s-0.3,0-0.4,0.1c-0.1,0.1-0.2,0.2-0.2,0.4h-1l0.2-3h3v0.9H8.4z"/>
<path class="st3" d="M13.5,17.1c0-0.3,0.1-0.7,0.2-1c0.1-0.3,0.3-0.5,0.6-0.7c0.3-0.2,0.6-0.3,1-0.3c0.3,0,0.6,0,0.9,0.1
	c0.2,0.1,0.4,0.3,0.6,0.5c0.2,0.3,0.3,0.6,0.3,0.9c0.1,0.4,0.1,0.9,0.1,1.4c0,0.4,0,0.8,0,1.2c0,0.3-0.1,0.7-0.2,1s-0.3,0.5-0.5,0.7
	c-0.3,0.2-0.6,0.3-1,0.2c-0.3,0-0.6,0-0.9-0.1c-0.2-0.1-0.4-0.3-0.6-0.5c-0.2-0.3-0.3-0.6-0.3-0.9c-0.1-0.4-0.1-0.9-0.1-1.3
	C13.4,17.9,13.4,17.5,13.5,17.1z M14.6,19.4c0,0.2,0,0.4,0.1,0.5c0,0.1,0.1,0.2,0.2,0.3c0.1,0.1,0.2,0.1,0.3,0.1s0.2,0,0.3-0.1
	c0.1-0.1,0.2-0.2,0.2-0.3c0.1-0.2,0.1-0.4,0.1-0.6c0-0.3,0-0.6,0-0.9v-0.6c0-0.4,0-0.7,0-0.9c0-0.2,0-0.4-0.1-0.5
	c0-0.1-0.1-0.2-0.1-0.3C15.5,16,15.4,16,15.3,16c-0.1,0-0.2,0-0.3,0.1s-0.2,0.2-0.2,0.3c-0.1,0.2-0.1,0.4-0.1,0.6s0,0.6,0,0.9v0.6
	C14.6,18.9,14.6,19.2,14.6,19.4z"/>
<g>
	<g>
		<defs>
			<rect id="SVGID_1_" x="12.5" y="0.6" width="5.6" height="21.5"/>
		</defs>
		<clipPath id="SVGID_2_">
			<use xlink:href="#SVGID_1_"  style="overflow:visible;"/>
		</clipPath>
		<g class="st4">
			<path class="st5" d="M7,4.3c0.2,0.1,0.3,0.2,0.5,0.3c0-0.1-0.1-0.3-0.2-0.4C7,4,6.8,3.8,6.6,3.5c0-0.1-0.4,0-0.2,0.2
				C6.4,3.7,6.9,4.2,7,4.3z"/>
			<path class="st5" d="M7.6,4.2C7.4,3.9,7.4,3.7,7.3,3.4c0,0,0-0.2-0.1-0.1c-0.1,0.1,0,0.1-0.1-0.1C7,3,6.9,3.2,6.9,3.2
				C7.1,3.6,7.3,3.9,7.6,4.2z"/>
			<path class="st5" d="M8,4.3c0-0.2-0.1-0.4-0.2-0.6C7.7,3.5,7.6,3.2,7.6,3C7.5,3,7.4,3.1,7.4,3.1l0,0C7.5,3.6,7.7,4,8,4.3z"/>
			<path class="st5" d="M8.3,4c0-0.3,0-0.6-0.1-0.9C8,2.8,8,2.8,8,3v0.1H7.7C8,3.3,8.2,3.6,8.3,4z"/>
			<path class="st5" d="M8.5,3.6c0.1,0.2,0.2,0.5,0.2,0.7c0.1-0.2,0.1-0.4,0.1-0.6c0,0-0.2-0.7-0.2-0.8c0-0.1-0.1-0.4-0.2-0.1
				C8.5,3,8.5,3.3,8.5,3.6z"/>
			<path class="st5" d="M9.1,3.9c0.1,0,0.1-0.1,0.1-0.2c0.1-0.2,0-0.6,0.1-0.7c0.1-0.1,0.2-0.5-0.2-0.2c0,0,0,0.1-0.1,0.1
				c0,0-0.3-0.2-0.3,0C9.1,3.1,9.2,3.5,9.1,3.9z"/>
			<path class="st5" d="M9.7,3.8c0.1-0.3,0.1-0.6,0.2-0.9c0,0,0.1-0.3-0.2-0.2c0,0-0.3,0.8-0.3,0.9c0,0.1,0,0.3,0,0.4
				C9.5,4.1,9.5,4.3,9.7,3.8z"/>
			<path class="st5" d="M9.9,3.8c0,0-0.1,0.5,0.1-0.1c0.1-0.2,0.2-0.3,0.4-0.5c0,0,0.4-0.3,0-0.2c0,0-0.1,0.1-0.1,0
				c0-0.1,0-0.4-0.2-0.2c0,0.1,0,0.2,0,0.3C10.1,3.3,9.9,3.7,9.9,3.8z"/>
			<path class="st5" d="M10.5,3.9c0,0,0.2-0.3,0.3-0.6c0,0,0.3-0.4-0.1-0.2c-0.3,0.4-0.4,0.7-0.6,1.2C10.1,4.3,10.1,4.6,10.5,3.9z"
				/>
			<path class="st5" d="M10.6,4.2c0,0-0.2,0.2,0.2-0.1c0,0,1-1.2,0.3-0.8c-0.1,0-0.1,0-0.2,0c-0.1,0,0,0-0.1,0.1
				C10.9,3.7,10.8,4,10.6,4.2z"/>
			<path class="st5" d="M10.7,4.5C10.5,4.7,11,4.4,11,4.4c0.3-0.2,0.6-0.4,0.9-0.6c0.1-0.2,0-0.3-0.2-0.3C11.4,3.9,11,4.2,10.7,4.5z
				"/>
			<path class="st5" d="M14.9,4.7c0.1-0.2,0.6-0.8,0.6-0.9s0-0.2,0-0.3c0,0-0.2-0.1-0.2,0.2c-0.1,0.2-0.3,0.4-0.5,0.6
				c-0.3,0.2-0.5,0.4-0.7,0.6c0,0-0.3,0.5-0.5,0.9c0,0-0.4,0.4-0.6-0.4c0,0,0-0.2,0-0.4c0-0.2-0.1-0.3-0.2,0c-0.1,0.2-0.1,0.4,0,0.7
				c0,0.2,0.1,0.4,0.2,0.5c0.1,0.2,0.2,0.5,0.2,0.8c0,0-0.2,0.5-0.4,0.1c-0.1-0.1-0.2-0.3-0.2-0.4c0,0,0-0.1-0.1-0.1s-0.1,0-0.1,0.3
				c0,0.3,0.1,0.5,0.2,0.8c0.1,0.3,0,0.7-0.2,1c-0.1,0.1-0.2,0.1-0.3,0.2c-0.1,0-0.2,0-0.3-0.1c0-0.1,0-0.2,0.1-0.3c0,0,0-0.2-0.1,0
				c-0.1,0.3-0.3,0.6-0.5,0.9c-0.1,0.1-0.3,0.2-0.5,0.1c-0.2-0.1-0.3-0.3-0.2-0.4l0,0c0,0,0.1-0.2-0.1,0c-0.1,0.2-0.2,0.5-0.3,0.7
				c0,0.1-0.1,0.2-0.1,0.3c-0.1,0.1-0.2,0.1-0.3,0.1c0,0-0.4-0.3,0.1-0.8c0,0,0.1-0.1-0.1-0.1c-0.1,0-0.2-0.1-0.3-0.2
				c0-0.1,0.1-0.3,0.2-0.3l0,0c0.1,0,0.2,0,0.2,0s0.1,0,0-0.1S9.6,8.5,9.9,8.4c0.2,0,0.3,0,0.5,0.1c0,0,0.3,0,0.1-0.1
				c0,0-0.4-0.1-0.1-0.3c0.1-0.1,0.3-0.1,0.4,0c0,0,0.4-0.1,0.1-0.1c-0.1,0-0.2-0.1-0.2-0.2V7.7c0.1-0.1,0.3-0.1,0.5-0.1
				c0,0,0.3,0,0-0.1c0,0-0.4-0.1-0.1-0.3C11.4,7.1,11.5,7,11.7,7c0,0,0.4,0,0-0.2c-0.1,0-0.2,0-0.3,0c0,0-0.5-0.3,0.2-0.4
				c0,0,0.2-0.2-0.2-0.1c-0.1,0.1-0.1,0.1-0.2,0.1c0,0-0.3,0-0.1-0.3c0.2,0,0.3-0.1,0.4-0.1c0,0,0.1-0.2-0.1-0.1
				c-0.1,0-0.2,0.1-0.3,0.1c0,0.1-0.1,0.1-0.2,0l0,0c0,0-0.2-0.2,0.2-0.3c0,0,0.1-0.2-0.1-0.1c0,0-0.3,0.2-0.4,0
				c0.1-0.3,0.3-0.5,0.5-0.6c0.1,0,0.3-0.1,0.4-0.2c0,0,0.1-0.2-0.2-0.1c0,0,0,0-0.1,0.1c-0.2,0-0.3,0-0.4,0.1
				c-0.2,0.1-0.3,0.2-0.5,0.3c0,0-0.1,0.1-0.1-0.1c0,0,0.1-0.3,0.1-0.4s0-0.2-0.1,0S9.9,5,9.9,5S9.8,5.1,9.8,4.8V4.5
				c0,0,0-0.2-0.1,0L9.3,4.9C9.2,4.7,9.1,4.5,9.1,4.3L8.9,5L8.5,4.5c-0.1-0.2-0.1,0-0.1,0v0.3C8.4,5.1,8.3,5,8.3,5L8,4.7
				c-0.1-0.2-0.1,0-0.1,0L8,5c0.1,0.2-0.1,0.1-0.1,0.1C7.7,5,7.6,4.9,7.4,4.8C7.3,4.7,7.1,4.7,7,4.7c-0.2,0-0.1-0.1-0.1-0.1
				C6.6,4.5,6.7,4.8,6.7,4.8C6.8,4.9,7,4.9,7.1,4.9C7.4,5,7.6,5.2,7.6,5.5c-0.1,0.2-0.4,0-0.4,0c-0.2-0.1,0,0.1,0,0.1
				c0.3,0.2,0.1,0.3,0.1,0.3C7.3,6,7.2,6,7.1,6c0,0,0,0-0.1-0.1c0,0-0.1-0.1-0.2-0.2C6.6,5.6,6.7,5.9,6.7,5.9c0.1,0,0.2,0.1,0.2,0.2
				c0.2,0.4-0.1,0.3-0.1,0.3c-0.1,0-0.2,0-0.2-0.1C6.3,6.2,6.5,6.4,6.5,6.4c0.7,0.2,0.2,0.4,0.2,0.4c-0.1,0-0.2,0-0.3,0
				C6.1,6.9,6.3,7,6.3,7c0.2,0,0.3,0,0.4,0.1C7,7.3,6.6,7.4,6.6,7.4c-0.3,0.1,0,0.1,0,0.1c0.2,0,0.3,0,0.4,0.1C7.2,7.9,6.9,8,6.9,8
				C6.6,8,7,8.1,7,8.1C7.1,8,7.3,8,7.4,8.1c0.4,0.2-0.1,0.3-0.1,0.3C7.1,8.5,7.4,8.5,7.4,8.5c0.2-0.1,0.3-0.1,0.5,0
				C8.2,8.6,8.1,8.7,8,8.8C7.9,8.9,8,8.9,8,8.9c0.1,0,0.2,0,0.2,0c0.2,0,0.3,0,0.3,0.2l0,0C8.4,9.2,8.3,9.3,8.2,9.3
				c-0.2-0.1,0,0.1,0,0.1c0.6,0.5,0.1,0.8,0.1,0.8c-0.1,0-0.2,0-0.3-0.1C8,10,7.9,9.9,7.9,9.8c0-0.3-0.1-0.5-0.2-0.7
				c-0.3-0.2-0.2,0-0.2,0c0.1,0.1,0.1,0.3,0,0.4c0,0,0,0-0.1,0c-0.2,0-0.4,0-0.5-0.1C6.7,9.1,6.6,8.8,6.5,8.5c-0.1-0.2-0.1,0-0.1,0
				c0.1,0.1,0.1,0.2,0.1,0.3c-0.2,0-0.3,0.1-0.4,0C6,8.8,6,8.7,5.9,8.6C5.7,8.3,5.7,8,5.8,7.6C5.9,7.4,6,7.1,6,6.8
				c0-0.2-0.1-0.3-0.1-0.3L5.8,6.7c0,0.2-0.1,0.3-0.2,0.4C5.3,7.5,5.2,7,5.2,7c0-0.3,0.1-0.5,0.2-0.8c0.1-0.1,0.2-0.3,0.3-0.5
				c0.1-0.2,0.1-0.4,0-0.7C5.6,4.7,5.4,5,5.4,5v0.4C5.2,6.1,4.8,5.7,4.8,5.7C4.6,5.3,4.3,4.8,4.3,4.8C4.1,4.5,3.9,4.3,3.6,4.1
				C3.4,3.9,3.2,3.7,3.1,3.5c0-0.3-0.2-0.2-0.2-0.2c0,0.1,0,0.2,0,0.3c0,0.1,0.5,0.7,0.5,0.9c0.1,0.2,0.5,1,0.5,1
				C4.1,5.8,4,6.2,3.7,6.3c0,0-0.1,0-0.1,0.1C3.3,6.4,3,6.1,3,5.8C2.9,5.6,2.9,5.9,2.9,5.9C2.9,6.3,4,7.1,4,7.1
				c0.8,0.7,0.1,1.2,0.1,1.2c-0.4,0.1-0.8,0.3-1,0.6C3,9.1,3.3,9,3.3,9c0-0.1,0.1-0.2,0.2-0.3c0.1-0.1,1.3-0.1,1.4,0.5
				c0,0.3-0.2,0.6-0.5,0.7c0,0,0,0-0.1,0C4,9.8,4,10,4,10c0.2,0.1,0.5,0.2,0.7,0.1C5.4,9.5,5.8,10,5.8,10c0.2,0.5-0.7,0.6-0.7,0.6
				c-0.3-0.1-0.2,0.1-0.2,0.1c0.4,0.3,0.7,0.2,1.4-0.2C7,10.1,7,10.8,7,10.8c-0.3,0.4-0.5,0.4-0.5,0.4H6.2c0,0.1,0.1,0.2,0.2,0.3
				c0.3,0,0.6-0.1,0.8-0.2c0.1-0.1,0.3-0.2,0.5-0.2C8,11,8.1,11.2,8.1,11.2s-0.2,0.2-0.3,0.3v0.1l0,0c0.2-0.1,0.4-0.1,0.5,0.1v0.1
				c0.1,0.4-0.6,0.4-0.6,0.4s-0.1,0.1,0,0.1l0,0c1-0.1,0.5,0.7,0.5,0.7c-0.1,0.1-0.3,0.1-0.4,0.1c-0.1,0.1,0,0.2,0,0.2
				c0.1,0,0.2,0,0.3,0c0.2,0.1,0.3,0.2,0.2,0.4c0,0,0,0,0,0.1C8.1,13.9,8,14,7.8,14c-0.1,0-0.1,0-0.1,0.1h2.2c0,0,0,0,0-0.1
				s-0.1-0.1-0.1-0.1c-0.1-0.1-0.2-0.1-0.3-0.3s0-0.3,0.1-0.4c0,0,0,0,0.1,0s0.2,0,0.2,0.1c0,0,0.1,0,0.1-0.2
				c-0.1,0-0.3-0.1-0.4-0.1c0,0-0.4-0.7,0.4-0.6c0,0,0.1-0.1,0-0.1l0,0c0,0-0.6-0.1-0.6-0.5c0.1-0.2,0.3-0.3,0.5-0.2
				c0,0,0.1,0,0.1,0.1c0,0,0.1,0,0.1-0.1l0,0c0-0.1-0.3-0.1-0.2-0.3s0.1-0.2,0.4-0.1c0.2,0,0.4,0.1,0.5,0.2c0.2,0.1,0.5,0.2,0.8,0.2
				c0.1,0,0.2-0.1,0.2-0.3h-0.3c0,0-0.2,0-0.4-0.4c0,0,0-0.7,0.7-0.3c0.7,0.4,1,0.5,1.4,0.3c0,0,0-0.2-0.2-0.1c0,0-0.9-0.1-0.6-0.6
				c0,0,0.4-0.5,1.1,0.2c0.2,0.1,0.5,0.1,0.7-0.1c0,0,0-0.2-0.3-0.1c-0.3,0-0.6-0.3-0.5-0.6c0,0,0,0,0-0.1C13.6,8.9,14.8,9,14.9,9
				c0.1,0.1,0.2,0.2,0.2,0.3c0,0,0.3,0.1,0.2-0.1c-0.2-0.3-0.5-0.6-0.9-0.7c0,0-0.7-0.5,0.1-1.2c0,0,1.2-0.7,1.2-1.1
				c0,0,0-0.3-0.2-0.1c0,0.3-0.3,0.5-0.6,0.5c-0.3-0.1-0.5-0.5-0.3-0.8c0,0,0-0.1,0.1-0.1C14.2,5.7,14.8,4.8,14.9,4.7z M8.2,10.7
				c-0.2-0.1-0.5-0.1-0.7,0c-0.2,0.2-0.3,0-0.2-0.2c0,0,0.2-0.1,0-0.2C7,10.1,6.5,10,6.2,10.1c0,0-0.2,0,0.1-0.2
				c0,0,0.2-0.1-0.1-0.2c-0.1,0-0.3-0.1-0.5-0.2c0,0-0.5,0.1-0.6,0.1c-0.1,0-0.2,0,0-0.2c0.2-0.1,0.3-0.1,0.4-0.2
				c0-0.1-0.1-0.1-0.2-0.2C5.1,8.7,4.8,8.5,4.4,8.5c0,0-0.1-0.1,0.2-0.2c0.1,0,0.1,0,0.2,0c0,0,0.1,0,0-0.2C4.6,7.8,4.5,7.4,4.3,7
				C4.2,6.9,4,6.7,3.8,6.6c0,0-0.1-0.2,0.2-0.1c0,0,0.5,0.3,0.3-0.2C4.2,6.2,4.2,5.9,4.2,5.7c0,0,0-0.5,0.2,0C4.6,6.2,4.8,8,5.3,8.4
				c0.4,0.7,1,1.1,1.8,1.3l1.1,0.7C8.2,10.4,8.7,10.7,8.2,10.7z M9.8,7.8c0,0,0.1-0.4,0.3-0.1c0,0,0.1,0.4-0.1,0.3
				C10,8,9.7,8.3,9.8,7.8z M8.1,6.8C8.3,7,8.2,7,8.1,6.9S7.8,7.5,7.9,6.8C7.9,6.8,7.9,6.5,8.1,6.8z M8.2,6.4c0,0,0-0.4,0.2-0.1
				c0.2,0.3,0.2,0.2,0.1,0.3S8.2,6.9,8.2,6.4z M8.7,6.7c0.2,0.3,0.1,0.2,0,0.2S8.6,7.4,8.5,6.8C8.5,6.8,8.5,6.4,8.7,6.7z M8.8,7.9
				c0,0,0.2,0.3-0.1,0.2c0,0-0.1-0.1-0.1,0c0,0.1-0.2,0.2-0.1-0.1C8.5,8,8.5,7.2,8.8,7.9z M8.8,7.3c0,0,0.1-0.5,0.3-0.1
				C9.3,7.6,9,7.5,9,7.5S8.9,7.9,8.8,7.3L8.8,7.3z M9.2,7.7c0,0,0.1-0.2,0.2,0s0.2,0.4,0,0.3C9.3,8,9.2,8,9.2,8.1l0,0
				C9.2,8.2,8.9,8.6,9.2,7.7z M9.5,7C9.3,7,9.3,7.5,9.2,6.8c0,0,0.1-0.3,0.3,0C9.5,6.8,9.7,7,9.5,7z M9.6,7.3c0,0,0-0.4,0.3-0.1
				c0,0,0.1,0.3-0.1,0.2C9.8,7.5,9.5,8,9.6,7.3z M10.3,8.2c0,0.1-0.4,0.2-0.3,0.1l0.1-0.1C10,8.2,10.3,8.1,10.3,8.2z M10.1,7.3
				c0,0,0.1-0.4,0.2-0.2c0.1,0.2,0.1,0.4,0,0.4C10.2,7.5,10.3,7.9,10.1,7.3z M10.7,7.9c-0.1,0-0.4,0.2-0.3-0.2c0,0,0.2-0.2,0.3-0.1
				S10.7,7.9,10.7,7.9L10.7,7.9z M10.5,7.1c0,0,0.2-0.5,0.2,0s0,0.2,0,0.2S10.5,7.4,10.5,7.1z M10.9,7.6c-0.3,0.1,0-0.2,0-0.2
				S11.2,7.4,10.9,7.6z M11,6.6c0,0,0.1,0,0.1-0.1c0,0.1-0.1,0.1-0.1,0.2V6.6z M11.2,7c-0.1,0-0.1,0.1-0.1,0.1L10.9,7
				C11.2,6.9,11.3,7,11.2,7z M10.9,6.2v0.1C10.9,6.3,10.9,6.2,10.9,6.2z M10.9,6.5c0.1,0.2,0,0.2-0.1,0.2s-0.1-0.1-0.1-0.2
				S10.8,6.2,10.9,6.5L10.9,6.5z M10.6,5.8C10.7,5.8,10.6,5.9,10.6,5.8L10.6,5.8L10.6,5.8z M10.6,6.2C10.5,6.4,10.4,6,10.4,6
				c0.1,0,0.2,0,0.2,0.1C10.6,6.1,10.6,6.2,10.6,6.2L10.6,6.2z M10.4,5.3c0.1,0.1,0.1,0.2,0,0.2C10.3,5.5,10.4,5.3,10.4,5.3
				L10.4,5.3z M10.4,5.9c-0.1,0.2-0.1-0.2-0.1-0.2S10.5,5.7,10.4,5.9z M10.4,6.3c0,0,0.1,0.2-0.1,0.2c-0.2,0-0.1,0.2-0.1-0.1
				C10.2,6.5,10.1,6.1,10.4,6.3L10.4,6.3z M10.1,5.3c0.1,0,0.2,0.2,0,0.2S10.1,5.4,10.1,5.3L10.1,5.3z M10,5.9c0-0.1,0.2,0,0.1,0.2
				C10,6.3,10,5.9,10,5.9L10,5.9z M10.1,6.7C10.2,7,10.2,7,10.1,7S9.9,7.4,9.9,6.8C9.9,6.8,10,6.5,10.1,6.7L10.1,6.7z M9.8,5.9
				C9.6,6.2,9.7,5.6,9.7,5.6S10.1,5.6,9.8,5.9L9.8,5.9z M9.8,5.3C9.7,5.5,9.6,5.2,9.6,5.2S9.9,5.1,9.8,5.3L9.8,5.3z M9.8,6.3
				C10,6.6,9.7,6.4,9.7,6.6c0,0.2-0.2,0-0.2-0.2S9.7,6.1,9.8,6.3L9.8,6.3z M9.4,5.3c0.1-0.1,0.3,0,0.1,0.2C9.3,5.7,9.4,5.4,9.4,5.3
				L9.4,5.3z M9.4,6c0-0.1,0.1,0,0.2,0.1c0.1,0.1,0,0.2-0.2,0.2S9.4,6,9.4,6z M9.3,5.2c0.1,0.1-0.1,0.1-0.1,0.1
				c-0.1,0-0.1-0.1-0.1-0.2C9.1,5.1,9.2,5.1,9.3,5.2z M9.2,5.7C9.4,5.9,9,5.9,9,5.7C9,5.7,9,5.5,9.2,5.7z M9.1,6.3
				c0.3,0.3,0.1,0.2,0,0.2C9,6.5,9,6.9,8.9,6.4C8.9,6.4,8.9,6,9.1,6.3z M8.8,6.1C8.7,6.1,8.6,6.5,8.5,6c0,0-0.1-0.2,0.1-0.1
				S8.9,6.2,8.8,6.1z M8.8,5.4c0,0.3-0.1,0.2-0.2,0.1C8.5,5.4,8.8,5.4,8.8,5.4z M8.5,5.2c0.1,0-0.2,0.1-0.2,0.1
				C8.2,5.2,8.4,5.2,8.5,5.2z M8.2,5.7c0.1,0,0.2,0,0.3,0.1S8.4,6,8.2,5.9S8.2,5.7,8.2,5.7z M8.1,6c0.2,0.2,0.1,0.2,0,0.2
				S8,6.4,8,6.2C7.9,6.2,7.8,5.8,8.1,6z M7.8,5.4c0,0,0.1-0.1,0.1,0s0,0.2-0.1,0.2C7.8,5.5,7.8,5.5,7.8,5.4L7.8,5.4z M7.6,5.8
				C7.7,5.7,7.8,5.9,7.7,6C7.6,6.1,7.6,5.8,7.6,5.8L7.6,5.8z M7.3,6.2c0,0,0.1-0.1,0.1,0c0,0.1,0,0.2-0.1,0.2
				C7.3,6.3,7.2,6.3,7.3,6.2L7.3,6.2z M6.8,7c0-0.2,0.1-0.1,0.1-0.1C7,7.2,6.9,7.1,6.8,7z M7,7.3c0-0.2,0.1-0.1,0.1-0.1
				C7.2,7.6,7,7.5,7,7.3z M7.1,6.7c0.1-0.1,0.3,0.1,0.1,0.2C7,7,7.1,6.7,7.1,6.7z M7.4,7.9c0,0-0.2,0-0.2-0.2s0.1,0,0.1,0
				C7.4,7.8,7.5,7.8,7.4,7.9z M7.5,7.2C7.4,7.3,7.3,7.4,7.3,7.1c0,0,0.1-0.3,0.2-0.1C7.6,7.2,7.6,7.1,7.5,7.2z M7.7,6.4
				c0.2,0.2,0.1,0.2,0,0.2c-0.1,0-0.1,0.3-0.2-0.1C7.5,6.5,7.5,6.3,7.7,6.4L7.7,6.4z M7.6,8.2C7.5,8.1,7.7,8.1,7.7,8.1s0-0.1,0.1,0
				C7.9,8.2,7.8,8.3,7.6,8.2z M7.8,7.5C7.7,7.5,7.7,8,7.6,7.4c0,0,0.1-0.4,0.2-0.1C7.9,7.6,7.9,7.5,7.8,7.5z M8.1,8
				c0,0-0.2,0.5-0.2-0.2c0,0,0-0.5,0.2,0C8.1,7.8,8.3,8.1,8.1,8z M8.2,7.3c0,0,0-0.3,0.2-0.1c0.2,0.2,0.2,0.2,0.1,0.2S8.3,8,8.2,7.3
				L8.2,7.3z M9.2,10.1c-0.1,0.1-0.2,0.4-0.1,0.6c0.1,0.1,0.1,0.2,0.1,0.3c-0.1,0.2-0.2,0.5-0.1,0.7c0.1,0.1,0.1,0.2,0.1,0.4
				C9,12.3,9,12.6,9.1,12.9c0,0.1,0,0.2-0.1,0.3c-0.1,0.2-0.1,0.4,0,0.6c-0.1,0-0.3,0-0.4,0L8.8,9H9c0.3,0,0.2,0.1,0.2,0.1
				C9.1,9.3,9.1,9.5,9.1,9.7C9.2,9.8,9.2,10,9.2,10.1L9.2,10.1z M9.2,8.8c-0.3,0.2-0.3,0-0.3,0C8.8,8.7,8.7,8.6,8.5,8.6
				c-0.5-0.2,0-0.2,0-0.2c0.1,0,0.1,0,0.2,0.1c0.1,0.1,0.4,0.2,0.5,0.1c0.1-0.2,0.2-0.2,0.3-0.3c0.4,0.1,0.1,0.3,0.1,0.3
				C9.4,8.6,9.3,8.6,9.2,8.8L9.2,8.8z M14.4,6.9c-0.3,0.1-0.5,0.3-0.7,0.5c-0.1,0.3-0.2,0.7-0.4,1c-0.1,0.2,0.3,0.1,0.3,0.1
				c0.6,0-0.2,0.3-0.2,0.3C13.2,8.9,13,9,12.9,9.2c-0.3,0.1-0.1,0.2-0.1,0.2c0.1,0,0.1,0.1,0.2,0.1c0,0.3-0.4,0.1-0.4,0.1
				c-0.2-0.1-0.4,0-0.5,0.1c-0.6,0.2-0.2,0.3-0.2,0.3c0.2,0.2-0.1,0.2-0.1,0.2c-0.3-0.1-0.6-0.1-0.9,0.1c-0.4,0.2,0,0.3,0,0.3
				c0.1,0.3-0.2,0.1-0.2,0.1c-0.2-0.1-0.4-0.1-0.5,0c-1.1,0.2,0.2-0.5,0.2-0.5C10.8,10,12,9.3,12,9.3c0.5-0.3,0.8-0.7,1.1-1.1
				c0.3-0.6,0.5-1.3,0.6-2c0.3-0.8,0.3,0,0.2,0.3c-0.1,0.3-0.1,0.3,0.2,0.2C14.5,6.6,14.5,6.8,14.4,6.9L14.4,6.9z"/>
		</g>
	</g>
</g>
<g>
	<g>
		<defs>
			<rect id="SVGID_3_" y="0.6" width="5.6" height="21.5"/>
		</defs>
		<clipPath id="SVGID_4_">
			<use xlink:href="#SVGID_3_"  style="overflow:visible;"/>
		</clipPath>
		<g class="st6">
			<path class="st5" d="M7,4.3c0.2,0.1,0.3,0.2,0.5,0.3c0-0.1-0.1-0.3-0.2-0.4C7,4,6.8,3.8,6.6,3.5c0-0.1-0.4,0-0.2,0.2
				C6.4,3.7,6.9,4.2,7,4.3z"/>
			<path class="st5" d="M7.6,4.2C7.4,3.9,7.4,3.7,7.3,3.4c0,0,0-0.2-0.1-0.1c-0.1,0.1,0,0.1-0.1-0.1C7,3,6.9,3.2,6.9,3.2
				C7.1,3.6,7.3,3.9,7.6,4.2z"/>
			<path class="st5" d="M8,4.3c0-0.2-0.1-0.4-0.2-0.6C7.7,3.5,7.6,3.2,7.6,3C7.5,3,7.4,3.1,7.4,3.1l0,0C7.5,3.6,7.7,4,8,4.3z"/>
			<path class="st5" d="M8.3,4c0-0.3,0-0.6-0.1-0.9C8,2.8,8,2.8,8,3v0.1H7.7C8,3.3,8.2,3.6,8.3,4z"/>
			<path class="st5" d="M8.5,3.6c0.1,0.2,0.2,0.5,0.2,0.7c0.1-0.2,0.1-0.4,0.1-0.6c0,0-0.2-0.7-0.2-0.8c0-0.1-0.1-0.4-0.2-0.1
				C8.5,3,8.5,3.3,8.5,3.6z"/>
			<path class="st5" d="M9.1,3.9c0.1,0,0.1-0.1,0.1-0.2c0.1-0.2,0-0.6,0.1-0.7c0.1-0.1,0.2-0.5-0.2-0.2c0,0,0,0.1-0.1,0.1
				c0,0-0.3-0.2-0.3,0C9.1,3.1,9.2,3.5,9.1,3.9z"/>
			<path class="st5" d="M9.7,3.8c0.1-0.3,0.1-0.6,0.2-0.9c0,0,0.1-0.3-0.2-0.2c0,0-0.3,0.8-0.3,0.9c0,0.1,0,0.3,0,0.4
				C9.5,4.1,9.5,4.3,9.7,3.8z"/>
			<path class="st5" d="M9.9,3.8c0,0-0.1,0.5,0.1-0.1c0.1-0.2,0.2-0.3,0.4-0.5c0,0,0.4-0.3,0-0.2c0,0-0.1,0.1-0.1,0
				c0-0.1,0-0.4-0.2-0.2c0,0.1,0,0.2,0,0.3C10.1,3.3,9.9,3.7,9.9,3.8z"/>
			<path class="st5" d="M10.5,3.9c0,0,0.2-0.3,0.3-0.6c0,0,0.3-0.4-0.1-0.2c-0.3,0.4-0.4,0.7-0.6,1.2C10.1,4.3,10.1,4.6,10.5,3.9z"
				/>
			<path class="st5" d="M10.6,4.2c0,0-0.2,0.2,0.2-0.1c0,0,1-1.2,0.3-0.8c-0.1,0-0.1,0-0.2,0c-0.1,0,0,0-0.1,0.1
				C10.9,3.7,10.8,4,10.6,4.2z"/>
			<path class="st5" d="M10.7,4.5C10.5,4.7,11,4.4,11,4.4c0.3-0.2,0.6-0.4,0.9-0.6c0.1-0.2,0-0.3-0.2-0.3C11.4,3.9,11,4.2,10.7,4.5z
				"/>
			<path class="st5" d="M14.9,4.7c0.1-0.2,0.6-0.8,0.6-0.9s0-0.2,0-0.3c0,0-0.2-0.1-0.2,0.2c-0.1,0.2-0.3,0.4-0.5,0.6
				c-0.3,0.2-0.5,0.4-0.7,0.6c0,0-0.3,0.5-0.5,0.9c0,0-0.4,0.4-0.6-0.4c0,0,0-0.2,0-0.4c0-0.2-0.1-0.3-0.2,0c-0.1,0.2-0.1,0.4,0,0.7
				c0,0.2,0.1,0.4,0.2,0.5c0.1,0.2,0.2,0.5,0.2,0.8c0,0-0.2,0.5-0.4,0.1c-0.1-0.1-0.2-0.3-0.2-0.4c0,0,0-0.1-0.1-0.1s-0.1,0-0.1,0.3
				c0,0.3,0.1,0.5,0.2,0.8c0.1,0.3,0,0.7-0.2,1c-0.1,0.1-0.2,0.1-0.3,0.2c-0.1,0-0.2,0-0.3-0.1c0-0.1,0-0.2,0.1-0.3c0,0,0-0.2-0.1,0
				c-0.1,0.3-0.3,0.6-0.5,0.9c-0.1,0.1-0.3,0.2-0.5,0.1c-0.2-0.1-0.3-0.3-0.2-0.4l0,0c0,0,0.1-0.2-0.1,0c-0.1,0.2-0.2,0.5-0.3,0.7
				c0,0.1-0.1,0.2-0.1,0.3c-0.1,0.1-0.2,0.1-0.3,0.1c0,0-0.4-0.3,0.1-0.8c0,0,0.1-0.1-0.1-0.1c-0.1,0-0.2-0.1-0.3-0.2
				c0-0.1,0.1-0.3,0.2-0.3l0,0c0.1,0,0.2,0,0.2,0s0.1,0,0-0.1S9.6,8.5,9.9,8.4c0.2,0,0.3,0,0.5,0.1c0,0,0.3,0,0.1-0.1
				c0,0-0.4-0.1-0.1-0.3c0.1-0.1,0.3-0.1,0.4,0c0,0,0.4-0.1,0.1-0.1c-0.1,0-0.2-0.1-0.2-0.2V7.7c0.1-0.1,0.3-0.1,0.5-0.1
				c0,0,0.3,0,0-0.1c0,0-0.4-0.1-0.1-0.3C11.4,7.1,11.5,7,11.7,7c0,0,0.4,0,0-0.2c-0.1,0-0.2,0-0.3,0c0,0-0.5-0.3,0.2-0.4
				c0,0,0.2-0.2-0.2-0.1c-0.1,0.1-0.1,0.1-0.2,0.1c0,0-0.3,0-0.1-0.3c0.2,0,0.3-0.1,0.4-0.1c0,0,0.1-0.2-0.1-0.1
				c-0.1,0-0.2,0.1-0.3,0.1c0,0.1-0.1,0.1-0.2,0l0,0c0,0-0.2-0.2,0.2-0.3c0,0,0.1-0.2-0.1-0.1c0,0-0.3,0.2-0.4,0
				c0.1-0.3,0.3-0.5,0.5-0.6c0.1,0,0.3-0.1,0.4-0.2c0,0,0.1-0.2-0.2-0.1c0,0,0,0-0.1,0.1c-0.2,0-0.3,0-0.4,0.1
				c-0.2,0.1-0.3,0.2-0.5,0.3c0,0-0.1,0.1-0.1-0.1c0,0,0.1-0.3,0.1-0.4s0-0.2-0.1,0S9.9,5,9.9,5S9.8,5.1,9.8,4.8V4.5
				c0,0,0-0.2-0.1,0L9.3,4.9C9.2,4.7,9.1,4.5,9.1,4.3L8.9,5L8.5,4.5c-0.1-0.2-0.1,0-0.1,0v0.3C8.4,5.1,8.3,5,8.3,5L8,4.7
				c-0.1-0.2-0.1,0-0.1,0L8,5c0.1,0.2-0.1,0.1-0.1,0.1C7.7,5,7.6,4.9,7.4,4.8C7.3,4.7,7.1,4.7,7,4.7c-0.2,0-0.1-0.1-0.1-0.1
				C6.6,4.5,6.7,4.8,6.7,4.8C6.8,4.9,7,4.9,7.1,4.9C7.4,5,7.6,5.2,7.6,5.5c-0.1,0.2-0.4,0-0.4,0c-0.2-0.1,0,0.1,0,0.1
				c0.3,0.2,0.1,0.3,0.1,0.3C7.3,6,7.2,6,7.1,6c0,0,0,0-0.1-0.1c0,0-0.1-0.1-0.2-0.2C6.6,5.6,6.7,5.9,6.7,5.9c0.1,0,0.2,0.1,0.2,0.2
				c0.2,0.4-0.1,0.3-0.1,0.3c-0.1,0-0.2,0-0.2-0.1C6.3,6.2,6.5,6.4,6.5,6.4c0.7,0.2,0.2,0.4,0.2,0.4c-0.1,0-0.2,0-0.3,0
				C6.1,6.9,6.3,7,6.3,7c0.2,0,0.3,0,0.4,0.1C7,7.3,6.6,7.4,6.6,7.4c-0.3,0.1,0,0.1,0,0.1c0.2,0,0.3,0,0.4,0.1C7.2,7.9,6.9,8,6.9,8
				C6.6,8,7,8.1,7,8.1C7.1,8,7.3,8,7.4,8.1c0.4,0.2-0.1,0.3-0.1,0.3C7.1,8.5,7.4,8.5,7.4,8.5c0.2-0.1,0.3-0.1,0.5,0
				C8.2,8.6,8.1,8.7,8,8.8C7.9,8.9,8,8.9,8,8.9c0.1,0,0.2,0,0.2,0c0.2,0,0.3,0,0.3,0.2l0,0C8.4,9.2,8.3,9.3,8.2,9.3
				c-0.2-0.1,0,0.1,0,0.1c0.6,0.5,0.1,0.8,0.1,0.8c-0.1,0-0.2,0-0.3-0.1C8,10,7.9,9.9,7.9,9.8c0-0.3-0.1-0.5-0.2-0.7
				c-0.3-0.2-0.2,0-0.2,0c0.1,0.1,0.1,0.3,0,0.4c0,0,0,0-0.1,0c-0.2,0-0.4,0-0.5-0.1C6.7,9.1,6.6,8.8,6.5,8.5c-0.1-0.2-0.1,0-0.1,0
				c0.1,0.1,0.1,0.2,0.1,0.3c-0.2,0-0.3,0.1-0.4,0C6,8.8,6,8.7,5.9,8.6C5.7,8.3,5.7,8,5.8,7.6C5.9,7.4,6,7.1,6,6.8
				c0-0.2-0.1-0.3-0.1-0.3L5.8,6.7c0,0.2-0.1,0.3-0.2,0.4C5.3,7.5,5.2,7,5.2,7c0-0.3,0.1-0.5,0.2-0.8c0.1-0.1,0.2-0.3,0.3-0.5
				c0.1-0.2,0.1-0.4,0-0.7C5.6,4.7,5.4,5,5.4,5v0.4C5.2,6.1,4.8,5.7,4.8,5.7C4.6,5.3,4.3,4.8,4.3,4.8C4.1,4.5,3.9,4.3,3.6,4.1
				C3.4,3.9,3.2,3.7,3.1,3.5c0-0.3-0.2-0.2-0.2-0.2c0,0.1,0,0.2,0,0.3c0,0.1,0.5,0.7,0.5,0.9c0.1,0.2,0.5,1,0.5,1
				C4.1,5.8,4,6.2,3.7,6.3c0,0-0.1,0-0.1,0.1C3.3,6.4,3,6.1,3,5.8C2.9,5.6,2.9,5.9,2.9,5.9C2.9,6.3,4,7.1,4,7.1
				c0.8,0.7,0.1,1.2,0.1,1.2c-0.4,0.1-0.8,0.3-1,0.6C3,9.1,3.3,9,3.3,9c0-0.1,0.1-0.2,0.2-0.3c0.1-0.1,1.3-0.1,1.4,0.5
				c0,0.3-0.2,0.6-0.5,0.7c0,0,0,0-0.1,0C4,9.8,4,10,4,10c0.2,0.1,0.5,0.2,0.7,0.1C5.4,9.5,5.8,10,5.8,10c0.2,0.5-0.7,0.6-0.7,0.6
				c-0.3-0.1-0.2,0.1-0.2,0.1c0.4,0.3,0.7,0.2,1.4-0.2C7,10.1,7,10.8,7,10.8c-0.3,0.4-0.5,0.4-0.5,0.4H6.2c0,0.1,0.1,0.2,0.2,0.3
				c0.3,0,0.6-0.1,0.8-0.2c0.1-0.1,0.3-0.2,0.5-0.2C8,11,8.1,11.2,8.1,11.2s-0.2,0.2-0.3,0.3v0.1l0,0c0.2-0.1,0.4-0.1,0.5,0.1v0.1
				c0.1,0.4-0.6,0.4-0.6,0.4s-0.1,0.1,0,0.1l0,0c1-0.1,0.5,0.7,0.5,0.7c-0.1,0.1-0.3,0.1-0.4,0.1c-0.1,0.1,0,0.2,0,0.2
				c0.1,0,0.2,0,0.3,0c0.2,0.1,0.3,0.2,0.2,0.4c0,0,0,0,0,0.1C8.1,13.9,8,14,7.8,14c-0.1,0-0.1,0-0.1,0.1h2.2c0,0,0,0,0-0.1
				s-0.1-0.1-0.1-0.1c-0.1-0.1-0.2-0.1-0.3-0.3s0-0.3,0.1-0.4c0,0,0,0,0.1,0s0.2,0,0.2,0.1c0,0,0.1,0,0.1-0.2
				c-0.1,0-0.3-0.1-0.4-0.1c0,0-0.4-0.7,0.4-0.6c0,0,0.1-0.1,0-0.1l0,0c0,0-0.6-0.1-0.6-0.5c0.1-0.2,0.3-0.3,0.5-0.2
				c0,0,0.1,0,0.1,0.1c0,0,0.1,0,0.1-0.1l0,0c0-0.1-0.3-0.1-0.2-0.3s0.1-0.2,0.4-0.1c0.2,0,0.4,0.1,0.5,0.2c0.2,0.1,0.5,0.2,0.8,0.2
				c0.1,0,0.2-0.1,0.2-0.3h-0.3c0,0-0.2,0-0.4-0.4c0,0,0-0.7,0.7-0.3c0.7,0.4,1,0.5,1.4,0.3c0,0,0-0.2-0.2-0.1c0,0-0.9-0.1-0.6-0.6
				c0,0,0.4-0.5,1.1,0.2c0.2,0.1,0.5,0.1,0.7-0.1c0,0,0-0.2-0.3-0.1c-0.3,0-0.6-0.3-0.5-0.6c0,0,0,0,0-0.1C13.6,8.9,14.8,9,14.9,9
				c0.1,0.1,0.2,0.2,0.2,0.3c0,0,0.3,0.1,0.2-0.1c-0.2-0.3-0.5-0.6-0.9-0.7c0,0-0.7-0.5,0.1-1.2c0,0,1.2-0.7,1.2-1.1
				c0,0,0-0.3-0.2-0.1c0,0.3-0.3,0.5-0.6,0.5c-0.3-0.1-0.5-0.5-0.3-0.8c0,0,0-0.1,0.1-0.1C14.2,5.7,14.8,4.8,14.9,4.7z M8.2,10.7
				c-0.2-0.1-0.5-0.1-0.7,0c-0.2,0.2-0.3,0-0.2-0.2c0,0,0.2-0.1,0-0.2C7,10.1,6.5,10,6.2,10.1c0,0-0.2,0,0.1-0.2
				c0,0,0.2-0.1-0.1-0.2c-0.1,0-0.3-0.1-0.5-0.2c0,0-0.5,0.1-0.6,0.1c-0.1,0-0.2,0,0-0.2c0.2-0.1,0.3-0.1,0.4-0.2
				c0-0.1-0.1-0.1-0.2-0.2C5.1,8.7,4.8,8.5,4.4,8.5c0,0-0.1-0.1,0.2-0.2c0.1,0,0.1,0,0.2,0c0,0,0.1,0,0-0.2C4.6,7.8,4.5,7.4,4.3,7
				C4.2,6.9,4,6.7,3.8,6.6c0,0-0.1-0.2,0.2-0.1c0,0,0.5,0.3,0.3-0.2C4.2,6.2,4.2,5.9,4.2,5.7c0,0,0-0.5,0.2,0C4.6,6.2,4.8,8,5.3,8.4
				c0.4,0.7,1,1.1,1.8,1.3l1.1,0.7C8.2,10.4,8.7,10.7,8.2,10.7z M9.8,7.8c0,0,0.1-0.4,0.3-0.1c0,0,0.1,0.4-0.1,0.3
				C10,8,9.7,8.3,9.8,7.8z M8.1,6.8C8.3,7,8.2,7,8.1,6.9S7.8,7.5,7.9,6.8C7.9,6.8,7.9,6.5,8.1,6.8z M8.2,6.4c0,0,0-0.4,0.2-0.1
				c0.2,0.3,0.2,0.2,0.1,0.3S8.2,6.9,8.2,6.4z M8.7,6.7c0.2,0.3,0.1,0.2,0,0.2S8.6,7.4,8.5,6.8C8.5,6.8,8.5,6.4,8.7,6.7z M8.8,7.9
				c0,0,0.2,0.3-0.1,0.2c0,0-0.1-0.1-0.1,0c0,0.1-0.2,0.2-0.1-0.1C8.5,8,8.5,7.2,8.8,7.9z M8.8,7.3c0,0,0.1-0.5,0.3-0.1
				C9.3,7.6,9,7.5,9,7.5S8.9,7.9,8.8,7.3L8.8,7.3z M9.2,7.7c0,0,0.1-0.2,0.2,0s0.2,0.4,0,0.3C9.3,8,9.2,8,9.2,8.1l0,0
				C9.2,8.2,8.9,8.6,9.2,7.7z M9.5,7C9.3,7,9.3,7.5,9.2,6.8c0,0,0.1-0.3,0.3,0C9.5,6.8,9.7,7,9.5,7z M9.6,7.3c0,0,0-0.4,0.3-0.1
				c0,0,0.1,0.3-0.1,0.2C9.8,7.5,9.5,8,9.6,7.3z M10.3,8.2c0,0.1-0.4,0.2-0.3,0.1l0.1-0.1C10,8.2,10.3,8.1,10.3,8.2z M10.1,7.3
				c0,0,0.1-0.4,0.2-0.2c0.1,0.2,0.1,0.4,0,0.4C10.2,7.5,10.3,7.9,10.1,7.3z M10.7,7.9c-0.1,0-0.4,0.2-0.3-0.2c0,0,0.2-0.2,0.3-0.1
				S10.7,7.9,10.7,7.9L10.7,7.9z M10.5,7.1c0,0,0.2-0.5,0.2,0s0,0.2,0,0.2S10.5,7.4,10.5,7.1z M10.9,7.6c-0.3,0.1,0-0.2,0-0.2
				S11.2,7.4,10.9,7.6z M11,6.6c0,0,0.1,0,0.1-0.1c0,0.1-0.1,0.1-0.1,0.2V6.6z M11.2,7c-0.1,0-0.1,0.1-0.1,0.1L10.9,7
				C11.2,6.9,11.3,7,11.2,7z M10.9,6.2v0.1C10.9,6.3,10.9,6.2,10.9,6.2z M10.9,6.5c0.1,0.2,0,0.2-0.1,0.2s-0.1-0.1-0.1-0.2
				S10.8,6.2,10.9,6.5L10.9,6.5z M10.6,5.8C10.7,5.8,10.6,5.9,10.6,5.8L10.6,5.8L10.6,5.8z M10.6,6.2C10.5,6.4,10.4,6,10.4,6
				c0.1,0,0.2,0,0.2,0.1C10.6,6.1,10.6,6.2,10.6,6.2L10.6,6.2z M10.4,5.3c0.1,0.1,0.1,0.2,0,0.2C10.3,5.5,10.4,5.3,10.4,5.3
				L10.4,5.3z M10.4,5.9c-0.1,0.2-0.1-0.2-0.1-0.2S10.5,5.7,10.4,5.9z M10.4,6.3c0,0,0.1,0.2-0.1,0.2c-0.2,0-0.1,0.2-0.1-0.1
				C10.2,6.5,10.1,6.1,10.4,6.3L10.4,6.3z M10.1,5.3c0.1,0,0.2,0.2,0,0.2S10.1,5.4,10.1,5.3L10.1,5.3z M10,5.9c0-0.1,0.2,0,0.1,0.2
				C10,6.3,10,5.9,10,5.9L10,5.9z M10.1,6.7C10.2,7,10.2,7,10.1,7S9.9,7.4,9.9,6.8C9.9,6.8,10,6.5,10.1,6.7L10.1,6.7z M9.8,5.9
				C9.6,6.2,9.7,5.6,9.7,5.6S10.1,5.6,9.8,5.9L9.8,5.9z M9.8,5.3C9.7,5.5,9.6,5.2,9.6,5.2S9.9,5.1,9.8,5.3L9.8,5.3z M9.8,6.3
				C10,6.6,9.7,6.4,9.7,6.6c0,0.2-0.2,0-0.2-0.2S9.7,6.1,9.8,6.3L9.8,6.3z M9.4,5.3c0.1-0.1,0.3,0,0.1,0.2C9.3,5.7,9.4,5.4,9.4,5.3
				L9.4,5.3z M9.4,6c0-0.1,0.1,0,0.2,0.1c0.1,0.1,0,0.2-0.2,0.2S9.4,6,9.4,6z M9.3,5.2c0.1,0.1-0.1,0.1-0.1,0.1
				c-0.1,0-0.1-0.1-0.1-0.2C9.1,5.1,9.2,5.1,9.3,5.2z M9.2,5.7C9.4,5.9,9,5.9,9,5.7C9,5.7,9,5.5,9.2,5.7z M9.1,6.3
				c0.3,0.3,0.1,0.2,0,0.2C9,6.5,9,6.9,8.9,6.4C8.9,6.4,8.9,6,9.1,6.3z M8.8,6.1C8.7,6.1,8.6,6.5,8.5,6c0,0-0.1-0.2,0.1-0.1
				S8.9,6.2,8.8,6.1z M8.8,5.4c0,0.3-0.1,0.2-0.2,0.1C8.5,5.4,8.8,5.4,8.8,5.4z M8.5,5.2c0.1,0-0.2,0.1-0.2,0.1
				C8.2,5.2,8.4,5.2,8.5,5.2z M8.2,5.7c0.1,0,0.2,0,0.3,0.1S8.4,6,8.2,5.9S8.2,5.7,8.2,5.7z M8.1,6c0.2,0.2,0.1,0.2,0,0.2
				S8,6.4,8,6.2C7.9,6.2,7.8,5.8,8.1,6z M7.8,5.4c0,0,0.1-0.1,0.1,0s0,0.2-0.1,0.2C7.8,5.5,7.8,5.5,7.8,5.4L7.8,5.4z M7.6,5.8
				C7.7,5.7,7.8,5.9,7.7,6C7.6,6.1,7.6,5.8,7.6,5.8L7.6,5.8z M7.3,6.2c0,0,0.1-0.1,0.1,0c0,0.1,0,0.2-0.1,0.2
				C7.3,6.3,7.2,6.3,7.3,6.2L7.3,6.2z M6.8,7c0-0.2,0.1-0.1,0.1-0.1C7,7.2,6.9,7.1,6.8,7z M7,7.3c0-0.2,0.1-0.1,0.1-0.1
				C7.2,7.6,7,7.5,7,7.3z M7.1,6.7c0.1-0.1,0.3,0.1,0.1,0.2C7,7,7.1,6.7,7.1,6.7z M7.4,7.9c0,0-0.2,0-0.2-0.2s0.1,0,0.1,0
				C7.4,7.8,7.5,7.8,7.4,7.9z M7.5,7.2C7.4,7.3,7.3,7.4,7.3,7.1c0,0,0.1-0.3,0.2-0.1C7.6,7.2,7.6,7.1,7.5,7.2z M7.7,6.4
				c0.2,0.2,0.1,0.2,0,0.2c-0.1,0-0.1,0.3-0.2-0.1C7.5,6.5,7.5,6.3,7.7,6.4L7.7,6.4z M7.6,8.2C7.5,8.1,7.7,8.1,7.7,8.1s0-0.1,0.1,0
				C7.9,8.2,7.8,8.3,7.6,8.2z M7.8,7.5C7.7,7.5,7.7,8,7.6,7.4c0,0,0.1-0.4,0.2-0.1C7.9,7.6,7.9,7.5,7.8,7.5z M8.1,8
				c0,0-0.2,0.5-0.2-0.2c0,0,0-0.5,0.2,0C8.1,7.8,8.3,8.1,8.1,8z M8.2,7.3c0,0,0-0.3,0.2-0.1c0.2,0.2,0.2,0.2,0.1,0.2S8.3,8,8.2,7.3
				L8.2,7.3z M9.2,10.1c-0.1,0.1-0.2,0.4-0.1,0.6c0.1,0.1,0.1,0.2,0.1,0.3c-0.1,0.2-0.2,0.5-0.1,0.7c0.1,0.1,0.1,0.2,0.1,0.4
				C9,12.3,9,12.6,9.1,12.9c0,0.1,0,0.2-0.1,0.3c-0.1,0.2-0.1,0.4,0,0.6c-0.1,0-0.3,0-0.4,0L8.8,9H9c0.3,0,0.2,0.1,0.2,0.1
				C9.1,9.3,9.1,9.5,9.1,9.7C9.2,9.8,9.2,10,9.2,10.1L9.2,10.1z M9.2,8.8c-0.3,0.2-0.3,0-0.3,0C8.8,8.7,8.7,8.6,8.5,8.6
				c-0.5-0.2,0-0.2,0-0.2c0.1,0,0.1,0,0.2,0.1c0.1,0.1,0.4,0.2,0.5,0.1c0.1-0.2,0.2-0.2,0.3-0.3c0.4,0.1,0.1,0.3,0.1,0.3
				C9.4,8.6,9.3,8.6,9.2,8.8L9.2,8.8z M14.4,6.9c-0.3,0.1-0.5,0.3-0.7,0.5c-0.1,0.3-0.2,0.7-0.4,1c-0.1,0.2,0.3,0.1,0.3,0.1
				c0.6,0-0.2,0.3-0.2,0.3C13.2,8.9,13,9,12.9,9.2c-0.3,0.1-0.1,0.2-0.1,0.2c0.1,0,0.1,0.1,0.2,0.1c0,0.3-0.4,0.1-0.4,0.1
				c-0.2-0.1-0.4,0-0.5,0.1c-0.6,0.2-0.2,0.3-0.2,0.3c0.2,0.2-0.1,0.2-0.1,0.2c-0.3-0.1-0.6-0.1-0.9,0.1c-0.4,0.2,0,0.3,0,0.3
				c0.1,0.3-0.2,0.1-0.2,0.1c-0.2-0.1-0.4-0.1-0.5,0c-1.1,0.2,0.2-0.5,0.2-0.5C10.8,10,12,9.3,12,9.3c0.5-0.3,0.8-0.7,1.1-1.1
				c0.3-0.6,0.5-1.3,0.6-2c0.3-0.8,0.3,0,0.2,0.3c-0.1,0.3-0.1,0.3,0.2,0.2C14.5,6.6,14.5,6.8,14.4,6.9L14.4,6.9z"/>
		</g>
	</g>
</g>
<g>
	<g>
		<defs>
			<rect id="SVGID_5_" x="6.2" y="0.6" width="5.6" height="21.5"/>
		</defs>
		<clipPath id="SVGID_6_">
			<use xlink:href="#SVGID_5_"  style="overflow:visible;"/>
		</clipPath>
		<g class="st7">
			<path class="st5" d="M7,4.3c0.2,0.1,0.3,0.2,0.5,0.3c0-0.1-0.1-0.3-0.2-0.4C7,4,6.8,3.8,6.6,3.5c0-0.1-0.4,0-0.2,0.2
				C6.4,3.7,6.9,4.2,7,4.3z"/>
			<path class="st5" d="M7.6,4.2C7.4,3.9,7.4,3.7,7.3,3.4c0,0,0-0.2-0.1-0.1c-0.1,0.1,0,0.1-0.1-0.1C7,3,6.9,3.2,6.9,3.2
				C7.1,3.6,7.3,3.9,7.6,4.2z"/>
			<path class="st5" d="M8,4.3c0-0.2-0.1-0.4-0.2-0.6C7.7,3.5,7.6,3.2,7.6,3C7.5,3,7.4,3.1,7.4,3.1l0,0C7.5,3.6,7.7,4,8,4.3z"/>
			<path class="st5" d="M8.3,4c0-0.3,0-0.6-0.1-0.9C8,2.8,8,2.8,8,3v0.1H7.7C8,3.3,8.2,3.6,8.3,4z"/>
			<path class="st5" d="M8.5,3.6c0.1,0.2,0.2,0.5,0.2,0.7c0.1-0.2,0.1-0.4,0.1-0.6c0,0-0.2-0.7-0.2-0.8c0-0.1-0.1-0.4-0.2-0.1
				C8.5,3,8.5,3.3,8.5,3.6z"/>
			<path class="st5" d="M9.1,3.9c0.1,0,0.1-0.1,0.1-0.2c0.1-0.2,0-0.6,0.1-0.7c0.1-0.1,0.2-0.5-0.2-0.2c0,0,0,0.1-0.1,0.1
				c0,0-0.3-0.2-0.3,0C9.1,3.1,9.2,3.5,9.1,3.9z"/>
			<path class="st5" d="M9.7,3.8c0.1-0.3,0.1-0.6,0.2-0.9c0,0,0.1-0.3-0.2-0.2c0,0-0.3,0.8-0.3,0.9c0,0.1,0,0.3,0,0.4
				C9.5,4.1,9.5,4.3,9.7,3.8z"/>
			<path class="st5" d="M9.9,3.8c0,0-0.1,0.5,0.1-0.1c0.1-0.2,0.2-0.3,0.4-0.5c0,0,0.4-0.3,0-0.2c0,0-0.1,0.1-0.1,0
				c0-0.1,0-0.4-0.2-0.2c0,0.1,0,0.2,0,0.3C10.1,3.3,9.9,3.7,9.9,3.8z"/>
			<path class="st5" d="M10.5,3.9c0,0,0.2-0.3,0.3-0.6c0,0,0.3-0.4-0.1-0.2c-0.3,0.4-0.4,0.7-0.6,1.2C10.1,4.3,10.1,4.6,10.5,3.9z"
				/>
			<path class="st5" d="M10.6,4.2c0,0-0.2,0.2,0.2-0.1c0,0,1-1.2,0.3-0.8c-0.1,0-0.1,0-0.2,0c-0.1,0,0,0-0.1,0.1
				C10.9,3.7,10.8,4,10.6,4.2z"/>
			<path class="st5" d="M10.7,4.5C10.5,4.7,11,4.4,11,4.4c0.3-0.2,0.6-0.4,0.9-0.6c0.1-0.2,0-0.3-0.2-0.3C11.4,3.9,11,4.2,10.7,4.5z
				"/>
			<path class="st5" d="M14.9,4.7c0.1-0.2,0.6-0.8,0.6-0.9s0-0.2,0-0.3c0,0-0.2-0.1-0.2,0.2c-0.1,0.2-0.3,0.4-0.5,0.6
				c-0.3,0.2-0.5,0.4-0.7,0.6c0,0-0.3,0.5-0.5,0.9c0,0-0.4,0.4-0.6-0.4c0,0,0-0.2,0-0.4c0-0.2-0.1-0.3-0.2,0c-0.1,0.2-0.1,0.4,0,0.7
				c0,0.2,0.1,0.4,0.2,0.5c0.1,0.2,0.2,0.5,0.2,0.8c0,0-0.2,0.5-0.4,0.1c-0.1-0.1-0.2-0.3-0.2-0.4c0,0,0-0.1-0.1-0.1s-0.1,0-0.1,0.3
				c0,0.3,0.1,0.5,0.2,0.8c0.1,0.3,0,0.7-0.2,1c-0.1,0.1-0.2,0.1-0.3,0.2c-0.1,0-0.2,0-0.3-0.1c0-0.1,0-0.2,0.1-0.3c0,0,0-0.2-0.1,0
				c-0.1,0.3-0.3,0.6-0.5,0.9c-0.1,0.1-0.3,0.2-0.5,0.1c-0.2-0.1-0.3-0.3-0.2-0.4l0,0c0,0,0.1-0.2-0.1,0c-0.1,0.2-0.2,0.5-0.3,0.7
				c0,0.1-0.1,0.2-0.1,0.3c-0.1,0.1-0.2,0.1-0.3,0.1c0,0-0.4-0.3,0.1-0.8c0,0,0.1-0.1-0.1-0.1c-0.1,0-0.2-0.1-0.3-0.2
				c0-0.1,0.1-0.3,0.2-0.3l0,0c0.1,0,0.2,0,0.2,0s0.1,0,0-0.1S9.6,8.5,9.9,8.4c0.2,0,0.3,0,0.5,0.1c0,0,0.3,0,0.1-0.1
				c0,0-0.4-0.1-0.1-0.3c0.1-0.1,0.3-0.1,0.4,0c0,0,0.4-0.1,0.1-0.1c-0.1,0-0.2-0.1-0.2-0.2V7.7c0.1-0.1,0.3-0.1,0.5-0.1
				c0,0,0.3,0,0-0.1c0,0-0.4-0.1-0.1-0.3C11.4,7.1,11.5,7,11.7,7c0,0,0.4,0,0-0.2c-0.1,0-0.2,0-0.3,0c0,0-0.5-0.3,0.2-0.4
				c0,0,0.2-0.2-0.2-0.1c-0.1,0.1-0.1,0.1-0.2,0.1c0,0-0.3,0-0.1-0.3c0.2,0,0.3-0.1,0.4-0.1c0,0,0.1-0.2-0.1-0.1
				c-0.1,0-0.2,0.1-0.3,0.1c0,0.1-0.1,0.1-0.2,0l0,0c0,0-0.2-0.2,0.2-0.3c0,0,0.1-0.2-0.1-0.1c0,0-0.3,0.2-0.4,0
				c0.1-0.3,0.3-0.5,0.5-0.6c0.1,0,0.3-0.1,0.4-0.2c0,0,0.1-0.2-0.2-0.1c0,0,0,0-0.1,0.1c-0.2,0-0.3,0-0.4,0.1
				c-0.2,0.1-0.3,0.2-0.5,0.3c0,0-0.1,0.1-0.1-0.1c0,0,0.1-0.3,0.1-0.4s0-0.2-0.1,0S9.9,5,9.9,5S9.8,5.1,9.8,4.8V4.5
				c0,0,0-0.2-0.1,0L9.3,4.9C9.2,4.7,9.1,4.5,9.1,4.3L8.9,5L8.5,4.5c-0.1-0.2-0.1,0-0.1,0v0.3C8.4,5.1,8.3,5,8.3,5L8,4.7
				c-0.1-0.2-0.1,0-0.1,0L8,5c0.1,0.2-0.1,0.1-0.1,0.1C7.7,5,7.6,4.9,7.4,4.8C7.3,4.7,7.1,4.7,7,4.7c-0.2,0-0.1-0.1-0.1-0.1
				C6.6,4.5,6.7,4.8,6.7,4.8C6.8,4.9,7,4.9,7.1,4.9C7.4,5,7.6,5.2,7.6,5.5c-0.1,0.2-0.4,0-0.4,0c-0.2-0.1,0,0.1,0,0.1
				c0.3,0.2,0.1,0.3,0.1,0.3C7.3,6,7.2,6,7.1,6c0,0,0,0-0.1-0.1c0,0-0.1-0.1-0.2-0.2C6.6,5.6,6.7,5.9,6.7,5.9c0.1,0,0.2,0.1,0.2,0.2
				c0.2,0.4-0.1,0.3-0.1,0.3c-0.1,0-0.2,0-0.2-0.1C6.3,6.2,6.5,6.4,6.5,6.4c0.7,0.2,0.2,0.4,0.2,0.4c-0.1,0-0.2,0-0.3,0
				C6.1,6.9,6.3,7,6.3,7c0.2,0,0.3,0,0.4,0.1C7,7.3,6.6,7.4,6.6,7.4c-0.3,0.1,0,0.1,0,0.1c0.2,0,0.3,0,0.4,0.1C7.2,7.9,6.9,8,6.9,8
				C6.6,8,7,8.1,7,8.1C7.1,8,7.3,8,7.4,8.1c0.4,0.2-0.1,0.3-0.1,0.3C7.1,8.5,7.4,8.5,7.4,8.5c0.2-0.1,0.3-0.1,0.5,0
				C8.2,8.6,8.1,8.7,8,8.8C7.9,8.9,8,8.9,8,8.9c0.1,0,0.2,0,0.2,0c0.2,0,0.3,0,0.3,0.2l0,0C8.4,9.2,8.3,9.3,8.2,9.3
				c-0.2-0.1,0,0.1,0,0.1c0.6,0.5,0.1,0.8,0.1,0.8c-0.1,0-0.2,0-0.3-0.1C8,10,7.9,9.9,7.9,9.8c0-0.3-0.1-0.5-0.2-0.7
				c-0.3-0.2-0.2,0-0.2,0c0.1,0.1,0.1,0.3,0,0.4c0,0,0,0-0.1,0c-0.2,0-0.4,0-0.5-0.1C6.7,9.1,6.6,8.8,6.5,8.5c-0.1-0.2-0.1,0-0.1,0
				c0.1,0.1,0.1,0.2,0.1,0.3c-0.2,0-0.3,0.1-0.4,0C6,8.8,6,8.7,5.9,8.6C5.7,8.3,5.7,8,5.8,7.6C5.9,7.4,6,7.1,6,6.8
				c0-0.2-0.1-0.3-0.1-0.3L5.8,6.7c0,0.2-0.1,0.3-0.2,0.4C5.3,7.5,5.2,7,5.2,7c0-0.3,0.1-0.5,0.2-0.8c0.1-0.1,0.2-0.3,0.3-0.5
				c0.1-0.2,0.1-0.4,0-0.7C5.6,4.7,5.4,5,5.4,5v0.4C5.2,6.1,4.8,5.7,4.8,5.7C4.6,5.3,4.3,4.8,4.3,4.8C4.1,4.5,3.9,4.3,3.6,4.1
				C3.4,3.9,3.2,3.7,3.1,3.5c0-0.3-0.2-0.2-0.2-0.2c0,0.1,0,0.2,0,0.3c0,0.1,0.5,0.7,0.5,0.9c0.1,0.2,0.5,1,0.5,1
				C4.1,5.8,4,6.2,3.7,6.3c0,0-0.1,0-0.1,0.1C3.3,6.4,3,6.1,3,5.8C2.9,5.6,2.9,5.9,2.9,5.9C2.9,6.3,4,7.1,4,7.1
				c0.8,0.7,0.1,1.2,0.1,1.2c-0.4,0.1-0.8,0.3-1,0.6C3,9.1,3.3,9,3.3,9c0-0.1,0.1-0.2,0.2-0.3c0.1-0.1,1.3-0.1,1.4,0.5
				c0,0.3-0.2,0.6-0.5,0.7c0,0,0,0-0.1,0C4,9.8,4,10,4,10c0.2,0.1,0.5,0.2,0.7,0.1C5.4,9.5,5.8,10,5.8,10c0.2,0.5-0.7,0.6-0.7,0.6
				c-0.3-0.1-0.2,0.1-0.2,0.1c0.4,0.3,0.7,0.2,1.4-0.2C7,10.1,7,10.8,7,10.8c-0.3,0.4-0.5,0.4-0.5,0.4H6.2c0,0.1,0.1,0.2,0.2,0.3
				c0.3,0,0.6-0.1,0.8-0.2c0.1-0.1,0.3-0.2,0.5-0.2C8,11,8.1,11.2,8.1,11.2s-0.2,0.2-0.3,0.3v0.1l0,0c0.2-0.1,0.4-0.1,0.5,0.1v0.1
				c0.1,0.4-0.6,0.4-0.6,0.4s-0.1,0.1,0,0.1l0,0c1-0.1,0.5,0.7,0.5,0.7c-0.1,0.1-0.3,0.1-0.4,0.1c-0.1,0.1,0,0.2,0,0.2
				c0.1,0,0.2,0,0.3,0c0.2,0.1,0.3,0.2,0.2,0.4c0,0,0,0,0,0.1C8.1,13.9,8,14,7.8,14c-0.1,0-0.1,0-0.1,0.1h2.2c0,0,0,0,0-0.1
				s-0.1-0.1-0.1-0.1c-0.1-0.1-0.2-0.1-0.3-0.3s0-0.3,0.1-0.4c0,0,0,0,0.1,0s0.2,0,0.2,0.1c0,0,0.1,0,0.1-0.2
				c-0.1,0-0.3-0.1-0.4-0.1c0,0-0.4-0.7,0.4-0.6c0,0,0.1-0.1,0-0.1l0,0c0,0-0.6-0.1-0.6-0.5c0.1-0.2,0.3-0.3,0.5-0.2
				c0,0,0.1,0,0.1,0.1c0,0,0.1,0,0.1-0.1l0,0c0-0.1-0.3-0.1-0.2-0.3s0.1-0.2,0.4-0.1c0.2,0,0.4,0.1,0.5,0.2c0.2,0.1,0.5,0.2,0.8,0.2
				c0.1,0,0.2-0.1,0.2-0.3h-0.3c0,0-0.2,0-0.4-0.4c0,0,0-0.7,0.7-0.3c0.7,0.4,1,0.5,1.4,0.3c0,0,0-0.2-0.2-0.1c0,0-0.9-0.1-0.6-0.6
				c0,0,0.4-0.5,1.1,0.2c0.2,0.1,0.5,0.1,0.7-0.1c0,0,0-0.2-0.3-0.1c-0.3,0-0.6-0.3-0.5-0.6c0,0,0,0,0-0.1C13.6,8.9,14.8,9,14.9,9
				c0.1,0.1,0.2,0.2,0.2,0.3c0,0,0.3,0.1,0.2-0.1c-0.2-0.3-0.5-0.6-0.9-0.7c0,0-0.7-0.5,0.1-1.2c0,0,1.2-0.7,1.2-1.1
				c0,0,0-0.3-0.2-0.1c0,0.3-0.3,0.5-0.6,0.5c-0.3-0.1-0.5-0.5-0.3-0.8c0,0,0-0.1,0.1-0.1C14.2,5.7,14.8,4.8,14.9,4.7z M8.2,10.7
				c-0.2-0.1-0.5-0.1-0.7,0c-0.2,0.2-0.3,0-0.2-0.2c0,0,0.2-0.1,0-0.2C7,10.1,6.5,10,6.2,10.1c0,0-0.2,0,0.1-0.2
				c0,0,0.2-0.1-0.1-0.2c-0.1,0-0.3-0.1-0.5-0.2c0,0-0.5,0.1-0.6,0.1c-0.1,0-0.2,0,0-0.2c0.2-0.1,0.3-0.1,0.4-0.2
				c0-0.1-0.1-0.1-0.2-0.2C5.1,8.7,4.8,8.5,4.4,8.5c0,0-0.1-0.1,0.2-0.2c0.1,0,0.1,0,0.2,0c0,0,0.1,0,0-0.2C4.6,7.8,4.5,7.4,4.3,7
				C4.2,6.9,4,6.7,3.8,6.6c0,0-0.1-0.2,0.2-0.1c0,0,0.5,0.3,0.3-0.2C4.2,6.2,4.2,5.9,4.2,5.7c0,0,0-0.5,0.2,0C4.6,6.2,4.8,8,5.3,8.4
				c0.4,0.7,1,1.1,1.8,1.3l1.1,0.7C8.2,10.4,8.7,10.7,8.2,10.7z M9.8,7.8c0,0,0.1-0.4,0.3-0.1c0,0,0.1,0.4-0.1,0.3
				C10,8,9.7,8.3,9.8,7.8z M8.1,6.8C8.3,7,8.2,7,8.1,6.9S7.8,7.5,7.9,6.8C7.9,6.8,7.9,6.5,8.1,6.8z M8.2,6.4c0,0,0-0.4,0.2-0.1
				c0.2,0.3,0.2,0.2,0.1,0.3S8.2,6.9,8.2,6.4z M8.7,6.7c0.2,0.3,0.1,0.2,0,0.2S8.6,7.4,8.5,6.8C8.5,6.8,8.5,6.4,8.7,6.7z M8.8,7.9
				c0,0,0.2,0.3-0.1,0.2c0,0-0.1-0.1-0.1,0c0,0.1-0.2,0.2-0.1-0.1C8.5,8,8.5,7.2,8.8,7.9z M8.8,7.3c0,0,0.1-0.5,0.3-0.1
				C9.3,7.6,9,7.5,9,7.5S8.9,7.9,8.8,7.3L8.8,7.3z M9.2,7.7c0,0,0.1-0.2,0.2,0s0.2,0.4,0,0.3C9.3,8,9.2,8,9.2,8.1l0,0
				C9.2,8.2,8.9,8.6,9.2,7.7z M9.5,7C9.3,7,9.3,7.5,9.2,6.8c0,0,0.1-0.3,0.3,0C9.5,6.8,9.7,7,9.5,7z M9.6,7.3c0,0,0-0.4,0.3-0.1
				c0,0,0.1,0.3-0.1,0.2C9.8,7.5,9.5,8,9.6,7.3z M10.3,8.2c0,0.1-0.4,0.2-0.3,0.1l0.1-0.1C10,8.2,10.3,8.1,10.3,8.2z M10.1,7.3
				c0,0,0.1-0.4,0.2-0.2c0.1,0.2,0.1,0.4,0,0.4C10.2,7.5,10.3,7.9,10.1,7.3z M10.7,7.9c-0.1,0-0.4,0.2-0.3-0.2c0,0,0.2-0.2,0.3-0.1
				S10.7,7.9,10.7,7.9L10.7,7.9z M10.5,7.1c0,0,0.2-0.5,0.2,0s0,0.2,0,0.2S10.5,7.4,10.5,7.1z M10.9,7.6c-0.3,0.1,0-0.2,0-0.2
				S11.2,7.4,10.9,7.6z M11,6.6c0,0,0.1,0,0.1-0.1c0,0.1-0.1,0.1-0.1,0.2V6.6z M11.2,7c-0.1,0-0.1,0.1-0.1,0.1L10.9,7
				C11.2,6.9,11.3,7,11.2,7z M10.9,6.2v0.1C10.9,6.3,10.9,6.2,10.9,6.2z M10.9,6.5c0.1,0.2,0,0.2-0.1,0.2s-0.1-0.1-0.1-0.2
				S10.8,6.2,10.9,6.5L10.9,6.5z M10.6,5.8C10.7,5.8,10.6,5.9,10.6,5.8L10.6,5.8L10.6,5.8z M10.6,6.2C10.5,6.4,10.4,6,10.4,6
				c0.1,0,0.2,0,0.2,0.1C10.6,6.1,10.6,6.2,10.6,6.2L10.6,6.2z M10.4,5.3c0.1,0.1,0.1,0.2,0,0.2C10.3,5.5,10.4,5.3,10.4,5.3
				L10.4,5.3z M10.4,5.9c-0.1,0.2-0.1-0.2-0.1-0.2S10.5,5.7,10.4,5.9z M10.4,6.3c0,0,0.1,0.2-0.1,0.2c-0.2,0-0.1,0.2-0.1-0.1
				C10.2,6.5,10.1,6.1,10.4,6.3L10.4,6.3z M10.1,5.3c0.1,0,0.2,0.2,0,0.2S10.1,5.4,10.1,5.3L10.1,5.3z M10,5.9c0-0.1,0.2,0,0.1,0.2
				C10,6.3,10,5.9,10,5.9L10,5.9z M10.1,6.7C10.2,7,10.2,7,10.1,7S9.9,7.4,9.9,6.8C9.9,6.8,10,6.5,10.1,6.7L10.1,6.7z M9.8,5.9
				C9.6,6.2,9.7,5.6,9.7,5.6S10.1,5.6,9.8,5.9L9.8,5.9z M9.8,5.3C9.7,5.5,9.6,5.2,9.6,5.2S9.9,5.1,9.8,5.3L9.8,5.3z M9.8,6.3
				C10,6.6,9.7,6.4,9.7,6.6c0,0.2-0.2,0-0.2-0.2S9.7,6.1,9.8,6.3L9.8,6.3z M9.4,5.3c0.1-0.1,0.3,0,0.1,0.2C9.3,5.7,9.4,5.4,9.4,5.3
				L9.4,5.3z M9.4,6c0-0.1,0.1,0,0.2,0.1c0.1,0.1,0,0.2-0.2,0.2S9.4,6,9.4,6z M9.3,5.2c0.1,0.1-0.1,0.1-0.1,0.1
				c-0.1,0-0.1-0.1-0.1-0.2C9.1,5.1,9.2,5.1,9.3,5.2z M9.2,5.7C9.4,5.9,9,5.9,9,5.7C9,5.7,9,5.5,9.2,5.7z M9.1,6.3
				c0.3,0.3,0.1,0.2,0,0.2C9,6.5,9,6.9,8.9,6.4C8.9,6.4,8.9,6,9.1,6.3z M8.8,6.1C8.7,6.1,8.6,6.5,8.5,6c0,0-0.1-0.2,0.1-0.1
				S8.9,6.2,8.8,6.1z M8.8,5.4c0,0.3-0.1,0.2-0.2,0.1C8.5,5.4,8.8,5.4,8.8,5.4z M8.5,5.2c0.1,0-0.2,0.1-0.2,0.1
				C8.2,5.2,8.4,5.2,8.5,5.2z M8.2,5.7c0.1,0,0.2,0,0.3,0.1S8.4,6,8.2,5.9S8.2,5.7,8.2,5.7z M8.1,6c0.2,0.2,0.1,0.2,0,0.2
				S8,6.4,8,6.2C7.9,6.2,7.8,5.8,8.1,6z M7.8,5.4c0,0,0.1-0.1,0.1,0s0,0.2-0.1,0.2C7.8,5.5,7.8,5.5,7.8,5.4L7.8,5.4z M7.6,5.8
				C7.7,5.7,7.8,5.9,7.7,6C7.6,6.1,7.6,5.8,7.6,5.8L7.6,5.8z M7.3,6.2c0,0,0.1-0.1,0.1,0c0,0.1,0,0.2-0.1,0.2
				C7.3,6.3,7.2,6.3,7.3,6.2L7.3,6.2z M6.8,7c0-0.2,0.1-0.1,0.1-0.1C7,7.2,6.9,7.1,6.8,7z M7,7.3c0-0.2,0.1-0.1,0.1-0.1
				C7.2,7.6,7,7.5,7,7.3z M7.1,6.7c0.1-0.1,0.3,0.1,0.1,0.2C7,7,7.1,6.7,7.1,6.7z M7.4,7.9c0,0-0.2,0-0.2-0.2s0.1,0,0.1,0
				C7.4,7.8,7.5,7.8,7.4,7.9z M7.5,7.2C7.4,7.3,7.3,7.4,7.3,7.1c0,0,0.1-0.3,0.2-0.1C7.6,7.2,7.6,7.1,7.5,7.2z M7.7,6.4
				c0.2,0.2,0.1,0.2,0,0.2c-0.1,0-0.1,0.3-0.2-0.1C7.5,6.5,7.5,6.3,7.7,6.4L7.7,6.4z M7.6,8.2C7.5,8.1,7.7,8.1,7.7,8.1s0-0.1,0.1,0
				C7.9,8.2,7.8,8.3,7.6,8.2z M7.8,7.5C7.7,7.5,7.7,8,7.6,7.4c0,0,0.1-0.4,0.2-0.1C7.9,7.6,7.9,7.5,7.8,7.5z M8.1,8
				c0,0-0.2,0.5-0.2-0.2c0,0,0-0.5,0.2,0C8.1,7.8,8.3,8.1,8.1,8z M8.2,7.3c0,0,0-0.3,0.2-0.1c0.2,0.2,0.2,0.2,0.1,0.2S8.3,8,8.2,7.3
				L8.2,7.3z M9.2,10.1c-0.1,0.1-0.2,0.4-0.1,0.6c0.1,0.1,0.1,0.2,0.1,0.3c-0.1,0.2-0.2,0.5-0.1,0.7c0.1,0.1,0.1,0.2,0.1,0.4
				C9,12.3,9,12.6,9.1,12.9c0,0.1,0,0.2-0.1,0.3c-0.1,0.2-0.1,0.4,0,0.6c-0.1,0-0.3,0-0.4,0L8.8,9H9c0.3,0,0.2,0.1,0.2,0.1
				C9.1,9.3,9.1,9.5,9.1,9.7C9.2,9.8,9.2,10,9.2,10.1L9.2,10.1z M9.2,8.8c-0.3,0.2-0.3,0-0.3,0C8.8,8.7,8.7,8.6,8.5,8.6
				c-0.5-0.2,0-0.2,0-0.2c0.1,0,0.1,0,0.2,0.1c0.1,0.1,0.4,0.2,0.5,0.1c0.1-0.2,0.2-0.2,0.3-0.3c0.4,0.1,0.1,0.3,0.1,0.3
				C9.4,8.6,9.3,8.6,9.2,8.8L9.2,8.8z M14.4,6.9c-0.3,0.1-0.5,0.3-0.7,0.5c-0.1,0.3-0.2,0.7-0.4,1c-0.1,0.2,0.3,0.1,0.3,0.1
				c0.6,0-0.2,0.3-0.2,0.3C13.2,8.9,13,9,12.9,9.2c-0.3,0.1-0.1,0.2-0.1,0.2c0.1,0,0.1,0.1,0.2,0.1c0,0.3-0.4,0.1-0.4,0.1
				c-0.2-0.1-0.4,0-0.5,0.1c-0.6,0.2-0.2,0.3-0.2,0.3c0.2,0.2-0.1,0.2-0.1,0.2c-0.3-0.1-0.6-0.1-0.9,0.1c-0.4,0.2,0,0.3,0,0.3
				c0.1,0.3-0.2,0.1-0.2,0.1c-0.2-0.1-0.4-0.1-0.5,0c-1.1,0.2,0.2-0.5,0.2-0.5C10.8,10,12,9.3,12,9.3c0.5-0.3,0.8-0.7,1.1-1.1
				c0.3-0.6,0.5-1.3,0.6-2c0.3-0.8,0.3,0,0.2,0.3c-0.1,0.3-0.1,0.3,0.2,0.2C14.5,6.6,14.5,6.8,14.4,6.9L14.4,6.9z"/>
		</g>
	</g>
</g>
<path class="st5" d="M22.2,8.1c0-0.8,0-1.4,0.1-1.8c0.4-0.1,0.7-0.1,1.1-0.1c0.5,0,1.1,0.1,1.5,0.4c0.4,0.3,0.6,0.8,0.5,1.3
	c0,0.3,0,0.6-0.2,0.9C25.1,9,25,9.2,24.8,9.4c-0.2,0.2-0.4,0.3-0.7,0.4c-0.4,0.1-0.8,0.2-1.3,0.1h-0.7C22.2,9.8,22.2,8.1,22.2,8.1z
	 M21.5,15.7l1.9,0.1c0.6,0,1.1-0.1,1.7-0.3c0.6-0.2,1.2-0.7,1.5-1.2c0.4-0.5,0.6-1.2,0.6-1.9c0-0.3-0.1-0.7-0.2-1s-0.3-0.5-0.5-0.7
	c-0.2-0.2-0.5-0.4-0.8-0.5c-0.4-0.1-0.8-0.2-1.3-0.2c0.3-0.1,0.7-0.2,1-0.4c0.2-0.1,0.5-0.3,0.7-0.5s0.4-0.4,0.5-0.7
	c0.1-0.3,0.2-0.6,0.2-0.9c0-0.4-0.1-0.8-0.3-1.1c-0.2-0.3-0.5-0.6-0.9-0.7c-0.5-0.2-1-0.2-1.5-0.2l-2.5,0.1h-1.4h-0.5V6
	c0.3,0,0.6,0,0.9,0.1c0.1,0,0.1,0.1,0.1,0.1c0.1,0.2,0.1,0.5,0.1,0.7c0,0.6,0,1.2,0,1.6V13c0,0.2,0,0.6,0,1.1c0,0.3,0,0.6-0.1,0.9
	c0,0.1,0,0.1-0.1,0.2c-0.1,0.1-0.3,0.2-0.5,0.3v0.3L21.5,15.7 M22.2,13.1v-2.7c0.2,0,0.5,0,0.7-0.1c0.6,0,1.2,0.1,1.8,0.2
	c0.4,0.2,0.6,0.4,0.8,0.8c0.2,0.4,0.3,0.8,0.3,1.3s-0.1,0.9-0.3,1.4c-0.2,0.4-0.5,0.7-0.8,0.9c-0.4,0.2-0.9,0.3-1.4,0.3
	c-0.4,0-0.7-0.1-1-0.2C22.2,14,22.2,13.3,22.2,13.1"/>
<path class="st5" d="M28,15.8v-0.4h0.9c0.1,0,0.1,0,0.2-0.1l0.1-0.1c0.1-0.2,0.1-0.3,0.1-0.5c0-1.3,0-1.9,0-2v-0.9
	c0-0.4,0-0.8,0-1.2c0-0.2,0-0.3-0.1-0.5c0-0.1-0.1-0.1-0.2-0.1c-0.3,0-0.6,0-0.9,0V9.4c0.7-0.1,1.4-0.2,2.1-0.5
	c0.1,0,0.1-0.1,0.2-0.1h0.1v0.1V9c0,0.3,0,0.8,0,1.4c0.2-0.2,0.4-0.5,0.6-0.7c0.1-0.2,0.3-0.3,0.4-0.5C31.6,9.1,31.8,9,32,8.9
	s0.4-0.1,0.6-0.1c0.2,0,0.4,0,0.6,0.1V9c-0.1,0.7-0.1,1.2-0.1,1.7h-0.3c-0.1-0.2-0.2-0.4-0.4-0.5S32,10,31.9,10
	c-0.4,0-0.7,0.2-0.9,0.5c-0.3,0.4-0.4,0.9-0.4,1.4v0.7c0,0.3,0,0.9,0,1.7c0,0.2,0,0.4,0,0.6c0,0.1,0,0.1,0.1,0.2l0.1,0.1
	c0.4,0.1,0.8,0.1,1.2,0.1v0.4c-0.8,0-1.6-0.1-2.1-0.1C29.1,15.7,28.5,15.7,28,15.8"/>
<path class="st5" d="M35.6,5.7c0.2,0,0.4,0.1,0.6,0.2c0.2,0.2,0.2,0.4,0.2,0.6c0,0.4-0.4,0.8-0.8,0.8c-0.2,0-0.4-0.1-0.6-0.3
	c-0.2-0.1-0.2-0.4-0.2-0.6C34.8,6,35.2,5.6,35.6,5.7C35.6,5.6,35.6,5.6,35.6,5.7 M33.8,9.9V9.4c0.8-0.1,1.6-0.3,2.3-0.6L36.3,9
	c0,1,0,1.8,0,2.3v1.3c0,1.2,0,1.9,0,2c0,0.2,0,0.4,0.1,0.5l0.1,0.1c0.1,0,0.1,0.1,0.2,0.1h0.8v0.4c-0.7,0-1.3-0.1-1.7-0.1
	s-1.1,0-1.9,0.1v-0.4h0.7c0.1,0,0.2,0,0.2-0.1c0.1,0,0.1-0.1,0.1-0.1c0.1-0.2,0.1-0.3,0.1-0.5c0-0.1,0-0.7,0-2.1v-1.3
	c0-0.4,0-0.9-0.1-1.3c0-0.1-0.1-0.1-0.2-0.2C34.4,9.9,34.1,9.8,33.8,9.9"/>
<path class="st5" d="M38,9.9V9.5c0.4-0.1,0.7-0.3,1.1-0.5V6.7c0.4-0.1,0.8-0.3,1.2-0.6l0.2,0.2c-0.1,0.4-0.1,1.3-0.2,2.8H41h0.7
	c0.2,0,0.4,0,0.6,0v0.1l-0.2,0.7h-1.9V13c0,0.4,0,0.9,0,1.3c0,0.1,0.1,0.3,0.1,0.4c0.1,0.1,0.2,0.2,0.3,0.3c0.2,0.1,0.4,0.1,0.5,0.1
	c0.2,0,0.3,0,0.5,0c0.2,0,0.3-0.1,0.5-0.1l0.1,0.3c-0.2,0.2-0.4,0.4-0.7,0.6C41.3,16,41.2,16,41,16s-0.4,0-0.5,0
	c-0.2,0-0.4,0-0.6-0.1c-0.1-0.1-0.3-0.1-0.4-0.2c-0.1-0.1-0.2-0.3-0.3-0.4c-0.1-0.2-0.2-0.5-0.2-0.8c0-0.3,0-0.7,0-1.1
	c0-0.1,0-0.2,0-0.3V9.8h-0.3C38.5,9.8,38.3,9.8,38,9.9"/>
<path class="st5" d="M46.9,13.9c-0.2,0.3-0.5,0.6-0.9,0.8c-0.3,0.2-0.6,0.3-0.9,0.3c-0.3,0-0.6-0.1-0.8-0.3S44,14.2,44,13.9
	s0.1-0.5,0.2-0.8c0.1-0.1,0.2-0.3,0.3-0.4c0.3-0.2,0.6-0.3,0.9-0.4c0.5-0.1,1-0.2,1.5-0.3L46.9,13.9L46.9,13.9z M44.1,10.2l0.1-0.3
	c0.1-0.1,0.2-0.2,0.4-0.2c0.2-0.1,0.5-0.1,0.7-0.1c0.3,0,0.6,0.1,0.9,0.2c0.2,0.1,0.4,0.4,0.5,0.6c0.1,0.3,0.2,0.7,0.2,1.1
	c-0.6,0.1-1.2,0.2-1.7,0.3c-0.4,0.1-0.9,0.2-1.3,0.4c-0.2,0.1-0.3,0.2-0.5,0.4S43.1,13,43,13.2c-0.1,0.3-0.2,0.6-0.2,0.9
	c0,0.5,0.1,0.9,0.5,1.2c0.3,0.3,0.8,0.5,1.3,0.5c0.2,0,0.4,0,0.6-0.1c0.2-0.1,0.7-0.5,1.6-1.2v1.3c0.4,0,0.8-0.1,1.1-0.1
	c0.3,0,0.6,0,1,0.1v-0.4h-0.4c-0.1,0-0.2,0-0.3-0.1c-0.1,0-0.1-0.1-0.1-0.2c0-0.2-0.1-0.3,0-0.5v-2.2v-1.3c0-0.4,0-0.7-0.2-1.1
	c-0.2-0.4-0.4-0.7-0.8-0.9c-0.4-0.1-0.9-0.3-1.3-0.2c-0.3,0-0.6,0-0.9,0.1c-0.5,0.2-1,0.5-1.4,0.8c0,0.1,0,0.3,0,0.5s0,0.3,0,0.4
	l0.3,0.1C43.9,10.7,44,10.5,44.1,10.2"/>
<path class="st5" d="M49.5,15.8v-0.4h0.7c0.1,0,0.2,0,0.2-0.1c0.1,0,0.1-0.1,0.1-0.1c0.1-0.2,0.1-0.3,0.1-0.5c0-0.1,0-0.7,0-2.1
	v-0.9c0-0.4,0-0.8,0-1.2c0-0.2,0-0.3-0.1-0.5c0-0.1-0.1-0.1-0.2-0.1c-0.3,0-0.6,0-0.9,0V9.4c0.7-0.1,1.4-0.2,2-0.5
	c0,0,0.1-0.1,0.2-0.1c0,0,0,0,0.1,0v0.1V9c0,0,0,0.5,0,1.1L53,9c0.3-0.1,0.7-0.2,1.1-0.2c0.4,0,0.7,0.1,1,0.2
	c0.3,0.1,0.6,0.3,0.8,0.6c0.2,0.3,0.3,0.6,0.3,0.9c0,0.2,0,0.8,0,1.8v1.3c0,0.6,0,1,0,1.3c0,0.1,0,0.2,0.1,0.3s0.1,0.1,0.2,0.1h0.7
	v0.4c-0.4,0-0.7,0-1,0c-0.3,0-0.7,0-1.3,0.1c0.1-1.2,0.1-1.9,0.1-2.2v-1.2c0-0.5,0-1-0.1-1.5c-0.1-0.3-0.3-0.6-0.5-0.8
	c-0.3-0.2-0.6-0.3-1-0.3c-0.3,0-0.7,0.1-0.9,0.3c-0.3,0.1-0.5,0.3-0.6,0.6c-0.1,0.4-0.2,0.7-0.2,1.1v0.9c0,1.2,0,1.9,0,2
	c0,0.2,0,0.4,0.1,0.5c0,0,0,0.1,0.1,0.1c0.1,0,0.1,0.1,0.2,0.1h0.8v0.4c-0.5,0-1.1-0.1-1.5-0.1C51,15.7,50.4,15.7,49.5,15.8"/>
<path class="st5" d="M57.8,15.8v-0.4h0.6c0.1,0,0.1,0,0.2-0.1l0.1-0.1c0.1-0.2,0.1-0.3,0.1-0.5c0-0.1,0-0.7,0-2.1v-0.9
	c0-0.4,0-0.8,0-1.2c0-0.2,0-0.3-0.1-0.5c0-0.1-0.1-0.1-0.1-0.1c-0.3,0-0.6,0-0.8,0V9.4c0.7-0.1,1.3-0.2,2-0.5c0.1,0,0.1-0.1,0.2-0.1
	c0,0,0,0,0.1,0v0.1V9c0,0,0,0.5,0,1.1L61.3,9c0.3-0.1,0.7-0.2,1-0.2c0.3,0,0.7,0.1,1,0.2c0.3,0.1,0.5,0.3,0.7,0.6
	c0.2,0.3,0.3,0.6,0.3,0.9c0,0.2,0,0.8,0,1.8v1.3c0,0.6,0,1,0,1.3c0,0.1,0,0.2,0.1,0.3s0.1,0.1,0.2,0.1h0.7v0.4
	c-0.4,0-0.8-0.1-1.1-0.1c-0.3,0-0.7,0-1.2,0.1c0.1-1.2,0.1-1.9,0.1-2.2v-1.2c0-0.5,0-1-0.1-1.5c-0.1-0.3-0.3-0.6-0.5-0.8
	c-0.3-0.2-0.6-0.3-1-0.3c-0.3,0-0.5,0.1-0.7,0.2c-0.2,0.1-0.4,0.3-0.6,0.6c-0.1,0.4-0.2,0.7-0.2,1.1v0.9c0,1.2,0,1.9,0,2
	c0,0.2,0,0.4,0.1,0.5c0,0,0,0.1,0.1,0.1c0.1,0,0.1,0.1,0.2,0.1H61v0.4c-0.5,0-1,0-1.5-0.1C59.1,15.7,58.5,15.7,57.8,15.8"/>
<path class="st5" d="M67.8,5.7c0.2,0,0.4,0.1,0.6,0.2c0.2,0.2,0.2,0.4,0.2,0.6c0,0.4-0.4,0.8-0.8,0.8c-0.2,0-0.5-0.1-0.6-0.3
	C67,6.9,67,6.6,67,6.4C67,6,67.3,5.6,67.8,5.7C67.8,5.6,67.8,5.6,67.8,5.7 M66,9.9V9.4c0.8-0.1,1.6-0.3,2.3-0.6L68.5,9
	c0,1,0,1.8,0,2.3v1.3c0,1.2,0,1.9,0,2c0,0.2,0,0.4,0.1,0.5l0.1,0.1c0.1,0,0.1,0.1,0.2,0.1h0.8v0.4c-0.7,0-1.3-0.1-1.7-0.1
	s-1.1,0-1.9,0.1v-0.4h0.7c0.1,0,0.2,0,0.2-0.1c0.1,0,0.1-0.1,0.1-0.1c0.1-0.2,0.1-0.3,0.1-0.5c0-0.1,0-0.7,0-2.1v-1.3
	c0-0.4,0-0.9-0.1-1.3c0-0.1-0.1-0.1-0.2-0.2C66.6,9.9,66.3,9.8,66,9.9"/>
<path class="st5" d="M75.6,14.9l-0.3,0.5c-0.3,0.2-0.6,0.3-0.9,0.4c-0.3,0.1-0.7,0.1-1,0.1c-0.9,0-1.7-0.3-2.3-0.9
	c-0.6-0.7-0.9-1.6-0.8-2.5c0-0.5,0.1-1,0.2-1.5c0.1-0.4,0.3-0.7,0.6-1c0.3-0.2,0.5-0.4,0.8-0.6c0.3-0.2,0.6-0.3,0.9-0.4
	c0.3-0.1,0.7-0.2,1.1-0.2s0.7,0,1.1,0.1c0.2,0.1,0.4,0.2,0.6,0.3c-0.1,0.4-0.1,0.6-0.1,0.8s-0.1,0.5-0.1,1H75c0-0.3,0-0.6-0.1-0.9
	c0-0.1,0-0.1-0.1-0.2c-0.2-0.1-0.4-0.3-0.6-0.3c-0.3-0.1-0.5-0.2-0.8-0.1c-0.4,0-0.7,0.1-1,0.2c-0.3,0.2-0.5,0.5-0.6,0.8
	c-0.2,0.4-0.2,0.9-0.2,1.3c0,0.6,0.1,1.2,0.3,1.8c0.2,0.5,0.5,0.9,0.9,1.1c0.4,0.2,0.8,0.4,1.2,0.4c0.2,0,0.5,0,0.7-0.1
	c0.3-0.1,0.6-0.2,0.8-0.3L75.6,14.9z"/>
<path class="st5" d="M80.3,13.9c-0.2,0.3-0.5,0.6-0.8,0.8S78.9,15,78.6,15s-0.5-0.1-0.7-0.3c-0.2-0.2-0.3-0.5-0.3-0.8
	s0.1-0.5,0.2-0.8c0.1-0.1,0.1-0.3,0.3-0.4c0.3-0.2,0.5-0.3,0.8-0.4c0.5-0.1,1-0.2,1.4-0.3V13.9L80.3,13.9z M77.6,10.2l0.1-0.3
	c0.1-0.1,0.2-0.2,0.4-0.2c0.2-0.1,0.4-0.1,0.7-0.1s0.6,0.1,0.9,0.2c0.2,0.1,0.4,0.4,0.5,0.6c0.1,0.3,0.2,0.7,0.2,1.1
	c-0.6,0.1-1.1,0.2-1.7,0.3c-0.4,0.1-0.8,0.2-1.2,0.4c-0.2,0.1-0.3,0.2-0.4,0.4c-0.2,0.2-0.3,0.4-0.4,0.6c-0.1,0.3-0.2,0.6-0.2,0.9
	c0,0.5,0.1,0.9,0.4,1.2c0.3,0.3,0.8,0.5,1.2,0.5c0.2,0,0.4,0,0.6-0.1c0.2-0.1,0.7-0.5,1.6-1.2v1.3c0.4,0,0.8-0.1,1-0.1
	c0.2,0,0.5,0,0.9,0.1v-0.4h-0.5c-0.1,0-0.2,0-0.3-0.1c-0.1,0-0.1-0.1-0.1-0.2c0-0.2-0.1-0.3-0.1-0.5v-2.1v-1.3c0-0.4,0-0.7-0.2-1.1
	c-0.2-0.4-0.4-0.7-0.8-0.9S79.4,8.9,79,8.9c-0.3,0-0.6,0-0.9,0.1c-0.5,0.2-0.9,0.5-1.4,0.8c0,0.1,0,0.3,0,0.5s0,0.3,0,0.4l0.3,0.1
	C77.3,10.7,77.4,10.5,77.6,10.2"/>
<path class="st5" d="M82.9,5.7c0.6,0,1.1,0.5,1.2,1.1S83.6,7.9,83,8c-0.6,0-1.1-0.5-1.2-1.1l0,0C81.8,6.2,82.3,5.7,82.9,5.7
	L82.9,5.7L82.9,5.7L82.9,5.7z M82.9,5.8c-0.5,0.2-0.8,0.7-0.7,1.3c0.1,0.3,0.3,0.6,0.7,0.7c0.5,0,0.9-0.4,0.9-0.9c0,0,0,0,0-0.1
	C83.8,6.2,83.4,5.8,82.9,5.8C82.9,5.7,82.9,5.7,82.9,5.8L82.9,5.8L82.9,5.8z M82.7,7.4h-0.2V6.2c0.1,0,0.2,0,0.4,0
	c0.1,0,0.3,0,0.4,0.1s0.1,0.2,0.1,0.3c0,0.2-0.1,0.3-0.2,0.3l0,0c0.1,0,0.2,0.2,0.2,0.3c0,0.1,0,0.2,0.1,0.3h-0.2
	c0-0.1-0.1-0.2-0.1-0.3C83.2,7.1,83.1,7,83,7c0,0,0,0-0.1,0h-0.1v0.4H82.7z M82.7,6.7h0.1c0.1,0,0.3,0,0.3-0.2l0,0
	c0-0.1-0.1-0.2-0.3-0.2l0,0h-0.1V6.7z"/>
<g>
	<path class="st5" d="M87.1,11.4C87.1,11.3,87.1,11.3,87.1,11.4c0.1-0.4,0-0.7,0.1-1.1c0-0.2,0.1-0.3-0.1-0.4
		c-0.2-0.1-0.2,0.1-0.3,0.2c-0.3,0.3-0.5,0.3-0.8,0c0-0.6,0.5-0.8,0.9-1.1c1-0.6,2.1-1,3.1-1.4c0.5-0.2,1-0.4,1.6-0.6
		c0.9-0.4,1.8-0.5,2.8-0.6c0.2,0,0.3,0,0.2,0.2c-0.1,0.1-0.2,0.3-0.4,0.3c-0.4,0-0.7,0.1-1,0.2c-0.5,0.2-1.1,0.2-1.5,0.5
		c-0.1,0.1-0.2,0.1-0.2,0.1c-0.9,0.3-1.8,0.6-2.6,1c-0.4,0.2-0.6,0.4-0.7,0.9c0,0.4,0,0.7,0,1.1c0,0.3,0.1,0.4,0.4,0.3
		c0.1,0,0.2,0,0.3-0.1c1.1-0.5,2.3-0.8,3.4-1.2c0.3-0.1,0.7,0,1-0.1c0.2,0,0.2,0.1,0.3,0.2c-0.1,0.6-0.2,0.7-0.8,0.5
		c-0.3-0.1-0.5-0.1-0.8,0c-1.3,0.4-2.6,0.9-3.8,1.4C88,11.9,88,12,88,12.1c0.1,0.4,0.1,0.8,0.2,1.2c0.2,0.4,0.3,0.9,0.3,1.4
		c0,0.3,0.1,0.3,0.4,0.2c0.9-0.1,1.8-0.5,2.7-0.8c1.1-0.3,2.1-0.5,3.2-0.8c0.2,0,0.3,0,0.3,0.2c-0.6,0.2-1.1,0.5-1.7,0.6
		c-0.7,0.1-1.5,0.3-2.2,0.6c-0.9,0.3-1.9,0.6-2.8,1c-0.7,0.3-1.5,0.4-2.3,0.4l0,0L86,16.1c0,0,0,0,0-0.1v-0.1c0-0.5,0.2-0.6,0.9-0.5
		c0.4,0,0.4-0.1,0.3-0.4c-0.1-0.2-0.1-0.3-0.1-0.5C87,13.5,87,12.6,87,11.7c0-0.1,0-0.1,0-0.2C87.1,11.5,87.1,11.4,87.1,11.4z"/>
	<path class="st5" d="M99.5,13c0-0.1,0-0.1,0-0.2c0.1-0.1,0.2-0.3,0.3-0.5l0,0l0,0l0,0c0-0.1,0.1-0.1,0.1-0.2l0,0l0,0
		c0.1-0.1,0.2-0.2,0.3-0.4c0,0,0-0.1,0.1-0.1c0.2-0.2,0.4-0.5,0.7-0.7l0,0h0.1c0.1,0,0.1,0,0.2-0.1c0.8-0.2,1.2,0,1.3,0.8
		c0,0.3-0.2,0.7-0.5,0.7c-0.4,0-0.2-0.3-0.3-0.5c-0.1-0.5-0.4-0.6-0.7-0.3c-0.9,0.7-1.3,1.6-1.3,2.7c0,0.3,0.3,0.7,0.7,0.7
		c0.5,0,1.1,0,1.5-0.3c0,0,0,0,0.1,0c0.4-0.1,0.8-0.3,1.3-0.3c0.4,0,0.7-0.1,0.7-0.6c0-0.1,0.1-0.2,0.1-0.3c0.1-0.3,0.3-0.6,0.4-1
		l0,0c0-0.1,0.1-0.1,0.1-0.2l0,0c0.1-0.1,0.2-0.2,0.2-0.3l0,0c0.2-0.3,0.4-0.5,0.5-0.8l0,0l0,0c0.2-0.2,0.4-0.4,0.7-0.4
		c0.4,0.3,0.9,0.6,1.4,0.7c0.7,0.3,1,1,0.8,1.7c-0.4,1.2-1.2,2-2.4,2.4c-0.6,0.2-1.4-0.1-1.7-0.5c-0.2-0.2-0.4-0.3-0.7-0.2
		c-0.5,0.2-0.9,0.4-1.4,0.5c-0.5,0.2-1.1,0.4-1.7,0.4c-0.7,0-1.2-0.4-1.3-1.1C99.2,13.9,99.4,13.5,99.5,13z M105.6,14.6
		c0.1,0.1,0.3,0.1,0.4,0c0.8-0.2,1.4-0.6,1.8-1.4c0,0,0,0,0-0.1V13c0.1-0.1,0.2-0.2,0.1-0.4c-0.2-0.5-0.4-1-1-1.1
		c-0.7-0.1-1,0-1.4,0.5c-0.3,0.5-0.4,1.1-0.6,1.6C104.8,14.2,105.1,14.5,105.6,14.6z"/>
	<path class="st5" d="M114.9,14.8C114.9,14.8,115,14.8,114.9,14.8c0-0.3-0.2-0.6-0.2-1c-0.4,0.4-0.7,0.8-1.1,1.1
		c-0.4,0.4-1,0.4-1.5,0.4l0,0c-0.1-0.1-0.2-0.2-0.2-0.3c0-1.3,0.4-2.5,1.4-3.5c0.4-0.4,0.7-0.9,1.4-1c0.4,0,0.8-0.1,1.1,0.3
		c0,0.7-0.1,1.4-0.3,2c-0.1,0.5-0.2,1.1,0.2,1.6c0.3,0.4,0.7,0.6,1.1,0.9c0,0.4-0.3,0.2-0.5,0.2c-0.5-0.1-0.9-0.5-1.2-0.8l0,0
		C115,14.9,115,14.8,114.9,14.8z M115,11.8c0-0.2,0-0.4-0.3-0.5c-0.2-0.1-0.4,0-0.6,0.1c-0.3,0.2-0.6,0.6-0.8,0.9
		c-0.5,0.6-0.9,1.3-0.8,2.1c0,0.2,0,0.4,0.3,0.2c0.1,0,0.3-0.1,0.4-0.1C114.1,13.8,114.8,12.9,115,11.8z"/>
	<path class="st5" d="M117.3,11.5v-0.1v-0.1c0,0,0,0,0-0.1l0,0c0,0,0.1,0,0.1-0.1l0,0c0.1,0,0.2,0,0.3,0c0.5,0.2,0.6,0.2,0.5,0.8
		c-0.1,0.4-0.1,0.7,0,1.1c0,0.2,0,0.5,0.2,0.5c0.2,0,0.2-0.3,0.4-0.4c0-0.1,0.1-0.1,0.1-0.2l0,0c0,0,0-0.1,0.1-0.1l0,0
		c0.1-0.2,0.2-0.3,0.3-0.5l0,0c0.1-0.1,0.1-0.2,0.1-0.3l0,0c0,0,0,0,0-0.1c0.2-0.2,0.4-0.5,0.6-0.8c0.4-0.5,1-0.8,1.5-1
		c0.2,0,0.4,0,0.6,0h0.1c0,0,0,0,0.1,0h0.1c0,0.2-0.1,0.3-0.4,0.4c-0.4,0.1-0.8,0.2-1.1,0.5c-1.1,1.1-1.9,2.3-2.2,3.9
		c-0.1,0.3-0.2,0.5-0.3,0.7c-0.1,0.2-0.3,0.2-0.5,0.2c-0.1,0-0.1-0.1-0.1-0.2c0-0.6-0.2-1.2-0.2-1.8s0-1.2-0.4-1.7
		C117.2,11.9,117.2,11.7,117.3,11.5z"/>
	<path class="st5" d="M112.1,6.3c0.1,0,0.1,0,0.2,0c0.1,0.1,0.3,0.1,0.2,0.2c-0.3,0.6-0.3,1.2-0.5,1.8c-0.5,1.6-1,3.1-1.4,4.7
		c-0.1,0.5-0.3,1.1-0.1,1.6c0.2,0.5-0.1,0.8-0.3,1.2c-0.1,0.2-0.3,0.3-0.5,0.2c-0.2-0.1-0.4-0.3-0.3-0.6c0-0.1,0.1-0.2,0.1-0.4
		c0.1-0.9,0.2-1.7,0.5-2.6c0.1-0.4,0.3-0.9,0.2-1.3c0.4-0.7,0.5-1.6,0.8-2.4c0.2-0.7,0.5-1.4,0.7-2.1C111.7,6.6,111.8,6.4,112.1,6.3
		C112,6.3,112.1,6.3,112.1,6.3z"/>
	<path class="st5" d="M95.2,16.2c-0.1-0.2-0.1-0.4,0.1-0.5c0.6-0.5,1.1-1,1.7-1.5c0.2-0.1,0.3-0.3,0.3-0.4c0-0.2-0.3-0.1-0.4-0.1
		c-0.7-0.3-1.5-0.4-2-1.1c0-0.7,0.5-1.4,1.3-1.7c0.6-0.2,1.1-0.4,1.7-0.4c0.2,0,0.5-0.3,0.7,0.1c0,0.4-0.2,0.6-0.7,0.6
		c-0.7-0.1-1.3,0.2-1.9,0.5c-0.4,0.3-0.5,0.6-0.2,0.9c0.5,0.4,1.1,0.3,1.7,0.4c0.3,0,0.5,0,0.7,0.3c0,0.3-0.2,0.6-0.4,0.9
		c-0.5,0.4-0.9,0.9-1.4,1.3C96.1,15.7,95.8,16.1,95.2,16.2z"/>
</g>
<g>
	<path class="st2" d="M87,11.3C87,11.2,87,11.2,87,11.3c0.1-0.4,0-0.7,0.1-1.1c0-0.2,0.1-0.3-0.1-0.4c-0.2-0.1-0.2,0.1-0.3,0.2
		c-0.3,0.3-0.5,0.3-0.8,0c0-0.6,0.5-0.8,0.9-1.1c1-0.6,2.1-1,3.1-1.4c0.5-0.2,1-0.4,1.6-0.6c0.9-0.4,1.8-0.5,2.8-0.6
		c0.2,0,0.3,0,0.2,0.2c-0.1,0.1-0.2,0.3-0.4,0.3c-0.4,0-0.7,0.1-1,0.2c-0.5,0.2-1.1,0.2-1.5,0.5c-0.1,0.1-0.2,0.1-0.2,0.1
		c-0.9,0.3-1.8,0.6-2.6,1c-0.4,0.2-0.6,0.4-0.7,0.9c0,0.4,0,0.7,0,1.1c0,0.3,0.1,0.4,0.4,0.3c0.1,0,0.2,0,0.3-0.1
		c1.1-0.5,2.3-0.8,3.4-1.2c0.3-0.1,0.7,0,1-0.1c0.2,0,0.2,0.1,0.3,0.2c-0.1,0.6-0.2,0.7-0.8,0.5c-0.3-0.1-0.5-0.1-0.8,0
		c-1.3,0.4-2.6,0.9-3.8,1.4c-0.2,0.2-0.2,0.3-0.2,0.4c0.1,0.4,0.1,0.8,0.2,1.2c0.2,0.4,0.3,0.9,0.3,1.4c0,0.3,0.1,0.3,0.4,0.2
		c0.9-0.1,1.8-0.5,2.7-0.8c1.1-0.3,2.1-0.5,3.2-0.8c0.2,0,0.3,0,0.3,0.2c-0.6,0.2-1.1,0.5-1.7,0.6c-0.7,0.1-1.5,0.3-2.2,0.6
		c-0.9,0.3-1.9,0.6-2.8,1C87.6,15.9,86.8,16,86,16l0,0l-0.1-0.1c0,0,0,0,0-0.1v-0.1c0-0.5,0.2-0.6,0.9-0.5c0.4,0,0.4-0.1,0.3-0.4
		C87,14.6,87,14.5,87,14.3c-0.1-0.9-0.1-1.8-0.1-2.7c0-0.1,0-0.1,0-0.2C87,11.4,87,11.3,87,11.3z"/>
	<path class="st2" d="M99.3,12.9c0-0.1,0-0.1,0-0.2c0.1-0.1,0.2-0.3,0.3-0.5l0,0l0,0l0,0c0-0.1,0.1-0.1,0.1-0.2l0,0l0,0
		c0.1-0.1,0.2-0.2,0.3-0.4c0,0,0-0.1,0.1-0.1c0.2-0.2,0.4-0.5,0.7-0.7l0,0h0.1c0.1,0,0.1,0,0.2-0.1c0.8-0.2,1.2,0,1.3,0.8
		c0,0.3-0.2,0.7-0.5,0.7c-0.4,0-0.2-0.3-0.3-0.5c-0.1-0.5-0.4-0.6-0.7-0.3c-0.9,0.7-1.3,1.6-1.3,2.7c0,0.3,0.3,0.7,0.7,0.7
		c0.5,0,1.1,0,1.5-0.3c0,0,0,0,0.1,0c0.4-0.1,0.8-0.3,1.3-0.3c0.4,0,0.7-0.1,0.7-0.6c0-0.1,0.1-0.2,0.1-0.3c0.1-0.3,0.3-0.6,0.4-1
		l0,0c0-0.1,0.1-0.1,0.1-0.2l0,0c0.1-0.1,0.2-0.2,0.2-0.3l0,0c0.2-0.3,0.4-0.5,0.5-0.8l0,0l0,0c0.2-0.2,0.4-0.4,0.7-0.4
		c0.4,0.3,0.9,0.6,1.4,0.7c0.7,0.3,1,1,0.8,1.7c-0.4,1.2-1.2,2-2.4,2.4c-0.6,0.2-1.4-0.1-1.7-0.5c-0.2-0.2-0.4-0.3-0.7-0.2
		c-0.5,0.2-0.9,0.4-1.4,0.5c-0.5,0.2-1.1,0.4-1.7,0.4c-0.7,0-1.2-0.4-1.3-1.1C99,13.8,99.2,13.4,99.3,12.9z M105.4,14.5
		c0.1,0.1,0.3,0.1,0.4,0c0.8-0.2,1.4-0.6,1.8-1.4c0,0,0,0,0-0.1v-0.1c0.1-0.1,0.2-0.2,0.1-0.4c-0.2-0.5-0.4-1-1-1.1
		c-0.7-0.1-1,0-1.4,0.5c-0.3,0.5-0.4,1.1-0.6,1.6C104.6,14.1,104.9,14.4,105.4,14.5z"/>
	<path class="st2" d="M114.8,14.7C114.8,14.7,114.9,14.7,114.8,14.7c0-0.3-0.2-0.6-0.2-1c-0.4,0.4-0.7,0.8-1.1,1.1
		c-0.4,0.4-1,0.4-1.5,0.4l0,0c-0.1-0.1-0.2-0.2-0.2-0.3c0-1.3,0.4-2.5,1.4-3.5c0.4-0.4,0.7-0.9,1.4-1c0.4,0,0.8-0.1,1.1,0.3
		c0,0.7-0.1,1.4-0.3,2c-0.1,0.5-0.2,1.1,0.2,1.6c0.3,0.4,0.7,0.6,1.1,0.9c0,0.4-0.3,0.2-0.5,0.2c-0.5-0.1-0.9-0.5-1.2-0.8l0,0
		C114.9,14.8,114.9,14.7,114.8,14.7z M114.9,11.7c0-0.2,0-0.4-0.3-0.5c-0.2-0.1-0.4,0-0.6,0.1c-0.3,0.2-0.6,0.6-0.8,0.9
		c-0.5,0.6-0.9,1.3-0.8,2.1c0,0.2,0,0.4,0.3,0.2c0.1,0,0.3-0.1,0.4-0.1C114,13.7,114.7,12.8,114.9,11.7z"/>
	<path class="st2" d="M117.2,11.4v-0.1v-0.1c0,0,0,0,0-0.1l0,0c0,0,0.1,0,0.1-0.1l0,0c0.1,0,0.2,0,0.3,0c0.5,0.2,0.6,0.2,0.5,0.8
		c-0.1,0.4-0.1,0.7,0,1.1c0,0.2,0,0.5,0.2,0.5c0.2,0,0.2-0.3,0.4-0.4c0-0.1,0.1-0.1,0.1-0.2l0,0c0,0,0-0.1,0.1-0.1l0,0
		c0.1-0.2,0.2-0.3,0.3-0.5l0,0c0.1-0.1,0.1-0.2,0.1-0.3l0,0c0,0,0,0,0-0.1c0.2-0.2,0.4-0.5,0.6-0.8c0.4-0.5,1-0.8,1.5-1
		c0.2,0,0.4,0,0.6,0h0.1c0,0,0,0,0.1,0h0.1c0,0.2-0.1,0.3-0.4,0.4c-0.4,0.1-0.8,0.2-1.1,0.5c-1.1,1.1-1.9,2.3-2.2,3.9
		c-0.1,0.3-0.2,0.5-0.3,0.7c-0.1,0.2-0.3,0.2-0.5,0.2c-0.1,0-0.1-0.1-0.1-0.2c0-0.6-0.2-1.2-0.2-1.8c0-0.6,0-1.2-0.4-1.7
		C117.1,11.8,117.1,11.6,117.2,11.4z"/>
	<path class="st2" d="M112,6.2c0.1,0,0.1,0,0.2,0c0.1,0.1,0.3,0.1,0.2,0.2c-0.3,0.6-0.3,1.2-0.5,1.8c-0.5,1.6-1,3.1-1.4,4.7
		c-0.1,0.5-0.3,1.1-0.1,1.6c0.2,0.5-0.1,0.8-0.3,1.2c-0.1,0.2-0.3,0.3-0.5,0.2c-0.2-0.1-0.4-0.3-0.3-0.6c0-0.1,0.1-0.2,0.1-0.4
		c0.1-0.9,0.2-1.7,0.5-2.6c0.1-0.4,0.3-0.9,0.2-1.3c0.4-0.7,0.5-1.6,0.8-2.4c0.2-0.7,0.5-1.4,0.7-2.1C111.6,6.5,111.7,6.3,112,6.2
		C111.9,6.2,112,6.2,112,6.2z"/>
	<path class="st2" d="M95.1,16c-0.1-0.2-0.1-0.4,0.1-0.5c0.6-0.5,1.1-1,1.7-1.5c0.2-0.1,0.3-0.3,0.3-0.4c0-0.2-0.3-0.1-0.4-0.1
		c-0.7-0.3-1.5-0.4-2-1.1c0-0.7,0.5-1.4,1.3-1.7c0.6-0.2,1.1-0.4,1.7-0.4c0.2,0,0.5-0.3,0.7,0.1c0,0.4-0.2,0.6-0.7,0.6
		c-0.7-0.1-1.3,0.2-1.9,0.5c-0.4,0.3-0.5,0.6-0.2,0.9c0.5,0.4,1.1,0.3,1.7,0.4c0.3,0,0.5,0,0.7,0.3c0,0.3-0.2,0.6-0.4,0.9
		c-0.5,0.4-0.9,0.9-1.4,1.3C96,15.5,95.7,15.9,95.1,16z"/>
</g>
</svg>
