<?xml version="1.0" encoding="utf-8"?>
<!-- Generator: Adobe Illustrator 24.3.0, SVG Export Plug-In . SVG Version: 6.00 Build 0)  -->
<svg version="1.1" id="Layer_1" xmlns="http://www.w3.org/2000/svg" xmlns:xlink="http://www.w3.org/1999/xlink" x="0px" y="0px"
	 viewBox="0 0 2104 338" style="enable-background:new 0 0 2104 338;" xml:space="preserve">
<style type="text/css">
	.st0{fill:#FF6E00;}
	.st1{fill:#FFBA00;}
	.st2{fill:#00E5FF;}
	.st3{fill:#FFFFFF;}
	.st4{fill:#80AEFF;}
</style>
<g>
	<g>
		<g>
			<path class="st0" d="M565.3,272.7c-13.4,13.5-29.4,24.6-47.1,32.3c-8.9,3.8-18.1,6.8-27.7,8.9c-9.5,2.1-19.2,3.4-29.1,3.7
				c-19.6,0.6-39.5-2.6-58.2-9.3c-18.7-6.8-36.2-17.2-51.4-30.5c13.5,14.9,30.3,27.3,49.1,35.9c18.8,8.7,39.5,13.6,60.4,14.4
				c10.5,0.4,21.1-0.2,31.5-1.8c10.4-1.7,20.7-4.3,30.7-8c19.9-7.3,38.5-18.5,54.2-33l0,0l0.3-0.3c3.4-3.5,3.4-9-0.2-12.4
				C574.4,269.2,568.7,269.3,565.3,272.7"/>
			<path class="st0" d="M624.6,125.8c-5.6-21.1-15.5-41.2-29.1-58.6c-13.6-17.3-30.6-32.1-50-43s-41-17.9-63.2-20.5
				C460.2,1.2,437.5,3,416.1,9c-21.5,6-41.6,16.4-58.9,30.2c-4.3,3.4-8.5,7.1-12.4,10.9c-2.1,2-3.7,3.7-5.6,5.5l-5.4,5.4l-21.6,21.8
				L269,126.5c-4.1,4.2-4.2,10.9,0,15.1c4.2,4.3,11.2,4.4,15.6,0.2l44.3-42.5l22-21.3l5.5-5.3c1.8-1.7,3.8-3.7,5.4-5.2
				c3.4-3.2,7-6.3,10.7-9.2c29.8-23.3,69-34,106.7-29.4c18.8,2.1,37.2,8,53.6,17.1c16.5,9.1,31.2,21.5,43,36.1
				c11.7,14.7,20.6,31.6,25.8,49.7c5.1,18.1,6.7,37.2,4.6,55.9v0.1c-0.7,5.8,3.5,11.1,9.4,11.9c6,0.8,11.6-3.3,12.4-9.2
				C631.2,169.1,630.1,147,624.6,125.8"/>
			<path class="st0" d="M197.3,199.8l-0.2,0.2c-3.1,2.8-6.5,5.3-10.2,7.4c-3.8,1.9-7.8,3.3-12,4.2c-4.2,0.8-8.5,1-12.9,0.7
				c-4.3-0.3-8.5-1.5-12.6-3c-8.1-3.2-15.2-8.9-20.3-16.1c-2.6-3.6-4.5-7.6-6-11.8c-1.4-4.2-2.1-8.7-2.3-13.1
				c-0.2-9,2.3-18.1,7.3-25.8c2.4-3.9,5.6-7.4,9.1-10.5c3.6-3,7.6-5.6,11.9-7.6c4.4-1.9,9-3.2,13.9-4c4.8-0.6,9.7-0.5,14.6,0.1
				c4.9,0.7,9.6,2.2,14.2,4.2c4.5,2.1,8.7,5,12.6,8.2c-3.5-3.6-7.3-7-11.8-9.6c-4.5-2.5-9.3-4.6-14.4-5.9
				c-5.1-1.2-10.4-1.8-15.7-1.6c-5.3,0.3-10.6,1.4-15.7,3.1c-5,1.9-9.8,4.4-14.3,7.5c-4.3,3.3-8.3,7-11.5,11.4
				c-6.5,8.7-10.4,19.4-11,30.4c-0.2,5.5,0.2,11.1,1.6,16.5s3.5,10.6,6.5,15.5c5.9,9.6,14.7,17.5,25.2,22.4c5.3,2.4,10.8,4.2,16.6,5
				s11.7,0.9,17.5,0.1c5.8-0.9,11.5-2.5,16.9-4.9c5.4-2.5,10.3-5.8,14.8-9.6l0.2-0.2c3.6-3.3,3.8-8.9,0.4-12.5
				C206.6,196.7,200.9,196.5,197.3,199.8"/>
			<path class="st0" d="M239.6,155.8c-8.4,0-15.2,6.7-15.2,14.9s6.8,14.9,15.2,14.9s15.2-6.7,15.2-14.9S248,155.8,239.6,155.8"/>
			<path class="st0" d="M601.9,222.7c-8.4,0-15.2,6.7-15.2,14.9s6.8,14.9,15.2,14.9s15.2-6.7,15.2-14.9
				C617.1,229.4,610.3,222.7,601.9,222.7"/>
			<path class="st1" d="M566.4,161.7c-4.9,0-8.9,4-8.8,8.9c0.2,18.3-5.1,36.8-15.4,52.4c-2.5,3.9-5.4,7.6-8.5,11.2l-2.4,2.6
				l-2.6,2.4c-1.7,1.6-3.4,3.3-5.2,4.8c-7.3,6.1-15.4,11.2-24.1,15.2c-8.9,3.8-18.2,6.4-27.9,7.7c-9.7,1.1-19.6,1-29.3-0.3
				c-9.8-1.5-19.2-4.6-28.4-8.7c-9.1-4.2-17.3-10-25.1-16.4c6.9,7.3,14.8,13.9,23.6,19.2c8.9,5.1,18.6,9.1,28.7,11.6
				c10.2,2.3,20.7,3.4,31.3,2.9c10.6-0.7,21-2.8,31.1-6.3c10-3.8,19.5-8.8,28.2-15.1c2.1-1.6,4.1-3.4,6.2-5.1l3.1-2.6l2.9-2.8
				c3.8-3.8,7.3-7.9,10.5-12.2c12.8-17.3,20.4-38.5,21.2-60.2v-0.1v-0.4C575.4,165.6,571.3,161.7,566.4,161.7"/>
			<path class="st1" d="M394.9,107.8l2.7-2.7l2.5-2.3c3.2-3.2,6.9-5.8,10.5-8.5c14.9-10.2,33-15.8,51.3-16.2
				c18.3-0.2,36.7,4.9,52.2,14.6l0.2,0.1c5,3.1,11.6,1.8,15-3c3.4-4.9,2.1-11.7-2.9-15c-18.9-12.6-41.6-19.8-64.5-20
				c-22.9,0-46,6.6-65.2,19.3c-4.7,3.3-9.4,6.7-13.5,10.6l-3.2,2.9l-2.8,2.7l-5.5,5.3l-22,21.4l-43.8,43l-43.6,43.1l-21.8,21.6
				l-5.4,5.4l-2.7,2.7l-2.5,2.3c-3.2,3.2-6.9,5.8-10.5,8.5c-14.9,10.2-33,15.9-51.3,16.2c-18.3,0.2-36.7-4.9-52.2-14.6l-0.2-0.1
				c-5-3.1-11.7-1.8-15,3c-3.4,4.9-2.1,11.7,2.9,15.1c18.9,12.6,41.6,19.8,64.6,19.9c22.9,0,46-6.6,65.2-19.3
				c4.7-3.3,9.4-6.7,13.5-10.6l3.2-2.9l2.8-2.7l5.5-5.3l22-21.4l43.8-43l43.7-43.1l21.8-21.6L394.9,107.8z"/>
			<path class="st1" d="M106.4,94c7.3-6.1,15.4-11.2,24.1-15.2c8.8-3.8,18.2-6.4,27.9-7.7c9.7-1.1,19.6-1,29.3,0.3
				c9.8,1.5,19.2,4.6,28.4,8.6c9.1,4.2,17.3,10,25.1,16.4c-6.9-7.3-14.8-13.9-23.6-19.2c-8.9-5.1-18.6-9.1-28.7-11.6
				c-10.2-2.3-20.7-3.5-31.3-2.9c-10.6,0.7-21,2.8-31.1,6.3c-10,3.8-19.5,8.8-28.2,15.1c-2.1,1.6-4.1,3.4-6.2,5.1L89,91.8l-2.9,2.8
				c-3.8,3.8-7.3,7.8-10.5,12.2c-12.8,17.3-20.4,38.5-21.2,60.2v0.1v0.4c0,4.9,4.1,8.8,9,8.8c5,0,8.9-4,8.9-8.9
				c-0.2-18.3,5.1-36.8,15.3-52.4c2.5-3.9,5.4-7.6,8.5-11.1l2.4-2.6l2.6-2.4C103,97.3,104.6,95.6,106.4,94"/>
			<path class="st1" d="M75.4,201.8c-8.4,0-15.2,6.7-15.2,14.9s6.8,14.9,15.2,14.9s15.2-6.7,15.2-14.9
				C90.6,208.4,83.8,201.8,75.4,201.8"/>
			<path class="st1" d="M554.4,136.5c8.4,0,15.2-6.7,15.2-14.9s-6.8-14.9-15.2-14.9s-15.2,6.7-15.2,14.9S546,136.5,554.4,136.5"/>
			<path class="st2" d="M518.1,153.5c-1.4-5.4-3.5-10.6-6.5-15.5c-5.9-9.6-14.7-17.5-25.2-22.4c-5.2-2.4-10.8-4.2-16.6-5
				c-5.8-0.8-11.7-0.9-17.5-0.1c-5.8,0.9-11.5,2.5-16.9,4.9c-5.4,2.5-10.3,5.8-14.8,9.6l-0.2,0.2c-3.6,3.3-3.8,8.9-0.5,12.4
				c3.4,3.5,9,3.8,12.6,0.4l0.2-0.2c3.1-2.8,6.5-5.4,10.2-7.4c3.8-1.9,7.8-3.3,12-4.2c4.2-0.8,8.5-1,12.9-0.6
				c4.3,0.3,8.5,1.5,12.6,3c8.1,3.2,15.2,8.9,20.3,16.1c2.6,3.6,4.5,7.6,6,11.8c1.4,4.2,2.1,8.7,2.3,13.1c0.2,9-2.3,18.1-7.3,25.9
				c-2.4,3.9-5.6,7.4-9.1,10.5c-3.6,3.1-7.6,5.6-11.9,7.7c-4.4,1.9-9,3.2-13.9,3.9c-4.8,0.6-9.7,0.6-14.6-0.1
				c-4.9-0.7-9.6-2.2-14.2-4.3c-4.5-2.1-8.7-4.9-12.6-8.2c3.5,3.6,7.4,7,11.8,9.6c4.5,2.6,9.3,4.6,14.3,5.9
				c5.1,1.2,10.4,1.8,15.7,1.6c5.3-0.3,10.6-1.4,15.7-3.1c5-1.9,9.8-4.4,14.2-7.5c4.3-3.3,8.3-7,11.5-11.4
				c6.5-8.7,10.4-19.4,11-30.4C519.9,164.5,519.5,158.9,518.1,153.5"/>
			<path class="st2" d="M345.4,196.2l-44.3,42.5L279,260l-5.5,5.3c-1.8,1.7-3.8,3.7-5.5,5.2c-3.4,3.2-7,6.3-10.7,9.2
				c-29.8,23.3-69.1,34-106.7,29.4c-18.8-2.2-37.2-8-53.6-17.1c-8.2-4.6-16-9.9-23.3-16c-7.2-6.1-13.8-12.9-19.7-20.2
				c-11.7-14.7-20.6-31.6-25.8-49.7c-5.1-18.1-6.7-37.2-4.6-55.9v-0.1c0.7-5.8-3.5-11.1-9.4-11.9c-6-0.8-11.6,3.3-12.4,9.2
				c-3.1,21.5-2,43.7,3.5,64.8c5.6,21.1,15.5,41.2,29.1,58.6c13.7,17.3,30.6,32.1,50,43s41,17.9,63.2,20.5s44.8,0.8,66.3-5.3
				c21.5-6,41.6-16.4,58.9-30.2c4.3-3.5,8.5-7.1,12.4-11c2.1-1.9,3.7-3.7,5.6-5.5l5.4-5.4l21.7-21.8l43.1-43.7
				c4.1-4.2,4.2-10.9,0-15.1C356.7,192.2,349.8,192.1,345.4,196.2"/>
			<path class="st2" d="M64.7,65.3C78.1,51.8,94,40.7,111.8,33.1c8.9-3.8,18.1-6.8,27.7-8.9c9.5-2.1,19.2-3.4,29.1-3.7
				c19.6-0.6,39.5,2.6,58.2,9.3c18.7,6.8,36.2,17.1,51.4,30.5c-13.5-14.9-30.3-27.3-49.1-35.9c-18.7-8.7-39.4-13.6-60.4-14.4
				c-10.5-0.4-21.1,0.2-31.5,1.8c-10.4,1.7-20.7,4.4-30.7,8c-19.9,7.3-38.5,18.5-54.2,33l0,0L51.8,53c-3.5,3.5-3.4,9.1,0.2,12.5
				C55.5,68.8,61.2,68.8,64.7,65.3"/>
			<path class="st2" d="M27.9,115.6c8.4,0,15.2-6.7,15.2-14.9s-6.8-14.9-15.2-14.9s-15.2,6.7-15.2,14.9
				C12.7,108.9,19.5,115.6,27.9,115.6"/>
			<path class="st2" d="M390.2,152.6c-8.4,0-15.2,6.7-15.2,14.9s6.8,14.9,15.2,14.9s15.2-6.7,15.2-14.9
				C405.4,159.3,398.6,152.6,390.2,152.6"/>
			<path class="st3" d="M702,177.9c0-45,33.2-77.6,78.2-77.6c44.8,0,64.5,27.1,64.5,41c0,12.6-17.5,15.1-18.4,13.5
				c-6.9-16.3-19.7-28.9-45.4-28.9c-28.2,0-49.5,21.9-49.5,52c0,30.5,21,52.7,49.5,52.7c25.3,0,38.5-12.6,45.4-28.9
				c0.9-1.5,18.4,0.6,18.4,13.9c0,13.5-20,40.6-64.5,40.6C734.9,256.1,702,223.5,702,177.9"/>
			<path class="st3" d="M961.2,193.6v-11.4l-8.5,0.3c-43.8,1.5-66.3,9.5-66.3,29.6c0,13.2,10.6,21.6,28.5,21.6
				C941.8,233.7,961.2,217,961.2,193.6 M856,213.3c0-34.2,33.2-49,101.1-50.2h4.1V160c0-22.5-13.1-34.8-37.3-34.8
				c-22.8,0-36.3,11.7-43.2,25.2c0,0.3-19.1,0-19.1-14.8c0-14.2,21.9-35.4,64.5-35.4s65.7,21.5,65.7,59.1v90.8
				c0,1.5-5.6,3.4-11.3,3.4c-11,0-18.8-5.9-19.1-23.7c-11.6,16-31.3,25.5-54.2,25.5C875.1,255.5,856,238.6,856,213.3"/>
			<path class="st3" d="M1051.4,125.3c10.3-14.5,26-24.9,46.6-24.9c24.4,0,41.3,11.4,49.1,31.1c10.3-17.2,27.2-31.1,52.3-31.1
				c38.2,0,56.6,22.8,56.6,61V239c0,11.1-5.6,14.5-13.8,14.5h-3.1c-8.4,0-14.1-3.4-14.1-14.5v-74c0-25-10.9-37.9-33.2-37.9
				c-16,0-30.3,9.9-38.2,24.6v87.1c0,11.1-5.6,14.5-13.8,14.5h-3.1c-8.1,0-14.1-3.4-14.1-14.5v-72.7c0-26.2-11-39.1-33.2-39.1
				c-15.6,0-30.4,9.9-37.9,24.6v87.1c0,11.1-5.9,14.5-13.8,14.5h-3.4c-8.2,0-13.8-3.4-13.8-14.5v-133c0-0.9,5-3.4,11.3-3.4
				C1040.8,102.5,1050.2,106.8,1051.4,125.3"/>
			<path class="st3" d="M1408.9,178.2c0-30.8-19.4-52.7-46.3-52.7c-23.2,0-39.1,12-46.9,30.8v31.1c0,24.9,21.3,43.4,46.3,43.4
				C1390.1,230.9,1408.9,209.6,1408.9,178.2 M1285,298V105.9c0-0.9,5-3.4,11.3-3.4c9.1,0,19.1,4.9,19.4,25.9
				c11.6-17.6,28.8-28,52.9-28c40.4,0,70.4,30.5,70.4,77.6c0,46.5-29.7,78.2-71.4,78.2c-25,0-43.2-12.9-51.6-27.7V298
				c0,11.1-5.9,14.5-13.8,14.5h-3.4C1290.6,312.5,1285,309.1,1285,298"/>
			<path class="st3" d="M1567,230c-10.6,15.1-26.9,25.9-50.1,25.9c-39.8,0-57.9-26.5-57.9-63.4v-75.1c0-11.1,5.6-14.8,13.5-14.8h3.4
				c8.2,0,13.8,3.4,13.8,14.8v71.4c0,25.6,13.1,40.6,36,40.6c18.8,0,33.5-10.5,41.3-26.2v-85.9c0-11.1,5.6-14.8,13.5-14.8h3.4
				c8.2,0,13.8,3.4,13.8,14.8V250c0,0.9-5,3.4-10.9,3.4C1577.3,253.4,1567.6,249,1567,230"/>
			<path class="st3" d="M1734.8,230c-10.7,15.1-26.9,25.9-50.1,25.9c-39.8,0-57.9-26.5-57.9-63.4v-75.1c0-11.1,5.6-14.8,13.4-14.8
				h3.4c8.2,0,13.8,3.4,13.8,14.8v71.4c0,25.6,13.1,40.6,36,40.6c18.8,0,33.5-10.5,41.3-26.2v-85.9c0-11.1,5.6-14.8,13.4-14.8h3.4
				c8.2,0,13.8,3.4,13.8,14.8V250c0,0.9-5,3.4-11,3.4C1745.1,253.4,1735.5,249,1734.8,230"/>
			<path class="st3" d="M1785,224.4c0-9.5,11.3-14.5,12.2-13.9c10,12.6,26.9,22.2,50.7,22.2c21.3,0,33.2-7.7,33.2-20
				c0-15.1-14.1-17.9-38.8-23.1c-22.2-4.6-52.9-11.4-52.9-42.8c0-27.7,23.5-46.5,60.1-46.5c38.5,0,57.9,16,57.9,29.9
				c0,9.6-11.9,15.1-12.5,14.2c-9.4-12.3-25-20.9-44.1-20.9c-21.3,0-32.5,8-32.5,20.3c0,13.5,13.2,16.6,37.6,21.9
				c23.2,4.9,55.4,11.7,55.4,43.7c0,28.3-23.8,46.5-62.6,46.5C1806.6,255.8,1785,238.6,1785,224.4"/>
		</g>
	</g>
	<g>
		<path class="st4" d="M1915.2,245v-2c0-5.7,3.1-9,9.2-9h2.2c6.3,0,9.4,3.3,9.4,9v2c0,5.7-3.2,8.8-9.4,8.8h-2.2
			C1918.4,253.8,1915.2,250.7,1915.2,245"/>
		<path class="st4" d="M2007.8,241.7c-5.8,8.2-14.7,14.1-27.3,14.1c-21.7,0-31.6-14.4-31.6-34.6v-41c0-6,3.1-8.1,7.3-8.1h1.9
			c4.4,0,7.5,1.8,7.5,8.1v39c0,13.9,7.2,22.2,19.6,22.2c10.2,0,18.3-5.7,22.5-14.3v-46.9c0-6,3.1-8.1,7.3-8.1h1.9
			c4.4,0,7.5,1.8,7.5,8.1v72.4c0,0.5-2.7,1.8-6,1.8C2013.4,254.5,2008.2,252.1,2007.8,241.7"/>
		<path class="st4" d="M2035.2,238.7c0-5.2,6.1-7.9,6.7-7.6c5.5,6.9,14.7,12.1,27.7,12.1c11.6,0,18.1-4.2,18.1-10.9
			c0-8.2-7.7-9.7-21.2-12.6c-12.1-2.5-28.8-6.2-28.8-23.3c0-15.1,12.8-25.4,32.8-25.4c21,0,31.6,8.7,31.6,16.3
			c0,5.2-6.5,8.2-6.8,7.7c-5.1-6.7-13.6-11.4-24.1-11.4c-11.6,0-17.7,4.4-17.7,11.1c0,7.4,7.2,9.1,20.5,11.9
			c12.6,2.7,30.2,6.4,30.2,23.8c0,15.5-13,25.4-34.1,25.4C2046.9,255.8,2035.2,246.4,2035.2,238.7"/>
	</g>
</g>
</svg>
