<?xml version="1.0" encoding="utf-8"?>
<!-- Generator: Adobe Illustrator 24.3.0, SVG Export Plug-In . SVG Version: 6.00 Build 0)  -->
<svg version="1.1" id="Layer_1" xmlns="http://www.w3.org/2000/svg" xmlns:xlink="http://www.w3.org/1999/xlink" x="0px" y="0px"
	 viewBox="0 0 150 100" style="enable-background:new 0 0 150 100;" xml:space="preserve">
<style type="text/css">
	.st0{fill:none;stroke:#00E5FF;stroke-width:10;stroke-linecap:round;stroke-linejoin:round;stroke-miterlimit:10;}
	.st1{fill:none;stroke:#FF6D00;stroke-width:10;stroke-linecap:round;stroke-linejoin:round;stroke-miterlimit:10;}
	.st2{fill:none;stroke:#FFBB00;stroke-width:10;stroke-linecap:round;stroke-linejoin:round;stroke-miterlimit:10;}
	.st3{fill:#FFFFFF;}
	.st4{fill:#475993;}
</style>
<g>
	<g>
		<line class="st0" x1="81.3" y1="12.8" x2="19.8" y2="74.4"/>
		<line class="st0" x1="7" y1="87.1" x2="7" y2="87.1"/>
	</g>
	<g>
		<line class="st1" x1="68.7" y1="87.1" x2="130.2" y2="25.6"/>
		<line class="st1" x1="143" y1="12.8" x2="143" y2="12.8"/>
	</g>
	<line class="st2" x1="112.5" y1="12.8" x2="38.2" y2="87.2"/>
</g>
<g>
	<rect x="60.5" y="23.6" class="st3" width="42" height="63.5"/>
	<path class="st4" d="M103.3,12.8H49c-5.5,0-10,4.5-10,10v54.3c0,5.5,4.5,10,10,10h26.8l0-26.6h-6.9c-0.9,0-1.6-0.7-1.6-1.6l0-8.6
		c0-0.9,0.7-1.6,1.6-1.6h6.9v-8.3c0-9.6,5.9-14.8,14.4-14.8h7c0.9,0,1.6,0.7,1.6,1.6v7.2c0,0.9-0.7,1.6-1.6,1.6l-4.3,0
		c-4.7,0-5.6,2.2-5.6,5.5v7.2h10.2c1,0,1.7,0.9,1.6,1.8l-1,8.6c-0.1,0.8-0.8,1.4-1.6,1.4h-9.2l0,26.6h15.9c5.5,0,10-4.5,10-10V22.8
		C113.3,17.3,108.8,12.8,103.3,12.8z"/>
</g>
</svg>
