<?xml version="1.0" encoding="utf-8"?>
<!-- Generator: Adobe Illustrator 24.0.1, SVG Export Plug-In . SVG Version: 6.00 Build 0)  -->
<svg version="1.1" id="Layer_1" xmlns="http://www.w3.org/2000/svg" xmlns:xlink="http://www.w3.org/1999/xlink" x="0px" y="0px"
	 viewBox="0 0 136.1 199.2" style="enable-background:new 0 0 136.1 199.2;" xml:space="preserve">
<style type="text/css">
	.st0{fill:#1A1818;}
	.st1{fill:#156099;}
</style>
<g>
	<path class="st0" d="M12.4,9.2H1.9V1.1h30.5v8.1H21.8v35.3h-9.4V9.2z"/>
	<path class="st0" d="M56.3,1.1V18h21.4V1.1h9.4v43.4h-9.4V26.3H56.3v18.2h-9.4V1.1H56.3z"/>
	<path class="st0" d="M131.1,25.9H117v10.7h15.8v7.8h-25.2V1.1h24.4v7.8h-15v9.3h14.1V25.9z"/>
</g>
<g>
	<path d="M61.5,132.3H50c-17.7,0-32-14.4-32-32s14.4-32,32-32h11.6c6.5-8,15.4-14.1,25.6-17H50c-27,0-49,22-49,49s22,49,49,49h37.1
		C76.9,146.4,68,140.3,61.5,132.3z"/>
	<path class="st1" d="M92.1,91.8v17h26.1v23.5h-17c-17.7,0-32-14.4-32-32s14.4-32,32-32h31.6v-17h-31.6c-0.2,0-0.3,0-0.5,0
		C86.1,51.4,73,58,64.1,68.3c-7.4,8.6-11.9,19.8-11.9,32c0,12.2,4.5,23.4,11.9,32c8.9,10.3,22,16.8,36.6,17c0.2,0,0.3,0,0.5,0h34
		V91.8H92.1z"/>
</g>
<g>
	<path class="st0" d="M3.8,157.9c2.4-0.5,6.7-0.8,10.9-0.8c5,0,8.5,0.5,11.3,2.4c2.6,1.6,4.3,4.3,4.3,7.7c0,3.5-2,6.9-6.4,8.6v0.2
		c4.6,1.2,7.7,4.8,7.7,9.8c0,3.6-1.5,6.4-3.8,8.3c-2.8,2.4-7.4,3.8-15,3.8c-4,0-7.1-0.3-9-0.5V157.9z M12.4,173.4H15
		c4.2,0,6.6-2.1,6.6-5.2c0-3-2-4.8-5.9-4.8c-1.6,0-2.6,0.1-3.3,0.3V173.4z M12.4,191.2c0.8,0.1,1.7,0.2,3,0.2c3.8,0,7.1-1.7,7.1-5.9
		c0-4-3.3-5.8-7.4-5.8h-2.7V191.2z"/>
	<path class="st0" d="M37.6,157.9c2.8-0.5,6.7-0.8,11-0.8c5.4,0,9.5,0.8,12.3,3.1c2.4,2,3.6,4.8,3.6,8.4c0,4.8-3.2,8.5-6.8,9.9v0.2
		c2.8,1.1,4.3,3.7,5.2,7.6c1.1,4.5,2.3,9.7,3,11.2h-8.9c-0.6-1.1-1.6-4.6-2.5-9.4c-1-5-2.5-6.4-5.9-6.4h-2.2v15.8h-8.6V157.9z
		 M46.2,175.2h2.9c4.2,0,6.6-2.4,6.6-5.9c0-3.6-2.2-5.6-6.1-5.7c-1.7,0-2.8,0.1-3.4,0.3V175.2z"/>
	<path class="st0" d="M103.3,176.9c0,13.7-7.2,21.1-17.7,21.1c-11,0-17-9.2-17-20.5c0-11.7,6.7-20.8,17.6-20.8
		C97.8,156.8,103.3,166.4,103.3,176.9z M77.7,177.5c0,8.2,3.1,13.5,8.3,13.5c5.3,0,8.1-5.8,8.1-13.7c0-7.2-2.7-13.4-8.1-13.4
		C80.8,163.8,77.7,169.4,77.7,177.5z"/>
	<path class="st0" d="M108.9,188.5c2.2,1.2,5.6,2.2,9,2.2c4,0,6.1-1.8,6.1-4.4c0-2.6-1.9-4-6.3-5.9c-6.3-2.7-10-6.5-10-11.7
		c0-6.7,5.3-12,14.4-12c4,0,7.1,0.9,9.1,1.8l-1.8,7.1c-1.5-0.7-4-1.7-7.4-1.7c-3.8,0-5.6,1.9-5.6,4c0,2.5,1.9,3.7,6.9,5.8
		c6.6,2.8,9.4,6.6,9.4,11.8c0,6.9-5.2,12.4-15.3,12.4c-4.2,0-8.3-1.1-10.2-2.2L108.9,188.5z"/>
</g>
</svg>
