<?xml version="1.0" encoding="utf-8"?>
<!-- Generator: Adobe Illustrator 24.2.1, SVG Export Plug-In . SVG Version: 6.00 Build 0)  -->
<svg version="1.1" id="Layer_1" xmlns="http://www.w3.org/2000/svg" xmlns:xlink="http://www.w3.org/1999/xlink" x="0px" y="0px"
	 viewBox="0 0 300 100" style="enable-background:new 0 0 300 100;" xml:space="preserve">
<style type="text/css">
	.st0{fill:#546E7A;}
</style>
<g>
	<path class="st0" d="M58.1,15.5c-0.8,0.5-1.3,1.2-1.6,1.9c-0.3,0.8-0.4,1.7-0.4,2.5c-0.1,1.3-0.1,2.5-0.2,4c-0.1,1.4-0.1,3-0.2,4.6
		c-0.1,1.8-0.1,3.6-0.1,5.7v2.9c0,1.1,0,2.1,0,3.2c0,1.1,0,2.2,0,3.3v3c0,0.1,0,0.3-0.1,0.3C55.5,47,55.3,47,55.2,47
		c-0.3,0-0.6-0.2-0.8-0.4c-2.5-3-4.9-5.7-7-8.2l-6.1-7.2l-5.6-6.6c-1.9-2.2-3.8-4.4-5.9-6.7v19.1c0,1.5,0,3,0.1,4.2
		c0,0.9,0.2,1.9,0.6,2.8c0.3,0.7,0.8,1.3,1.6,1.6c0.9,0.4,1.9,0.7,3,0.8v0.3H23.9v-0.5c0.8-0.1,1.5-0.3,2.2-0.6
		c0.7-0.3,1.3-0.8,1.7-1.4c0.5-0.8,0.8-1.9,0.8-2.8c0.1-1.3,0.3-2.7,0.3-4.5c0.1-1.3,0.1-2.9,0.2-4.6c0-1.8,0-3.7,0-5.7v-5.6
		c0-0.6,0-1.3,0-2.2c-0.1-0.8-0.3-1.5-0.6-2.2c-0.3-0.3-0.8-0.8-1.3-1.2c-0.4-0.3-0.9-0.5-1.4-0.7c-0.5-0.1-1-0.2-1.5-0.3v-0.5h9.2
		l21.5,25.1V23.9c0-1.2,0-2.4,0-3.5c0-0.9-0.2-1.8-0.4-2.6c-0.3-0.8-0.8-1.5-1.6-2c-1-0.6-2.2-1-3.4-1.1v-0.6h11.2v0.4
		C59.8,14.7,58.9,15,58.1,15.5z"/>
	<path class="st0" d="M69.7,46.3c-0.5,0.4-1.2,0.7-1.9,0.7c-0.7,0-1.4-0.3-1.9-0.7c-0.5-0.5-0.8-1.2-0.8-1.9c0-0.8,0.3-1.4,0.8-1.9
		c0.5-0.5,1.2-0.8,1.9-0.8c0.8,0,1.4,0.3,1.9,0.8c0.5,0.6,0.8,1.3,0.8,2C70.4,45.1,70.2,45.8,69.7,46.3z"/>
	<path class="st0" d="M93.4,46.9v-0.4c0.3,0,0.4-0.1,0.7-0.1c0.3-0.1,0.8-0.2,1.1-0.3s0.8-0.3,1-0.6c0.3-0.3,0.4-0.7,0.4-1
		c0-0.4-0.1-0.9-0.3-1.3c-0.2-0.6-0.4-1.3-0.7-2.3c-0.3-0.9-0.7-1.9-1-3c-0.4-1.1-0.8-2.2-1.3-3.4H81.1c-0.4,1.2-0.9,2.3-1.3,3.3
		l-1.3,3.1c-0.5,1.1-0.8,2.3-1,3.5c0,0.3,0.1,0.8,0.3,1c0.3,0.3,0.6,0.5,0.9,0.6c0.4,0.2,0.8,0.3,1.3,0.3l1.3,0.2v0.4h-9.6v-0.5
		c0.8-0.1,1.4-0.3,2-0.6c0.3-0.2,0.7-0.4,1-0.7c0.4-0.5,0.8-0.9,1-1.5c0.7-1.1,1.3-2.3,1.8-3.5c0.6-1.4,1.3-3,2.1-4.9l2.4-5.6
		c0.8-1.9,1.7-3.9,2.4-5.8s1.6-3.8,2.3-5.5l-0.4-1c0.5-0.3,1-0.5,1.5-0.8c0.4-0.3,0.8-0.7,1.2-1c0.3-0.3,0.6-0.7,0.8-1
		c0.3-0.3,0.4-0.6,0.5-0.8h0.3l2.8,7.1c0.8,2.3,1.7,4.5,2.4,6.5l2.3,6.1c0.8,1.9,1.4,3.9,2.2,5.8c0.3,0.9,0.7,1.7,0.9,2.4l1,2.1
		c0.1,0.3,0.3,0.4,0.4,0.6c0.3,0.3,0.5,0.7,0.8,0.9c0.4,0.3,0.8,0.6,1.3,0.8c0.6,0.3,1.2,0.4,1.9,0.4v0.5H93.4L93.4,46.9z
		 M87.4,19.4c-0.2,0.4-0.4,1-0.8,1.9c-0.3,0.8-0.8,1.9-1.3,3c-0.5,1.2-1.1,2.5-1.7,4l-2.1,5.1h11.4c-0.5-1.3-1-2.7-1.6-4
		c-0.5-1.3-1-2.7-1.5-4l-1.3-3.5C88,20.9,87.6,20.1,87.4,19.4z"/>
	<path class="st0" d="M112.7,46.3c-0.5,0.4-1.2,0.7-1.9,0.7c-0.7,0-1.4-0.3-1.9-0.7c-0.5-0.5-0.8-1.2-0.8-1.9c0-0.8,0.3-1.4,0.8-1.9
		c0.5-0.5,1.2-0.8,1.9-0.8c0.8,0,1.4,0.3,1.9,0.8s0.8,1.3,0.8,2C113.4,45.1,113.2,45.8,112.7,46.3z"/>
	<path class="st0" d="M146.8,46.9h-29.2v-0.4c0.8-0.1,1.5-0.3,2.3-0.6c0.7-0.3,1.3-0.6,1.8-1.1c0.2-0.3,0.3-0.5,0.4-0.8
		c0.1-0.4,0.2-0.8,0.3-1.2c0.1-0.4,0.1-0.9,0.2-1.4s0.1-1,0.1-1.5c0-0.4,0-1,0-1.7s0-1.5,0-2.4s0-1.8,0-2.6V20c0-0.5,0-1-0.1-1.5
		c0-0.4-0.1-0.8-0.2-1.3c-0.1-0.3-0.2-0.6-0.4-0.8c-0.4-0.5-1-0.9-1.7-1.2c-0.8-0.3-1.4-0.4-2.3-0.5v-0.5h14.5v0.4
		c-0.4,0.1-0.8,0.2-1.4,0.3c-0.5,0.1-1.1,0.3-1.5,0.6c-0.5,0.3-0.9,0.7-1.3,1.2c-0.3,0.6-0.6,1.3-0.6,1.9c0,1.1,0,2-0.1,2.9
		c-0.1,0.8-0.1,1.8,0,2.6c0,0.8,0,1.7,0,2.6v8.4c0,0.8,0,1.6,0,2.4c0,0.8,0,1.8,0,2.8s0,1.9,0.1,2.8c0,0.7,0.2,1.3,0.5,1.9
		c0.2,0.2,0.4,0.3,0.8,0.4c0.4,0.2,0.8,0.3,1.3,0.4c0.5,0.1,1.1,0.2,1.7,0.3s1.2,0.1,1.9,0.1h1.2c0.5,0,1.1,0,1.8-0.1
		c0.7-0.1,1.3-0.2,1.9-0.2c0.6-0.1,1.2-0.2,1.8-0.3c1.1-0.3,2.1-0.7,3-1.3c0.8-0.5,1.4-1.2,2-1.9c0.6-0.8,1.1-1.5,1.5-2.4
		c0.4-0.8,0.8-1.7,1.1-2.6l0.4,0.2L146.8,46.9z"/>
	<path class="st0" d="M155.9,46.3c-0.5,0.4-1.2,0.7-1.9,0.7c-0.7,0-1.4-0.3-1.9-0.7c-0.5-0.5-0.8-1.2-0.8-1.9c0-0.8,0.3-1.4,0.8-1.9
		s1.2-0.8,1.9-0.8c0.8,0,1.4,0.3,1.9,0.8c0.5,0.6,0.8,1.3,0.8,2C156.6,45.1,156.4,45.8,155.9,46.3z"/>
	<path class="st0" d="M183.8,41.8c-0.6,1.2-1.4,2.2-2.4,3c-1.1,0.8-2.4,1.5-3.8,1.9c-1.5,0.4-3.1,0.6-4.7,0.6
		c-1.3,0-2.5-0.1-3.8-0.3c-0.9-0.2-1.8-0.3-2.6-0.7c-0.5-0.2-1.1-0.4-1.6-0.7c-0.2-0.2-0.4-0.3-0.7-0.3c-0.3,0.1-0.4,0.3-0.6,0.5
		c-0.3,0.3-0.6,0.7-0.8,1h-0.4v-9h0.4c0.3,0.8,0.6,1.6,1,2.4s0.8,1.5,1.3,2.2c0.5,0.7,1,1.3,1.6,1.8c0.5,0.4,1,0.8,1.6,1.2
		c0.7,0.3,1.3,0.6,2,0.8c2.7,0.8,5.7,0.3,7.9-1.4c1.3-1.3,2.1-3.1,2-5c0-0.8-0.1-1.5-0.4-2.2c-0.3-0.6-0.7-1.2-1.1-1.7
		c-0.5-0.4-1-0.8-1.6-1.2c-0.7-0.3-1.3-0.7-2-0.9c-0.8-0.3-1.3-0.5-1.9-0.7l-1.5-0.5l-1.4-0.5c-0.5-0.2-1.1-0.4-1.8-0.7
		c-0.8-0.3-1.6-0.8-2.3-1.3c-0.7-0.5-1.3-1.2-1.9-1.9c-0.6-0.8-1-1.5-1.3-2.4c-0.3-0.8-0.5-1.8-0.5-2.8c0-1.4,0.3-2.9,0.9-4.2
		c0.6-1.2,1.4-2.2,2.4-3c1-0.8,2.2-1.3,3.5-1.7c1.3-0.4,2.8-0.6,4.1-0.6c1.2,0,2.4,0.1,3.5,0.3c0.8,0.2,1.6,0.4,2.4,0.8
		c0.5,0.2,0.9,0.4,1.4,0.8c0.2,0.2,0.3,0.3,0.5,0.3c0.3-0.1,0.4-0.3,0.6-0.5c0.3-0.3,0.6-0.8,0.8-1.1h0.5v8.4h-0.5
		c-0.3-1-0.8-2-1.4-3c-0.6-0.9-1.3-1.9-2-2.6c-0.8-0.8-1.6-1.4-2.5-1.9c-1-0.5-2.1-0.8-3.2-0.8c-0.9,0-1.8,0.2-2.7,0.4
		c-0.8,0.3-1.5,0.7-2.2,1.3c-0.6,0.6-1.1,1.3-1.4,2c-0.3,0.8-0.5,1.8-0.5,2.8c-0.1,1.4,0.4,2.8,1.4,3.9c1.1,1,2.4,1.9,3.8,2.3
		c0.6,0.3,1.2,0.4,1.7,0.6l1.5,0.5l1.6,0.5l1.7,0.6c1.9,0.6,3.5,1.8,4.8,3.3c1.2,1.5,1.8,3.5,1.8,5.4
		C184.7,39.3,184.4,40.6,183.8,41.8z"/>
	<path class="st0" d="M194.3,46.3c-0.5,0.4-1.2,0.7-1.9,0.7c-0.7,0-1.4-0.3-1.9-0.7c-0.5-0.5-0.8-1.2-0.8-1.9c0-0.8,0.3-1.4,0.8-1.9
		c0.5-0.5,1.2-0.8,1.9-0.8c0.8,0,1.4,0.3,1.9,0.8s0.8,1.3,0.8,2C195.1,45.1,194.8,45.8,194.3,46.3z"/>
	<path class="st0" d="M218,46.9v-0.4c0.3,0,0.4-0.1,0.7-0.1c0.3-0.1,0.8-0.2,1.1-0.3c0.3-0.2,0.8-0.3,1-0.6c0.3-0.3,0.4-0.7,0.4-1
		c0-0.4-0.1-0.9-0.3-1.3c-0.2-0.6-0.4-1.3-0.7-2.3c-0.3-0.9-0.7-1.9-1-3c-0.4-1.1-0.8-2.2-1.3-3.4h-12.1c-0.4,1.2-0.9,2.3-1.3,3.3
		l-1.3,3.1c-0.5,1.1-0.8,2.3-0.9,3.5c0,0.3,0.1,0.8,0.3,1c0.3,0.3,0.6,0.5,0.9,0.6c0.4,0.2,0.8,0.3,1.3,0.3l1.3,0.2v0.4h-9.7v-0.5
		c0.8-0.1,1.4-0.3,2-0.6c0.3-0.2,0.7-0.4,1-0.7c0.4-0.5,0.8-0.9,1-1.5c0.7-1.1,1.3-2.3,1.8-3.5c0.6-1.4,1.3-3,2.1-4.9l2.4-5.6
		c0.8-1.9,1.7-3.9,2.4-5.8c0.8-1.9,1.6-3.8,2.3-5.5l-0.4-1c0.5-0.3,1-0.5,1.5-0.8c0.4-0.3,0.8-0.7,1.2-1s0.6-0.7,0.8-1
		c0.3-0.3,0.4-0.6,0.5-0.8h0.3l2.7,7.2c0.8,2.3,1.7,4.5,2.4,6.5l2.3,6.1c0.8,1.9,1.4,3.9,2.2,5.8c0.3,0.9,0.7,1.7,0.9,2.4l1,2.1
		c0.1,0.3,0.3,0.4,0.4,0.6c0.3,0.3,0.5,0.7,0.8,0.9c0.4,0.3,0.8,0.6,1.3,0.8c0.6,0.3,1.2,0.4,1.9,0.4v0.4h-13.2H218z M212,19.3
		c-0.2,0.4-0.4,1-0.8,1.9c-0.3,0.8-0.8,1.9-1.3,3s-1.1,2.5-1.7,4l-2,5h11.2c-0.5-1.3-1-2.7-1.6-4c-0.5-1.3-1-2.7-1.5-4l-1.3-3.5
		C212.6,20.9,212.3,20.1,212,19.3L212,19.3z"/>
	<path class="st0" d="M237.3,46.3c-0.5,0.4-1.2,0.7-1.9,0.7c-0.7,0-1.4-0.3-1.9-0.7c-0.5-0.5-0.8-1.2-0.8-1.9c0-0.8,0.3-1.4,0.8-1.9
		c0.5-0.5,1.2-0.8,1.9-0.8c0.8,0,1.4,0.3,1.9,0.8s0.8,1.3,0.8,2C238.1,45.1,237.8,45.8,237.3,46.3z"/>
	<path class="st0" d="M265.2,41.8c-0.6,1.2-1.4,2.2-2.4,3c-1.1,0.8-2.4,1.4-3.7,1.9c-1.5,0.4-3.1,0.6-4.7,0.6
		c-1.3,0-2.5-0.1-3.8-0.3c-0.9-0.2-1.8-0.3-2.6-0.7c-0.5-0.2-1.1-0.4-1.6-0.7c-0.2-0.2-0.4-0.3-0.7-0.3c-0.3,0.1-0.4,0.3-0.6,0.5
		c-0.3,0.3-0.6,0.7-0.8,1h-0.4l-0.2-9h0.4c0.3,0.8,0.6,1.6,1,2.4s0.8,1.5,1.3,2.2c0.5,0.7,1,1.3,1.6,1.8c0.5,0.4,1,0.8,1.6,1.2
		c0.7,0.3,1.3,0.6,2,0.8c2.7,0.8,5.7,0.3,7.9-1.4c1.3-1.3,2.1-3.1,2-5c0-0.8-0.1-1.5-0.4-2.2c-0.3-0.6-0.7-1.2-1.1-1.7
		c-0.5-0.4-1-0.8-1.6-1.2c-0.7-0.3-1.3-0.7-2-0.9c-0.8-0.3-1.3-0.5-1.9-0.7l-1.5-0.5l-1.4-0.5c-0.5-0.2-1.1-0.4-1.8-0.7
		c-0.8-0.3-1.6-0.8-2.3-1.3c-0.8-0.5-1.3-1.2-1.9-1.9c-0.6-0.8-1-1.5-1.3-2.4c-0.3-0.8-0.5-1.8-0.5-2.8c0-1.4,0.3-2.9,0.9-4.2
		c0.6-1.2,1.4-2.2,2.4-3c1-0.8,2.2-1.3,3.5-1.7c1.3-0.4,2.8-0.6,4.1-0.6c1.2,0,2.4,0.1,3.5,0.3c0.8,0.2,1.6,0.4,2.4,0.8
		c0.5,0.2,0.9,0.4,1.4,0.8c0.2,0.2,0.3,0.3,0.5,0.3c0.3-0.2,0.4-0.3,0.5-0.6c0.3-0.3,0.6-0.8,0.8-1.1h0.5v8.4h-0.5
		c-0.3-1-0.8-2-1.4-3c-0.6-0.9-1.3-1.9-2-2.6c-0.8-0.8-1.6-1.4-2.6-1.9c-1-0.5-2.1-0.8-3.2-0.8c-0.9,0-1.8,0.2-2.7,0.4
		c-0.8,0.3-1.5,0.7-2.2,1.3c-0.6,0.6-1.1,1.3-1.4,2c-0.3,0.8-0.5,1.8-0.5,2.8c-0.1,1.4,0.4,2.8,1.4,3.9c1.1,1,2.4,1.9,3.8,2.3
		c0.6,0.3,1.2,0.4,1.7,0.6l1.5,0.5l1.5,0.5l1.7,0.6c1.9,0.6,3.5,1.8,4.8,3.3c1.2,1.5,1.8,3.5,1.7,5.4
		C266.1,39.3,265.8,40.6,265.2,41.8z"/>
	<path class="st0" d="M275.8,46.3c-0.5,0.4-1.2,0.7-1.9,0.7c-0.7,0-1.4-0.3-1.9-0.7c-0.5-0.5-0.8-1.2-0.8-1.9c0-0.8,0.3-1.4,0.8-1.9
		s1.2-0.8,1.9-0.8c0.8,0,1.4,0.3,1.9,0.8s0.8,1.3,0.8,2C276.5,45.1,276.3,45.8,275.8,46.3z"/>
	<path class="st0" d="M79.4,61.1c-0.3,0.2-0.4,0.3-0.5,0.6c-0.1,0.3-0.2,0.5-0.2,0.8c0,0.4,0,0.8-0.1,1.3c0,0.4,0,0.9,0,1.4
		c0,0.6,0,1.2,0,1.8v1c0,0.3,0,0.7,0,1s0,0.7,0,1v0.9V71h-0.1c-0.1,0-0.2-0.1-0.3-0.2L76,68.3L74,66l-1.8-2.1
		c-0.6-0.7-1.2-1.3-1.9-2.1V68c0,0.5,0,0.9,0,1.3c0,0.3,0.1,0.6,0.2,0.8c0.1,0.3,0.3,0.4,0.5,0.5c0.3,0.2,0.6,0.2,0.9,0.3v0.2h-3.5
		v-0.2c0.3,0,0.5-0.1,0.7-0.2c0.3-0.1,0.4-0.3,0.6-0.4c0.2-0.3,0.3-0.6,0.3-0.9c0-0.4,0.1-0.8,0.1-1.4c0-0.4,0-0.9,0-1.4
		c0-0.6,0-1.2,0-1.8v-1.9c0-0.2,0-0.4,0-0.7c0-0.3-0.1-0.5-0.2-0.7c-0.1-0.2-0.3-0.3-0.3-0.4c-0.2-0.1-0.3-0.2-0.5-0.3
		c-0.2,0-0.3-0.1-0.5-0.1v-0.2h3l6.8,7.9v-4.8c0-0.4,0-0.8,0-1.1c0-0.3-0.1-0.6-0.2-0.8c-0.1-0.3-0.3-0.5-0.5-0.7
		c-0.3-0.2-0.7-0.3-1-0.3v-0.2h3.5v0.2C79.9,60.9,79.6,61,79.4,61.1z"/>
	<path class="st0" d="M87.2,70.1c-0.1,0.2-0.2,0.3-0.3,0.5c-0.1,0.2-0.3,0.3-0.4,0.3c-0.5,0.2-1,0.1-1.4-0.2c-0.3-0.3-0.4-0.7-0.3-1
		l0,0c-0.1,0.2-0.2,0.3-0.3,0.4c-0.2,0.2-0.3,0.3-0.4,0.4c-0.2,0.2-0.4,0.3-0.6,0.3c-0.3,0.1-0.5,0.1-0.7,0.1c-0.2,0-0.3,0-0.5-0.1
		s-0.3-0.2-0.4-0.3c-0.2-0.1-0.3-0.3-0.3-0.4s-0.2-0.4-0.1-0.6c0-0.3,0.1-0.6,0.3-0.8c0.3-0.3,0.5-0.5,0.8-0.7l0.8-0.5l0.6-0.4
		l0.5-0.3l0.3-0.2v-1.5c0-0.1,0-0.1,0-0.2c-0.1-0.1-0.1-0.2-0.2-0.3s-0.3-0.2-0.3-0.2c-0.2-0.1-0.3-0.1-0.6-0.1
		c-0.2,0-0.3,0-0.4,0.1c-0.2,0.1-0.3,0.1-0.4,0.2c-0.1,0.1-0.2,0.2-0.3,0.3c-0.1,0.1-0.1,0.2-0.1,0.2v0.7c0,0.2-0.1,0.3-0.2,0.3
		c-0.2,0.1-0.3,0.2-0.4,0.2c-0.2,0-0.3-0.1-0.4-0.2c-0.1-0.1-0.2-0.3-0.2-0.3c0-0.1,0-0.3,0.1-0.3s0.2-0.2,0.3-0.3
		c0.1-0.1,0.2-0.2,0.3-0.3l0.3-0.2l0.8-0.3c0.3-0.2,0.5-0.3,0.8-0.3c0.2-0.1,0.4-0.2,0.7-0.3c0.2-0.1,0.3-0.1,0.5-0.1
		c0.3,0,0.5,0.1,0.7,0.2c0.2,0.1,0.3,0.3,0.5,0.5C86,64.8,86,65,86,65.1c0,0.2,0,0.3,0,0.5c0,0.3,0,0.7,0,0.9s0,0.6,0,0.8
		c0,0.3,0,0.5,0,0.8c0,0.3,0,0.6,0,0.9c0,0.3,0.1,0.6,0.3,0.8c0.2,0.2,0.3,0.2,0.5,0.2s0.3,0,0.5-0.2c0.1-0.1,0.2-0.3,0.3-0.3h0.1
		C87.3,69.8,87.3,70,87.2,70.1z M84.7,67.1c-0.2,0.2-0.4,0.3-0.7,0.4c-0.3,0.2-0.5,0.3-0.8,0.4c-0.3,0.2-0.4,0.3-0.6,0.5
		s-0.3,0.4-0.3,0.7c0,0.3,0.1,0.5,0.3,0.7c0.2,0.2,0.4,0.3,0.7,0.3s0.4,0,0.7-0.1c0.2-0.1,0.4-0.2,0.5-0.3c0.1-0.1,0.2-0.3,0.2-0.3
		V67.1L84.7,67.1z"/>
	<path class="st0" d="M91.7,65.1h-2.2v3.8c0,0.3,0.1,0.8,0.3,1c0.3,0.3,0.5,0.3,0.8,0.3c0.3,0,0.5,0,0.7-0.2
		c0.2-0.1,0.3-0.3,0.5-0.4h0c-0.1,0.2-0.2,0.3-0.3,0.4c-0.1,0.2-0.3,0.3-0.4,0.4c-0.2,0.2-0.3,0.3-0.6,0.3c-0.3,0.1-0.5,0.1-0.8,0.1
		c-0.2,0-0.4,0-0.6-0.1s-0.3-0.2-0.5-0.3c-0.2-0.1-0.3-0.3-0.3-0.4c-0.1-0.2-0.2-0.3-0.2-0.4c0-0.9,0-1.8,0-2.5c0-0.8,0-1.5,0-2.2
		h-1v-0.1l2-1.9h0.1v1.3H92L91.7,65.1z"/>
	<path class="st0" d="M92,71v-0.2h0.3c0.1,0,0.2,0,0.3-0.1c0.1,0,0.2-0.1,0.3-0.2s0.1-0.2,0.1-0.3v-4.9c0-0.1,0-0.2,0-0.2
		c0-0.1-0.1-0.1-0.1-0.2l-0.3-0.2l-0.3-0.2v-0.1l1.9-0.6h0.1v6.4c0,0.1,0.1,0.2,0.1,0.2c0.1,0.1,0.2,0.1,0.3,0.1h0.3h0.3v0.2L92,71
		L92,71z M94,62.4c-0.3,0.3-0.8,0.3-1.1,0c-0.2-0.2-0.3-0.3-0.3-0.5s0.1-0.4,0.2-0.6c0.3-0.3,0.8-0.3,1.1,0c0.2,0.2,0.3,0.3,0.3,0.6
		C94.3,62,94.2,62.2,94,62.4L94,62.4z"/>
	<path class="st0" d="M102.2,68.9c-0.2,0.4-0.4,0.8-0.8,1.2c-0.3,0.3-0.7,0.6-1.1,0.8c-0.4,0.2-0.8,0.3-1.3,0.3
		c-0.4,0-0.8-0.1-1.2-0.2c-0.4-0.2-0.8-0.3-1.1-0.7c-0.3-0.3-0.7-0.7-0.8-1.1c-0.3-0.5-0.3-1-0.3-1.6c0-0.4,0.1-0.8,0.3-1.3
		c0.3-0.8,1-1.5,1.8-1.9c0.4-0.2,0.9-0.3,1.4-0.3c0.8,0,1.6,0.3,2.2,0.8c0.3,0.3,0.6,0.6,0.8,1c0.3,0.5,0.3,1,0.3,1.5
		C102.5,68,102.4,68.5,102.2,68.9z M101,66.4c-0.1-0.3-0.2-0.7-0.3-1c-0.2-0.3-0.3-0.6-0.7-0.8c-0.3-0.3-0.7-0.3-1-0.3
		s-0.6,0.1-0.8,0.3c-0.3,0.2-0.5,0.4-0.7,0.8c-0.2,0.3-0.3,0.7-0.4,1c-0.1,0.4-0.2,0.8-0.2,1.2s0,0.8,0.1,1.3c0.1,0.3,0.2,0.7,0.3,1
		c0.2,0.3,0.4,0.5,0.7,0.8c0.3,0.2,0.6,0.3,0.9,0.3c0.3,0,0.7-0.1,0.9-0.3c0.3-0.3,0.5-0.5,0.6-0.8c0.2-0.3,0.3-0.8,0.3-1.1
		s0.1-0.8,0.1-1.1C101.1,67.1,101.1,66.8,101,66.4z"/>
	<path class="st0" d="M107.2,71v-0.2c0.2,0,0.4,0,0.6-0.1c0.2,0,0.3-0.2,0.3-0.3v-3.6c0-0.5-0.1-0.9-0.3-1.3c-0.3-0.3-0.6-0.5-1-0.5
		c-0.3,0-0.6,0.1-0.8,0.2c-0.3,0.2-0.5,0.3-0.7,0.6v4.8c0,0.1,0.1,0.2,0.1,0.2c0.1,0.1,0.1,0.1,0.2,0.1h0.3h0.3v0.2h-2.9v-0.1
		c0.2,0,0.4-0.1,0.6-0.2c0.2-0.1,0.3-0.2,0.3-0.3v-5c0-0.1,0-0.1,0-0.2c0-0.1-0.1-0.1-0.1-0.2l-0.3-0.2l-0.3-0.2v-0.1l1.9-0.7h0.1
		v1.5l0,0c0.1-0.2,0.3-0.3,0.4-0.5c0.2-0.2,0.3-0.3,0.5-0.5s0.4-0.3,0.7-0.3c0.3-0.1,0.5-0.2,0.8-0.2c0.5,0,1,0.3,1.3,0.6
		c0.3,0.5,0.5,1,0.4,1.6v4.2c0,0.1,0,0.2,0.1,0.2c0.1,0.1,0.2,0.1,0.3,0.1l0.3,0.1h0.3v0.2L107.2,71L107.2,71z"/>
	<path class="st0" d="M116.8,70.1c-0.1,0.2-0.2,0.3-0.3,0.5c-0.1,0.2-0.3,0.3-0.4,0.3c-0.5,0.2-1,0.1-1.4-0.2
		c-0.3-0.3-0.4-0.7-0.3-1l0,0c-0.1,0.2-0.2,0.3-0.3,0.4c-0.2,0.2-0.3,0.3-0.4,0.4c-0.2,0.2-0.4,0.3-0.6,0.3
		c-0.3,0.1-0.5,0.1-0.7,0.1s-0.3,0-0.5-0.1s-0.3-0.1-0.4-0.3c-0.2-0.1-0.3-0.3-0.3-0.4s-0.2-0.4-0.1-0.6c0-0.3,0.1-0.6,0.3-0.8
		c0.3-0.3,0.5-0.5,0.8-0.7l0.8-0.5l0.7-0.3l0.5-0.3l0.3-0.2v-1.6c0-0.1,0-0.1,0-0.2c-0.1-0.1-0.1-0.2-0.2-0.3
		c-0.1-0.1-0.3-0.2-0.3-0.2c-0.2-0.1-0.3-0.1-0.6-0.1c-0.2,0-0.3,0-0.4,0.1c-0.2,0.1-0.3,0.1-0.4,0.2c-0.1,0.1-0.2,0.2-0.3,0.3
		s-0.1,0.2-0.1,0.2v0.7c0,0.2-0.1,0.3-0.2,0.3c-0.2,0.1-0.3,0.2-0.4,0.2s-0.3-0.1-0.4-0.2c-0.1-0.1-0.2-0.3-0.2-0.3
		c0-0.1,0-0.3,0.1-0.3s0.2-0.2,0.3-0.3c0.1-0.1,0.1-0.2,0.2-0.3l0.3-0.2l0.8-0.4c0.3-0.2,0.5-0.3,0.8-0.3c0.2-0.1,0.4-0.2,0.7-0.3
		c0.2-0.1,0.3-0.1,0.5-0.1c0.3,0,0.5,0.1,0.7,0.2s0.3,0.3,0.5,0.5c0.1,0.1,0.1,0.3,0.1,0.3c0,0.2,0,0.3,0,0.5c0,0.3,0,0.7,0,0.9
		c0,0.3,0,0.6,0,0.8c0,0.3,0,0.5,0,0.8c0,0.3,0,0.6,0,0.9c0,0.3,0.1,0.6,0.3,0.8c0.2,0.2,0.3,0.2,0.5,0.2s0.3,0,0.5-0.2
		c0.1-0.1,0.2-0.3,0.3-0.3h0.1C116.9,69.7,116.9,70,116.8,70.1z M114.3,67.1c-0.2,0.2-0.4,0.3-0.7,0.4c-0.3,0.2-0.5,0.3-0.8,0.4
		c-0.3,0.2-0.4,0.3-0.6,0.5s-0.3,0.4-0.3,0.7c0,0.3,0.1,0.5,0.3,0.7c0.2,0.2,0.4,0.3,0.7,0.3s0.4,0,0.7-0.1c0.2-0.1,0.4-0.2,0.5-0.3
		c0.1-0.1,0.2-0.3,0.2-0.4V67.1L114.3,67.1z"/>
	<path class="st0" d="M116.8,71v-0.2c0.3,0,0.6-0.1,0.8-0.2c0.2-0.1,0.3-0.2,0.3-0.3V62c0-0.1,0-0.1,0-0.2s-0.1-0.1-0.1-0.2
		l-0.3-0.3c-0.2-0.1-0.3-0.2-0.4-0.3v-0.1l2-0.7h0.1v10c0,0.1,0,0.2,0.1,0.3c0.1,0.1,0.1,0.1,0.2,0.1s0.3,0,0.3,0h0.5V71H116.8
		L116.8,71z"/>
	<path class="st0" d="M129.6,71v-0.2h0.2c0.1,0,0.3-0.1,0.3-0.1c0.1-0.1,0.3-0.1,0.3-0.2s0.2-0.2,0.2-0.3c0-0.2,0-0.3-0.1-0.4
		s-0.2-0.4-0.3-0.8l-0.3-0.9c-0.1-0.3-0.3-0.7-0.4-1.1h-3.8l-0.4,1l-0.4,1c-0.2,0.3-0.3,0.7-0.3,1.1c0,0.1,0,0.3,0.1,0.3
		s0.2,0.2,0.3,0.2c0.1,0.1,0.3,0.1,0.4,0.1l0.4,0.1V71h-3v-0.2c0.3,0,0.4-0.1,0.7-0.2c0.1-0.1,0.3-0.2,0.3-0.3
		c0.1-0.2,0.3-0.3,0.3-0.5c0.2-0.3,0.4-0.8,0.6-1.1l0.7-1.5l0.8-1.8c0.3-0.6,0.5-1.3,0.8-1.9l0.8-1.8l-0.2-0.3
		c0.2-0.1,0.3-0.2,0.5-0.3s0.3-0.2,0.3-0.3c0.1-0.1,0.2-0.3,0.3-0.3l0.2-0.3h0.1l0.8,2.3l0.8,2l0.7,1.9l0.7,1.9
		c0.1,0.3,0.2,0.5,0.3,0.8l0.3,0.7l0.2,0.2c0.1,0.1,0.2,0.2,0.3,0.3c0.1,0.1,0.3,0.2,0.4,0.3c0.2,0.1,0.3,0.2,0.6,0.2V71L129.6,71
		L129.6,71z M127.7,62.3c-0.1,0.1-0.2,0.3-0.3,0.6l-0.4,1l-0.5,1.3l-0.7,1.6h3.5l-0.4-1.3l-0.5-1.2l-0.4-1.1L127.7,62.3z"/>
	<path class="st0" d="M138.4,69.9c-0.2,0.3-0.3,0.5-0.6,0.7c-0.3,0.2-0.6,0.3-0.8,0.3c-0.3,0.1-0.7,0.1-1,0.1c-0.4,0-0.8,0-1.2-0.1
		c-0.3-0.1-0.7-0.2-1-0.3v-1.9h0.1c0.1,0.3,0.2,0.5,0.3,0.8c0.1,0.3,0.3,0.5,0.4,0.7c0.2,0.3,0.3,0.4,0.6,0.5
		c0.3,0.2,0.5,0.3,0.8,0.2c0.4,0,0.8-0.1,1.1-0.4c0.3-0.3,0.4-0.8,0.4-1.2c0-0.3-0.1-0.5-0.3-0.8c-0.2-0.2-0.5-0.3-0.8-0.4h-0.8
		c-0.3-0.1-0.4-0.1-0.7-0.2c-0.3-0.1-0.7-0.3-0.8-0.7c-0.3-0.3-0.3-0.7-0.3-1.1c0-0.3,0.1-0.6,0.2-0.8c0.1-0.3,0.3-0.4,0.5-0.6
		s0.5-0.3,0.8-0.4c0.3-0.1,0.6-0.2,0.9-0.2c0.3,0,0.7,0,1,0.1c0.3,0.1,0.6,0.2,0.8,0.3l0.2,1.9h-0.1c-0.2-0.3-0.3-0.6-0.4-0.8
		c-0.1-0.3-0.3-0.4-0.4-0.6s-0.3-0.3-0.6-0.4s-0.5-0.2-0.7-0.2s-0.3,0-0.5,0.1s-0.3,0.2-0.4,0.3c-0.1,0.1-0.3,0.3-0.3,0.4
		c-0.1,0.2-0.1,0.4-0.1,0.6c0,0.3,0.1,0.6,0.3,0.8c0.3,0.2,0.5,0.3,0.8,0.3l0.7,0.2l0.7,0.2c0.4,0.1,0.8,0.3,1.1,0.7
		c0.3,0.3,0.4,0.8,0.4,1.3C138.6,69.2,138.6,69.6,138.4,69.9z"/>
	<path class="st0" d="M143.9,69.9c-0.2,0.3-0.3,0.5-0.6,0.7c-0.3,0.2-0.6,0.3-0.8,0.3c-0.3,0.1-0.7,0.1-1,0.1c-0.4,0-0.8,0-1.2-0.1
		c-0.3-0.1-0.7-0.2-1-0.3v-1.9h0.1c0.1,0.3,0.2,0.5,0.3,0.8c0.1,0.3,0.3,0.5,0.4,0.7c0.2,0.3,0.3,0.4,0.6,0.5
		c0.3,0.2,0.5,0.3,0.8,0.2c0.4,0,0.8-0.1,1.1-0.4c0.3-0.3,0.4-0.8,0.4-1.2c0-0.3-0.1-0.5-0.3-0.8c-0.2-0.2-0.5-0.3-0.8-0.4l-0.8-0.2
		c-0.3-0.1-0.4-0.1-0.7-0.2c-0.3-0.1-0.7-0.3-0.8-0.7c-0.3-0.3-0.3-0.7-0.3-1.1c0-0.3,0.1-0.5,0.3-0.8c0.1-0.3,0.3-0.4,0.5-0.6
		c0.3-0.2,0.5-0.3,0.8-0.4c0.3-0.1,0.6-0.2,0.9-0.2c0.3,0,0.7,0,1,0.1c0.3,0.1,0.6,0.2,0.8,0.3l0.2,1.8h-0.1
		c-0.2-0.3-0.3-0.6-0.4-0.8c-0.1-0.3-0.3-0.4-0.4-0.6s-0.3-0.3-0.6-0.4c-0.3-0.1-0.5-0.2-0.7-0.2s-0.3,0-0.5,0.1
		c-0.2,0.1-0.3,0.2-0.4,0.3c-0.1,0.1-0.3,0.3-0.3,0.4c-0.1,0.2-0.1,0.4-0.1,0.6c0,0.3,0.1,0.6,0.3,0.8s0.5,0.3,0.8,0.3l0.7,0.2
		l0.7,0.2c0.4,0.1,0.8,0.3,1.1,0.7c0.3,0.3,0.4,0.8,0.4,1.3C144.1,69.3,144,69.6,143.9,69.9z"/>
	<path class="st0" d="M151.1,68.9c-0.2,0.4-0.4,0.8-0.8,1.2c-0.3,0.3-0.7,0.6-1.1,0.8c-0.4,0.2-0.8,0.3-1.3,0.3s-0.8-0.1-1.2-0.2
		c-0.4-0.2-0.8-0.3-1.1-0.7c-0.3-0.3-0.7-0.7-0.8-1.1c-0.3-0.5-0.3-1-0.3-1.6c0-0.4,0.1-0.8,0.3-1.3c0.3-0.8,1-1.5,1.8-1.9
		c0.4-0.2,0.9-0.3,1.4-0.3c0.8,0,1.6,0.3,2.2,0.8c0.3,0.3,0.6,0.6,0.8,1c0.3,0.5,0.3,1,0.3,1.5C151.4,68,151.3,68.5,151.1,68.9z
		 M150,66.4c-0.1-0.3-0.2-0.7-0.3-1s-0.3-0.6-0.7-0.8c-0.3-0.3-0.7-0.3-1-0.3s-0.6,0.1-0.8,0.3c-0.3,0.2-0.5,0.4-0.7,0.8
		c-0.2,0.3-0.3,0.7-0.4,1c-0.1,0.4-0.2,0.8-0.2,1.2s0,0.8,0.1,1.3c0.1,0.3,0.2,0.7,0.3,1c0.2,0.3,0.4,0.5,0.7,0.8
		c0.3,0.2,0.6,0.3,0.9,0.3c0.3,0,0.7-0.1,0.9-0.3c0.3-0.3,0.5-0.5,0.6-0.8c0.2-0.3,0.3-0.8,0.3-1.1s0.1-0.8,0.1-1.1
		C150.1,67.1,150,66.8,150,66.4z"/>
	<path class="st0" d="M157.6,69.8c-0.2,0.3-0.4,0.5-0.6,0.7c-0.3,0.2-0.5,0.3-0.8,0.4c-0.3,0.1-0.7,0.2-1,0.2
		c-0.4,0-0.8-0.1-1.3-0.3c-0.4-0.2-0.8-0.4-1-0.8c-0.3-0.3-0.5-0.8-0.7-1.1c-0.2-0.4-0.3-0.9-0.3-1.3c0-0.4,0.1-0.9,0.3-1.3
		c0.2-0.4,0.4-0.8,0.7-1.1c0.3-0.3,0.7-0.6,1-0.8c0.4-0.2,0.8-0.3,1.3-0.3c0.3,0,0.6,0,0.9,0.1c0.3,0.1,0.6,0.2,0.8,0.3
		c0.3,0.2,0.4,0.3,0.6,0.5c0.2,0.3,0.3,0.5,0.3,0.8c0,0.4-0.3,0.8-0.8,0.8c-0.2,0-0.3-0.1-0.4-0.2c-0.1-0.1-0.3-0.3-0.3-0.3
		c0.1-0.2,0.1-0.3,0.1-0.5c0-0.3-0.1-0.6-0.3-0.8c-0.3-0.3-0.6-0.4-0.9-0.3c-0.3,0-0.6,0.1-0.8,0.3c-0.3,0.2-0.5,0.3-0.7,0.6
		s-0.3,0.6-0.4,0.9c-0.1,0.3-0.2,0.8-0.2,1.1c0,0.4,0.1,0.8,0.2,1.2c0.1,0.3,0.3,0.7,0.5,0.9c0.2,0.3,0.5,0.4,0.8,0.6
		c0.3,0.2,0.7,0.3,1,0.2c0.5,0,1-0.1,1.4-0.3c0.3-0.2,0.7-0.5,0.8-0.8L158,69C158,69.2,157.8,69.6,157.6,69.8z"/>
	<path class="st0" d="M158.1,71v-0.2h0.3c0.1,0,0.2,0,0.3-0.1c0.1,0,0.2-0.1,0.3-0.2s0.2-0.2,0.2-0.3v-4.9c0-0.1,0-0.2,0-0.2
		c0-0.1-0.1-0.1-0.1-0.2l-0.3-0.2l-0.3-0.2v-0.1l1.9-0.6h0.1v6.5c0,0.1,0.1,0.2,0.1,0.2c0.1,0.1,0.2,0.1,0.3,0.1h0.3h0.3v0.2h-3
		L158.1,71z M160.2,62.4c-0.3,0.3-0.8,0.3-1.1,0c-0.2-0.2-0.3-0.3-0.3-0.5s0.1-0.4,0.3-0.6c0.3-0.3,0.8-0.3,1.1,0
		c0.2,0.2,0.3,0.3,0.3,0.6C160.4,62,160.3,62.2,160.2,62.4z"/>
	<path class="st0" d="M168.1,70.1c-0.1,0.2-0.2,0.3-0.3,0.5c-0.1,0.2-0.3,0.3-0.4,0.3s-0.3,0.1-0.6,0.1c-0.3,0-0.6-0.1-0.8-0.3
		c-0.3-0.3-0.4-0.7-0.3-1l0,0c-0.1,0.2-0.2,0.3-0.3,0.4s-0.3,0.3-0.4,0.4c-0.2,0.2-0.3,0.3-0.6,0.3c-0.3,0.1-0.5,0.1-0.7,0.1
		s-0.3,0-0.5-0.1c-0.2-0.1-0.3-0.1-0.4-0.3c-0.2-0.1-0.3-0.3-0.3-0.4s-0.2-0.4-0.1-0.6c0-0.3,0.1-0.6,0.3-0.8
		c0.3-0.3,0.5-0.5,0.8-0.7l0.8-0.5l0.7-0.3l0.5-0.3l0.3-0.2v-1.6c0-0.1,0-0.1,0-0.2c-0.1-0.1-0.1-0.2-0.2-0.3
		c-0.1-0.1-0.3-0.2-0.3-0.2c-0.2-0.1-0.3-0.1-0.6-0.1c-0.2,0-0.3,0-0.4,0.1c-0.2,0.1-0.3,0.1-0.4,0.2c-0.1,0.1-0.2,0.2-0.3,0.3
		c-0.1,0.1-0.1,0.2-0.1,0.2v0.7c0,0.2-0.1,0.3-0.2,0.3c-0.2,0.1-0.3,0.2-0.4,0.2s-0.3-0.1-0.4-0.2c-0.1-0.1-0.2-0.3-0.2-0.3
		c0-0.1,0-0.3,0.1-0.3c0.1-0.1,0.2-0.2,0.3-0.3c0.1-0.1,0.2-0.2,0.3-0.2l0.3-0.2l0.8-0.4c0.3-0.2,0.5-0.3,0.8-0.3
		c0.2-0.1,0.4-0.2,0.7-0.3c0.2-0.1,0.3-0.1,0.5-0.1c0.3,0,0.5,0.1,0.7,0.2c0.2,0.1,0.3,0.3,0.5,0.5c0.1,0.1,0.1,0.3,0.1,0.3
		c0,0.2,0,0.3,0,0.5c0,0.3,0,0.7,0,0.9c0,0.3,0,0.6,0,0.8c0,0.3,0,0.5,0,0.8c0,0.3,0,0.6,0,0.9c0,0.3,0.1,0.6,0.3,0.8
		c0.2,0.2,0.3,0.2,0.5,0.2c0.2,0,0.3,0,0.5-0.2c0.1-0.1,0.2-0.3,0.3-0.3h0.1C168.3,69.8,168.2,70,168.1,70.1z M165.5,67.1
		c-0.2,0.2-0.4,0.3-0.7,0.4c-0.3,0.2-0.5,0.3-0.8,0.4s-0.4,0.3-0.6,0.5s-0.3,0.4-0.3,0.7c0,0.3,0.1,0.5,0.3,0.7
		c0.2,0.2,0.4,0.3,0.7,0.3c0.3,0,0.4,0,0.7-0.1c0.2-0.1,0.4-0.2,0.5-0.3c0.1-0.1,0.2-0.3,0.2-0.4L165.5,67.1L165.5,67.1z"/>
	<path class="st0" d="M172.5,65.1h-2.2v3.8c0,0.3,0.1,0.8,0.3,1c0.3,0.3,0.5,0.3,0.8,0.3c0.3,0,0.5,0,0.7-0.2
		c0.2-0.1,0.3-0.3,0.5-0.4h0.1c-0.1,0.2-0.2,0.3-0.3,0.4c-0.1,0.2-0.3,0.3-0.4,0.4c-0.2,0.2-0.3,0.3-0.6,0.3
		c-0.3,0.1-0.5,0.1-0.8,0.1c-0.2,0-0.4,0-0.6-0.1s-0.3-0.2-0.5-0.3c-0.2-0.1-0.3-0.3-0.3-0.4c-0.1-0.2-0.2-0.3-0.2-0.4
		c0-0.9,0-1.8,0-2.5c0-0.8,0-1.5,0-2.2h-1v-0.1l2-1.9h0.2v1.3h2.7L172.5,65.1z"/>
	<path class="st0" d="M172.9,71v-0.2h0.3c0.1,0,0.2,0,0.3-0.1c0.1,0,0.2-0.1,0.3-0.2s0.1-0.2,0.1-0.3v-5c0-0.1,0-0.2,0-0.2
		c0-0.1-0.1-0.1-0.1-0.2l-0.3-0.2l-0.3-0.2v-0.1l1.9-0.6h0.1v6.5c0,0.1,0.1,0.2,0.1,0.2c0.1,0.1,0.2,0.1,0.3,0.1h0.3h0.3v0.2
		L172.9,71L172.9,71z M175,62.4c-0.3,0.3-0.8,0.3-1.1,0c-0.2-0.2-0.3-0.3-0.3-0.5s0.1-0.4,0.3-0.6c0.3-0.3,0.8-0.3,1.1,0
		c0.2,0.2,0.3,0.3,0.3,0.6C175.2,62,175.1,62.2,175,62.4L175,62.4z"/>
	<path class="st0" d="M183.1,68.9c-0.2,0.4-0.4,0.8-0.8,1.2c-0.3,0.3-0.7,0.6-1.1,0.8c-0.4,0.2-0.8,0.3-1.3,0.3
		c-0.4,0-0.8-0.1-1.2-0.2c-0.4-0.2-0.8-0.3-1.1-0.7c-0.3-0.3-0.7-0.7-0.8-1.1c-0.3-0.5-0.3-1-0.3-1.6c0-0.4,0.1-0.8,0.3-1.3
		c0.5-1.3,1.8-2.2,3.2-2.1c0.8,0,1.6,0.3,2.2,0.8c0.3,0.3,0.6,0.6,0.8,1c0.3,0.5,0.3,1,0.3,1.5C183.4,68,183.3,68.5,183.1,68.9z
		 M181.9,66.4c-0.1-0.3-0.2-0.7-0.3-1s-0.3-0.6-0.7-0.8c-0.3-0.3-0.7-0.3-1-0.3s-0.6,0.1-0.8,0.3c-0.3,0.2-0.5,0.4-0.7,0.8
		c-0.2,0.3-0.3,0.7-0.4,1c-0.1,0.4-0.2,0.8-0.2,1.2s0,0.8,0.1,1.3c0.1,0.3,0.2,0.7,0.3,1c0.2,0.3,0.4,0.5,0.7,0.8
		c0.3,0.2,0.6,0.3,0.9,0.3c0.3,0,0.7-0.1,0.9-0.3c0.3-0.3,0.5-0.5,0.6-0.8c0.2-0.3,0.3-0.8,0.3-1.1c0.1-0.3,0.1-0.8,0.1-1.1
		C182,67.1,182,66.8,181.9,66.4z"/>
	<path class="st0" d="M188.1,71v-0.2c0.2,0,0.4,0,0.6-0.1c0.2,0,0.3-0.2,0.3-0.3v-3.6c0-0.5-0.1-0.9-0.3-1.3c-0.3-0.3-0.6-0.5-1-0.5
		c-0.3,0-0.6,0.1-0.8,0.2c-0.3,0.2-0.5,0.3-0.7,0.6v4.8c0,0.1,0.1,0.2,0.1,0.2c0.1,0.1,0.1,0.1,0.2,0.1h0.3h0.3v0.2h-2.8v-0.1
		c0.2,0,0.4-0.1,0.6-0.2s0.2-0.3,0.2-0.3v-4.9c0-0.1,0-0.1,0-0.2c0-0.1-0.1-0.1-0.1-0.2l-0.3-0.2l-0.3-0.2v-0.1L186,64h0.1v1.5l0,0
		c0.1-0.2,0.3-0.3,0.4-0.5c0.2-0.2,0.3-0.3,0.5-0.5c0.2-0.2,0.4-0.3,0.7-0.3c0.3-0.1,0.5-0.2,0.8-0.2c0.5,0,1,0.3,1.3,0.6
		c0.3,0.5,0.5,1,0.4,1.6v4.2c0,0.1,0,0.2,0.1,0.2c0.1,0.1,0.2,0.1,0.3,0.1l0.3,0.1h0.3v0.2L188.1,71L188.1,71z"/>
	<path class="st0" d="M199.5,61.8c-0.1,0.2-0.3,0.3-0.4,0.3c-0.2,0-0.3,0-0.4-0.2c-0.1-0.1-0.3-0.2-0.3-0.3l-0.3-0.3
		c-0.1-0.1-0.2-0.2-0.3-0.3c-0.1,0-0.2,0-0.3,0c-0.1,0-0.3,0.1-0.3,0.2s-0.3,0.3-0.3,0.4c-0.1,0.3-0.2,0.5-0.2,0.7c0,0.4,0,0.8,0,1
		c0,0.3,0,0.6,0,0.9h1.7l-0.2,0.6h-1.5v5.7c0,0.1,0.1,0.2,0.2,0.2c0.1,0.1,0.2,0.1,0.3,0.1c0.1,0,0.3,0.1,0.3,0.1h0.4V71h-3.6v-0.1
		h0.3l0.4-0.1c0.1,0,0.3-0.1,0.3-0.2c0.1,0,0.2-0.1,0.2-0.2v-5.7h-1l0.2-0.6h0.9c0-0.4,0-0.8,0-1.2c0-0.3,0.1-0.6,0.2-0.9
		c0.1-0.3,0.3-0.4,0.4-0.6s0.4-0.3,0.7-0.5c0.3-0.2,0.5-0.3,0.8-0.3c0.3-0.1,0.6-0.1,0.9-0.1c0.2,0,0.3,0,0.4,0s0.3,0.1,0.3,0.2
		c0.1,0.1,0.2,0.2,0.3,0.3c0.1,0.1,0.1,0.3,0.1,0.3C199.6,61.5,199.5,61.6,199.5,61.8z"/>
	<path class="st0" d="M204.8,68.9c-0.2,0.4-0.4,0.8-0.8,1.2c-0.3,0.3-0.7,0.6-1.1,0.8c-0.4,0.2-0.8,0.3-1.3,0.3s-0.8-0.1-1.2-0.2
		c-0.4-0.2-0.8-0.3-1.1-0.7c-0.3-0.3-0.7-0.7-0.8-1.1c-0.3-0.5-0.3-1-0.3-1.6c0-0.4,0.1-0.8,0.3-1.3c0.5-1.3,1.8-2.2,3.2-2.1
		c0.8,0,1.6,0.3,2.2,0.8c0.3,0.3,0.6,0.6,0.8,1c0.3,0.5,0.3,1,0.3,1.5C205.2,68,205,68.5,204.8,68.9z M203.7,66.4
		c-0.1-0.3-0.2-0.7-0.3-1s-0.3-0.6-0.7-0.8c-0.3-0.3-0.7-0.3-1-0.3s-0.6,0.1-0.8,0.3c-0.3,0.2-0.5,0.4-0.7,0.8
		c-0.2,0.3-0.3,0.7-0.4,1c-0.1,0.4-0.2,0.8-0.2,1.2s0,0.8,0.1,1.3c0.1,0.3,0.2,0.7,0.3,1c0.2,0.3,0.4,0.5,0.7,0.8
		c0.3,0.2,0.6,0.3,0.9,0.3c0.3,0,0.7-0.1,0.9-0.3s0.5-0.5,0.6-0.8c0.2-0.3,0.3-0.8,0.3-1.1c0.1-0.3,0.1-0.8,0.1-1.1
		C203.8,67.1,203.8,66.8,203.7,66.4z"/>
	<path class="st0" d="M210.5,65.3c-0.1,0.2-0.3,0.2-0.4,0.2c-0.2,0-0.3,0-0.3-0.1c-0.1-0.1-0.2-0.1-0.3-0.2
		c-0.1-0.1-0.2-0.2-0.3-0.2c-0.1-0.1-0.2-0.1-0.3-0.1c-0.1,0-0.3,0.1-0.3,0.1c-0.1,0.1-0.3,0.2-0.3,0.3c-0.1,0.2-0.2,0.3-0.3,0.4
		s-0.2,0.3-0.2,0.4v4.2c0,0.1,0.1,0.2,0.2,0.2c0.1,0.1,0.3,0.1,0.3,0.1h0.3h0.3v0.2h-3.2v-0.1c0.2,0,0.4-0.1,0.6-0.2
		c0.2-0.1,0.3-0.2,0.3-0.3v-4.9c0-0.1,0-0.1,0-0.2c0-0.1-0.1-0.1-0.2-0.1l-0.3-0.2c-0.1-0.1-0.3-0.2-0.3-0.2v-0.1l1.9-0.8h0.1v2l0,0
		l0.3-0.5c0.1-0.3,0.3-0.4,0.4-0.7c0.2-0.3,0.3-0.4,0.6-0.6c0.3-0.2,0.5-0.3,0.8-0.3s0.4,0.1,0.6,0.3s0.3,0.3,0.3,0.6
		C210.7,65.1,210.6,65.3,210.5,65.3z"/>
	<path class="st0" d="M218.2,65.1H216v3.8c0,0.3,0.1,0.8,0.3,1c0.3,0.3,0.5,0.3,0.8,0.3c0.3,0,0.5,0,0.7-0.2
		c0.2-0.1,0.3-0.3,0.5-0.4h0.1c-0.1,0.2-0.2,0.3-0.3,0.4c-0.1,0.2-0.3,0.3-0.4,0.4c-0.2,0.2-0.3,0.3-0.6,0.3
		c-0.3,0.1-0.5,0.1-0.8,0.1c-0.2,0-0.4,0-0.6-0.1s-0.3-0.2-0.5-0.3c-0.2-0.1-0.3-0.3-0.3-0.4c-0.1-0.2-0.2-0.3-0.2-0.4
		c0-0.9,0-1.8,0-2.5c0-0.8,0-1.5,0-2.2h-1v-0.1l2-1.9h0.1v1.3h2.7L218.2,65.1z"/>
	<path class="st0" d="M222.6,71v-0.2c0.3,0,0.4-0.1,0.7-0.1c0.2,0,0.3-0.2,0.3-0.3v-3.6c0-0.3,0-0.5-0.1-0.8c0-0.3-0.1-0.4-0.2-0.6
		s-0.3-0.3-0.4-0.4s-0.4-0.2-0.7-0.2c-0.3,0-0.6,0.1-0.8,0.2c-0.3,0.1-0.4,0.3-0.6,0.5c0,0.1-0.1,0.1-0.1,0.2s0,0.2,0,0.3v4.6
		c0,0.1,0,0.2,0.1,0.2c0.1,0.1,0.1,0.1,0.2,0.1h0.3h0.3v0.2h-2.9v-0.1c0.2,0,0.4-0.1,0.6-0.1s0.3-0.2,0.3-0.3v-8.2
		c0-0.1,0-0.1,0-0.2c0-0.1-0.1-0.1-0.1-0.2c-0.1-0.1-0.2-0.2-0.3-0.2l-0.3-0.2v-0.1l1.9-0.8h0.1v5l0,0c0.1-0.2,0.2-0.3,0.3-0.4
		c0.2-0.2,0.3-0.3,0.5-0.5c0.3-0.2,0.5-0.3,0.8-0.4c0.3-0.1,0.6-0.2,0.9-0.2c0.3,0,0.5,0.1,0.8,0.2c0.2,0.1,0.4,0.3,0.5,0.4
		c0.2,0.3,0.3,0.4,0.3,0.7c0.1,0.3,0.1,0.6,0.1,0.8v4.2c0,0.1,0,0.2,0.1,0.2c0.1,0.1,0.2,0.1,0.3,0.1l0.3,0.1h0.3v0.2L222.6,71
		L222.6,71z"/>
	<path class="st0" d="M231.8,69.6c-0.2,0.3-0.3,0.5-0.6,0.8c-0.3,0.3-0.5,0.4-0.8,0.6s-0.7,0.3-1.1,0.3c-0.4,0-0.9-0.1-1.3-0.3
		s-0.8-0.4-1-0.8c-0.3-0.3-0.5-0.8-0.7-1.2c-0.2-0.4-0.3-0.9-0.3-1.4c0-0.8,0.3-1.6,0.8-2.3c0.3-0.3,0.6-0.6,0.9-0.8
		c0.4-0.2,0.8-0.3,1.3-0.3c0.3,0,0.7,0.1,1,0.2c0.3,0.1,0.6,0.3,0.8,0.4s0.4,0.4,0.6,0.8c0.2,0.3,0.3,0.7,0.3,1H227
		c0,0.1,0,0.2,0,0.3c0,0.1,0,0.2,0,0.3c0,0.4,0.1,0.8,0.2,1.2c0.1,0.3,0.3,0.7,0.5,1c0.3,0.3,0.5,0.5,0.8,0.7
		c0.3,0.2,0.8,0.3,1.2,0.3s0.8-0.1,1.3-0.3c0.3-0.2,0.6-0.5,0.7-0.9h0.1C231.9,69,231.8,69.3,231.8,69.6z M230.1,64.7
		c-0.3-0.3-0.7-0.4-1-0.3c-0.3,0-0.5,0.1-0.8,0.3c-0.3,0.2-0.4,0.3-0.6,0.6c-0.2,0.2-0.3,0.4-0.3,0.7c-0.1,0.2-0.1,0.3-0.2,0.5h2.6
		c0.1,0,0.3,0,0.3-0.1c0.1-0.1,0.1-0.2,0.2-0.3c0-0.1,0-0.2,0-0.3C230.4,65.3,230.3,65,230.1,64.7L230.1,64.7z"/>
	<path class="st0" d="M51.4,85.9h-9.3v-0.2c0.3,0,0.5-0.1,0.7-0.2c0.2-0.1,0.4-0.2,0.6-0.3c0.1-0.1,0.1-0.2,0.1-0.3
		c0-0.1,0.1-0.3,0.1-0.3c0-0.2,0-0.3,0-0.4c0-0.2,0-0.3,0-0.5c0-0.2,0-0.3,0-0.6s0-0.5,0-0.8c0-0.3,0-0.6,0-0.8v-4
		c0-0.2,0-0.3,0-0.5s0-0.3,0-0.4s-0.1-0.2-0.2-0.3C43.2,76.1,43,76,42.8,76c-0.3-0.1-0.5-0.2-0.7-0.2v-0.3h4.6v0.2l-0.4,0.1
		c-0.2,0-0.3,0.1-0.5,0.2c-0.2,0.1-0.3,0.3-0.4,0.3c-0.1,0.2-0.2,0.4-0.2,0.6c0,0.3,0,0.7,0,0.9v0.8c0,0.3,0,0.6,0,0.8v2.6
		c0,0.3,0,0.5,0,0.8c0,0.3,0,0.6,0,0.9c0,0.3,0,0.6,0,0.8s0.1,0.4,0.2,0.6c0.1,0.1,0.2,0.1,0.3,0.2c0.2,0.1,0.3,0.1,0.4,0.1l0.5,0.1
		c0.2,0,0.4,0,0.6,0h0.3h0.6l0.6-0.1c0.2,0,0.3-0.1,0.6-0.1c0.3-0.1,0.7-0.3,0.9-0.4c0.3-0.2,0.5-0.3,0.7-0.6
		c0.2-0.3,0.3-0.5,0.4-0.8c0.1-0.3,0.3-0.5,0.3-0.8h0.2L51.4,85.9z"/>
	<path class="st0" d="M57.8,84.4c-0.2,0.3-0.3,0.5-0.6,0.8c-0.3,0.3-0.5,0.4-0.8,0.6C56,85.9,55.7,86,55.2,86s-0.9-0.1-1.3-0.3
		s-0.8-0.4-1-0.8c-0.3-0.3-0.5-0.8-0.7-1.2c-0.2-0.5-0.3-0.9-0.3-1.4c0-0.8,0.3-1.6,0.8-2.3c0.3-0.3,0.6-0.6,0.9-0.8
		c0.4-0.2,0.8-0.3,1.3-0.3c0.3,0,0.7,0.1,1,0.2s0.6,0.3,0.8,0.4c0.3,0.2,0.4,0.4,0.6,0.8s0.3,0.7,0.3,1H53c0,0.1,0,0.2,0,0.3
		c0,0.1,0,0.2,0,0.3c0,0.4,0.1,0.8,0.2,1.2c0.1,0.3,0.3,0.7,0.5,1c0.3,0.3,0.5,0.5,0.8,0.7s0.8,0.3,1.2,0.3c0.4,0,0.8-0.2,1.3-0.4
		c0.3-0.2,0.6-0.5,0.7-0.9h0.1C58,84,57.9,84.1,57.8,84.4z M56.2,79.5c-0.3-0.3-0.7-0.4-1-0.3c-0.3,0-0.5,0.1-0.8,0.3
		c-0.3,0.2-0.4,0.3-0.6,0.6c-0.2,0.2-0.3,0.4-0.3,0.7c-0.1,0.2-0.1,0.3-0.2,0.5h2.6c0.1,0,0.3,0,0.3-0.1c0.1-0.1,0.1-0.2,0.2-0.3
		c0-0.1,0-0.2,0-0.3C56.4,80.2,56.3,79.8,56.2,79.5z"/>
	<path class="st0" d="M65.6,80.1c-0.1,0.1-0.3,0.2-0.3,0.2s-0.2,0-0.3-0.1L64.7,80l-0.4-0.3l-0.4-0.3l-0.1,0.1
		c0.2,0.3,0.3,0.4,0.3,0.6c0.1,0.3,0.2,0.5,0.2,0.8c0.1,0.7-0.3,1.3-0.8,1.7c-0.7,0.4-1.4,0.6-2.2,0.6h-0.4c-0.2,0-0.3,0-0.5,0
		c-0.3,0-0.5,0.1-0.8,0.3c-0.2,0.1-0.3,0.3-0.3,0.5c0,0.2,0.1,0.3,0.2,0.3c0.1,0.1,0.3,0.2,0.3,0.3c0.2,0.1,0.3,0.1,0.5,0.1h0.5h2.3
		c0.3,0,0.6,0.1,0.9,0.2c0.3,0.1,0.5,0.3,0.7,0.4c0.2,0.2,0.3,0.4,0.4,0.6c0.1,0.3,0.2,0.5,0.2,0.8c0,0.3-0.2,0.7-0.3,1
		s-0.5,0.7-0.8,0.9c-0.3,0.3-0.8,0.5-1.2,0.6c-0.5,0.2-1,0.3-1.5,0.3c-0.8,0-1.7-0.1-2.4-0.5c-0.5-0.2-0.9-0.7-0.9-1.3
		c0-0.2,0.1-0.4,0.2-0.6c0.2-0.2,0.3-0.3,0.4-0.5c0.2-0.2,0.3-0.3,0.6-0.4l0.6-0.3l0,0c-0.4,0-0.8-0.2-1.1-0.4
		c-0.4-0.3-0.5-0.9-0.3-1.4c0.1-0.2,0.3-0.3,0.3-0.4c0.2-0.2,0.3-0.3,0.5-0.3c0.3-0.1,0.4-0.2,0.7-0.2l0,0c-0.4-0.2-0.8-0.4-1-0.8
		c-0.3-0.3-0.3-0.8-0.3-1.2c0-0.3,0.1-0.6,0.2-0.8c0.2-0.3,0.3-0.6,0.6-0.8c0.3-0.2,0.6-0.3,0.9-0.5c0.3-0.1,0.8-0.2,1.1-0.2
		c0.3,0,0.7,0,1,0.1s0.6,0.2,0.9,0.3c0.1,0,0.2,0.1,0.3,0.1h0.3c0.1,0,0.2,0,0.3,0l0.3-0.1l0.3-0.1c0.1,0,0.2,0,0.3,0
		c0.2,0,0.3,0.1,0.4,0.2s0.2,0.3,0.2,0.4C65.8,79.9,65.7,80,65.6,80.1z M64.2,86.6c-0.1-0.2-0.3-0.3-0.4-0.4
		c-0.3-0.1-0.5-0.2-0.8-0.3c-0.4-0.1-0.8-0.1-1.3-0.1h-0.6l-0.5,0.1c-0.3,0.1-0.7,0.3-0.9,0.6c-0.2,0.3-0.3,0.5-0.3,0.8
		c0,0.3,0.1,0.6,0.3,0.8c0.2,0.3,0.4,0.5,0.7,0.7c0.3,0.2,0.5,0.3,0.8,0.3s0.5,0.1,0.8,0.1c0.3,0,0.5,0,0.8,0c0.2,0,0.3-0.1,0.6-0.2
		c0.3-0.2,0.7-0.3,0.9-0.7c0.3-0.3,0.3-0.7,0.3-1C64.4,87.1,64.3,86.8,64.2,86.6z M63,80.4c-0.1-0.2-0.2-0.4-0.3-0.6
		c-0.2-0.2-0.3-0.3-0.5-0.4c-0.3-0.1-0.4-0.2-0.7-0.2c-0.3,0-0.4,0.1-0.7,0.2c-0.2,0.1-0.3,0.3-0.5,0.4c-0.2,0.2-0.3,0.4-0.3,0.7
		c-0.1,0.3-0.1,0.5-0.1,0.8c0,0.5,0.2,1,0.4,1.3c0.3,0.3,0.7,0.5,1.1,0.5c0.3,0,0.5-0.1,0.7-0.2c0.2-0.1,0.3-0.3,0.5-0.4
		s0.3-0.4,0.3-0.7C63,81.5,63,81.3,63,81C63.1,80.8,63.1,80.5,63,80.4z"/>
	<path class="st0" d="M72.2,85c-0.1,0.2-0.2,0.3-0.3,0.5c-0.1,0.2-0.3,0.3-0.4,0.3c-0.5,0.2-1,0.1-1.4-0.2c-0.3-0.3-0.4-0.7-0.3-1
		l0,0c-0.1,0.2-0.2,0.3-0.3,0.4c-0.2,0.2-0.3,0.3-0.4,0.4c-0.2,0.2-0.4,0.3-0.6,0.3c-0.3,0.1-0.5,0.1-0.7,0.1c-0.2,0-0.3,0-0.5-0.1
		c-0.2-0.1-0.3-0.1-0.4-0.3c-0.2-0.1-0.3-0.3-0.3-0.4s-0.2-0.4-0.1-0.6c0-0.3,0.1-0.6,0.3-0.8c0.3-0.3,0.5-0.5,0.8-0.7l0.8-0.5
		l0.7-0.3l0.5-0.3l0.3-0.2v-1.5c0-0.1,0-0.1,0-0.2c-0.1-0.1-0.1-0.2-0.2-0.3c-0.1-0.1-0.3-0.2-0.3-0.2c-0.2-0.1-0.3-0.1-0.6-0.1
		c-0.2,0-0.3,0-0.4,0.1c-0.2,0.1-0.3,0.1-0.4,0.2c-0.1,0.1-0.2,0.2-0.3,0.3c-0.1,0.1-0.1,0.2-0.1,0.2V81c0,0.2-0.1,0.3-0.2,0.3
		c-0.2,0.1-0.3,0.2-0.4,0.2c-0.2,0-0.3-0.1-0.4-0.2c-0.1-0.1-0.2-0.3-0.2-0.3s0-0.3,0.1-0.3c0.1-0.1,0.1-0.2,0.2-0.3
		c0.1-0.1,0.2-0.2,0.3-0.2l0.3-0.2l0.8-0.4c0.3-0.2,0.5-0.3,0.8-0.3c0.2-0.1,0.4-0.2,0.7-0.3c0.2-0.1,0.3-0.1,0.5-0.1
		c0.3,0,0.5,0.1,0.7,0.2s0.3,0.3,0.5,0.5C71,79.8,71,79.9,71,80c0,0.2,0,0.3,0,0.5c0,0.3,0,0.7,0,0.9s0,0.6,0,0.8s0,0.5,0,0.8
		c0,0.3,0,0.6,0,0.9c0,0.3,0.1,0.6,0.3,0.8c0.2,0.2,0.3,0.2,0.5,0.2s0.3,0,0.5-0.2c0.1-0.1,0.2-0.3,0.3-0.3h0.1
		C72.3,84.7,72.3,84.8,72.2,85z M69.7,82c-0.2,0.2-0.4,0.3-0.7,0.4c-0.3,0.2-0.5,0.3-0.8,0.4c-0.3,0.2-0.4,0.3-0.6,0.5
		c-0.2,0.2-0.3,0.4-0.3,0.7c0,0.3,0.1,0.5,0.3,0.7c0.2,0.2,0.4,0.3,0.7,0.3c0.3,0,0.4,0,0.7-0.1c0.2-0.1,0.3-0.2,0.5-0.3
		c0.1-0.1,0.2-0.3,0.2-0.4L69.7,82L69.7,82z"/>
	<path class="st0" d="M72.2,85.9v-0.2c0.3,0,0.6-0.1,0.8-0.2c0.2-0.1,0.3-0.2,0.3-0.3V77c0-0.1,0-0.1,0-0.2s-0.1-0.1-0.1-0.2
		l-0.4-0.3c-0.2-0.1-0.3-0.2-0.4-0.3V76l2-0.7h0.1v9.9c0,0.1,0,0.2,0.1,0.3c0.1,0.1,0.1,0.1,0.2,0.1s0.3,0,0.3,0h0.5v0.2L72.2,85.9
		L72.2,85.9z"/>
	<path class="st0" d="M86.4,84.3c-0.2,0.3-0.4,0.7-0.8,0.9c-0.3,0.3-0.8,0.4-1.2,0.6c-0.5,0.2-1,0.2-1.5,0.2c-0.4,0-0.8,0-1.3-0.1
		c-0.3-0.1-0.6-0.1-0.8-0.2c-0.2-0.1-0.3-0.2-0.5-0.3c-0.1-0.1-0.2-0.1-0.2-0.1c-0.1,0-0.2,0.1-0.2,0.2l-0.3,0.3h-0.2V83h0.1
		c0.1,0.3,0.2,0.5,0.3,0.8c0.2,0.3,0.3,0.5,0.4,0.7c0.2,0.2,0.3,0.4,0.5,0.6s0.3,0.3,0.5,0.3s0.4,0.2,0.7,0.3
		c0.8,0.3,1.8,0.1,2.5-0.4c0.5-0.4,0.8-1,0.7-1.6c0-0.3,0-0.5-0.2-0.7c-0.1-0.2-0.3-0.3-0.4-0.5s-0.3-0.3-0.5-0.3s-0.4-0.2-0.7-0.3
		l-0.6-0.3l-0.5-0.2L82,81.3l-0.6-0.2c-0.3-0.1-0.5-0.3-0.7-0.4c-0.3-0.2-0.4-0.3-0.6-0.6s-0.3-0.5-0.4-0.8s-0.2-0.6-0.1-0.8
		c0-0.4,0.1-0.9,0.3-1.3c0.2-0.3,0.4-0.7,0.8-0.9c0.3-0.3,0.7-0.4,1.1-0.6c0.4-0.1,0.8-0.2,1.3-0.2c0.3,0,0.8,0,1.1,0.1
		c0.3,0.1,0.5,0.2,0.8,0.3c0.2,0.1,0.3,0.2,0.4,0.3l0.2,0.1c0.1,0,0.2-0.1,0.2-0.2l0.3-0.3h0.2v2.7h-0.2c-0.1-0.3-0.3-0.7-0.4-0.9
		c-0.2-0.3-0.4-0.6-0.6-0.8c-0.3-0.3-0.5-0.4-0.8-0.6c-0.3-0.2-0.7-0.3-1-0.3c-0.3,0-0.6,0.1-0.8,0.2s-0.5,0.3-0.7,0.4
		c-0.2,0.2-0.3,0.4-0.4,0.7S81,77.6,81,77.8c0,0.4,0.2,0.9,0.4,1.3c0.3,0.3,0.8,0.6,1.2,0.8l0.5,0.2l0.5,0.2l0.5,0.2l0.5,0.2
		c0.6,0.2,1.1,0.5,1.5,1C86.8,82.2,86.9,83.3,86.4,84.3z"/>
	<path class="st0" d="M92.6,85.9L92.6,85.9l-0.1-1.4l0,0c-0.1,0.2-0.3,0.3-0.4,0.5s-0.3,0.3-0.5,0.5s-0.4,0.3-0.7,0.3
		c-0.3,0.1-0.5,0.2-0.8,0.2c-0.5,0-1-0.2-1.3-0.6c-0.3-0.5-0.5-1-0.4-1.6v-3.7c0-0.1,0-0.2,0-0.2c0-0.1,0-0.2,0-0.2
		c0-0.1,0-0.1,0-0.2c0-0.1-0.1-0.2-0.2-0.2S88,79.3,88,79.3h-0.3h-0.3v-0.3h2.2v4.2c-0.1,0.5,0,0.9,0.2,1.3c0.3,0.3,0.7,0.5,1.1,0.4
		c0.2,0,0.3,0,0.5-0.1s0.3-0.1,0.4-0.2c0.1-0.1,0.3-0.2,0.3-0.3c0.1-0.1,0.2-0.3,0.3-0.3v-4c0-0.1,0-0.3,0-0.3s-0.1-0.3-0.1-0.3
		c-0.2-0.1-0.3-0.1-0.5-0.1l-0.6-0.1v-0.2h2.4v5.7c0,0.1,0,0.1,0,0.2s0.1,0.1,0.1,0.2l0.3,0.2l0.4,0.2v0.1L92.6,85.9z"/>
	<path class="st0" d="M102,83.6c-0.2,0.4-0.4,0.8-0.8,1.2c-0.3,0.3-0.8,0.6-1.3,0.8c-0.5,0.2-1.1,0.3-1.7,0.3h-0.5
		c-0.2,0-0.3,0-0.5-0.1c0,0.2,0,0.3,0,0.6s0,0.5,0,0.8c0,0.3,0,0.6,0,0.8v0.7c0,0.1,0.1,0.2,0.2,0.2c0.1,0.1,0.2,0.1,0.3,0.1
		l0.3,0.1h0.3v0.2h-3.5V89h0.3l0.3-0.1c0.1,0,0.3-0.1,0.3-0.2s0.1-0.1,0.1-0.2v-8c0-0.1,0-0.1,0-0.2s-0.1-0.1-0.1-0.2l-0.4-0.2
		L95,79.9v-0.2l2.1-0.8h0.1v1.7c0.2-0.2,0.3-0.3,0.4-0.6c0.2-0.2,0.4-0.3,0.6-0.4c0.2-0.2,0.4-0.3,0.7-0.4c0.3-0.1,0.5-0.2,0.8-0.2
		c0.4,0,0.8,0.1,1.2,0.3c0.3,0.2,0.6,0.4,0.8,0.8c0.3,0.3,0.4,0.7,0.5,1c0.1,0.3,0.2,0.8,0.2,1.1C102.2,82.6,102.1,83.1,102,83.6z
		 M100.8,81.5c-0.1-0.3-0.3-0.6-0.4-0.8c-0.2-0.3-0.4-0.4-0.7-0.6c-0.3-0.2-0.6-0.3-0.9-0.2c-0.3,0-0.4,0-0.7,0.2
		c-0.2,0.1-0.3,0.2-0.5,0.3c-0.1,0.1-0.3,0.3-0.3,0.3c-0.1,0.1-0.1,0.2-0.1,0.3c0,0.2,0,0.4,0,0.6c0,0.3,0,0.4,0,0.6v0.9
		c0,0.3,0,0.4,0,0.7c0,0.2,0.1,0.4,0.1,0.6c0.1,0.2,0.2,0.4,0.3,0.6c0.1,0.2,0.3,0.3,0.5,0.4c0.3,0.1,0.5,0.2,0.8,0.2
		c0.3,0,0.6-0.1,0.8-0.3c0.3-0.2,0.5-0.3,0.7-0.6c0.3-0.3,0.3-0.6,0.5-0.9c0.1-0.4,0.2-0.8,0.2-1.3
		C100.9,82.2,100.9,81.8,100.8,81.5L100.8,81.5z"/>
	<path class="st0" d="M109.6,83.6c-0.2,0.4-0.4,0.8-0.8,1.2c-0.3,0.3-0.8,0.6-1.3,0.8c-0.5,0.2-1.1,0.3-1.7,0.3h-0.5
		c-0.2,0-0.3,0-0.5-0.1c0,0.2,0,0.3,0,0.6s0,0.5,0,0.8c0,0.3,0,0.6,0,0.8v0.7c0,0.1,0.1,0.2,0.2,0.2c0.1,0.1,0.2,0.1,0.3,0.1
		l0.3,0.1h0.3v0.2h-3.5V89h0.3l0.3-0.1c0.1,0,0.3-0.1,0.3-0.2s0.1-0.1,0.1-0.2v-8c0-0.1,0-0.1,0-0.2s-0.1-0.1-0.1-0.2l-0.4-0.2
		l-0.4-0.2v-0.2l2.1-0.8h0.1v1.7c0.2-0.2,0.3-0.3,0.4-0.6c0.2-0.2,0.3-0.3,0.5-0.5s0.4-0.3,0.7-0.4c0.3-0.1,0.5-0.2,0.8-0.2
		c0.4,0,0.8,0.1,1.2,0.3c0.3,0.2,0.6,0.4,0.8,0.8c0.3,0.3,0.4,0.7,0.5,1c0.1,0.3,0.2,0.8,0.2,1.1C109.9,82.6,109.8,83.1,109.6,83.6z
		 M108.5,81.5c-0.1-0.3-0.3-0.6-0.4-0.8c-0.2-0.3-0.4-0.4-0.7-0.6c-0.3-0.2-0.6-0.3-0.9-0.2c-0.3,0-0.4,0-0.7,0.2
		c-0.2,0.1-0.3,0.2-0.5,0.3c-0.1,0.1-0.3,0.3-0.3,0.3c-0.1,0.1-0.1,0.2-0.1,0.3c0,0.2,0,0.4,0,0.6c0,0.3,0,0.4,0,0.6v0.9
		c0,0.3,0,0.4,0,0.7c0,0.2,0.1,0.4,0.1,0.6c0.1,0.2,0.2,0.4,0.3,0.6c0.1,0.2,0.3,0.3,0.5,0.4s0.5,0.2,0.8,0.2c0.3,0,0.6-0.1,0.8-0.3
		c0.3-0.2,0.5-0.3,0.7-0.6c0.3-0.3,0.3-0.6,0.5-0.9c0.1-0.4,0.2-0.8,0.2-1.3C108.6,82.2,108.6,81.8,108.5,81.5L108.5,81.5z"/>
	<path class="st0" d="M117,83.7c-0.2,0.4-0.4,0.8-0.8,1.2c-0.3,0.3-0.7,0.6-1.1,0.8c-0.4,0.2-0.8,0.3-1.3,0.3
		c-0.4,0-0.8-0.1-1.2-0.2c-0.4-0.2-0.8-0.3-1.1-0.7c-0.3-0.3-0.7-0.7-0.8-1.1c-0.3-0.5-0.3-1-0.3-1.6c0-0.4,0.1-0.8,0.3-1.3
		c0.3-0.8,1-1.5,1.8-1.9c0.4-0.2,0.9-0.3,1.4-0.3c0.8,0,1.6,0.3,2.2,0.8c0.3,0.3,0.6,0.6,0.8,1c0.3,0.5,0.3,1,0.3,1.5
		C117.3,82.8,117.2,83.3,117,83.7z M115.9,81.3c-0.1-0.3-0.2-0.7-0.3-1c-0.2-0.3-0.3-0.6-0.7-0.8c-0.3-0.3-0.7-0.3-1-0.3
		c-0.3,0-0.6,0.1-0.8,0.3c-0.3,0.2-0.5,0.4-0.7,0.8s-0.3,0.7-0.4,1c-0.1,0.4-0.2,0.8-0.2,1.2c0,0.4,0,0.8,0.1,1.3
		c0.1,0.3,0.2,0.7,0.3,1c0.2,0.3,0.4,0.5,0.7,0.8c0.3,0.2,0.6,0.3,0.9,0.3c0.3,0,0.7-0.1,0.9-0.3c0.3-0.3,0.5-0.5,0.6-0.8
		c0.2-0.3,0.3-0.8,0.3-1.1c0.1-0.3,0.1-0.8,0.1-1.1C116,82,115.9,81.6,115.9,81.3z"/>
	<path class="st0" d="M122.6,80.3c-0.1,0.2-0.3,0.2-0.4,0.2c-0.2,0-0.3,0-0.3-0.1s-0.2-0.1-0.3-0.2c-0.1-0.1-0.2-0.2-0.3-0.2
		c-0.1-0.1-0.2-0.1-0.3-0.1c-0.1,0-0.3,0.1-0.3,0.1c-0.1,0.1-0.3,0.2-0.3,0.3c-0.1,0.2-0.2,0.3-0.3,0.4c-0.1,0.2-0.2,0.3-0.2,0.4
		v4.1c0,0.1,0.1,0.2,0.2,0.2c0.1,0.1,0.3,0.1,0.3,0.1h0.3h0.3v0.2H118v-0.1c0.2,0,0.4-0.1,0.6-0.2s0.3-0.2,0.3-0.3v-4.9
		c0-0.1,0-0.1,0-0.2s-0.1-0.1-0.1-0.2l-0.3-0.2c-0.1-0.1-0.3-0.2-0.3-0.2v-0.1l1.9-0.8h0.1v2l0,0c0-0.1,0.1-0.3,0.3-0.5
		c0.1-0.3,0.3-0.4,0.4-0.7c0.2-0.3,0.3-0.4,0.6-0.6s0.5-0.3,0.8-0.3c0.3,0,0.4,0.1,0.6,0.3c0.2,0.2,0.3,0.3,0.3,0.6
		C122.9,79.9,122.8,80.1,122.6,80.3z"/>
	<path class="st0" d="M127.3,79.9h-2.2v3.8c0,0.3,0.1,0.8,0.3,1c0.3,0.3,0.5,0.3,0.8,0.3c0.3,0,0.5,0,0.7-0.2
		c0.2-0.1,0.3-0.3,0.5-0.4h0.1c-0.1,0.2-0.2,0.3-0.3,0.4c-0.1,0.2-0.3,0.3-0.4,0.4c-0.2,0.2-0.3,0.3-0.6,0.3s-0.5,0.1-0.8,0.1
		c-0.2,0-0.4,0-0.6-0.1s-0.3-0.2-0.5-0.3c-0.2-0.1-0.3-0.3-0.3-0.4c-0.1-0.2-0.2-0.3-0.2-0.4c0-0.9,0-1.8,0-2.5c0-0.8,0-1.5,0-2.2
		h-1v-0.1l2-1.9h0.1v1.3h2.7L127.3,79.9z"/>
	<path class="st0" d="M137.2,83.7c-0.2,0.4-0.4,0.8-0.8,1.2c-0.3,0.3-0.7,0.6-1.1,0.8c-0.4,0.2-0.8,0.3-1.3,0.3
		c-0.4,0-0.8-0.1-1.2-0.2c-0.4-0.2-0.8-0.3-1.1-0.7c-0.3-0.3-0.7-0.7-0.8-1.1c-0.3-0.5-0.3-1-0.3-1.6c0-0.4,0.1-0.8,0.3-1.3
		c0.3-0.8,0.9-1.5,1.8-1.9c0.4-0.2,0.9-0.3,1.4-0.3c0.8,0,1.6,0.3,2.2,0.8c0.3,0.3,0.6,0.6,0.8,1c0.3,0.5,0.3,1,0.3,1.5
		C137.5,82.8,137.4,83.3,137.2,83.7z M136,81.3c-0.1-0.3-0.2-0.7-0.3-1c-0.2-0.3-0.3-0.6-0.7-0.8c-0.3-0.3-0.7-0.3-1-0.3
		s-0.6,0.1-0.8,0.3c-0.3,0.2-0.5,0.4-0.7,0.8s-0.3,0.7-0.4,1c-0.1,0.4-0.2,0.8-0.2,1.2c0,0.4,0,0.8,0.1,1.3c0.1,0.3,0.2,0.7,0.3,1
		c0.2,0.3,0.4,0.5,0.7,0.8c0.3,0.2,0.6,0.3,0.9,0.3c0.3,0,0.7-0.1,0.9-0.3c0.3-0.3,0.5-0.5,0.6-0.8c0.2-0.3,0.3-0.8,0.3-1.1
		c0.1-0.3,0.1-0.8,0.1-1.1C136.1,82,136,81.6,136,81.3z"/>
	<path class="st0" d="M143,76.6c-0.1,0.2-0.3,0.3-0.4,0.3s-0.3,0-0.4-0.2c-0.1-0.1-0.3-0.2-0.3-0.3l-0.3-0.3
		c-0.1-0.1-0.2-0.2-0.3-0.3c-0.1,0-0.2,0-0.3,0c-0.1,0-0.3,0.1-0.3,0.2c-0.1,0.1-0.3,0.3-0.3,0.4c-0.1,0.3-0.2,0.5-0.2,0.7
		c0,0.4,0,0.8,0,1c0,0.3,0,0.6,0,0.9h1.6l-0.2,0.6h-1.5v5.6c0,0.1,0.1,0.2,0.2,0.2c0.1,0.1,0.2,0.1,0.3,0.1c0.1,0,0.3,0.1,0.3,0.1
		h0.4v0.2h-3.6v-0.1h0.3l0.4-0.1c0.1,0,0.3-0.1,0.3-0.2c0.1,0,0.2-0.1,0.2-0.2v-5.4h-1l0.2-0.6h0.9c0-0.4,0-0.8,0-1.2
		c0-0.3,0.1-0.6,0.2-0.9c0.1-0.3,0.3-0.4,0.4-0.6s0.4-0.3,0.7-0.5c0.3-0.2,0.5-0.3,0.8-0.3c0.3-0.1,0.6-0.1,0.9-0.1
		c0.2,0,0.3,0,0.4,0c0.2,0,0.3,0.1,0.3,0.2c0.1,0.1,0.2,0.2,0.3,0.3c0.1,0.1,0.1,0.3,0.1,0.3C143.2,76.3,143.1,76.6,143,76.6z"/>
	<path class="st0" d="M151,85.9v-0.2h0.2c0.1,0,0.3-0.1,0.3-0.1c0.1-0.1,0.3-0.1,0.3-0.2c0.1-0.1,0.2-0.2,0.2-0.3
		c0-0.2,0-0.3-0.1-0.4c-0.1-0.2-0.1-0.4-0.3-0.8l-0.3-0.9c-0.1-0.3-0.3-0.7-0.4-1.1h-3.8l-0.4,1l-0.4,1c-0.2,0.3-0.3,0.7-0.3,1.1
		c0,0.1,0,0.3,0.1,0.3c0.1,0.1,0.2,0.2,0.3,0.2c0.1,0.1,0.3,0.1,0.4,0.1l0.4,0.1v0.2h-3.1v-0.2c0.3,0,0.4-0.1,0.7-0.2
		c0.1-0.1,0.3-0.2,0.3-0.3c0.1-0.2,0.3-0.3,0.3-0.5c0.2-0.3,0.4-0.8,0.6-1.1l0.7-1.5l0.8-1.8c0.3-0.6,0.5-1.3,0.8-1.9l0.8-1.8
		l-0.1-0.3c0.2-0.1,0.3-0.2,0.5-0.3c0.2-0.1,0.3-0.2,0.3-0.3c0.1-0.1,0.2-0.3,0.3-0.3l0.2-0.3h0.1l0.8,2.3l0.8,2l0.7,1.9l0.7,1.9
		c0.1,0.3,0.2,0.5,0.3,0.8l0.3,0.7l0.2,0.2c0.1,0.1,0.2,0.2,0.3,0.3c0.1,0.1,0.3,0.2,0.4,0.3c0.2,0.1,0.3,0.2,0.6,0.2v0.2L151,85.9
		L151,85.9z M149.1,77.1c-0.1,0.1-0.2,0.3-0.3,0.6l-0.4,1l-0.5,1.3l-0.7,1.5h3.5l-0.5-1.3l-0.5-1.3l-0.4-1.1L149.1,77.1z"/>
	<path class="st0" d="M154.8,85.9v-0.2c0.3,0,0.6-0.1,0.8-0.2c0.2-0.1,0.3-0.2,0.3-0.3V77c0-0.1,0-0.1,0-0.2s-0.1-0.1-0.1-0.2
		l-0.4-0.3c-0.2-0.1-0.3-0.2-0.4-0.3V76l2-0.7h0.1v9.9c0,0.1,0,0.2,0.1,0.3c0.1,0.1,0.1,0.1,0.2,0.1s0.3,0,0.3,0h0.5v0.2L154.8,85.9
		L154.8,85.9z"/>
	<path class="st0" d="M162.9,79.9h-2.2v3.8c0,0.3,0.1,0.8,0.3,1s0.5,0.3,0.8,0.3c0.3,0,0.5,0,0.7-0.2c0.2-0.1,0.3-0.3,0.5-0.4h0.1
		c-0.1,0.2-0.2,0.3-0.3,0.4c-0.1,0.2-0.3,0.3-0.4,0.4c-0.2,0.2-0.3,0.3-0.6,0.3s-0.5,0.1-0.8,0.1c-0.2,0-0.4,0-0.6-0.1
		s-0.3-0.2-0.5-0.3c-0.2-0.1-0.3-0.3-0.3-0.4s-0.2-0.3-0.2-0.4c0-0.9,0-1.8,0-2.5c0-0.8,0-1.5,0-2.2h-1v-0.1l2-1.9h0.1v1.3h2.7
		L162.9,79.9z"/>
	<path class="st0" d="M168.9,84.4c-0.2,0.3-0.3,0.5-0.6,0.8c-0.3,0.3-0.5,0.4-0.8,0.6c-0.3,0.2-0.7,0.3-1.1,0.3s-0.9-0.1-1.3-0.3
		c-0.4-0.2-0.8-0.4-1-0.8c-0.3-0.3-0.5-0.8-0.7-1.2c-0.2-0.4-0.3-0.9-0.3-1.4c0-0.8,0.3-1.6,0.8-2.3c0.3-0.3,0.6-0.6,0.9-0.8
		c0.4-0.2,0.8-0.3,1.3-0.3c0.3,0,0.7,0.1,1,0.2s0.6,0.3,0.8,0.4c0.3,0.2,0.4,0.4,0.6,0.8s0.3,0.7,0.3,1h-4.6c0,0.1,0,0.2,0,0.3
		c0,0.1,0,0.2,0,0.3c0,0.4,0.1,0.8,0.2,1.2c0.1,0.3,0.3,0.7,0.5,1c0.3,0.3,0.5,0.5,0.8,0.7s0.8,0.3,1.2,0.3c0.4,0,0.8-0.1,1.3-0.3
		c0.3-0.2,0.6-0.5,0.7-0.9h0.1C169.1,84,169,84.2,168.9,84.4z M167.2,79.5c-0.3-0.3-0.7-0.4-1-0.3c-0.3,0-0.5,0.1-0.8,0.3
		c-0.3,0.2-0.4,0.3-0.6,0.6c-0.2,0.2-0.3,0.4-0.3,0.7c-0.1,0.2-0.1,0.3-0.2,0.5h2.6c0.1,0,0.3,0,0.3-0.1s0.1-0.2,0.2-0.3
		c0-0.1,0-0.2,0-0.3C167.6,80.2,167.5,79.8,167.2,79.5z"/>
	<path class="st0" d="M174.3,80.3c-0.1,0.2-0.3,0.2-0.4,0.2s-0.3,0-0.3-0.1c-0.1-0.1-0.2-0.1-0.3-0.2c-0.1-0.1-0.2-0.2-0.3-0.2
		c-0.1-0.1-0.2-0.1-0.3-0.1c-0.1,0-0.3,0.1-0.3,0.1c-0.1,0.1-0.3,0.2-0.3,0.3c-0.1,0.2-0.2,0.3-0.3,0.4c-0.1,0.2-0.2,0.3-0.2,0.4
		v4.1c0,0.1,0.1,0.2,0.2,0.2c0.1,0.1,0.3,0.1,0.3,0.1h0.3h0.3v0.2h-3.2v-0.1c0.2,0,0.4-0.1,0.6-0.2s0.3-0.2,0.3-0.3v-4.9
		c0-0.1,0-0.1,0-0.2s-0.1-0.1-0.1-0.2l-0.3-0.2c-0.1-0.1-0.3-0.2-0.3-0.2v-0.1l1.9-0.8h0.1v2l0,0l0.3-0.5c0.1-0.3,0.3-0.4,0.4-0.7
		c0.2-0.3,0.3-0.4,0.6-0.6s0.5-0.3,0.8-0.3c0.3,0,0.4,0.1,0.6,0.3c0.2,0.2,0.3,0.3,0.3,0.6C174.5,79.9,174.4,80.1,174.3,80.3z"/>
	<path class="st0" d="M178.8,85.9v-0.2c0.2,0,0.4,0,0.6-0.1c0.2,0,0.3-0.2,0.3-0.3v-3.6c0-0.5-0.1-0.9-0.3-1.3
		c-0.3-0.3-0.6-0.5-1-0.5c-0.3,0-0.6,0.1-0.8,0.2c-0.3,0.2-0.5,0.3-0.7,0.6v4.7c0,0.1,0.1,0.2,0.1,0.2c0.1,0.1,0.1,0.1,0.2,0.1h0.3
		h0.3v0.2h-2.8v-0.1c0.2,0,0.4-0.1,0.6-0.2s0.3-0.2,0.3-0.3v-5c0-0.1,0-0.1,0-0.2s-0.1-0.1-0.1-0.2l-0.3-0.2l-0.3-0.2v-0.1l1.9-0.7
		h0.1v1.5l0,0c0.1-0.2,0.3-0.3,0.4-0.5c0.2-0.2,0.3-0.3,0.5-0.5c0.2-0.2,0.4-0.3,0.7-0.3c0.3-0.1,0.5-0.2,0.8-0.2
		c0.5,0,1,0.3,1.3,0.6c0.3,0.5,0.5,1,0.4,1.6v4.2c0,0.1,0,0.2,0.1,0.2c0.1,0.1,0.2,0.1,0.3,0.1l0.3,0.1h0.3v0.2L178.8,85.9
		L178.8,85.9z"/>
	<path class="st0" d="M188.4,85c-0.1,0.2-0.2,0.3-0.3,0.5c-0.1,0.2-0.3,0.3-0.4,0.3c-0.2,0.1-0.3,0.1-0.6,0.1
		c-0.3,0-0.6-0.1-0.8-0.3c-0.3-0.3-0.4-0.7-0.3-1l0,0c-0.1,0.2-0.2,0.3-0.3,0.4s-0.3,0.3-0.4,0.4c-0.2,0.2-0.3,0.3-0.6,0.3
		c-0.3,0.1-0.5,0.1-0.7,0.1s-0.3,0-0.5-0.1c-0.2-0.1-0.3-0.1-0.4-0.3c-0.2-0.1-0.3-0.3-0.3-0.4s-0.2-0.4-0.1-0.6
		c0-0.3,0.1-0.6,0.3-0.8c0.3-0.3,0.5-0.5,0.8-0.7l0.8-0.5l0.7-0.3l0.5-0.3l0.3-0.2v-1.5c0-0.1,0-0.1,0-0.2c-0.1-0.1-0.1-0.2-0.2-0.3
		c-0.1-0.1-0.3-0.2-0.3-0.2c-0.2-0.1-0.3-0.1-0.6-0.1c-0.2,0-0.3,0-0.4,0.1c-0.2,0.1-0.3,0.1-0.4,0.2c-0.1,0.1-0.2,0.2-0.3,0.3
		c-0.1,0.1-0.1,0.2-0.1,0.2V81c0,0.2-0.1,0.3-0.2,0.3c-0.2,0.1-0.3,0.2-0.4,0.2s-0.3-0.1-0.4-0.2c-0.1-0.1-0.2-0.3-0.2-0.3
		c0-0.1,0-0.3,0.1-0.3c0.1-0.1,0.2-0.2,0.3-0.3c0.1-0.1,0.2-0.2,0.3-0.2l0.3-0.2l0.8-0.4c0.3-0.2,0.5-0.3,0.8-0.3
		c0.2-0.1,0.4-0.2,0.7-0.3c0.2-0.1,0.3-0.1,0.5-0.1c0.3,0,0.5,0.1,0.7,0.2s0.3,0.3,0.5,0.5c0.1,0.1,0.1,0.3,0.1,0.3
		c0,0.2,0,0.3,0,0.5c0,0.3,0,0.7,0,0.9c0,0.3,0,0.6,0,0.8c0,0.3,0,0.5,0,0.8c0,0.3,0,0.6,0,0.9c0,0.3,0.1,0.6,0.3,0.8
		c0.2,0.2,0.3,0.2,0.5,0.2c0.2,0,0.3,0,0.5-0.2c0.1-0.1,0.2-0.3,0.3-0.3h0.1C188.6,84.7,188.5,84.8,188.4,85z M185.9,82
		c-0.2,0.2-0.4,0.3-0.7,0.4c-0.3,0.2-0.5,0.3-0.8,0.4c-0.3,0.2-0.4,0.3-0.6,0.5s-0.3,0.4-0.3,0.7c0,0.3,0.1,0.5,0.3,0.7
		c0.2,0.2,0.4,0.3,0.7,0.3s0.4,0,0.7-0.1c0.2-0.1,0.4-0.2,0.5-0.3c0.1-0.1,0.2-0.3,0.2-0.4L185.9,82L185.9,82z"/>
	<path class="st0" d="M192.8,79.9h-2.1v3.8c0,0.3,0.1,0.8,0.3,1c0.3,0.3,0.5,0.3,0.8,0.3c0.3,0,0.5,0,0.7-0.2
		c0.2-0.1,0.3-0.3,0.5-0.4h0.1c-0.1,0.2-0.2,0.3-0.3,0.4c-0.1,0.2-0.3,0.3-0.4,0.4c-0.2,0.2-0.3,0.3-0.6,0.3
		c-0.3,0.1-0.5,0.1-0.8,0.1c-0.2,0-0.4,0-0.6-0.1s-0.3-0.2-0.5-0.3c-0.2-0.1-0.3-0.3-0.3-0.4c-0.1-0.2-0.2-0.3-0.2-0.4
		c0-0.9,0-1.8,0-2.5c0-0.8,0-1.5,0-2.2h-1v-0.1l2-1.9h0.1v1.3h2.7L192.8,79.9z"/>
	<path class="st0" d="M193.2,85.9v-0.2h0.3c0.1,0,0.2-0.1,0.3-0.1c0.1,0,0.2-0.1,0.3-0.2c0.1-0.1,0.1-0.2,0.1-0.3v-5
		c0-0.1,0-0.2,0-0.2c0-0.1-0.1-0.1-0.1-0.2l-0.3-0.2l-0.3-0.2v-0.1l1.9-0.6h0.1v6.4c0,0.1,0.1,0.2,0.1,0.2c0.1,0.1,0.2,0.1,0.3,0.1
		h0.3h0.3v0.2h-3L193.2,85.9z M195.2,77.2c-0.3,0.3-0.8,0.3-1.1,0c-0.2-0.2-0.3-0.3-0.3-0.5s0.1-0.4,0.3-0.6c0.3-0.3,0.8-0.3,1.1,0
		c0.2,0.2,0.3,0.3,0.3,0.6C195.5,76.9,195.4,77.1,195.2,77.2L195.2,77.2z"/>
	<path class="st0" d="M203.3,79.3c-0.2,0-0.3,0.1-0.4,0.1c-0.2,0.1-0.3,0.2-0.4,0.3c-0.2,0.1-0.3,0.3-0.3,0.4l-0.4,0.9l-0.5,1.2
		l-0.5,1.2l-0.4,1.1l-0.2,0.4l-0.2,0.3l-0.2,0.3l-0.2,0.3c0,0.1-0.1,0.1-0.2,0.1h-0.1v-0.1l-0.4-1.1l-0.4-1.2l-0.4-1.2l-0.6-1.4
		l-0.1-0.3l-0.2-0.4l-0.2-0.4c-0.1-0.1-0.1-0.3-0.2-0.3s-0.2-0.2-0.3-0.2c-0.2-0.1-0.4-0.2-0.7-0.2v-0.2h3.5v0.2h-0.3l-0.3,0.1
		c-0.1,0-0.2,0.1-0.3,0.1c-0.1,0.1-0.1,0.2-0.1,0.3c0,0.1,0.1,0.3,0.1,0.3l0.3,0.7l0.3,0.8l0.3,1l0.4,0.9c0.1,0.3,0.3,0.6,0.3,0.8
		l0.5-1.3c0.2-0.5,0.3-0.9,0.6-1.4c0.2-0.5,0.3-0.8,0.4-1.3c0.1-0.3,0.2-0.4,0.2-0.7c0-0.1,0-0.3-0.1-0.3c-0.1-0.1-0.2-0.2-0.3-0.2
		c-0.1,0-0.3,0-0.3,0h-0.3v-0.2h2.8V79L203.3,79.3z"/>
	<path class="st0" d="M208.9,84.4c-0.2,0.3-0.3,0.5-0.6,0.8c-0.3,0.3-0.5,0.4-0.8,0.6c-0.3,0.2-0.7,0.3-1.1,0.3
		c-0.4,0-0.9-0.1-1.3-0.3s-0.8-0.4-1-0.8c-0.3-0.3-0.5-0.8-0.7-1.2c-0.2-0.4-0.3-0.9-0.3-1.4c0-0.8,0.3-1.6,0.8-2.3
		c0.3-0.3,0.6-0.6,1-0.8c0.4-0.2,0.8-0.3,1.3-0.3c0.3,0,0.7,0.1,1,0.2s0.6,0.3,0.8,0.4c0.3,0.2,0.4,0.4,0.6,0.8s0.3,0.7,0.3,1h-4.6
		c0,0.1,0,0.2,0,0.3c0,0.1,0,0.2,0,0.3c0,0.4,0.1,0.8,0.2,1.2c0.1,0.3,0.3,0.7,0.5,1c0.3,0.3,0.5,0.5,0.8,0.7s0.8,0.3,1.2,0.3
		c0.4,0,0.8-0.1,1.3-0.3c0.3-0.2,0.6-0.5,0.7-0.9h0.1C209.2,84,209.1,84.2,208.9,84.4z M207.3,79.5c-0.3-0.3-0.7-0.4-1-0.3
		c-0.3,0-0.5,0.1-0.8,0.3c-0.3,0.2-0.4,0.3-0.6,0.6c-0.2,0.2-0.3,0.4-0.3,0.7c-0.1,0.2-0.1,0.3-0.2,0.5h2.6c0.1,0,0.3,0,0.3-0.1
		s0.1-0.2,0.2-0.3c0-0.1,0-0.2,0-0.3C207.6,80.2,207.5,79.8,207.3,79.5z"/>
	<path class="st0" d="M219.9,84.3c-0.2,0.3-0.4,0.7-0.8,0.9c-0.3,0.3-0.8,0.4-1.2,0.6c-0.5,0.2-1,0.2-1.5,0.2c-0.4,0-0.8,0-1.2-0.1
		c-0.3-0.1-0.6-0.1-0.8-0.2c-0.2-0.1-0.3-0.2-0.5-0.3c-0.1-0.1-0.2-0.1-0.2-0.1c-0.1,0-0.2,0.1-0.2,0.2l-0.3,0.3h-0.1V83h0.2
		c0.1,0.3,0.2,0.5,0.3,0.8c0.2,0.3,0.3,0.5,0.4,0.7c0.2,0.2,0.3,0.4,0.5,0.6c0.2,0.2,0.3,0.3,0.5,0.3s0.4,0.2,0.7,0.3
		c0.8,0.3,1.8,0.1,2.5-0.4c0.4-0.4,0.7-1,0.7-1.6c0-0.3,0-0.5-0.2-0.7c-0.1-0.2-0.2-0.3-0.3-0.5c-0.2-0.2-0.3-0.3-0.5-0.3
		c-0.2-0.1-0.4-0.2-0.7-0.3l-0.6-0.3l-0.5-0.2l-0.4-0.2l-0.6-0.2c-0.3-0.1-0.5-0.3-0.8-0.4c-0.3-0.2-0.4-0.3-0.6-0.6
		s-0.3-0.5-0.4-0.8s-0.2-0.6-0.2-0.8c0-0.4,0.1-0.9,0.3-1.3c0.2-0.3,0.4-0.7,0.8-0.9c0.3-0.3,0.7-0.4,1.1-0.6
		c0.4-0.1,0.8-0.2,1.3-0.2c0.3,0,0.8,0,1.1,0.1c0.3,0.1,0.5,0.2,0.8,0.3c0.2,0.1,0.3,0.2,0.4,0.3l0.2,0.1c0.1,0,0.2-0.1,0.2-0.2
		c0.1-0.1,0.2-0.3,0.3-0.3h0.2v2.7h-0.2c-0.1-0.3-0.3-0.7-0.4-0.9c-0.2-0.3-0.4-0.6-0.6-0.8c-0.3-0.3-0.5-0.4-0.8-0.6
		s-0.7-0.3-1-0.3c-0.3,0-0.6,0.1-0.8,0.2c-0.3,0.1-0.5,0.3-0.7,0.4s-0.3,0.4-0.4,0.7c-0.1,0.3-0.2,0.6-0.2,0.8
		c0,0.4,0.2,0.9,0.4,1.3c0.3,0.3,0.8,0.6,1.2,0.8l0.5,0.2l0.5,0.2l0.5,0.2l0.5,0.2c0.6,0.2,1.1,0.5,1.5,1
		C220.4,82.2,220.5,83.4,219.9,84.3z"/>
	<path class="st0" d="M226.9,84.7c-0.2,0.3-0.4,0.5-0.6,0.7c-0.3,0.2-0.5,0.3-0.8,0.4c-0.3,0.1-0.7,0.2-1,0.2
		c-0.4,0-0.8-0.1-1.3-0.3s-0.8-0.4-1-0.8c-0.3-0.3-0.5-0.8-0.7-1.1c-0.2-0.4-0.3-0.9-0.3-1.3c0-0.4,0.1-0.9,0.3-1.3
		c0.2-0.4,0.4-0.8,0.7-1.1c0.3-0.3,0.7-0.6,1-0.8c0.4-0.2,0.8-0.3,1.3-0.3c0.3,0,0.6,0,0.9,0.1c0.3,0.1,0.6,0.2,0.8,0.3
		c0.3,0.2,0.4,0.3,0.6,0.5c0.2,0.3,0.3,0.5,0.3,0.8c0,0.4-0.3,0.8-0.8,0.8c-0.2,0-0.3-0.1-0.4-0.2c-0.1-0.1-0.3-0.3-0.3-0.3
		c0.1-0.2,0.1-0.3,0.1-0.5c0-0.3-0.1-0.7-0.3-0.9c-0.3-0.3-0.6-0.4-0.9-0.3c-0.3,0-0.6,0.1-0.8,0.3c-0.3,0.2-0.5,0.3-0.7,0.6
		c-0.2,0.3-0.3,0.6-0.4,0.9c-0.1,0.3-0.2,0.8-0.2,1.1c0,0.4,0.1,0.8,0.2,1.2c0.1,0.3,0.3,0.7,0.5,0.9c0.2,0.3,0.5,0.4,0.8,0.6
		c0.3,0.2,0.7,0.3,1,0.2c0.5,0,1-0.1,1.4-0.3c0.3-0.2,0.7-0.5,0.8-0.8l0.1,0.1C227.2,84.1,227,84.4,226.9,84.7z"/>
	<path class="st0" d="M231.6,85.9v-0.2c0.3,0,0.4-0.1,0.7-0.1c0.2,0,0.3-0.2,0.3-0.3v-3.6c0-0.3,0-0.5-0.1-0.8
		c0-0.3-0.1-0.4-0.2-0.6c-0.1-0.2-0.3-0.3-0.4-0.4s-0.4-0.2-0.7-0.2c-0.3,0-0.6,0.1-0.8,0.2c-0.3,0.1-0.4,0.3-0.6,0.5
		c0,0.1-0.1,0.1-0.1,0.2s0,0.2,0,0.3v4.4c0,0.1,0,0.2,0.1,0.2c0.1,0.1,0.1,0.1,0.2,0.1h0.3h0.3v0.2h-2.9v-0.1c0.2,0,0.4-0.1,0.6-0.1
		s0.3-0.2,0.3-0.3V77c0-0.1,0-0.1,0-0.2s-0.1-0.1-0.1-0.2c-0.1-0.1-0.2-0.2-0.3-0.2l-0.3-0.2v-0.1l1.9-0.8h0.1v5l0,0
		c0.1-0.2,0.2-0.3,0.3-0.4c0.2-0.2,0.3-0.3,0.5-0.5c0.3-0.2,0.5-0.3,0.8-0.4c0.3-0.1,0.6-0.2,0.9-0.2c0.3,0,0.5,0.1,0.8,0.2
		c0.2,0.1,0.4,0.3,0.5,0.4c0.2,0.3,0.3,0.4,0.3,0.7c0.1,0.3,0.1,0.6,0.1,0.8v4.2c0,0.1,0,0.2,0.1,0.2c0.1,0.1,0.2,0.1,0.3,0.1
		l0.3,0.1h0.3v0.2L231.6,85.9L231.6,85.9z"/>
	<path class="st0" d="M241.5,83.7c-0.2,0.4-0.4,0.8-0.8,1.2c-0.3,0.3-0.7,0.6-1,0.8c-0.4,0.2-0.8,0.3-1.3,0.3
		c-0.4,0-0.8-0.1-1.2-0.2c-0.4-0.2-0.8-0.3-1.1-0.7c-0.3-0.3-0.7-0.7-0.8-1.1c-0.3-0.5-0.3-1-0.3-1.6c0-0.4,0.1-0.8,0.3-1.3
		c0.5-1.3,1.8-2.2,3.2-2.1c0.8,0,1.6,0.3,2.2,0.8c0.3,0.3,0.6,0.6,0.8,1c0.3,0.5,0.3,1,0.3,1.5C241.8,82.8,241.7,83.3,241.5,83.7z
		 M240.4,81.3c-0.1-0.3-0.2-0.7-0.3-1c-0.2-0.3-0.3-0.6-0.7-0.8c-0.3-0.3-0.7-0.3-1-0.3c-0.3,0-0.6,0.1-0.8,0.3
		c-0.3,0.2-0.5,0.4-0.7,0.8s-0.3,0.7-0.4,1c-0.1,0.4-0.2,0.8-0.2,1.2c0,0.4,0,0.8,0.1,1.3c0.1,0.3,0.2,0.7,0.3,1
		c0.2,0.3,0.4,0.5,0.7,0.8c0.3,0.2,0.6,0.3,0.9,0.3c0.3,0,0.7-0.1,0.9-0.3c0.3-0.3,0.5-0.5,0.6-0.8c0.2-0.3,0.3-0.8,0.3-1.1
		c0.1-0.3,0.1-0.8,0.1-1.1C240.4,82,240.4,81.6,240.4,81.3L240.4,81.3z"/>
	<path class="st0" d="M248.9,83.7c-0.2,0.4-0.4,0.8-0.8,1.2c-0.3,0.3-0.7,0.6-1.1,0.8c-0.4,0.2-0.8,0.3-1.3,0.3
		c-0.4,0-0.8-0.1-1.2-0.2c-0.4-0.2-0.8-0.3-1.1-0.7s-0.7-0.7-0.8-1.1c-0.3-0.5-0.3-1-0.3-1.6c0-0.4,0.1-0.8,0.3-1.3
		c0.5-1.3,1.8-2.2,3.2-2.1c0.8,0,1.6,0.3,2.2,0.8c0.3,0.3,0.6,0.6,0.8,1c0.3,0.5,0.3,1,0.3,1.5C249.1,82.8,249,83.3,248.9,83.7z
		 M247.7,81.3c-0.1-0.3-0.2-0.7-0.3-1c-0.2-0.3-0.3-0.6-0.7-0.8c-0.3-0.3-0.7-0.3-1-0.3c-0.3,0-0.6,0.1-0.8,0.3
		c-0.3,0.2-0.5,0.4-0.7,0.8c-0.2,0.3-0.3,0.7-0.4,1c-0.1,0.4-0.2,0.8-0.2,1.2c0,0.4,0,0.8,0.1,1.3c0.1,0.3,0.2,0.7,0.3,1
		c0.2,0.3,0.4,0.5,0.7,0.8c0.3,0.2,0.6,0.3,0.9,0.3s0.7-0.1,0.9-0.3c0.3-0.3,0.5-0.5,0.6-0.8c0.2-0.3,0.3-0.8,0.3-1.1
		c0.1-0.3,0.1-0.8,0.1-1.1C247.8,82,247.7,81.6,247.7,81.3L247.7,81.3z"/>
	<path class="st0" d="M249.5,85.9v-0.2c0.3,0,0.6-0.1,0.8-0.2c0.2-0.1,0.3-0.2,0.3-0.3V77c0-0.1,0-0.1,0-0.2s-0.1-0.1-0.1-0.2
		l-0.4-0.3c-0.2-0.1-0.3-0.2-0.4-0.3V76l2-0.7h0.1v9.9c0,0.1,0,0.2,0.1,0.3c0.1,0.1,0.1,0.1,0.2,0.1c0.1,0,0.3,0,0.3,0h0.5v0.2
		L249.5,85.9L249.5,85.9z"/>
	<path class="st0" d="M258,84.7c-0.2,0.3-0.3,0.5-0.6,0.7c-0.3,0.2-0.6,0.3-0.8,0.3c-0.3,0.1-0.7,0.1-1,0.1c-0.4,0-0.8,0-1.2-0.1
		c-0.3-0.1-0.7-0.2-1-0.3v-1.9h0.1c0.1,0.3,0.2,0.5,0.3,0.8c0.1,0.3,0.3,0.5,0.4,0.7c0.2,0.3,0.3,0.4,0.6,0.5
		c0.3,0.2,0.5,0.3,0.8,0.2c0.4,0,0.8-0.1,1.1-0.4c0.3-0.3,0.4-0.8,0.4-1.2c0-0.3-0.1-0.5-0.3-0.8c-0.2-0.2-0.5-0.3-0.8-0.4l-0.8-0.2
		c-0.3-0.1-0.4-0.1-0.7-0.2c-0.3-0.1-0.7-0.3-0.8-0.7c-0.3-0.3-0.3-0.7-0.3-1.1c0-0.3,0.1-0.6,0.2-0.8c0.1-0.3,0.3-0.4,0.5-0.6
		c0.3-0.2,0.5-0.3,0.8-0.4c0.3-0.1,0.6-0.2,0.9-0.2s0.7,0,1,0.1c0.3,0.1,0.6,0.2,0.8,0.3l0.2,1.8h-0.1c-0.2-0.3-0.3-0.6-0.4-0.8
		c-0.1-0.3-0.3-0.4-0.4-0.6c-0.2-0.2-0.3-0.3-0.6-0.4c-0.3-0.1-0.5-0.2-0.7-0.2c-0.2,0-0.3,0-0.5,0.1s-0.3,0.2-0.4,0.3
		c-0.1,0.1-0.3,0.3-0.3,0.4s-0.1,0.4-0.1,0.6c0,0.3,0.1,0.6,0.3,0.8c0.3,0.2,0.5,0.3,0.8,0.3l0.8,0.2l0.7,0.2
		c0.4,0.1,0.8,0.3,1.1,0.7c0.3,0.3,0.4,0.8,0.4,1.3C258.2,84.1,258.2,84.5,258,84.7z"/>
	<path class="st0" d="M43.8,55.9l34.6-0.3l35.4-0.2l40.7-0.1l40.7,0.1l35.4,0.2l34.6,0.3l-34.6,0.3l-35.4,0.2l-40.7,0.1l-40.7-0.2
		l-35.4-0.2L43.8,55.9z"/>
</g>
</svg>
