<?xml version="1.0" encoding="utf-8"?>
<!-- Generator: Adobe Illustrator 24.3.0, SVG Export Plug-In . SVG Version: 6.00 Build 0)  -->
<svg version="1.1" id="Layer_1" xmlns="http://www.w3.org/2000/svg" xmlns:xlink="http://www.w3.org/1999/xlink" x="0px" y="0px"
	 viewBox="0 0 946 392.9" style="enable-background:new 0 0 946 392.9;" xml:space="preserve">
<style type="text/css">
	.st0{fill-rule:evenodd;clip-rule:evenodd;fill:#013D93;}
	.st1{fill-rule:evenodd;clip-rule:evenodd;fill:#FFFFFF;}
	.st2{fill-rule:evenodd;clip-rule:evenodd;fill:#FF0000;}
	.st3{fill:#013D93;}
</style>
<path class="st0" d="M218.2,1.9c107.4,0,194.5,87.1,194.5,194.5S325.7,391,218.2,391S23.7,303.9,23.7,196.4S110.8,1.9,218.2,1.9"/>
<path class="st1" d="M262,298.5c25.3,13.6,49.9,16.4,59.7,1.1c19.4-30.1-8.8-103-62.9-164s-113.7-86.1-133.1-56s8.8,105,62.9,166.1
	c1.4,1.6,2.9,3.2,4.3,4.8l4.6,6.5c6.9,9.6,18.6,29.7,27.6,23.2s-15.5-18.5-22-26.2c-3.5-4.2-7.6-8-11.3-12.3
	c-50.7-57.7-78.1-129.6-59.9-158s75-1.6,125.7,56.1s77.1,126.5,58.9,154.9C307.1,309.2,287.4,310.6,262,298.5"/>
<path class="st2" d="M53.9,371.5l0.1-5.7C193.9,225,262.6,223.3,378,122.9C263,199.4,95.9,199.4,4.4,256.2L0,254.1
	c132.4-87.3,363.3-95.6,473-235.9C415.6,165.4,212.6,214,53.9,371.5"/>
<polygon class="st1" points="62,158.6 71.4,158.6 87.5,158.6 113.8,203.1 113.8,166 106.4,158.6 113.8,158.6 115.7,158.6 
	122.2,158.6 124.3,158.6 130.8,158.6 124.3,165.1 124.3,220.9 130.6,231.5 124.3,231.5 113.8,231.5 99.4,231.5 71.4,184 71.4,223 
	79.9,231.5 71.4,231.5 69.8,231.5 66.8,231.5 62,231.5 53.5,231.5 62,223.1 62,168.1 56.3,158.6 "/>
<path class="st1" d="M185.2,205.1l-10-27.1l-7.5,27.1L185.2,205.1z M170.4,158.6h27.8l27.9,72.9h-40.8l7.1-7.1l-3.5-9.5H165
	l-2.6,9.2l5.2,7.4h-24.3l9.5-9.5l15.6-56.3l-7.2-7.2H170.4L170.4,158.6z"/>
<path class="st1" d="M350.4,205.1l-10-27.1l-7.5,27.1H350.4z M335.6,158.6h27.8l27.9,72.9h-40.8l7.1-7.1l-3.5-9.5h-23.9l-2.6,9.2
	l5.2,7.4h-24.3l9.5-9.5l15.6-56.3l-7.2-7.2H335.6L335.6,158.6z"/>
<path class="st1" d="M240,212.4l4.8,4.8c11.6,9,34,8.4,34-0.3c0-10.8-40.1-7.9-40.1-35.7c0-13.5,11.2-22.2,28.7-22.6
	c7.5,0,15.5,2.6,23.3,3.3l4.7-3.3v19.2l-2.5-2.5l0,0c-5.7-4.3-12.6-6.8-19.7-7.3c-7.1-0.4-11.6,1.7-11.6,6.5
	c0,6.9,10.3,7.6,20.5,12.6s21.6,14.1,21.5,24.2c0,13.2-16.5,22.8-34.1,23.2c-8.3,0.2-14.5-1-19.9-4.7l-9.5,6.8V212.4z"/>
<path class="st1" d="M339.7,288.4c0.9,0,1.6,0.7,1.6,1.6s-0.7,1.6-1.6,1.6s-1.6-0.7-1.6-1.6c0,0,0,0,0,0
	C338.1,289.1,338.8,288.4,339.7,288.4"/>
<path class="st1" d="M354.8,297.9c1,0,1.9,0.8,1.9,1.9s-0.8,1.9-1.9,1.9s-1.9-0.8-1.9-1.9v0C353,298.7,353.8,297.9,354.8,297.9"/>
<path class="st1" d="M343.4,298.2c1,0,1.9,0.8,1.9,1.9s-0.8,1.9-1.9,1.9s-1.9-0.8-1.9-1.9v0C341.5,299,342.4,298.2,343.4,298.2"/>
<path class="st1" d="M360.8,254.3c1.3,0,2.3,1,2.3,2.3s-1,2.3-2.3,2.3s-2.3-1-2.3-2.3l0,0C358.5,255.3,359.6,254.3,360.8,254.3"/>
<path class="st1" d="M367.2,268.3c1.3,0,2.3,1,2.3,2.3c0,1.3-1,2.3-2.3,2.3c-1.3,0-2.3-1-2.3-2.3c0,0,0,0,0,0
	C365,269.3,366,268.3,367.2,268.3"/>
<path class="st1" d="M357.2,272.4c0.8,0,1.5,0.7,1.5,1.5c0,0.8-0.7,1.5-1.5,1.5c-0.8,0-1.5-0.7-1.5-1.5
	C355.7,273.1,356.4,272.4,357.2,272.4C357.2,272.4,357.2,272.4,357.2,272.4"/>
<path class="st1" d="M339.8,257.1c1.2,0,2.2,1,2.2,2.2s-1,2.2-2.2,2.2c-1.2,0-2.2-1-2.2-2.2C337.5,258.1,338.5,257.2,339.8,257.1
	C339.7,257.1,339.7,257.1,339.8,257.1"/>
<path class="st1" d="M336,247.4c0.9,0,1.7,0.7,1.7,1.6c0,0.9-0.7,1.7-1.6,1.7s-1.7-0.7-1.7-1.6c0,0,0,0,0,0
	C334.4,248.1,335.1,247.4,336,247.4"/>
<path class="st1" d="M309.9,271.8c1,0,1.9,0.8,1.9,1.9s-0.8,1.9-1.9,1.9s-1.9-0.8-1.9-1.9v0C308.1,272.6,308.9,271.8,309.9,271.8"/>
<path class="st1" d="M309.1,258.1c1.2,0,2.1,1,2.1,2.1s-1,2.1-2.1,2.1s-2.1-1-2.1-2.1C307,259.1,307.9,258.1,309.1,258.1
	C309.1,258.1,309.1,258.1,309.1,258.1"/>
<path class="st1" d="M302.9,333c1.1,0,2,0.9,2,2s-0.9,2-2,2s-2-0.9-2-2S301.8,333,302.9,333"/>
<path class="st1" d="M295.4,290.5c1.1,0,1.9,0.9,1.9,1.9s-0.9,1.9-1.9,1.9s-1.9-0.9-1.9-1.9c0,0,0,0,0,0
	C293.5,291.3,294.3,290.5,295.4,290.5L295.4,290.5"/>
<path class="st1" d="M295.8,268.4c1,0,1.8,0.8,1.8,1.8c0,1-0.8,1.8-1.8,1.8c-1,0-1.8-0.8-1.8-1.8S294.8,268.4,295.8,268.4
	C295.8,268.4,295.8,268.4,295.8,268.4"/>
<path class="st1" d="M239.1,300.5c1.1,0,1.9,0.9,1.9,1.9s-0.9,1.9-1.9,1.9c-1.1,0-1.9-0.9-1.9-1.9l0,0
	C237.2,301.4,238,300.5,239.1,300.5"/>
<path class="st1" d="M200.7,314c0.9,0,1.7,0.8,1.7,1.7s-0.8,1.7-1.7,1.7c-0.9,0-1.7-0.8-1.7-1.7C199,314.8,199.8,314,200.7,314"/>
<path class="st1" d="M140.7,337.1c1,0,1.8,0.8,1.8,1.8c0,1-0.8,1.8-1.8,1.8c-1,0-1.8-0.8-1.8-1.8l0,0
	C138.9,338,139.7,337.1,140.7,337.1C140.7,337.1,140.7,337.1,140.7,337.1"/>
<path class="st1" d="M157,318.5c1.1,0,2,0.9,2,2s-0.9,2-2,2s-2-0.9-2-2S155.9,318.5,157,318.5"/>
<path class="st1" d="M135.1,314.1c1,0,1.8,0.8,1.8,1.8c0,1-0.8,1.8-1.8,1.8c-1,0-1.8-0.8-1.8-1.8l0,0
	C133.3,314.9,134.1,314.1,135.1,314.1"/>
<path class="st1" d="M154.6,299.2c1.2,0,2.1,1,2.1,2.2c0,1.2-1,2.1-2.2,2.1c-1.2,0-2.1-1-2.1-2.1c0,0,0,0,0,0
	C152.5,300.1,153.5,299.2,154.6,299.2C154.6,299.2,154.6,299.2,154.6,299.2"/>
<path class="st1" d="M95.4,298c1.4,0,2.6,1.2,2.6,2.6c0,1.4-1.2,2.6-2.6,2.6c-1.4,0-2.6-1.2-2.6-2.6l0,0C92.8,299.2,94,298,95.4,298
	"/>
<path class="st1" d="M87.7,292.8c1,0,1.8,0.8,1.8,1.9c0,1-0.8,1.9-1.8,1.9c-1,0-1.8-0.8-1.8-1.9S86.7,292.8,87.7,292.8
	C87.7,292.8,87.7,292.8,87.7,292.8"/>
<path class="st1" d="M69.1,283.4c1.2,0,2.1,0.9,2.1,2.1s-0.9,2.1-2.1,2.1c-1.2,0-2.1-0.9-2.1-2.1c0,0,0,0,0,0
	C67,284.4,67.9,283.4,69.1,283.4C69.1,283.4,69.1,283.4,69.1,283.4"/>
<path class="st1" d="M90.4,281.3c1.2,0,2.2,1,2.2,2.1s-1,2.1-2.2,2.1c-1.2,0-2.2-1-2.2-2.1l0,0C88.3,282.3,89.2,281.3,90.4,281.3
	C90.4,281.3,90.4,281.3,90.4,281.3"/>
<path class="st1" d="M120.6,290.7c1,0,1.9,0.8,1.9,1.9c0,1-0.8,1.9-1.8,1.9c-1,0-1.9-0.8-1.9-1.9c0,0,0,0,0,0
	C118.8,291.6,119.6,290.7,120.6,290.7C120.6,290.7,120.6,290.7,120.6,290.7"/>
<path class="st1" d="M142.1,271.8c1.2,0,2.1,0.9,2.1,2.1s-0.9,2.1-2.1,2.1c-1.2,0-2.1-0.9-2.1-2.1c0,0,0,0,0,0
	C140,272.8,140.9,271.9,142.1,271.8"/>
<path class="st1" d="M141.4,235.2c0.9,0,1.6,0.7,1.6,1.6s-0.7,1.6-1.6,1.6s-1.6-0.7-1.6-1.6c0,0,0,0,0,0
	C139.9,235.9,140.6,235.2,141.4,235.2"/>
<polygon class="st1" points="140.7,334.1 141.8,337.9 145.5,338.9 141.8,340 140.7,343.7 139.6,340 135.9,338.9 139.6,337.9 "/>
<polygon class="st1" points="343.4,295.3 344.5,299 348.2,300 344.5,301.1 343.4,304.8 342.3,301.1 338.6,300 342.3,299 "/>
<polygon class="st1" points="360.8,250.8 362.1,255.3 366.6,256.6 362.1,257.9 360.8,262.4 359.5,257.9 355,256.6 359.5,255.3 "/>
<polygon class="st1" points="159.7,91.5 161,96 165.5,97.3 161,98.6 159.7,103.1 158.4,98.6 153.9,97.3 158.4,96 "/>
<polygon class="st1" points="252.1,31.5 253.4,36 257.9,37.3 253.4,38.6 252.1,43 250.8,38.6 246.3,37.3 250.8,36 "/>
<path class="st1" d="M176.9,65.3c1,0,1.9,0.9,1.9,1.9s-0.9,1.9-1.9,1.9c-1,0-1.9-0.9-1.9-1.9c0,0,0,0,0,0
	C175,66.1,175.8,65.3,176.9,65.3"/>
<path class="st1" d="M184.9,60.4c0.7,0,1.3,0.5,1.3,1.2c0,0.7-0.5,1.3-1.2,1.3s-1.3-0.5-1.3-1.2c0,0,0,0,0,0
	C183.6,61,184.2,60.4,184.9,60.4"/>
<path class="st1" d="M179.6,56.6c0.9,0,1.6,0.7,1.7,1.6s-0.7,1.6-1.6,1.7c-0.9,0-1.6-0.7-1.7-1.6c0,0,0,0,0,0
	C178,57.4,178.7,56.6,179.6,56.6"/>
<path class="st1" d="M174.6,53.5c0.8,0,1.4,0.6,1.4,1.4s-0.6,1.4-1.4,1.4c-0.8,0-1.4-0.6-1.4-1.4C173.1,54.1,173.8,53.5,174.6,53.5
	L174.6,53.5"/>
<path class="st1" d="M140.1,92.3c0.9,0,1.7,0.8,1.7,1.7c0,0.9-0.8,1.7-1.7,1.7c-0.9,0-1.7-0.8-1.7-1.7v0
	C138.4,93,139.2,92.3,140.1,92.3"/>
<path class="st1" d="M146.7,100c1.2,0,2.1,0.9,2.1,2.1s-0.9,2.1-2.1,2.1c-1.2,0-2.1-0.9-2.1-2.1c0,0,0,0,0,0
	C144.6,100.9,145.5,100,146.7,100"/>
<path class="st1" d="M159.7,95.1c1.2,0,2.2,1,2.2,2.2s-1,2.2-2.2,2.2c-1.2,0-2.2-1-2.2-2.2C157.5,96.1,158.5,95.1,159.7,95.1
	L159.7,95.1"/>
<path class="st1" d="M212,15.1c1.2-0.1,2.1,0.8,2.2,2s-0.8,2.1-2,2.2c-1.2,0.1-2.1-0.8-2.2-2c0,0,0-0.1,0-0.1
	C210,16.1,210.9,15.2,212,15.1"/>
<path class="st1" d="M200.4,37.3c1.4,0,2.5,1.1,2.5,2.5c0,1.4-1.1,2.5-2.5,2.5c-1.4,0-2.5-1.1-2.5-2.5c0,0,0,0,0,0
	C197.9,38.4,199,37.3,200.4,37.3"/>
<path class="st1" d="M206.3,53.9c1,0,1.8,0.8,1.8,1.8s-0.8,1.8-1.8,1.8c-1,0-1.8-0.8-1.8-1.8c0,0,0,0,0,0
	C204.4,54.7,205.3,53.9,206.3,53.9C206.3,53.9,206.3,53.9,206.3,53.9"/>
<path class="st1" d="M223.3,62.7c1,0,1.8,0.8,1.8,1.8s-0.8,1.8-1.8,1.8s-1.8-0.8-1.8-1.8c0,0,0,0,0,0
	C221.5,63.5,222.3,62.7,223.3,62.7L223.3,62.7"/>
<path class="st1" d="M223.1,39.5c1.3,0,2.3,1,2.3,2.3c0,1.3-1,2.3-2.3,2.3c-1.3,0-2.3-1-2.3-2.3c0,0,0,0,0,0
	C220.8,40.5,221.8,39.5,223.1,39.5"/>
<path class="st1" d="M252.1,35.2c1.2,0,2.1,1,2,2.1c0,1.2-1,2.1-2.1,2c-1.1,0-2.1-1-2-2.1C250,36.1,250.9,35.2,252.1,35.2"/>
<path class="st1" d="M252.7,79.8c1.2,0,2.2,1,2.2,2.2s-1,2.2-2.2,2.2c-1.2,0-2.2-1-2.2-2.2C250.6,80.8,251.5,79.8,252.7,79.8
	L252.7,79.8"/>
<g>
	<path class="st3" d="M470.9,231.5h-8.2V184h-6.9v-7.1h6.9V172c0-15.7,4-20,14.7-20c3.7,0,11,0.8,11,0.8l-0.1,6.8
		c0,0-6.1-0.2-9.4-0.2c-6.1,0-8.1,2.6-8.1,12.8v4.8h15.8v7.1h-15.8V231.5z"/>
	<path class="st3" d="M539.9,203.6c0,19.9-4.9,29.1-23.4,29.1c-18.3,0-23.4-9.2-23.4-29.1c0-18.8,6.1-27.7,23.4-27.7
		C533.9,175.8,539.9,184.8,539.9,203.6z M531.5,203.6c0-15.2-3.3-20.6-15-20.6c-11.6,0-15,5.5-15,20.6c0,15.5,2.1,22,15,22
		C529.6,225.5,531.5,219.1,531.5,203.6z"/>
	<path class="st3" d="M553.3,176.9h8.1v7.4c0,0,9.5-6.6,20-8.6v8.3c-10.3,2.1-19.9,7.4-19.9,7.4v40.1h-8.2V176.9z"/>
	<path class="st3" d="M460.6,265.9h48.1v13.1h-33v17.4h26.4v12.9h-26.4v17.8h33v13.1h-48.1V265.9z"/>
	<path class="st3" d="M565.7,340.2h-14.5v-2.3c0,0-7.6,3.6-13.2,3.6c-16.5,0-21.3-9.6-21.3-28.8c0-20,7.8-28.4,22.6-28.4
		c4,0,11.8,1.5,11.8,1.5v-22.1h14.6V340.2z M551.1,326.8v-28.7c0,0-6-1.1-10.7-1.1c-5.5,0-8.8,4.7-8.8,15.7c0,11.1,2.1,15.7,9,15.7
		C545.6,328.4,551.1,326.8,551.1,326.8z"/>
	<path class="st3" d="M626.1,285.6v54.6h-14.5v-3.1c0,0-7.9,4.4-13.7,4.4c-15.9,0-19.2-8.8-19.2-27.3v-28.6h14.6v28.8
		c0,9.7,0.4,14,7.6,14c5.5,0,10.5-2,10.5-2v-40.8H626.1z"/>
	<path class="st3" d="M677.5,286.7l-0.4,11.6c0,0-8.6-0.9-12.8-0.9c-10.5,0-12.5,4-12.5,15c0,12.2,2.1,16.1,12.6,16.1
		c4.2,0,12.7-0.9,12.7-0.9l0.4,11.7c0,0-11.7,2.3-17.8,2.3c-16.3,0-22.7-8.6-22.7-29.2c0-19.3,6.8-28.1,23-28.1
		C666.4,284.3,677.5,286.7,677.5,286.7z"/>
	<path class="st3" d="M730.2,325.4c0.2,3.3,0.7,4.6,3.6,5.1l-0.4,11c-7.3,0-11-0.8-15.6-3.8c0,0-7.9,3.8-16.1,3.8
		c-11.5,0-16.9-6.3-16.9-17.9c0-12.3,7.1-15.8,19.1-16.7l11.7-0.9v-3.4c0-4.7-2.1-5.9-6.4-5.9c-7.2,0-20.5,0.9-20.5,0.9l-0.4-10.2
		c0,0,11.7-3.2,22.2-3.2c14.2,0,19.9,5.6,19.9,18.3V325.4z M705.6,317.1c-3.8,0.3-6.1,2.2-6.1,6.1c0,3.8,1.4,6.4,5.4,6.4
		c4.7,0,10.7-1.7,10.7-1.7v-11.7L705.6,317.1z"/>
	<path class="st3" d="M761,298.1v22.4c0,5.5,0,8,4.6,8c3.1,0,8.3-0.2,8.3-0.2l0.7,11.7c0,0-7.3,1.6-11.1,1.6c-13.2,0-17-5-17-20.8
		v-22.7h-6.4v-12.5h6.4v-15.2H761v15.2h13.4v12.5H761z"/>
	<path class="st3" d="M783.9,263.8h14.6v14.9h-14.6V263.8z M783.9,285.6h14.6v54.6h-14.6V285.6z"/>
	<path class="st3" d="M859.5,312.8c0,16.8-6.1,28.7-25.1,28.7c-19,0-25.1-11.9-25.1-28.7s6.1-28.5,25.1-28.5
		C853.4,284.3,859.5,296,859.5,312.8z M844.7,312.8c0-10.6-2.2-16.1-10.3-16.1c-8.1,0-10.3,5.5-10.3,16.1s2.2,16.3,10.3,16.3
		C842.5,329.1,844.7,323.4,844.7,312.8z"/>
	<path class="st3" d="M870.2,340.2v-54.6h14.5v3.1c0,0,7.4-4.4,13.7-4.4c15.3,0,19.2,9.6,19.2,26.3v29.6H903v-29.2
		c0-8.3-1.1-13.7-8.2-13.7c-5.1,0-9.9,2-9.9,2v40.8H870.2z"/>
</g>
</svg>
