<?xml version="1.0" encoding="utf-8"?>
<!-- Generator: Adobe Illustrator 24.2.1, SVG Export Plug-In . SVG Version: 6.00 Build 0)  -->
<svg version="1.1" id="Capa_1" xmlns="http://www.w3.org/2000/svg" xmlns:xlink="http://www.w3.org/1999/xlink" x="0px" y="0px"
	 viewBox="0 0 800 219.2" style="enable-background:new 0 0 800 219.2;" xml:space="preserve">
<style type="text/css">
	.st0{fill:#1D2C4D;}
</style>
<g>
	<g>
		<path class="st0" d="M235.5,34.2h-7.4v-5.1h20.5v5.1h-7.4v20.9h-5.7V34.2z"/>
		<path class="st0" d="M253.7,29.1h17.6v5.3h-11.9v4.8h11.3v5.3h-11.3v5.3H272v5.3h-18.3V29.1z"/>
		<path class="st0" d="M278.8,29.1h5.7v10.8l10.1-10.8h7.5l-11.6,12.1l12.5,13.9h-8l-10.6-12.3v12.3h-5.7V29.1z"/>
		<path class="st0" d="M305.7,42.1c0-2.1,0.4-4,1-5.6c0.7-1.7,1.7-3.1,2.9-4.3c1.2-1.2,2.7-2.1,4.4-2.7c1.7-0.6,3.6-1,5.6-1
			c2,0,3.9,0.3,5.6,1c1.7,0.6,3.2,1.5,4.4,2.7c1.2,1.2,2.2,2.6,2.9,4.3c0.7,1.7,1,3.6,1,5.6s-0.4,4-1,5.6c-0.7,1.7-1.7,3.1-2.9,4.3
			c-1.2,1.2-2.7,2.1-4.4,2.7c-1.7,0.6-3.6,1-5.6,1c-2,0-3.9-0.3-5.6-1c-1.7-0.6-3.2-1.5-4.4-2.7c-1.2-1.2-2.2-2.6-2.9-4.3
			C306.1,46,305.7,44.2,305.7,42.1z M311.7,42.1c0,1.2,0.2,2.3,0.6,3.4c0.4,1,0.9,1.9,1.6,2.6c0.7,0.7,1.6,1.3,2.5,1.7
			c1,0.4,2.1,0.6,3.3,0.6c1.2,0,2.3-0.2,3.3-0.6c1-0.4,1.8-1,2.6-1.7c0.7-0.7,1.3-1.6,1.6-2.6c0.4-1,0.6-2.1,0.6-3.4
			c0-1.2-0.2-2.3-0.6-3.3c-0.4-1-0.9-1.9-1.6-2.7c-0.7-0.7-1.6-1.3-2.6-1.7c-1-0.4-2.1-0.6-3.3-0.6c-1.2,0-2.3,0.2-3.3,0.6
			c-1,0.4-1.8,1-2.5,1.7c-0.7,0.7-1.3,1.6-1.6,2.7C311.9,39.8,311.7,40.9,311.7,42.1z"/>
		<path class="st0" d="M339.7,29.1h8.7l6,16.9h0.1l6-16.9h8.6v26h-5.7V35.2h-0.1l-6.8,19.9H352l-6.6-19.9h-0.1v19.9h-5.7V29.1z"/>
		<path class="st0" d="M376.3,29.1h9.7c1.1,0,2.3,0.1,3.4,0.2c1.1,0.2,2.2,0.5,3.1,1c0.9,0.5,1.6,1.1,2.2,2c0.6,0.9,0.8,2,0.8,3.4
			c0,1.5-0.4,2.7-1.2,3.6c-0.8,1-1.9,1.7-3.2,2.1v0.1c0.9,0.1,1.6,0.4,2.3,0.7c0.7,0.4,1.3,0.8,1.8,1.4c0.5,0.5,0.9,1.2,1.2,1.9
			c0.3,0.7,0.4,1.5,0.4,2.3c0,1.4-0.3,2.5-0.9,3.4c-0.6,0.9-1.3,1.7-2.3,2.2c-0.9,0.6-2,1-3.1,1.2c-1.2,0.2-2.3,0.4-3.5,0.4h-10.6
			V29.1z M382,39.5h4.1c0.4,0,0.9,0,1.3-0.1s0.8-0.3,1.2-0.5c0.3-0.2,0.6-0.5,0.8-0.9c0.2-0.4,0.3-0.8,0.3-1.3c0-0.5-0.1-1-0.3-1.3
			c-0.2-0.4-0.5-0.6-0.9-0.8c-0.4-0.2-0.8-0.3-1.2-0.4c-0.5-0.1-0.9-0.1-1.4-0.1H382V39.5z M382,50.2h5.1c0.4,0,0.9,0,1.3-0.1
			c0.5-0.1,0.9-0.3,1.2-0.5c0.4-0.2,0.7-0.6,0.9-1c0.2-0.4,0.4-0.9,0.4-1.4c0-0.6-0.2-1.1-0.5-1.5c-0.3-0.4-0.7-0.7-1.2-0.9
			c-0.5-0.2-1-0.3-1.5-0.4c-0.5-0.1-1-0.1-1.5-0.1H382V50.2z"/>
		<path class="st0" d="M400.7,42.1c0-2.1,0.4-4,1-5.6c0.7-1.7,1.7-3.1,2.9-4.3c1.2-1.2,2.7-2.1,4.4-2.7c1.7-0.6,3.6-1,5.6-1
			c2,0,3.9,0.3,5.6,1c1.7,0.6,3.2,1.5,4.4,2.7c1.2,1.2,2.2,2.6,2.9,4.3c0.7,1.7,1,3.6,1,5.6s-0.4,4-1,5.6c-0.7,1.7-1.7,3.1-2.9,4.3
			c-1.2,1.2-2.7,2.1-4.4,2.7c-1.7,0.6-3.6,1-5.6,1c-2,0-3.9-0.3-5.6-1c-1.7-0.6-3.2-1.5-4.4-2.7c-1.2-1.2-2.2-2.6-2.9-4.3
			C401,46,400.7,44.2,400.7,42.1z M406.6,42.1c0,1.2,0.2,2.3,0.6,3.4c0.4,1,0.9,1.9,1.6,2.6c0.7,0.7,1.6,1.3,2.5,1.7
			c1,0.4,2.1,0.6,3.3,0.6c1.2,0,2.3-0.2,3.3-0.6c1-0.4,1.8-1,2.5-1.7c0.7-0.7,1.3-1.6,1.6-2.6c0.4-1,0.6-2.1,0.6-3.4
			c0-1.2-0.2-2.3-0.6-3.3c-0.4-1-0.9-1.9-1.6-2.7c-0.7-0.7-1.6-1.3-2.5-1.7c-1-0.4-2.1-0.6-3.3-0.6c-1.2,0-2.3,0.2-3.3,0.6
			c-1,0.4-1.8,1-2.5,1.7c-0.7,0.7-1.3,1.6-1.6,2.7C406.8,39.8,406.6,40.9,406.6,42.1z"/>
		<path class="st0" d="M438.1,39.4h-4.7l2.7-10.3h5.3L438.1,39.4z"/>
		<path class="st0" d="M447.7,29.1h17.6v5.3h-11.9v4.8h11.3v5.3h-11.3v5.3H466v5.3h-18.3V29.1z"/>
		<path class="st0" d="M485.5,29.1h5.7v9.7h11.1v-9.7h5.7v26h-5.7V43.9h-11.1v11.2h-5.7V29.1z"/>
		<path class="st0" d="M523.9,29.1h4.7l11.3,26h-6.5l-2.2-5.5h-10.1l-2.2,5.5h-6.3L523.9,29.1z M526.1,36.7l-3.2,8.1h6.3L526.1,36.7
			z"/>
		<path class="st0" d="M562.4,34.2H555v-5.1h20.5v5.1h-7.4v20.9h-5.7V34.2z"/>
		<path class="st0" d="M580.7,29.1h17.6v5.3h-11.9v4.8h11.3v5.3h-11.3v5.3H599v5.3h-18.3V29.1z"/>
		<path class="st0" d="M605.6,29.1h8.7l6,16.9h0.1l6-16.9h8.6v26h-5.7V35.2h-0.1l-6.8,19.9h-4.4l-6.6-19.9h-0.1v19.9h-5.7V29.1z"/>
		<path class="st0" d="M642.2,29.1h9.7c1.1,0,2.3,0.1,3.4,0.2c1.1,0.2,2.2,0.5,3.1,1c0.9,0.5,1.6,1.1,2.2,2c0.6,0.9,0.8,2,0.8,3.4
			c0,1.5-0.4,2.7-1.2,3.6c-0.8,1-1.9,1.7-3.2,2.1v0.1c0.9,0.1,1.6,0.4,2.3,0.7c0.7,0.4,1.3,0.8,1.8,1.4c0.5,0.5,0.9,1.2,1.2,1.9
			c0.3,0.7,0.4,1.5,0.4,2.3c0,1.4-0.3,2.5-0.9,3.4c-0.6,0.9-1.3,1.7-2.3,2.2c-0.9,0.6-2,1-3.1,1.2c-1.2,0.2-2.3,0.4-3.5,0.4h-10.6
			V29.1z M647.9,39.5h4.1c0.4,0,0.9,0,1.3-0.1c0.4-0.1,0.8-0.3,1.2-0.5c0.3-0.2,0.6-0.5,0.8-0.9c0.2-0.4,0.3-0.8,0.3-1.3
			c0-0.5-0.1-1-0.3-1.3c-0.2-0.4-0.5-0.6-0.9-0.8c-0.4-0.2-0.8-0.3-1.2-0.4c-0.5-0.1-0.9-0.1-1.4-0.1h-3.9V39.5z M647.9,50.2h5.1
			c0.4,0,0.9,0,1.3-0.1c0.5-0.1,0.9-0.3,1.2-0.5c0.4-0.2,0.7-0.6,0.9-1c0.2-0.4,0.4-0.9,0.4-1.4c0-0.6-0.2-1.1-0.5-1.5
			c-0.3-0.4-0.7-0.7-1.2-0.9c-0.5-0.2-1-0.3-1.5-0.4c-0.5-0.1-1-0.1-1.5-0.1h-4.3V50.2z"/>
		<path class="st0" d="M667.9,29.1h5.7v26h-5.7V29.1z"/>
		<path class="st0" d="M681.1,29.1h5.7v10.8l10.1-10.8h7.5l-11.6,12.1l12.5,13.9h-8l-10.6-12.3v12.3h-5.7V29.1z"/>
		<path class="st0" d="M731.3,45.1c0,1.5-0.2,3-0.7,4.3c-0.5,1.3-1.2,2.4-2.1,3.4c-0.9,1-2.1,1.7-3.4,2.2c-1.4,0.5-2.9,0.8-4.7,0.8
			c-1.8,0-3.4-0.3-4.8-0.8c-1.4-0.5-2.5-1.3-3.4-2.2c-0.9-1-1.6-2.1-2.1-3.4c-0.5-1.3-0.7-2.7-0.7-4.3v-16h5.7v15.7
			c0,0.8,0.1,1.6,0.4,2.2c0.3,0.7,0.6,1.3,1.1,1.8c0.5,0.5,1,0.9,1.7,1.2s1.4,0.4,2.1,0.4s1.5-0.1,2.1-0.4c0.6-0.3,1.2-0.7,1.7-1.2
			c0.5-0.5,0.8-1.1,1.1-1.8c0.3-0.7,0.4-1.4,0.4-2.2V29.1h5.7V45.1z"/>
		<path class="st0" d="M747.1,29.1h4.7l11.3,26h-6.5l-2.2-5.5h-10.1l-2.2,5.5h-6.3L747.1,29.1z M749.3,36.7l-3.2,8.1h6.3L749.3,36.7
			z"/>
		<path class="st0" d="M776.3,29.1h4.7l11.3,26h-6.5l-2.2-5.5h-10.1l-2.2,5.5h-6.3L776.3,29.1z M778.5,36.7l-3.2,8.1h6.3L778.5,36.7
			z"/>
	</g>
	<g>
		<path class="st0" d="M228.2,144.5c1.5-0.2,2.5-0.5,2.9-1s0.6-1.8,0.6-3.7v-14.9c0-1.3-0.2-2.2-0.6-2.6c-0.4-0.4-1.4-0.6-2.8-0.7
			V121h7.2l8.4,18.3l8.2-18.3h7.3v0.7c-1.4,0.1-2.2,0.3-2.6,0.7c-0.4,0.4-0.6,1.2-0.6,2.5v16.3c0,1.3,0.2,2.2,0.6,2.6
			c0.4,0.4,1.3,0.6,2.6,0.7v0.7h-10.3v-0.7c1.5-0.1,2.4-0.4,2.8-0.8c0.4-0.4,0.5-1.4,0.5-2.9v-16.5l-9.4,20.9h-0.5l-9.2-20v14.6
			c0,2,0.3,3.3,0.9,3.9c0.4,0.4,1.2,0.7,2.6,0.8v0.7h-8.6V144.5z"/>
		<path class="st0" d="M260.4,144.7c1.3-0.1,2.1-0.3,2.4-0.7c0.3-0.3,0.5-1.2,0.5-2.6V133c0-0.8-0.1-1.3-0.2-1.6
			c-0.2-0.5-0.6-0.7-1.1-0.7c-0.1,0-0.3,0-0.4,0c-0.1,0-0.5,0.1-1.1,0.3v-0.6l0.8-0.3c2.1-0.7,3.5-1.2,4.4-1.5
			c0.3-0.1,0.5-0.2,0.6-0.2c0,0.1,0,0.2,0,0.3v12.9c0,1.4,0.2,2.2,0.5,2.6c0.3,0.3,1.1,0.6,2.2,0.7v0.5h-8.7V144.7z M263.2,120.8
			c0.4-0.4,0.8-0.6,1.3-0.6c0.5,0,0.9,0.2,1.3,0.5c0.4,0.4,0.5,0.8,0.5,1.3c0,0.5-0.2,0.9-0.5,1.3c-0.4,0.4-0.8,0.5-1.3,0.5
			c-0.5,0-1-0.2-1.3-0.5c-0.4-0.4-0.5-0.8-0.5-1.3C262.7,121.6,262.9,121.1,263.2,120.8z"/>
		<path class="st0" d="M269.8,144.7c0.8-0.1,1.4-0.3,1.8-0.6c0.3-0.3,0.5-1,0.5-2.1v-9.1c0-0.8-0.1-1.3-0.2-1.6
			c-0.2-0.5-0.7-0.7-1.4-0.7c-0.1,0-0.2,0-0.3,0c-0.1,0-0.3,0-0.4,0.1V130c0.5-0.1,1.6-0.5,3.5-1.1l1.7-0.6c0.1,0,0.1,0,0.2,0.1
			c0,0.1,0,0.1,0,0.3v2.6c1.1-1,2-1.7,2.6-2.1c0.9-0.6,1.9-0.9,2.9-0.9c0.8,0,1.6,0.2,2.2,0.7c1.3,0.9,1.9,2.5,1.9,4.9v8.4
			c0,0.9,0.2,1.5,0.5,1.9c0.3,0.4,0.9,0.6,1.7,0.6v0.5h-7.6v-0.5c0.9-0.1,1.5-0.4,1.8-0.7c0.3-0.4,0.5-1.2,0.5-2.4V134
			c0-1-0.2-1.9-0.6-2.6c-0.4-0.7-1.1-1-2.1-1c-0.7,0-1.4,0.2-2.1,0.7c-0.4,0.3-0.9,0.7-1.6,1.4v10c0,0.9,0.2,1.4,0.6,1.7
			s1,0.5,1.8,0.5v0.5h-7.8V144.7z"/>
		<path class="st0" d="M287.5,144.7c1.3-0.1,2.1-0.3,2.4-0.7c0.3-0.3,0.5-1.2,0.5-2.6V133c0-0.8-0.1-1.3-0.2-1.6
			c-0.2-0.5-0.6-0.7-1.1-0.7c-0.1,0-0.3,0-0.4,0c-0.1,0-0.5,0.1-1.1,0.3v-0.6l0.8-0.3c2.1-0.7,3.5-1.2,4.4-1.5
			c0.3-0.1,0.5-0.2,0.6-0.2c0,0.1,0,0.2,0,0.3v12.9c0,1.4,0.2,2.2,0.5,2.6c0.3,0.3,1.1,0.6,2.2,0.7v0.5h-8.7V144.7z M290.3,120.8
			c0.4-0.4,0.8-0.6,1.3-0.6c0.5,0,0.9,0.2,1.3,0.5c0.4,0.4,0.5,0.8,0.5,1.3c0,0.5-0.2,0.9-0.5,1.3c-0.4,0.4-0.8,0.5-1.3,0.5
			c-0.5,0-1-0.2-1.3-0.5c-0.4-0.4-0.5-0.8-0.5-1.3C289.8,121.6,289.9,121.1,290.3,120.8z"/>
		<path class="st0" d="M298.1,139.6h0.6c0.3,1.4,0.6,2.4,1.1,3.1c0.8,1.3,2.1,2,3.7,2c0.9,0,1.6-0.2,2.1-0.7
			c0.5-0.5,0.8-1.1,0.8-1.9c0-0.5-0.2-1-0.4-1.5c-0.3-0.5-0.8-0.9-1.6-1.4l-2-1.1c-1.5-0.8-2.5-1.6-3.2-2.4c-0.7-0.8-1-1.7-1-2.8
			c0-1.3,0.5-2.4,1.4-3.3c1-0.9,2.2-1.3,3.6-1.3c0.6,0,1.3,0.1,2.1,0.4c0.8,0.2,1.2,0.4,1.3,0.4c0.2,0,0.4,0,0.5-0.1
			c0.1-0.1,0.2-0.2,0.3-0.3h0.4l0.1,5h-0.6c-0.2-1.2-0.6-2.1-1-2.7c-0.7-1.2-1.8-1.8-3.2-1.8c-0.8,0-1.5,0.3-2,0.8
			c-0.5,0.5-0.7,1.1-0.7,1.8c0,1.1,0.8,2.1,2.5,2.9l2.4,1.3c2.5,1.4,3.8,3,3.8,4.8c0,1.4-0.5,2.6-1.6,3.5c-1.1,0.9-2.4,1.3-4.1,1.3
			c-0.7,0-1.5-0.1-2.4-0.4c-0.9-0.2-1.4-0.4-1.6-0.4c-0.1,0-0.3,0.1-0.4,0.2c-0.1,0.1-0.2,0.2-0.3,0.4h-0.5V139.6z"/>
		<path class="st0" d="M319.1,128.7v1.3h-3.7l0,10.3c0,0.9,0.1,1.6,0.2,2.1c0.3,0.8,0.8,1.2,1.7,1.2c0.4,0,0.8-0.1,1.1-0.3
			c0.3-0.2,0.7-0.5,1.1-1l0.5,0.4l-0.4,0.5c-0.6,0.8-1.3,1.4-2,1.8c-0.7,0.3-1.4,0.5-2,0.5c-1.4,0-2.4-0.6-2.9-1.9
			c-0.3-0.7-0.4-1.6-0.4-2.8V130h-2c-0.1,0-0.1-0.1-0.1-0.1c0,0,0-0.1,0-0.1c0-0.1,0-0.2,0.1-0.3c0.1-0.1,0.2-0.2,0.5-0.5
			c0.8-0.7,1.4-1.2,1.8-1.7s1.2-1.5,2.6-3.4c0.2,0,0.2,0,0.3,0c0,0,0,0.1,0,0.3v4.4H319.1z"/>
		<path class="st0" d="M332,130.2c1.3,1.2,1.9,2.8,1.9,5h-11.4c0.1,2.8,0.7,4.8,1.9,6c1.1,1.3,2.5,1.9,4,1.9c1.2,0,2.3-0.3,3.2-1
			c0.9-0.7,1.7-1.6,2.4-2.8l0.6,0.2c-0.5,1.5-1.4,2.9-2.8,4.2c-1.3,1.3-3,1.9-4.9,1.9c-2.2,0-4-0.8-5.2-2.5
			c-1.2-1.7-1.8-3.6-1.8-5.9c0-2.4,0.7-4.5,2.1-6.2c1.4-1.7,3.3-2.6,5.6-2.6C329.3,128.4,330.7,129,332,130.2z M323.4,131.5
			c-0.4,0.6-0.7,1.5-0.8,2.4h7.6c-0.1-1.2-0.4-2.1-0.7-2.7c-0.6-1.1-1.6-1.6-2.9-1.6C325.2,129.7,324.1,130.3,323.4,131.5z"/>
		<path class="st0" d="M334.9,144.6c1.1-0.1,1.8-0.3,2.2-0.6c0.4-0.3,0.5-0.9,0.5-1.9v-8.1c0-1.2-0.1-2-0.3-2.5
			c-0.2-0.5-0.6-0.8-1.2-0.8c-0.1,0-0.3,0-0.5,0c-0.2,0-0.4,0.1-0.6,0.1v-0.6c0.7-0.2,1.4-0.5,2.1-0.7c0.7-0.3,1.2-0.4,1.5-0.5
			c0.6-0.2,1.2-0.5,1.8-0.8c0.1,0,0.1,0,0.2,0.1c0,0.1,0,0.2,0,0.4v2.9c0.8-1.1,1.5-1.9,2.2-2.5c0.7-0.6,1.5-0.9,2.2-0.9
			c0.6,0,1.1,0.2,1.5,0.5c0.4,0.4,0.6,0.8,0.6,1.4c0,0.5-0.1,0.9-0.4,1.2c-0.3,0.3-0.7,0.5-1.1,0.5c-0.5,0-0.9-0.2-1.4-0.6
			c-0.5-0.4-0.8-0.6-1.1-0.6c-0.4,0-0.9,0.3-1.5,1c-0.6,0.7-0.9,1.4-0.9,2.1v8.1c0,1,0.2,1.7,0.7,2.1c0.5,0.4,1.3,0.6,2.4,0.6v0.6
			h-8.8V144.6z"/>
		<path class="st0" d="M346.9,144.7c1.3-0.1,2.1-0.3,2.4-0.7c0.3-0.3,0.5-1.2,0.5-2.6V133c0-0.8-0.1-1.3-0.2-1.6
			c-0.2-0.5-0.6-0.7-1.1-0.7c-0.1,0-0.3,0-0.4,0c-0.1,0-0.5,0.1-1.1,0.3v-0.6l0.8-0.3c2.1-0.7,3.5-1.2,4.4-1.5
			c0.3-0.1,0.5-0.2,0.6-0.2c0,0.1,0,0.2,0,0.3v12.9c0,1.4,0.2,2.2,0.5,2.6c0.3,0.3,1.1,0.6,2.2,0.7v0.5h-8.7V144.7z M349.8,120.8
			c0.4-0.4,0.8-0.6,1.3-0.6c0.5,0,0.9,0.2,1.3,0.5c0.4,0.4,0.5,0.8,0.5,1.3c0,0.5-0.2,0.9-0.5,1.3c-0.4,0.4-0.8,0.5-1.3,0.5
			c-0.5,0-1-0.2-1.3-0.5c-0.4-0.4-0.5-0.8-0.5-1.3C349.2,121.6,349.4,121.1,349.8,120.8z"/>
		<path class="st0" d="M358.9,130.9c1.5-1.6,3.5-2.5,5.8-2.5c2.4,0,4.3,0.8,5.9,2.3s2.3,3.6,2.3,6.2c0,2.4-0.7,4.4-2.3,6.2
			c-1.5,1.8-3.5,2.6-5.8,2.6c-2.3,0-4.2-0.8-5.8-2.5c-1.6-1.7-2.4-3.8-2.4-6.3C356.6,134.5,357.4,132.5,358.9,130.9z M361.7,130.4
			c-1.2,1.1-1.8,3-1.8,5.6c0,2.1,0.5,4.1,1.4,5.9c1,1.8,2.3,2.8,4,2.8c1.3,0,2.4-0.6,3.1-1.8c0.7-1.2,1.1-2.8,1.1-4.8
			c0-2.1-0.5-4-1.4-5.8c-0.9-1.8-2.3-2.7-4-2.7C363.2,129.5,362.4,129.8,361.7,130.4z"/>
		<path class="st0" d="M392.8,128.9c0.5,0.3,0.9,0.6,1.4,1v-5.7c0-0.7-0.1-1.2-0.2-1.5c-0.2-0.3-0.5-0.4-1.2-0.4c-0.1,0-0.3,0-0.4,0
			c-0.1,0-0.3,0-0.7,0.1v-0.6l1.5-0.4c0.5-0.1,1.1-0.3,1.6-0.5c0.5-0.2,1-0.3,1.4-0.4c0.2-0.1,0.5-0.2,0.9-0.3l0.1,0l0,1.9
			c0,0.7,0,1.4,0,2.1c0,0.7,0,1.4,0,2.1l0,14.6c0,0.8,0.1,1.3,0.3,1.6s0.7,0.5,1.5,0.5c0.1,0,0.3,0,0.4,0c0.1,0,0.3,0,0.4,0v0.6
			c-0.1,0-0.9,0.3-2.6,0.9l-2.8,1.1l-0.1-0.2v-2.2c-0.7,0.7-1.2,1.2-1.7,1.6c-0.9,0.5-1.9,0.8-3,0.8c-2,0-3.7-0.8-4.9-2.4
			c-1.3-1.6-1.9-3.4-1.9-5.5c0-2.6,0.8-4.8,2.3-6.7c1.5-1.9,3.4-2.8,5.5-2.8C391.3,128.3,392.1,128.5,392.8,128.9z M393.3,142.8
			c0.6-0.6,0.9-1.1,0.9-1.6v-7.7c0-1.6-0.4-2.6-1.2-3.3c-0.8-0.6-1.6-1-2.4-1c-1.5,0-2.7,0.7-3.5,2c-0.8,1.3-1.3,3-1.3,4.9
			c0,1.9,0.4,3.6,1.3,5.1c0.9,1.5,2.2,2.3,4,2.3C392,143.6,392.7,143.4,393.3,142.8z"/>
		<path class="st0" d="M412.1,130.2c1.3,1.2,1.9,2.8,1.9,5h-11.4c0.1,2.8,0.7,4.8,1.9,6c1.1,1.3,2.5,1.9,4,1.9c1.2,0,2.3-0.3,3.2-1
			c0.9-0.7,1.7-1.6,2.4-2.8l0.6,0.2c-0.5,1.5-1.4,2.9-2.8,4.2c-1.3,1.3-3,1.9-4.9,1.9c-2.2,0-4-0.8-5.2-2.5
			c-1.2-1.7-1.8-3.6-1.8-5.9c0-2.4,0.7-4.5,2.1-6.2c1.4-1.7,3.3-2.6,5.6-2.6C409.4,128.4,410.9,129,412.1,130.2z M403.6,131.5
			c-0.4,0.6-0.7,1.5-0.8,2.4h7.6c-0.1-1.2-0.4-2.1-0.7-2.7c-0.6-1.1-1.6-1.6-2.9-1.6C405.3,129.7,404.3,130.3,403.6,131.5z"/>
	</g>
	<g>
		<path class="st0" d="M228.2,88.9c1.5-0.2,2.5-0.5,2.9-1c0.4-0.5,0.6-1.8,0.6-3.7V69.3c0-1.3-0.2-2.2-0.6-2.6
			c-0.4-0.4-1.4-0.6-2.8-0.7v-0.7h7.2l8.4,18.3l8.2-18.3h7.3V66c-1.4,0.1-2.2,0.3-2.6,0.7c-0.4,0.4-0.6,1.2-0.6,2.6v16.3
			c0,1.3,0.2,2.2,0.6,2.6c0.4,0.4,1.3,0.6,2.6,0.7v0.7h-10.3v-0.7c1.5-0.1,2.4-0.4,2.8-0.8c0.4-0.4,0.5-1.4,0.5-2.9V68.7l-9.4,20.9
			h-0.5l-9.2-20v14.6c0,2,0.3,3.3,0.9,3.9c0.4,0.4,1.2,0.7,2.6,0.8v0.7h-8.6V88.9z"/>
		<path class="st0" d="M262.9,75.2c1.5-1.6,3.5-2.5,5.8-2.5c2.4,0,4.3,0.8,5.9,2.3c1.6,1.6,2.3,3.6,2.3,6.2c0,2.4-0.7,4.4-2.3,6.2
			c-1.5,1.8-3.5,2.6-5.8,2.6c-2.3,0-4.2-0.8-5.8-2.5c-1.6-1.7-2.4-3.8-2.4-6.3C260.6,78.9,261.4,76.9,262.9,75.2z M265.7,74.8
			c-1.2,1.1-1.8,3-1.8,5.6c0,2.1,0.5,4.1,1.4,5.9s2.3,2.8,4,2.8c1.3,0,2.4-0.6,3.1-1.8c0.7-1.2,1.1-2.8,1.1-4.8c0-2.1-0.5-4-1.4-5.8
			c-0.9-1.8-2.3-2.7-4-2.7C267.2,73.8,266.4,74.2,265.7,74.8z"/>
		<path class="st0" d="M286.6,73.1v1.3H283l0,10.3c0,0.9,0.1,1.6,0.2,2.1c0.3,0.8,0.8,1.2,1.7,1.2c0.4,0,0.8-0.1,1.1-0.3
			s0.7-0.5,1.1-1l0.5,0.4l-0.4,0.5c-0.6,0.8-1.3,1.4-2,1.8c-0.7,0.3-1.4,0.5-2,0.5c-1.4,0-2.4-0.6-2.9-1.9c-0.3-0.7-0.4-1.6-0.4-2.8
			V74.3h-2c-0.1,0-0.1-0.1-0.1-0.1c0,0,0-0.1,0-0.1c0-0.1,0-0.2,0.1-0.3c0.1-0.1,0.2-0.2,0.5-0.5c0.8-0.7,1.4-1.2,1.8-1.7
			c0.4-0.4,1.2-1.5,2.6-3.4c0.2,0,0.2,0,0.3,0c0,0,0,0.1,0,0.3v4.4H286.6z"/>
		<path class="st0" d="M299.6,74.5c1.3,1.2,1.9,2.8,1.9,5h-11.4c0.1,2.8,0.7,4.8,1.9,6c1.1,1.3,2.5,1.9,4,1.9c1.2,0,2.3-0.3,3.2-1
			c0.9-0.7,1.7-1.6,2.4-2.8l0.6,0.2c-0.5,1.5-1.4,2.9-2.8,4.2c-1.3,1.3-3,1.9-4.9,1.9c-2.2,0-4-0.8-5.2-2.5
			c-1.2-1.7-1.8-3.6-1.8-5.9c0-2.4,0.7-4.5,2.1-6.2c1.4-1.7,3.3-2.6,5.6-2.6C296.8,72.8,298.3,73.4,299.6,74.5z M291,75.9
			c-0.4,0.6-0.7,1.5-0.8,2.4h7.6c-0.1-1.2-0.4-2.1-0.7-2.7c-0.6-1.1-1.6-1.6-2.9-1.6C292.7,74.1,291.7,74.7,291,75.9z"/>
		<path class="st0" d="M302.9,89.1c0.8-0.1,1.4-0.3,1.8-0.6c0.3-0.3,0.5-1,0.5-2.1v-9.1c0-0.8-0.1-1.3-0.2-1.6
			c-0.2-0.5-0.7-0.7-1.4-0.7c-0.1,0-0.2,0-0.3,0c-0.1,0-0.3,0-0.4,0.1v-0.6c0.5-0.1,1.6-0.5,3.5-1.1l1.7-0.6c0.1,0,0.1,0,0.2,0.1
			c0,0.1,0,0.1,0,0.3v2.6c1.1-1,2-1.7,2.6-2.1c0.9-0.6,1.9-0.9,2.9-0.9c0.8,0,1.6,0.2,2.2,0.7c1.3,0.9,1.9,2.5,1.9,4.9v8.4
			c0,0.9,0.2,1.5,0.5,1.9c0.3,0.4,0.9,0.6,1.7,0.6v0.5h-7.6v-0.5c0.9-0.1,1.5-0.4,1.8-0.7c0.3-0.4,0.5-1.2,0.5-2.4v-7.6
			c0-1-0.2-1.9-0.6-2.6c-0.4-0.7-1.1-1-2.1-1c-0.7,0-1.4,0.2-2.1,0.7c-0.4,0.3-0.9,0.7-1.6,1.4v10c0,0.9,0.2,1.4,0.6,1.7
			c0.4,0.3,1,0.5,1.8,0.5v0.5h-7.8V89.1z"/>
		<path class="st0" d="M323.1,75.2c1.5-1.6,3.5-2.5,5.8-2.5c2.4,0,4.3,0.8,5.9,2.3c1.6,1.6,2.3,3.6,2.3,6.2c0,2.4-0.7,4.4-2.3,6.2
			c-1.5,1.8-3.5,2.6-5.8,2.6c-2.3,0-4.2-0.8-5.8-2.5c-1.6-1.7-2.4-3.8-2.4-6.3C320.8,78.9,321.6,76.9,323.1,75.2z M325.9,74.8
			c-1.2,1.1-1.8,3-1.8,5.6c0,2.1,0.5,4.1,1.4,5.9s2.3,2.8,4,2.8c1.3,0,2.4-0.6,3.1-1.8c0.7-1.2,1.1-2.8,1.1-4.8c0-2.1-0.5-4-1.4-5.8
			c-0.9-1.8-2.3-2.7-4-2.7C327.5,73.8,326.6,74.2,325.9,74.8z"/>
		<path class="st0" d="M338.1,89.1c0.8-0.1,1.4-0.3,1.8-0.6c0.3-0.3,0.5-1,0.5-2.1v-9.1c0-0.8-0.1-1.3-0.2-1.6
			c-0.2-0.5-0.7-0.7-1.4-0.7c-0.1,0-0.2,0-0.3,0c-0.1,0-0.3,0-0.4,0.1v-0.6c0.5-0.1,1.6-0.5,3.5-1.1l1.7-0.6c0.1,0,0.1,0,0.2,0.1
			c0,0.1,0,0.1,0,0.3v2.6c1.1-1,2-1.7,2.6-2.1c0.9-0.6,1.9-0.9,2.9-0.9c0.8,0,1.6,0.2,2.2,0.7c1.3,0.9,1.9,2.5,1.9,4.9v8.4
			c0,0.9,0.2,1.5,0.5,1.9c0.3,0.4,0.9,0.6,1.7,0.6v0.5h-7.6v-0.5c0.9-0.1,1.5-0.4,1.8-0.7c0.3-0.4,0.5-1.2,0.5-2.4v-7.6
			c0-1-0.2-1.9-0.6-2.6c-0.4-0.7-1.1-1-2.1-1c-0.7,0-1.4,0.2-2.1,0.7c-0.4,0.3-0.9,0.7-1.6,1.4v10c0,0.9,0.2,1.4,0.6,1.7
			c0.4,0.3,1,0.5,1.8,0.5v0.5h-7.8V89.1z"/>
		<path class="st0" d="M366.2,73.2c0.5,0.3,0.9,0.6,1.4,1v-5.7c0-0.7-0.1-1.2-0.2-1.5c-0.2-0.3-0.5-0.4-1.2-0.4c-0.1,0-0.3,0-0.4,0
			c-0.1,0-0.3,0-0.7,0.1v-0.6l1.5-0.4c0.5-0.1,1.1-0.3,1.6-0.4c0.5-0.2,1-0.3,1.4-0.4c0.2-0.1,0.5-0.2,0.9-0.3l0.1,0l0,1.9
			c0,0.7,0,1.4,0,2.1c0,0.7,0,1.4,0,2.1l0,14.6c0,0.8,0.1,1.3,0.3,1.6s0.7,0.5,1.5,0.5c0.1,0,0.3,0,0.4,0c0.1,0,0.3,0,0.4,0V88
			c-0.1,0-0.9,0.3-2.6,0.9l-2.8,1.1l-0.1-0.2v-2.2c-0.7,0.7-1.2,1.2-1.7,1.6c-0.9,0.5-1.9,0.8-3,0.8c-2,0-3.7-0.8-4.9-2.4
			c-1.3-1.6-1.9-3.4-1.9-5.5c0-2.6,0.8-4.8,2.3-6.7c1.5-1.9,3.4-2.8,5.5-2.8C364.6,72.6,365.4,72.8,366.2,73.2z M366.7,87.1
			c0.6-0.5,0.9-1.1,0.9-1.6v-7.7c0-1.6-0.4-2.6-1.2-3.3c-0.8-0.6-1.6-1-2.4-1c-1.5,0-2.7,0.7-3.5,2c-0.8,1.3-1.3,3-1.3,4.9
			c0,1.9,0.4,3.6,1.3,5.1c0.9,1.5,2.2,2.3,4,2.3C365.4,88,366.1,87.7,366.7,87.1z"/>
		<path class="st0" d="M385.5,74.5c1.3,1.2,1.9,2.8,1.9,5H376c0.1,2.8,0.7,4.8,1.9,6c1.1,1.3,2.5,1.9,4,1.9c1.2,0,2.3-0.3,3.2-1
			c0.9-0.7,1.7-1.6,2.4-2.8l0.6,0.2c-0.5,1.5-1.4,2.9-2.8,4.2c-1.3,1.3-3,1.9-4.9,1.9c-2.2,0-4-0.8-5.2-2.5
			c-1.2-1.7-1.8-3.6-1.8-5.9c0-2.4,0.7-4.5,2.1-6.2c1.4-1.7,3.3-2.6,5.6-2.6C382.8,72.8,384.2,73.4,385.5,74.5z M376.9,75.9
			c-0.4,0.6-0.7,1.5-0.8,2.4h7.6c-0.1-1.2-0.4-2.1-0.7-2.7c-0.6-1.1-1.6-1.6-2.9-1.6C378.7,74.1,377.7,74.7,376.9,75.9z"/>
		<path class="st0" d="M388.6,89.1c1-0.1,1.6-0.4,1.9-0.7c0.3-0.4,0.5-1.2,0.5-2.5V68.7c0-0.7-0.1-1.2-0.3-1.5s-0.6-0.5-1.3-0.5
			c-0.1,0-0.3,0-0.4,0c-0.1,0-0.3,0-0.4,0.1v-0.6c0.5-0.2,1.2-0.3,1.9-0.6c0.8-0.2,1.3-0.4,1.6-0.5l1.7-0.5l0,0.1v11
			c0.8-0.9,1.4-1.5,2-1.9c1-0.7,2.2-1.1,3.4-1.1c1.9,0,3.3,0.8,4,2.4c0.4,0.9,0.6,2,0.6,3.4v7.3c0,1.3,0.1,2.1,0.4,2.5
			c0.3,0.4,0.9,0.6,1.8,0.8v0.5h-7.8v-0.5c1-0.1,1.7-0.4,2-0.7c0.3-0.3,0.4-1.2,0.4-2.5v-7.3c0-1.2-0.2-2.1-0.6-2.8
			c-0.4-0.7-1.1-1.1-2.2-1.1c-0.9,0-1.8,0.3-2.7,1c-0.9,0.7-1.3,1.1-1.3,1.3v8.8c0,1.3,0.2,2.2,0.5,2.5c0.3,0.3,1,0.6,2,0.7v0.5
			h-7.9V89.1z"/>
		<path class="st0" d="M409.8,81.7c1.1-0.7,3.3-1.7,6.6-2.9v-1.5c0-1.2-0.1-2.1-0.4-2.5c-0.4-0.8-1.2-1.2-2.5-1.2
			c-0.6,0-1.2,0.2-1.7,0.5c-0.6,0.3-0.8,0.8-0.8,1.3c0,0.1,0,0.4,0.1,0.7c0.1,0.3,0.1,0.6,0.1,0.7c0,0.7-0.2,1.1-0.7,1.4
			c-0.3,0.2-0.5,0.2-0.9,0.2c-0.5,0-0.9-0.2-1.2-0.5c-0.3-0.4-0.4-0.7-0.4-1.2c0-0.8,0.5-1.7,1.5-2.6c1-0.9,2.5-1.4,4.5-1.4
			c2.3,0,3.9,0.8,4.7,2.3c0.4,0.8,0.7,2,0.7,3.6v7.2c0,0.7,0,1.2,0.1,1.4c0.2,0.5,0.5,0.7,1,0.7c0.3,0,0.5,0,0.7-0.1
			c0.2-0.1,0.5-0.3,0.9-0.6V88c-0.4,0.5-0.8,0.8-1.2,1.1c-0.7,0.5-1.4,0.7-2,0.7c-0.8,0-1.4-0.3-1.8-0.8c-0.4-0.5-0.6-1.2-0.6-1.9
			c-0.9,0.8-1.7,1.4-2.3,1.8c-1.1,0.6-2.1,1-3.1,1c-1,0-1.9-0.4-2.7-1.1s-1.1-1.6-1.1-2.7C407.2,84.3,408.1,82.8,409.8,81.7z
			 M416.4,79.6c-1.4,0.5-2.5,1-3.4,1.5c-1.7,1.1-2.6,2.3-2.6,3.6c0,1.1,0.4,1.9,1.1,2.4c0.5,0.3,1,0.5,1.6,0.5
			c0.8,0,1.5-0.2,2.3-0.7c0.7-0.4,1.1-1,1.1-1.7V79.6z"/>
	</g>
	<g>
		<path class="st0" d="M484.2,168h7.6v0.5c-0.6,0-1,0.1-1.3,0.2c-0.5,0.2-0.8,0.5-0.8,0.9c0,0.2,0,0.3,0.1,0.5
			c0.1,0.2,0.2,0.4,0.3,0.8l4.1,9l3.4-9c0-0.1,0.1-0.3,0.2-0.7c0.1-0.3,0.1-0.6,0.1-0.7c0-0.3-0.1-0.6-0.3-0.7
			c-0.2-0.1-0.5-0.2-0.8-0.3l-0.6,0V168h4.9v0.5c-0.5,0.1-0.9,0.2-1.1,0.5c-0.2,0.3-0.5,0.7-0.6,1.2l-5.6,14.9
			c-1,2.6-1.9,4.4-2.8,5.6c-0.9,1.2-2,1.7-3.4,1.7c-0.7,0-1.3-0.2-1.9-0.5c-0.6-0.3-0.9-0.9-0.9-1.6c0-0.5,0.2-0.9,0.5-1.2
			c0.3-0.3,0.8-0.5,1.3-0.5c0.3,0,0.8,0.1,1.4,0.3c0.6,0.2,1,0.3,1.3,0.3c0.7,0,1.4-0.8,2.1-2.4c0.7-1.6,1.1-2.7,1.1-3.2
			c0-0.1,0-0.2-0.1-0.4c0-0.2-0.1-0.3-0.1-0.4l-5.6-12.2c-0.4-0.9-0.8-1.5-1.1-1.7c-0.3-0.3-0.8-0.5-1.4-0.5V168z"/>
	</g>
	<g>
		<path class="st0" d="M230.7,158.5h17.6v5.3h-11.9v4.8h11.3v5.3h-11.3v5.3H249v5.3h-18.3V158.5z"/>
		<path class="st0" d="M255.6,158.5h8.6c2.1,0,4.1,0.2,5.9,0.7s3.5,1.2,4.9,2.3c1.4,1,2.5,2.4,3.3,4.1c0.8,1.7,1.2,3.7,1.2,6
			c0,2.1-0.4,4-1.2,5.6c-0.8,1.6-1.9,2.9-3.2,4c-1.3,1.1-2.9,1.9-4.7,2.5c-1.8,0.6-3.6,0.8-5.5,0.8h-9.4V158.5z M261.3,179.1h3
			c1.3,0,2.6-0.1,3.7-0.4c1.1-0.3,2.1-0.7,3-1.3c0.8-0.6,1.5-1.4,2-2.5c0.5-1,0.7-2.3,0.7-3.7c0-1.3-0.2-2.4-0.7-3.3
			c-0.5-0.9-1.1-1.7-1.9-2.3c-0.8-0.6-1.8-1.1-2.8-1.4c-1.1-0.3-2.2-0.5-3.4-0.5h-3.4V179.1z"/>
		<path class="st0" d="M307.3,174.4c0,1.5-0.2,3-0.7,4.3c-0.5,1.3-1.2,2.4-2.1,3.4c-0.9,1-2.1,1.7-3.4,2.2c-1.4,0.5-2.9,0.8-4.7,0.8
			c-1.8,0-3.4-0.3-4.8-0.8c-1.4-0.5-2.5-1.3-3.4-2.2s-1.6-2.1-2.1-3.4c-0.5-1.3-0.7-2.7-0.7-4.3v-16h5.7v15.7c0,0.8,0.1,1.6,0.4,2.2
			c0.3,0.7,0.6,1.3,1.1,1.8c0.5,0.5,1,0.9,1.7,1.2c0.6,0.3,1.4,0.4,2.1,0.4c0.8,0,1.5-0.1,2.1-0.4c0.6-0.3,1.2-0.7,1.7-1.2
			c0.5-0.5,0.8-1.1,1.1-1.8c0.3-0.7,0.4-1.4,0.4-2.2v-15.7h5.7V174.4z"/>
		<path class="st0" d="M331.6,165.2c-0.6-0.7-1.2-1.2-2.1-1.6c-0.8-0.4-1.8-0.6-2.8-0.6s-2.1,0.2-3,0.6s-1.7,1-2.4,1.7
			c-0.7,0.7-1.2,1.6-1.6,2.7c-0.4,1-0.6,2.1-0.6,3.3c0,1.2,0.2,2.3,0.6,3.4c0.4,1,0.9,1.9,1.6,2.6c0.7,0.7,1.4,1.3,2.3,1.7
			c0.9,0.4,1.9,0.6,2.9,0.6c1.2,0,2.2-0.2,3.1-0.7c0.9-0.5,1.7-1.2,2.2-2.1l4.8,3.6c-1.1,1.5-2.5,2.7-4.2,3.4s-3.4,1.1-5.2,1.1
			c-2,0-3.9-0.3-5.6-1c-1.7-0.6-3.2-1.5-4.4-2.7c-1.2-1.2-2.2-2.6-2.9-4.3c-0.7-1.7-1-3.6-1-5.6c0-2.1,0.4-4,1-5.6
			c0.7-1.7,1.7-3.1,2.9-4.3c1.2-1.2,2.7-2.1,4.4-2.7c1.7-0.6,3.6-1,5.6-1c0.7,0,1.5,0.1,2.3,0.2c0.8,0.1,1.6,0.3,2.3,0.6
			c0.8,0.3,1.5,0.7,2.2,1.2c0.7,0.5,1.3,1.1,1.9,1.8L331.6,165.2z"/>
		<path class="st0" d="M350.3,158.5h4.7l11.3,26h-6.5l-2.2-5.5h-10.1l-2.2,5.5h-6.3L350.3,158.5z M352.5,166l-3.2,8.1h6.3L352.5,166
			z"/>
		<path class="st0" d="M387.9,165.2c-0.6-0.7-1.2-1.2-2.1-1.6c-0.8-0.4-1.8-0.6-2.8-0.6c-1.1,0-2.1,0.2-3,0.6s-1.7,1-2.4,1.7
			c-0.7,0.7-1.2,1.6-1.6,2.7c-0.4,1-0.6,2.1-0.6,3.3c0,1.2,0.2,2.3,0.6,3.4c0.4,1,0.9,1.9,1.6,2.6c0.7,0.7,1.4,1.3,2.3,1.7
			c0.9,0.4,1.9,0.6,2.9,0.6c1.2,0,2.2-0.2,3.1-0.7c0.9-0.5,1.7-1.2,2.2-2.1l4.8,3.6c-1.1,1.5-2.5,2.7-4.2,3.4s-3.4,1.1-5.2,1.1
			c-2,0-3.9-0.3-5.6-1c-1.7-0.6-3.2-1.5-4.4-2.7c-1.2-1.2-2.2-2.6-2.9-4.3c-0.7-1.7-1-3.6-1-5.6c0-2.1,0.4-4,1-5.6
			c0.7-1.7,1.7-3.1,2.9-4.3c1.2-1.2,2.7-2.1,4.4-2.7c1.7-0.6,3.6-1,5.6-1c0.7,0,1.5,0.1,2.3,0.2c0.8,0.1,1.6,0.3,2.3,0.6
			c0.8,0.3,1.5,0.7,2.2,1.2c0.7,0.5,1.3,1.1,1.9,1.8L387.9,165.2z"/>
		<path class="st0" d="M398,158.5h5.7v26H398V158.5z"/>
		<path class="st0" d="M409.6,171.4c0-2.1,0.4-4,1-5.6c0.7-1.7,1.7-3.1,2.9-4.3c1.2-1.2,2.7-2.1,4.4-2.7c1.7-0.6,3.6-1,5.6-1
			c2,0,3.9,0.3,5.6,1c1.7,0.6,3.2,1.5,4.4,2.7c1.2,1.2,2.2,2.6,2.9,4.3c0.7,1.7,1,3.6,1,5.6c0,2.1-0.4,4-1,5.6
			c-0.7,1.7-1.7,3.1-2.9,4.3c-1.2,1.2-2.7,2.1-4.4,2.7c-1.7,0.6-3.6,1-5.6,1c-2,0-3.9-0.3-5.6-1c-1.7-0.6-3.2-1.5-4.4-2.7
			c-1.2-1.2-2.2-2.6-2.9-4.3C409.9,175.4,409.6,173.5,409.6,171.4z M415.5,171.4c0,1.2,0.2,2.3,0.6,3.4c0.4,1,0.9,1.9,1.6,2.6
			c0.7,0.7,1.6,1.3,2.5,1.7c1,0.4,2.1,0.6,3.3,0.6c1.2,0,2.3-0.2,3.3-0.6c1-0.4,1.8-1,2.6-1.7c0.7-0.7,1.3-1.6,1.6-2.6
			c0.4-1,0.6-2.1,0.6-3.4c0-1.2-0.2-2.3-0.6-3.3c-0.4-1-0.9-1.9-1.6-2.7c-0.7-0.7-1.6-1.3-2.6-1.7c-1-0.4-2.1-0.6-3.3-0.6
			c-1.2,0-2.3,0.2-3.3,0.6c-1,0.4-1.8,1-2.5,1.7c-0.7,0.7-1.3,1.6-1.6,2.7C415.7,169.1,415.5,170.2,415.5,171.4z M423.6,151.3h7.5
			l-6.3,5.3h-4.8L423.6,151.3z"/>
		<path class="st0" d="M443.5,158.5h7.8l11,18h0.1v-18h5.7v26h-7.5l-11.3-18.5h-0.1v18.5h-5.7V158.5z"/>
		<path class="st0" d="M531,165.2c-0.6-0.7-1.2-1.2-2.1-1.6c-0.8-0.4-1.8-0.6-2.8-0.6c-1.1,0-2.1,0.2-3,0.6c-0.9,0.4-1.7,1-2.4,1.7
			c-0.7,0.7-1.2,1.6-1.6,2.7c-0.4,1-0.6,2.1-0.6,3.3c0,1.2,0.2,2.3,0.6,3.4c0.4,1,0.9,1.9,1.6,2.6c0.7,0.7,1.4,1.3,2.3,1.7
			c0.9,0.4,1.9,0.6,2.9,0.6c1.2,0,2.2-0.2,3.1-0.7c0.9-0.5,1.7-1.2,2.2-2.1l4.8,3.6c-1.1,1.5-2.5,2.7-4.2,3.4
			c-1.7,0.7-3.4,1.1-5.2,1.1c-2,0-3.9-0.3-5.6-1c-1.7-0.6-3.2-1.5-4.4-2.7c-1.2-1.2-2.2-2.6-2.9-4.3c-0.7-1.7-1-3.6-1-5.6
			c0-2.1,0.4-4,1-5.6c0.7-1.7,1.7-3.1,2.9-4.3c1.2-1.2,2.7-2.1,4.4-2.7c1.7-0.6,3.6-1,5.6-1c0.7,0,1.5,0.1,2.3,0.2
			c0.8,0.1,1.6,0.3,2.3,0.6c0.8,0.3,1.5,0.7,2.2,1.2c0.7,0.5,1.3,1.1,1.9,1.8L531,165.2z"/>
		<path class="st0" d="M541.1,158.5h5.7v26h-5.7V158.5z"/>
		<path class="st0" d="M554.2,158.5h17.6v5.3H560v4.8h11.3v5.3H560v5.3h12.6v5.3h-18.3V158.5z"/>
		<path class="st0" d="M579.1,158.5h7.8l11,18h0.1v-18h5.7v26h-7.5l-11.3-18.5h-0.1v18.5h-5.7V158.5z"/>
		<path class="st0" d="M628,165.2c-0.6-0.7-1.2-1.2-2.1-1.6c-0.8-0.4-1.8-0.6-2.8-0.6c-1.1,0-2.1,0.2-3,0.6c-0.9,0.4-1.7,1-2.4,1.7
			c-0.7,0.7-1.2,1.6-1.6,2.7c-0.4,1-0.6,2.1-0.6,3.3c0,1.2,0.2,2.3,0.6,3.4c0.4,1,0.9,1.9,1.6,2.6c0.7,0.7,1.4,1.3,2.3,1.7
			c0.9,0.4,1.9,0.6,2.9,0.6c1.2,0,2.2-0.2,3.1-0.7c0.9-0.5,1.7-1.2,2.2-2.1l4.8,3.6c-1.1,1.5-2.5,2.7-4.2,3.4
			c-1.7,0.7-3.4,1.1-5.2,1.1c-2,0-3.9-0.3-5.6-1c-1.7-0.6-3.2-1.5-4.4-2.7c-1.2-1.2-2.2-2.6-2.9-4.3c-0.7-1.7-1-3.6-1-5.6
			c0-2.1,0.4-4,1-5.6c0.7-1.7,1.7-3.1,2.9-4.3c1.2-1.2,2.7-2.1,4.4-2.7c1.7-0.6,3.6-1,5.6-1c0.7,0,1.5,0.1,2.3,0.2
			c0.8,0.1,1.6,0.3,2.3,0.6c0.8,0.3,1.5,0.7,2.2,1.2c0.7,0.5,1.3,1.1,1.9,1.8L628,165.2z"/>
		<path class="st0" d="M638.1,158.5h5.7v26h-5.7V158.5z"/>
		<path class="st0" d="M659.6,158.5h4.7l11.3,26h-6.5l-2.2-5.5h-10.1l-2.2,5.5h-6.3L659.6,158.5z M661.8,166l-3.2,8.1h6.3L661.8,166
			z"/>
		<path class="st0" d="M693.1,164.8c-0.5-0.6-1.1-1-1.9-1.3c-0.8-0.3-1.5-0.4-2.3-0.4c-0.4,0-0.8,0.1-1.3,0.1
			c-0.4,0.1-0.9,0.3-1.2,0.5c-0.4,0.2-0.7,0.5-1,0.8c-0.2,0.3-0.4,0.8-0.4,1.2c0,0.8,0.3,1.4,0.9,1.8s1.3,0.8,2.2,1.1
			c0.9,0.3,1.9,0.6,2.9,0.9c1,0.3,2,0.7,2.9,1.2c0.9,0.5,1.6,1.3,2.2,2.2c0.6,0.9,0.9,2.1,0.9,3.6c0,1.4-0.3,2.7-0.8,3.8
			c-0.5,1.1-1.3,2-2.2,2.7c-0.9,0.7-2,1.2-3.2,1.6c-1.2,0.3-2.5,0.5-3.8,0.5c-1.7,0-3.3-0.3-4.7-0.8c-1.4-0.5-2.8-1.3-4-2.5l4.1-4.5
			c0.6,0.8,1.3,1.4,2.2,1.8c0.9,0.4,1.8,0.6,2.8,0.6c0.5,0,0.9-0.1,1.4-0.2c0.5-0.1,0.9-0.3,1.3-0.5c0.4-0.2,0.7-0.5,0.9-0.8
			c0.2-0.3,0.3-0.7,0.3-1.2c0-0.8-0.3-1.4-0.9-1.9c-0.6-0.5-1.4-0.8-2.3-1.2c-0.9-0.3-1.9-0.6-2.9-1c-1-0.3-2-0.7-2.9-1.3
			c-0.9-0.5-1.7-1.2-2.3-2.1c-0.6-0.9-0.9-2-0.9-3.5c0-1.4,0.3-2.6,0.8-3.7c0.5-1.1,1.3-1.9,2.2-2.6c0.9-0.7,2-1.2,3.2-1.6
			c1.2-0.4,2.4-0.5,3.7-0.5c1.5,0,2.9,0.2,4.3,0.6c1.4,0.4,2.6,1.1,3.7,2.1L693.1,164.8z"/>
	</g>
	<rect x="227.8" y="108.2" class="st0" width="311.9" height="1.2"/>
	<g>
		<g>
			<g>
				<path class="st0" d="M56.9,149.7l-11,6.5l-3.4-5.7c-0.6-1.1-1-1.9-1.2-2.6c-0.2-0.7-0.1-1.3,0.2-1.9c0.3-0.6,0.8-1.2,1.5-1.6
					c0.6-0.4,1.2-0.5,1.8-0.6c0.6,0,1.2,0.2,1.7,0.4c0.3,0.2,0.7,0.5,1.1,0.9c-0.1-0.5-0.2-0.8-0.1-1.1c0-0.2,0.1-0.5,0.3-0.9
					c0.2-0.4,0.3-0.7,0.4-0.9l2.2-3.5l2.3,3.8l-2.3,3.8c-0.3,0.5-0.5,0.9-0.5,1.1c0,0.4,0.1,0.7,0.2,1l0.2,0.3l4.4-2.7L56.9,149.7z
					 M48.3,150.2l-0.9-1.4c-0.1-0.2-0.3-0.4-0.7-0.8c-0.2-0.2-0.4-0.3-0.7-0.3c-0.3,0-0.5,0-0.8,0.2c-0.3,0.2-0.6,0.5-0.6,0.8
					c-0.1,0.3,0.1,0.8,0.5,1.4l0.9,1.5L48.3,150.2z"/>
				<path class="st0" d="M37.5,140.8l-3.4-10l2.6-0.9l2.1,6.3l1.9-0.6l-2-5.8l2.5-0.8l2,5.8l2.4-0.8l-2.2-6.5l2.7-0.9l3.4,10.2
					L37.5,140.8z"/>
				<path class="st0" d="M32.9,124.9l-0.8-6.5c-0.2-1.4,0.1-2.5,0.6-3.3c0.6-0.8,1.5-1.3,2.8-1.4c1.3-0.2,2.3,0.1,3.2,0.8
					c0.8,0.7,1.3,1.8,1.5,3.4l0.3,2.2l4.7-0.6l0.5,4L32.9,124.9z M37.9,120.3l-0.1-1c-0.1-0.8-0.3-1.3-0.6-1.5
					c-0.3-0.3-0.7-0.4-1.1-0.3c-0.4,0.1-0.7,0.2-1,0.5c-0.3,0.3-0.3,0.8-0.2,1.6l0.1,1.1L37.9,120.3z"/>
				<path class="st0" d="M32.5,100l0.4-3.9l7.6,0.8c0.7,0.1,1.4,0.3,2.1,0.6c0.7,0.3,1.2,0.7,1.6,1.3c0.4,0.6,0.7,1.1,0.9,1.7
					c0.2,0.8,0.3,1.7,0.1,2.8c-0.1,0.6-0.2,1.3-0.4,2c-0.2,0.7-0.4,1.3-0.7,1.8c-0.3,0.5-0.7,0.9-1.2,1.2c-0.5,0.4-1,0.6-1.6,0.7
					c-0.8,0.2-1.6,0.2-2.2,0.1l-7.6-0.8l0.4-3.9l7.8,0.8c0.7,0.1,1.2-0.1,1.7-0.4c0.4-0.3,0.7-0.9,0.8-1.5c0.1-0.7-0.1-1.2-0.4-1.7
					c-0.3-0.4-0.9-0.7-1.6-0.7L32.5,100z"/>
				<path class="st0" d="M34.4,89.7l2.4-7c0.4-1.2,1-1.9,1.8-2.4c0.8-0.4,1.6-0.5,2.5-0.2c0.7,0.3,1.2,0.7,1.6,1.3
					c0.2,0.4,0.4,0.9,0.4,1.6c0.5-0.8,1.1-1.3,1.7-1.5c0.7-0.2,1.4-0.2,2.1,0.1c0.6,0.2,1.1,0.6,1.5,1c0.4,0.5,0.6,1,0.8,1.6
					c0.1,0.4,0,0.9-0.1,1.6c-0.2,0.9-0.3,1.5-0.4,1.7l-2.3,6.4L34.4,89.7z M40.4,87.5l0.6-1.6c0.2-0.6,0.3-1,0.1-1.3
					c-0.1-0.3-0.4-0.5-0.7-0.6c-0.3-0.1-0.7-0.1-0.9,0.1c-0.3,0.2-0.5,0.5-0.7,1.1l-0.6,1.7L40.4,87.5z M45.2,89.2l0.7-1.9
					c0.2-0.6,0.3-1.1,0.1-1.5c-0.1-0.3-0.4-0.6-0.8-0.7c-0.4-0.1-0.7-0.1-1,0.1c-0.3,0.2-0.6,0.6-0.8,1.3l-0.7,1.9L45.2,89.2z"/>
				<path class="st0" d="M40.9,73.3l2.1-3.4l8.2,5l3.2-5.3l2.7,1.6l-5.2,8.6L40.9,73.3z"/>
				<path class="st0" d="M49.4,60.7l2.5-3l9.8,8.2l-2.6,3L49.4,60.7z"/>
				<path class="st0" d="M67.1,53.8l3.3-1.4c0.4,0.9,0.7,1.7,0.7,2.6c0,0.8-0.1,1.6-0.5,2.3c-0.4,0.7-1,1.4-1.8,2.2
					c-1.1,0.9-2.1,1.5-3,1.7c-0.9,0.2-2,0.2-3.1-0.2c-1.1-0.4-2.2-1.2-3.2-2.4c-1.3-1.6-2-3.2-1.8-4.8c0.1-1.6,1-3.1,2.6-4.4
					c1.2-1,2.4-1.6,3.6-1.7c1.1-0.1,2.3,0.2,3.5,1L65,51.6c-0.3-0.2-0.6-0.4-0.9-0.4c-0.4-0.1-0.7-0.1-1.1,0c-0.3,0.1-0.7,0.2-1,0.5
					c-0.7,0.6-1,1.3-0.9,2.2c0.1,0.6,0.5,1.4,1.2,2.3c0.9,1.1,1.7,1.7,2.4,1.8c0.7,0.1,1.3-0.1,1.9-0.5c0.6-0.5,0.9-1,0.9-1.6
					C67.6,55.2,67.5,54.5,67.1,53.8z"/>
				<path class="st0" d="M82,48.2l-4,2l0.4,2.2l-3.6,1.8l-1.5-13.6l3.8-2l10.1,9.2l-3.7,1.9L82,48.2z M80,46.1l-3.4-3.5l0.8,4.7
					L80,46.1z"/>
				<path class="st0" d="M93.3,32.6l5.8-0.8c1.1-0.2,2.1-0.1,2.8,0.1c0.8,0.2,1.4,0.6,2,1.1c0.5,0.5,1,1.1,1.3,1.9
					c0.3,0.7,0.5,1.6,0.7,2.4c0.2,1.3,0.2,2.4,0,3.2c-0.2,0.8-0.5,1.5-1,2.1c-0.5,0.6-1,1-1.6,1.3c-0.8,0.4-1.6,0.6-2.3,0.7
					l-5.8,0.8L93.3,32.6z M97.6,34.9l1,6.9l1-0.1c0.8-0.1,1.4-0.3,1.7-0.5c0.3-0.2,0.5-0.6,0.7-1.1c0.1-0.5,0.1-1.2,0-2.2
					c-0.2-1.3-0.5-2.2-1-2.7c-0.5-0.4-1.3-0.6-2.3-0.4L97.6,34.9z"/>
				<path class="st0" d="M110.7,30.1l10.5,0.8l-0.2,2.7l-6.6-0.5l-0.2,2l6.1,0.5l-0.2,2.6l-6.1-0.4l-0.2,2.5l6.8,0.5l-0.2,2.9
					l-10.8-0.8L110.7,30.1z"/>
				<path class="st0" d="M126.9,31.6l3.8,1.1l-2.6,9.3l5.9,1.7l-0.9,3l-9.7-2.8L126.9,31.6z"/>
				<path class="st0" d="M148.2,39l5.5,3.6c1.2,0.8,1.9,1.7,2.1,2.6c0.2,1,0,2-0.7,3c-0.7,1.1-1.6,1.7-2.6,1.9
					c-1.1,0.2-2.2-0.2-3.6-1l-1.8-1.2l-2.6,4l-3.3-2.2L148.2,39z M148.5,45.8l0.8,0.5c0.6,0.4,1.2,0.6,1.6,0.6
					c0.4,0,0.7-0.2,0.9-0.6c0.2-0.3,0.3-0.7,0.2-1.1c-0.1-0.4-0.4-0.8-1-1.2l-0.9-0.6L148.5,45.8z"/>
				<path class="st0" d="M160.7,61.1l-3.2-3.2l-1.9,1.1l-2.9-2.8l12.4-5.7l3.1,3L162.6,66l-2.9-2.9L160.7,61.1z M162.1,58.5l2.2-4.3
					l-4.2,2.3L162.1,58.5z"/>
				<path class="st0" d="M164,67.4l10.8-6.9l3.5,5.6c0.7,1,1.1,1.9,1.3,2.5c0.2,0.7,0.1,1.3-0.2,1.9c-0.3,0.6-0.7,1.2-1.4,1.6
					c-0.6,0.4-1.2,0.6-1.8,0.6c-0.6,0-1.2-0.1-1.7-0.4c-0.3-0.2-0.7-0.5-1.2-0.9c0.1,0.5,0.2,0.9,0.2,1.1c0,0.2-0.1,0.5-0.2,0.9
					c-0.1,0.4-0.3,0.7-0.4,0.9l-2.1,3.6l-2.4-3.8l2.2-3.9c0.3-0.5,0.4-0.9,0.4-1.1c0-0.4-0.1-0.7-0.3-1l-0.2-0.3l-4.4,2.8L164,67.4z
					 M172.6,66.6l0.9,1.4c0.1,0.1,0.3,0.4,0.7,0.8c0.2,0.2,0.4,0.3,0.7,0.3c0.3,0,0.5,0,0.8-0.2c0.3-0.2,0.5-0.5,0.6-0.8
					c0.1-0.3-0.1-0.8-0.5-1.4l-0.9-1.5L172.6,66.6z"/>
				<path class="st0" d="M176.8,86.3l-1.5-4.2l-2.2,0.1l-1.4-3.8l13.7,0.2l1.5,4l-10.4,8.9l-1.4-3.9L176.8,86.3z M179.2,84.6
					l3.8-2.9l-4.8,0.3L179.2,84.6z"/>
				<path class="st0" d="M182.9,99.9l2.6-0.3l0.8,6.1l-5.4,0.7c-0.9-1.1-1.6-2-2-2.9c-0.4-0.9-0.7-1.9-0.8-3.1
					c-0.2-1.5-0.1-2.8,0.3-3.8c0.4-1,1.1-1.8,2-2.5c1-0.6,2.1-1,3.4-1.2c1.4-0.2,2.6,0,3.7,0.4c1.1,0.4,2,1.2,2.6,2.2
					c0.5,0.8,0.9,1.9,1,3.4c0.2,1.4,0.2,2.5,0,3.2c-0.2,0.7-0.5,1.4-1,1.9c-0.5,0.5-1.1,1-1.9,1.3l-1.1-3.7c0.5-0.2,0.8-0.5,1-0.9
					c0.2-0.4,0.3-0.9,0.2-1.5c-0.1-0.9-0.5-1.5-1.1-1.9c-0.7-0.4-1.7-0.6-2.9-0.4c-1.4,0.2-2.3,0.6-2.9,1.1
					c-0.5,0.6-0.7,1.4-0.6,2.3c0,0.4,0.2,0.8,0.3,1.2c0.2,0.4,0.4,0.8,0.8,1.3l1.2-0.2L182.9,99.9z"/>
				<path class="st0" d="M191,119.1l-0.4,3.9l-7.6-0.9c-0.8-0.1-1.4-0.3-2.1-0.6c-0.6-0.3-1.2-0.7-1.6-1.3c-0.4-0.5-0.7-1.1-0.9-1.7
					c-0.2-0.8-0.2-1.7-0.1-2.8c0.1-0.6,0.2-1.3,0.4-2c0.2-0.7,0.4-1.3,0.7-1.8c0.3-0.5,0.7-0.9,1.2-1.2c0.6-0.3,1.1-0.6,1.6-0.7
					c0.8-0.2,1.6-0.2,2.2-0.1l7.6,0.9l-0.5,3.9l-7.7-0.9c-0.7-0.1-1.3,0-1.7,0.4c-0.4,0.3-0.7,0.9-0.8,1.5c-0.1,0.7,0.1,1.2,0.4,1.7
					c0.3,0.4,0.9,0.7,1.6,0.8L191,119.1z"/>
				<path class="st0" d="M176.4,133.5l1.5-4.2l-1.8-1.3l1.3-3.8l10.5,8.7l-1.4,4.1l-13.6,0.3l1.3-3.9L176.4,133.5z M179.3,133.6
					l4.8,0.2l-3.9-2.8L179.3,133.6z"/>
				<path class="st0" d="M183.5,145.3l-2.2,3.8l-5,0l2.4,4.4l-2.2,3.7l-3.9-8.1l-4.6-2.7l2-3.4l4.6,2.7L183.5,145.3z"/>
			</g>
		</g>
		<path class="st0" d="M111.8,212.9c-56.9,0-103.2-46.3-103.2-103.2C8.6,52.9,54.9,6.6,111.8,6.6c56.9,0,103.2,46.3,103.2,103.1
			C214.9,166.7,168.6,212.9,111.8,212.9z M111.8,10.7c-54.7,0-99.1,44.5-99.1,99.1c0,54.7,44.5,99.1,99.1,99.1
			c54.7,0,99.1-44.5,99.1-99.1C210.9,55.1,166.4,10.7,111.8,10.7z"/>
		<path class="st0" d="M111.8,195.3c-47.1,0-85.5-38.4-85.5-85.5c0-47.1,38.4-85.5,85.5-85.5s85.5,38.3,85.5,85.5
			C197.3,156.9,158.9,195.3,111.8,195.3z M111.8,25.9c-46.3,0-83.9,37.6-83.9,83.9c0,46.3,37.6,83.9,83.9,83.9s83.9-37.6,83.9-83.9
			C195.7,63.5,158,25.9,111.8,25.9z"/>
		<path class="st0" d="M111.8,173.3c-35.2,0-63.8-28.6-63.8-63.8c0-35.2,28.6-63.8,63.8-63.8c35.2,0,63.8,28.6,63.8,63.8
			C175.6,144.7,147,173.3,111.8,173.3z M111.8,47.3c-34.3,0-62.2,27.9-62.2,62.2c0,34.3,27.9,62.2,62.2,62.2
			c34.3,0,62.2-27.9,62.2-62.2C174,75.2,146.1,47.3,111.8,47.3z"/>
		<polygon class="st0" points="111.8,86.8 117.1,101.9 133.1,102.3 120.3,112 125,127.4 111.8,118.2 98.6,127.4 103.2,112 
			90.4,102.3 106.5,101.9 		"/>
		<g>
			<g>
				<g>
					<path class="st0" d="M130.3,159c0,0-8.1-4.2-8.5-4.3c-0.3,0-3.7-1.9-5.2-2.4c-1.1-0.4-2.7-0.5-3.2-0.4
						c-1.3,0.1-2.4,0.3-2.4,0.3l2,0.8c0,0,1.9,0.9,2.8,1.4c1.3,0.7,1.4,1.5,1.4,1.5l6.2,3.5l1.5,1.1
						C124.8,160.6,126.2,158.8,130.3,159z"/>
					<path class="st0" d="M146.2,152c0,0-2.1-0.3-3.4-0.8c-1.3-0.4-3.5-0.8-5.3-0.7c-1.8,0-3.5,0.6-5,1.1c-1.5,0.6-3.4,0.6-3.4,0.6
						s-1.1,0.2-0.6-0.1c0.5-0.2,2.2-1.6,2.2-1.6l1.1-1.5c0,0,3.3-6.4,4.7-8.9c0.8-1.4,2.4-4.4,2-4.9c-0.2-0.2-4.3,1.3-5.2,2.1
						c-1,0.9-1.8,2.8-2.1,3.9c-0.3,1.1-1.9,2-1.9,2c-1.3,0.9-2.2,3.9-2.7,6.3c-0.4,2.4-4.4,3-4.4,3s-1.6,0.6-0.2,1.1
						c0.3,0.1,1.6,0.2,2.1,0.2c0.7,0.1,1.8,0.2,2.3,0.4c0.7,0.1,2.3,0.6,3.7,1c1.4,0.5,2.5,0.7,3.5,0.4c1-0.4,2.4-0.2,3.4,0
						c1,0.2,2.2,0.1,2.9-0.1c0.7-0.2,2.6-1.3,2.6-1.3s2-0.9,3.2-1.4C146.9,152.2,146.2,152,146.2,152z M128,150.9c0,0,0.4-1,0.8-1.5
						c0.3-0.6,1.8-3.9,2.4-4.9c0.6-1,1.8-3.5,2.6-4.5c0.4-0.6,1.9-2.2,2.3-1.5c0.3,0.6-0.6,1.6-0.8,1.7c-0.2,0.2-1.3,1.8-1.3,1.9
						c0,0.1-1.3,2.4-1.3,2.4s-1.5,2.8-1.6,3.1c-0.1,0.3-1,2-1.3,2.4c-0.3,0.4-0.5,0.9-1,1C128,151.2,128,150.9,128,150.9z
						 M140.9,153c-0.5,0.4-2.7,0.7-3.3,0.8c-0.6,0.1-2.8,0.1-3.8,0.1c-0.5,0-1.5,0.2-2.1,0.2c-0.6,0-2-0.1-2.2-0.2
						c-0.3,0-1.2-0.5,0.2-0.7c1.3-0.2,2.6-0.1,3.4-0.2c0.5,0,1.4-0.3,1.9-0.3c0.7-0.1,2.4-0.3,2.9-0.3c0.5,0,2-0.2,2.6-0.2
						C140.8,152.2,141.4,152.5,140.9,153z"/>
					<path class="st0" d="M132.6,149.5c-0.2,0.3-1.2,1.6,0.2,1.2c1.5-0.4,2.2-0.5,3.4-1.1c1.5-0.7,2.4-2.1,3.6-3.2
						c1.1-1.2,3.2-4.5,3.9-5.8c0.6-1.3,2.7-3.4,0.3-7.6c0,0-0.4,0.8-1.3,1.6c-0.9,0.8-2.3,1.7-2.3,1.7l-1.6,1.5
						C138.9,137.8,133.4,148,132.6,149.5z M138,142.8c1.1-1.3,2-1.6,2.3-2.1c0.3-0.7,0.8-2.4,1.5-3.2c0.7-0.8,1.5-1.9,1.8-1.6
						c0.3,0.2,0.3,0.6-0.1,1.3c-0.4,0.7-0.9,0.9-1.1,1.2c-0.4,0.5-0.8,1.9-1.1,2.4c-0.3,0.6-0.9,1.5-2,2.1c-1,0.6-1.3,1.2-1.4,1.6
						c-0.1,0.4-0.4,1.7-1.2,3.1c-0.3,0.5-1.3,1.2-1.8,1.5c-0.5,0.3-1,1-1.3,0.8c-0.6-0.5,0.6-1.6,2-2.7c0,0,0.7-0.6,1.1-1.7
						C137.1,144.4,137.2,143.7,138,142.8z"/>
					<path class="st0" d="M153,145.7c0,0-3.2-0.3-3.5-0.3c-0.3,0-2.1-0.2-4.6-0.2c-2.5,0-3.5,0.9-4.1,1.6c-0.7,0.8-2.7,2.6-2.7,2.6
						l1.1-0.1c2.6-2,4.5-1.9,5.3-2c0.8,0,2.4,0.1,4.9-0.8c2.6-0.9,2,0.5,1.7,0.6c-0.3,0.1-1.5,1-3.4,1c-1.9,0.1-3.8,0.6-4.6,0.6
						c-0.8,0-2.8,1.1-2.8,1.1s2.3,0.4,3,0.7c0.7,0.2,1.7,0.1,2.5-0.3c2.3-1.1,3.4-1.3,4.3-1.5c1-0.2,2.1-0.9,2.1-0.9
						s0.6-0.4,1.2-1.4C153.9,145.4,153,145.7,153,145.7z"/>
					<path class="st0" d="M165.9,127.8c-1.2,0.4-1.6,0.7-1.6,0.7c-2.6,0.8-3,2.9-4.2,4.3c-0.6,0.7-1.6,1.6-4.4,2.8
						c-2.5,1.1-2.9,1.2-3,1.2c0,0-0.8,0.2-0.7,0.5c0.1,0.2,0.7,0,0.7,0s3.1-0.5,5.2-1.9c1.4-0.9,2.3-1,3.6-3
						c0.6-0.9,1.2-2.6,1.3-1.5c0.1,2.9-4.3,5.6-6.3,6.5c-1,0.4-2.4,0.6-4.2,0.9c-1.8,0.3-2.9,0.2-2.8-0.2c0.2-0.6,0.4-0.7,0.9-1.3
						c0.9-1,2.9-1.4,4.4-2.1c1.8-0.8,3.5-2,4.3-3c0.9-1,1.2-1.4,1.4-2.3c0.7-2.3,0.7-3.5,1.3-4.3c2.2-2.7,2.5-3.6,2.6-4.8
						c0-0.3-1.1,0.6-1.8,1c-1.2,0.7-1.6,0.7-4,1.3c-2.4,0.6-2.4,2.2-2.8,2.9c-0.1,0.3-1.1,1.5-1.6,1.8c-0.5,0.2-1.6,1.9-2.1,2.9
						c-0.3,0.7-0.9,1.2-1.3,1.2c-0.5-0.1,0.9-5.3,1.2-6.2c0.3-0.9,0.4-2.5,0.4-3.1c0-0.5-0.5-1.3-1.4-1.4c-0.9-0.2-0.8-1.4-0.8-1.4
						c-2.3,2-0.7,4.7-0.5,6.7c0.2,2-0.5,5.8-0.5,5.8c2.2,0.9,0.5,3.6-0.2,4.5c-0.7,0.9-2.1,1-2.7,1.8c-0.6,0.8-4.2,6.2-4.2,6.2
						l4.6-0.6c0,0,0.5,0.1-0.3-0.6c-0.9-0.6,0.3-3,1-3.6c1.4-1.1,3.3-0.3,3.3-0.3s2.6,0.4,5.9-0.9c2.7-1.1,3.9-2.8,5.2-4.1
						c0.7-0.7,2-3.1,2.8-4.5C165.6,129.1,166.4,127.6,165.9,127.8z M152.1,133.1c1.6-0.9,2.2-1.5,2.7-2.1c0.5-0.6,1-1.3,1.2-2
						c0.4-1,1.3-3.2,2.4-4.1c0.6-0.5,1.7-0.8,2.3-1c0.2-0.1,2.6,0.4,0.4,1c-0.9,0.2-1.9,0.6-2.4,1.5c-0.6,0.9-1.2,2.3-1.3,2.5
						c-0.1,0.2-0.7,1.9-1.7,3c-1,1.1-2.4,2-2.4,2l-1.2,0.7C152,134.5,150.4,134.1,152.1,133.1z"/>
					<path class="st0" d="M152.8,136.7L152.8,136.7L152.8,136.7z"/>
					<path class="st0" d="M149.8,142.9c0.4-0.2,0.5-0.2,1.2-1c0.7-0.8,0.1-2.1-1-2c-0.5,0-1.1-0.1-2.2,1.3c-1,1.4,0.5,1.9,1,2
						C149.1,143.2,149.5,143.1,149.8,142.9z"/>
					<path class="st0" d="M146.6,133.7c-0.7,1.1-1,2.4-0.5,2.8c0.1,0.1,0.6,0.5,1,0.5c0.4,0,1.5-0.5,2.1-1.5
						c0.6-0.9,1.1-1.9-0.1-2.6C147.9,132.3,147.1,132.8,146.6,133.7z"/>
					<path class="st0" d="M150.5,117.7c0,0,0.1-0.2-0.4-0.7c-0.8-0.8-1.2-2.2-1.2-2.2c-1.6,0.9-2.1,2.6-2.1,3.3c0,0.7,0.3,2.3,0,3.8
						c-0.1,0.5-0.2,1.2-0.9,3.1c-0.8,1.9,0.1,3.7,0.3,4.4c0.2,0.6,0.8,2.6,0.8,2.6s0.6-0.4,0.8-0.4c0.3-0.1,1.1,0,1.1,0
						s0.4-1.8,0.4-2.7c0-0.7-0.1-1.9-0.4-3.7c-0.5-2.6-0.4-3.4-0.1-4.9C149.1,118.6,150.5,117.7,150.5,117.7z"/>
					<path class="st0" d="M153.2,120.4c0,0,0.8-0.2,1.2-0.9c0.5-0.9,0.4-1.8,0.4-1.8c-1.2-2.4-2.9-0.5-2.9-0.5
						C150.3,120.3,153.2,120.4,153.2,120.4z"/>
					<path class="st0" d="M157.8,116.6c-1.6,0.1-2.3,2.9-2.3,2.9s-0.3,0.7-1.1,1.2c-0.9,0.5-0.4,1.3-0.4,2.7c0,1.4-1,3.9-1,3.9
						l-0.4,0.9c0,0,0,0.6,0.6-0.5c1-1.9,2.1-1.5,2.4-3.5c0.3-1.6,2.8-2.1,2.8-2.1l-0.7-0.1c-2.7-1.3,0.2-4.4,0.6-4.9
						C158.9,116.6,159.3,116.6,157.8,116.6z"/>
					<path class="st0" d="M157.8,119.6c-0.8,1.8,1.6,1.9,2.1,1.6c0.2-0.1,0.7-0.7,0.7-0.7c1-1.4,0.1-2.4-0.4-2.5
						C159.7,117.8,158.7,117.7,157.8,119.6z"/>
					<path class="st0" d="M152.4,112c0.7,1.3,2.7,5,3.1,4.7c0.3-0.1,0-0.9,0-0.9s-0.1-1-0.4-2.2c-0.3-1.2-1.2-2.6-1.9-3.5
						c-0.6-1-1.8-2.4-2.3-3.9c-0.6-1.6-0.4-4.6-0.3-5c0.1-0.4,0.2-0.1-0.1-0.5c-0.3-0.4-1.8-1.2-1.8-1.2s0.1,0.6,0,2.3
						c0,0.4-0.1,0.9-0.2,1.6c-0.1,0.7,0.4,1.6,1.4,3.6C151.2,109.4,151.8,110.9,152.4,112z"/>
					<path class="st0" d="M167.4,94.6c0,0-0.7,1.2-1,1.5c-0.3,0.3-4.3,3.7-4.5,3.9c-0.2,0.2-2.3,0.8-4.2,6c-1.9,5.2-1.1,10-1.1,10
						l0.9-0.1l0.2-0.5c0,0,0.3-1.7,0.6-3c0.3-1.3,0.7-3.3,1.6-4.7c0.9-1.3,2-2.9,2-2.9s0.7-1.6,0.9-1.9c1.3-2.2,1.2-2.5,2.4-3.7
						c1.2-1.2,0.6,0.2,0.6,0.2l-1,2c0,0-1,2-1.3,2.4c-0.3,0.5-1.1,2-2.3,3.7c-1,1.4-2.1,5-2.1,5l-0.5,3.4l1.1-0.3
						c1.6-1.5,3.8-4.6,5.2-6.7c1.5-2,2.1-5.2,2.3-6.6C167.4,101,167.4,94.6,167.4,94.6z"/>
					<path class="st0" d="M153.6,95.8c-1-1-1.9-1.3-1.9-1.3s0.2,1.9,0.2,3c0,1.2,0.1,3.1,0.1,4.1c-0.1,1-0.6,2.8,0.2,4.4
						c0.7,1.7,1.6,2.5,2.2,3.5c0.6,1,1.3,3.1,1.3,3.1s-0.1-4,0.2-6c0.3-2,0.4-5.1-0.1-6.6C155.4,98.6,154.6,96.8,153.6,95.8z"/>
					<path class="st0" d="M160.2,95c-1.9-0.1-1.9,2-1.9,2s0.1-0.6,0,0.1c0,0.7,0.3,2.4,1.7,2.5c1.5,0.1,2-1.6,2-2.4
						C162,96.8,161.9,95,160.2,95z"/>
					<path class="st0" d="M161.7,94.6c0.8,0.3,1.2,2.7,1.2,2.7s-0.1-1.4-0.1-2.1c0-0.7-0.3-3.3-0.3-3.3l-0.7,0.5
						c-0.9,0.7-1.3,1.9-1.3,1.9S160.9,94.3,161.7,94.6z"/>
					<path class="st0" d="M158.3,88.8c0.3-0.6,1.1-1.9,1.4-3.8c0.1-0.8,0.2-2.1,0.2-3.1c0-0.6-0.3-1.7,0-1.7
						c0.2-0.1,0.3,0.5,0.4,1.4c0.1,0.3,0.2,1.2,0.1,2.3c0,0.9,0,1.6-0.4,2.9c-0.4,1.1-0.7,2.2-0.9,2.6c-0.2,0.4-0.9,1.7-0.9,1.7
						s-0.4,1.1-0.3,2c0,1,0.1,2.1,0.1,2.1s0.5-0.9,1.5-1l0,0c0,0,0.2-1.7,0.2-2.2c0-0.5,0.7-3.9,1-4.9c0.5-1.5,0.8-4.2,0-7.2
						c-0.2-0.8-0.4-3.4-0.4-3.4s-1,0.8-1.6,3.7c-0.2,0.9,0.2,3.3,0,5.9C158.9,87.4,158.5,88.4,158.3,88.8z"/>
					<path class="st0" d="M158.3,88.8c0,0.1-0.1,0.1-0.1,0.1S158.3,88.9,158.3,88.8z"/>
					<path class="st0" d="M152,81.7c0.1,0.9,0.4,1.4,1.4,3.3c0.3,0.6,1,2.3,1.1,2.8c0.1,0.5,0.2,1.1,0.2,1.3c0,0.2,0.1,1.4,0.1,1.4
						V91c0,0-2.8-1.6-4-2.5c-1.2-0.9-2.6-2.1-3.5-2.8c-1-0.8-3.4-3.6-3.4-5.9l-1.1-1c0,0-0.8,5,3.1,8.3c1.1,0.9,2.4,2,5,3.2
						c2.6,1.2,3.2,2.6,4.3,5c1.1,2.4,1.4,3.5,1.5,4.2c0.1,0.7,0.5,3.7,0.5,3.7l0.1,0.9c0,0,1.2-2.5,2.4-3.5c0,0-2.3-0.3-2.1-4
						l-0.4-2.4c0,0-0.5-2.9,0.4-4.7c0,0,1-3.3,0.7-6.1c-0.2-1.7-0.3-2.2-0.5-3.8c-0.3-2.5-1.3-6.1-1.4-6.5c-0.4-1.3-0.5-1.5-0.9-2.5
						c-0.1-0.3-0.3-1.5-0.7-1.5c-0.2,0-0.5,1.5-0.5,1.5s-0.5,1.6-0.6,2.1c-0.3,1.3-1.1,2.5-1.4,5.4c-0.1,0.5-0.1,2-0.2,2.2
						C152,80.5,151.9,81.4,152,81.7z M153.9,75.4c0-0.4,0.1-1.5,0.6-1.5c0.5,0,0.5,0.6,0.4,1c-0.1,0.5-0.1,1.3-0.1,1.5
						c0,0.2,0.2,1.4,0.4,2.1c0.2,0.6,0.5,0.9,0.4,2.2c-0.1,0.8-0.9,1.8-0.6,3.2c0.2,0.7,0.7,1.5,0.9,2.1c0.2,0.4,0.6,1.6,0.7,2.5
						c0,0.9,0,1.4,0,1.4s-0.6,1.1-0.8-0.3c-0.2-1.6-0.3-2.3-0.6-3c-0.5-1.2-1.8-3.3-1-5c0.1-0.3,0.6-0.8,0.6-1.5
						c0-0.7-0.7-2.1-0.8-2.8C153.9,76.7,153.9,75.9,153.9,75.4z"/>
					<path class="st0" d="M154,94.4c0,0-0.4-0.9-0.8-1.3c-0.8-1-1.9-1.8-5.1-3.3c-3.2-1.6-4-4.1-5.6-5.2c-0.7-0.5-2.2-0.7-2.2-0.7
						s1.4,1.9,1.7,2.6c0.4,0.9,0.5,1.4,2.2,3c1.7,1.6,3.8,2.2,5.2,2.6C151.5,92.5,154,94.4,154,94.4z"/>
					<path class="st0" d="M144.7,80.4c0.1,0.3,0.8,1.7,2.5,3.9c2.6,3.3,6.7,5.3,6.7,5.3c-0.5-2-0.9-3.6-1.6-4.7
						c-2.3-3.7-7.7-4.6-7.7-4.6S144.6,80.1,144.7,80.4z"/>
					<path class="st0" d="M151.3,81.1l0.1-2.1l-0.3-0.4l-1.8-2.3c0,0-0.7-0.6-1.4-2c-0.3-0.5-0.5-0.8-0.3-1c0.4-0.3,0.9,0.5,1.4,1.1
						c0.7,0.9,2.5,3.4,2.5,3.4l0.6-2.7l-4.6-3.5c-0.1,0.6-1.1,0.9-1.1,0.9C145.5,76.5,151.3,81.1,151.3,81.1z"/>
					<path class="st0" d="M143.6,74.8c-1.1,0.5-1.6,0.5-1.6,0.5l0,1.1l0.4,0.5c0,0,1.5,2.2,2.4,2.5c0.4,0.1,1.7,0.4,3.1,1
						c1.7,0.7,3.5,1.8,3.5,1.8s-4.9-2.9-5.8-7.4l-0.4-1.9l-0.9-0.2C144.3,72.7,144.7,74.3,143.6,74.8z"/>
					<path class="st0" d="M125.4,70.8c0.5,0.5,1.4,1.2,2.5,1.9c1,0.6,4,2.4,6.3,2.8c0.5,0.1,2.1,0,2.1,0c0.1-1.2,1.5-1.3,1.5-1.3
						s-1.6,0-2.8,0c-1.1,0-3.7-0.8-4.8-1.3c-0.8-0.3-2.6-1.4-3.1-1.7c-0.6-0.3-0.6-1.1,0.4-0.7c0.6,0.2,2.1,1.2,3.7,1.9
						c1.7,0.7,3.5,1.1,4.2,1.1c0.1-0.2-2.4-0.6-3.7-1.5c-1.4-0.9-2.7-2.4-2.7-2.4l-3.6-0.2C125.3,69.4,123.6,69.3,125.4,70.8z"/>
					<path class="st0" d="M139.7,77.8c0.8-0.1,1.3-0.2,1.5-1.1c0.2-1-0.2-1.7-1.4-1.9c-0.7-0.2-1.8-0.2-2.2,1
						c-0.5,1.2,1.3,1.9,1.3,1.9S139.3,77.8,139.7,77.8z"/>
					<path class="st0" d="M141.1,70.8c-1,0-1.4,0.8-1.2,2.5c0.3,1.7,2.8,0.9,2.8,0.9l0.5-0.2c0,0,0.3-0.3,0.1-1.6
						C143.2,71,142.2,70.8,141.1,70.8z"/>
					<path class="st0" d="M145.3,71.9C145.3,71.9,145.3,71.9,145.3,71.9C145.2,72,145.3,71.9,145.3,71.9z"/>
					<path class="st0" d="M145.2,71.9c0,0,0.1-0.1,0.4-0.1c0.5-0.2,1.1-1.5,1.1-1.5c0.3-1.7-1-2.1-1-2.1c-2.1-0.4-2.1,1.4-2.1,1.4
						C143,72,144.9,72,145.2,71.9z"/>
					<path class="st0" d="M136,63.8c0.1,0.8,1.2,1.9,1.4,2.1c0.2,0.2,1.6,1.7,2.1,2.3c0.5,0.7,1.5,1.7,1.5,1.7s0.3,0,0.4-0.3
						c0.3-0.5-0.5-2.1-0.7-2.4c-0.1-0.2-0.9-1.5-0.9-1.5s-1-1.2-1.2-1.3c-0.2-0.1-0.9-1-1.6-1.9s0.5-0.6,0.7-0.5
						c0.4,0.3,1.2,1,1.5,1.4c0.4,0.6,0.6,1,1.6,2.3c0.8,1.1,0.9,1.5,1.3,3.2c0.4,1.7,0.7,1,0.7,1s0.4-0.5,0.3-1.8
						c-0.5-3.9-1.5-5.1-1.8-5.7c-0.6-1-2-2.1-3.1-2.4c-1-0.4-2.3-0.9-3.6-1.3c-1.4-0.4-0.3,0.8,0.2,1.9
						C135.4,61.9,135.9,63,136,63.8z"/>
					<path class="st0" d="M130.9,70.2c1.3,1.1,1.9,1.9,4.7,2.4c2.8,0.4,3.1,0.2,3.1,0.2s0.9-0.2,0.2-0.8c-0.7-0.6-2.2-1-2.7-1.2
						c-0.5-0.2-1.4-0.5-2.3-1c-0.5-0.3-1.6-1.1-2.6-1.8c-0.8-0.6-1.9-1.5-2-2.3c-0.2-0.8,0.2-0.6,0.2-0.6s0.3-0.3,1.8,1.1
						c0.8,0.8,1.4,1.3,1.9,1.6c1.5,1.1,2.2,1.4,3.7,2.2c0.8,0.4,2.8,0.9,2.8,0.9s0.3-0.6,0.5-0.7c0.2-0.1-0.8-1.2-2.5-2.6
						c-1.5-1.2-2.5-2.7-2.5-2.7s-1.4-0.3-3.7-0.7c-1.7-0.3-4.8-2.7-4.7-2c0.1,0.7,0.5,2.8,1.3,4.1C128.8,67.7,129.6,69.1,130.9,70.2
						z"/>
				</g>
				<g>
					<path class="st0" d="M115.2,155.2c0,0-3.2-1.5-6.1-2.9c-3.9-1.9-8.6-4.6-11.9-9.5c-4.1-6.1-7.7-9.3-8.6-9.9
						c-0.9-0.7-1-0.9-1.3-0.4c-0.3,0.4-0.1,0.7,0.2,1.2c0.9,1.4,2.9,4,3.7,5.4c1.3,2.5,3.9,5.2,3.9,6.8c0,0.2-0.8-0.2-0.8-0.2
						s-6.2-2.1-8.8-9.7c-1.8-5.5-1.1-7.1-1.5-9.8c-0.7-4.9-0.9-5.2-3.3-10.7c-0.1-0.1-1.5-2.4-1.7-1.9c-0.3,0.7,0.2,3.1,0.2,3.1
						l0.3,2.8c0,0-0.2,6.2-0.2,6.6c0,0.4-1.6,4.3,5.1,10.8c0,0,0.1,1.1-0.8,0.1c-0.6-0.7-5.4-4.4-6.9-10.4c-1.5-6-1.7-12.1-0.6-14.6
						c1-2.3,3.1-7.8,2.2-12.6c-0.1-0.5-0.2-2-0.6-1.6c-0.1,0.2-0.7,2.6-1.1,3.5c-0.5,1.2-1.3,2.3-1.5,3.1c-0.5,1.4-2.8,3.5-2.3,7.3
						c0.5,4.4,0.8,5.1,1.3,6.7c0.2,0.6,0.6,2,0.3,2.2c-0.3,0.1-1.2-1.8-1.2-1.8s-4.2-8.3-1.6-15c2.6-6.7,9.2-13.1,9.2-13.1
						s5.4-4.4,6.5-5.5c0.4-0.4,0.3-0.7,0.2-0.7c-1.3,0.3-11.6,2.5-15.3,14.8c0,0-0.2,0.5-0.4,0.4c-0.3-0.1,0-0.7,0-0.7
						s2.3-8.7,8.6-12.7c7-4.3,6.1-3.7,8.4-5.1c1.4-0.9,2.8-2.1,4.4-4.8c0.2-0.3,0.8-1.9,0.7-2.1c-0.1-0.3-0.4,0.1-0.5,0.6
						c0,0-2,3-4.9,4.1c-3,1-5.4-0.4-8.3,2.9c-3,3.3-5.3,7.8-5.3,7.8s-0.8,1.2-1,1.1c-0.3-0.1,0.2-1.3,0.2-1.3s4-8.4,7.2-10.1
						c3.2-1.7,6-3.4,7.8-4.8c2.2-1.7,6-5.9,7.4-7.4c0.3-0.3,2.3-2.4,2.8-3c0.3-0.4,0.9-0.9,0.8-1c-0.3-0.2-2.2,0.7-2.2,0.7
						s-9.5,3.5-16,13.3c-0.3,0.4-1.2,1.1-1.6,1.5c-0.7,0.7-2.6,3.1-2.6,3.1c-0.4-0.4,4.4-6.9,4.4-6.9l0.7-3.3c0,0,1.2-5,3.8-8.6
						c0.3-0.3,1.8-1.9,2-2.2c0.5-0.6-1,0.5-0.7,0.3c0,0-9.8,7-9.8,15.9c0,1.6-1,3-2.4,5c-1.6,2.3-2.1,3.7-2.8,7.1
						c-0.5,2.4-0.9,4.3-0.9,4.3s0.1,1.3-0.3,1.2c-0.4-0.1-0.3-1.1-0.3-1.1s1-6.6,1.7-8.6c0.7-2,1.1-3.3,1.1-3.3s-0.4-5,0.7-7.7
						c0.9-2.4,3.3-5.5,3.7-6.3c0.2-0.3,1.3-2.6,1.6-5.1c0-0.3-0.2-0.1-0.7,0.9c-1.1,2.4-2,3.1-3.8,5.4c0,0-4.5,3.3-6.2,13.1
						c0,0-0.1,3.7-0.6,9.4c-0.4,4.2-0.1,8.1,0.4,10.5c0.3,1.4,0.9,1.5,0.5,1.6c-0.2,0.1-0.3,0.2-0.9-0.9c-0.6-1.3-1.2-3.5-1.2-6.3
						c0-5.1,0.5-9.2,0.5-9.2s0.9-8.3-2.5-12c-0.2-0.2,0.6,1.7,0.9,3.5c0.4,2.3-0.3,5.5-0.6,6.8c-0.2,1.2-2.5,6.7-1.7,11.8
						c0,0,1.9,8.7,4.4,12.9c0,0,0.8,2-0.6,0.3c-1.4-1.7-3.4-8.6-3.6-9.2c-0.2-0.6-2.2-4.8-4.1-6.5c-1-0.9-3.6-2.5-3.6-2.5
						s-1.4-1.1-0.4,0.4c0.9,1.2,2,3.2,2.6,4.1c1.4,2.3,2.5,4.4,3.1,5.8c0.9,2,3,7.7,3,7.7l1.2,3.4c0,0,2.3,1.5,3.5,2.8
						c1,1.1,3.1,3.6,4.8,8.1c0.8,2,1.5,3.3,1.5,3.3s0,1.9-1.4-0.5c-1.4-2.4-2.4-6.7-5.7-10.2c-2.5-2.7-8.9-6.4-8.9-6.4
						s4.3,7.5,5.3,8.8c1.8,2.1,4.4,5.1,5.1,5.9c0.7,0.8,4.7,5.8,5.3,6.6c0.9,1.2,1.5,1.8,2,2.3c1.1,1.1,4.4,2.7,4.7,4.1
						c0,0.3-0.6-0.1-0.9-0.3c-1.4-0.8-2.6-1.7-4.4-2.9c-1.7-1.1-7.1-1.3-12.7-10.9c-1.1-1.8-1.6-2.5-1.9-2.4
						c-0.5,0.3,3,12,10.3,15.7c0,0,8,3.6,9.8,4.6c1,0.6,2.9,1.5,3.9,2.2c0.5,0.4-0.5,0.4-0.5,0.4c-4.3-0.3-10.4-0.9-14.2-3.1
						c0,0-1.6-1.1-0.3,0.4c1.1,1.2,3.1,4.3,6.9,6c3.9,1.7,9.5,2.7,11.5,2.8c2,0.1,9.2,0.1,10.6,0.6c1.3,0.5,4,1.1,5.3,1.5
						c1.2,0.4,4.8,1.8,4.8,1.8s1.1,0.6,1.7,0.8c0.7,0.3,3.2,1,3.4,0.5C116.2,155.8,115.2,155.2,115.2,155.2z"/>
					<path class="st0" d="M106.9,154.8c-1.2,0.4-9.6,3.4-9.6,3.4l-2.5,1c3.5-0.8,6.2,1,6.2,1l9.4-4.3c0,0,0-0.2-0.3-0.3
						C109.8,155.3,108.1,154.4,106.9,154.8z"/>
					<path class="st0" d="M93.9,160c-0.1,0.1-0.1,0.3,0,0.4c0.4,0.3,0.3,0.4,2.4,0.7c2,0.3,3.4-0.2,3.7-0.6
						C100.5,159.9,95,159,93.9,160z"/>
					<path class="st0" d="M78,127.5l0.2-3.1l0.2-2.5c0,0,0.1-6.7-0.4-8.1c-0.1-0.3-0.5-1-0.8-1c-0.6-0.1-0.6,2.1-0.7,4.1
						C76.4,120.4,78,127.5,78,127.5z"/>
				</g>
				<path class="st0" d="M126.3,161.3c0,0-1.1-0.2-0.4-0.8c0.7-0.6,2.6-0.9,3-0.9c0.4,0,1.5,0.1,2.3,0.2c0.8,0.1,2,0.7,1.6,1.1
					c-0.3,0.4-1.4,0.9-3,0.9c-1.3,0-2,0-2.5-0.2C126.8,161.4,126.3,161.3,126.3,161.3z"/>
			</g>
		</g>
	</g>
</g>
</svg>
