<?xml version="1.0" encoding="utf-8"?>
<!-- Generator: Adobe Illustrator 24.2.1, SVG Export Plug-In . SVG Version: 6.00 Build 0)  -->
<svg version="1.1" id="Layer_1" xmlns="http://www.w3.org/2000/svg" xmlns:xlink="http://www.w3.org/1999/xlink" x="0px" y="0px"
	 viewBox="0 0 448.3 189" style="enable-background:new 0 0 448.3 189;" xml:space="preserve">
<style type="text/css">
	.st0{fill:#FF6D00;}
	.st1{fill:#00E5FF;}
	.st2{fill:#FFBB00;}
	.st3{fill:#292828;}
	.st4{fill:#F8F8F8;}
	.st5{opacity:0.5;}
	.st6{fill:#FFFFFF;}
	.st7{fill:#606060;}
</style>
<g>
	<g>
		<g>
			<g>
				<polygon class="st0" points="448.3,154.2 440.3,0 227.8,12.3 303.3,150.1 				"/>
			</g>
			<g>
				<polygon class="st1" points="225.6,12.4 10.8,0 2.8,154.2 151.4,149.8 226.7,12.3 				"/>
			</g>
			<g>
				<polygon class="st2" points="303.3,150.1 227.8,12.3 226.7,12.3 151.4,149.8 222,147.8 				"/>
			</g>
		</g>
		<g>
			<polygon class="st3" points="436,147.3 222.8,141.6 16.5,147.3 16.5,11.4 226.3,20.2 436,11.4 			"/>
		</g>
		<g>
			<g>
				<g>
					<path class="st4" d="M191.6,126.5c0-3,2.1-5.3,5.1-5.3c2.9,0,4.8,2,4.8,5v0.2c0,0.4-0.1,0.6-0.6,0.6h-7.3
						c0.1,1.8,1.5,3.1,3.4,3.1c1.7,0,2.6-0.8,3.1-1.6c0,0,1.1,0.1,1.1,1s-1.5,2.2-4.2,2.2C193.7,131.7,191.6,129.6,191.6,126.5z
						 M193.5,125.6h5.9c-0.1-1.7-1.2-2.8-2.8-2.8C195,122.8,193.8,124,193.5,125.6z"/>
				</g>
				<g>
					<path class="st4" d="M202.1,129.6c0-0.6,0.7-1,0.8-0.9c0.7,0.8,1.8,1.5,3.3,1.5c1.4,0,2.2-0.5,2.2-1.3c0-1-0.9-1.2-2.6-1.5
						c-1.5-0.3-3.5-0.8-3.5-2.9c0-1.9,1.5-3.1,4-3.1c2.5,0,3.8,1.1,3.8,2c0,0.6-0.8,1-0.8,0.9c-0.6-0.8-1.6-1.4-2.9-1.4
						c-1.4,0-2.1,0.5-2.1,1.4c0,0.9,0.9,1.1,2.5,1.5c1.5,0.3,3.6,0.8,3.6,2.9c0,1.9-1.6,3.1-4.1,3.1
						C203.5,131.7,202.1,130.5,202.1,129.6z"/>
				</g>
				<g>
					<path class="st4" d="M211.2,126.5c0-3,2.2-5.2,5.1-5.2c2.9,0,4.2,1.8,4.2,2.7c0,0.8-1.2,1-1.2,0.9c-0.5-1.1-1.3-1.9-3-1.9
						c-1.9,0-3.3,1.5-3.3,3.5c0,2,1.4,3.5,3.3,3.5c1.7,0,2.5-0.8,3-1.9c0.1-0.1,1.2,0,1.2,0.9c0,0.9-1.3,2.7-4.2,2.7
						C213.4,131.7,211.2,129.5,211.2,126.5z"/>
				</g>
				<g>
					<path class="st4" d="M221.4,126.5c0-3,2.1-5.2,5.2-5.2c3,0,5.2,2.2,5.2,5.2c0,3-2.1,5.2-5.2,5.2
						C223.5,131.7,221.4,129.5,221.4,126.5z M229.8,126.5c0-2.1-1.4-3.6-3.3-3.6c-1.9,0-3.3,1.5-3.3,3.5c0,2,1.4,3.6,3.3,3.6
						S229.8,128.5,229.8,126.5z"/>
				</g>
				<g>
					<path class="st4" d="M232.5,126.5c0-3,2.1-5.2,5.2-5.2c3,0,5.2,2.2,5.2,5.2c0,3-2.1,5.2-5.2,5.2
						C234.7,131.7,232.5,129.5,232.5,126.5z M241,126.5c0-2.1-1.4-3.6-3.3-3.6c-1.9,0-3.3,1.5-3.3,3.5c0,2,1.4,3.6,3.3,3.6
						C239.6,130,241,128.5,241,126.5z"/>
				</g>
				<g>
					<path class="st4" d="M244.4,130.5v-13c0-0.1,0.3-0.2,0.7-0.2c0.6,0,1.3,0.3,1.3,1.8v11.5c0,0.7-0.4,1-0.9,1h-0.2
						C244.8,131.5,244.4,131.3,244.4,130.5z"/>
				</g>
				<g>
					<path class="st4" d="M248,128.8c0-2.3,2.2-3.3,6.7-3.4h0.3v-0.2c0-1.5-0.9-2.3-2.5-2.3c-1.5,0-2.4,0.8-2.8,1.7c0,0-1.3,0-1.3-1
						c0-0.9,1.4-2.4,4.2-2.4c2.8,0,4.3,1.4,4.3,4v6.1c0,0.1-0.4,0.2-0.7,0.2c-0.7,0-1.2-0.4-1.3-1.6c-0.8,1.1-2.1,1.7-3.6,1.7
						C249.2,131.7,248,130.5,248,128.8z M254.9,127.5v-0.8l-0.6,0c-2.9,0.1-4.4,0.6-4.4,2c0,0.9,0.7,1.4,1.9,1.4
						C253.6,130.2,254.9,129.1,254.9,127.5z"/>
				</g>
				<g>
					<path class="st4" d="M260.8,123.2c0.4-1.2,1.3-1.9,2.5-1.9c1,0,1.6,0.5,1.6,1.3c0,0.8-0.6,1.1-0.6,1c-0.3-0.2-0.7-0.4-1.3-0.4
						c-1.6,0-2.2,1.6-2.2,3.9v3.5c0,0.7-0.4,1-0.9,1h-0.2c-0.5,0-0.9-0.2-0.9-1v-8.9c0-0.1,0.3-0.2,0.7-0.2
						C260.1,121.4,260.8,121.8,260.8,123.2z"/>
				</g>
			</g>
			<g class="st5">
				<g>
					<path class="st6" d="M263.6,131.1V131c0-0.3,0.2-0.5,0.5-0.5h0.1c0.4,0,0.5,0.2,0.5,0.5v0.1c0,0.3-0.2,0.5-0.5,0.5h-0.1
						C263.8,131.6,263.6,131.5,263.6,131.1z"/>
				</g>
				<g>
					<path class="st6" d="M265.2,129.2c0-1.4,1-2.5,2.5-2.5c1.4,0,2,0.9,2,1.3c0,0.4-0.6,0.5-0.6,0.4c-0.2-0.5-0.6-0.9-1.4-0.9
						c-0.9,0-1.6,0.7-1.6,1.7c0,1,0.7,1.7,1.6,1.7c0.8,0,1.2-0.4,1.4-0.9c0,0,0.6,0,0.6,0.4c0,0.4-0.6,1.3-2,1.3
						C266.2,131.7,265.2,130.7,265.2,129.2z"/>
				</g>
				<g>
					<path class="st6" d="M270,129.2c0-1.4,1-2.5,2.5-2.5c1.4,0,2.5,1,2.5,2.5c0,1.4-1,2.5-2.5,2.5C271,131.7,270,130.7,270,129.2z
						 M274.1,129.2c0-1-0.7-1.7-1.6-1.7c-0.9,0-1.6,0.7-1.6,1.7c0,1,0.7,1.7,1.6,1.7C273.4,130.9,274.1,130.2,274.1,129.2z"/>
				</g>
				<g>
					<path class="st6" d="M276.6,127.5c0.3-0.5,0.8-0.8,1.5-0.8c0.8,0,1.3,0.4,1.5,1c0.3-0.6,0.9-1,1.6-1c1.2,0,1.8,0.7,1.8,1.9v2.5
						c0,0.4-0.2,0.5-0.4,0.5h-0.1c-0.3,0-0.4-0.1-0.4-0.5v-2.4c0-0.8-0.3-1.2-1-1.2c-0.5,0-1,0.3-1.2,0.8v2.8c0,0.4-0.2,0.5-0.4,0.5
						h-0.1c-0.3,0-0.4-0.1-0.4-0.5v-2.3c0-0.8-0.3-1.2-1-1.2c-0.5,0-1,0.3-1.2,0.8v2.8c0,0.4-0.2,0.5-0.4,0.5h-0.1
						c-0.3,0-0.4-0.1-0.4-0.5v-4.2c0,0,0.2-0.1,0.4-0.1C276.3,126.8,276.6,126.9,276.6,127.5z"/>
				</g>
			</g>
		</g>
		<g>
			<g>
				<path class="st6" d="M28.9,92.9c8.4-1.4,12.6-2,20.9-3.3c-0.3,2.8-0.4,5.3-0.4,7.5c0,10.1,2.6,14.8,7.9,14.2c0.1,0,0.2,0,0.3,0
					c6.4-0.9,9.6-4.4,9.6-10.5c0-0.2,0-0.4,0-0.6c-0.2-6.5-6.3-12.4-18.2-18C37.5,76.9,31.7,66.7,31.7,52c0-0.5,0-0.9,0.1-1.4
					c0.3-15.4,9.2-23.2,26.7-23.3c0.2,0,0.3,0,0.6,0c15.7,0.1,23.5,9.2,23.5,27.3c0,1.4-0.1,3-0.2,4.6c-7.3,0.6-11,1-18.3,1.7
					c0.2-2,0.3-3.8,0.3-5.4c0-7.8-2-11.7-6.1-11.6c-4.9,0.1-7.6,2.5-8.1,7.3c0,0.7-0.1,1.3-0.1,2c0,4,1.2,7.6,3.7,10.9
					c2.9,3.8,7.8,7.1,14.7,9.9c6.9,2.8,11.8,6.8,14.5,12.1c1.9,3.8,2.9,7.9,2.9,12.4c0,1.7-0.1,3.4-0.4,5.2
					c-1.1,6.5-4.1,12.1-9,16.9c-4.9,4.8-11.5,8-19.8,9.6c-0.6,0.1-1.1,0.2-1.7,0.3c-7.5,1.1-13.8-0.6-18.9-5.2
					c-4.9-4.4-7.3-13.5-7.3-27.2C28.8,96.5,28.8,94.7,28.9,92.9z"/>
				<path class="st6" d="M135,42c0,19-0.1,28.5-0.1,47.5c0,14.6-7.8,22.4-23.2,23.7c-0.5,0-0.7,0.1-1.2,0.1
					c-13-0.2-19.7-5.9-20.1-17.4c0.1-23-0.2-41.2-0.7-54.4c5.9-0.1,8.9-0.1,14.8-0.1c-0.4,7.5-0.6,16.3-0.6,26.3
					c0,7.1,0.1,14.8,0.2,23.2c0.1,6.1,2.5,9,7.4,8.7c0,0,0,0,0.1,0c4.8-0.3,7.3-4.4,7.3-12.1c-0.1-18-0.1-27-0.2-45
					C125.3,42.3,128.5,42.2,135,42z"/>
				<path class="st6" d="M159.5,41.1c5.1,19.5,7.6,29.2,12.7,48.5c3.8-18.1,5.7-27,9.4-44.9c9.9,0.1,14.9,0.1,24.9,0.2
					c-0.4,10-0.7,20.1-0.7,30.3c0,11.4,0.3,22.9,0.8,34.5c-6.4,0.4-9.5,0.7-15.9,1.2c0-12.3-0.1-27.4-0.5-45.1
					c-3.6,16.4-5.4,24.6-9,41c-6.8,0.6-10.2,0.9-17,1.6c-4.4-17.7-6.6-26.5-10.9-44.4c-0.1,18.2-0.2,27.3-0.3,45.5
					c-5.4,0.6-8.1,0.9-13.5,1.6c0.3-10.5,0.4-20.9,0.5-31.3c0-12.9-0.1-25.6-0.5-38.2C147.5,41.4,151.5,41.3,159.5,41.1z"/>
				<path class="st6" d="M238.3,31.4c17.7-2,28.1,10,31.2,36c3.1,26-4.8,39.8-23.8,41.8c-19.1,2.1-30.2-10-33.4-36.9
					C209.4,47.3,218.1,33.7,238.3,31.4z M230.5,73c0.1,0.9,0.2,1.8,0.3,2.7c1.6,13.5,6.1,19.9,13.6,19c7.9-0.9,10.9-8.9,9.1-24.3
					c-1.8-15.3-6.4-22.6-13.7-21.8C232.3,49.5,229.2,57.6,230.5,73z"/>
				<path class="st6" d="M276.3,110c0.1-8.8,0.2-17.5,0.2-26.1c0-14.8-0.3-29.1-0.7-43c6.2-0.5,11.7-0.7,16.4-0.7
					c8.6,0.1,14.5,1.1,17.8,3.1c5.1,3.1,8,7.3,8.6,12.5c0.1,1.3,0.2,2.6,0.2,3.8c0,3.5-0.7,6.6-2,9.1c-1.8,3.5-5.1,5.9-9.9,7.2
					c5.3,0.9,9.1,2.7,11.4,5.5c1.9,2.3,2.9,5.6,2.9,9.8c0,0.8,0,1.7-0.1,2.5c-0.4,5.5-2.4,9.5-5.8,12c-3.5,2.5-8.3,4.1-14.5,4.8
					c-3.5,0.4-7.6,0.5-12.3,0.3C284.8,110.8,280.8,110.5,276.3,110z M290.4,52.1c0.2,8.2,0.3,12.3,0.4,20.5
					c6.8-0.1,11.1-2.1,12.9-5.8c1-2,1.5-3.9,1.5-5.8c0-1.6-0.4-3.2-1.1-4.8c-1.3-2.8-4.5-4.2-9.8-4.3
					C293.1,51.9,291.8,52,290.4,52.1z M291.5,82.4c0,6.4,0,9.6,0,16c0.8,0.1,1.6,0.1,2.4,0.1c6.8,0.3,11.1-1.2,12.9-4.4
					c1-1.8,1.5-3.4,1.5-4.9c0-1.4-0.5-2.7-1.4-3.9c-1.6-1.8-5.2-2.8-10.9-3C294.5,82.4,293,82.4,291.5,82.4z"/>
				<path class="st6" d="M349.5,43.1c14.8,0.3,22.2,12.4,22.2,36.3c0,24-7.8,35.1-23.7,33.7c-15.9-1.3-23.9-13.7-24-37.4
					C324.1,53.7,332.6,42.8,349.5,43.1z M339,79c0,0.8,0,1.6,0,2.4c0,12.1,3.1,18.4,9.4,18.8c6.6,0.5,9.8-6.2,9.8-20.2
					c0-14-3.1-21.1-9.2-21.3C342.8,58.5,339.5,65.3,339,79z"/>
				<path class="st6" d="M367.6,47.8c0-6.7,0-10.1,0-16.8c6.6,0.2,12.8,0.8,19.2,0.8c10.1,0.1,20.9-1.1,30.5-1.4
					c0,7.8,0,11.8,0,19.6c-6.8-0.2-10.1-0.3-16.9-0.6c0,31.5,0.4,56.4,1.1,75c-7.6-0.6-11.3-0.9-18.9-1.4c0.9-30.6,1.6-55.7,2-75.1
					C377.8,47.9,374.4,47.8,367.6,47.8z"/>
			</g>
		</g>
	</g>
	<g>
		<path class="st7" d="M41,187.6c0.1-2.5,0.1-5,0.1-7.7c0-4-0.1-8.2-0.2-12.4c1.6-0.2,3.1-0.3,4.3-0.3c2,0,3.4,0.3,4.4,0.9
			c1.5,0.9,2.3,2.7,2.3,5.4v0.5c-0.1,3-0.8,4.9-2,5.8c-1.3,0.8-2.8,1.3-4.7,1.3c0,0.3,0,0.6,0,0.9c0,1.6,0.1,3.4,0.2,5.6L41,187.6z
			 M44.7,170.8l0.1,7c1.8-0.1,2.8-0.7,3.1-1.9c0.1-0.5,0.2-1.1,0.2-1.6c0-0.7-0.1-1.3-0.3-2c-0.3-1-1-1.5-2.1-1.5
			C45.4,170.7,45,170.7,44.7,170.8z"/>
		<path class="st7" d="M53.5,187.8c0.1-2.7,0.1-5.4,0.1-8.2c0-4.2-0.1-8.5-0.2-12.8c1.5-0.2,2.8-0.2,4-0.2c3.2,0,5.3,0.6,6.2,1.8
			c0.8,1.1,1.3,2.3,1.3,3.7c0,0.6-0.1,1.2-0.2,1.9c-0.6,2.1-1.7,3.4-3.5,4c1.2,0.2,2.2,0.8,2.8,2c0.6,1.1,0.9,3.9,0.9,8.5v0.6
			l-4.3,0.1c0-1.2,0.1-2.3,0.1-3.2c0-2.9-0.2-4.6-0.7-5.3c-0.5-0.7-1.2-1.1-1.9-1.1c-0.1,0-0.3,0-0.4,0c0.1,2.9,0.2,5.6,0.4,8.2
			L53.5,187.8z M57.2,170.1l0.1,6.1c1.8-0.1,2.9-0.7,3.4-1.8c0.3-0.6,0.4-1.2,0.4-1.7c0-0.5-0.1-1-0.3-1.4c-0.3-0.8-1.2-1.2-2.5-1.2
			C57.9,170.1,57.5,170.1,57.2,170.1z"/>
		<path class="st7" d="M72.7,167c4,0,6,3.4,6,10.2c0,6.8-2.1,10.3-6.4,10.3c-4.3,0-6.4-3.5-6.4-10.6C65.8,170.3,68.1,167,72.7,167z
			 M69.8,177.6c0,0.2,0,0.5,0,0.7c0,3.6,0.8,5.4,2.5,5.4c1.8,0,2.7-2,2.7-6.1c0-4.1-0.8-6.1-2.5-6.1C70.9,171.6,70,173.6,69.8,177.6
			z"/>
		<path class="st7" d="M91.6,175.1l-3.2,0c0-2.4-0.7-3.7-1.8-3.8h-0.3c-1,0-1.9,0.7-2.5,2.1c-0.6,1.4-1,3.3-1,5.8v0.6
			c0.1,2.8,1,4.2,3,4.2c1.3,0,2-1.1,2-3.2c0-0.2,0-0.4,0-0.7l-2.8,0L85,177l7.3,0.1v3.5l-1.5,0c0,5-2,7.4-5.9,7.4
			c-3.7,0-5.5-2.9-5.5-8.7c0-0.5,0-1,0-1.5c0.3-6.8,2.5-10.4,6.5-10.7c0.2,0,0.4,0,0.6,0c3.4,0,5,2.3,5,6.8
			C91.6,174.2,91.6,174.6,91.6,175.1z"/>
		<path class="st7" d="M93.8,187.8c0.1-2.7,0.1-5.4,0.1-8.2c0-4.2-0.1-8.5-0.2-12.8c1.5-0.2,2.8-0.2,4-0.2c3.2,0,5.3,0.6,6.2,1.8
			c0.8,1.1,1.3,2.3,1.3,3.7c0,0.6-0.1,1.2-0.2,1.9c-0.6,2.1-1.7,3.4-3.5,4c1.2,0.2,2.2,0.8,2.8,2c0.6,1.1,0.9,3.9,0.9,8.5v0.6
			l-4.3,0.1c0-1.2,0.1-2.3,0.1-3.2c0-2.9-0.2-4.6-0.7-5.3c-0.5-0.7-1.2-1.1-1.9-1.1c-0.1,0-0.3,0-0.4,0c0.1,2.9,0.2,5.6,0.4,8.2
			L93.8,187.8z M97.4,170.1l0.1,6.1c1.8-0.1,2.9-0.7,3.4-1.8c0.3-0.6,0.4-1.2,0.4-1.7c0-0.5-0.1-1-0.3-1.4c-0.3-0.8-1.2-1.2-2.5-1.2
			C98.1,170.1,97.8,170.1,97.4,170.1z"/>
		<path class="st7" d="M105.5,187.4c1.8-8.1,3.2-15,4.3-20.6l5.3-0.1c1.3,5.9,2.8,12.5,4.5,20l-3.6,0.7l-1.2-5.4h-4.4l-1.2,5.8
			L105.5,187.4z M114.7,178.1c-0.5-2-1.3-4.5-2.4-7.4c-0.9,2.4-1.6,4.9-2.2,7.5L114.7,178.1z"/>
		<path class="st7" d="M125,166.9l3.3,14.7l2.4-13.7l6.5,0.1c-0.1,3.1-0.2,6.2-0.2,9.3c0,3.5,0.1,7,0.2,10.6l-4.1,0.3
			c0-3.8,0-8.4-0.1-13.9l-2.3,12.5l-4.4,0.3l-2.8-13.5l-0.1,13.7l-3.5,0.2c0.1-3.1,0.1-6.2,0.1-9.3c0-3.8-0.1-7.6-0.2-11.4
			L125,166.9z"/>
		<path class="st7" d="M137.7,187.4c1.8-8.1,3.2-15,4.3-20.6l5.3-0.1c1.3,5.9,2.8,12.5,4.5,20l-3.6,0.7l-1.2-5.4h-4.4l-1.2,5.8
			L137.7,187.4z M147,178.1c-0.5-2-1.3-4.5-2.4-7.4c-0.9,2.4-1.6,4.9-2.2,7.5L147,178.1z"/>
		<path class="st7" d="M160.9,175.6c1,0,1.7,0.3,2,0.8c0.4,0.5,0.6,1.2,0.6,2.1c0,0.2,0,0.4,0,0.6c0,0.7-0.1,1.2-0.3,1.7
			c-0.2,0.6-0.8,1-1.5,1.3c-0.4,0.1-0.7,0.2-1,0.2c-0.4,0-0.8-0.1-1.3-0.2c-0.8-0.3-1.3-0.8-1.5-1.5c-0.2-0.5-0.2-1-0.2-1.5
			c0-0.2,0-0.5,0.1-0.7c0.1-0.7,0.4-1.4,0.9-1.9c0.4-0.5,1.1-0.8,1.9-0.8C160.7,175.6,160.8,175.6,160.9,175.6z"/>
		<path class="st7" d="M181.2,174.8l-3.2,0v-0.4c0-2.2-0.6-3.3-1.9-3.3c-1.3,0-2,2.1-2,6.2c0,4.6,0.7,7,2.1,7h0
			c1.4,0,2.1-1.1,2.1-3.4v-1.4h3.5v1.1c0,4.7-1.9,7.2-5.8,7.4c-0.1,0-0.2,0-0.3,0c-3.7,0-5.5-3.5-5.5-10.5c0-6.9,1.9-10.3,5.6-10.3
			c3.5,0,5.3,2.3,5.3,6.9C181.2,174.2,181.2,174.5,181.2,174.8z"/>
		<path class="st7" d="M189.4,167c4,0,6,3.4,6,10.2c0,6.8-2.1,10.3-6.4,10.3s-6.4-3.5-6.4-10.6C182.6,170.3,184.8,167,189.4,167z
			 M186.6,177.6c0,0.2,0,0.5,0,0.7c0,3.6,0.8,5.4,2.5,5.4c1.8,0,2.7-2,2.7-6.1c0-4.1-0.8-6.1-2.5-6.1
			C187.6,171.6,186.7,173.6,186.6,177.6z"/>
		<path class="st7" d="M196.5,187.6c0.1-3.2,0.2-6.4,0.2-9.5c0-3.5-0.1-7-0.2-10.3l4.2-0.2l3.8,10.7c0-3.7-0.1-7.4-0.3-11.3l4.4-0.1
			c-0.4,5.8-0.7,11.7-0.7,17.6c0,0.8,0,1.6,0,2.4l-3.9,0l-4.1-11.5c0.1,4.2,0.2,8.2,0.3,11.8L196.5,187.6z"/>
		<path class="st7" d="M210,180l4.2-0.3c-0.1,0.6-0.1,1.1-0.1,1.6c0,2.2,0.5,3.2,1.6,3.2h0.1c1.3,0,2-0.7,2-2.1v-0.1
			c0-1.4-1.3-2.8-3.7-4.2c-2.3-1.3-3.5-3.5-3.5-6.6c0-0.1,0-0.2,0-0.3c0.1-3.2,1.9-4.8,5.4-4.9h0.1c3.2,0,4.8,2,4.8,6.1
			c0,0.3,0,0.7,0,1l-3.7,0.2c0-0.4,0.1-0.8,0.1-1.2c0-1.7-0.4-2.5-1.2-2.5c-1,0-1.5,0.5-1.6,1.5c0,0.1,0,0.3,0,0.4
			c0,0.8,0.3,1.6,0.8,2.4c0.6,0.8,1.6,1.6,3,2.3c1.4,0.7,2.4,1.7,3,2.9c0.4,0.9,0.6,1.8,0.6,2.8c0,0.4,0,0.8-0.1,1.2
			c-0.2,1.4-0.8,2.6-1.8,3.6c-1,0.9-2.3,1.5-4,1.5c-0.1,0-0.2,0-0.3,0c-1.5,0-2.8-0.6-3.8-1.7c-1-1.1-1.5-3-1.5-5.9
			C209.9,180.8,209.9,180.4,210,180z"/>
		<path class="st7" d="M222.9,171.2v-3.7c1.4,0,2.8,0.1,4.1,0.1c2.1,0,4.2,0,6.2-0.1l0.1,4h-3.6c0,6.7,0.1,12.1,0.2,16.1l-4,0.2
			c0.2-6.7,0.4-12.2,0.5-16.5L222.9,171.2z"/>
		<path class="st7" d="M234.8,187.8c0.1-2.7,0.1-5.4,0.1-8.2c0-4.2-0.1-8.5-0.2-12.8c1.5-0.2,2.8-0.2,4-0.2c3.2,0,5.3,0.6,6.2,1.8
			c0.8,1.1,1.3,2.3,1.3,3.7c0,0.6-0.1,1.2-0.2,1.9c-0.6,2.1-1.7,3.4-3.5,4c1.2,0.2,2.2,0.8,2.8,2c0.6,1.1,0.9,3.9,0.9,8.5v0.6
			l-4.3,0.1c0-1.2,0.1-2.3,0.1-3.2c0-2.9-0.2-4.6-0.7-5.3c-0.5-0.7-1.2-1.1-1.9-1.1c-0.1,0-0.3,0-0.4,0c0.1,2.9,0.2,5.6,0.4,8.2
			L234.8,187.8z M238.5,170.1l0.1,6.1c1.8-0.1,2.9-0.7,3.4-1.8c0.3-0.6,0.4-1.2,0.4-1.7c0-0.5-0.1-1-0.3-1.4
			c-0.3-0.8-1.2-1.2-2.5-1.2C239.2,170.1,238.9,170.1,238.5,170.1z"/>
		<path class="st7" d="M259.1,167.1v14.1c0,4.3-2,6.5-6,6.5h-0.3c-3.3-0.4-5-2.2-5.2-5.5c0-6.5-0.1-11.6-0.2-15.4h3.8
			c-0.1,2.1-0.1,4.7-0.1,7.6c0,2,0,4.3,0.1,6.7c0,1.8,0.7,2.6,1.9,2.6c0,0,0,0,0,0c1.2,0,1.9-1.1,1.9-3.4l-0.1-13.1L259.1,167.1z"/>
		<path class="st7" d="M264.1,187.6l0.2-8.8c-2.2-4.6-3.8-8.3-5-11.2l4-0.4l2.7,7.9c1.2-3.8,2.2-6.7,2.9-8.5h3.9
			c-2.3,5.7-4,9.9-5,12.4v8.4L264.1,187.6z"/>
		<path class="st7" d="M281.4,167.5v4l-5.6-0.2v4.7l5.1-0.1l0.1,3.9h-4.5v3.6h5.9v4l-9.8-0.1c0.1-2.7,0.2-5.4,0.2-8.1
			c0-3.7-0.1-7.5-0.3-11.3C274.5,167.7,277.5,167.6,281.4,167.5z"/>
		<path class="st7" d="M292.3,175.6c1,0,1.7,0.3,2,0.8c0.4,0.5,0.6,1.2,0.6,2.1c0,0.2,0,0.4,0,0.6c0,0.7-0.1,1.2-0.3,1.7
			c-0.2,0.6-0.8,1-1.5,1.3c-0.4,0.1-0.7,0.2-1,0.2c-0.4,0-0.8-0.1-1.3-0.2c-0.8-0.3-1.3-0.8-1.5-1.5c-0.2-0.5-0.2-1-0.2-1.5
			c0-0.2,0-0.5,0.1-0.7c0.1-0.7,0.4-1.4,0.9-1.9c0.4-0.5,1.1-0.8,1.9-0.8C292.1,175.6,292.2,175.6,292.3,175.6z"/>
		<path class="st7" d="M312.6,174.8l-3.2,0v-0.4c0-2.2-0.6-3.3-1.9-3.3c-1.3,0-2,2.1-2,6.2c0,4.6,0.7,7,2.1,7h0
			c1.4,0,2.1-1.1,2.1-3.4v-1.4h3.5v1.1c0,4.7-1.9,7.2-5.8,7.4c-0.1,0-0.2,0-0.3,0c-3.7,0-5.5-3.5-5.5-10.5c0-6.9,1.9-10.3,5.6-10.3
			c3.5,0,5.3,2.3,5.3,6.9C312.6,174.2,312.6,174.5,312.6,174.8z"/>
		<path class="st7" d="M320.8,167c4,0,6,3.4,6,10.2c0,6.8-2.1,10.3-6.4,10.3c-4.3,0-6.4-3.5-6.4-10.6
			C313.9,170.3,316.2,167,320.8,167z M317.9,177.6c0,0.2,0,0.5,0,0.7c0,3.6,0.8,5.4,2.5,5.4c1.8,0,2.7-2,2.7-6.1
			c0-4.1-0.8-6.1-2.5-6.1C318.9,171.6,318.1,173.6,317.9,177.6z"/>
		<path class="st7" d="M332.7,166.9l3.3,14.7l2.4-13.7l6.5,0.1c-0.1,3.1-0.2,6.2-0.2,9.3c0,3.5,0.1,7,0.2,10.6l-4.1,0.3
			c0-3.8,0-8.4-0.1-13.9l-2.3,12.5l-4.4,0.3l-2.8-13.5l-0.1,13.7l-3.5,0.2c0.1-3.1,0.1-6.2,0.1-9.3c0-3.8-0.1-7.6-0.2-11.4
			L332.7,166.9z"/>
		<path class="st7" d="M346.5,187.6c0.1-2.5,0.1-5,0.1-7.7c0-4-0.1-8.2-0.2-12.4c1.6-0.2,3.1-0.3,4.3-0.3c2,0,3.4,0.3,4.4,0.9
			c1.5,0.9,2.3,2.7,2.3,5.4v0.5c-0.1,3-0.8,4.9-2,5.8c-1.3,0.8-2.8,1.3-4.7,1.3c0,0.3,0,0.6,0,0.9c0,1.6,0.1,3.4,0.2,5.6
			L346.5,187.6z M350.2,170.8l0.1,7c1.8-0.1,2.8-0.7,3.1-1.9c0.1-0.5,0.2-1.1,0.2-1.6c0-0.7-0.1-1.3-0.3-2c-0.3-1-1-1.5-2.1-1.5
			C350.8,170.7,350.5,170.7,350.2,170.8z"/>
		<path class="st7" d="M362.8,186.9l-3.5,0.3c0-7-0.1-13.5-0.3-19.6l4.1-0.3C362.9,173.7,362.8,180.3,362.8,186.9z"/>
		<path class="st7" d="M364.3,171.2v-3.7c1.4,0,2.8,0.1,4.1,0.1c2.1,0,4.2,0,6.2-0.1l0.1,4h-3.6c0,6.7,0.1,12.1,0.2,16.1l-4,0.2
			c0.2-6.7,0.4-12.2,0.5-16.5L364.3,171.2z"/>
		<path class="st7" d="M385.3,167.5v4l-5.6-0.2v4.7l5.1-0.1l0.1,3.9h-4.5v3.6h5.9v4l-9.8-0.1c0.1-2.7,0.2-5.4,0.2-8.1
			c0-3.7-0.1-7.5-0.3-11.3C378.4,167.7,381.4,167.6,385.3,167.5z"/>
		<path class="st7" d="M389.7,188.1c-0.6,0-1.1-0.2-1.5-0.6c-0.4-0.4-0.6-0.9-0.6-1.5c0-0.6,0.2-1.1,0.6-1.5
			c0.4-0.4,0.9-0.6,1.5-0.6c0.6,0,1.1,0.2,1.5,0.6c0.4,0.4,0.6,0.9,0.6,1.5c0,0.6-0.2,1.1-0.6,1.5
			C390.8,187.9,390.3,188.1,389.7,188.1z M393.6,165.7c-0.1,4.8-1.6,12.5-2,17.2l-3.2-0.5c-0.1-4,0.6-10.4,0.4-16L393.6,165.7z"/>
	</g>
</g>
</svg>
