<svg id="Layer_1" data-name="Layer 1" xmlns="http://www.w3.org/2000/svg" xmlns:xlink="http://www.w3.org/1999/xlink" viewBox="0 0 68.03 10.68"><defs><style>.cls-1{fill:url(#linear-gradient);}.cls-2{fill:#546e7a;}</style><linearGradient id="linear-gradient" x1="0.08" y1="5.34" x2="10.19" y2="5.34" gradientUnits="userSpaceOnUse"><stop offset="0.01" stop-color="#b329f4"/><stop offset="0.08" stop-color="#ab28f4"/><stop offset="0.21" stop-color="#9525f5"/><stop offset="0.36" stop-color="#7220f5"/><stop offset="0.53" stop-color="#4119f6"/><stop offset="0.6" stop-color="#2a16f7"/><stop offset="0.64" stop-color="#2d1ef7"/><stop offset="0.71" stop-color="#3434f8"/><stop offset="0.79" stop-color="#3f57fa"/><stop offset="0.88" stop-color="#5089fc"/><stop offset="0.98" stop-color="#64c8ff"/><stop offset="1" stop-color="#68d3ff"/></linearGradient></defs><path class="cls-1" d="M1.38.47a4.53,4.53,0,0,1,4.09,1.7c2,2.18,3.07,1.52,3.07,1.52s-1.57,1-3.77-1S3.51.89,1.38.47Zm8.81,7.77A2.5,2.5,0,0,0,9.11,6.18c-.64-.69.11-1.55,0-2.1s-1-.16-.84-.08c.44.18-.2.85-.2,1.83s1,.93,1.27,2.28a3.2,3.2,0,0,1-.42,2.14A2.6,2.6,0,0,0,10.19,8.24ZM5.07,4.51s0-.7-.57-.28A16.42,16.42,0,0,1,.08,8.12C4.17,6.75,5.07,4.51,5.07,4.51ZM7.12,6.74s.32-.62-.4-.49A16.28,16.28,0,0,1,1.08,7.93C5.36,8.4,7.12,6.74,7.12,6.74Z"/><path class="cls-2" d="M14.12,7.65l-.77-3H14c.26,1.23.45,2.05.49,2.38h0c.1-.49.43-1.65.61-2.38h.51c.16.6.5,1.88.59,2.36h0c.1-.61.43-1.85.56-2.36h.54l-.83,3h-.58c-.16-.67-.47-1.78-.56-2.24h0c-.1.5-.4,1.61-.57,2.24Z"/><path class="cls-2" d="M20.09,6.33H18.65v.86h1.59l-.07.46H18.1v-3h2.06v.46H18.65v.73h1.44Z"/><path class="cls-2" d="M21.55,6.79c.07.32.29.47.67.47s.54-.16.54-.4-.14-.39-.68-.51c-.77-.19-1-.46-1-.87s.37-.85,1.06-.85,1.07.42,1.11.84h-.57c0-.21-.16-.41-.56-.41s-.47.12-.47.36.14.32.64.44c.86.2,1,.53,1,.94s-.39.89-1.15.89-1.13-.38-1.2-.9Z"/><path class="cls-2" d="M24.89,5.14H24V4.68h2.4v.46h-.92V7.65h-.56Z"/><path class="cls-2" d="M29.24,6.42V7.65h-.55v-3H30c.64,0,1,.34,1,.81a.7.7,0,0,1-.46.7c.18.06.4.22.4.75v.14a2.42,2.42,0,0,0,0,.57h-.53A2.14,2.14,0,0,1,30.32,7v0c0-.36-.09-.52-.59-.52Zm0-.45h.58c.39,0,.54-.15.54-.43s-.17-.41-.52-.41h-.6Z"/><path class="cls-2" d="M32.52,4.68v3H32v-3Z"/><path class="cls-2" d="M34.41,7.65l-1.06-3H34l.47,1.41c.14.42.26.8.33,1.1h0c.07-.27.2-.67.35-1.09l.49-1.42h.57l-1.09,3Z"/><path class="cls-2" d="M39,6.33H37.52v.86h1.59L39,7.65H37v-3H39v.46H37.52v.73H39Z"/><path class="cls-2" d="M40.58,6.42V7.65H40v-3h1.26c.63,0,1,.34,1,.81a.71.71,0,0,1-.45.7c.18.06.39.22.39.75v.14a2,2,0,0,0,0,.57h-.54A2.22,2.22,0,0,1,41.66,7v0c0-.36-.1-.52-.6-.52Zm0-.45h.57c.39,0,.55-.15.55-.43s-.18-.41-.52-.41h-.6Z"/><path class="cls-2" d="M45.27,6.89,45,7.65h-.55l1-3h.7l1.07,3h-.59l-.27-.76Zm1-.46c-.23-.68-.37-1.09-.44-1.34h0c-.07.28-.23.76-.42,1.34Z"/><path class="cls-2" d="M50.52,6.76a1.17,1.17,0,0,1-1.25.93,1.35,1.35,0,0,1-1.38-1.51,1.4,1.4,0,0,1,1.4-1.55,1.12,1.12,0,0,1,1.22.94H50a.65.65,0,0,0-.69-.49c-.57,0-.8.51-.8,1.08s.21,1.09.82,1.09A.65.65,0,0,0,50,6.76Z"/><path class="cls-2" d="M52,6.89l-.27.76h-.55l1-3h.7l1.07,3h-.59l-.27-.76Zm1-.46c-.23-.68-.38-1.09-.44-1.34h0c-.07.28-.23.76-.42,1.34Z"/><path class="cls-2" d="M54.79,4.68h1.14a1.35,1.35,0,0,1,1.42,1.45,1.41,1.41,0,0,1-1.44,1.52H54.79Zm.56,2.52h.53c.61,0,.89-.46.89-1.07a.88.88,0,0,0-.89-1h-.53Z"/><path class="cls-2" d="M60.35,6.33H58.9v.86h1.59l-.06.46H58.36v-3h2v.46H58.9v.73h1.45Z"/><path class="cls-2" d="M63.93,6.48c0-.52,0-1.09,0-1.42h0c-.13.57-.49,1.66-.8,2.59h-.48c-.23-.79-.61-2-.74-2.59h0c0,.34,0,1,0,1.48V7.65h-.51v-3h.83c.27.82.58,1.87.67,2.29h0c.07-.35.45-1.48.74-2.29h.8v3h-.54Z"/><path class="cls-2" d="M66.3,7.65V6.59a.12.12,0,0,0,0-.09l-1-1.82h.63c.25.46.59,1.11.73,1.41.13-.29.5-1,.74-1.41h.59L66.88,6.49a.16.16,0,0,0,0,.09V7.65Z"/></svg>