<?xml version="1.0" encoding="utf-8"?>
<!-- Generator: Adobe Illustrator 24.3.0, SVG Export Plug-In . SVG Version: 6.00 Build 0)  -->
<svg version="1.1" id="Layer_1" xmlns="http://www.w3.org/2000/svg" xmlns:xlink="http://www.w3.org/1999/xlink" x="0px" y="0px"
	 viewBox="0 0 150 100" style="enable-background:new 0 0 150 100;" xml:space="preserve">
<style type="text/css">
	.st0{fill:none;stroke:#00E5FF;stroke-width:10;stroke-linecap:round;stroke-linejoin:round;stroke-miterlimit:10;}
	.st1{fill:none;stroke:#FF6D00;stroke-width:10;stroke-linecap:round;stroke-linejoin:round;stroke-miterlimit:10;}
	.st2{fill:none;stroke:#FFBB00;stroke-width:10;stroke-linecap:round;stroke-linejoin:round;stroke-miterlimit:10;}
	.st3{fill:#FF0000;}
	.st4{fill:#FFFFFF;}
</style>
<g>
	<g>
		<line class="st0" x1="81.3" y1="12.8" x2="19.8" y2="74.4"/>
		<line class="st0" x1="7" y1="87.1" x2="7" y2="87.1"/>
	</g>
	<g>
		<line class="st1" x1="68.7" y1="87.1" x2="130.2" y2="25.6"/>
		<line class="st1" x1="143" y1="12.8" x2="143" y2="12.8"/>
	</g>
	<line class="st2" x1="112.5" y1="12.8" x2="38.2" y2="87.2"/>
	<g>
		<g>
			<path class="st3" d="M115.1,23.9c-2.6-4.5-5.3-5.4-11-5.7c-5.6-0.4-19.8-0.5-32.1-0.5c-12.3,0-26.5,0.2-32.1,0.5
				c-5.6,0.3-8.4,1.2-11,5.7c-2.6,4.5-4,12.3-4,26.1c0,0,0,0,0,0c0,0,0,0,0,0v0c0,13.7,1.4,21.6,4,26.1c2.6,4.5,5.3,5.4,11,5.7
				c5.6,0.3,19.8,0.5,32.1,0.5c12.3,0,26.4-0.2,32.1-0.5c5.6-0.4,8.4-1.2,11-5.7c2.7-4.5,4-12.4,4-26.1c0,0,0,0,0,0c0,0,0,0,0,0
				C119.1,36.2,117.8,28.4,115.1,23.9z M60.3,67.6V32.4L89.7,50L60.3,67.6z"/>
		</g>
	</g>
	<polygon class="st4" points="60.3,67.6 60.3,32.4 89.7,50 	"/>
</g>
</svg>
