<?xml version="1.0" encoding="utf-8"?>
<!-- Generator: Adobe Illustrator 24.2.1, SVG Export Plug-In . SVG Version: 6.00 Build 0)  -->
<svg version="1.1" id="Layer_1" xmlns="http://www.w3.org/2000/svg" xmlns:xlink="http://www.w3.org/1999/xlink" x="0px" y="0px"
	 viewBox="0 0 1920 400" style="enable-background:new 0 0 1920 400;" xml:space="preserve">
<style type="text/css">
	.st0{fill:#2962FF;}
	.st1{opacity:0.29;}
	.st2{fill:url(#SVGID_1_);}
	.st3{fill:url(#SVGID_2_);}
	.st4{fill:url(#SVGID_3_);}
	.st5{fill:url(#SVGID_4_);}
	.st6{fill:url(#SVGID_5_);}
	.st7{fill:url(#SVGID_6_);}
	.st8{fill:url(#SVGID_7_);}
	.st9{fill:url(#SVGID_8_);}
	.st10{fill:url(#SVGID_9_);}
	.st11{fill:url(#SVGID_10_);}
	.st12{fill:url(#SVGID_11_);}
	.st13{fill:url(#SVGID_12_);}
</style>
<g>
	<g id="Layer_1_1_">
		<rect class="st0" width="1920" height="400"/>
		<g class="st1">
			
				<radialGradient id="SVGID_1_" cx="810.66" cy="307.71" r="31.44" gradientTransform="matrix(1 0 0 -1 0 402)" gradientUnits="userSpaceOnUse">
				<stop  offset="0" style="stop-color:#2962FF"/>
				<stop  offset="0.31" style="stop-color:#7499FF"/>
				<stop  offset="0.64" style="stop-color:#BED0FF"/>
				<stop  offset="0.88" style="stop-color:#EDF2FF"/>
				<stop  offset="1" style="stop-color:#FFFFFF"/>
			</radialGradient>
			<circle class="st2" cx="810.7" cy="94.3" r="31.4"/>
			
				<linearGradient id="SVGID_2_" gradientUnits="userSpaceOnUse" x1="834.3185" y1="284.8985" x2="785.3385" y2="333.8785" gradientTransform="matrix(1 0 0 -1 1.424212e-02 402.0006)">
				<stop  offset="0" style="stop-color:#7297FF"/>
				<stop  offset="0.33" style="stop-color:#98B3FF"/>
				<stop  offset="0.78" style="stop-color:#C6D6FF"/>
				<stop  offset="1" style="stop-color:#D8E3FF"/>
			</linearGradient>
			<circle class="st3" cx="803.8" cy="86.6" r="31.4"/>
			<g>
				
					<radialGradient id="SVGID_3_" cx="1280.9027" cy="49.9817" r="35.54" gradientTransform="matrix(1 0 0 -1 -4.100075e-03 402.0032)" gradientUnits="userSpaceOnUse">
					<stop  offset="0" style="stop-color:#2962FF"/>
					<stop  offset="0.31" style="stop-color:#7499FF"/>
					<stop  offset="0.64" style="stop-color:#BED0FF"/>
					<stop  offset="0.88" style="stop-color:#EDF2FF"/>
					<stop  offset="1" style="stop-color:#FFFFFF"/>
				</radialGradient>
				<circle class="st4" cx="1280.9" cy="352" r="35.5"/>
				
					<linearGradient id="SVGID_4_" gradientUnits="userSpaceOnUse" x1="1307.6455" y1="24.1864" x2="1252.2854" y2="79.5464" gradientTransform="matrix(1 0 0 -1 5.829159e-03 402.0003)">
					<stop  offset="0" style="stop-color:#3A6FFF"/>
					<stop  offset="0.45" style="stop-color:#7298FF"/>
					<stop  offset="0.81" style="stop-color:#98B4FF"/>
					<stop  offset="1" style="stop-color:#A7BFFF"/>
				</linearGradient>
				<circle class="st5" cx="1273.2" cy="343.3" r="35.5"/>
			</g>
			
				<linearGradient id="SVGID_5_" gradientUnits="userSpaceOnUse" x1="540.67" y1="37.16" x2="712.81" y2="209.3" gradientTransform="matrix(1 0 0 -1 0 402)">
				<stop  offset="0" style="stop-color:#FFFFFF;stop-opacity:0"/>
				<stop  offset="1" style="stop-color:#FFFFFF"/>
			</linearGradient>
			<path class="st6" d="M553.2,352.4L553.2,352.4c-8.7-8.7-8.7-22.8,0-31.5l80.7-80.7c8.7-8.7,22.8-8.7,31.5,0l0,0
				c8.7,8.7,8.7,22.8,0,31.5l-80.7,80.7C575.9,361,561.9,361,553.2,352.4z"/>
			
				<linearGradient id="SVGID_6_" gradientUnits="userSpaceOnUse" x1="1107.37" y1="210.51" x2="1313.96" y2="417.1" gradientTransform="matrix(1 0 0 -1 0 402)">
				<stop  offset="0" style="stop-color:#FFFFFF;stop-opacity:0"/>
				<stop  offset="1" style="stop-color:#FFFFFF"/>
			</linearGradient>
			<path class="st7" d="M1097.8,201.1L1097.8,201.1c-6.5-6.6-6.5-17.2,0-23.8l114.6-114.6c6.6-6.5,17.2-6.5,23.8,0l0,0
				c6.5,6.6,6.5,17.2,0,23.8l-114.6,114.6C1115,207.6,1104.4,207.6,1097.8,201.1z"/>
			
				<linearGradient id="SVGID_7_" gradientUnits="userSpaceOnUse" x1="171.1385" y1="55.8624" x2="330.0885" y2="214.8124" gradientTransform="matrix(1 0 0 -1 0 402)">
				<stop  offset="0" style="stop-color:#FFFFFF;stop-opacity:0"/>
				<stop  offset="1" style="stop-color:#FFFFFF"/>
			</linearGradient>
			<path class="st8" d="M159.5,357.8L159.5,357.8c-6.5-6.6-6.5-17.2,0-23.8l74.8-74.9c6.6-6.5,17.2-6.5,23.8,0l0,0
				c6.5,6.6,6.5,17.2,0,23.8l-74.9,74.9C176.6,364.4,166,364.4,159.5,357.8z"/>
			
				<linearGradient id="SVGID_8_" gradientUnits="userSpaceOnUse" x1="1595.9825" y1="247.6925" x2="1725.3625" y2="377.0725" gradientTransform="matrix(1 0 0 -1 0 402)">
				<stop  offset="0" style="stop-color:#FFFFFF;stop-opacity:0"/>
				<stop  offset="1" style="stop-color:#FFFFFF"/>
			</linearGradient>
			<path class="st9" d="M1600.6,149.7L1600.6,149.7c-6.5-6.6-6.5-17.2,0-23.8l43.7-43.7c6.6-6.5,17.2-6.5,23.8,0l0,0
				c6.5,6.6,6.5,17.2,0,23.8l-43.7,43.7C1617.8,156.3,1607.1,156.3,1600.6,149.7z"/>
			
				<linearGradient id="SVGID_9_" gradientUnits="userSpaceOnUse" x1="1708.2726" y1="75.5674" x2="1864.4625" y2="231.7574" gradientTransform="matrix(1 0 0 -1 0 402)">
				<stop  offset="0" style="stop-color:#FFFFFF;stop-opacity:0"/>
				<stop  offset="1" style="stop-color:#FFFFFF"/>
			</linearGradient>
			<path class="st10" d="M1714.8,319.9L1714.8,319.9c-8.9-8.9-8.9-23.4,0-32.4l76.3-76.3c9-8.9,23.4-8.9,32.4,0l0,0
				c8.9,9,8.9,23.4,0,32.4l-76.3,76.3C1738.2,328.8,1723.8,328.8,1714.8,319.9z"/>
			
				<radialGradient id="SVGID_10_" cx="145.1735" cy="296.5034" r="75.4612" gradientTransform="matrix(1 0 0 -1 5.005551e-03 402.0041)" gradientUnits="userSpaceOnUse">
				<stop  offset="0" style="stop-color:#2962FF"/>
				<stop  offset="0.31" style="stop-color:#7499FF"/>
				<stop  offset="0.64" style="stop-color:#BED0FF"/>
				<stop  offset="0.88" style="stop-color:#EDF2FF"/>
				<stop  offset="1" style="stop-color:#FFFFFF"/>
			</radialGradient>
			<circle class="st11" cx="145.2" cy="105.5" r="75.4"/>
			
				<linearGradient id="SVGID_11_" gradientUnits="userSpaceOnUse" x1="202.031" y1="241.8299" x2="84.501" y2="359.3599" gradientTransform="matrix(1 0 0 -1 0 402)">
				<stop  offset="0" style="stop-color:#3A6FFF"/>
				<stop  offset="0.45" style="stop-color:#7298FF"/>
				<stop  offset="0.81" style="stop-color:#98B4FF"/>
				<stop  offset="1" style="stop-color:#A7BFFF"/>
			</linearGradient>
			<circle class="st12" cx="128.8" cy="86.9" r="75.5"/>
			
				<linearGradient id="SVGID_12_" gradientUnits="userSpaceOnUse" x1="1716.8175" y1="58.2275" x2="1669.8575" y2="105.1775" gradientTransform="matrix(1 0 0 -1 0 402)">
				<stop  offset="0" style="stop-color:#7297FF"/>
				<stop  offset="0.33" style="stop-color:#98B3FF"/>
				<stop  offset="0.78" style="stop-color:#C6D6FF"/>
				<stop  offset="1" style="stop-color:#D8E3FF"/>
			</linearGradient>
			<path class="st13" d="M1693.5,293.3c-15,0-27.2,12.2-27.2,27.2s12.2,27.2,27.2,27.2c15,0,27.2-12.2,27.2-27.2
				C1720.7,305.5,1708.5,293.3,1693.5,293.3L1693.5,293.3z M1693.5,330.6c-5.6,0-10.1-4.5-10.1-10.1s4.5-10.1,10.1-10.1
				c5.6,0,10.1,4.5,10.1,10.1C1703.7,326.1,1699.1,330.6,1693.5,330.6z"/>
		</g>
	</g>
</g>
</svg>
