<?xml version="1.0" encoding="utf-8"?>
<!-- Generator: Adobe Illustrator 24.3.0, SVG Export Plug-In . SVG Version: 6.00 Build 0)  -->
<svg version="1.1" id="Layer_1" xmlns="http://www.w3.org/2000/svg" xmlns:xlink="http://www.w3.org/1999/xlink" x="0px" y="0px"
	 viewBox="0 0 512 512" style="enable-background:new 0 0 512 512;" xml:space="preserve">
<style type="text/css">
	.st0{fill:#90A4AE;}
</style>
<path class="st0" d="M500.7,238.3H360c-1.1-38.9-23.7-72.4-56.3-89.3c15.3-13.8,24.5-34.1,23.4-56.5C325.2,55.6,294.8,26,257.8,25
	c-40.1-1-73,31.3-73,71.2c0,20.9,9.1,39.8,23.5,52.8c-32.6,16.9-55.1,50.5-56.3,89.3H11.3c-6.3,0-11.3,5.1-11.3,11.3v167.4
	c0,6.3,5.1,11.3,11.3,11.3H30v60h452v-60h18.7c6.3,0,11.3-5.1,11.3-11.3V249.7C512,243.4,506.9,238.3,500.7,238.3z M215,100
	c-2.3-25.7,19.1-47.1,44.8-44.8c19.7,1.8,35.5,17.6,37.3,37.3c2.3,25.7-19.1,47.1-44.8,44.8C232.6,135.5,216.7,119.6,215,100z
	 M256,167.4c39.8,0,72.3,31.5,73.9,70.9H182.1C183.7,198.9,216.2,167.4,256,167.4z M452,458.5H60v-30h392V458.5z M482,398.4H30
	V268.3h452V398.4z"/>
</svg>
