<?xml version="1.0" encoding="utf-8"?>
<!-- Generator: Adobe Illustrator 24.3.0, SVG Export Plug-In . SVG Version: 6.00 Build 0)  -->
<svg version="1.1" id="Capa_1" xmlns="http://www.w3.org/2000/svg" xmlns:xlink="http://www.w3.org/1999/xlink" x="0px" y="0px"
	 viewBox="0 0 512 512" style="enable-background:new 0 0 512 512;" xml:space="preserve">
<style type="text/css">
	.st0{fill:#90A4AE;}
</style>
<g>
	<path class="st0" d="M256,192.5c-23.1-41.8-59.4-69.3-106.3-69.3c-70.4,0-121.3,58.5-121.3,130.4c0,86.6,86.3,151.8,162.5,215.7
		c12,10,24.3,20.4,37.1,31.3c17.9,15.2,44.8,15.1,62.5-0.2c132.5-114.7,193-166.4,193-246.8c0-71.8-50.9-130.4-121.3-130.4
		C315.4,123.2,279.1,150.7,256,192.5L256,192.5z M256,241c16.5,0,30,13.5,30,30s-13.5,30-30,30s-30-13.5-30-30S239.5,241,256,241z
		 M270.9,477.7c-6.6,5.7-16.7,5.8-23.4,0c-12.9-11-50.4-42.5-56.7-47.8c3.6-2,7-4.5,10-7.5c8.7-8.7,13.5-20.9,13.1-33.3
		c-0.2-6.1-1.7-12-4.2-17.4C224,364.7,239.8,361,256,361c16.9,0,33.3,4,48,11.6c-8,16.8-5.3,37.4,8.6,51.3c3.3,3.3,7,5.9,10.9,8
		C307.6,446,290.1,461.1,270.9,477.7z M362.3,153.2c52,0,91.3,43.1,91.3,100.4c0,49.2-29.7,87.4-98.2,150c-2,0.6-12.3,8.3-21.4-0.8
		c-6.1-6.1-5.7-16.1,0.7-21.9c60.3-54.8,88.9-87.9,88.9-127.8h-30c0,24.1-17.1,48.3-69.2,96.6c-20.7-12.2-44-18.5-68.3-18.5
		c-23.6,0-46.4,6.1-66.7,17.6c-44-39-70.8-69.1-70.8-95.6h-30c0,39.9,33.1,76.5,90.2,126.2c6.6,5.8,7.1,15.9,0.9,22.1
		c-9.4,9.4-21.7,0.6-21.6,0.6c-61.4-53.7-99.5-96.4-99.5-148.3c0-57.2,39.2-100.4,91.3-100.4c47.2,0,72.7,37.3,84.3,62
		c-22.3,8.8-38,30.5-38,55.8c0,33.1,26.9,60,60,60s60-26.9,60-60c0-25.3-15.8-47-38-55.8C289.6,190.5,315.1,153.2,362.3,153.2
		L362.3,153.2z"/>
	<path class="st0" d="M121,0c-16.1,0-31.2,6.5-42.6,18.2C67.2,29.8,61,45,61,61c0,33.1,26.9,60,60,60s60-26.9,60-60
		c0-16-6.2-31.2-17.4-42.8C152.2,6.5,137,0,121,0z M121,91c-16.5,0-30-13.5-30-30c0-16.8,13.7-31,30-31s30,14.2,30,31
		C151,77.6,137.5,91,121,91z"/>
	<path class="st0" d="M451,61c0-16-6.2-31.2-17.4-42.8C422.2,6.5,407.1,0,391,0s-31.2,6.5-42.6,18.2C337.2,29.8,331,45,331,61
		c0,33.1,26.9,60,60,60S451,94.1,451,61z M361,61c0-16.8,13.7-31,30-31c16.3,0,30,14.2,30,31c0,16.5-13.5,30-30,30S361,77.6,361,61z
		"/>
</g>
</svg>
