<?xml version="1.0" encoding="utf-8"?>
<!-- Generator: Adobe Illustrator 24.3.0, SVG Export Plug-In . SVG Version: 6.00 Build 0)  -->
<svg version="1.1" id="Layer_1" xmlns="http://www.w3.org/2000/svg" xmlns:xlink="http://www.w3.org/1999/xlink" x="0px" y="0px"
	 viewBox="0 0 512 512" style="enable-background:new 0 0 512 512;" xml:space="preserve">
<style type="text/css">
	.st0{fill:#E8EDFC;}
	.st1{fill:#CAD9FC;}
	.st2{fill:#FFFFFF;}
	.st3{fill:#A4C2F7;}
	.st4{fill:#7FACFA;}
	.st5{fill:#0A1840;}
</style>
<g id="Page-1">
	<g id="_x30_17---Science-Book">
		<path id="Shape" class="st0" d="M217.2,440l-3.8,46.4H29.3c-5.1,0-9.9-2.3-13.2-6.2c-3.3-3.9-4.6-9.1-3.6-14.1l37.4-191.8
			c0.8-4,4.3-6.9,8.4-6.9h23.7L53.5,438.2c-0.5,2.9,0.6,5.9,2.9,7.8c2.2,1.9,5.3,2.6,8.1,1.7C113.8,431.6,166.5,429,217.2,440
			L217.2,440z"/>
		<path id="Shape_1_" class="st0" d="M482.7,486.4H298.7l-3.8-46.4c50.7-11,103.4-8.3,152.7,7.8c2.8,0.9,5.9,0.2,8.1-1.7
			s3.3-4.9,2.9-7.8l-28.4-170.8h23.7c4.1,0,7.6,2.9,8.4,6.9l37.4,191.8c1,5-0.4,10.2-3.6,14.1S487.8,486.4,482.7,486.4L482.7,486.4z
			"/>
		<path id="Shape_2_" class="st1" d="M499.5,466.1l-37.4-191.8c-0.8-4-4.3-6.9-8.4-6.9h-23.7l0.1,0.3c3.2,0.8,5.7,3.3,6.4,6.6
			l37.4,191.8c1,5-0.4,10.2-3.6,14.1s-8.1,6.2-13.2,6.2h25.6c5.1,0,9.9-2.3,13.2-6.2C499.2,476.3,500.5,471.1,499.5,466.1z"/>
		<path id="Shape_3_" class="st2" d="M447.5,447.7c-49.3-16.1-102-18.8-152.7-7.8c-13.3,2.7-26.3,6.9-38.8,12.3
			c-12.5-5.4-25.5-9.5-38.8-12.3c-50.7-11-103.4-8.3-152.7,7.8c-2.8,0.9-5.9,0.2-8.1-1.7c-2.2-1.9-3.3-4.9-2.9-7.8l28.4-170.8
			l2.4-14.4c0.6-3.7,3.5-6.5,7.2-7.1c11.9-1.8,24.2-3.2,36.7-4.1l255.7,0.1c12.5,0.9,24.8,2.2,36.7,4c3.7,0.6,6.6,3.4,7.2,7.1
			l2.4,14.4l28.4,170.8c0.5,2.9-0.6,5.9-2.9,7.8C453.4,448,450.3,448.6,447.5,447.7L447.5,447.7z"/>
		<path id="Shape_4_" class="st0" d="M458.5,438.2l-28.4-170.8l-2.4-14.4c-0.6-3.7-3.5-6.5-7.2-7.1c-11.9-1.8-24.2-3.2-36.7-4h-25.6
			c12.5,0.9,24.8,2.2,36.7,4c3.7,0.6,6.6,3.4,7.2,7.1l2.4,14.4l28.4,170.8c0.3,1.8,0,3.5-0.9,5.1c5.1,1.3,10.2,2.8,15.4,4.4
			c2.8,0.9,5.9,0.2,8.2-1.7C457.9,444.1,459,441.1,458.5,438.2L458.5,438.2z"/>
		<path id="Shape_5_" class="st1" d="M298.7,486.4c0,9.4-19.1,17.1-42.7,17.1c-23.6,0-42.7-7.7-42.7-17.1l3.8-46.4
			c13.3,2.7,26.3,6.9,38.8,12.3c12.5-5.4,25.5-9.5,38.8-12.3L298.7,486.4z"/>
		<path id="Shape_6_" class="st1" d="M332.8,264.2c0,1.9-5.5,3.6-14.9,5c-20.5,2.6-41.2,3.7-61.9,3.5c-20.7,0.2-41.3-0.9-61.9-3.5
			c-9.4-1.5-14.9-3.2-14.9-5c-0.3-28.4,2-56.8,6.8-84.8c15.7-87.7,54.1-112.6,66.2-118.4c2.4-1.1,5.1-1.1,7.5,0
			c12.1,5.8,50.5,30.7,66.2,118.4C330.8,207.4,333.1,235.8,332.8,264.2L332.8,264.2z"/>
		<path id="Shape_7_" class="st3" d="M326,179.4c-15.7-87.7-54.1-112.6-66.2-118.4c-2.4-1.1-5.1-1.1-7.5,0c-3.2,1.5-6.2,3.4-9,5.4
			c16.4,11.7,44.4,41.4,57.2,113c4.8,28,7.1,56.4,6.8,84.8c0,1.9-5.5,3.6-14.9,5c-16.3,2.1-32.7,3.2-49.1,3.4
			c4.2,0.1,8.4,0.1,12.8,0.1c20.7,0.2,41.3-0.9,61.9-3.5c9.4-1.5,14.9-3.2,14.9-5C333.1,235.8,330.8,207.4,326,179.4z"/>
		<circle id="Oval" class="st0" cx="256" cy="153.3" r="25.6"/>
		<path id="Shape_8_" class="st0" d="M332.8,315.4l-34.1-8.5l-8.5,59.7L256,323.9l-34.1,42.7l-8.5-59.7l-34.1,8.5l14.9-46.2
			c20.5,2.6,41.2,3.7,61.9,3.5c20.7,0.2,41.3-0.9,61.9-3.5L332.8,315.4z"/>
		<path id="Shape_9_" class="st3" d="M186,179.4c-4.8,28-7.1,56.4-6.8,84.8c-16.1-0.2-31.8,5.3-44.2,15.6c-2.7,2.3-6.5,2.6-9.6,0.9
			c-3.1-1.7-4.8-5.2-4.3-8.7C130.5,201,176.6,182.4,186,179.4L186,179.4z"/>
		<path id="Shape_10_" class="st3" d="M390.9,272c0.5,3.5-1.2,6.9-4.3,8.7c-3.1,1.7-6.9,1.4-9.6-0.9c-12.4-10.3-28.1-15.9-44.2-15.6
			c0.3-28.4-2-56.8-6.8-84.8C335.4,182.4,381.5,201,390.9,272L390.9,272z"/>
		<path id="Shape_11_" class="st4" d="M326,179.4c1,5.4,1.9,11.1,2.6,16.9c21.1,19.8,34.2,46.8,36.7,75.7c4.2,2.2,8.1,4.8,11.7,7.8
			c2.7,2.3,6.5,2.6,9.6,0.9c3.1-1.7,4.8-5.2,4.3-8.7C381.5,201,335.4,182.4,326,179.4L326,179.4z"/>
		<path id="Shape_12_" class="st2" d="M81.9,267.3H58.2c-4.1,0-7.6,2.9-8.4,6.9L12.5,466.1c-1,5,0.4,10.2,3.6,14.1s8.1,6.2,13.2,6.2
			h25.6c-5.1,0-9.9-2.3-13.2-6.2c-3.3-3.9-4.6-9.1-3.6-14.1l37.4-191.8c0.8-4,4.3-6.9,8.4-6.9"/>
		<path id="Rectangle-path" class="st2" d="M28.5,339.6l13-67l16.8,3.3l-13,67L28.5,339.6z"/>
		<path id="Shape_13_" class="st5" d="M43.5,316.3c-4.7,0-8.6-3.8-8.6-8.5s3.8-8.6,8.5-8.6h0.1c4.7,0,8.5,3.8,8.5,8.5
			C52.1,312.5,48.2,316.3,43.5,316.3z"/>
		<path id="Shape_14_" class="st5" d="M502.6,485.5c4.9-5.9,6.8-13.6,5.4-21.1l-37.4-191.8c-1.5-8-8.6-13.8-16.8-13.8h-16.5
			l-1.2-7.3c-1.2-7.3-7-13-14.3-14.1c-10.5-1.6-21.1-2.7-31.8-3.6c-9.8-27.1-30.2-49-56.5-60.7C316.7,86.3,277.6,60,263.4,53.2
			c-4.7-2.3-10.1-2.3-14.8,0c-14.2,6.8-53.3,33.1-70.1,119.9c-26.3,11.7-46.7,33.6-56.5,60.6c-10.2,0.9-20.8,2-31.8,3.7
			c-7.3,1.1-13.1,6.8-14.4,14.1l-1.2,7.3H58.2c-8.2,0-15.2,5.8-16.8,13.8c-0.4,2.2,0,4.5,1.3,6.4c1.3,1.9,3.2,3.2,5.5,3.6
			c0.5,0.1,1.1,0.2,1.6,0.2c4.1,0,7.6-2.9,8.4-6.9h13.7L45.1,436.8c-0.9,5.9,1.2,11.8,5.7,15.7c4.5,3.9,10.7,5.2,16.3,3.4
			c45.5-14.7,94-17.8,140.9-8.9l-2.5,30.9H29.3c-2.6,0-5-1.2-6.6-3.1c-1.6-1.9-2.3-4.5-1.8-7l24.3-124.8c0.9-4.6-2.1-9.1-6.7-10
			s-9.1,2.1-10,6.7L4.1,464.5c-1.5,7.5,0.5,15.3,5.4,21.2c4.9,5.9,12.1,9.3,19.8,9.3h178c7.1,11.7,28.5,17.1,48.8,17.1
			c20,0,41.3-5.3,48.6-17.1h178.2C490.4,494.9,497.7,491.5,502.6,485.5L502.6,485.5z M453.8,275.9l37.4,191.8c0.5,2.5-0.2,5-1.8,7
			c-1.6,2-4.1,3.1-6.6,3.1H306.5l-2.6-31c47-8.9,95.5-5.8,141,9c5.7,1.7,11.8,0.4,16.3-3.4c4.5-3.9,6.6-9.8,5.7-15.7l-26.8-160.9
			L453.8,275.9z M382.4,273.2c-11.7-9.7-26.1-15.7-41.2-17.1c-0.2-20.8-1.6-41.5-4.3-62.2C352.7,203.6,376.2,225.7,382.4,273.2z
			 M319.9,303.4l-19.2-4.8c-2.3-0.6-4.8-0.1-6.8,1.2c-2,1.3-3.3,3.5-3.7,5.9l-5.7,40.2l-21.8-27.3c-1.7-1.9-4.1-3-6.7-3
			s-5,1.1-6.7,3l-21.8,27.3l-5.7-40.2c-0.3-2.4-1.7-4.5-3.7-5.9c-2-1.3-4.5-1.8-6.8-1.2l-19.2,4.8l8-24.6c18.6,1.9,37.3,2.7,56,2.4
			c18.7,0.3,37.4-0.6,56-2.5L319.9,303.4z M256.1,68.6c11.3,5.4,67,39.9,68.2,190.7c-22.5,3.9-45.4,5.5-68.2,4.8
			c-22.8,0.7-45.7-1-68.2-4.8C189,108.5,244.7,74,256.1,68.6L256.1,68.6z M175.1,194c-2.7,20.6-4.2,41.4-4.3,62.2
			c-15.1,1.4-29.5,7.4-41.2,17C135.8,225.6,159.3,203.6,175.1,194z M61.9,439.6l30.8-185.3c8.1-1.2,16-2.1,23.7-2.9
			c-1.7,6.4-3,13-3.8,19.5c-1,7,2.5,13.8,8.6,17.3c6.2,3.4,13.8,2.7,19.2-1.8c10.1-8.3,22.6-13,35.7-13.4c2.2,1.1,4.5,2,6.9,2.7
			l-12,37.1c-1,2.9-0.2,6.2,1.9,8.4c2.1,2.3,5.3,3.2,8.3,2.5l25-6.2l7.2,50.3c0.5,3.4,2.9,6.1,6.2,7s6.8-0.2,8.9-2.9l27.5-34.3
			l27.5,34.3c1.6,2,4.1,3.2,6.7,3.2c0.8,0,1.5-0.1,2.3-0.3c3.3-0.9,5.7-3.7,6.2-7l7.2-50.3l25,6.2c3,0.7,6.2-0.2,8.3-2.5
			c2.1-2.3,2.8-5.5,1.9-8.4l-12-37.2c2.4-0.6,4.7-1.5,6.9-2.7c13.1,0.4,25.6,5.1,35.7,13.4c5.4,4.5,13,5.3,19.2,1.8
			c6.2-3.4,9.6-10.3,8.6-17.3c-0.9-6.6-2.2-13.1-3.8-19.5c8,0.8,15.9,1.7,23.8,2.9l30.8,185.3c-60.2-20.1-125.3-20.1-185.5,0V384
			c0-4.7-3.8-8.5-8.5-8.5s-8.5,3.8-8.5,8.5v55.7C187.3,419.5,122.1,419.5,61.9,439.6L61.9,439.6z M256,494.9
			c-20.6,0-32.3-6.1-34.1-8.8l2.9-35.4c9.4,2.3,18.6,5.4,27.5,9.2c1.2,0.6,2.4,0.8,3.7,0.9c1.3,0,2.5-0.3,3.7-0.9
			c8.9-3.8,18.1-6.9,27.5-9.3l2.9,35.5C288.3,488.9,276.6,494.9,256,494.9L256,494.9z"/>
		<path id="Shape_15_" class="st5" d="M256,187.4c18.9,0,34.1-15.3,34.1-34.1s-15.3-34.1-34.1-34.1c-18.9,0-34.1,15.3-34.1,34.1
			S237.1,187.4,256,187.4z M256,136.2c9.4,0,17.1,7.6,17.1,17.1s-7.6,17.1-17.1,17.1c-9.4,0-17.1-7.6-17.1-17.1
			S246.6,136.2,256,136.2z"/>
		<path id="Shape_16_" class="st5" d="M128,0c-4.7,0-8.5,3.8-8.5,8.5v17.1c0,4.7,3.8,8.5,8.5,8.5c4.7,0,8.5-3.8,8.5-8.5V8.5
			C136.5,3.8,132.7,0,128,0z"/>
		<path id="Shape_17_" class="st5" d="M119.5,76.8c0,4.7,3.8,8.5,8.5,8.5c4.7,0,8.5-3.8,8.5-8.5V59.7c0-4.7-3.8-8.5-8.5-8.5
			c-4.7,0-8.5,3.8-8.5,8.5V76.8z"/>
		<path id="Shape_18_" class="st5" d="M145.1,51.2h17.1c4.7,0,8.5-3.8,8.5-8.5s-3.8-8.5-8.5-8.5h-17.1c-4.7,0-8.5,3.8-8.5,8.5
			S140.4,51.2,145.1,51.2z"/>
		<path id="Shape_19_" class="st5" d="M110.9,34.1H93.9c-4.7,0-8.5,3.8-8.5,8.5s3.8,8.5,8.5,8.5h17.1c4.7,0,8.5-3.8,8.5-8.5
			S115.6,34.1,110.9,34.1z"/>
		<path id="Shape_20_" class="st5" d="M418.1,110.9c-4.7,0-8.5,3.8-8.5,8.5v17.1c0,4.7,3.8,8.5,8.5,8.5s8.5-3.8,8.5-8.5v-17.1
			C426.7,114.8,422.8,110.9,418.1,110.9z"/>
		<path id="Shape_21_" class="st5" d="M409.6,187.7c0,4.7,3.8,8.5,8.5,8.5s8.5-3.8,8.5-8.5v-17.1c0-4.7-3.8-8.5-8.5-8.5
			s-8.5,3.8-8.5,8.5V187.7z"/>
		<path id="Shape_22_" class="st5" d="M435.2,162.1h17.1c4.7,0,8.5-3.8,8.5-8.5s-3.8-8.5-8.5-8.5h-17.1c-4.7,0-8.5,3.8-8.5,8.5
			S430.5,162.1,435.2,162.1z"/>
		<path id="Shape_23_" class="st5" d="M401.1,145.1H384c-4.7,0-8.5,3.8-8.5,8.5s3.8,8.5,8.5,8.5h17.1c4.7,0,8.5-3.8,8.5-8.5
			S405.8,145.1,401.1,145.1z"/>
		<path id="Shape_24_" class="st5" d="M145.1,349.9c4.7,0,8.5-3.8,8.5-8.5v-17.1c0-4.7-3.8-8.5-8.5-8.5c-4.7,0-8.5,3.8-8.5,8.5v17.1
			C136.5,346,140.4,349.9,145.1,349.9z"/>
		<path id="Shape_25_" class="st5" d="M145.1,366.9c-4.7,0-8.5,3.8-8.5,8.5v17.1c0,4.7,3.8,8.5,8.5,8.5c4.7,0,8.5-3.8,8.5-8.5v-17.1
			C153.6,370.8,149.8,366.9,145.1,366.9z"/>
		<path id="Shape_26_" class="st5" d="M179.2,349.9h-17.1c-4.7,0-8.5,3.8-8.5,8.5s3.8,8.5,8.5,8.5h17.1c4.7,0,8.5-3.8,8.5-8.5
			S183.9,349.9,179.2,349.9z"/>
		<path id="Shape_27_" class="st5" d="M128,349.9h-17.1c-4.7,0-8.5,3.8-8.5,8.5s3.8,8.5,8.5,8.5H128c4.7,0,8.5-3.8,8.5-8.5
			S132.7,349.9,128,349.9z"/>
	</g>
</g>
</svg>
