<?xml version="1.0" encoding="utf-8"?>
<!-- Generator: Adobe Illustrator 24.3.0, SVG Export Plug-In . SVG Version: 6.00 Build 0)  -->
<svg version="1.1" id="Layer_1" xmlns="http://www.w3.org/2000/svg" xmlns:xlink="http://www.w3.org/1999/xlink" x="0px" y="0px"
	 viewBox="0 0 512 512" style="enable-background:new 0 0 512 512;" xml:space="preserve">
<style type="text/css">
	.st0{fill:#CAD9FC;}
	.st1{fill:#A4C2F7;}
	.st2{fill:#FFFFFF;}
	.st3{fill:#E8EDFC;}
	.st4{fill:#0A1840;}
</style>
<path id="Shape" class="st0" d="M217.2,435.7l-3.8,46.4H29.3c-5.1,0-9.9-2.3-13.2-6.2c-3.3-3.9-4.6-9.1-3.6-14.1L49.8,270
	c0.8-4,4.3-6.9,8.4-6.9h23.7L53.5,433.9c-0.5,2.9,0.6,5.9,2.9,7.8c2.2,1.9,5.3,2.6,8.1,1.7C113.8,427.4,166.5,424.7,217.2,435.7
	L217.2,435.7z"/>
<path id="Shape_1_" class="st0" d="M482.7,482.1H298.7l-3.8-46.4c50.7-11,103.4-8.3,152.7,7.8c2.8,0.9,5.9,0.2,8.1-1.7
	c2.2-1.9,3.3-4.9,2.9-7.8l-28.4-170.8h23.7c4.1,0,7.6,2.9,8.4,6.9l37.4,191.8c1,5-0.4,10.2-3.6,14.1S487.8,482.1,482.7,482.1
	L482.7,482.1z"/>
<path id="Shape_2_" class="st1" d="M499.5,461.8L462.2,270c-0.8-4-4.3-6.9-8.4-6.9h-23.7l0.1,0.3c3.2,0.8,5.7,3.3,6.4,6.6
	l37.4,191.8c1,5-0.4,10.2-3.6,14.1s-8.1,6.2-13.2,6.2h25.6c5.1,0,9.9-2.3,13.2-6.2C499.2,472,500.5,466.8,499.5,461.8L499.5,461.8z"
	/>
<path id="Shape_3_" class="st2" d="M447.5,443.5c-49.3-16.1-102-18.8-152.7-7.8c-13.3,2.7-26.3,6.9-38.8,12.3
	c-12.5-5.4-25.5-9.5-38.8-12.3c-50.7-11-103.4-8.3-152.7,7.8c-2.8,0.9-5.9,0.2-8.1-1.7c-2.2-1.9-3.3-4.9-2.9-7.8l28.4-170.8
	l2.4-14.4c0.6-3.7,3.5-6.5,7.2-7.1c5.8-0.9,11.8-1.7,17.7-2.4c10.4,20.3,31.3,33,54.1,33c7.2,0,14.3-1.3,21.1-3.8
	c5.2,15.2,18.2,26.5,34,29.5c15.8,3,32-2.6,42.5-14.8c8.5,3.3,17.6,5,26.8,5h0.5c1.8,15.4,9.8,24.4,36.6,33.4
	c8.2,2.6,15.5,7.5,21.2,14c5,6.2,13.5,8.4,20.9,5.4c6.5-2.8,10.7-9.2,10.8-16.3c0-1.9-0.3-3.7-0.9-5.5c-2.4-8.1-6.3-15.8-11.3-22.7
	c17-9.1,28.8-25.4,32.3-44.4c3.3-3.7,6-7.9,7.9-12.5c4.9,0.6,9.8,1.2,14.7,2c3.7,0.6,6.6,3.4,7.2,7.1l2.4,14.4l28.4,170.8
	c0.5,2.9-0.6,5.9-2.9,7.8C453.4,443.7,450.3,444.3,447.5,443.5L447.5,443.5z"/>
<path id="Shape_4_" class="st3" d="M458.5,433.9l-28.4-170.8l-2.4-14.4c-0.6-3.7-3.5-6.5-7.2-7.1c-4.9-0.8-9.7-1.4-14.7-2
	c-1.2,2.7-2.6,5.2-4.3,7.6c0.2,0.5,0.4,0.9,0.5,1.4l2.4,14.4l28.4,170.8c0.3,1.8,0,3.5-0.9,5.1c5.1,1.3,10.2,2.8,15.4,4.4
	c2.8,0.9,5.9,0.2,8.2-1.7C457.9,439.8,459,436.9,458.5,433.9z"/>
<path id="Shape_5_" class="st0" d="M298.7,482.1c0,9.4-19.1,17.1-42.7,17.1c-23.6,0-42.7-7.7-42.7-17.1l3.8-46.4
	c13.3,2.7,26.3,6.9,38.8,12.3c12.5-5.4,25.5-9.5,38.8-12.3L298.7,482.1z"/>
<path id="Shape_6_" class="st3" d="M409.6,221.8c0,6.1-1.2,12.2-3.8,17.8c-1.9,4.6-4.6,8.8-7.9,12.5c-3.5,18.9-15.4,35.3-32.3,44.4
	c5,6.9,8.8,14.6,11.3,22.7c0.6,1.8,0.9,3.6,0.9,5.5c0,7.1-4.2,13.5-10.8,16.3c-7.4,3-15.9,0.8-20.9-5.4c-5.6-6.5-13-11.4-21.2-14
	c-26.8-9-34.8-18-36.6-33.4h-0.5c-9.2,0-18.3-1.7-26.8-5c-10.5,12.2-26.7,17.8-42.5,14.8c-15.8-3-28.8-14.3-34-29.5
	c-6.8,2.5-13.9,3.7-21.1,3.8c-23.1,0-44.1-13-54.5-33.7s-8.1-45.3,5.7-63.8c-1-2.8-1.5-5.7-1.5-8.7c0-12.7,8.9-23.6,21.3-26.1
	c-0.1-1-0.2-2-0.2-3.2c0-19,15.4-34.5,34.5-34.5c5.2,0,10.3,1.1,14.9,3.4c9.1-15.3,25.6-24.7,43.3-24.7c12.2,0,24,4.4,33.1,12.5
	c5.2-8.4,14.7-13.2,24.6-12.4c9.9,0.8,18.5,7.1,22.3,16.3c2.4-0.3,4.9-0.4,7.3-0.4c33.1,0.1,60.6,25.4,63.3,58.4h0.3
	c7,0,13.8,2.8,18.7,7.8c5,5,7.7,11.7,7.7,18.8c0,4.6-1.2,9.1-3.4,13.1C406.6,202.8,409.6,212.2,409.6,221.8L409.6,221.8z"/>
<path id="Shape_7_" class="st0" d="M400.9,195.1c2.2-4,3.4-8.5,3.4-13.1c0-7-2.8-13.8-7.7-18.8c-5-5-11.7-7.8-18.7-7.8h-0.3
	c-2.7-32.9-30.3-58.3-63.3-58.4c-2.5,0-4.9,0.2-7.3,0.4c-2.9-7-8.6-12.4-15.7-14.9c-7.1-2.5-15-1.8-21.6,1.9
	c5.3,2.9,9.4,7.5,11.7,13c2.4-0.3,4.9-0.4,7.3-0.4c33.1,0.1,60.6,25.4,63.3,58.4h0.3c7,0,13.8,2.8,18.7,7.8c5,5,7.7,11.7,7.7,18.8
	c0,4.6-1.2,9.1-3.4,13.1c5.7,7.8,8.7,17.1,8.7,26.7c0,6.1-1.2,12.2-3.8,17.8c-1.9,4.6-4.6,8.8-7.9,12.5
	c-3.5,18.9-15.4,35.3-32.3,44.4c5,6.9,8.8,14.6,11.3,22.7c0.6,1.8,0.9,3.6,0.9,5.5c-0.1,4.5-1.8,8.8-5,12c4.9,5.3,12.6,7.1,19.4,4.4
	c6.8-2.7,11.2-9.2,11.2-16.5c0-1.9-0.3-3.7-0.9-5.5c-2.4-8.1-6.3-15.8-11.3-22.7c17-9.1,28.8-25.4,32.3-44.4c3.3-3.7,6-7.9,7.9-12.5
	c2.5-5.6,3.8-11.7,3.8-17.8C409.6,212.2,406.6,202.8,400.9,195.1L400.9,195.1z"/>
<path id="Shape_8_" class="st2" d="M171.8,270c-19.2-5.7-34.3-20.4-40.6-39.4c-6.3-19-3-39.8,8.9-55.9c-2.5-7.2-1.8-15.2,2-21.9
	c3.8-6.7,10.3-11.4,17.8-12.9c-1.5-15.2,7.3-29.5,21.5-35.1c-11.1-4.5-23.8-2.8-33.4,4.3c-9.6,7.2-14.8,18.8-13.7,30.8
	c-7.5,1.5-14,6.2-17.8,12.9c-3.8,6.7-4.5,14.7-2,21.9c-27.9,36.9-8,99.8,62.5,100.2"/>
<path id="Shape_9_" class="st2" d="M81.9,263.1H58.2c-4.1,0-7.6,2.9-8.4,6.9L12.5,461.8c-1,5,0.4,10.2,3.6,14.1s8.1,6.2,13.2,6.2
	h25.6c-5.1,0-9.9-2.3-13.2-6.2c-3.3-3.9-4.6-9.1-3.6-14.1L75.4,270c0.8-4,4.3-6.9,8.4-6.9"/>
<path id="Rectangle-path" class="st2" d="M28.5,335.3l13-67l16.8,3.3l-13,67L28.5,335.3z"/>
<path id="Shape_10_" class="st4" d="M43.5,312c-4.7,0-8.6-3.8-8.6-8.5s3.8-8.6,8.5-8.6h0.1c4.7,0,8.5,3.8,8.5,8.5S48.2,312,43.5,312
	z"/>
<path id="Shape_11_" class="st4" d="M470.6,268.4c-1.5-8-8.6-13.8-16.8-13.8h-16.5l-1.2-7.3c-1.2-7.3-7-13-14.3-14.1
	c-1.6-0.3-3.3-0.4-4.9-0.6c2.8-13,0.5-26.7-6.5-38.1c3.7-9.5,3-20.2-1.9-29.2c-4.9-9-13.4-15.4-23.4-17.5
	c-6.4-34.2-36.1-59.1-70.9-59.3c-0.9,0-1.6,0.1-2.4,0.1c-5.6-8.7-14.7-14.5-25-15.8c-10.3-1.3-20.6,2.1-28.1,9.2
	c-9.5-6.2-20.6-9.5-31.9-9.5c-18.2,0.1-35.4,8.5-46.6,22.9c-12.4-3.6-25.8-1.4-36.3,6c-10.6,7.4-17.2,19.3-18,32.2
	c-13,5.5-21.5,18.2-21.5,32.4c0,2.4,0.3,4.9,0.9,7.3c-11.5,17.4-14.5,39-8.2,58.9c-2.3,0.3-4.6,0.6-6.8,0.9
	c-7.3,1.1-13.1,6.8-14.4,14.1l-1.2,7.3H58.2c-8.2,0-15.2,5.8-16.8,13.8c-0.4,2.2,0,4.5,1.3,6.4c1.3,1.9,3.2,3.2,5.5,3.6
	c0.5,0.1,1.1,0.2,1.6,0.2c4.1,0,7.6-2.9,8.4-6.9h13.7l-26.8,161c-0.9,5.9,1.2,11.8,5.7,15.7c4.5,3.9,10.7,5.2,16.3,3.4
	c45.5-14.7,94-17.8,140.9-8.9l-2.5,30.9H29.3c-2.6,0-5-1.2-6.6-3.1c-1.6-1.9-2.3-4.5-1.8-7l24.3-124.8c0.9-4.6-2.1-9.1-6.7-10
	s-9.1,2.1-10,6.7L4.1,460.2c-1.5,7.5,0.5,15.3,5.4,21.2c4.9,5.9,12.1,9.3,19.8,9.3h178c7.1,11.7,28.5,17.1,48.8,17.1
	c20,0,41.3-5.3,48.6-17.1h178.2c7.7,0,14.9-3.4,19.8-9.3s6.9-13.7,5.4-21.2L470.6,268.4z M139.5,148c5.7,0,11,2.7,14.3,7.2
	c2.8,3.8,8.2,4.6,11.9,1.8s4.6-8.2,1.8-11.9c-5.8-7.7-14.6-12.7-24.2-13.7c2.5-12,13.1-20.5,25.3-20.5c1,0.1,2.1,0.2,3.1,0.3
	c-0.7,1.7-1.3,3.5-1.8,5.3c-1.1,4.5,1.7,9.1,6.2,10.2c4.5,1.2,9.1-1.5,10.3-5.9c1-3.8,2.5-7.3,4.4-10.7c7.6-12.7,21.2-20.5,36-20.5
	c8,0,15.9,2.4,22.6,6.8c-1.3,3.6-2,7.4-2,11.2c0,4.7,3.8,8.5,8.5,8.5c4.7,0,8.5-3.8,8.5-8.5c0-9.9,8-17.9,17.9-17.9
	s17.9,8,17.9,17.9c0,4.7,3.8,8.5,8.5,8.5s8.5-3.8,8.5-8.5c0-0.7-0.2-1.3-0.2-1.9c24.4,1.5,45,18.9,50.5,42.7c-4,1.2-7.7,3-11,5.5
	c-2.4,1.8-3.7,4.8-3.4,7.8c0.4,3,2.3,5.6,5.1,6.8c2.8,1.2,6,0.8,8.5-1c6.8-5,16.2-4.6,22.6,1c6.4,5.6,7.9,14.9,3.8,22.3
	c-1.9,3.3-4.7,5.9-8.1,7.5c-3.6,1.7-5.5,5.7-4.6,9.5c0.9,3.9,4.3,6.6,8.2,6.7c1.3,0,2.5-0.3,3.6-0.8c2.3-1.1,4.4-2.4,6.4-4
	c4.4,12.5,1.6,26.5-7.2,36.4l-0.2,0.2c-11.1,12-28.9,15.3-43.5,8c-1.4-0.8-2.8-1.6-4.1-2.6c6.3-8.8,7.2-20.4,2.3-30
	c-1.4-2.7-4.1-4.5-7.1-4.7c-3-0.2-6,1.3-7.6,3.8c-1.7,2.6-1.9,5.8-0.5,8.5c2.8,5.6,1.1,12.5-4.1,16.1c-3,2-6.8,2.7-10.3,1.8
	c-3.5-0.9-6.5-3.3-8.2-6.5c-1.4-2.7-4.1-4.5-7.1-4.7c-3-0.2-6,1.3-7.6,3.8c-1.7,2.5-1.9,5.8-0.5,8.5c5,10.1,15.3,16.5,26.6,16.5
	c3.7,0,7.3-0.7,10.7-2.1c3,2.7,6.4,5,10,6.8c12.2,6.3,26.3,7.6,39.4,3.6c-8.4,11.5-21.1,19.3-35.1,21.5c-4.4,0.7-7.5,4.7-7.1,9.1
	c0.3,4.4,4,7.8,8.5,7.9c0.5,0,0.9,0,1.4-0.1c5.2-0.9,10.3-2.4,15.1-4.4c2.6,4.6,4.8,9.6,6.4,14.7c0.3,0.9,0.4,1.8,0.4,2.8
	c0,3.7-2.2,7-5.6,8.5c-3.9,1.5-8.4,0.3-11-3c-6.6-7.8-15.3-13.5-25-16.6c-18.4-6.2-25.6-11.7-28.6-17.7c4.4-0.6,8.8-1.5,13.1-2.7
	c2.9-0.9,5.1-3.3,5.8-6.3c0.7-3-0.3-6.1-2.5-8.2c-2.2-2.1-5.4-2.8-8.3-1.9c-4.8,1.5-9.7,2.4-14.7,2.7c-9.6,0.8-19.3-0.7-28.3-4.3
	c-3.4-1.3-7.2-0.4-9.6,2.4c-12.4,14.3-33.7,16.7-49,5.6c-15.3-11.1-19.6-32.1-9.9-48.3c1.6-2.6,1.6-5.9,0.1-8.6
	c-1.5-2.7-4.3-4.3-7.3-4.4c-3.1,0-5.9,1.5-7.5,4.2c-2,3.5-3.7,7.1-4.9,11c-6.7-0.4-12-5.8-12.1-12.6v-0.2c0-2.3-0.9-4.4-2.5-6
	c-1.6-1.6-3.8-2.5-6-2.4c-4.7,0-8.5,3.9-8.5,8.6c0,15.1,11.5,27.8,26.5,29.4c0,2.9,0.3,5.7,0.8,8.5c-19.1,4.1-38.8-2.7-51.2-17.8
	c-12.4-15-15.4-35.7-7.8-53.7c1.9,1.9,4,3.6,6.3,5.1c4,2.4,9.2,1,11.6-3c2.4-4,1.2-9.2-2.8-11.7c-6.9-4.2-10.2-12.4-8.1-20.2
	C124.3,153.4,131.4,148,139.5,148L139.5,148z M61.9,435.3L92.7,250c3.9-0.6,8-1.1,12-1.6c15.8,25.2,46,37.5,74.8,30.4
	c7.8,14.7,21.9,25,38.4,27.8s33.2-2.2,45.4-13.6c5.8,1.7,11.8,2.8,17.8,3.2c4.1,15.6,16,25.1,41.1,33.5c6.7,2.1,12.8,6.1,17.4,11.4
	c5.1,6.1,12.7,9.6,20.6,9.7c3.5,0,6.9-0.7,10.1-2.1c9.7-4.1,15.9-13.6,15.9-24.2c0-2.7-0.4-5.5-1.3-8.1c-1.9-6-4.4-11.8-7.5-17.4
	c14.5-10.4,24.6-25.9,28.4-43.4c1.8-2.2,3.5-4.5,4.9-6.9c2.9,0.4,5.7,0.7,8.6,1.2l30.8,185.3c-60.2-20.1-125.3-20.1-185.5,0V328.5
	c0-4.7-3.8-8.5-8.5-8.5c-4.7,0-8.5,3.8-8.5,8.5v106.9C187.3,415.3,122.1,415.2,61.9,435.3L61.9,435.3z M256,490.7
	c-20.6,0-32.3-6.1-34.1-8.8l2.9-35.4c9.4,2.3,18.6,5.4,27.5,9.2c1.2,0.6,2.4,0.8,3.7,0.9c1.3,0,2.5-0.3,3.7-0.9
	c8.9-3.8,18.1-6.9,27.5-9.3l2.9,35.5C288.3,484.6,276.6,490.7,256,490.7L256,490.7z M489.4,470.5c-1.6,2-4.1,3.1-6.6,3.1H306.5
	l-2.6-31c47-8.9,95.5-5.8,141,9c5.7,1.7,11.8,0.4,16.3-3.4c4.5-3.9,6.6-9.8,5.7-15.7l-26.8-160.9h13.7l37.4,191.8
	C491.7,465.9,491,468.5,489.4,470.5z"/>
<path id="Shape_12_" class="st4" d="M227.7,197.8c-3.5,3.2-3.8,8.6-0.6,12c7.2,8,16.8,13.5,27.3,15.8c-4.8,6.7-12.5,10.7-20.8,10.7
	c-4.7,0-8.5,3.8-8.5,8.5s3.8,8.5,8.5,8.5c17.7,0.1,33.5-10.8,39.8-27.4c21.2-3.5,38-19.8,42.1-41c0.6-3-0.4-6.1-2.7-8.2
	c-2.3-2-5.6-2.7-8.5-1.6c-2.9,1-5,3.6-5.6,6.6c-1.7,8.8-6.8,16.6-14.1,21.7c-14.2,9.6-33.2,7.4-44.9-5.1
	C236.6,195,231.2,194.7,227.7,197.8L227.7,197.8z"/>
<path id="Shape_13_" class="st4" d="M198,188.6c4.7,0,8.5-3.8,8.5-8.5c0-5.9,2.3-11.5,6.5-15.7c4.2-4.2,9.8-6.5,15.7-6.5
	c4.7,0,8.5-3.8,8.5-8.5c0-4.7-3.8-8.5-8.5-8.5c-21.7,0-39.2,17.6-39.3,39.3c0,2.3,0.9,4.4,2.5,6S195.7,188.6,198,188.6z"/>
<path id="Shape_14_" class="st4" d="M264.5,21.3v-8.5c0-4.7-3.8-8.5-8.5-8.5c-4.7,0-8.5,3.8-8.5,8.5v8.5c0,4.7,3.8,8.5,8.5,8.5
	C260.7,29.9,264.5,26,264.5,21.3z"/>
<path id="Shape_15_" class="st4" d="M396,65.5l-8.5,8.5c-2.2,2.1-3.1,5.3-2.3,8.3c0.8,3,3.1,5.3,6.1,6.1c3,0.8,6.2-0.1,8.3-2.3
	l8.5-8.5c2.2-2.1,3.1-5.3,2.3-8.3c-0.8-3-3.1-5.3-6.1-6.1C401.3,62.4,398.2,63.3,396,65.5z"/>
<path id="Shape_16_" class="st4" d="M118.5,88.6c3.5,0,6.6-2.1,7.9-5.3c1.3-3.2,0.6-6.9-1.8-9.3l-8.5-8.5c-2.1-2.2-5.3-3.1-8.3-2.3
	c-3,0.8-5.3,3.1-6.1,6.1s0.1,6.2,2.3,8.3l8.5,8.5C114,87.7,116.2,88.6,118.5,88.6z"/>
<path id="Shape_17_" class="st4" d="M184.2,52.7c1.1,0,2.2-0.2,3.3-0.6c2.1-0.9,3.8-2.5,4.6-4.6c0.9-2.1,0.9-4.4,0-6.5l-9.8-23.7
	c-1.1-2.9-3.7-4.9-6.8-5.4c-3.1-0.4-6.1,0.8-8,3.3s-2.2,5.8-1,8.6l9.8,23.7C177.6,50.6,180.7,52.7,184.2,52.7L184.2,52.7z"/>
<path id="Shape_18_" class="st4" d="M340.9,12.6c-4.4-1.8-9.3,0.3-11.1,4.6L320,40.9c-0.9,2.1-0.9,4.4,0,6.5
	c0.9,2.1,2.5,3.8,4.6,4.6c1,0.4,2.1,0.6,3.3,0.6c3.5,0,6.6-2.1,7.9-5.3l9.8-23.7c0.9-2.1,0.9-4.4,0-6.5
	C344.7,15.2,343,13.5,340.9,12.6z"/>
<path id="Shape_19_" class="st4" d="M429.4,154.3c1.1,0,2.2-0.2,3.3-0.7l23.6-9.8c2.8-1.2,4.8-3.7,5.2-6.8c0.4-3-0.8-6-3.3-7.9
	c-2.4-1.9-5.6-2.3-8.5-1.1l-23.7,9.8c-3.8,1.6-5.9,5.6-5.1,9.6C421.8,151.4,425.4,154.3,429.4,154.3L429.4,154.3z"/>
<path id="Shape_20_" class="st4" d="M79.3,153.6c4.4,1.8,9.3-0.3,11.2-4.6c1.8-4.4-0.3-9.3-4.6-11.2l-23.7-9.8
	c-4.4-1.8-9.3,0.3-11.1,4.6c-1.8,4.4,0.3,9.3,4.6,11.1L79.3,153.6z"/>
</svg>
