<?xml version="1.0" encoding="utf-8"?>
<!-- Generator: Adobe Illustrator 24.3.0, SVG Export Plug-In . SVG Version: 6.00 Build 0)  -->
<svg version="1.1" id="Layer_1" xmlns="http://www.w3.org/2000/svg" xmlns:xlink="http://www.w3.org/1999/xlink" x="0px" y="0px"
	 viewBox="0 0 512 512" style="enable-background:new 0 0 512 512;" xml:space="preserve">
<style type="text/css">
	.st0{fill:#E8EDFC;}
	.st1{fill:#CAD9FC;}
	.st2{fill:#A4C2F7;}
	.st3{fill:#FFFFFF;}
	.st4{fill:#0A1840;}
</style>
<g id="Page-1">
	<g id="_x30_23---Educational-Books">
		<path id="Shape" class="st0" d="M399.4,206.8L272.7,341.7c-3.2,3.4-7.7,5.4-12.5,5.4s-9.2-1.9-12.5-5.4L121.1,206.8
			c11.2-8.1,40.6-29.3,99.9-36c3.6-0.4,7,1.5,8.6,4.7l30.6,63.5l30.6-63.5c1.6-3.2,5-5.1,8.6-4.7
			C358.8,177.5,388.3,198.7,399.4,206.8L399.4,206.8z"/>
		<path id="Shape_1_" class="st1" d="M299.5,170.8c-2.7-0.3-5.4,0.7-7.2,2.7c29.5,4.4,57.4,15.8,81.6,33.3L247.5,341.3l0.3,0.4
			c3.2,3.4,7.7,5.4,12.5,5.4c4.7,0,9.2-1.9,12.5-5.4l126.7-134.9C388.3,198.7,358.8,177.5,299.5,170.8z"/>
		<path id="Shape_2_" class="st0" d="M260.3,8.5l21.1,39.3l47.2,6.3l-34.1,30.6l8.1,43.2l-42.2-20.4L218.1,128l8.1-43.2L192,54.2
			l47.2-6.3L260.3,8.5z"/>
		<path id="Shape_3_" class="st1" d="M328.5,54.2l-47.2-6.3L260.3,8.5l-12.8,23.9l8.3,15.5l47.2,6.3l-34.1,30.6l5.5,29.6l28.1,13.6
			l-8.1-43.2L328.5,54.2z"/>
		<path id="Shape_4_" class="st0" d="M132.3,356.5c0.5,16.3-5.6,32.1-17.1,43.7c-10.6,10.3-16.7,24.3-17.1,39.1v13H46.9v-10.9
			c-0.3-15.7-6.7-30.7-17.8-41.9c-16.6-17.5-21-43.3-11.2-65.3s31.9-36,56-35.5C105.5,299.8,130.9,325,132.3,356.5z"/>
		<path id="Shape_5_" class="st1" d="M73.9,298.7c-4.7-0.1-9.5,0.4-14.1,1.4c26.5,6.2,45.7,29.2,46.9,56.4
			c0.5,16.3-5.6,32.1-17.1,43.7c-10.6,10.3-16.7,24.3-17.1,39.1v13h25.6v-13c0.3-14.8,6.5-28.8,17.1-39.1
			c11.4-11.6,17.6-27.4,17.1-43.7C130.9,325,105.5,299.8,73.9,298.7L73.9,298.7z"/>
		<path id="Shape_6_" class="st0" d="M98.1,452.3v25.6c0,14.1-11.5,25.6-25.6,25.6S46.9,492,46.9,477.9v-25.6H98.1z"/>
		<path id="Shape_7_" class="st1" d="M72.5,452.3v25.6c0,9.1-4.9,17.5-12.8,22.1c7.9,4.7,17.7,4.7,25.6,0.2s12.8-13.1,12.8-22.2
			v-25.6H72.5z"/>
		<path id="Shape_8_" class="st1" d="M396,358l7.1-16.8h29.9l7.1,16.8l22.1,13.8l17-1.7l12.6,23.5l-9.9,15v27.6l9.9,15l-12.6,23.5
			l-17-1.7l-22.1,13.8l-7.1,16.7h-29.9l-7.1-16.7l-22.1-13.8l-17,1.7l-12.6-23.5l9.9-15v-27.6l-9.9-15l12.6-23.5l17,1.7L396,358z"/>
		<path id="Shape_9_" class="st2" d="M482,408.6l9.9-15l-12.6-23.5l-17,1.7L440.2,358l-7.1-16.8h-25.6l7.1,16.8l22.1,13.8l17-1.7
			l12.6,23.5l-9.9,15v27.6l9.9,15l-12.6,23.5l-17-1.7l-22.1,13.8l-7.1,16.7h25.6l7.1-16.7l22.1-13.8l17,1.7l12.6-23.5l-9.9-15V408.6
			z"/>
		<circle id="Oval" class="st0" cx="418.1" cy="422.4" r="29.9"/>
		<path id="Shape_10_" class="st1" d="M433.7,232.4l-35.1,37.4L297.7,376.2c-9.7,10.4-23.3,16.3-37.5,16.3
			c-14.2,0-27.8-5.9-37.5-16.3L121.9,269.8l-35.1-37.4c-7-7.5-7.8-18.9-1.9-27.3c3.9-5.6,10.3-8.9,17.2-8.9c5.8,0,11.4,2.4,15.4,6.7
			l3.6,3.8l126.7,134.9c3.2,3.4,7.7,5.4,12.5,5.4c4.7,0,9.2-1.9,12.5-5.4l126.7-134.9l3.6-3.8c4-4.2,9.5-6.6,15.4-6.7
			c6.8,0,13.2,3.3,17.2,8.9C441.4,213.5,440.7,224.9,433.7,232.4L433.7,232.4z"/>
		<path id="Shape_11_" class="st2" d="M435.5,205.1c-3.3-4.7-8.4-7.8-14-8.7c-5.7-0.8-11.4,0.7-15.9,4.2c1.7,1.2,3.1,2.7,4.3,4.4
			c5.9,8.4,5.1,19.8-1.9,27.3L373,269.8L272.1,376.2c-6.6,7.1-15.2,12.2-24.7,14.6c18.2,4.7,37.5-0.9,50.3-14.6l100.9-106.4
			l35.1-37.4C440.7,224.9,441.4,213.5,435.5,205.1z"/>
		<path id="Shape_12_" class="st3" d="M248.4,376.2c-120-126.6-89.2-94-135.9-143.8c-4.1-4.4-6.2-10.4-5.8-16.4
			c0.5-6,3.4-11.6,8.2-15.4c-3.6-2.8-8.1-4.4-12.7-4.4c-8.5,0.1-16.1,5.3-19.4,13.1s-1.7,16.9,4.2,23.1
			c46.8,49.8,15.9,17.2,135.9,143.8c12.8,13.7,32,19.3,50.1,14.6C263.5,388.4,255,383.3,248.4,376.2L248.4,376.2z"/>
		<path id="Shape_13_" class="st3" d="M72.5,477.9v-36.5c-0.3-15.7-6.7-30.7-17.8-41.9c-14.7-15.7-19.8-38-13.5-58.5
			s23.2-36.1,44.1-40.8c-25.7-5.9-52.1,5.8-65.1,28.7c-13,22.9-9.4,51.6,8.9,70.6c11.1,11.2,17.5,26.2,17.8,41.9v36.5
			c0,11,7.1,20.8,17.6,24.2c6.9,2.4,14.5,1.6,20.8-2.2C77.4,495.4,72.5,487,72.5,477.9z"/>
		<path id="Shape_14_" class="st3" d="M411.4,197.7c6.1,3.6,10.6,6.8,13.7,9.1c1.9-2.2,4-4.2,6.3-6.1c-5.2-4.2-12.1-5.5-18.4-3.6
			C412.3,197.3,411.9,197.5,411.4,197.7z"/>
		<path id="Shape_15_" class="st3" d="M44.2,296.3l7.1,15.5c-18.2,8.3-29.9,26.5-30,46.5H4.3C4.4,331.7,19.9,307.5,44.2,296.3
			L44.2,296.3z"/>
		<g>
			<path id="Shape_16_" class="st4" d="M283.2,171.7l-22.9,47.6l-23-47.7c-3.2-6.4-10.1-10.2-17.2-9.4c-35,2.8-68.7,14.2-98,33.4
				c-6.2-5.8-14.6-8.6-23-7.8c-8.4,0.9-16.1,5.4-20.9,12.3c-8.3,11.7-7.2,27.6,2.6,38l135.9,143.8c11.3,12.1,27.1,19,43.7,19
				s32.4-6.9,43.7-19l100.9-106.4l35-37.4c9.8-10.4,10.9-26.3,2.6-38c-4.8-7-12.5-11.5-20.9-12.4s-16.9,2-23,7.8
				c-29.4-19.2-63.1-30.6-98-33.4C293.3,161.5,286.4,165.2,283.2,171.7z M221.9,179.2l30.6,63.5c1.4,2.9,4.4,4.8,7.7,4.8
				c3.3,0,6.3-1.9,7.7-4.8l30.6-63.4c31.2,2.5,61.3,12.4,87.9,28.9L283.3,318l44.4-103.4c1.9-4.3-0.1-9.4-4.5-11.2
				c-4.3-1.9-9.4,0.1-11.2,4.5l-51.7,120.5l-51.7-120.5c-1.2-2.8-3.8-4.7-6.8-5.1s-6,0.9-7.8,3.4c-1.8,2.4-2.2,5.7-1,8.5L237.2,318
				L134.1,208.1C160.6,191.7,190.8,181.7,221.9,179.2L221.9,179.2z M428.5,210.1c3.6,5.1,3.1,11.9-1.1,16.5L291.5,370.4l-0.1,0.1
				c-8.1,8.7-19.4,13.6-31.2,13.6c-11.8,0-23.1-4.9-31.2-13.6L128.2,264l-35.1-37.4c-4.2-4.5-4.7-11.4-1.1-16.5
				c2.3-3.3,6.1-5.3,10.2-5.3c3.4,0,6.7,1.5,9.1,4l130.4,138.7c3.8,3.9,8.8,6.5,14.2,7.3c1,0.4,2.1,0.7,3.2,0.7
				c0.4-0.1,0.9-0.1,1.3-0.3c0.4,0.1,0.8,0.2,1.3,0.3c1.1,0,2.2-0.3,3.2-0.7c5.4-0.8,10.4-3.4,14.2-7.3l130.3-138.7
				c2.6-2.7,6.2-4.1,9.9-3.8S426.3,207.1,428.5,210.1L428.5,210.1z"/>
			<path id="Shape_17_" class="st4" d="M329.7,45.7L286.8,40l-19-35.5c-1.6-2.6-4.5-4.2-7.5-4.2c-3.1,0-5.9,1.6-7.5,4.2l-19,35.5
				l-42.8,5.7c-3.3,0.4-6,2.8-7,5.9c-1,3.2,0,6.6,2.5,8.9l30.6,27.4l-7.2,38.5c-0.6,3.2,0.6,6.4,3.2,8.4s6,2.3,8.9,0.9l38.5-18.6
				l38.5,18.6c2.9,1.4,6.3,1,8.9-0.9c2.6-2,3.8-5.2,3.2-8.3l-7.2-38.5l30.6-27.4c2.5-2.2,3.4-5.7,2.5-8.9S333,46.1,329.7,45.7
				L329.7,45.7z M288.7,78.4c-2.2,2-3.2,5-2.7,7.9l5,26.6l-27-13.1c-2.3-1.1-5.1-1.1-7.4,0l-27,13.1l5-26.6c0.5-2.9-0.5-5.9-2.7-7.9
				l-20.3-18.3l28.8-3.8c2.7-0.4,5.1-2,6.4-4.4l13.6-25.3l13.6,25.3c1.3,2.4,3.7,4.1,6.4,4.4l28.8,3.8L288.7,78.4z"/>
			<path id="Shape_18_" class="st4" d="M22.3,334.4c-4.7,0-8.6-3.8-8.6-8.5c0-4.7,3.8-8.6,8.5-8.6h0.1c4.7,0,8.5,3.8,8.5,8.5
				S27.1,334.4,22.3,334.4z"/>
			<path id="Shape_19_" class="st4" d="M46.9,366.9c4.7,0,8.5-3.8,8.5-8.5c0-9.4,7.6-17.1,17.1-17.1c4.7,0,8.5-3.8,8.5-8.5
				s-3.8-8.5-8.5-8.5c-18.9,0-34.1,15.3-34.1,34.1C38.4,363.1,42.2,366.9,46.9,366.9z"/>
			<path id="Shape_20_" class="st4" d="M115.2,460.8h-8.5v-21.5c0.3-12.5,5.5-24.4,14.6-33.1c13.1-13.2,20.2-31.3,19.6-50
				c-1.5-36.1-30.6-65-66.7-66.1c-10.3-0.2-20.5,1.9-29.9,6.2c-2.2,0.9-4,2.7-4.8,5c-0.8,2.3-0.5,4.8,0.8,6.8
				c2.3,3.7,6.9,5.3,11,3.7c7-3.2,14.7-4.8,22.4-4.6c27.1,0.9,48.9,22.5,50.1,49.6c0.5,14-4.8,27.5-14.7,37.5
				c-12.2,11.9-19.2,28.1-19.5,45.1v4.4H55.5v-2.4c-0.4-17.9-7.6-35-20.2-47.8c-9-9.5-14-22.1-14-35.1c0-4.7-3.8-8.5-8.5-8.5
				s-8.5,3.8-8.5,8.5c0,17.4,6.6,34.2,18.6,46.9c9.6,9.6,15.1,22.5,15.5,36v19.5h-8.5c-4.7,0-8.5,3.8-8.5,8.5c0,4.7,3.8,8.5,8.5,8.5
				h8.5c0,18.9,15.3,34.1,34.1,34.1s34.1-15.3,34.1-34.1h8.5c4.7,0,8.5-3.8,8.5-8.5C123.7,464.6,119.9,460.8,115.2,460.8
				L115.2,460.8z M89.6,477.9c0,9.4-7.6,17.1-17.1,17.1s-17.1-7.6-17.1-17.1v-17.1h34.1V477.9z"/>
			<path id="Shape_21_" class="st4" d="M499.1,398.3c1.7-2.6,1.9-6,0.4-8.7l-12.6-23.5c-1.6-3.1-4.9-4.8-8.4-4.5l-14.1,1.4
				L447,352.2l-6.1-14.3c-1.3-3.2-4.4-5.2-7.9-5.2h-29.9c-3.4,0-6.5,2-7.9,5.2l-6.1,14.3L371.9,363l-14.1-1.4
				c-3.4-0.4-6.8,1.4-8.4,4.5l-12.6,23.5c-1.5,2.8-1.3,6.1,0.4,8.7l8.5,12.9v22.4l-8.5,12.9c-1.7,2.6-1.9,6-0.4,8.7l12.6,23.5
				c1.6,3.1,4.9,4.8,8.4,4.5l14.1-1.4l17.4,10.8l6.1,14.3c1.3,3.2,4.4,5.2,7.9,5.2h29.9c3.4,0,6.5-2,7.9-5.2l6.1-14.3l17.4-10.8
				l14.1,1.4c3.4,0.4,6.8-1.4,8.4-4.5l12.6-23.5c1.5-2.8,1.3-6.1-0.4-8.7l-8.5-12.9v-22.4L499.1,398.3z M474.9,440.8l7.1,10.8
				l-7.5,14l-11.3-1.2c-1.9-0.2-3.8,0.2-5.4,1.2l-22.1,13.8c-1.5,0.9-2.7,2.3-3.3,3.9l-4.9,11.5h-18.6l-4.9-11.5
				c-0.7-1.6-1.9-3-3.4-3.9l-22.1-13.8c-1.6-1-3.5-1.4-5.4-1.2l-11.3,1.2l-7.5-14l7.1-10.8c0.9-1.4,1.4-3,1.4-4.7v-27.6
				c0-1.7-0.5-3.3-1.4-4.7l-7.1-10.8l7.5-14l11.3,1.2c1.9,0.2,3.8-0.2,5.4-1.2l22.1-13.8c1.5-0.9,2.7-2.3,3.4-3.9l4.9-11.5h18.6
				l4.9,11.5c0.7,1.6,1.9,3,3.3,3.9l22.1,13.8c1.6,1,3.5,1.4,5.4,1.2l11.3-1.2l7.5,14l-7.1,10.8c-0.9,1.4-1.4,3-1.4,4.7v27.6
				C473.5,437.9,474,439.5,474.9,440.8L474.9,440.8z"/>
			<path id="Shape_22_" class="st4" d="M418.1,384c-21.2,0-38.4,17.2-38.4,38.4c0,21.2,17.2,38.4,38.4,38.4
				c21.2,0,38.4-17.2,38.4-38.4C456.5,401.2,439.3,384,418.1,384z M418.1,443.7c-11.8,0-21.3-9.6-21.3-21.3s9.6-21.3,21.3-21.3
				s21.3,9.6,21.3,21.3c0,5.7-2.2,11.1-6.2,15.1S423.8,443.7,418.1,443.7z"/>
			<path id="Shape_23_" class="st4" d="M139.5,467.3c-1.3,1.9-1.8,4.3-1.3,6.6s1.9,4.3,3.8,5.5c56.8,34,125.5,41.8,188.5,21.6
				c4.2-1.6,6.5-6.3,5.1-10.6c-1.4-4.3-5.9-6.8-10.3-5.6c-58.3,18.7-121.7,11.4-174.3-19.9C147.2,462.5,142.1,463.5,139.5,467.3
				L139.5,467.3z"/>
			<path id="Shape_24_" class="st4" d="M47.2,271.3c3.6-80.1,52.2-151.4,125.4-184.1c2.9-1.2,4.8-3.9,5.2-6.9c0.3-3.1-1-6.1-3.6-7.9
				c-2.5-1.8-5.8-2.1-8.6-0.7C86.5,107,34.1,183.9,30.1,270.4c-0.1,2.3,0.7,4.5,2.2,6.1c1.5,1.7,3.6,2.7,5.9,2.8h0.4
				C43.2,279.3,46.9,275.8,47.2,271.3z"/>
			<path id="Shape_25_" class="st4" d="M473.2,344.4c4.6,1.2,9.2-1.6,10.4-6.1c4.8-18.5,7.1-37.6,7.1-56.7
				c-0.1-90.6-53.2-172.7-135.7-210c-2.8-1.3-6.1-1-8.6,0.8c-2.5,1.8-3.9,4.8-3.5,7.8s2.3,5.7,5.1,6.9
				c76.4,34.5,125.5,110.6,125.6,194.5c0,17.7-2.2,35.3-6.6,52.4c-0.6,2.2-0.2,4.5,0.9,6.5S471,343.8,473.2,344.4L473.2,344.4z"/>
		</g>
	</g>
</g>
</svg>
