<?xml version="1.0" encoding="utf-8"?>
<!-- Generator: Adobe Illustrator 24.3.0, SVG Export Plug-In . SVG Version: 6.00 Build 0)  -->
<svg version="1.1" id="Layer_1" xmlns="http://www.w3.org/2000/svg" xmlns:xlink="http://www.w3.org/1999/xlink" x="0px" y="0px"
	 viewBox="0 0 512 512" style="enable-background:new 0 0 512 512;" xml:space="preserve">
<style type="text/css">
	.st0{fill:#E8EDFC;}
	.st1{fill:#CAD9FC;}
	.st2{fill:#A4C2F7;}
	.st3{fill:#FFFFFF;}
	.st4{fill:#0A1840;}
</style>
<g id="Page-1">
	<g id="_x30_21---Ideas" transform="translate(-1 -1)">
		<circle id="Oval" class="st0" cx="257" cy="257" r="68.3"/>
		<path id="Shape" class="st1" d="M257,188.7c-4.3,0-8.6,0.4-12.8,1.2c32.1,6.2,55.3,34.3,55.3,67s-23.2,60.8-55.3,67
			c25.5,4.9,51.6-5,67.3-25.7s18.3-48.5,6.8-71.7C306.7,203.4,283,188.7,257,188.7L257,188.7z"/>
		<path id="Shape_1_" class="st1" d="M197.3,325.3h119.5c23.6,0,42.7,19.1,42.7,42.7v128c0,4.7-3.8,8.5-8.5,8.5H163.1
			c-4.7,0-8.5-3.8-8.5-8.5v-128C154.6,344.4,173.7,325.3,197.3,325.3z"/>
		<path id="Shape_2_" class="st2" d="M316.7,325.3h-25.6c23.6,0,42.7,19.1,42.7,42.7v128c0,4.7-3.8,8.5-8.5,8.5h25.6
			c4.7,0,8.5-3.8,8.5-8.5v-128C359.4,344.4,340.3,325.3,316.7,325.3z"/>
		<path id="Shape_3_" class="st0" d="M77.8,43.7L91,69l29.5,4.1L99.1,92.7l5,27.8l-26.4-13.1l-26.4,13.1l5-27.8L35.1,73L64.6,69
			L77.8,43.7z"/>
		<path id="Shape_4_" class="st0" d="M419.1,120.5l13.2,25.3l29.5,4.1l-21.3,19.7l5,27.8l-26.4-13.1l-26.4,13.1l5-27.8l-21.3-19.7
			l29.5-4.1L419.1,120.5z"/>
		<path id="Shape_5_" class="st1" d="M461.8,149.8l-29.5-4.1l-13.2-25.3L406.3,145l0.4,0.7l29.5,4.1l-21.3,19.7l2.8,15.4l1.5-0.7
			l26.4,13.1l-5-27.8L461.8,149.8z"/>
		<path id="Shape_6_" class="st0" d="M111.9,222.9l13.2,25.3l29.5,4.1l-21.3,19.7l5,27.8l-26.4-13.1l-26.4,13.1l5-27.8l-21.3-19.7
			l29.5-4.1L111.9,222.9z"/>
		<path id="Shape_7_" class="st3" d="M180.2,495.9v-128c0-23.6,19.1-42.7,42.7-42.7h-25.6c-23.6,0-42.7,19.1-42.7,42.7v128
			c0,4.7,3.8,8.5,8.5,8.5h25.6c-2.3,0-4.4-0.9-6-2.5S180.2,498.2,180.2,495.9z"/>
		<path id="Shape_8_" class="st3" d="M269.8,324c-32.1-6.2-55.3-34.3-55.3-67s23.2-60.8,55.3-67c-8.5-1.7-17.1-1.7-25.6,0
			c-32.1,6.2-55.3,34.3-55.3,67s23.2,60.8,55.3,67c4.8,0.9,9.6,1.4,14.5,1.2h0.9C263,325.1,266.4,324.7,269.8,324z"/>
		<path id="Rectangle-path" class="st3" d="M146.1,367.9h17.1v68.3h-17.1V367.9z"/>
		<g>
			<path id="Shape_9_" class="st4" d="M154.8,410.6c-4.7,0-8.6-3.8-8.6-8.5c0-4.7,3.8-8.6,8.5-8.6h0.1c4.7,0,8.5,3.8,8.5,8.5
				S159.5,410.6,154.8,410.6L154.8,410.6z"/>
			<path id="Shape_10_" class="st4" d="M316.7,316.7h-11.6c25.4-20.4,35.1-54.6,24.3-85.4c-10.8-30.7-39.9-51.3-72.4-51.3
				s-61.6,20.5-72.4,51.3c-10.8,30.7-1.1,64.9,24.3,85.4h-11.6c-28.3,0-51.2,22.9-51.2,51.2c0,4.7,3.8,8.5,8.5,8.5s8.5-3.8,8.5-8.5
				c0-18.9,15.3-34.1,34.1-34.1h119.5c18.9,0,34.1,15.3,34.1,34.1v128h-34.1V393.5c0-4.7-3.8-8.5-8.5-8.5s-8.5,3.8-8.5,8.5v102.4
				h-85.3V393.5c0-4.7-3.8-8.5-8.5-8.5c-4.7,0-8.5,3.8-8.5,8.5v102.4h-34.1v-59.7c0-4.7-3.8-8.5-8.5-8.5s-8.5,3.8-8.5,8.5v59.7
				c0,9.4,7.6,17.1,17.1,17.1h187.7c9.4,0,17.1-7.6,17.1-17.1v-128C367.9,339.7,345,316.8,316.7,316.7z M197.3,257
				c0-33,26.7-59.7,59.7-59.7s59.7,26.7,59.7,59.7S290,316.7,257,316.7C224,316.7,197.3,290,197.3,257z"/>
			<path id="Shape_11_" class="st4" d="M392.3,238.7c-0.4-3-2.4-5.6-5.2-6.7c-2.8-1.2-6.1-0.7-8.5,1.2c-2.4,1.9-3.6,4.9-3.2,7.9
				c0.7,5.3,1.1,10.6,1.1,16c0,18.5-4.3,36.8-12.6,53.3c-1.4,2.7-1.2,6,0.5,8.5c1.7,2.6,4.6,4,7.6,3.8s5.8-2,7.1-4.7
				c9.5-18.9,14.4-39.8,14.4-61C393.5,250.9,393.1,244.7,392.3,238.7L392.3,238.7z"/>
			<path id="Shape_12_" class="st4" d="M257,120.5c-44.8,0-86.7,22-112.2,58.8c-2.7,3.9-1.7,9.2,2.2,11.9s9.2,1.7,11.9-2.2
				c36.2-52.4,107.1-67.1,161.2-33.5c4,2.5,9.3,1.3,11.8-2.7s1.3-9.3-2.7-11.8C307.4,127.6,282.5,120.5,257,120.5L257,120.5z"/>
			<path id="Shape_13_" class="st4" d="M393.5,394.3c2.3,0,4.6-1,6.2-2.7c34.4-36.4,53.6-84.5,53.5-134.6c0-7.9-0.5-15.9-1.4-23.8
				c-0.6-4.6-4.9-7.9-9.5-7.3c-4.6,0.6-8,4.8-7.4,9.5c0.9,7.2,1.3,14.4,1.3,21.6c0.1,45.7-17.4,89.7-48.9,122.9
				c-2.4,2.5-3,6.1-1.7,9.3C387,392.3,390.1,394.3,393.5,394.3z"/>
			<path id="Shape_14_" class="st4" d="M379.7,123.5c3.6,0,6.7-2.2,8-5.5c1.2-3.3,0.3-7.1-2.4-9.4c-72.5-62.6-179.5-63.8-253.4-2.9
				c-3.5,3-3.9,8.3-0.9,11.8c2.9,3.6,8.1,4.1,11.8,1.3c67.4-55.6,165.1-54.5,231.3,2.6C375.7,122.7,377.6,123.4,379.7,123.5z"/>
			<path id="Shape_15_" class="st4" d="M91.6,151.3c-11.3,17.7-19.7,37-24.9,57.4c-1.2,4.6,1.6,9.2,6.2,10.4
				c0.7,0.2,1.4,0.3,2.1,0.3c3.9,0,7.3-2.6,8.3-6.4c4.7-18.6,12.4-36.3,22.7-52.4c2.5-4,1.4-9.2-2.6-11.8
				C99.4,146.1,94.1,147.3,91.6,151.3L91.6,151.3z"/>
			<path id="Shape_16_" class="st4" d="M94.8,333.3c-1.3-2.8-4-4.7-7-5c-3.1-0.3-6.1,1.1-7.8,3.7c-1.7,2.6-2,5.9-0.6,8.6
				c8.9,18.7,20.6,35.9,34.9,51c3.2,3.4,8.6,3.6,12.1,0.4c3.4-3.2,3.6-8.6,0.4-12.1C113.7,366.2,102.9,350.4,94.8,333.3z"/>
			<path id="Shape_17_" class="st4" d="M486.1,163.1c-4.4,1.7-6.6,6.6-5,11c38.5,104.1,0.2,220.9-92.3,282.2
				c-3.7,2.7-4.6,7.8-2.1,11.6s7.6,5,11.5,2.6c99.2-65.6,140.1-190.8,98.9-302.4C495.5,163.7,490.5,161.4,486.1,163.1L486.1,163.1z"
				/>
			<path id="Shape_18_" class="st4" d="M415.9,56.4c-81.1-64.3-193-73.4-283.4-23c-4,2.4-5.4,7.5-3.1,11.5c2.3,4,7.4,5.5,11.5,3.4
				c99.3-55.1,223.7-32.8,297.6,53.4c5.1,5.8,9.8,11.9,14.2,18.3c1.7,2.5,4.7,3.9,7.7,3.7c3-0.2,5.7-2.1,7-4.8
				c1.3-2.8,1.1-6-0.7-8.5c-4.7-6.9-9.8-13.5-15.3-19.7C440.7,77.9,428.8,66.5,415.9,56.4L415.9,56.4z"/>
			<path id="Shape_19_" class="st4" d="M125.2,456.2C32.9,395.1-5.4,278.8,32.6,174.9c1.6-4.4-0.7-9.3-5.1-10.9
				c-4.4-1.6-9.3,0.7-10.9,5.1c-40.7,111.3,0.4,236,99.2,301.5c2.5,1.8,5.9,2.1,8.7,0.8c2.8-1.4,4.7-4.2,4.8-7.3
				C129.4,460.8,127.8,457.8,125.2,456.2L125.2,456.2z"/>
			<path id="Shape_20_" class="st4" d="M128.6,70.4c-1-3.2-3.7-5.4-7-5.9l-25.1-3.5L85.4,39.8c-1.6-2.6-4.5-4.2-7.6-4.2
				c-3.1,0-6,1.6-7.6,4.2L59.1,61.1L34,64.5c-3.3,0.5-6,2.7-7,5.9c-1,3.1-0.1,6.6,2.3,8.8l17.9,16.5l-4.2,23.2
				c-0.6,3.2,0.7,6.4,3.2,8.3c2.6,1.9,6,2.3,8.9,0.9l22.6-11.3l22.6,11.3c2.9,1.4,6.4,1.1,8.9-0.9c2.6-1.9,3.8-5.2,3.3-8.3
				l-4.2-23.2l17.9-16.5C128.7,77,129.6,73.6,128.6,70.4L128.6,70.4z M93.3,86.4c-2.1,2-3.1,4.9-2.6,7.8l2,11l-11.1-5.5
				c-2.4-1.2-5.2-1.2-7.6,0L63,105.2l2-11c0.5-2.9-0.5-5.8-2.6-7.8L54.2,79l11.6-1.6c2.7-0.4,5.1-2.1,6.4-4.5l5.6-10.8l5.6,10.8
				c1.3,2.5,3.7,4.1,6.4,4.5l11.6,1.6L93.3,86.4z"/>
			<path id="Shape_21_" class="st4" d="M469.9,147.2c-1-3.2-3.7-5.4-7-5.9l-25.1-3.4l-11.1-21.3c-1.6-2.6-4.5-4.2-7.6-4.2
				c-3.1,0-6,1.6-7.6,4.2l-11.1,21.3l-25.1,3.4c-3.3,0.5-6,2.7-7,5.9c-1,3.1-0.1,6.6,2.3,8.8l17.9,16.5l-4.2,23.2
				c-0.6,3.2,0.7,6.4,3.2,8.3s6,2.3,8.9,0.9l22.6-11.3l22.6,11.3c2.9,1.4,6.4,1.1,8.9-0.9c2.6-1.9,3.8-5.2,3.3-8.3l-4.2-23.2
				l17.9-16.5C470,153.8,470.9,150.4,469.9,147.2L469.9,147.2z M434.7,163.2c-2.1,2-3.1,4.9-2.6,7.8l2,11l-11.1-5.5
				c-2.4-1.2-5.2-1.2-7.6,0l-11.1,5.5l2-11c0.5-2.9-0.5-5.8-2.6-7.8l-8-7.4l11.6-1.6c2.7-0.4,5.1-2.1,6.4-4.5l5.5-10.8l5.6,10.8
				c1.3,2.5,3.7,4.1,6.4,4.5l11.6,1.6L434.7,163.2z"/>
			<path id="Shape_22_" class="st4" d="M146.7,298.1l-4.2-23.2l17.9-16.5c2.4-2.2,3.3-5.7,2.3-8.8c-1-3.1-3.7-5.4-7-5.9l-25.1-3.4
				L119.5,219c-1.6-2.6-4.5-4.2-7.6-4.2s-6,1.6-7.6,4.2l-11.1,21.3l-25.1,3.4c-3.3,0.5-6,2.7-7,5.9c-1,3.1-0.1,6.6,2.3,8.8L81.4,275
				l-4.2,23.2c-0.6,3.2,0.7,6.4,3.2,8.3c2.6,1.9,6,2.3,8.9,0.9l22.6-11.3l22.6,11.3c2.9,1.4,6.4,1.1,8.9-0.9
				C146,304.6,147.3,301.3,146.7,298.1L146.7,298.1z M127.5,265.6c-2.1,2-3.1,4.9-2.6,7.8l2,11l-11.1-5.5c-2.4-1.2-5.2-1.2-7.6,0
				l-11.1,5.5l2-11c0.5-2.9-0.5-5.8-2.6-7.8l-8-7.4l11.6-1.6c2.7-0.4,5.1-2.1,6.4-4.5l5.5-10.8l5.6,10.8c1.3,2.5,3.7,4.1,6.4,4.5
				l11.6,1.6L127.5,265.6z"/>
		</g>
	</g>
</g>
</svg>
