<?xml version="1.0" encoding="utf-8"?>
<!-- Generator: Adobe Illustrator 24.3.0, SVG Export Plug-In . SVG Version: 6.00 Build 0)  -->
<svg version="1.1" id="Layer_1" xmlns="http://www.w3.org/2000/svg" xmlns:xlink="http://www.w3.org/1999/xlink" x="0px" y="0px"
	 viewBox="0 0 512 512" style="enable-background:new 0 0 512 512;" xml:space="preserve">
<style type="text/css">
	.st0{fill:#E8EDFC;}
	.st1{fill:#CAD9FC;}
	.st2{fill:#7FACFA;}
	.st3{fill:#FFFFFF;}
	.st4{fill:#0A1840;}
</style>
<g id="Page-1">
	<g id="_x30_24---Human-Pose">
		<path id="Shape" class="st0" d="M51.2,117v278C-5.7,311.1-5.7,200.9,51.2,117z"/>
		<path id="Shape_1_" class="st0" d="M503.5,256c0.1,49.6-14.8,98-42.7,139V117C488.7,158,503.6,206.4,503.5,256z"/>
		<path id="Shape_2_" class="st1" d="M460.8,117v48.5c22.8,58.2,22.8,122.8,0,181V395C517.7,311.1,517.7,200.9,460.8,117z"/>
		<path id="Shape_3_" class="st0" d="M442.9,93.9H69.1C116.1,39.7,184.3,8.5,256,8.5S395.9,39.7,442.9,93.9z"/>
		<path id="Shape_4_" class="st1" d="M256,8.5c-4.3,0-8.5,0.1-12.8,0.3c67.2,3.4,130.1,34.1,174.1,85h25.6
			C396,39.6,327.7,8.4,256,8.5L256,8.5z"/>
		<path id="Shape_5_" class="st1" d="M460.8,102.4V395c-21,30.9-48.8,56.7-81.2,75.3h-0.1c-37.6,21.7-80.2,33.2-123.6,33.1v-0.1
			c-44.3,0.2-87.8-11.7-125.8-34.3c-31.5-18.6-58.5-43.8-79-74.1V102.4c0-4.7,3.8-8.5,8.5-8.5h392.5
			C457,93.9,460.8,97.7,460.8,102.4L460.8,102.4z"/>
		<path id="Shape_6_" class="st2" d="M452.3,93.9h-25.6c4.7,0,8.5,3.8,8.5,8.5V395c-21,30.9-48.8,56.7-81.2,75.3H354
			c-33.6,19.5-71.4,30.6-110.3,32.6c4.1,0.2,8.2,0.4,12.3,0.4v0.1c43.4,0,86-11.4,123.6-33.1h0.1c32.4-18.7,60.1-44.4,81.2-75.3
			V102.4C460.8,97.7,457,93.9,452.3,93.9z"/>
		<path id="Shape_7_" class="st1" d="M256,503.4L256,503.4l-196.3,0.1c-4.7,0-8.5-3.8-8.5-8.5V395c20.5,30.2,47.5,55.5,79,74.1
			C168.2,491.7,211.7,503.6,256,503.4z"/>
		<path id="Shape_8_" class="st1" d="M460.8,395v99.9c0,4.7-3.8,8.5-8.5,8.5l-196.3,0c43.4,0,86-11.4,123.6-33.1h0.1
			C412,451.7,439.8,425.9,460.8,395z"/>
		<path id="Shape_9_" class="st2" d="M435.2,426.7v68.3c0,4.7-3.8,8.5-8.5,8.5h25.6c4.7,0,8.5-3.8,8.5-8.5V395
			C453.1,406.2,444.6,416.8,435.2,426.7z"/>
		<circle id="Oval" class="st0" cx="256" cy="145.1" r="51.2"/>
		<path id="Shape_10_" class="st1" d="M256,93.9c-4.3,0-8.6,0.6-12.8,1.7c22.6,5.8,38.4,26.2,38.4,49.5s-15.8,43.7-38.4,49.5
			c19.2,5,39.6-1.6,52.3-16.8c12.7-15.3,15.4-36.5,6.9-54.5S275.9,93.8,256,93.9L256,93.9z"/>
		<path id="Shape_11_" class="st0" d="M232.4,196.3h-72.4l-56.4-56.4c-6.8-6.4-9.7-16-7.4-25.1s9.4-16.2,18.5-18.5
			c9.1-2.3,18.7,0.5,25.1,7.4L232.4,196.3z"/>
		<path id="Shape_12_" class="st0" d="M408.3,139.9l-56.4,56.4h-72.4l92.6-92.6c6.4-6.8,16-9.7,25.1-7.4s16.2,9.4,18.5,18.5
			C418,123.9,415.2,133.5,408.3,139.9L408.3,139.9z"/>
		<path id="Shape_13_" class="st1" d="M408.3,103.7c-8.2-8.3-20.9-9.9-30.9-4c6.9,3.9,11.6,10.9,12.7,18.8c1,7.9-1.7,15.8-7.4,21.4
			l-56.4,56.4h25.6l56.4-56.4C418.3,129.9,418.3,113.7,408.3,103.7L408.3,103.7z"/>
		<path id="Shape_14_" class="st0" d="M460.8,221.9c0,14.1-11.5,25.6-25.6,25.6h-128v103l77.8,77.8c10,10,10,26.2,0,36.2
			c-1.8,1.8-3.9,3.4-6.1,4.6c-9.9,5.3-22.1,3.4-30-4.6l-41.6-41.6l-47.4-47.4h-7.5l-47.4,47.4l-41.6,41.6c-8.6,8.6-22,10-32.2,3.3
			c-1.5-0.9-2.8-2.1-4-3.3c-10-10-10-26.2,0-36.2l77.8-77.8v-103h-128c-14.1,0-25.6-11.5-25.6-25.6c0-14.1,11.5-25.6,25.6-25.6
			h358.4C449.3,196.3,460.8,207.7,460.8,221.9L460.8,221.9z"/>
		<path id="Shape_15_" class="st1" d="M307.2,350.5v-103h-25.6v103l77.8,77.8c10,10,10,26.2,0,36.2c-1.6,1.6-3.3,2.9-5.3,4
			c7.6,4.5,17,4.7,24.7,0.6c2.3-1.2,4.3-2.8,6.1-4.6c10-10,10-26.2,0-36.2L307.2,350.5z"/>
		<path id="Shape_16_" class="st1" d="M435.2,196.3h-25.6c14.1,0,25.6,11.5,25.6,25.6c0,14.1-11.5,25.6-25.6,25.6h25.6
			c14.1,0,25.6-11.5,25.6-25.6C460.8,207.7,449.3,196.3,435.2,196.3z"/>
		<path id="Shape_17_" class="st0" d="M256,375.5l0,102.4c0,11.7-8,22-19.4,24.8h-0.1c-2,0.5-4.1,0.8-6.1,0.8c-4,0-7.9-1-11.4-2.8
			h-0.2c-8.6-4.3-14-13.1-14-22.8v-55l47.4-47.4H256z"/>
		<path id="Shape_18_" class="st1" d="M252.2,375.5l-21.8,21.8v80.6c0,9.1-4.9,17.6-12.8,22.1c0.4,0.2,0.8,0.5,1.2,0.7h0.2
			c3.5,1.9,7.5,2.8,11.4,2.8c2.1,0,4.1-0.3,6.1-0.8h0.1c11.4-2.8,19.4-13.1,19.4-24.8l0-102.4L252.2,375.5z"/>
		<path id="Shape_19_" class="st0" d="M307.2,422.8v55c0,9.6-5.4,18.5-14,22.8H293c-3.5,1.8-7.5,2.8-11.4,2.8
			c-2.1,0-4.1-0.3-6.1-0.8h-0.1c-11.4-2.8-19.4-13.1-19.4-24.8l0-102.4h3.8L307.2,422.8z"/>
		<path id="Shape_20_" class="st1" d="M259.8,375.5H256v21.8l25.6,25.6v55c0,9.1-4.9,17.6-12.8,22.1c2.1,1.2,4.3,2.1,6.6,2.7h0.1
			c2,0.5,4.1,0.8,6.1,0.8c4,0,7.9-1,11.4-2.8h0.2c8.6-4.3,14-13.1,14-22.8v-55L259.8,375.5z"/>
		<path id="Shape_21_" class="st3" d="M9.6,186.3l16.4,4.6c-5.9,21.2-9,43.1-9,65.1H0C0,232.4,3.3,209,9.6,186.3z"/>
		<g>
			<path id="Shape_22_" class="st4" d="M11,230.5c-4.7,0-8.6-3.8-8.6-8.5c0-4.7,3.8-8.6,8.5-8.6H11c4.7,0,8.5,3.8,8.5,8.5
				S15.8,230.5,11,230.5z"/>
			<path id="Shape_23_" class="st4" d="M469.3,114.5v-12.1c0-9.4-7.6-17.1-17.1-17.1h-5.6C398.1,31,328.8,0,256,0
				S113.9,31,65.4,85.3h-5.6c-9.4,0-17.1,7.6-17.1,17.1v12.2c-14.7,22-25.8,46.2-33,71.7c-0.7,2.2-0.4,4.6,0.8,6.6
				c1.1,2,3,3.4,5.3,4c4.5,1.1,9.1-1.5,10.4-6c4.2-14.6,9.7-28.7,16.6-42.2v214.8C25.8,330.2,17,293.4,17.1,256
				c0-4.7-3.8-8.5-8.5-8.5S0,251.3,0,256c-0.1,50.3,14.8,99.6,42.7,141.5v97.5c0,9.4,7.6,17.1,17.1,17.1h392.5
				c9.4,0,17.1-7.6,17.1-17.1v-97.5C526.2,311.7,526.2,200.3,469.3,114.5L469.3,114.5z M300.2,187.7l78-78c6.7-6.5,17.4-6.5,24.1,0
				c6.7,6.7,6.7,17.5,0,24.1l-53.9,53.9H300.2z M315.6,148.2c0.1-1,0.2-2.1,0.2-3.1c0-16.1-6.5-31.5-18-42.7h63.6L315.6,148.2z
				 M298.7,145.1c0,23.6-19.1,42.7-42.7,42.7c-23.6,0-42.7-19.1-42.7-42.7s19.1-42.7,42.7-42.7C279.6,102.4,298.6,121.5,298.7,145.1
				z M196.3,145.1c0,1,0.1,2.1,0.2,3.1l-45.8-45.8h63.6C202.8,113.6,196.3,129,196.3,145.1L196.3,145.1z M109.7,109.7
				c6.7-6.5,17.4-6.5,24.1,0l78,78h-48.2l-53.9-53.9C103.1,127.2,103.1,116.4,109.7,109.7z M435.2,204.8c9.4,0,17.1,7.6,17.1,17.1
				c0,9.4-7.6,17.1-17.1,17.1h-128c-4.7,0-8.5,3.8-8.5,8.5v103c0,2.3,0.9,4.4,2.5,6l77.8,77.8c6.6,6.7,6.6,17.4,0,24.1
				c-1.2,1.2-2.6,2.3-4.1,3.1c-6.6,3.5-14.8,2.3-20-3.1l-41.5-41.5l-0.2-0.2l-47.3-47.3c-1.6-1.6-3.8-2.5-6-2.5h-7.5
				c-2.3,0-4.4,0.9-6,2.5l-47.3,47.3l-0.2,0.2l-41.6,41.5c-5.7,5.8-14.7,6.7-21.5,2.2c-1-0.6-1.8-1.4-2.6-2.2
				c-6.7-6.7-6.7-17.5,0-24.1l77.8-77.8c1.6-1.8,2.5-4.2,2.5-6.6V247.5c0-4.7-3.8-8.5-8.5-8.5h-128c-9.4,0-17.1-7.6-17.1-17.1
				c0-9.4,7.6-17.1,17.1-17.1H435.2z M290.1,492.6c-0.3,0.1-0.7,0.3-1,0.4c-3.5,1.9-7.7,2.3-11.5,1.4l-0.5-0.1
				c-7.4-2-12.5-8.8-12.5-16.5v-85.2l34.1,34v51.2C298.7,484,295.4,489.6,290.1,492.6L290.1,492.6z M221.9,492.6
				c-5.3-3-8.6-8.6-8.6-14.8v-51.5l34.1-34.1v85.6c0,7.7-5.1,14.4-12.5,16.5l-0.6,0.1c-3.9,1-8,0.5-11.5-1.4
				C222.6,492.9,222.2,492.8,221.9,492.6L221.9,492.6z M76.8,256h119.5v90.9l-75.3,75.3c-6.2,6.3-9.8,14.7-9.9,23.6
				c-19.8-15.1-37-33.2-51.3-53.6v-141C64.9,254.3,70.8,256,76.8,256L76.8,256z M169.2,470.5l27.1-27.1v34.4c0,3.4,0.5,6.7,1.5,9.9
				c-12.2-3-24-7.1-35.5-12C164.8,474.3,167.1,472.6,169.2,470.5z M315.7,477.9v-34.3l27,26.9c2.1,2,4.4,3.8,7,5.3
				c-11.5,4.9-23.4,9-35.5,12C315.2,484.5,315.7,481.2,315.7,477.9L315.7,477.9z M401,445.8c-0.1-8.8-3.7-17.3-9.9-23.6l-75.3-75.3
				V256h119.5c6,0,11.9-1.7,17.1-4.7v141C438,412.6,420.7,430.7,401,445.8L401,445.8z M452.3,192.5c-5.2-3.1-11.1-4.7-17.1-4.8
				h-62.7l41.8-41.8c11.6-11.7,13.3-30,3.9-43.5h34.1L452.3,192.5z M256,17.1c62.5,0,122.5,24.5,167.1,68.3H88.9
				C133.5,41.6,193.5,17,256,17.1z M93.8,102.4c-9.4,13.5-7.7,31.9,3.9,43.5l41.8,41.8H76.8c-6,0-11.9,1.7-17.1,4.7v-90.1H93.8z
				 M59.7,420.3c18.7,22.3,41.1,41.3,66.1,56.1c12.2,7.2,25,13.4,38.2,18.5H59.7L59.7,420.3z M347.9,494.9
				c12.2-4.7,24-10.3,35.3-16.8c0.3-0.1,0.5-0.2,0.8-0.4c26-15,49.1-34.5,68.4-57.5v74.7H347.9z M469.3,148.5
				c34.1,67.6,34.1,147.4,0,215V148.5z"/>
		</g>
	</g>
</g>
</svg>
