<svg id="Layer_1" data-name="Layer 1" xmlns="http://www.w3.org/2000/svg" viewBox="0 0 762 762"><defs><style>.cls-1{fill:none;stroke:#fb0;stroke-miterlimit:10;stroke-width:25px;}.cls-2{fill:#fb0;}</style></defs><circle class="cls-1" cx="381" cy="381.64" r="365"/><path class="cls-2" d="M270,150c-33.4,0-60,28-60,61a60,60,0,1,0,120,0C330,178,303.3,150,270,150Zm0,91a30.09,30.09,0,0,1-30-30c0-16.8,13.7-31,30-31s30,14.2,30,31A30.09,30.09,0,0,1,270,241Z"/><path class="cls-2" d="M602,150H390a45.07,45.07,0,0,0-45,45v102.4l-13.2-13.2A44.71,44.71,0,0,0,300,271H210a75,75,0,0,0-75,75v90a45.07,45.07,0,0,0,45,45,43.79,43.79,0,0,0,15-2.6V617a45,45,0,0,0,75,33.5A45,45,0,0,0,345,617V418.38a45.1,45.1,0,0,0,35.1-2.2l50.5-25.3H602a45.07,45.07,0,0,0,45-45V195A45.07,45.07,0,0,0,602,150ZM426.7,359.38l-60,30a15,15,0,0,1-17.3-2.8l-8.8-8.8c-9.3-9.3-25.6-3-25.6,10.6h0V617a15,15,0,0,1-30,0V466a15,15,0,0,0-30,0V617a15,15,0,0,1-30,0V346a15,15,0,0,0-30,0v90a15,15,0,0,1-30,0V346a45.07,45.07,0,0,1,45-45h90a15,15,0,0,1,10.6,4.4l44.7,44.7a14.9,14.9,0,0,0,17.3,2.8l40.7-20.3a15,15,0,0,1,13.4,26.8ZM617,346a15,15,0,0,1-15,15H462.4c.1-.3.2-.5.3-.8a44.64,44.64,0,0,0,2-19.8l82-41a15,15,0,1,0-13.4-26.8l-82,41a45,45,0,0,0-51.4-7.8L375,318.18V195a15,15,0,0,1,15-15H602a15,15,0,0,1,15,15Z"/></svg>