<svg id="Layer_1" data-name="Layer 1" xmlns="http://www.w3.org/2000/svg" viewBox="0 0 762 762"><defs><style>.cls-1{fill:#dc3545;}.cls-2{fill:none;stroke:#dc3545;stroke-miterlimit:10;stroke-width:25px;}</style></defs><path class="cls-1" d="M625.7,363.3H485A104,104,0,0,0,428.7,274a71.2,71.2,0,1,0-95.4,0A104.3,104.3,0,0,0,277,363.3H136.3A11.29,11.29,0,0,0,125,374.6V542a11.29,11.29,0,0,0,11.3,11.3H155v60H607v-60h18.7A11.29,11.29,0,0,0,637,542V374.7A11.37,11.37,0,0,0,625.7,363.3ZM340,225a41.22,41.22,0,1,1,37.3,37.3A41.21,41.21,0,0,1,340,225Zm41,67.4a74,74,0,0,1,73.9,70.9H307.1A74,74,0,0,1,381,292.4ZM577,583.5H185v-30H577Zm30-60.1H155V393.3H607Z"/><circle class="cls-2" cx="381" cy="381.64" r="365"/></svg>