<svg id="Layer_1" data-name="Layer 1" xmlns="http://www.w3.org/2000/svg" viewBox="0 0 762 762"><defs><style>.cls-1{fill:none;stroke:#28a745;stroke-miterlimit:10;stroke-width:25px;}.cls-2{fill:#28a745;}</style></defs><circle class="cls-1" cx="381" cy="381.64" r="365"/><path class="cls-2" d="M381.05,327.53c-23.1-41.8-59.4-69.3-106.3-69.3-70.4,0-121.3,58.5-121.3,130.4,0,86.6,86.3,151.8,162.5,215.7,12,10,24.3,20.4,37.1,31.3a48.41,48.41,0,0,0,62.5-.2c132.5-114.7,193-166.4,193-246.8,0-71.8-50.9-130.4-121.3-130.4-46.8,0-83.1,27.5-106.2,69.3Zm0,48.5a30,30,0,1,1-30,30A30.09,30.09,0,0,1,381.05,376ZM396,612.73a18,18,0,0,1-23.4,0c-12.9-11-50.4-42.5-56.7-47.8a44.79,44.79,0,0,0,18.9-58.2,105.31,105.31,0,0,1,94.3.9,45,45,0,0,0,8.6,51.3,46.32,46.32,0,0,0,10.9,8C432.65,581,415.15,596.13,396,612.73Zm91.4-324.5c52,0,91.3,43.1,91.3,100.4,0,49.2-29.7,87.4-98.2,150-2,.6-12.3,8.3-21.4-.8a15.14,15.14,0,0,1,.7-21.9c60.3-54.8,88.9-87.9,88.9-127.8h-30c0,24.1-17.1,48.3-69.2,96.6a135.26,135.26,0,0,0-135-.9c-44-39-70.8-69.1-70.8-95.6h-30c0,39.9,33.1,76.5,90.2,126.2a15.14,15.14,0,0,1,.9,22.1c-9.4,9.4-21.7.6-21.6.6-61.4-53.7-99.5-96.4-99.5-148.3,0-57.2,39.2-100.4,91.3-100.4,47.2,0,72.7,37.3,84.3,62a60,60,0,1,0,44,0c11.4-24.9,36.9-62.2,84.1-62.2Z"/><path class="cls-2" d="M246.05,135a59.11,59.11,0,0,0-42.6,18.2,61.39,61.39,0,0,0-17.4,42.8,60,60,0,0,0,120,0,61.39,61.39,0,0,0-17.4-42.8A59.28,59.28,0,0,0,246.05,135Zm0,91a30.09,30.09,0,0,1-30-30c0-16.8,13.7-31,30-31s30,14.2,30,31A30,30,0,0,1,246.05,226Z"/><path class="cls-2" d="M576.05,196a61.39,61.39,0,0,0-17.4-42.8,59,59,0,0,0-85.2,0,61.39,61.39,0,0,0-17.4,42.8,60,60,0,0,0,120,0Zm-90,0c0-16.8,13.7-31,30-31s30,14.2,30,31a30,30,0,0,1-60,0Z"/></svg>