<?xml version="1.0" encoding="utf-8"?>
<!-- Generator: Adobe Illustrator 24.2.1, SVG Export Plug-In . SVG Version: 6.00 Build 0)  -->
<svg version="1.1" id="Layer_1" xmlns="http://www.w3.org/2000/svg" xmlns:xlink="http://www.w3.org/1999/xlink" x="0px" y="0px"
	 viewBox="0 0 762 762" style="enable-background:new 0 0 762 762;" xml:space="preserve">
<style type="text/css">
	.st0{fill:none;stroke:#28A745;stroke-width:25;stroke-miterlimit:10;}
	.st1{fill:#28A745;}
</style>
<circle class="st0" cx="381" cy="381.6" r="365"/>
<g>
	<g>
		<g>
			<g>
				<g>
					<g>
						<g>
							<path class="st1" d="M579.7,343c-4.3,0-8.1-2.8-9.5-6.8c-1.3-3.8-0.1-8.1,2.9-10.8c3.3-2.9,8.2-3.3,11.9-1
								c3.5,2.2,5.3,6.3,4.6,10.3C588.7,339.4,584.5,343,579.7,343z"/>
						</g>
					</g>
				</g>
			</g>
			<g>
				<g>
					<g>
						<path class="st1" d="M426.2,357.5c-39.1,0-70.9-31.8-70.9-70.9c0-39.1,31.8-70.9,70.9-70.9s70.9,31.8,70.9,70.9
							C497.1,325.7,465.3,357.5,426.2,357.5z M426.2,235.8c-28,0-50.8,22.8-50.8,50.8c0,28,22.8,50.8,50.8,50.8s50.8-22.8,50.8-50.8
							C477,258.6,454.2,235.8,426.2,235.8z"/>
					</g>
				</g>
			</g>
		</g>
	</g>
	<g>
		<g>
			<g>
				<path class="st1" d="M574.5,370.4c-5.2-1.8-11,0.9-12.8,6.2c-7.1,20.5-18.6,38.7-34.1,54.1c-5.3,5.3-11.1,10.2-17.1,14.7v-45.1
					c0-16.7-13.6-30.3-30.3-30.3H372.3c-16.7,0-30.3,13.6-30.3,30.3v45.3c-6.1-4.4-11.9-9.4-17.2-14.7
					c-55.9-55.9-55.9-146.9,0.1-202.9c27.1-27.1,63.1-42.1,101.5-42.1h0.1c38.3,0,74.3,14.9,101.3,42c15.6,15.6,27,33.9,34.2,54.5
					c1.8,5.2,7.5,8,12.8,6.2c5.2-1.8,8-7.5,6.2-12.8c-8.1-23.6-21.2-44.5-38.9-62.2c-30.9-30.9-71.9-47.9-115.6-47.9h-0.1
					c-43.7,0-84.8,17.1-115.7,48c-63.8,63.8-63.9,167.6-0.1,231.3c10.9,10.9,23.2,20.2,36.6,27.6c0,0,0,0,0,0
					c24,13.3,51.3,20.3,78.9,20.3h0.2c27.6,0,55-7.1,79.1-20.4c0,0,0,0,0,0c13.3-7.4,25.6-16.6,36.5-27.5
					c17.6-17.6,30.7-38.4,38.8-61.7C582.5,377.9,579.7,372.2,574.5,370.4L574.5,370.4z M362.1,457.7v-57.5c0-5.6,4.6-10.2,10.2-10.2
					h107.9c5.6,0,10.2,4.6,10.2,10.2v57.4C450.3,477.7,402.2,477.7,362.1,457.7L362.1,457.7z"/>
				<path class="st1" d="M426.2,117.2c-116.9,0-212,95.1-212,212c0,46,14.7,88.7,39.7,123.4L234.6,472l-4.8-4.8
					c-1.9-1.9-4.4-2.9-7.1-2.9c-2.7,0-5.2,1.1-7.1,2.9l-29.2,29.2c0,0,0,0,0,0l-47.6,47.6c-20,20-20,52.7,0,72.7
					c9.7,9.7,22.6,15.1,36.4,15.1c13.7,0,26.6-5.3,36.4-15.1l47.6-47.6h0l29.2-29.2c3.9-3.9,3.9-10.3,0-14.2l-4.8-4.8l19.3-19.3
					c34.8,25,77.4,39.7,123.4,39.7c116.9,0,212-95.1,212-212S543.1,117.2,426.2,117.2L426.2,117.2z M197.3,602.5
					c-5.9,5.9-13.8,9.2-22.1,9.2c-8.4,0-16.2-3.3-22.1-9.2c-12.2-12.2-12.2-32.1,0-44.3l40.5-40.5l22.1,22.1l22.2,22.2L197.3,602.5z
					 M252,547.8l-22.1-22.1l-22.2-22.2l15-15l44.3,44.3L252,547.8z M269.3,506.7l-10.2-10.2l-10.2-10.2l17.6-17.6
					c6.4,7.3,13.2,14.1,20.5,20.5L269.3,506.7z M426.2,521.2c-105.8,0-191.9-86.1-191.9-191.9c0-105.8,86.1-191.9,191.9-191.9
					s191.9,86.1,191.9,191.9S532,521.2,426.2,521.2z"/>
			</g>
		</g>
	</g>
</g>
</svg>
