<svg id="Layer_1" data-name="Layer 1" xmlns="http://www.w3.org/2000/svg" viewBox="0 0 762 762"><defs><style>.cls-1{fill:none;stroke:#6f42c1;stroke-miterlimit:10;stroke-width:25px;}.cls-2{fill:#6f42c1;}</style></defs><circle class="cls-1" cx="381" cy="381.64" r="365"/><path class="cls-2" d="M546.13,331.65a16.12,16.12,0,0,0-15-10h0l-284.9.5a16.26,16.26,0,0,0-16.2,16.2v41.1L184.43,492a16.44,16.44,0,0,0,1.6,15.2,16.21,16.21,0,0,0,13.6,7.1l34.2-.4,12.4,58.8a16.34,16.34,0,0,0,15.7,12.9l53.5.4,1.7,26a16.19,16.19,0,0,0,16.2,15.1h174.3a16.2,16.2,0,0,0,16.2-16.2c0-30.6.2-91.9,1-104.7,1.1-15.7,6.5-35.4,12.3-56.2C548.53,408.65,560.33,366.05,546.13,331.65Zm-40.3,109.6c-6.3,22.5-12.2,43.7-13.4,62.8-.8,12.7-1,64-1.1,90.6h-143l-1.7-25.9a16.08,16.08,0,0,0-16-15.1l-55.5-.4-12.4-59a16.18,16.18,0,0,0-16-12.9l-23.1.3,37.8-92.9a15.8,15.8,0,0,0,1.2-6.1v-28.1l256.6-.5C523.43,378.05,514.13,411.35,505.83,441.25Z"/><path class="cls-2" d="M368.33,223l-38.8-81.5a16.18,16.18,0,0,0-29.2,0L261.43,223a17.05,17.05,0,0,0-1.6,7v107.9h32.4V233.55l22.7-47.5,22.7,47.5v104.2h32.3V229.85A16.25,16.25,0,0,0,368.33,223Z"/><rect class="cls-2" x="276.03" y="219.65" width="80.9" height="32.4"/><path class="cls-2" d="M502,115H406a16.2,16.2,0,0,0-16.2,16.2v206.6h32.4V147.35h63.7v190.4h32.4V131.15A16.28,16.28,0,0,0,502,115Z"/><path class="cls-2" d="M448.13,260.65H406a16.2,16.2,0,1,0,0,32.4h42.1a16.2,16.2,0,0,0,0-32.4Z"/><path class="cls-2" d="M431.93,179.65H406a16.2,16.2,0,1,0,0,32.4h25.9a16.2,16.2,0,0,0,0-32.4Z"/></svg>