<svg id="Layer_1" data-name="Layer 1" xmlns="http://www.w3.org/2000/svg" viewBox="0 0 762 762"><defs><style>.cls-1{fill:none;stroke:#00e5ff;stroke-miterlimit:10;stroke-width:25px;}.cls-2{fill:#00e5ff;}</style></defs><circle class="cls-1" cx="381" cy="381.64" r="365"/><path class="cls-2" d="M572,607H556V460a30.09,30.09,0,0,0-30-30H503.7c-5.9-25.6-17.6-47.7-34.3-64.2a106.69,106.69,0,0,0-36.2-23.7c29-25,48-68.3,48-107.4,0-35.5-9.9-63.3-29.3-82.8C434.2,134.3,409.7,125,381,125s-53.2,9.3-70.8,26.9c-19.5,19.4-29.3,47.3-29.3,82.8,0,39.1,18.9,82.4,48,107.4a108.2,108.2,0,0,0-36.2,23.7c-16.7,16.5-28.4,38.6-34.3,64.2H236a30.09,30.09,0,0,0-30,30V607H190a15,15,0,0,0,0,30H572a15,15,0,0,0,0-30ZM381,155c22,0,56.6,7.3,67.1,50.9-15.3-1.9-24-6.3-30.9-9.6-6.7-3.3-14.3-7.1-23.6-4.9-7.5,1.7-12.9,6-18.1,10.1-9.5,7.5-23.3,18.4-64.2,20.6,5.2-58,45.2-67.1,69.7-67.1Zm-68.6,96.9c50.9-2.7,70-17.7,81.8-27a64,64,0,0,1,5.3-3.9c1.2.5,3,1.4,4.5,2.1,8.8,4.4,22.7,11.2,47.2,13.2-.4,22.1-8.6,46.6-22.2,65.9-13.8,19.7-31.3,31-47.9,31s-34.1-11.3-47.9-31A122.74,122.74,0,0,1,312.4,251.9ZM373,364h16c41.6,0,72,24.3,83.8,66H289.2C301,388.3,331.4,364,373,364ZM236,607V460H526V607Z"/><circle class="cls-2" cx="381" cy="525" r="15"/></svg>