<?xml version="1.0" encoding="utf-8"?>
<!-- Generator: Adobe Illustrator 24.3.0, SVG Export Plug-In . SVG Version: 6.00 Build 0)  -->
<svg version="1.1" id="Capa_1" xmlns="http://www.w3.org/2000/svg" xmlns:xlink="http://www.w3.org/1999/xlink" x="0px" y="0px"
	 viewBox="0 0 512 512" style="enable-background:new 0 0 512 512;" xml:space="preserve">
<style type="text/css">
	.st0{fill:#90A4AE;}
</style>
<g>
	<g>
		<path class="st0" d="M434.2,216.7c-2.5-6.1-8.4-10-15-10c0,0,0,0,0,0l-284.9,0.5c-8.9,0-16.2,7.3-16.2,16.2v41.1L72.5,377
			c-2,5-1.4,10.7,1.6,15.2c3.1,4.5,8,7.1,13.6,7.1l34.2-0.4l12.4,58.8c1.6,7.4,8.1,12.8,15.7,12.9l53.5,0.4l1.7,26
			c0.6,8.5,7.6,15.1,16.2,15.1h174.3c8.9,0,16.2-7.2,16.2-16.2c0-30.6,0.2-91.9,1-104.7c1.1-15.7,6.5-35.4,12.3-56.2
			C436.6,293.7,448.4,251.1,434.2,216.7z M393.9,326.3c-6.3,22.5-12.2,43.7-13.4,62.8c-0.8,12.7-1,64-1.1,90.6H236.4l-1.7-25.9
			c-0.6-8.5-7.5-15.1-16-15.1l-55.5-0.4l-12.4-59c-1.6-7.6-8.3-13-16-12.9l-23.1,0.3l37.8-92.9c0.8-1.9,1.2-4,1.2-6.1v-28.1
			l256.6-0.5C411.5,263.1,402.2,296.4,393.9,326.3z"/>
	</g>
</g>
<g>
	<g>
		<path class="st0" d="M256.4,108l-38.8-81.5c-2.7-5.6-8.4-9.2-14.6-9.2s-11.9,3.6-14.6,9.2L149.5,108c-1,2.2-1.6,4.6-1.6,7v107.9
			h32.4V118.6l22.7-47.5l22.7,47.5v104.2H258V114.9C258,112.5,257.4,110.1,256.4,108z"/>
	</g>
</g>
<g>
	<g>
		<rect x="164.1" y="104.7" class="st0" width="80.9" height="32.4"/>
	</g>
</g>
<g>
	<g>
		<path class="st0" d="M390.1,0h-96c-8.9,0-16.2,7.2-16.2,16.2v206.6h32.4V32.4H374v190.4h32.4V16.2C406.3,7.2,399.1,0,390.1,0z"/>
	</g>
</g>
<g>
	<g>
		<path class="st0" d="M336.2,145.7h-42.1c-8.9,0-16.2,7.2-16.2,16.2c0,8.9,7.2,16.2,16.2,16.2h42.1c8.9,0,16.2-7.2,16.2-16.2
			C352.4,152.9,345.1,145.7,336.2,145.7z"/>
	</g>
</g>
<g>
	<g>
		<path class="st0" d="M320,64.7h-25.9c-8.9,0-16.2,7.2-16.2,16.2s7.2,16.2,16.2,16.2H320c8.9,0,16.2-7.2,16.2-16.2
			S328.9,64.7,320,64.7z"/>
	</g>
</g>
</svg>
