<?xml version="1.0" encoding="utf-8"?>
<!-- Generator: Adobe Illustrator 24.2.1, SVG Export Plug-In . SVG Version: 6.00 Build 0)  -->
<svg version="1.1" id="Layer_1" xmlns="http://www.w3.org/2000/svg" xmlns:xlink="http://www.w3.org/1999/xlink" x="0px" y="0px"
	 viewBox="0 0 762 762" style="enable-background:new 0 0 762 762;" xml:space="preserve">
<style type="text/css">
	.st0{fill:#90A4AE;}
</style>
<g>
	<g>
		<g>
			<g>
				<g>
					<g>
						<g>
							<path class="st0" d="M675.2,334.3c-6.3,0-12-4.1-14.1-10.1c-1.9-5.6-0.2-12,4.3-16c4.9-4.3,12.2-4.9,17.7-1.5
								c5.1,3.2,7.9,9.4,6.8,15.3C688.6,329,682.3,334.3,675.2,334.3z"/>
						</g>
					</g>
				</g>
			</g>
			<g>
				<g>
					<g>
						<path class="st0" d="M448,355.8c-57.9,0-105-47.1-105-105c0-57.9,47.1-105,105-105s105,47.1,105,105
							C553,308.7,505.9,355.8,448,355.8z M448,175.5c-41.5,0-75.2,33.8-75.2,75.2S406.5,326,448,326s75.2-33.8,75.2-75.2
							C523.2,209.3,489.5,175.5,448,175.5z"/>
					</g>
				</g>
			</g>
		</g>
	</g>
	<g>
		<g>
			<g>
				<path class="st0" d="M667.5,374.9c-7.8-2.7-16.2,1.4-19,9.1c-10.6,30.3-27.5,57.3-50.4,80.2c-7.9,7.9-16.4,15.2-25.4,21.7v-66.8
					c0-24.8-20.2-44.9-44.9-44.9H368.1c-24.8,0-44.9,20.2-44.9,44.9v67.1c-9-6.6-17.6-13.8-25.5-21.8
					c-82.8-82.8-82.7-217.6,0.2-300.5c40.1-40.2,93.5-62.3,150.3-62.3h0.1c56.7,0,110,22.1,150.1,62.2c23,23,40,50.2,50.6,80.8
					c2.7,7.8,11.1,11.9,18.9,9.2c7.8-2.7,11.9-11.1,9.2-18.9c-12-34.9-31.4-65.9-57.7-92.1c-45.7-45.7-106.5-70.9-171.1-70.9h-0.1
					c-64.7,0-125.5,25.3-171.3,71c-94.5,94.5-94.6,248.2-0.2,342.6c16.2,16.2,34.4,29.9,54.3,40.9c0,0,0,0,0,0
					c35.6,19.6,76,30,116.9,30h0.2c40.9,0,81.4-10.5,117.1-30.2c0,0,0,0,0,0c19.8-10.9,37.9-24.6,54.1-40.8
					c26.1-26.1,45.4-56.8,57.5-91.4C679.4,386.1,675.3,377.6,667.5,374.9L667.5,374.9z M353,504.2v-85.1c0-8.4,6.8-15.2,15.2-15.2
					h159.7c8.4,0,15.2,6.8,15.2,15.2V504C483.6,533.7,412.3,533.8,353,504.2L353,504.2z"/>
				<path class="st0" d="M447.9,0C274.8,0,134,140.9,134,314c0,68.1,21.8,131.3,58.8,182.8l-28.5,28.5l-7.1-7.1
					c-2.8-2.8-6.6-4.4-10.5-4.4c-3.9,0-7.7,1.6-10.5,4.4l-43.3,43.3c0,0,0,0,0,0L22.4,632c-29.7,29.7-29.7,78,0,107.7
					C36.7,754.1,55.8,762,76.2,762s39.5-7.9,53.8-22.3l70.5-70.5h0l43.3-43.3c5.8-5.8,5.8-15.2,0-21l-7.1-7.1l28.6-28.6
					c51.5,37,114.6,58.8,182.7,58.8c173.1,0,314-140.9,314-314S621.1,0,447.9,0L447.9,0z M109,718.7c-8.8,8.8-20.4,13.6-32.8,13.6
					c-12.4,0-24-4.8-32.8-13.6c-18.1-18.1-18.1-47.5,0-65.6l60-60l32.7,32.8l32.8,32.8L109,718.7z M190,637.6l-32.7-32.8l-32.8-32.8
					l22.2-22.2l65.6,65.6L190,637.6z M215.6,576.7l-15.2-15.2l-15.2-15.2l26.1-26.1c9.4,10.8,19.5,20.9,30.3,30.3L215.6,576.7z
					 M447.9,598.2c-156.7,0-284.2-127.5-284.2-284.2c0-156.7,127.5-284.2,284.2-284.2S732.1,157.3,732.1,314
					S604.7,598.2,447.9,598.2z"/>
			</g>
		</g>
	</g>
</g>
</svg>
