<svg width="750" height="750" viewBox="0 0 750 750" fill="none" xmlns="http://www.w3.org/2000/svg">
<rect width="750" height="750" fill="white"/>
<path d="M600.616 578H496L548.176 501.193L600.616 578Z" fill="#00E5FF"/>
<path d="M651.997 547.807H547.646L599.822 471L651.997 547.807Z" fill="#FF6D00"/>
<g filter="url(#filter0_d_628_968)">
<rect x="78" y="45" width="623" height="452" rx="5" fill="#2962FF" fill-opacity="0.15" shape-rendering="crispEdges"/>
</g>
<path d="M205.76 123.34C205.76 124.1 205.56 124.753 205.16 125.3C204.773 125.847 204.247 126.267 203.58 126.56C202.913 126.853 202.18 127 201.38 127H194.6V112.8H201.92C202.587 112.8 203.16 112.98 203.64 113.34C204.133 113.687 204.507 114.14 204.76 114.7C205.027 115.247 205.16 115.82 205.16 116.42C205.16 117.113 204.98 117.767 204.62 118.38C204.273 118.98 203.773 119.427 203.12 119.72C203.933 119.96 204.573 120.4 205.04 121.04C205.52 121.667 205.76 122.433 205.76 123.34ZM203.46 122.92C203.46 122.52 203.373 122.16 203.2 121.84C203.04 121.507 202.813 121.24 202.52 121.04C202.24 120.827 201.907 120.72 201.52 120.72H196.84V125.06H201.38C201.78 125.06 202.133 124.967 202.44 124.78C202.76 124.58 203.007 124.32 203.18 124C203.367 123.667 203.46 123.307 203.46 122.92ZM196.84 114.74V118.92H200.96C201.333 118.92 201.667 118.833 201.96 118.66C202.253 118.473 202.487 118.227 202.66 117.92C202.833 117.6 202.92 117.24 202.92 116.84C202.92 116.427 202.84 116.067 202.68 115.76C202.52 115.44 202.3 115.193 202.02 115.02C201.753 114.833 201.44 114.74 201.08 114.74H196.84ZM207.697 122.94V116.54H209.897V122.5C209.897 123.433 210.063 124.14 210.397 124.62C210.743 125.087 211.243 125.32 211.897 125.32C212.31 125.32 212.71 125.233 213.097 125.06C213.497 124.887 213.857 124.633 214.177 124.3C214.51 123.953 214.777 123.54 214.977 123.06V116.54H217.177V124.52C217.177 124.773 217.223 124.953 217.317 125.06C217.41 125.167 217.563 125.227 217.777 125.24V127C217.55 127.04 217.363 127.067 217.217 127.08C217.07 127.093 216.93 127.1 216.797 127.1C216.397 127.1 216.063 126.993 215.797 126.78C215.53 126.553 215.377 126.267 215.337 125.92L215.297 124.88C214.83 125.64 214.223 126.22 213.477 126.62C212.73 127.007 211.91 127.2 211.017 127.2C209.923 127.2 209.097 126.84 208.537 126.12C207.977 125.4 207.697 124.34 207.697 122.94ZM223.704 127.2C222.824 127.2 221.991 127.06 221.204 126.78C220.417 126.487 219.744 126.053 219.184 125.48L220.004 124C220.604 124.533 221.204 124.92 221.804 125.16C222.417 125.4 223.024 125.52 223.624 125.52C224.237 125.52 224.737 125.407 225.124 125.18C225.511 124.94 225.704 124.593 225.704 124.14C225.704 123.807 225.604 123.56 225.404 123.4C225.204 123.24 224.911 123.1 224.524 122.98C224.151 122.86 223.697 122.727 223.164 122.58C222.417 122.353 221.791 122.12 221.284 121.88C220.777 121.627 220.397 121.32 220.144 120.96C219.891 120.6 219.764 120.14 219.764 119.58C219.764 118.9 219.937 118.32 220.284 117.84C220.631 117.36 221.111 116.993 221.724 116.74C222.351 116.487 223.071 116.36 223.884 116.36C224.644 116.36 225.344 116.48 225.984 116.72C226.637 116.947 227.211 117.307 227.704 117.8L226.764 119.26C226.297 118.833 225.817 118.52 225.324 118.32C224.844 118.12 224.324 118.02 223.764 118.02C223.444 118.02 223.137 118.06 222.844 118.14C222.551 118.207 222.304 118.34 222.104 118.54C221.917 118.727 221.824 118.993 221.824 119.34C221.824 119.62 221.904 119.847 222.064 120.02C222.224 120.193 222.464 120.34 222.784 120.46C223.104 120.58 223.497 120.713 223.964 120.86C224.777 121.1 225.471 121.34 226.044 121.58C226.617 121.807 227.057 122.107 227.364 122.48C227.684 122.84 227.844 123.34 227.844 123.98C227.844 124.993 227.464 125.787 226.704 126.36C225.957 126.92 224.957 127.2 223.704 127.2ZM234.548 127.2C233.735 127.2 232.995 127.06 232.328 126.78C231.675 126.487 231.108 126.087 230.628 125.58C230.148 125.073 229.775 124.493 229.508 123.84C229.255 123.187 229.128 122.493 229.128 121.76C229.128 120.773 229.348 119.873 229.788 119.06C230.242 118.247 230.868 117.593 231.668 117.1C232.482 116.607 233.442 116.36 234.548 116.36C235.615 116.36 236.542 116.6 237.328 117.08C238.128 117.547 238.715 118.173 239.088 118.96L236.948 119.64C236.708 119.2 236.368 118.86 235.928 118.62C235.502 118.367 235.028 118.24 234.508 118.24C233.922 118.24 233.388 118.393 232.908 118.7C232.442 118.993 232.068 119.407 231.788 119.94C231.522 120.46 231.388 121.067 231.388 121.76C231.388 122.427 231.528 123.033 231.808 123.58C232.088 124.113 232.462 124.54 232.928 124.86C233.408 125.167 233.942 125.32 234.528 125.32C234.888 125.32 235.235 125.26 235.568 125.14C235.915 125.007 236.215 124.833 236.468 124.62C236.722 124.393 236.902 124.147 237.008 123.88L239.168 124.52C238.942 125.04 238.602 125.5 238.148 125.9C237.708 126.3 237.182 126.62 236.568 126.86C235.968 127.087 235.295 127.2 234.548 127.2ZM240.22 123.94C240.22 123.273 240.407 122.693 240.78 122.2C241.167 121.693 241.693 121.307 242.36 121.04C243.027 120.76 243.8 120.62 244.68 120.62C245.147 120.62 245.62 120.653 246.1 120.72C246.593 120.787 247.027 120.893 247.4 121.04V120.38C247.4 119.647 247.18 119.073 246.74 118.66C246.3 118.247 245.667 118.04 244.84 118.04C244.253 118.04 243.7 118.147 243.18 118.36C242.66 118.56 242.107 118.847 241.52 119.22L240.78 117.74C241.473 117.273 242.167 116.927 242.86 116.7C243.567 116.473 244.307 116.36 245.08 116.36C246.48 116.36 247.58 116.733 248.38 117.48C249.193 118.213 249.6 119.26 249.6 120.62V124.52C249.6 124.773 249.64 124.953 249.72 125.06C249.813 125.167 249.967 125.227 250.18 125.24V127C249.98 127.04 249.8 127.067 249.64 127.08C249.48 127.093 249.347 127.1 249.24 127.1C248.773 127.1 248.42 126.987 248.18 126.76C247.94 126.533 247.8 126.267 247.76 125.96L247.7 125.36C247.247 125.947 246.667 126.4 245.96 126.72C245.253 127.04 244.54 127.2 243.82 127.2C243.127 127.2 242.507 127.06 241.96 126.78C241.413 126.487 240.987 126.093 240.68 125.6C240.373 125.107 240.22 124.553 240.22 123.94ZM246.88 124.58C247.04 124.407 247.167 124.233 247.26 124.06C247.353 123.887 247.4 123.733 247.4 123.6V122.4C247.027 122.253 246.633 122.147 246.22 122.08C245.807 122 245.4 121.96 245 121.96C244.2 121.96 243.547 122.12 243.04 122.44C242.547 122.76 242.3 123.2 242.3 123.76C242.3 124.067 242.38 124.36 242.54 124.64C242.713 124.92 242.953 125.147 243.26 125.32C243.58 125.493 243.973 125.58 244.44 125.58C244.92 125.58 245.38 125.487 245.82 125.3C246.26 125.113 246.613 124.873 246.88 124.58ZM258.149 118.44C257.296 118.453 256.536 118.647 255.869 119.02C255.216 119.393 254.749 119.92 254.469 120.6V127H252.269V116.54H254.309V118.88C254.669 118.16 255.143 117.587 255.729 117.16C256.316 116.72 256.936 116.48 257.589 116.44C257.723 116.44 257.829 116.44 257.909 116.44C258.003 116.44 258.083 116.447 258.149 116.46V118.44Z" fill="#545454"/>
<rect x="133.5" y="97.5" width="513" height="50" rx="4.5" stroke="#545454"/>
<path fill-rule="evenodd" clip-rule="evenodd" d="M156.625 109.937C155.221 109.937 153.832 110.214 152.535 110.751C151.238 111.288 150.06 112.075 149.068 113.068C148.075 114.06 147.288 115.238 146.751 116.535C146.214 117.832 145.938 119.221 145.938 120.625C145.938 122.028 146.214 123.418 146.751 124.715C147.288 126.012 148.075 127.19 149.068 128.182C150.06 129.175 151.238 129.962 152.535 130.499C153.832 131.036 155.221 131.312 156.625 131.312C159.46 131.312 162.178 130.186 164.182 128.182C166.186 126.178 167.312 123.459 167.312 120.625C167.312 117.79 166.186 115.072 164.182 113.068C162.178 111.063 159.46 109.937 156.625 109.937ZM143.563 120.625C143.563 118.527 144.068 116.46 145.036 114.599C146.004 112.738 147.406 111.138 149.124 109.933C150.841 108.728 152.823 107.955 154.903 107.678C156.982 107.402 159.098 107.63 161.07 108.344C163.043 109.058 164.814 110.236 166.235 111.779C167.656 113.323 168.684 115.186 169.233 117.21C169.781 119.235 169.834 121.362 169.387 123.412C168.94 125.461 168.006 127.373 166.663 128.985L174.089 136.411C174.206 136.52 174.299 136.651 174.364 136.796C174.429 136.942 174.464 137.099 174.467 137.259C174.47 137.418 174.44 137.576 174.381 137.724C174.321 137.872 174.232 138.007 174.119 138.119C174.007 138.232 173.872 138.321 173.724 138.381C173.576 138.44 173.418 138.47 173.259 138.467C173.099 138.464 172.942 138.429 172.796 138.364C172.651 138.299 172.52 138.206 172.411 138.089L164.985 130.663C163.077 132.252 160.757 133.265 158.294 133.582C155.832 133.899 153.33 133.508 151.082 132.455C148.834 131.401 146.933 129.729 145.601 127.634C144.269 125.539 143.562 123.108 143.563 120.625Z" fill="black"/>
<g filter="url(#filter1_d_628_968)">
<path d="M123 201C123 198.239 125.239 196 128 196H217.85C223.373 196 227.85 200.477 227.85 206V285.25C227.85 286.907 226.507 288.25 224.85 288.25H128C125.239 288.25 123 286.011 123 283.25V201Z" fill="white"/>
</g>
<path d="M129.308 271.692C129.308 270.821 130.014 270.115 130.885 270.115H214.462C215.332 270.115 216.039 270.821 216.039 271.692C216.039 272.563 215.332 273.269 214.462 273.269H130.885C130.014 273.269 129.308 272.563 129.308 271.692Z" fill="#9D9D9D"/>
<path d="M129.308 278.788C129.308 277.917 130.014 277.211 130.885 277.211H200.269C201.14 277.211 201.846 277.917 201.846 278.788C201.846 279.659 201.14 280.365 200.269 280.365H130.885C130.014 280.365 129.308 279.659 129.308 278.788Z" fill="#9D9D9D"/>
<path d="M129.308 262.231C129.308 261.36 130.014 260.654 130.885 260.654H173.462C174.332 260.654 175.039 261.36 175.039 262.231C175.039 263.102 174.332 263.808 173.462 263.808H130.885C130.014 263.808 129.308 263.102 129.308 262.231Z" fill="#9D9D9D"/>
<path d="M123 201C123 198.239 125.239 196 128 196H217.85C223.373 196 227.85 200.477 227.85 206V253.6H123V201Z" fill="#545454"/>
<path d="M175.425 207.25C165.854 207.25 158.1 215.004 158.1 224.575C158.1 234.146 165.854 241.9 175.425 241.9C184.996 241.9 192.75 234.146 192.75 224.575C192.75 215.004 184.996 207.25 175.425 207.25ZM183.508 226.252L171.212 233.307C170.109 233.922 168.719 233.133 168.719 231.84V217.31C168.719 216.024 170.102 215.228 171.212 215.843L183.508 223.318C184.653 223.96 184.653 225.616 183.508 226.252Z" fill="#FFBB00"/>
<g filter="url(#filter2_d_628_968)">
<path d="M123 314C123 311.239 125.239 309 128 309H217.85C223.373 309 227.85 313.477 227.85 319V398.25C227.85 399.907 226.507 401.25 224.85 401.25H128C125.239 401.25 123 399.011 123 396.25V314Z" fill="white"/>
</g>
<path d="M129.308 384.692C129.308 383.821 130.014 383.115 130.885 383.115H214.462C215.332 383.115 216.039 383.821 216.039 384.692C216.039 385.563 215.332 386.269 214.462 386.269H130.885C130.014 386.269 129.308 385.563 129.308 384.692Z" fill="#9D9D9D"/>
<path d="M129.308 391.788C129.308 390.917 130.014 390.211 130.885 390.211H200.269C201.14 390.211 201.846 390.917 201.846 391.788C201.846 392.659 201.14 393.365 200.269 393.365H130.885C130.014 393.365 129.308 392.659 129.308 391.788Z" fill="#9D9D9D"/>
<path d="M129.308 375.231C129.308 374.36 130.014 373.654 130.885 373.654H173.462C174.332 373.654 175.039 374.36 175.039 375.231C175.039 376.102 174.332 376.808 173.462 376.808H130.885C130.014 376.808 129.308 376.102 129.308 375.231Z" fill="#9D9D9D"/>
<path d="M123 314C123 311.239 125.239 309 128 309H217.85C223.373 309 227.85 313.477 227.85 319V366.6H123V314Z" fill="#0A1840"/>
<path d="M175.425 320.25C165.854 320.25 158.1 328.004 158.1 337.575C158.1 347.146 165.854 354.9 175.425 354.9C184.996 354.9 192.75 347.146 192.75 337.575C192.75 328.004 184.996 320.25 175.425 320.25ZM183.508 339.252L171.212 346.307C170.109 346.922 168.719 346.133 168.719 344.84V330.31C168.719 329.024 170.102 328.228 171.212 328.843L183.508 336.318C184.653 336.96 184.653 338.616 183.508 339.252Z" fill="#FFBB00"/>
<g filter="url(#filter3_d_628_968)">
<path d="M258.85 201C258.85 198.239 261.089 196 263.85 196H353.7C359.223 196 363.7 200.477 363.7 206V285.25C363.7 286.907 362.357 288.25 360.7 288.25H263.85C261.089 288.25 258.85 286.011 258.85 283.25V201Z" fill="white"/>
</g>
<path d="M265.158 271.692C265.158 270.821 265.864 270.115 266.735 270.115H350.312C351.183 270.115 351.889 270.821 351.889 271.692C351.889 272.563 351.183 273.269 350.312 273.269H266.735C265.864 273.269 265.158 272.563 265.158 271.692Z" fill="#9D9D9D"/>
<path d="M265.158 278.788C265.158 277.917 265.864 277.211 266.735 277.211H336.119C336.99 277.211 337.696 277.917 337.696 278.788C337.696 279.659 336.99 280.365 336.119 280.365H266.735C265.864 280.365 265.158 279.659 265.158 278.788Z" fill="#9D9D9D"/>
<path d="M265.158 262.231C265.158 261.36 265.864 260.654 266.735 260.654H309.312C310.183 260.654 310.889 261.36 310.889 262.231C310.889 263.102 310.183 263.808 309.312 263.808H266.735C265.864 263.808 265.158 263.102 265.158 262.231Z" fill="#9D9D9D"/>
<path d="M258.85 201C258.85 198.239 261.089 196 263.85 196H353.7C359.223 196 363.7 200.477 363.7 206V253.6H258.85V201Z" fill="#2962FF"/>
<path d="M311.275 207.25C301.705 207.25 293.95 215.004 293.95 224.575C293.95 234.146 301.705 241.9 311.275 241.9C320.846 241.9 328.6 234.146 328.6 224.575C328.6 215.004 320.846 207.25 311.275 207.25ZM319.358 226.252L307.063 233.307C305.959 233.922 304.569 233.133 304.569 231.84V217.31C304.569 216.024 305.952 215.228 307.063 215.843L319.358 223.318C320.504 223.96 320.504 225.616 319.358 226.252Z" fill="#FFBB00"/>
<g filter="url(#filter4_d_628_968)">
<path d="M258.85 313C258.85 310.239 261.089 308 263.85 308H353.7C359.223 308 363.7 312.477 363.7 318V397.25C363.7 398.907 362.357 400.25 360.7 400.25H263.85C261.089 400.25 258.85 398.011 258.85 395.25V313Z" fill="white"/>
</g>
<path d="M265.158 383.692C265.158 382.821 265.864 382.115 266.735 382.115H350.312C351.183 382.115 351.889 382.821 351.889 383.692C351.889 384.563 351.183 385.269 350.312 385.269H266.735C265.864 385.269 265.158 384.563 265.158 383.692Z" fill="#9D9D9D"/>
<path d="M265.158 390.789C265.158 389.918 265.864 389.212 266.735 389.212H336.119C336.99 389.212 337.696 389.918 337.696 390.789C337.696 391.66 336.99 392.366 336.119 392.366H266.735C265.864 392.366 265.158 391.66 265.158 390.789Z" fill="#9D9D9D"/>
<path d="M265.158 374.231C265.158 373.36 265.864 372.654 266.735 372.654H309.312C310.183 372.654 310.889 373.36 310.889 374.231C310.889 375.102 310.183 375.808 309.312 375.808H266.735C265.864 375.808 265.158 375.102 265.158 374.231Z" fill="#9D9D9D"/>
<path d="M258.85 313C258.85 310.239 261.089 308 263.85 308H353.7C359.223 308 363.7 312.477 363.7 318V365.6H258.85V313Z" fill="#545454"/>
<path d="M311.275 319.25C301.705 319.25 293.95 327.005 293.95 336.575C293.95 346.146 301.705 353.9 311.275 353.9C320.846 353.9 328.6 346.146 328.6 336.575C328.6 327.005 320.846 319.25 311.275 319.25ZM319.358 338.252L307.063 345.308C305.959 345.922 304.569 345.133 304.569 343.841V329.31C304.569 328.025 305.952 327.228 307.063 327.843L319.358 335.318C320.504 335.96 320.504 337.616 319.358 338.252Z" fill="#FFBB00"/>
<g filter="url(#filter5_d_628_968)">
<path d="M394.7 201C394.7 198.239 396.939 196 399.7 196H489.55C495.073 196 499.55 200.477 499.55 206V285.25C499.55 286.907 498.207 288.25 496.55 288.25H399.7C396.939 288.25 394.7 286.011 394.7 283.25V201Z" fill="white"/>
</g>
<path d="M401.008 271.692C401.008 270.821 401.714 270.115 402.585 270.115H486.162C487.033 270.115 487.739 270.821 487.739 271.692C487.739 272.563 487.033 273.269 486.162 273.269H402.585C401.714 273.269 401.008 272.563 401.008 271.692Z" fill="#9D9D9D"/>
<path d="M401.008 278.788C401.008 277.917 401.714 277.211 402.585 277.211H471.969C472.84 277.211 473.546 277.917 473.546 278.788C473.546 279.659 472.84 280.365 471.969 280.365H402.585C401.714 280.365 401.008 279.659 401.008 278.788Z" fill="#9D9D9D"/>
<path d="M401.008 262.231C401.008 261.36 401.714 260.654 402.585 260.654H445.162C446.033 260.654 446.739 261.36 446.739 262.231C446.739 263.102 446.033 263.808 445.162 263.808H402.585C401.714 263.808 401.008 263.102 401.008 262.231Z" fill="#9D9D9D"/>
<path d="M394.7 201C394.7 198.239 396.939 196 399.7 196H489.55C495.073 196 499.55 200.477 499.55 206V253.6H394.7V201Z" fill="#FF6D00"/>
<path d="M447.125 207.25C437.555 207.25 429.8 215.004 429.8 224.575C429.8 234.146 437.555 241.9 447.125 241.9C456.696 241.9 464.45 234.146 464.45 224.575C464.45 215.004 456.696 207.25 447.125 207.25ZM455.208 226.252L442.913 233.307C441.809 233.922 440.419 233.133 440.419 231.84V217.31C440.419 216.024 441.802 215.228 442.913 215.843L455.208 223.318C456.354 223.96 456.354 225.616 455.208 226.252Z" fill="#FFBB00"/>
<g filter="url(#filter6_d_628_968)">
<path d="M531 202C531 199.239 533.239 197 536 197H625.85C631.373 197 635.85 201.477 635.85 207V286.25C635.85 287.907 634.507 289.25 632.85 289.25H536C533.239 289.25 531 287.011 531 284.25V202Z" fill="white"/>
</g>
<path d="M537.308 272.692C537.308 271.821 538.014 271.115 538.885 271.115H622.461C623.332 271.115 624.038 271.821 624.038 272.692C624.038 273.563 623.332 274.269 622.461 274.269H538.885C538.014 274.269 537.308 273.563 537.308 272.692Z" fill="#9D9D9D"/>
<path d="M537.308 279.788C537.308 278.917 538.014 278.211 538.885 278.211H608.269C609.14 278.211 609.846 278.917 609.846 279.788C609.846 280.659 609.14 281.365 608.269 281.365H538.885C538.014 281.365 537.308 280.659 537.308 279.788Z" fill="#9D9D9D"/>
<path d="M537.308 263.231C537.308 262.36 538.014 261.654 538.885 261.654H581.461C582.332 261.654 583.038 262.36 583.038 263.231C583.038 264.102 582.332 264.808 581.461 264.808H538.885C538.014 264.808 537.308 264.102 537.308 263.231Z" fill="#9D9D9D"/>
<path d="M531 202C531 199.239 533.239 197 536 197H625.85C631.373 197 635.85 201.477 635.85 207V254.6H531V202Z" fill="#545454"/>
<path d="M583.425 208.25C573.854 208.25 566.1 216.004 566.1 225.575C566.1 235.146 573.854 242.9 583.425 242.9C592.996 242.9 600.75 235.146 600.75 225.575C600.75 216.004 592.996 208.25 583.425 208.25ZM591.508 227.252L579.213 234.307C578.109 234.922 576.719 234.133 576.719 232.84V218.31C576.719 217.024 578.102 216.228 579.213 216.843L591.508 224.318C592.653 224.96 592.653 226.616 591.508 227.252Z" fill="#FFBB00"/>
<g filter="url(#filter7_d_628_968)">
<path d="M394.7 313C394.7 310.239 396.939 308 399.7 308H489.55C495.073 308 499.55 312.477 499.55 318V397.25C499.55 398.907 498.207 400.25 496.55 400.25H399.7C396.939 400.25 394.7 398.011 394.7 395.25V313Z" fill="white"/>
</g>
<path d="M401.008 383.692C401.008 382.821 401.714 382.115 402.585 382.115H486.162C487.033 382.115 487.739 382.821 487.739 383.692C487.739 384.563 487.033 385.269 486.162 385.269H402.585C401.714 385.269 401.008 384.563 401.008 383.692Z" fill="#9D9D9D"/>
<path d="M401.008 390.789C401.008 389.918 401.714 389.212 402.585 389.212H471.969C472.84 389.212 473.546 389.918 473.546 390.789C473.546 391.66 472.84 392.366 471.969 392.366H402.585C401.714 392.366 401.008 391.66 401.008 390.789Z" fill="#9D9D9D"/>
<path d="M401.008 374.231C401.008 373.36 401.714 372.654 402.585 372.654H445.162C446.033 372.654 446.739 373.36 446.739 374.231C446.739 375.102 446.033 375.808 445.162 375.808H402.585C401.714 375.808 401.008 375.102 401.008 374.231Z" fill="#9D9D9D"/>
<path d="M394.7 313C394.7 310.239 396.939 308 399.7 308H489.55C495.073 308 499.55 312.477 499.55 318V365.6H394.7V313Z" fill="#00E5FF"/>
<path d="M447.125 319.25C437.555 319.25 429.8 327.005 429.8 336.575C429.8 346.146 437.555 353.9 447.125 353.9C456.696 353.9 464.45 346.146 464.45 336.575C464.45 327.005 456.696 319.25 447.125 319.25ZM455.208 338.252L442.913 345.308C441.809 345.922 440.419 345.133 440.419 343.841V329.31C440.419 328.025 441.802 327.228 442.913 327.843L455.208 335.318C456.354 335.96 456.354 337.616 455.208 338.252Z" fill="#FFBB00"/>
<g filter="url(#filter8_d_628_968)">
<path d="M531 314C531 311.239 533.239 309 536 309H625.85C631.373 309 635.85 313.477 635.85 319V398.25C635.85 399.907 634.507 401.25 632.85 401.25H536C533.239 401.25 531 399.011 531 396.25V314Z" fill="white"/>
</g>
<path d="M537.308 384.692C537.308 383.821 538.014 383.115 538.885 383.115H622.461C623.332 383.115 624.038 383.821 624.038 384.692C624.038 385.563 623.332 386.269 622.461 386.269H538.885C538.014 386.269 537.308 385.563 537.308 384.692Z" fill="#9D9D9D"/>
<path d="M537.308 391.789C537.308 390.918 538.014 390.212 538.885 390.212H608.269C609.14 390.212 609.846 390.918 609.846 391.789C609.846 392.66 609.14 393.366 608.269 393.366H538.885C538.014 393.366 537.308 392.66 537.308 391.789Z" fill="#9D9D9D"/>
<path d="M537.308 375.231C537.308 374.36 538.014 373.654 538.885 373.654H581.461C582.332 373.654 583.038 374.36 583.038 375.231C583.038 376.102 582.332 376.808 581.461 376.808H538.885C538.014 376.808 537.308 376.102 537.308 375.231Z" fill="#9D9D9D"/>
<path d="M531 314C531 311.239 533.239 309 536 309H625.85C631.373 309 635.85 313.477 635.85 319V366.6H531V314Z" fill="#545454"/>
<path d="M583.425 320.25C573.854 320.25 566.1 328.005 566.1 337.575C566.1 347.146 573.854 354.9 583.425 354.9C592.996 354.9 600.75 347.146 600.75 337.575C600.75 328.005 592.996 320.25 583.425 320.25ZM591.508 339.252L579.213 346.308C578.109 346.922 576.719 346.133 576.719 344.841V330.31C576.719 329.025 578.102 328.228 579.213 328.843L591.508 336.318C592.653 336.96 592.653 338.616 591.508 339.252Z" fill="#FFBB00"/>
<g filter="url(#filter9_d_628_968)">
<path d="M531 428C531 425.239 533.239 423 536 423H625.85C631.373 423 635.85 427.477 635.85 433V494C635.85 495.657 634.507 497 632.85 497H536C533.239 497 531 494.761 531 492V428Z" fill="white"/>
</g>
<path d="M537 489.265C537 488.566 537.566 488 538.265 488H581.466C582.164 488 582.731 488.566 582.731 489.265C582.731 489.964 582.164 490.53 581.466 490.53H538.265C537.566 490.53 537 489.964 537 489.265Z" fill="#9D9D9D"/>
<path d="M531 428C531 425.239 533.239 423 536 423H625.85C631.373 423 635.85 427.477 635.85 433V480.6H531V428Z" fill="#545454"/>
<path d="M583.425 434.25C573.854 434.25 566.1 442.005 566.1 451.575C566.1 461.146 573.854 468.9 583.425 468.9C592.996 468.9 600.75 461.146 600.75 451.575C600.75 442.005 592.996 434.25 583.425 434.25ZM591.508 453.252L579.213 460.308C578.109 460.922 576.719 460.133 576.719 458.841V444.31C576.719 443.025 578.102 442.228 579.213 442.843L591.508 450.318C592.653 450.96 592.653 452.616 591.508 453.252Z" fill="#FFBB00"/>
<g filter="url(#filter10_d_628_968)">
<path d="M395 428C395 425.239 397.239 423 400 423H489.85C495.373 423 499.85 427.477 499.85 433V494C499.85 495.657 498.507 497 496.85 497H400C397.239 497 395 494.761 395 492V428Z" fill="white"/>
</g>
<path d="M401 489.265C401 488.566 401.566 488 402.265 488H445.466C446.164 488 446.731 488.566 446.731 489.265C446.731 489.964 446.164 490.53 445.466 490.53H402.265C401.566 490.53 401 489.964 401 489.265Z" fill="#9D9D9D"/>
<path d="M395 428C395 425.239 397.239 423 400 423H489.85C495.373 423 499.85 427.477 499.85 433V480.6H395V428Z" fill="#545454"/>
<path d="M447.425 434.25C437.854 434.25 430.1 442.005 430.1 451.575C430.1 461.146 437.854 468.9 447.425 468.9C456.996 468.9 464.75 461.146 464.75 451.575C464.75 442.005 456.996 434.25 447.425 434.25ZM455.508 453.252L443.213 460.308C442.109 460.922 440.719 460.133 440.719 458.841V444.31C440.719 443.025 442.102 442.228 443.213 442.843L455.508 450.318C456.653 450.96 456.653 452.616 455.508 453.252Z" fill="#FFBB00"/>
<g filter="url(#filter11_d_628_968)">
<path d="M257 428C257 425.239 259.239 423 262 423H351.85C357.373 423 361.85 427.477 361.85 433V494C361.85 495.657 360.507 497 358.85 497H262C259.239 497 257 494.761 257 492V428Z" fill="white"/>
</g>
<path d="M263 489.265C263 488.566 263.566 488 264.265 488H307.466C308.164 488 308.731 488.566 308.731 489.265C308.731 489.964 308.164 490.53 307.466 490.53H264.265C263.566 490.53 263 489.964 263 489.265Z" fill="#9D9D9D"/>
<path d="M257 428C257 425.239 259.239 423 262 423H351.85C357.373 423 361.85 427.477 361.85 433V480.6H257V428Z" fill="#9D9D9D"/>
<path d="M309.425 434.25C299.854 434.25 292.1 442.005 292.1 451.575C292.1 461.146 299.854 468.9 309.425 468.9C318.996 468.9 326.75 461.146 326.75 451.575C326.75 442.005 318.996 434.25 309.425 434.25ZM317.508 453.252L305.212 460.308C304.109 460.922 302.719 460.133 302.719 458.841V444.31C302.719 443.025 304.102 442.228 305.212 442.843L317.508 450.318C318.653 450.96 318.653 452.616 317.508 453.252Z" fill="#FFBB00"/>
<g filter="url(#filter12_d_628_968)">
<path d="M123 428C123 425.239 125.239 423 128 423H217.85C223.373 423 227.85 427.477 227.85 433V494C227.85 495.657 226.507 497 224.85 497H128C125.239 497 123 494.761 123 492V428Z" fill="white"/>
</g>
<path d="M129 489.265C129 488.566 129.566 488 130.265 488H173.466C174.164 488 174.731 488.566 174.731 489.265C174.731 489.964 174.164 490.53 173.466 490.53H130.265C129.566 490.53 129 489.964 129 489.265Z" fill="#9D9D9D"/>
<path d="M123 428C123 425.239 125.239 423 128 423H217.85C223.373 423 227.85 427.477 227.85 433V480.6H123V428Z" fill="#545454"/>
<path d="M175.425 434.25C165.854 434.25 158.1 442.005 158.1 451.575C158.1 461.146 165.854 468.9 175.425 468.9C184.996 468.9 192.75 461.146 192.75 451.575C192.75 442.005 184.996 434.25 175.425 434.25ZM183.508 453.252L171.212 460.308C170.109 460.922 168.719 460.133 168.719 458.841V444.31C168.719 443.025 170.102 442.228 171.212 442.843L183.508 450.318C184.653 450.96 184.653 452.616 183.508 453.252Z" fill="#FFBB00"/>
<path d="M116.208 73.072C116.208 73.68 116.048 74.2027 115.728 74.64C115.419 75.0773 114.997 75.4133 114.464 75.648C113.931 75.8827 113.344 76 112.704 76H107.28V64.64H113.136C113.669 64.64 114.128 64.784 114.512 65.072C114.907 65.3493 115.205 65.712 115.408 66.16C115.621 66.5973 115.728 67.056 115.728 67.536C115.728 68.0907 115.584 68.6133 115.296 69.104C115.019 69.584 114.619 69.9413 114.096 70.176C114.747 70.368 115.259 70.72 115.632 71.232C116.016 71.7333 116.208 72.3467 116.208 73.072ZM114.368 72.736C114.368 72.416 114.299 72.128 114.16 71.872C114.032 71.6053 113.851 71.392 113.616 71.232C113.392 71.0613 113.125 70.976 112.816 70.976H109.072V74.448H112.704C113.024 74.448 113.307 74.3733 113.552 74.224C113.808 74.064 114.005 73.856 114.144 73.6C114.293 73.3333 114.368 73.0453 114.368 72.736ZM109.072 66.192V69.536H112.368C112.667 69.536 112.933 69.4667 113.168 69.328C113.403 69.1787 113.589 68.9813 113.728 68.736C113.867 68.48 113.936 68.192 113.936 67.872C113.936 67.5413 113.872 67.2533 113.744 67.008C113.616 66.752 113.44 66.5547 113.216 66.416C113.003 66.2667 112.752 66.192 112.464 66.192H109.072ZM117.853 76V67.632H119.613V76H117.853ZM117.853 66.256V64.32H119.613V66.256H117.853ZM126.24 76.16C125.6 76.16 125.019 76.0107 124.496 75.712C123.984 75.4027 123.579 74.992 123.28 74.48V76H121.728V64.32H123.488V69.216C123.819 68.6827 124.229 68.2613 124.72 67.952C125.221 67.6427 125.808 67.488 126.48 67.488C127.035 67.488 127.541 67.6053 128 67.84C128.459 68.0747 128.848 68.3947 129.168 68.8C129.499 69.2053 129.749 69.6693 129.92 70.192C130.101 70.7147 130.192 71.2693 130.192 71.856C130.192 72.4427 130.091 72.9973 129.888 73.52C129.696 74.0427 129.419 74.5013 129.056 74.896C128.693 75.2907 128.272 75.6 127.792 75.824C127.323 76.048 126.805 76.16 126.24 76.16ZM125.776 74.656C126.16 74.656 126.512 74.5813 126.832 74.432C127.152 74.272 127.429 74.064 127.664 73.808C127.899 73.552 128.075 73.2533 128.192 72.912C128.32 72.5707 128.384 72.2187 128.384 71.856C128.384 71.3547 128.277 70.8853 128.064 70.448C127.861 70.0107 127.573 69.6587 127.2 69.392C126.827 69.1253 126.395 68.992 125.904 68.992C125.552 68.992 125.221 69.0773 124.912 69.248C124.603 69.408 124.325 69.6267 124.08 69.904C123.845 70.1707 123.648 70.4693 123.488 70.8V73.008C123.552 73.2533 123.664 73.4773 123.824 73.68C123.984 73.872 124.171 74.0427 124.384 74.192C124.597 74.3307 124.827 74.4427 125.072 74.528C125.317 74.6133 125.552 74.656 125.776 74.656ZM131.791 64.32H133.551V73.584C133.551 74.0107 133.615 74.2827 133.743 74.4C133.871 74.5173 134.031 74.576 134.223 74.576C134.436 74.576 134.633 74.5547 134.815 74.512C135.007 74.4693 135.172 74.416 135.311 74.352L135.567 75.744C135.311 75.8507 135.007 75.9413 134.655 76.016C134.303 76.0907 133.988 76.128 133.711 76.128C133.113 76.128 132.644 75.9627 132.303 75.632C131.961 75.2907 131.791 74.8213 131.791 74.224V64.32ZM136.587 76V67.632H138.347V76H136.587ZM136.587 66.256V64.32H138.347V66.256H136.587ZM144.222 76.16C143.561 76.16 142.969 76.048 142.446 75.824C141.924 75.5893 141.47 75.2693 141.086 74.864C140.713 74.4587 140.425 74 140.222 73.488C140.02 72.9653 139.918 72.4107 139.918 71.824C139.918 71.2373 140.02 70.6827 140.222 70.16C140.425 69.6373 140.713 69.1787 141.086 68.784C141.47 68.3787 141.924 68.064 142.446 67.84C142.98 67.6053 143.572 67.488 144.222 67.488C144.873 67.488 145.46 67.6053 145.982 67.84C146.516 68.064 146.969 68.3787 147.342 68.784C147.726 69.1787 148.02 69.6373 148.222 70.16C148.425 70.6827 148.526 71.2373 148.526 71.824C148.526 72.4107 148.425 72.9653 148.222 73.488C148.02 74 147.726 74.4587 147.342 74.864C146.969 75.2693 146.516 75.5893 145.982 75.824C145.46 76.048 144.873 76.16 144.222 76.16ZM141.726 71.84C141.726 72.3733 141.838 72.8533 142.062 73.28C142.286 73.7067 142.585 74.0427 142.958 74.288C143.332 74.5333 143.753 74.656 144.222 74.656C144.681 74.656 145.097 74.5333 145.47 74.288C145.854 74.032 146.158 73.6907 146.382 73.264C146.606 72.8267 146.718 72.3467 146.718 71.824C146.718 71.2907 146.606 70.8107 146.382 70.384C146.158 69.9573 145.854 69.6213 145.47 69.376C145.097 69.12 144.681 68.992 144.222 68.992C143.753 68.992 143.332 69.12 142.958 69.376C142.585 69.632 142.286 69.9733 142.062 70.4C141.838 70.816 141.726 71.296 141.726 71.84ZM154.618 75.568C154.469 75.6427 154.282 75.7227 154.058 75.808C153.834 75.8933 153.578 75.968 153.29 76.032C153.013 76.096 152.725 76.128 152.426 76.128C152.064 76.128 151.728 76.064 151.418 75.936C151.109 75.808 150.858 75.6053 150.666 75.328C150.485 75.04 150.394 74.672 150.394 74.224V68.992H149.29V67.632H150.394V64.88H152.154V67.632H153.978V68.992H152.154V73.664C152.176 73.952 152.266 74.1653 152.426 74.304C152.597 74.4427 152.805 74.512 153.05 74.512C153.296 74.512 153.53 74.4693 153.754 74.384C153.978 74.2987 154.144 74.2293 154.25 74.176L154.618 75.568ZM159.52 76.16C158.869 76.16 158.277 76.048 157.744 75.824C157.221 75.5893 156.768 75.2747 156.384 74.88C156 74.4747 155.701 74.016 155.488 73.504C155.285 72.9813 155.184 72.4267 155.184 71.84C155.184 71.0507 155.365 70.3307 155.728 69.68C156.091 69.0187 156.597 68.4907 157.248 68.096C157.899 67.6907 158.661 67.488 159.536 67.488C160.411 67.488 161.163 67.6907 161.792 68.096C162.432 68.4907 162.928 69.0133 163.28 69.664C163.632 70.3147 163.808 71.0133 163.808 71.76C163.808 71.888 163.803 72.0107 163.792 72.128C163.781 72.2347 163.771 72.3253 163.76 72.4H157.056C157.088 72.8907 157.221 73.3227 157.456 73.696C157.701 74.0587 158.011 74.3467 158.384 74.56C158.757 74.7627 159.157 74.864 159.584 74.864C160.053 74.864 160.496 74.7467 160.912 74.512C161.339 74.2773 161.627 73.968 161.776 73.584L163.28 74.016C163.099 74.4213 162.821 74.7893 162.448 75.12C162.085 75.44 161.653 75.696 161.152 75.888C160.651 76.0693 160.107 76.16 159.52 76.16ZM157.008 71.232H162.064C162.032 70.752 161.893 70.3307 161.648 69.968C161.413 69.5947 161.109 69.3067 160.736 69.104C160.373 68.8907 159.968 68.784 159.52 68.784C159.083 68.784 158.677 68.8907 158.304 69.104C157.941 69.3067 157.643 69.5947 157.408 69.968C157.173 70.3307 157.04 70.752 157.008 71.232ZM169.036 76.16C168.385 76.16 167.793 76.048 167.26 75.824C166.737 75.5893 166.284 75.2693 165.9 74.864C165.516 74.4587 165.217 73.9947 165.004 73.472C164.801 72.9493 164.7 72.3947 164.7 71.808C164.7 71.0187 164.876 70.2987 165.228 69.648C165.59 68.9973 166.092 68.4747 166.732 68.08C167.382 67.6853 168.15 67.488 169.036 67.488C169.889 67.488 170.63 67.68 171.26 68.064C171.9 68.4373 172.369 68.9387 172.668 69.568L170.956 70.112C170.764 69.76 170.492 69.488 170.14 69.296C169.798 69.0933 169.42 68.992 169.004 68.992C168.534 68.992 168.108 69.1147 167.724 69.36C167.35 69.5947 167.052 69.9253 166.828 70.352C166.614 70.768 166.508 71.2533 166.508 71.808C166.508 72.3413 166.62 72.8267 166.844 73.264C167.068 73.6907 167.366 74.032 167.74 74.288C168.124 74.5333 168.55 74.656 169.02 74.656C169.308 74.656 169.585 74.608 169.852 74.512C170.129 74.4053 170.369 74.2667 170.572 74.096C170.774 73.9147 170.918 73.7173 171.004 73.504L172.732 74.016C172.55 74.432 172.278 74.8 171.916 75.12C171.564 75.44 171.142 75.696 170.652 75.888C170.172 76.0693 169.633 76.16 169.036 76.16ZM173.573 73.552C173.573 73.0187 173.722 72.5547 174.021 72.16C174.33 71.7547 174.752 71.4453 175.285 71.232C175.818 71.008 176.437 70.896 177.141 70.896C177.514 70.896 177.893 70.9227 178.277 70.976C178.672 71.0293 179.018 71.1147 179.317 71.232V70.704C179.317 70.1173 179.141 69.6587 178.789 69.328C178.437 68.9973 177.93 68.832 177.269 68.832C176.8 68.832 176.357 68.9173 175.941 69.088C175.525 69.248 175.082 69.4773 174.613 69.776L174.021 68.592C174.576 68.2187 175.13 67.9413 175.685 67.76C176.25 67.5787 176.842 67.488 177.461 67.488C178.581 67.488 179.461 67.7867 180.101 68.384C180.752 68.9707 181.077 69.808 181.077 70.896V74.016C181.077 74.2187 181.109 74.3627 181.173 74.448C181.248 74.5333 181.37 74.5813 181.541 74.592V76C181.381 76.032 181.237 76.0533 181.109 76.064C180.981 76.0747 180.874 76.08 180.789 76.08C180.416 76.08 180.133 75.9893 179.941 75.808C179.749 75.6267 179.637 75.4133 179.605 75.168L179.557 74.688C179.194 75.1573 178.73 75.52 178.165 75.776C177.6 76.032 177.029 76.16 176.453 76.16C175.898 76.16 175.402 76.048 174.965 75.824C174.528 75.5893 174.186 75.2747 173.941 74.88C173.696 74.4853 173.573 74.0427 173.573 73.552ZM178.901 74.064C179.029 73.9253 179.13 73.7867 179.205 73.648C179.28 73.5093 179.317 73.3867 179.317 73.28V72.32C179.018 72.2027 178.704 72.1173 178.373 72.064C178.042 72 177.717 71.968 177.397 71.968C176.757 71.968 176.234 72.096 175.829 72.352C175.434 72.608 175.237 72.96 175.237 73.408C175.237 73.6533 175.301 73.888 175.429 74.112C175.568 74.336 175.76 74.5173 176.005 74.656C176.261 74.7947 176.576 74.864 176.949 74.864C177.333 74.864 177.701 74.7893 178.053 74.64C178.405 74.4907 178.688 74.2987 178.901 74.064ZM186.637 71.824C186.637 71.024 186.797 70.2987 187.117 69.648C187.448 68.9867 187.896 68.464 188.461 68.08C189.027 67.6853 189.677 67.488 190.413 67.488C191.053 67.488 191.629 67.6533 192.141 67.984C192.664 68.3147 193.069 68.7253 193.357 69.216V64.32H195.117V74.016C195.117 74.2187 195.155 74.3627 195.229 74.448C195.304 74.5333 195.427 74.5813 195.597 74.592V76C195.267 76.0533 195.011 76.08 194.829 76.08C194.499 76.08 194.216 75.984 193.981 75.792C193.757 75.6 193.64 75.3707 193.629 75.104L193.613 74.48C193.293 75.0133 192.861 75.4293 192.317 75.728C191.773 76.016 191.208 76.16 190.621 76.16C190.045 76.16 189.512 76.048 189.021 75.824C188.541 75.6 188.12 75.2853 187.757 74.88C187.405 74.4747 187.128 74.0107 186.925 73.488C186.733 72.9653 186.637 72.4107 186.637 71.824ZM193.357 72.992V70.8C193.24 70.4587 193.048 70.1547 192.781 69.888C192.525 69.6107 192.232 69.392 191.901 69.232C191.581 69.072 191.261 68.992 190.941 68.992C190.568 68.992 190.227 69.072 189.917 69.232C189.619 69.392 189.357 69.6053 189.133 69.872C188.92 70.1387 188.755 70.4427 188.637 70.784C188.52 71.1253 188.461 71.4827 188.461 71.856C188.461 72.24 188.525 72.6027 188.653 72.944C188.781 73.2747 188.963 73.5733 189.197 73.84C189.443 74.096 189.72 74.2987 190.029 74.448C190.349 74.5867 190.696 74.656 191.069 74.656C191.304 74.656 191.539 74.6133 191.773 74.528C192.019 74.4427 192.248 74.3253 192.461 74.176C192.685 74.0267 192.872 73.8507 193.021 73.648C193.181 73.4453 193.293 73.2267 193.357 72.992ZM201.145 76.16C200.494 76.16 199.902 76.048 199.369 75.824C198.846 75.5893 198.393 75.2747 198.009 74.88C197.625 74.4747 197.326 74.016 197.113 73.504C196.91 72.9813 196.809 72.4267 196.809 71.84C196.809 71.0507 196.99 70.3307 197.353 69.68C197.716 69.0187 198.222 68.4907 198.873 68.096C199.524 67.6907 200.286 67.488 201.161 67.488C202.036 67.488 202.788 67.6907 203.417 68.096C204.057 68.4907 204.553 69.0133 204.905 69.664C205.257 70.3147 205.433 71.0133 205.433 71.76C205.433 71.888 205.428 72.0107 205.417 72.128C205.406 72.2347 205.396 72.3253 205.385 72.4H198.681C198.713 72.8907 198.846 73.3227 199.081 73.696C199.326 74.0587 199.636 74.3467 200.009 74.56C200.382 74.7627 200.782 74.864 201.209 74.864C201.678 74.864 202.121 74.7467 202.537 74.512C202.964 74.2773 203.252 73.968 203.401 73.584L204.905 74.016C204.724 74.4213 204.446 74.7893 204.073 75.12C203.71 75.44 203.278 75.696 202.777 75.888C202.276 76.0693 201.732 76.16 201.145 76.16ZM198.633 71.232H203.689C203.657 70.752 203.518 70.3307 203.273 69.968C203.038 69.5947 202.734 69.3067 202.361 69.104C201.998 68.8907 201.593 68.784 201.145 68.784C200.708 68.784 200.302 68.8907 199.929 69.104C199.566 69.3067 199.268 69.5947 199.033 69.968C198.798 70.3307 198.665 70.752 198.633 71.232ZM214.614 76.16C213.963 76.16 213.371 76.048 212.838 75.824C212.315 75.5893 211.862 75.2693 211.478 74.864C211.094 74.4587 210.795 73.9947 210.582 73.472C210.379 72.9493 210.278 72.3947 210.278 71.808C210.278 71.0187 210.454 70.2987 210.806 69.648C211.168 68.9973 211.67 68.4747 212.31 68.08C212.96 67.6853 213.728 67.488 214.614 67.488C215.467 67.488 216.208 67.68 216.838 68.064C217.478 68.4373 217.947 68.9387 218.246 69.568L216.534 70.112C216.342 69.76 216.07 69.488 215.718 69.296C215.376 69.0933 214.998 68.992 214.582 68.992C214.112 68.992 213.686 69.1147 213.302 69.36C212.928 69.5947 212.63 69.9253 212.406 70.352C212.192 70.768 212.086 71.2533 212.086 71.808C212.086 72.3413 212.198 72.8267 212.422 73.264C212.646 73.6907 212.944 74.032 213.318 74.288C213.702 74.5333 214.128 74.656 214.598 74.656C214.886 74.656 215.163 74.608 215.43 74.512C215.707 74.4053 215.947 74.2667 216.15 74.096C216.352 73.9147 216.496 73.7173 216.582 73.504L218.31 74.016C218.128 74.432 217.856 74.8 217.494 75.12C217.142 75.44 216.72 75.696 216.23 75.888C215.75 76.0693 215.211 76.16 214.614 76.16ZM223.441 76.16C222.78 76.16 222.188 76.048 221.665 75.824C221.142 75.5893 220.689 75.2693 220.305 74.864C219.932 74.4587 219.644 74 219.441 73.488C219.238 72.9653 219.137 72.4107 219.137 71.824C219.137 71.2373 219.238 70.6827 219.441 70.16C219.644 69.6373 219.932 69.1787 220.305 68.784C220.689 68.3787 221.142 68.064 221.665 67.84C222.198 67.6053 222.79 67.488 223.441 67.488C224.092 67.488 224.678 67.6053 225.201 67.84C225.734 68.064 226.188 68.3787 226.561 68.784C226.945 69.1787 227.238 69.6373 227.441 70.16C227.644 70.6827 227.745 71.2373 227.745 71.824C227.745 72.4107 227.644 72.9653 227.441 73.488C227.238 74 226.945 74.4587 226.561 74.864C226.188 75.2693 225.734 75.5893 225.201 75.824C224.678 76.048 224.092 76.16 223.441 76.16ZM220.945 71.84C220.945 72.3733 221.057 72.8533 221.281 73.28C221.505 73.7067 221.804 74.0427 222.177 74.288C222.55 74.5333 222.972 74.656 223.441 74.656C223.9 74.656 224.316 74.5333 224.689 74.288C225.073 74.032 225.377 73.6907 225.601 73.264C225.825 72.8267 225.937 72.3467 225.937 71.824C225.937 71.2907 225.825 70.8107 225.601 70.384C225.377 69.9573 225.073 69.6213 224.689 69.376C224.316 69.12 223.9 68.992 223.441 68.992C222.972 68.992 222.55 69.12 222.177 69.376C221.804 69.632 221.505 69.9733 221.281 70.4C221.057 70.816 220.945 71.296 220.945 71.84ZM236.81 76H235.05V71.312C235.05 70.5333 234.922 69.9627 234.666 69.6C234.421 69.2373 234.053 69.056 233.562 69.056C233.221 69.056 232.879 69.1413 232.538 69.312C232.207 69.4827 231.909 69.7173 231.642 70.016C231.375 70.304 231.183 70.64 231.066 71.024V76H229.306V67.632H230.906V69.312C231.119 68.9387 231.397 68.6187 231.738 68.352C232.09 68.0747 232.485 67.8613 232.922 67.712C233.359 67.5627 233.823 67.488 234.314 67.488C234.815 67.488 235.226 67.5787 235.546 67.76C235.877 67.9413 236.133 68.192 236.314 68.512C236.506 68.8213 236.634 69.184 236.698 69.6C236.773 70.0053 236.81 70.4373 236.81 70.896V76ZM243.446 75.568C243.297 75.6427 243.11 75.7227 242.886 75.808C242.662 75.8933 242.406 75.968 242.118 76.032C241.841 76.096 241.553 76.128 241.254 76.128C240.892 76.128 240.556 76.064 240.246 75.936C239.937 75.808 239.686 75.6053 239.494 75.328C239.313 75.04 239.222 74.672 239.222 74.224V68.992H238.118V67.632H239.222V64.88H240.982V67.632H242.806V68.992H240.982V73.664C241.004 73.952 241.094 74.1653 241.254 74.304C241.425 74.4427 241.633 74.512 241.878 74.512C242.124 74.512 242.358 74.4693 242.582 74.384C242.806 74.2987 242.972 74.2293 243.078 74.176L243.446 75.568ZM248.348 76.16C247.697 76.16 247.105 76.048 246.572 75.824C246.049 75.5893 245.596 75.2747 245.212 74.88C244.828 74.4747 244.529 74.016 244.316 73.504C244.113 72.9813 244.012 72.4267 244.012 71.84C244.012 71.0507 244.193 70.3307 244.556 69.68C244.919 69.0187 245.425 68.4907 246.076 68.096C246.727 67.6907 247.489 67.488 248.364 67.488C249.239 67.488 249.991 67.6907 250.62 68.096C251.26 68.4907 251.756 69.0133 252.108 69.664C252.46 70.3147 252.636 71.0133 252.636 71.76C252.636 71.888 252.631 72.0107 252.62 72.128C252.609 72.2347 252.599 72.3253 252.588 72.4H245.884C245.916 72.8907 246.049 73.3227 246.284 73.696C246.529 74.0587 246.839 74.3467 247.212 74.56C247.585 74.7627 247.985 74.864 248.412 74.864C248.881 74.864 249.324 74.7467 249.74 74.512C250.167 74.2773 250.455 73.968 250.604 73.584L252.108 74.016C251.927 74.4213 251.649 74.7893 251.276 75.12C250.913 75.44 250.481 75.696 249.98 75.888C249.479 76.0693 248.935 76.16 248.348 76.16ZM245.836 71.232H250.892C250.86 70.752 250.721 70.3307 250.476 69.968C250.241 69.5947 249.937 69.3067 249.564 69.104C249.201 68.8907 248.796 68.784 248.348 68.784C247.911 68.784 247.505 68.8907 247.132 69.104C246.769 69.3067 246.471 69.5947 246.236 69.968C246.001 70.3307 245.868 70.752 245.836 71.232ZM261.576 76H259.816V71.312C259.816 70.5333 259.688 69.9627 259.432 69.6C259.186 69.2373 258.818 69.056 258.328 69.056C257.986 69.056 257.645 69.1413 257.304 69.312C256.973 69.4827 256.674 69.7173 256.408 70.016C256.141 70.304 255.949 70.64 255.832 71.024V76H254.072V67.632H255.672V69.312C255.885 68.9387 256.162 68.6187 256.504 68.352C256.856 68.0747 257.25 67.8613 257.688 67.712C258.125 67.5627 258.589 67.488 259.08 67.488C259.581 67.488 259.992 67.5787 260.312 67.76C260.642 67.9413 260.898 68.192 261.08 68.512C261.272 68.8213 261.4 69.184 261.464 69.6C261.538 70.0053 261.576 70.4373 261.576 70.896V76ZM263.618 76V67.632H265.379V76H263.618ZM263.618 66.256V64.32H265.379V66.256H263.618ZM266.965 71.824C266.965 71.024 267.126 70.2987 267.446 69.648C267.776 68.9867 268.224 68.464 268.789 68.08C269.355 67.6853 270.006 67.488 270.742 67.488C271.382 67.488 271.958 67.6533 272.47 67.984C272.992 68.3147 273.398 68.7253 273.686 69.216V64.32H275.446V74.016C275.446 74.2187 275.483 74.3627 275.558 74.448C275.632 74.5333 275.755 74.5813 275.926 74.592V76C275.595 76.0533 275.339 76.08 275.158 76.08C274.827 76.08 274.544 75.984 274.31 75.792C274.086 75.6 273.968 75.3707 273.958 75.104L273.942 74.48C273.622 75.0133 273.19 75.4293 272.646 75.728C272.102 76.016 271.536 76.16 270.95 76.16C270.374 76.16 269.84 76.048 269.35 75.824C268.87 75.6 268.448 75.2853 268.086 74.88C267.734 74.4747 267.456 74.0107 267.254 73.488C267.062 72.9653 266.965 72.4107 266.965 71.824ZM273.686 72.992V70.8C273.568 70.4587 273.376 70.1547 273.11 69.888C272.854 69.6107 272.56 69.392 272.23 69.232C271.91 69.072 271.59 68.992 271.27 68.992C270.896 68.992 270.555 69.072 270.246 69.232C269.947 69.392 269.686 69.6053 269.462 69.872C269.248 70.1387 269.083 70.4427 268.966 70.784C268.848 71.1253 268.789 71.4827 268.789 71.856C268.789 72.24 268.854 72.6027 268.982 72.944C269.11 73.2747 269.291 73.5733 269.526 73.84C269.771 74.096 270.048 74.2987 270.358 74.448C270.678 74.5867 271.024 74.656 271.398 74.656C271.632 74.656 271.867 74.6133 272.102 74.528C272.347 74.4427 272.576 74.3253 272.79 74.176C273.014 74.0267 273.2 73.8507 273.35 73.648C273.51 73.4453 273.622 73.2267 273.686 72.992ZM281.441 76.16C280.78 76.16 280.188 76.048 279.665 75.824C279.142 75.5893 278.689 75.2693 278.305 74.864C277.932 74.4587 277.644 74 277.441 73.488C277.238 72.9653 277.137 72.4107 277.137 71.824C277.137 71.2373 277.238 70.6827 277.441 70.16C277.644 69.6373 277.932 69.1787 278.305 68.784C278.689 68.3787 279.142 68.064 279.665 67.84C280.198 67.6053 280.79 67.488 281.441 67.488C282.092 67.488 282.678 67.6053 283.201 67.84C283.734 68.064 284.188 68.3787 284.561 68.784C284.945 69.1787 285.238 69.6373 285.441 70.16C285.644 70.6827 285.745 71.2373 285.745 71.824C285.745 72.4107 285.644 72.9653 285.441 73.488C285.238 74 284.945 74.4587 284.561 74.864C284.188 75.2693 283.734 75.5893 283.201 75.824C282.678 76.048 282.092 76.16 281.441 76.16ZM278.945 71.84C278.945 72.3733 279.057 72.8533 279.281 73.28C279.505 73.7067 279.804 74.0427 280.177 74.288C280.55 74.5333 280.972 74.656 281.441 74.656C281.9 74.656 282.316 74.5333 282.689 74.288C283.073 74.032 283.377 73.6907 283.601 73.264C283.825 72.8267 283.937 72.3467 283.937 71.824C283.937 71.2907 283.825 70.8107 283.601 70.384C283.377 69.9573 283.073 69.6213 282.689 69.376C282.316 69.12 281.9 68.992 281.441 68.992C280.972 68.992 280.55 69.12 280.177 69.376C279.804 69.632 279.505 69.9733 279.281 70.4C279.057 70.816 278.945 71.296 278.945 71.84ZM290.282 76.16C289.578 76.16 288.911 76.048 288.282 75.824C287.653 75.5893 287.114 75.2427 286.666 74.784L287.322 73.6C287.802 74.0267 288.282 74.336 288.762 74.528C289.253 74.72 289.738 74.816 290.218 74.816C290.709 74.816 291.109 74.7253 291.418 74.544C291.727 74.352 291.882 74.0747 291.882 73.712C291.882 73.4453 291.802 73.248 291.642 73.12C291.482 72.992 291.247 72.88 290.938 72.784C290.639 72.688 290.277 72.5813 289.85 72.464C289.253 72.2827 288.751 72.096 288.346 71.904C287.941 71.7013 287.637 71.456 287.434 71.168C287.231 70.88 287.13 70.512 287.13 70.064C287.13 69.52 287.269 69.056 287.546 68.672C287.823 68.288 288.207 67.9947 288.698 67.792C289.199 67.5893 289.775 67.488 290.426 67.488C291.034 67.488 291.594 67.584 292.106 67.776C292.629 67.9573 293.087 68.2453 293.482 68.64L292.73 69.808C292.357 69.4667 291.973 69.216 291.578 69.056C291.194 68.896 290.778 68.816 290.33 68.816C290.074 68.816 289.829 68.848 289.594 68.912C289.359 68.9653 289.162 69.072 289.002 69.232C288.853 69.3813 288.778 69.5947 288.778 69.872C288.778 70.096 288.842 70.2773 288.97 70.416C289.098 70.5547 289.29 70.672 289.546 70.768C289.802 70.864 290.117 70.9707 290.49 71.088C291.141 71.28 291.695 71.472 292.154 71.664C292.613 71.8453 292.965 72.0853 293.21 72.384C293.466 72.672 293.594 73.072 293.594 73.584C293.594 74.3947 293.29 75.0293 292.682 75.488C292.085 75.936 291.285 76.16 290.282 76.16Z" fill="black"/>
<g filter="url(#filter13_d_628_968)">
<rect x="49" y="362" width="489" height="342" rx="5" fill="white"/>
</g>
<path d="M64 348C64 345.239 66.2386 343 69 343H260.959C266.481 343 270.959 347.477 270.959 353V378.998H64V348Z" fill="#2962FF"/>
<path d="M112.223 353.768L114.394 360.502L116.539 353.768H118.788L115.434 362.998H113.341L109.961 353.768H112.223ZM119.475 362.998V356.173H121.555V362.998H119.475ZM119.475 355.393V353.508H121.555V355.393H119.475ZM122.589 359.579C122.589 358.911 122.719 358.313 122.979 357.785C123.239 357.247 123.594 356.823 124.045 356.511C124.495 356.199 125.015 356.043 125.605 356.043C126.081 356.043 126.515 356.16 126.905 356.394C127.295 356.619 127.589 356.918 127.789 357.291V353.508H129.869V360.684C129.869 360.892 129.903 361.039 129.973 361.126C130.042 361.204 130.155 361.251 130.311 361.269V362.998C129.947 363.067 129.652 363.102 129.427 363.102C129.071 363.102 128.781 363.024 128.556 362.868C128.339 362.712 128.205 362.495 128.153 362.218L128.114 361.867C127.871 362.291 127.542 362.608 127.126 362.816C126.71 363.024 126.272 363.128 125.813 363.128C125.345 363.128 124.911 363.041 124.513 362.868C124.123 362.686 123.78 362.434 123.486 362.114C123.2 361.793 122.979 361.416 122.823 360.983C122.667 360.549 122.589 360.081 122.589 359.579ZM127.802 360.424V358.994C127.715 358.76 127.589 358.556 127.425 358.383C127.269 358.209 127.087 358.071 126.879 357.967C126.679 357.863 126.476 357.811 126.268 357.811C126.042 357.811 125.834 357.858 125.644 357.954C125.462 358.049 125.301 358.183 125.163 358.357C125.024 358.521 124.916 358.712 124.838 358.929C124.768 359.145 124.734 359.375 124.734 359.618C124.734 359.869 124.773 360.103 124.851 360.32C124.937 360.528 125.054 360.714 125.202 360.879C125.349 361.035 125.522 361.156 125.722 361.243C125.921 361.329 126.138 361.373 126.372 361.373C126.519 361.373 126.662 361.351 126.801 361.308C126.939 361.256 127.069 361.191 127.191 361.113C127.321 361.035 127.438 360.935 127.542 360.814C127.646 360.692 127.732 360.562 127.802 360.424ZM134.748 363.128C134.167 363.128 133.651 363.037 133.201 362.855C132.75 362.664 132.364 362.408 132.044 362.088C131.732 361.767 131.493 361.399 131.329 360.983C131.164 360.558 131.082 360.116 131.082 359.657C131.082 358.998 131.225 358.4 131.511 357.863C131.805 357.317 132.226 356.879 132.772 356.55C133.318 356.212 133.976 356.043 134.748 356.043C135.519 356.043 136.173 356.207 136.711 356.537C137.257 356.866 137.673 357.299 137.959 357.837C138.245 358.365 138.388 358.942 138.388 359.566C138.388 359.687 138.379 359.808 138.362 359.93C138.353 360.042 138.344 360.142 138.336 360.229H133.292C133.318 360.532 133.4 360.788 133.539 360.996C133.686 361.204 133.872 361.364 134.098 361.477C134.323 361.581 134.561 361.633 134.813 361.633C135.125 361.633 135.415 361.559 135.684 361.412C135.961 361.264 136.152 361.065 136.256 360.814L138.024 361.308C137.85 361.663 137.603 361.979 137.283 362.257C136.971 362.525 136.598 362.738 136.165 362.894C135.74 363.05 135.268 363.128 134.748 363.128ZM133.24 358.955H136.204C136.169 358.669 136.087 358.422 135.957 358.214C135.827 357.997 135.653 357.832 135.437 357.72C135.22 357.598 134.982 357.538 134.722 357.538C134.453 357.538 134.21 357.598 133.994 357.72C133.786 357.832 133.617 357.997 133.487 358.214C133.357 358.422 133.274 358.669 133.24 358.955ZM142.58 363.128C142 363.128 141.48 363.032 141.02 362.842C140.57 362.651 140.188 362.391 139.876 362.062C139.564 361.732 139.326 361.355 139.161 360.931C139.005 360.506 138.927 360.06 138.927 359.592C138.927 359.115 139.005 358.664 139.161 358.24C139.326 357.815 139.564 357.438 139.876 357.109C140.188 356.779 140.57 356.519 141.02 356.329C141.48 356.138 142 356.043 142.58 356.043C143.161 356.043 143.677 356.138 144.127 356.329C144.578 356.519 144.959 356.779 145.271 357.109C145.583 357.438 145.822 357.815 145.986 358.24C146.151 358.664 146.233 359.115 146.233 359.592C146.233 360.06 146.151 360.506 145.986 360.931C145.822 361.355 145.583 361.732 145.271 362.062C144.959 362.391 144.578 362.651 144.127 362.842C143.677 363.032 143.161 363.128 142.58 363.128ZM141.059 359.592C141.059 359.947 141.124 360.259 141.254 360.528C141.393 360.796 141.575 361.004 141.8 361.152C142.026 361.299 142.286 361.373 142.58 361.373C142.866 361.373 143.122 361.299 143.347 361.152C143.581 360.996 143.763 360.783 143.893 360.515C144.023 360.246 144.088 359.938 144.088 359.592C144.088 359.236 144.023 358.924 143.893 358.656C143.763 358.387 143.581 358.179 143.347 358.032C143.122 357.884 142.866 357.811 142.58 357.811C142.286 357.811 142.026 357.884 141.8 358.032C141.575 358.179 141.393 358.387 141.254 358.656C141.124 358.924 141.059 359.236 141.059 359.592ZM150.299 362.998V356.173H152.379V362.998H150.299ZM150.299 355.393V353.508H152.379V355.393H150.299ZM160.381 362.998H158.301V359.163C158.301 358.712 158.214 358.387 158.041 358.188C157.876 357.98 157.655 357.876 157.378 357.876C157.187 357.876 156.992 357.928 156.793 358.032C156.594 358.136 156.412 358.279 156.247 358.461C156.091 358.643 155.97 358.851 155.883 359.085V362.998H153.803V356.173H155.675V357.317C155.848 357.048 156.065 356.818 156.325 356.628C156.585 356.437 156.884 356.294 157.222 356.199C157.56 356.095 157.928 356.043 158.327 356.043C158.769 356.043 159.124 356.125 159.393 356.29C159.67 356.446 159.878 356.654 160.017 356.914C160.164 357.174 160.26 357.455 160.303 357.759C160.355 358.053 160.381 358.344 160.381 358.63V362.998ZM166.17 362.634C165.979 362.712 165.767 362.79 165.533 362.868C165.308 362.946 165.069 363.006 164.818 363.05C164.567 363.102 164.32 363.128 164.077 363.128C163.73 363.128 163.41 363.071 163.115 362.959C162.829 362.837 162.599 362.642 162.426 362.374C162.261 362.105 162.179 361.75 162.179 361.308V357.746H161.308V356.173H162.179V354.002H164.259V356.173H165.65V357.746H164.259V360.593C164.259 360.818 164.315 360.983 164.428 361.087C164.541 361.182 164.684 361.23 164.857 361.23C165.004 361.23 165.16 361.204 165.325 361.152C165.498 361.1 165.646 361.043 165.767 360.983L166.17 362.634ZM170.167 363.128C169.587 363.128 169.071 363.037 168.62 362.855C168.17 362.664 167.784 362.408 167.463 362.088C167.151 361.767 166.913 361.399 166.748 360.983C166.584 360.558 166.501 360.116 166.501 359.657C166.501 358.998 166.644 358.4 166.93 357.863C167.225 357.317 167.645 356.879 168.191 356.55C168.737 356.212 169.396 356.043 170.167 356.043C170.939 356.043 171.593 356.207 172.13 356.537C172.676 356.866 173.092 357.299 173.378 357.837C173.664 358.365 173.807 358.942 173.807 359.566C173.807 359.687 173.799 359.808 173.781 359.93C173.773 360.042 173.764 360.142 173.755 360.229H168.711C168.737 360.532 168.82 360.788 168.958 360.996C169.106 361.204 169.292 361.364 169.517 361.477C169.743 361.581 169.981 361.633 170.232 361.633C170.544 361.633 170.835 361.559 171.103 361.412C171.381 361.264 171.571 361.065 171.675 360.814L173.443 361.308C173.27 361.663 173.023 361.979 172.702 362.257C172.39 362.525 172.018 362.738 171.584 362.894C171.16 363.05 170.687 363.128 170.167 363.128ZM168.659 358.955H171.623C171.589 358.669 171.506 358.422 171.376 358.214C171.246 357.997 171.073 357.832 170.856 357.72C170.64 357.598 170.401 357.538 170.141 357.538C169.873 357.538 169.63 357.598 169.413 357.72C169.205 357.832 169.036 357.997 168.906 358.214C168.776 358.422 168.694 358.669 168.659 358.955ZM179.079 357.954C178.576 357.954 178.121 358.036 177.714 358.201C177.307 358.357 177.012 358.591 176.83 358.903V362.998H174.75V356.173H176.661V357.551C176.895 357.091 177.198 356.732 177.571 356.472C177.944 356.212 178.334 356.077 178.741 356.069C178.836 356.069 178.906 356.069 178.949 356.069C179.001 356.069 179.044 356.073 179.079 356.082V357.954ZM179.475 360.957C179.475 360.506 179.601 360.112 179.852 359.774C180.104 359.436 180.45 359.171 180.892 358.981C181.334 358.781 181.841 358.682 182.413 358.682C182.691 358.682 182.964 358.708 183.232 358.76C183.501 358.803 183.735 358.868 183.934 358.955V358.656C183.934 358.283 183.822 357.997 183.596 357.798C183.371 357.598 183.029 357.499 182.569 357.499C182.188 357.499 181.828 357.564 181.49 357.694C181.161 357.824 180.81 358.01 180.437 358.253L179.813 356.927C180.264 356.632 180.732 356.411 181.217 356.264C181.711 356.116 182.231 356.043 182.777 356.043C183.8 356.043 184.593 356.29 185.156 356.784C185.728 357.269 186.014 357.975 186.014 358.903V360.684C186.014 360.892 186.045 361.039 186.105 361.126C186.175 361.204 186.292 361.251 186.456 361.269V362.998C186.283 363.032 186.118 363.058 185.962 363.076C185.815 363.093 185.685 363.102 185.572 363.102C185.182 363.102 184.883 363.024 184.675 362.868C184.476 362.712 184.35 362.499 184.298 362.231L184.259 361.932C183.956 362.322 183.592 362.621 183.167 362.829C182.751 363.028 182.314 363.128 181.854 363.128C181.404 363.128 180.996 363.032 180.632 362.842C180.277 362.651 179.995 362.391 179.787 362.062C179.579 361.732 179.475 361.364 179.475 360.957ZM183.609 361.217C183.705 361.139 183.783 361.052 183.843 360.957C183.904 360.861 183.934 360.77 183.934 360.684V360.073C183.761 360.003 183.566 359.951 183.349 359.917C183.141 359.873 182.946 359.852 182.764 359.852C182.383 359.852 182.067 359.938 181.815 360.112C181.564 360.276 181.438 360.497 181.438 360.775C181.438 360.931 181.482 361.074 181.568 361.204C181.655 361.334 181.772 361.438 181.919 361.516C182.075 361.594 182.257 361.633 182.465 361.633C182.673 361.633 182.881 361.594 183.089 361.516C183.297 361.438 183.471 361.338 183.609 361.217ZM190.785 363.128C190.204 363.128 189.688 363.032 189.238 362.842C188.787 362.651 188.401 362.391 188.081 362.062C187.769 361.732 187.53 361.355 187.366 360.931C187.201 360.506 187.119 360.055 187.119 359.579C187.119 358.955 187.262 358.374 187.548 357.837C187.842 357.299 188.263 356.866 188.809 356.537C189.355 356.207 190.013 356.043 190.785 356.043C191.565 356.043 192.223 356.212 192.761 356.55C193.307 356.879 193.714 357.312 193.983 357.85L191.955 358.461C191.825 358.253 191.656 358.092 191.448 357.98C191.248 357.867 191.023 357.811 190.772 357.811C190.486 357.811 190.226 357.884 189.992 358.032C189.766 358.179 189.584 358.383 189.446 358.643C189.316 358.903 189.251 359.215 189.251 359.579C189.251 359.934 189.32 360.246 189.459 360.515C189.597 360.783 189.779 360.996 190.005 361.152C190.23 361.299 190.486 361.373 190.772 361.373C190.945 361.373 191.105 361.347 191.253 361.295C191.409 361.234 191.547 361.152 191.669 361.048C191.799 360.944 191.898 360.827 191.968 360.697L193.996 361.321C193.831 361.667 193.593 361.979 193.281 362.257C192.977 362.525 192.618 362.738 192.202 362.894C191.786 363.05 191.313 363.128 190.785 363.128ZM199.356 362.634C199.165 362.712 198.953 362.79 198.719 362.868C198.493 362.946 198.255 363.006 198.004 363.05C197.752 363.102 197.505 363.128 197.263 363.128C196.916 363.128 196.595 363.071 196.301 362.959C196.015 362.837 195.785 362.642 195.612 362.374C195.447 362.105 195.365 361.75 195.365 361.308V357.746H194.494V356.173H195.365V354.002H197.445V356.173H198.836V357.746H197.445V360.593C197.445 360.818 197.501 360.983 197.614 361.087C197.726 361.182 197.869 361.23 198.043 361.23C198.19 361.23 198.346 361.204 198.511 361.152C198.684 361.1 198.831 361.043 198.953 360.983L199.356 362.634ZM200.166 362.998V356.173H202.246V362.998H200.166ZM200.166 355.393V353.508H202.246V355.393H200.166ZM205.438 362.998L203.02 356.173H205.165L206.66 361.126L208.155 356.173H210.105L207.7 362.998H205.438ZM213.915 363.128C213.335 363.128 212.815 363.032 212.355 362.842C211.905 362.651 211.523 362.391 211.211 362.062C210.899 361.732 210.661 361.355 210.496 360.931C210.34 360.506 210.262 360.06 210.262 359.592C210.262 359.115 210.34 358.664 210.496 358.24C210.661 357.815 210.899 357.438 211.211 357.109C211.523 356.779 211.905 356.519 212.355 356.329C212.815 356.138 213.335 356.043 213.915 356.043C214.496 356.043 215.012 356.138 215.462 356.329C215.913 356.519 216.294 356.779 216.606 357.109C216.918 357.438 217.157 357.815 217.321 358.24C217.486 358.664 217.568 359.115 217.568 359.592C217.568 360.06 217.486 360.506 217.321 360.931C217.157 361.355 216.918 361.732 216.606 362.062C216.294 362.391 215.913 362.651 215.462 362.842C215.012 363.032 214.496 363.128 213.915 363.128ZM212.394 359.592C212.394 359.947 212.459 360.259 212.589 360.528C212.728 360.796 212.91 361.004 213.135 361.152C213.361 361.299 213.621 361.373 213.915 361.373C214.201 361.373 214.457 361.299 214.682 361.152C214.916 360.996 215.098 360.783 215.228 360.515C215.358 360.246 215.423 359.938 215.423 359.592C215.423 359.236 215.358 358.924 215.228 358.656C215.098 358.387 214.916 358.179 214.682 358.032C214.457 357.884 214.201 357.811 213.915 357.811C213.621 357.811 213.361 357.884 213.135 358.032C212.91 358.179 212.728 358.387 212.589 358.656C212.459 358.924 212.394 359.236 212.394 359.592Z" fill="#E6E6E6"/>
<g filter="url(#filter14_d_628_968)">
<path d="M112 483C112 480.239 114.239 478 117 478H477C482.523 478 487 482.477 487 488V644C487 645.657 485.657 647 484 647H117C114.239 647 112 644.761 112 642V483Z" fill="white"/>
</g>
<path d="M112 428C112 425.239 114.239 423 117 423H477C482.523 423 487 427.477 487 433V625H112V428Z" fill="#545454"/>
<path d="M300.411 474C275.878 474 256 493.878 256 518.411C256 542.945 275.878 562.823 300.411 562.823C324.945 562.823 344.823 542.945 344.823 518.411C344.823 493.878 324.945 474 300.411 474ZM321.131 522.709L289.613 540.796C286.784 542.372 283.22 540.349 283.22 537.036V499.787C283.22 496.492 286.766 494.451 289.613 496.027L321.131 515.188C324.068 516.836 324.068 521.08 321.131 522.709Z" fill="#FFBB00"/>
<path d="M118.843 660.26C111.196 660.26 105 666.455 105 674.102C105 681.749 111.196 687.945 118.843 687.945C126.489 687.945 132.685 681.749 132.685 674.102C132.685 666.455 126.489 660.26 118.843 660.26ZM125.301 675.442L115.477 681.079C114.595 681.571 113.484 680.94 113.484 679.907V668.297C113.484 667.27 114.589 666.634 115.477 667.125L125.301 673.098C126.216 673.611 126.216 674.934 125.301 675.442Z" fill="#FF6D00"/>
<rect x="138" y="664" width="349" height="20" rx="5" fill="url(#paint0_linear_628_968)"/>
<circle cx="188.055" cy="674.102" r="9.22835" fill="#FF6D00"/>
<circle cx="260.728" cy="672.949" r="9.22835" fill="#FF6D00"/>
<circle cx="355.319" cy="674.102" r="9.22835" fill="#FF6D00"/>
<path d="M661.2 23C640.7 23 624 39.6 624 60.2C624 80.7 640.6 97.4 661.2 97.4C681.7 97.4 698.4 80.8 698.4 60.2C698.3 39.6 681.7 23 661.2 23ZM661.2 84C648 84 637.3 73.3 637.3 60.1C637.3 46.9 648 36.2 661.2 36.2C674.4 36.2 685.1 46.9 685.1 60.1C685 73.3 674.3 84 661.2 84Z" fill="#FFBB00"/>
<path d="M661.2 76.2002H721.3L691.3 120.4L661.2 76.2002Z" fill="#2962FF"/>
<path d="M661.2 62.4001H721.3L691.3 106.6L661.2 62.4001Z" fill="#FF6D00"/>
<path d="M661.2 45.6001H721.3L691.3 89.8001L661.2 45.6001Z" fill="#9D9D9D"/>
<defs>
<filter id="filter0_d_628_968" x="74" y="45" width="631" height="460" filterUnits="userSpaceOnUse" color-interpolation-filters="sRGB">
<feFlood flood-opacity="0" result="BackgroundImageFix"/>
<feColorMatrix in="SourceAlpha" type="matrix" values="0 0 0 0 0 0 0 0 0 0 0 0 0 0 0 0 0 0 127 0" result="hardAlpha"/>
<feOffset dy="4"/>
<feGaussianBlur stdDeviation="2"/>
<feComposite in2="hardAlpha" operator="out"/>
<feColorMatrix type="matrix" values="0 0 0 0 0 0 0 0 0 0 0 0 0 0 0 0 0 0 0.25 0"/>
<feBlend mode="normal" in2="BackgroundImageFix" result="effect1_dropShadow_628_968"/>
<feBlend mode="normal" in="SourceGraphic" in2="effect1_dropShadow_628_968" result="shape"/>
</filter>
<filter id="filter1_d_628_968" x="117" y="190" width="124.85" height="112.25" filterUnits="userSpaceOnUse" color-interpolation-filters="sRGB">
<feFlood flood-opacity="0" result="BackgroundImageFix"/>
<feColorMatrix in="SourceAlpha" type="matrix" values="0 0 0 0 0 0 0 0 0 0 0 0 0 0 0 0 0 0 127 0" result="hardAlpha"/>
<feOffset dx="4" dy="4"/>
<feGaussianBlur stdDeviation="5"/>
<feComposite in2="hardAlpha" operator="out"/>
<feColorMatrix type="matrix" values="0 0 0 0 0 0 0 0 0 0 0 0 0 0 0 0 0 0 0.25 0"/>
<feBlend mode="normal" in2="BackgroundImageFix" result="effect1_dropShadow_628_968"/>
<feBlend mode="normal" in="SourceGraphic" in2="effect1_dropShadow_628_968" result="shape"/>
</filter>
<filter id="filter2_d_628_968" x="117" y="303" width="124.85" height="112.25" filterUnits="userSpaceOnUse" color-interpolation-filters="sRGB">
<feFlood flood-opacity="0" result="BackgroundImageFix"/>
<feColorMatrix in="SourceAlpha" type="matrix" values="0 0 0 0 0 0 0 0 0 0 0 0 0 0 0 0 0 0 127 0" result="hardAlpha"/>
<feOffset dx="4" dy="4"/>
<feGaussianBlur stdDeviation="5"/>
<feComposite in2="hardAlpha" operator="out"/>
<feColorMatrix type="matrix" values="0 0 0 0 0 0 0 0 0 0 0 0 0 0 0 0 0 0 0.25 0"/>
<feBlend mode="normal" in2="BackgroundImageFix" result="effect1_dropShadow_628_968"/>
<feBlend mode="normal" in="SourceGraphic" in2="effect1_dropShadow_628_968" result="shape"/>
</filter>
<filter id="filter3_d_628_968" x="252.85" y="190" width="124.85" height="112.25" filterUnits="userSpaceOnUse" color-interpolation-filters="sRGB">
<feFlood flood-opacity="0" result="BackgroundImageFix"/>
<feColorMatrix in="SourceAlpha" type="matrix" values="0 0 0 0 0 0 0 0 0 0 0 0 0 0 0 0 0 0 127 0" result="hardAlpha"/>
<feOffset dx="4" dy="4"/>
<feGaussianBlur stdDeviation="5"/>
<feComposite in2="hardAlpha" operator="out"/>
<feColorMatrix type="matrix" values="0 0 0 0 0 0 0 0 0 0 0 0 0 0 0 0 0 0 0.25 0"/>
<feBlend mode="normal" in2="BackgroundImageFix" result="effect1_dropShadow_628_968"/>
<feBlend mode="normal" in="SourceGraphic" in2="effect1_dropShadow_628_968" result="shape"/>
</filter>
<filter id="filter4_d_628_968" x="252.85" y="302" width="124.85" height="112.25" filterUnits="userSpaceOnUse" color-interpolation-filters="sRGB">
<feFlood flood-opacity="0" result="BackgroundImageFix"/>
<feColorMatrix in="SourceAlpha" type="matrix" values="0 0 0 0 0 0 0 0 0 0 0 0 0 0 0 0 0 0 127 0" result="hardAlpha"/>
<feOffset dx="4" dy="4"/>
<feGaussianBlur stdDeviation="5"/>
<feComposite in2="hardAlpha" operator="out"/>
<feColorMatrix type="matrix" values="0 0 0 0 0 0 0 0 0 0 0 0 0 0 0 0 0 0 0.25 0"/>
<feBlend mode="normal" in2="BackgroundImageFix" result="effect1_dropShadow_628_968"/>
<feBlend mode="normal" in="SourceGraphic" in2="effect1_dropShadow_628_968" result="shape"/>
</filter>
<filter id="filter5_d_628_968" x="388.7" y="190" width="124.85" height="112.25" filterUnits="userSpaceOnUse" color-interpolation-filters="sRGB">
<feFlood flood-opacity="0" result="BackgroundImageFix"/>
<feColorMatrix in="SourceAlpha" type="matrix" values="0 0 0 0 0 0 0 0 0 0 0 0 0 0 0 0 0 0 127 0" result="hardAlpha"/>
<feOffset dx="4" dy="4"/>
<feGaussianBlur stdDeviation="5"/>
<feComposite in2="hardAlpha" operator="out"/>
<feColorMatrix type="matrix" values="0 0 0 0 0 0 0 0 0 0 0 0 0 0 0 0 0 0 0.25 0"/>
<feBlend mode="normal" in2="BackgroundImageFix" result="effect1_dropShadow_628_968"/>
<feBlend mode="normal" in="SourceGraphic" in2="effect1_dropShadow_628_968" result="shape"/>
</filter>
<filter id="filter6_d_628_968" x="525" y="191" width="124.85" height="112.25" filterUnits="userSpaceOnUse" color-interpolation-filters="sRGB">
<feFlood flood-opacity="0" result="BackgroundImageFix"/>
<feColorMatrix in="SourceAlpha" type="matrix" values="0 0 0 0 0 0 0 0 0 0 0 0 0 0 0 0 0 0 127 0" result="hardAlpha"/>
<feOffset dx="4" dy="4"/>
<feGaussianBlur stdDeviation="5"/>
<feComposite in2="hardAlpha" operator="out"/>
<feColorMatrix type="matrix" values="0 0 0 0 0 0 0 0 0 0 0 0 0 0 0 0 0 0 0.25 0"/>
<feBlend mode="normal" in2="BackgroundImageFix" result="effect1_dropShadow_628_968"/>
<feBlend mode="normal" in="SourceGraphic" in2="effect1_dropShadow_628_968" result="shape"/>
</filter>
<filter id="filter7_d_628_968" x="388.7" y="302" width="124.85" height="112.25" filterUnits="userSpaceOnUse" color-interpolation-filters="sRGB">
<feFlood flood-opacity="0" result="BackgroundImageFix"/>
<feColorMatrix in="SourceAlpha" type="matrix" values="0 0 0 0 0 0 0 0 0 0 0 0 0 0 0 0 0 0 127 0" result="hardAlpha"/>
<feOffset dx="4" dy="4"/>
<feGaussianBlur stdDeviation="5"/>
<feComposite in2="hardAlpha" operator="out"/>
<feColorMatrix type="matrix" values="0 0 0 0 0 0 0 0 0 0 0 0 0 0 0 0 0 0 0.25 0"/>
<feBlend mode="normal" in2="BackgroundImageFix" result="effect1_dropShadow_628_968"/>
<feBlend mode="normal" in="SourceGraphic" in2="effect1_dropShadow_628_968" result="shape"/>
</filter>
<filter id="filter8_d_628_968" x="525" y="303" width="124.85" height="112.25" filterUnits="userSpaceOnUse" color-interpolation-filters="sRGB">
<feFlood flood-opacity="0" result="BackgroundImageFix"/>
<feColorMatrix in="SourceAlpha" type="matrix" values="0 0 0 0 0 0 0 0 0 0 0 0 0 0 0 0 0 0 127 0" result="hardAlpha"/>
<feOffset dx="4" dy="4"/>
<feGaussianBlur stdDeviation="5"/>
<feComposite in2="hardAlpha" operator="out"/>
<feColorMatrix type="matrix" values="0 0 0 0 0 0 0 0 0 0 0 0 0 0 0 0 0 0 0.25 0"/>
<feBlend mode="normal" in2="BackgroundImageFix" result="effect1_dropShadow_628_968"/>
<feBlend mode="normal" in="SourceGraphic" in2="effect1_dropShadow_628_968" result="shape"/>
</filter>
<filter id="filter9_d_628_968" x="525" y="417" width="124.85" height="94" filterUnits="userSpaceOnUse" color-interpolation-filters="sRGB">
<feFlood flood-opacity="0" result="BackgroundImageFix"/>
<feColorMatrix in="SourceAlpha" type="matrix" values="0 0 0 0 0 0 0 0 0 0 0 0 0 0 0 0 0 0 127 0" result="hardAlpha"/>
<feOffset dx="4" dy="4"/>
<feGaussianBlur stdDeviation="5"/>
<feComposite in2="hardAlpha" operator="out"/>
<feColorMatrix type="matrix" values="0 0 0 0 0 0 0 0 0 0 0 0 0 0 0 0 0 0 0.25 0"/>
<feBlend mode="normal" in2="BackgroundImageFix" result="effect1_dropShadow_628_968"/>
<feBlend mode="normal" in="SourceGraphic" in2="effect1_dropShadow_628_968" result="shape"/>
</filter>
<filter id="filter10_d_628_968" x="389" y="417" width="124.85" height="94" filterUnits="userSpaceOnUse" color-interpolation-filters="sRGB">
<feFlood flood-opacity="0" result="BackgroundImageFix"/>
<feColorMatrix in="SourceAlpha" type="matrix" values="0 0 0 0 0 0 0 0 0 0 0 0 0 0 0 0 0 0 127 0" result="hardAlpha"/>
<feOffset dx="4" dy="4"/>
<feGaussianBlur stdDeviation="5"/>
<feComposite in2="hardAlpha" operator="out"/>
<feColorMatrix type="matrix" values="0 0 0 0 0 0 0 0 0 0 0 0 0 0 0 0 0 0 0.25 0"/>
<feBlend mode="normal" in2="BackgroundImageFix" result="effect1_dropShadow_628_968"/>
<feBlend mode="normal" in="SourceGraphic" in2="effect1_dropShadow_628_968" result="shape"/>
</filter>
<filter id="filter11_d_628_968" x="251" y="417" width="124.85" height="94" filterUnits="userSpaceOnUse" color-interpolation-filters="sRGB">
<feFlood flood-opacity="0" result="BackgroundImageFix"/>
<feColorMatrix in="SourceAlpha" type="matrix" values="0 0 0 0 0 0 0 0 0 0 0 0 0 0 0 0 0 0 127 0" result="hardAlpha"/>
<feOffset dx="4" dy="4"/>
<feGaussianBlur stdDeviation="5"/>
<feComposite in2="hardAlpha" operator="out"/>
<feColorMatrix type="matrix" values="0 0 0 0 0 0 0 0 0 0 0 0 0 0 0 0 0 0 0.25 0"/>
<feBlend mode="normal" in2="BackgroundImageFix" result="effect1_dropShadow_628_968"/>
<feBlend mode="normal" in="SourceGraphic" in2="effect1_dropShadow_628_968" result="shape"/>
</filter>
<filter id="filter12_d_628_968" x="117" y="417" width="124.85" height="94" filterUnits="userSpaceOnUse" color-interpolation-filters="sRGB">
<feFlood flood-opacity="0" result="BackgroundImageFix"/>
<feColorMatrix in="SourceAlpha" type="matrix" values="0 0 0 0 0 0 0 0 0 0 0 0 0 0 0 0 0 0 127 0" result="hardAlpha"/>
<feOffset dx="4" dy="4"/>
<feGaussianBlur stdDeviation="5"/>
<feComposite in2="hardAlpha" operator="out"/>
<feColorMatrix type="matrix" values="0 0 0 0 0 0 0 0 0 0 0 0 0 0 0 0 0 0 0.25 0"/>
<feBlend mode="normal" in2="BackgroundImageFix" result="effect1_dropShadow_628_968"/>
<feBlend mode="normal" in="SourceGraphic" in2="effect1_dropShadow_628_968" result="shape"/>
</filter>
<filter id="filter13_d_628_968" x="45" y="362" width="497" height="350" filterUnits="userSpaceOnUse" color-interpolation-filters="sRGB">
<feFlood flood-opacity="0" result="BackgroundImageFix"/>
<feColorMatrix in="SourceAlpha" type="matrix" values="0 0 0 0 0 0 0 0 0 0 0 0 0 0 0 0 0 0 127 0" result="hardAlpha"/>
<feOffset dy="4"/>
<feGaussianBlur stdDeviation="2"/>
<feComposite in2="hardAlpha" operator="out"/>
<feColorMatrix type="matrix" values="0 0 0 0 0 0 0 0 0 0 0 0 0 0 0 0 0 0 0.25 0"/>
<feBlend mode="normal" in2="BackgroundImageFix" result="effect1_dropShadow_628_968"/>
<feBlend mode="normal" in="SourceGraphic" in2="effect1_dropShadow_628_968" result="shape"/>
</filter>
<filter id="filter14_d_628_968" x="106" y="472" width="395" height="189" filterUnits="userSpaceOnUse" color-interpolation-filters="sRGB">
<feFlood flood-opacity="0" result="BackgroundImageFix"/>
<feColorMatrix in="SourceAlpha" type="matrix" values="0 0 0 0 0 0 0 0 0 0 0 0 0 0 0 0 0 0 127 0" result="hardAlpha"/>
<feOffset dx="4" dy="4"/>
<feGaussianBlur stdDeviation="5"/>
<feComposite in2="hardAlpha" operator="out"/>
<feColorMatrix type="matrix" values="0 0 0 0 0 0 0 0 0 0 0 0 0 0 0 0 0 0 0.25 0"/>
<feBlend mode="normal" in2="BackgroundImageFix" result="effect1_dropShadow_628_968"/>
<feBlend mode="normal" in="SourceGraphic" in2="effect1_dropShadow_628_968" result="shape"/>
</filter>
<linearGradient id="paint0_linear_628_968" x1="138" y1="674" x2="487" y2="674" gradientUnits="userSpaceOnUse">
<stop offset="0.04" stop-color="#01A6FF"/>
<stop offset="0.36" stop-color="#2962FF"/>
<stop offset="0.65" stop-color="#01A6FF"/>
</linearGradient>
</defs>
</svg>
