<svg xmlns="http://www.w3.org/2000/svg" viewBox="0 0 1838.75 314.83"><defs><style>.cls-1{fill:#eceff1;}.cls-2{fill:#ff6e00;}.cls-3{fill:#ffba00;}.cls-4{fill:#00e5ff;}.cls-5{fill:#90a4ae;}</style></defs><g id="Capa_2" data-name="Capa 2"><g id="Layer_1" data-name="Layer 1"><path class="cls-1" d="M665.81,173.7q24.39-12,75.33-13h4v-3.09q0-17-9.42-25.93t-27.32-9q-15.74,0-26.39,6.94a45.17,45.17,0,0,0-16.21,18.37q0,.61-5.25-.46a21.51,21.51,0,0,1-9.41-4.48q-4.17-3.39-4.17-9.88,0-9.25,10.19-18.52,8.34-7.41,21.92-12.2t31.48-4.78q31.5,0,48.16,15.43T775.4,157V248.1c0,.83-1.18,1.6-3.55,2.32a26.16,26.16,0,0,1-7.56,1.08q-14.2,0-17.6-13.59a47.39,47.39,0,0,1-1.23-10.18,59.06,59.06,0,0,1-22.69,18.83,69.74,69.74,0,0,1-30.72,6.79q-23.46,0-37-11.58t-13.59-30.71Q641.42,185.74,665.81,173.7Zm79.34,6.18-8.34.3q-33.33,1.24-49.39,8t-16,21.61a19,19,0,0,0,7.41,15.75q7.41,5.87,20.68,5.86,20.07,0,32.88-11.27t12.81-28.86Z"/><path class="cls-1" d="M943.49,103.32q3.56,3.39,3.55,11.42V247.79q0,.93-3.39,2.16a21.66,21.66,0,0,1-7.41,1.24Q922,251.19,918,237.3a44.8,44.8,0,0,1-1.24-9.57q-17.91,25.92-49.39,25.93-28.41,0-42.76-17.29t-14.35-46.31V114.74q0-14.82,13.27-14.82H827q6.48,0,10,3.4t3.55,11.42v71.62q0,19.14,9.26,29.94T876,227.11a42.67,42.67,0,0,0,24.23-7.1,47.46,47.46,0,0,0,16.52-19.14V114.74q0-14.82,13.28-14.82h3.39Q939.94,99.92,943.49,103.32Z"/><path class="cls-1" d="M995.82,204.88V126.47H985q-7.1,0-10.19-2.78t-3.08-8.64v-2.16c0-3.91,1-6.8,3.08-8.65s5.46-2.78,10.19-2.78h10.81V78.62q0-14.5,13.58-14.51h3.09q6.48,0,9.88,3.24t3.39,11.27v22.84h33.65q7.1,0,10,2.63t2.94,8.49v2.16q0,5.87-3.09,8.8t-10.19,2.93h-33.65v75q0,14.19,4.48,20.83t15.28,6.64q13.27,0,21-10.5c.41-.41,1.34-.1,2.78.93a15.2,15.2,0,0,1,4,4.63,14.11,14.11,0,0,1,1.86,7.41q0,7.41-6.49,13.58-9.88,9-28.09,9Q995.83,254,995.82,204.88Z"/><path class="cls-1" d="M1100.16,135.42a71.24,71.24,0,0,1,27.63-27.63q17.74-10,40.59-10,22.53,0,40.13,10A71.13,71.13,0,0,1,1236,135.73q9.87,17.91,9.88,40.44T1236,216.3a71.31,71.31,0,0,1-27.63,27.63q-17.76,10-40.29,10-22.85,0-40.44-10a71.16,71.16,0,0,1-27.47-27.78q-9.89-17.75-9.88-40.6Q1090.28,153,1100.16,135.42Zm111,13.43a47.3,47.3,0,0,0-43.07-26.08,48.55,48.55,0,0,0-25.31,6.79,47.83,47.83,0,0,0-17.91,18.83,56.37,56.37,0,0,0-6.48,27.16,57.26,57.26,0,0,0,6.48,27.32A48.61,48.61,0,0,0,1142.76,222a47.67,47.67,0,0,0,25.31,7,46.91,46.91,0,0,0,25.16-7A49.25,49.25,0,0,0,1211,203a55.66,55.66,0,0,0,6.49-26.86A58.54,58.54,0,0,0,1211.14,148.85Z"/><path class="cls-1" d="M1275.5,135.42a71.31,71.31,0,0,1,27.63-27.63q17.74-10,40.6-10,22.53,0,40.13,10a71.11,71.11,0,0,1,27.47,27.94q9.89,17.91,9.88,40.44t-9.88,40.13a71.24,71.24,0,0,1-27.63,27.63q-17.75,10-40.28,10-22.86,0-40.44-10a71.25,71.25,0,0,1-27.48-27.78q-9.88-17.75-9.88-40.6Q1265.62,153,1275.5,135.42Zm111,13.43a47.27,47.27,0,0,0-43.06-26.08,48.59,48.59,0,0,0-25.32,6.79,47.81,47.81,0,0,0-17.9,18.83,56.37,56.37,0,0,0-6.49,27.16,57.26,57.26,0,0,0,6.49,27.32A48.58,48.58,0,0,0,1318.1,222a47.71,47.71,0,0,0,25.32,7,46.93,46.93,0,0,0,25.16-7,49.25,49.25,0,0,0,17.75-19,55.77,55.77,0,0,0,6.48-26.86A58.42,58.42,0,0,0,1386.48,148.85Z"/><path class="cls-1" d="M1535.74,103q6.48,5.25,6.48,14.51a18.64,18.64,0,0,1-2,9,15.09,15.09,0,0,1-4.48,5.4c-1.65,1.14-2.58,1.6-2.78,1.39a29.08,29.08,0,0,0-18.83-6.48q-17.3,0-25.47,15.28t-8.18,42.45v52.17q0,14.5-13.58,14.51h-3.4q-13.59,0-13.58-14.51V103.32c0-.62,1.13-1.34,3.39-2.17a22.86,22.86,0,0,1,7.72-1.23q13.89,0,17.91,14.82a57.47,57.47,0,0,1,1.23,11.11q9.88-28.08,37.67-28.09Q1529.26,97.76,1535.74,103Z"/><path class="cls-1" d="M1556.42,136.19A72.45,72.45,0,0,1,1583.59,108q17.28-10.2,38.9-10.19,21.3,0,37.35,9.42a65.22,65.22,0,0,1,25,26.39q8.94,17,9,38.9v2.47c0,3.29-.67,5.61-2,6.94s-3.76,2-7.25,2H1575a37.23,37.23,0,0,0,.61,5.56q3.39,18.21,16.83,29.32t33.18,11.12q17.91,0,29-6.64a48.51,48.51,0,0,0,17.6-18.06q.61-.62,4.78.77a19.89,19.89,0,0,1,7.72,4.94,12.73,12.73,0,0,1,3.55,9.42q0,4.94-4.32,10.8a44.64,44.64,0,0,1-12,10.81q-19.14,12-46.92,12-23.16,0-40.91-9.73a69.24,69.24,0,0,1-27.63-27.32q-9.89-17.59-9.88-40.44Q1546.54,154.25,1556.42,136.19Zm95.39-3.86q-11.11-11.42-29.63-11.42-18.23,0-31.18,11.89t-15.75,30.41h88.91Q1662.93,143.76,1651.81,132.33Z"/><path class="cls-1" d="M1714.48,231.74a18,18,0,0,1-3.09-9.57,11.66,11.66,0,0,1,2.63-7.56,19.23,19.23,0,0,1,5.71-4.94c2-1.13,3.29-1.6,3.7-1.39a56.88,56.88,0,0,0,20.69,16.2q12.64,6,29.32,6,15.75,0,24.24-5.4t8.49-14.66q0-7.09-4.33-11.27a27.77,27.77,0,0,0-11.42-6.33q-7.1-2.16-22.53-5.56a169.36,169.36,0,0,1-25.78-7.1,47.24,47.24,0,0,1-18.52-12.65q-7.87-8.64-7.88-23.16,0-21,16.21-33.8T1775,97.76q20.05,0,33.8,5.4t19.6,14a17.19,17.19,0,0,1,3.71,10.49,11.85,11.85,0,0,1-2.78,7.72,21.68,21.68,0,0,1-6,5.25c-2.16,1.23-3.35,1.65-3.55,1.23a51.25,51.25,0,0,0-18.52-15.28,55.27,55.27,0,0,0-25-5.71q-15.43,0-23.77,5.41t-8.33,15q0,6.48,4,10.34a28.46,28.46,0,0,0,11.27,6.17q7.24,2.32,21.76,5.41a198.41,198.41,0,0,1,27.32,7.4,48.76,48.76,0,0,1,19.14,12.82q8.18,8.79,8.18,23.61,0,21.3-16.51,34t-45.23,12.66a112.86,112.86,0,0,1-29.64-3.55q-13-3.56-21.3-9.42A32.13,32.13,0,0,1,1714.48,231.74Z"/><path class="cls-2" d="M534.69,255.55a141.9,141.9,0,0,1-44.6,30.52A149.55,149.55,0,0,1,436.45,298a151.24,151.24,0,0,1-55.08-8.8,153,153,0,0,1-48.64-28.85,143.86,143.86,0,0,0,46.47,33.94,149.84,149.84,0,0,0,57.19,13.64,154.15,154.15,0,0,0,110.12-40.45l0,0,.25-.25a8.23,8.23,0,0,0-.14-11.77,8.57,8.57,0,0,0-12,.16"/><path class="cls-2" d="M590.81,116.56a155.78,155.78,0,0,0-27.49-55.45,158.86,158.86,0,0,0-107.08-60,163.19,163.19,0,0,0-62.7,5A158.11,158.11,0,0,0,337.8,34.63,156.51,156.51,0,0,0,326,45c-2,1.85-3.49,3.49-5.26,5.22l-5.13,5.14L295.17,75.91,254.34,117.2a10.13,10.13,0,0,0,0,14.3,10.55,10.55,0,0,0,14.73.2L311,91.5l20.91-20.15,5.23-5c1.72-1.63,3.55-3.47,5.14-4.9,3.24-3.07,6.67-6,10.17-8.72,28.17-22,65.32-32.14,100.92-27.8a136.91,136.91,0,0,1,50.75,16.23A138.29,138.29,0,0,1,544.81,75.3a135.92,135.92,0,0,1,24.42,47,137.65,137.65,0,0,1,4.34,52.91v.12a10.22,10.22,0,0,0,8.86,11.25,10.35,10.35,0,0,0,11.73-8.69,155.61,155.61,0,0,0-3.34-61.31"/><path class="cls-2" d="M186.58,186.57l-.22.19a49.79,49.79,0,0,1-9.62,7,45.93,45.93,0,0,1-11.33,4,45.06,45.06,0,0,1-12.17.63,42.63,42.63,0,0,1-31.12-18.1,44.43,44.43,0,0,1-5.63-11.15,43.07,43.07,0,0,1,4.75-36.88,50.11,50.11,0,0,1,8.57-10A51.23,51.23,0,0,1,141.09,115a52,52,0,0,1,13.11-3.74,54.73,54.73,0,0,1,13.83.08,52,52,0,0,1,13.43,4,56.5,56.5,0,0,1,11.9,7.74A52.63,52.63,0,0,0,182.21,114a54.76,54.76,0,0,0-13.58-5.57A53.79,53.79,0,0,0,153.8,107,57.9,57.9,0,0,0,139,109.86,57.86,57.86,0,0,0,125.49,117a53.48,53.48,0,0,0-10.91,10.76,52.64,52.64,0,0,0-10.4,28.79,53.39,53.39,0,0,0,7.65,30.21,56.08,56.08,0,0,0,23.88,21.2,57.41,57.41,0,0,0,15.71,4.73,60.35,60.35,0,0,0,16.55.07,62,62,0,0,0,16-4.66A60,60,0,0,0,198,199l.2-.17a8.27,8.27,0,0,0,.41-11.79,8.57,8.57,0,0,0-12-.42"/><path class="cls-2" d="M226.59,145a14.12,14.12,0,1,0,14.35,14.12A14.23,14.23,0,0,0,226.59,145"/><path class="cls-2" d="M569.36,208.22a14.12,14.12,0,1,0,14.35,14.12,14.23,14.23,0,0,0-14.35-14.12"/><path class="cls-3" d="M535.76,150.53a8.37,8.37,0,0,0-8.37,8.4,89.11,89.11,0,0,1-14.52,49.54A87.33,87.33,0,0,1,504.78,219l-2.24,2.48-2.44,2.29c-1.64,1.51-3.22,3.11-4.91,4.58a102.31,102.31,0,0,1-22.83,14.38A106,106,0,0,1,446,250.06a108,108,0,0,1-27.76-.33,106.85,106.85,0,0,1-26.86-8.19A110.35,110.35,0,0,1,367.59,226a97.92,97.92,0,0,0,49.5,29.16,109.87,109.87,0,0,0,29.6,2.77,115.31,115.31,0,0,0,29.45-6,114.07,114.07,0,0,0,26.67-14.28c2-1.52,3.91-3.23,5.85-4.84l2.91-2.46,2.71-2.66a100.3,100.3,0,0,0,9.92-11.56,102.76,102.76,0,0,0,20.07-57v-.43a8.37,8.37,0,0,0-8.52-8.23"/><path class="cls-3" d="M373.53,99.49,376.09,97l2.37-2.15a89.08,89.08,0,0,1,107.88-9.51l.14.09a10.49,10.49,0,0,0,14.18-2.86,10.12,10.12,0,0,0-2.75-14.21A109.62,109.62,0,0,0,362.4,77.72l-3,2.71L356.76,83l-5.22,5-20.79,20.26-41.48,40.65L248,189.74l-20.6,20.47-5.15,5.12-2.54,2.53L217.31,220a86.75,86.75,0,0,1-58.44,23.36,91.22,91.22,0,0,1-49.4-13.85l-.15-.1a10.54,10.54,0,0,0-14.21,2.88,10.15,10.15,0,0,0,2.76,14.25,110.61,110.61,0,0,0,122.74.57,111.85,111.85,0,0,0,12.8-10l3-2.71,2.62-2.53,5.2-5.06,20.8-20.27,41.45-40.64,41.3-40.82,20.59-20.47Z"/><path class="cls-3" d="M100.62,86.49a102.31,102.31,0,0,1,22.83-14.38,105.24,105.24,0,0,1,26.38-7.31,107.91,107.91,0,0,1,27.75.31,107.19,107.19,0,0,1,26.85,8.19,111.14,111.14,0,0,1,23.78,15.52,105.23,105.23,0,0,0-22.34-18.16,104.49,104.49,0,0,0-27.17-11,109.84,109.84,0,0,0-29.59-2.78,114.68,114.68,0,0,0-29.46,6A113.71,113.71,0,0,0,93,77.13c-2,1.53-3.91,3.23-5.87,4.85l-2.89,2.47-2.72,2.67a100.1,100.1,0,0,0-9.92,11.54,102.8,102.8,0,0,0-20.09,57v.42a8.48,8.48,0,0,0,17-.13A89,89,0,0,1,83,106.37,88.1,88.1,0,0,1,91,95.83l2.26-2.48,2.43-2.29c1.65-1.51,3.2-3.12,4.91-4.57"/><path class="cls-3" d="M71.27,188.4a14.12,14.12,0,1,0,14.36,14.12A14.23,14.23,0,0,0,71.27,188.4"/><path class="cls-3" d="M524.43,126.68a14.12,14.12,0,1,0-14.35-14.12,14.23,14.23,0,0,0,14.35,14.12"/><path class="cls-4" d="M490,142.75a54.88,54.88,0,0,0-6.11-14.62,55.76,55.76,0,0,0-23.85-21.2,57,57,0,0,0-15.7-4.71,60.67,60.67,0,0,0-16.54-.08,62.79,62.79,0,0,0-16,4.65,61,61,0,0,0-14,9.11l-.19.17a8.21,8.21,0,0,0-.43,11.75,8.53,8.53,0,0,0,11.94.42l.22-.19a49.43,49.43,0,0,1,9.6-7,46.88,46.88,0,0,1,11.37-4,45.85,45.85,0,0,1,12.17-.61,42.68,42.68,0,0,1,11.94,2.87,43.18,43.18,0,0,1,19.2,15.25,42.92,42.92,0,0,1,.88,48.05,49.08,49.08,0,0,1-8.6,10,50.48,50.48,0,0,1-11.26,7.24,52.41,52.41,0,0,1-13.11,3.73,54.73,54.73,0,0,1-13.83-.08,51.89,51.89,0,0,1-13.44-4,55.91,55.91,0,0,1-11.9-7.75,52.34,52.34,0,0,0,11.16,9.1,53.3,53.3,0,0,0,13.57,5.58A54.2,54.2,0,0,0,442,207.86a58.69,58.69,0,0,0,14.82-2.9,57.48,57.48,0,0,0,13.46-7.11,53.69,53.69,0,0,0,10.91-10.75,52.42,52.42,0,0,0,10.37-28.77A54.29,54.29,0,0,0,490,142.75"/><path class="cls-4" d="M326.73,183.17l-42,40.19-20.91,20.17-5.21,5c-1.73,1.63-3.55,3.48-5.16,4.89q-4.87,4.6-10.17,8.71c-28.16,22-65.33,32.12-100.91,27.78a137,137,0,0,1-50.75-16.22,139.84,139.84,0,0,1-22-15.13A142.55,142.55,0,0,1,51,239.53a134.22,134.22,0,0,1-28.72-99.88v-.12a10.29,10.29,0,0,0-8.89-11.29A10.39,10.39,0,0,0,1.61,137,153,153,0,0,0,32.45,253.73a159,159,0,0,0,107.08,60,163.15,163.15,0,0,0,62.7-5A159,159,0,0,0,258,280.22c4.07-3.29,8-6.71,11.75-10.37,1.95-1.84,3.5-3.47,5.25-5.21l5.13-5.14,20.48-20.58,40.82-41.3a10.09,10.09,0,0,0,0-14.25,10.49,10.49,0,0,0-14.68-.2"/><path class="cls-4" d="M61.11,59.31A141.72,141.72,0,0,1,131.86,20.4a144.63,144.63,0,0,1,27.48-3.49,150.8,150.8,0,0,1,55.07,8.8,152.74,152.74,0,0,1,48.65,28.83,143.2,143.2,0,0,0-46.48-34A150,150,0,0,0,159.4,6.93a151.07,151.07,0,0,0-58.87,9.25,154.23,154.23,0,0,0-51.26,31.2l0,0-.25.23a8.26,8.26,0,0,0,.15,11.81,8.57,8.57,0,0,0,12-.14"/><path class="cls-4" d="M26.35,106.87A14.12,14.12,0,1,0,12,92.74a14.24,14.24,0,0,0,14.36,14.13"/><path class="cls-4" d="M369.12,141.89A14.12,14.12,0,1,0,383.46,156a14.24,14.24,0,0,0-14.34-14.13"/><path class="cls-5" d="M1564.85,290.25c0-8.62,6.42-15.05,15.18-15.05,8.57,0,14.25,5.78,14.25,14.29V290c0,1.24-.44,1.71-1.86,1.71h-21.89c.43,5.26,4.5,8.8,10.11,8.8,5.19,0,7.77-2.18,9.31-4.72.13-.12,3.21.41,3.21,2.89s-4.56,6.44-12.64,6.44c-9.38,0-15.67-6-15.67-14.83m5.74-2.53h17.76c-.31-4.91-3.45-8.09-8.38-8.09a9.32,9.32,0,0,0-9.38,8.09"/><path class="cls-5" d="M1596.25,299a3.05,3.05,0,0,1,2.4-2.65c2,2.42,5.31,4.25,10,4.25,4.2,0,6.54-1.48,6.54-3.84,0-2.89-2.77-3.42-7.65-4.43-4.37-.89-10.42-2.18-10.42-8.21,0-5.31,4.63-8.91,11.84-8.91,7.59,0,11.42,3.06,11.42,5.72a3.18,3.18,0,0,1-2.47,2.72,10.94,10.94,0,0,0-8.7-4c-4.19,0-6.42,1.54-6.42,3.9,0,2.6,2.6,3.19,7.41,4.2,4.56.94,10.91,2.24,10.91,8.38,0,5.43-4.68,8.92-12.33,8.92-8.27,0-12.52-3.31-12.52-6"/><path class="cls-5" d="M1623.69,290.08c0-8.62,6.54-14.88,15.42-14.88s12.71,5.19,12.71,7.85c0,2.42-3.45,2.9-3.64,2.6-1.35-3.13-3.88-5.55-8.94-5.55a9.59,9.59,0,0,0-9.75,10c0,5.84,4.13,10.1,9.75,10.1,5,0,7.59-2.42,8.94-5.55.19-.3,3.64.11,3.64,2.65s-4,7.8-12.71,7.8c-8.94,0-15.42-6.26-15.42-15"/><path class="cls-5" d="M1654,290.08c0-8.68,6.41-14.88,15.6-14.88s15.49,6.26,15.49,15-6.42,14.88-15.55,14.88-15.54-6.2-15.54-15m25.41.12c0-5.91-4.13-10.22-9.87-10.22a9.74,9.74,0,0,0-9.93,10.1,9.84,9.84,0,0,0,9.93,10.21,9.72,9.72,0,0,0,9.87-10.09"/><path class="cls-5" d="M1687.47,290.08c0-8.68,6.41-14.88,15.6-14.88s15.49,6.26,15.49,15-6.42,14.88-15.55,14.88-15.54-6.2-15.54-15m25.41.12c0-5.91-4.13-10.22-9.87-10.22a9.74,9.74,0,0,0-9.93,10.1,9.84,9.84,0,0,0,9.93,10.21,9.72,9.72,0,0,0,9.87-10.09"/><path class="cls-5" d="M1723,301.77V264.39a3.22,3.22,0,0,1,2.22-.65c1.91,0,3.88.94,3.88,5v33c0,2.13-1.11,2.78-2.71,2.78h-.62c-1.6,0-2.77-.65-2.77-2.78"/><path class="cls-5" d="M1733.66,296.87c0-6.56,6.54-9.39,19.93-9.63h.8v-.59c0-4.31-2.59-6.67-7.34-6.67-4.5,0-7.16,2.24-8.51,4.84,0,.06-3.76,0-3.76-2.83s4.31-6.8,12.7-6.8,13,4.14,13,11.34V304c0,.29-1.11.64-2.22.64-2.15,0-3.7-1.12-3.76-4.54a13,13,0,0,1-10.67,4.9c-6.35,0-10.12-3.25-10.12-8.09m20.73-3.78V290.9l-1.67.06c-8.63.3-13.07,1.83-13.07,5.67,0,2.54,2.1,4.14,5.61,4.14,5.31,0,9.13-3.19,9.13-7.68"/><path class="cls-5" d="M1772.15,280.57c1.3-3.48,3.77-5.38,7.53-5.38,3.08,0,4.87,1.42,4.87,3.79s-1.73,3.13-1.85,3a5.91,5.91,0,0,0-3.76-1.24c-4.81,0-6.73,4.49-6.73,11v10c0,2.13-1.17,2.78-2.71,2.78h-.68c-1.6,0-2.71-.65-2.71-2.78V276.26a3.11,3.11,0,0,1,2.22-.65c1.79,0,3.76.95,3.82,5"/><path class="cls-5" d="M1780.61,303.39v-.34a1.41,1.41,0,0,1,1.59-1.55h.38a1.42,1.42,0,0,1,1.62,1.55v.34a1.41,1.41,0,0,1-1.62,1.52h-.38a1.4,1.4,0,0,1-1.59-1.52"/><path class="cls-5" d="M1785.29,297.91a7,7,0,0,1,7.36-7.1c4.22,0,6.07,2.48,6.07,3.75s-1.65,1.38-1.74,1.24a4.2,4.2,0,0,0-4.27-2.65,4.8,4.8,0,0,0,0,9.59,4.22,4.22,0,0,0,4.27-2.66c.09-.14,1.74.06,1.74,1.28s-1.88,3.72-6.07,3.72a7,7,0,0,1-7.36-7.17"/><path class="cls-5" d="M1799.75,297.91c0-4.14,3.07-7.1,7.45-7.1s7.4,3,7.4,7.16-3.07,7.11-7.42,7.11-7.43-3-7.43-7.17m12.14.06a4.73,4.73,0,1,0-9.46-.06,4.7,4.7,0,0,0,4.75,4.88,4.64,4.64,0,0,0,4.71-4.82"/><path class="cls-5" d="M1819.49,293.09a5.32,5.32,0,0,1,4.38-2.28,4.61,4.61,0,0,1,4.63,2.85,5.6,5.6,0,0,1,4.92-2.85c3.59,0,5.33,2.09,5.33,5.58v7.11c0,1-.53,1.32-1.3,1.32h-.29c-.8,0-1.33-.31-1.33-1.32v-6.77c0-2.28-1-3.47-3.12-3.47a4.18,4.18,0,0,0-3.6,2.26v8c0,1-.52,1.32-1.29,1.32h-.3a1.16,1.16,0,0,1-1.32-1.32v-6.66c0-2.39-1-3.58-3.12-3.58a4.11,4.11,0,0,0-3.56,2.26v8a1.16,1.16,0,0,1-1.3,1.32h-.32c-.77,0-1.3-.31-1.3-1.32V291.32a1.46,1.46,0,0,1,1.06-.31c.82,0,1.71.39,1.83,2.08"/><path class="cls-5" d="M1411.64,284.3h7.76a4.13,4.13,0,0,1,2.42.7,4.58,4.58,0,0,1,1.54,1.84,5.69,5.69,0,0,1,.51,2.38,6.41,6.41,0,0,1-.54,2.54,8,8,0,0,1-1.51,2.29,7.41,7.41,0,0,1-2.22,1.63,6.08,6.08,0,0,1-2.65.6h-6l-1.56,7h-1.93Zm5.56,10.32a3.87,3.87,0,0,0,1.83-.45,5.26,5.26,0,0,0,1.49-1.22,5.93,5.93,0,0,0,1-1.69,5.11,5.11,0,0,0,.36-1.88,3.76,3.76,0,0,0-.38-1.75,3.08,3.08,0,0,0-1-1.22A2.65,2.65,0,0,0,1419,286h-5.76l-1.93,8.67Z"/><path class="cls-5" d="M1429.8,303.56a5.81,5.81,0,0,1-3.16-.79,4.83,4.83,0,0,1-1.87-2.11,6.9,6.9,0,0,1-.62-2.93,8,8,0,0,1,.69-3.3,8.66,8.66,0,0,1,1.86-2.72,8.47,8.47,0,0,1,2.72-1.85,8.1,8.1,0,0,1,3.26-.67,5.83,5.83,0,0,1,3.14.8,5,5,0,0,1,1.89,2.11,6.88,6.88,0,0,1,.61,2.94,8.15,8.15,0,0,1-.67,3.3,8.66,8.66,0,0,1-1.86,2.72,8.8,8.8,0,0,1-2.72,1.83A8.08,8.08,0,0,1,1429.8,303.56Zm.33-1.61a5.55,5.55,0,0,0,2.29-.49,6.26,6.26,0,0,0,2-1.39,7,7,0,0,0,1.41-2.12,6.36,6.36,0,0,0,.53-2.64,5.53,5.53,0,0,0-.46-2.3,3.74,3.74,0,0,0-1.34-1.62,3.92,3.92,0,0,0-2.22-.59,5.44,5.44,0,0,0-2.29.5,6.47,6.47,0,0,0-2,1.42,7.06,7.06,0,0,0-1.41,2.13,6.52,6.52,0,0,0-.53,2.64,5.49,5.49,0,0,0,.46,2.3,3.59,3.59,0,0,0,1.36,1.59A4,4,0,0,0,1430.13,302Z"/><path class="cls-5" d="M1441,289.41h2l2.35,12.2a30.36,30.36,0,0,0,2.08-2.6c.64-.89,1.22-1.79,1.75-2.68l-1.68-6.92h2l1.07,4.61c.39-.79.74-1.56,1.06-2.34a23,23,0,0,0,.81-2.27h1.81a24.87,24.87,0,0,1-1.29,3.43c-.54,1.16-1.15,2.31-1.83,3.47l1.2,5.3c.65-.78,1.26-1.58,1.84-2.4s1.11-1.64,1.61-2.46.95-1.66,1.37-2.48.79-1.65,1.11-2.47a22.69,22.69,0,0,0,.83-2.39h1.84a33.47,33.47,0,0,1-3.08,6.95,48.78,48.78,0,0,1-4.94,6.93h-2l-1.11-4.9c-.54.83-1.13,1.66-1.75,2.47s-1.3,1.63-2,2.43h-2Z"/><path class="cls-5" d="M1467,303.56a5.58,5.58,0,0,1-3-.79,5.24,5.24,0,0,1-1.93-2.11,6.77,6.77,0,0,1-.69-3,8.18,8.18,0,0,1,.62-3.17,8.72,8.72,0,0,1,4.52-4.61,8.2,8.2,0,0,1,3.41-.71,6.52,6.52,0,0,1,2.45.43,3.89,3.89,0,0,1,1.72,1.24,3.34,3.34,0,0,1,.63,2.08,3.21,3.21,0,0,1-1.88,3.09,13.13,13.13,0,0,1-5.86,1c-.58,0-1.21,0-1.91,0s-1.5-.08-2.39-.15l.28-1.28,2.3.12c.65,0,1.25,0,1.81,0a14.86,14.86,0,0,0,3.52-.33,3.63,3.63,0,0,0,1.85-1,2,2,0,0,0,.55-1.48,2,2,0,0,0-.45-1.34,2.6,2.6,0,0,0-1.16-.75,5,5,0,0,0-1.6-.24,5.83,5.83,0,0,0-2.65.6,6.78,6.78,0,0,0-2,1.59,7.2,7.2,0,0,0-1.33,2.25,7.46,7.46,0,0,0-.46,2.55,6,6,0,0,0,.48,2.28,3.8,3.8,0,0,0,1.35,1.66,3.87,3.87,0,0,0,2.25.63,5.66,5.66,0,0,0,2.73-.7,5.2,5.2,0,0,0,2-1.9l1.57.46a6.92,6.92,0,0,1-1.68,1.83,8.58,8.58,0,0,1-2.29,1.24A7.58,7.58,0,0,1,1467,303.56Z"/><path class="cls-5" d="M1478.86,289.41h1.79l-.75,3.33a9.23,9.23,0,0,1,2.48-2.4,5.41,5.41,0,0,1,2.8-1h.39l.28,0-.37,1.58a7,7,0,0,0-5.89,3.65l-1.9,8.63h-1.9Z"/><path class="cls-5" d="M1491.52,303.56a5.61,5.61,0,0,1-3-.79,5.24,5.24,0,0,1-1.93-2.11,6.91,6.91,0,0,1-.69-3,8.19,8.19,0,0,1,.63-3.17,8.5,8.5,0,0,1,1.78-2.71,8.75,8.75,0,0,1,2.73-1.9,8.2,8.2,0,0,1,3.41-.71,6.61,6.61,0,0,1,2.46.43,3.92,3.92,0,0,1,1.71,1.24,3.34,3.34,0,0,1,.63,2.08,3.21,3.21,0,0,1-1.88,3.09,13.13,13.13,0,0,1-5.86,1c-.58,0-1.21,0-1.91,0s-1.5-.08-2.39-.15l.28-1.28,2.3.12c.65,0,1.25,0,1.81,0a14.8,14.8,0,0,0,3.52-.33,3.63,3.63,0,0,0,1.85-1,2,2,0,0,0,.55-1.48,2,2,0,0,0-.45-1.34,2.6,2.6,0,0,0-1.16-.75,5,5,0,0,0-1.6-.24,5.76,5.76,0,0,0-2.64.6,6.7,6.7,0,0,0-2.06,1.59,7.51,7.51,0,0,0-1.79,4.8,6,6,0,0,0,.48,2.28,3.8,3.8,0,0,0,1.35,1.66,3.87,3.87,0,0,0,2.25.63,5.66,5.66,0,0,0,2.73-.7,5.22,5.22,0,0,0,2-1.9l1.56.46a6.92,6.92,0,0,1-1.68,1.83,8.58,8.58,0,0,1-2.29,1.24A7.58,7.58,0,0,1,1491.52,303.56Z"/><path class="cls-5" d="M1506,303.56a4.85,4.85,0,0,1-2.79-.8,5.11,5.11,0,0,1-1.79-2.13,6.75,6.75,0,0,1-.61-2.87,8.11,8.11,0,0,1,.65-3.18,9.61,9.61,0,0,1,1.79-2.74,8.9,8.9,0,0,1,2.6-1.93,6.87,6.87,0,0,1,3.06-.72,4.5,4.5,0,0,1,2.88.92,5,5,0,0,1,1.62,2.22l1.9-8.57h1.9l-3.8,17.15a1.62,1.62,0,0,0,0,.19.69.69,0,0,0,0,.13c0,.3.18.45.53.45l-.36,1.61-.42,0a1.09,1.09,0,0,1-.36,0,1.45,1.45,0,0,1-.94-.32,1,1,0,0,1-.32-.74,1.89,1.89,0,0,1,0-.31c0-.11,0-.28.1-.5s.1-.51.18-.87a8.32,8.32,0,0,1-2.7,2.16A6.83,6.83,0,0,1,1506,303.56Zm.79-1.61a4.85,4.85,0,0,0,1.46-.26,7.53,7.53,0,0,0,1.55-.73,6.62,6.62,0,0,0,1.36-1.1,4.45,4.45,0,0,0,.88-1.33l.92-4.28a3.5,3.5,0,0,0-.7-1.74,4.47,4.47,0,0,0-1.42-1.25,3.64,3.64,0,0,0-1.79-.46,5.11,5.11,0,0,0-2.39.58,7,7,0,0,0-2,1.56,7.71,7.71,0,0,0-1.37,2.15,6.08,6.08,0,0,0-.5,2.37,5,5,0,0,0,.49,2.26,4.07,4.07,0,0,0,1.4,1.62A3.66,3.66,0,0,0,1506.75,302Z"/><path class="cls-5" d="M1530.83,303.56a4.85,4.85,0,0,1-2.92-.85,4.58,4.58,0,0,1-1.63-2.11l-.62,2.69H1524l4.33-19.53h1.9l-1.9,8.57a10.38,10.38,0,0,1,2.72-2.27,6.2,6.2,0,0,1,3.17-.87,4.47,4.47,0,0,1,2.74.81,4.91,4.91,0,0,1,1.63,2.12,6.91,6.91,0,0,1,.55,2.74,7.93,7.93,0,0,1-.7,3.31,9.57,9.57,0,0,1-1.89,2.78,9.15,9.15,0,0,1-2.66,1.92A7.18,7.18,0,0,1,1530.83,303.56Zm-.06-1.61a5.17,5.17,0,0,0,2.35-.56,7,7,0,0,0,2-1.52,8.06,8.06,0,0,0,1.43-2.18,6.25,6.25,0,0,0,.53-2.51,5.21,5.21,0,0,0-.45-2.15,3.89,3.89,0,0,0-1.27-1.62,3.38,3.38,0,0,0-2.08-.61,4.73,4.73,0,0,0-2,.46,7.35,7.35,0,0,0-1.83,1.23,15.52,15.52,0,0,0-1.56,1.68l-1,4.6a3,3,0,0,0,.6,1.63,3.64,3.64,0,0,0,1.4,1.14A4.18,4.18,0,0,0,1530.77,302Z"/><path class="cls-5" d="M1539.27,307.79a8.61,8.61,0,0,0,1.91-.49,4,4,0,0,0,1.32-.89,14.17,14.17,0,0,0,1.27-1.6l.92-1.31-3-14.09h2l2.35,12.2,1.15-1.79c.8-1.24,1.48-2.34,2-3.29s1-1.81,1.43-2.58a18.78,18.78,0,0,0,1-2.25c.26-.73.51-1.5.75-2.29h1.87c-.24.85-.51,1.65-.79,2.39a24.67,24.67,0,0,1-1.06,2.33c-.42.81-1,1.73-1.57,2.75s-1.4,2.24-2.33,3.66l-2.27,3.44a28.62,28.62,0,0,1-1.76,2.47,10.3,10.3,0,0,1-1.57,1.59,5.43,5.43,0,0,1-1.58.88,6.69,6.69,0,0,1-1.82.34Z"/></g></g></svg>