<svg id="Layer_1" data-name="Layer 1" xmlns="http://www.w3.org/2000/svg" viewBox="0 0 200 200"><defs><style>.cls-1{fill:#292828;}.cls-2{fill:#fff;}.cls-3{fill:#f01a1f;}</style></defs><title>avatarestransp</title><path class="cls-1" d="M53.6,114.21c-.38-.91,4,33.55,46.4,34.83,42.44-1.28,46.78-35.74,46.4-34.83A198.83,198.83,0,0,1,53.6,114.21Z"/><path class="cls-2" d="M100,127c19.25-.47,32.13-5.44,40.71-11.48a198.7,198.7,0,0,1-81.42,0C67.87,121.53,80.75,126.5,100,127Z"/><path class="cls-3" d="M129.67,140.2c-7.43-4-18-6.53-29.67-6.53s-22.24,2.52-29.67,6.53C77.17,145,86.72,148.64,100,149,113.28,148.64,122.83,145,129.67,140.2Z"/><path class="cls-1" d="M78.39,92.48a3.92,3.92,0,0,1-3.92-3.92V86.27a7.3,7.3,0,0,0-14.6,0v2.29a3.93,3.93,0,0,1-7.85,0V86.27a15.15,15.15,0,0,1,30.3,0v2.29A3.93,3.93,0,0,1,78.39,92.48Z"/><path class="cls-1" d="M144.06,92.48a3.93,3.93,0,0,1-3.93-3.92V86.27a7.3,7.3,0,0,0-14.6,0v2.29a3.93,3.93,0,0,1-7.85,0V86.27a15.15,15.15,0,0,1,30.3,0v2.29A3.92,3.92,0,0,1,144.06,92.48Z"/></svg>