<?xml version="1.0" encoding="utf-8"?>
<!-- Generator: Adobe Illustrator 25.1.0, SVG Export Plug-In . SVG Version: 6.00 Build 0)  -->
<svg version="1.1" id="Capa_1" xmlns="http://www.w3.org/2000/svg" xmlns:xlink="http://www.w3.org/1999/xlink" x="0px" y="0px"
	 viewBox="0 0 512 512" style="enable-background:new 0 0 512 512;" xml:space="preserve">
<style type="text/css">
	.st0{fill:#FF6D00;}
</style>
<g>
	<path class="st0" d="M415.1,130.9c-14-12.7-31.6-20.4-49.7-21.8l-13.1-21.1c-5-8-7.6-17.2-7.6-26.6c0-6.5,7.3-49.7,7.3-49.7
		C353,6.8,349.3,0,342,0H152.7c-4.9,0-9.1,3.6-9.9,8.4l-4.3,25.5c-3,18.3-10.3,35.9-21,51c-13.9,19.7-22.8,42.9-25.4,66.9
		c-2.8,25.9-15.7,140-20.1,187.9c-2.7,28.7-1.5,57,4.4,84.3c4.9,22.4,11.5,44.6,19.8,66c5.2,13.3,17.7,22,32,22H192
		c16.1,0,29.8-11,33.4-26.6c7.5-32.5,11.2-66,11.2-99.7c0-17.2-0.7-34.7-1.9-51.6c2.2,5.6,39.2,96,72.1,161.8
		c2.4,4.8,10.2,16.1,25.5,16.1h21.8c17.6,0,28.7-9.5,32.9-13.7c4.2-4.3,13.4-15.2,13.4-32.6c0-2.3-0.2-4.7-0.5-7.1l-5.4-35.4
		c-2-13.3-21.9-10.2-19.9,3c0,0,5.7,34.8,5.7,39.4c0,14.1-11.4,26.1-26.2,26.1h-21.8c-3.1,0-5.9-1.8-7.3-4.6
		c-19.9-41.7-38.7-81.6-55-119.8c2.4-88,35.7-172.3,93.9-238.3c13.4,1.1,27.2,7.1,37.6,16.6c12.7,11.6,19.5,26.5,19.7,43.2
		c0,4.7-1.7,8.6-4.8,11.6l-41.8,41.3c-14.6,13.6-19.9,33.4-20,48c0,3.4,0.3,6.8,0.8,10.2l5.6,36.5c2,13.2,21.9,10.2,19.9-3
		c0,0-6.1-36.8-6.1-43.7c0-12.6,5.1-24.8,14.1-33.7l41.8-41.3c11.9-11.9,10.8-26.2,10.8-26.2C441.3,158.6,423,138.1,415.1,130.9
		L415.1,130.9z M347.1,117.9c-23.7,27.2-43.3,57.3-58.7,89.3c-21.2-5-42.2-11.3-62.7-18.8c21-31.6,46.7-59.3,76.7-82.6l35-3.6
		L347.1,117.9z M272.7,244.9c-16.9-4.2-33.7-9.1-50.1-14.8c-1.5-6.3-4.4-17.4-3.6-22.7c20,7.3,40.4,13.5,61.1,18.5
		C277.4,232.2,275,238.5,272.7,244.9z M181.1,152.9c8.7-3.5,17.6-6.7,26.6-9.5c-1.5,9.4-3.2,19.8-4.6,29.9
		C196,166.3,188.7,159.5,181.1,152.9L181.1,152.9z M226.7,152.7c3.2-20.1,6.5-39.1,6.6-39.8l33.6-3.4
		C252.3,122.8,238.9,137.2,226.7,152.7L226.7,152.7z M262.4,20.2h67.8l-3.6,22.4l-76,7.7L262.4,20.2z M324.5,63.1
		c0.2,6.8,1.3,13.5,3.4,19.9l-90.6,9.2c1.6-7,3.6-14,5.7-20.8L324.5,63.1z M161.3,20.2h79.4c0,0-11.4,29.3-12,30.8l-71.1-9.1
		C157.9,40.3,161.3,20.2,161.3,20.2z M152.2,61.5l70,9c-2.1,7.2-4,14.4-5.6,21.8l-73-11.2C146.9,74.7,149.8,68.2,152.2,61.5z
		 M131.9,99.7l81,12.4c0,0,0,0,0,0.1c-0.2,0.9-0.7,4.2-1.6,9.1c-16.3,4.7-32.4,10.5-48,17.2c-12.4-9.5-25.2-18.4-38.6-26.5
		C127,107.7,129.3,103.6,131.9,99.7z M117.1,130.9c30.5,18.8,58.2,41.6,82.6,68c-0.6,4.8-1.6,22.5-1.6,28.6
		c-24.4-29.6-53.1-54.9-85.6-75.7C113.4,144.6,115,137.7,117.1,130.9L117.1,130.9z M109.9,174.1c10,6.8,19.5,14,28.6,21.7
		c-11.5,6.7-22.7,14.1-33.5,22C105.2,216.1,108.3,187.8,109.9,174.1z M101.7,246c16.4-13.6,34.1-25.7,52.7-36.1
		c16.4,15.6,36.9,39.4,44.5,52.2c0.4,25.4-6.6,51.1-20.3,74.4c-7.3,12.4-20.3,19.2-34.8,18.3c-14.4-0.9-26.4-9.3-32.1-22.4
		c-8-18.4-12.1-38-12.1-58.3C99.6,267.2,100.5,256.8,101.7,246z M205.7,480.9c-1.5,6.5-7.1,11-13.8,11h-63.8c-5.9,0-11-3.6-13.2-9.1
		c-7.9-20.4-14.3-41.6-18.9-63c-5.5-25.2-7-56.4-3.7-81c8.9,21.4,28.3,35,50.1,36.2c22.9,1.3,42.9-10.5,53.4-28.2
		c7.1-12,12.6-24.7,16.5-37.6c2.4,24.1,4.1,50.5,4.1,76.5C216.5,417.8,212.9,449.8,205.7,480.9L205.7,480.9z M228.6,253.3
		c12.5,4,25.1,7.6,37.8,10.7c-6.1,20.2-10.5,40.9-13.3,61.9C243.5,301,235.2,276.8,228.6,253.3L228.6,253.3z"/>
</g>
<circle class="st0" cx="377.7" cy="380" r="10.1"/>
</svg>
