<?xml version="1.0" encoding="utf-8"?>
<!-- Generator: Adobe Illustrator 24.2.1, SVG Export Plug-In . SVG Version: 6.00 Build 0)  -->
<svg version="1.1" id="Capa_1" xmlns="http://www.w3.org/2000/svg" xmlns:xlink="http://www.w3.org/1999/xlink" x="0px" y="0px"
	 viewBox="0 0 512 512" style="enable-background:new 0 0 512 512;" xml:space="preserve">
<style type="text/css">
	.st0{fill:#FEE97D;}
	.st1{fill:#FFDD80;}
	.st2{fill:#FFBB00;}
	.st3{fill:#FFE499;}
	.st4{fill:#E19974;}
	.st5{fill:#DC8758;}
</style>
<g>
	<path class="st0" d="M256,276.4c-62,0-113.8-47.3-119.4-109l-10-159.9h258.9l-10,159.9C369.8,229.2,318,276.4,256,276.4z"/>
	<path class="st1" d="M291,271.2c-11.1,3.4-22.9,5.2-35,5.2c-62,0-113.8-47.3-119.4-109l-10-159.9h70l10,159.9
		C211.2,217.1,245.5,257.3,291,271.2z"/>
	<path class="st1" d="M290.3,217.8c-6.4,0-12.9-1.6-18.6-4.6L256,205l-15.7,8.2c-5.8,3-12.2,4.6-18.6,4.6c-11.8,0-23-5.2-30.6-14.3
		c-7.6-9-10.8-20.9-8.8-32.5l3-17.4l-12.7-12.4c-11-10.7-14.9-26.4-10.1-41c4.7-14.6,17.1-25,32.3-27.2l17.5-2.5l7.8-15.9
		c6.8-13.8,20.5-22.3,35.9-22.3s29.1,8.5,35.9,22.3l7.8,15.9l17.5,2.5c15.2,2.2,27.6,12.6,32.3,27.2s0.9,30.3-10.1,41l-12.7,12.4
		l3,17.4c2,11.7-1.2,23.5-8.8,32.5C313.3,212.6,302.1,217.8,290.3,217.8C290.3,217.8,290.3,217.8,290.3,217.8L290.3,217.8z"/>
	<path class="st2" d="M265,67.8l12.5,25.3c1.5,3,4.3,5,7.5,5.5l27.9,4.1c8.2,1.2,11.5,11.3,5.5,17.1l-20.2,19.7
		c-2.4,2.3-3.4,5.6-2.9,8.9l4.8,27.8c1.4,8.2-7.2,14.4-14.5,10.5l-25-13.1c-2.9-1.5-6.4-1.5-9.3,0l-25,13.1
		c-7.3,3.9-15.9-2.4-14.5-10.5l4.8-27.8c0.6-3.2-0.5-6.6-2.9-8.9l-20.2-19.7c-5.9-5.8-2.7-15.9,5.5-17.1l27.9-4.1
		c3.3-0.5,6.1-2.5,7.5-5.5L247,67.8C250.7,60.4,261.3,60.4,265,67.8z"/>
	<path class="st3" d="M301,394.8h-90v-26.1c0-7.7,6.2-13.9,13.9-13.9h62.2c7.7,0,13.9,6.2,13.9,13.9L301,394.8z"/>
	<path class="st2" d="M410.7,32.2h-26.8l-1.9,30h28.7c7.9,0,14.3,6.4,14.3,14.3v55.4c0,7.9-6.4,14.3-14.3,14.3h-34l-1.3,21.2
		c-0.3,3-0.7,5.9-1.1,8.8h36.5c24.4,0,44.3-19.9,44.3-44.3V76.6C455.1,52.1,435.2,32.2,410.7,32.2z"/>
	<path class="st2" d="M135.3,146.2h-34c-7.9,0-14.3-6.4-14.3-14.3V76.6c0-7.9,6.4-14.3,14.3-14.3H130l-1.9-30h-26.8
		c-24.4,0-44.3,19.9-44.3,44.3v55.4c0,24.4,19.9,44.3,44.3,44.3h36.5c-0.5-2.9-0.9-5.9-1.1-8.8L135.3,146.2z"/>
	<path class="st4" d="M338,472.5H174l9.2-71.6c0.5-3.5,3.4-6.1,6.9-6.1h131.8c3.5,0,6.5,2.6,6.9,6.1L338,472.5z"/>
	<path class="st5" d="M240.1,394.8h-50c-3.5,0-6.5,2.6-6.9,6.1l-9.2,71.6h50l9.2-71.6C233.7,397.4,236.6,394.8,240.1,394.8z"/>
	<path class="st3" d="M356.8,504.5H155.2v-25c0-3.9,3.1-7,7-7h187.6c3.9,0,7,3.1,7,7V504.5z"/>
	<path class="st2" d="M256,276.4c-7.7,0-15.2-0.7-22.5-2.1v80.5h45v-80.5C271.2,275.7,263.7,276.4,256,276.4z"/>
	<g>
		<path d="M322.4,98.8c-2.4-1.9-5.3-3.2-8.4-3.6l-27.9-4c-0.8-0.1-1.5-0.6-1.9-1.4l-12.5-25.3c-3-6-9-9.8-15.7-9.8
			c-6.7,0-12.7,3.7-15.7,9.8l-12.5,25.3c-0.4,0.7-1.1,1.3-1.9,1.4L198,95.2c-6.6,1-12.1,5.5-14.1,11.9c-2.1,6.4-0.4,13.3,4.4,17.9
			l20.2,19.7c0.6,0.6,0.9,1.4,0.7,2.2l-4.8,27.8c-1.1,6.6,1.5,13.2,7,17.1c3.1,2.2,6.7,3.4,10.3,3.4c2.8,0,5.6-0.7,8.2-2l25-13.1
			c0.7-0.4,1.6-0.4,2.4,0l25,13.1c5.9,3.1,13,2.6,18.4-1.3c5.4-3.9,8.1-10.5,7-17.1l-2.2-12.8c-0.7-4.1-4.6-6.8-8.7-6.1
			c-4.1,0.7-6.8,4.6-6.1,8.7l2.2,12.8c0.2,1.3-0.5,2.1-1,2.5c-0.5,0.3-1.4,0.8-2.6,0.2l-25-13.1c-5.1-2.7-11.2-2.7-16.3,0l-25,13.1
			c-1.2,0.6-2.2,0.1-2.6-0.2c-0.5-0.3-1.2-1.1-1-2.5l4.8-27.8c1-5.7-0.9-11.5-5-15.5l-20.2-19.7c-1-0.9-0.8-2-0.6-2.6
			c0.2-0.6,0.7-1.5,2-1.7l27.9-4.1c5.7-0.8,10.6-4.4,13.2-9.6l12.5-25.3c0.6-1.2,1.7-1.4,2.2-1.4s1.6,0.2,2.2,1.4l12.5,25.3
			c2.5,5.2,7.5,8.7,13.2,9.6l27.9,4c0.5,0.1,0.9,0.2,1.2,0.5c0.6,0.4,0.9,1.2,1,1.9c0,0.7-0.2,1.3-0.8,1.9l-11.1,10.9
			c-3,2.9-3,7.6-0.1,10.6c2.9,3,7.6,3,10.6,0.1l11.1-10.8c3.7-3.6,5.5-8.3,5.3-13.3C328.7,106.7,326.3,102,322.4,98.8L322.4,98.8z"
			/>
		<path d="M410.7,24.7h-18.9L392.9,8c0.1-2.1-0.6-4.1-2-5.6c-1.4-1.5-3.4-2.4-5.5-2.4H126.5c-2.1,0-4,0.9-5.5,2.4
			c-1.4,1.5-2.1,3.5-2,5.6l1.1,16.7h-18.9c-28.6,0-51.8,23.3-51.8,51.8v55.4c0,28.6,23.3,51.8,51.8,51.8h30.3
			c10.4,47.4,47.3,85.2,94.4,96.6v66.9h-1.1c-11.8,0-21.4,9.6-21.4,21.4v18.6h-13.4c-7.3,0-13.5,5.4-14.4,12.7l-8.4,65h-5.2
			c-8,0-14.5,6.5-14.5,14.5v25c0,4.1,3.4,7.5,7.5,7.5h201.6c4.1,0,7.5-3.4,7.5-7.5v-25c0-8-6.5-14.5-14.5-14.5h-5.2l-2.4-19
			c-0.5-4.1-4.3-7-8.4-6.5c-4.1,0.5-7,4.3-6.5,8.4l2.2,17h-147l8.1-62.7H211h90h20.4l1.7,12.9c0.5,4.1,4.3,7,8.4,6.5
			c4.1-0.5,7-4.3,6.5-8.4l-1.7-13.4c-0.9-7.2-7.1-12.7-14.4-12.7h-13.4v-18.6c0-11.8-9.6-21.4-21.4-21.4H286v-66.9
			c47.1-11.4,84-49.1,94.4-96.6h30.3c28.6,0,51.8-23.3,51.8-51.8V76.6C462.6,48,439.3,24.7,410.7,24.7L410.7,24.7z M349.3,497H162.7
			v-17h11.2c0,0,0,0,0,0H338c0,0,0,0,0,0h11.2L349.3,497L349.3,497z M389.1,69.7h21.7c3.8,0,6.8,3.1,6.8,6.8v55.4
			c0,3.8-3.1,6.8-6.8,6.8h-26L389.1,69.7z M64.4,131.9V76.6c0-20.3,16.5-36.8,36.8-36.8H121l0.9,15h-20.7c-12,0-21.8,9.8-21.8,21.8
			v55.4c0,12,9.8,21.8,21.8,21.8h27l0.9,14.2c0,0.1,0,0.2,0,0.2c0,0.2,0,0.4,0.1,0.6h-27.9C80.9,168.8,64.4,152.2,64.4,131.9
			L64.4,131.9z M293.5,368.7v18.6h-75v-18.6c0-3.5,2.9-6.4,6.4-6.4h8.6h0h45h0h8.6C290.7,362.3,293.5,365.2,293.5,368.7z M241,347.3
			V283c5,0.6,10,0.9,15,0.9c5,0,10.1-0.3,15-0.9v64.2L241,347.3L241,347.3z M367.7,169.5c-0.2,1.9-0.5,3.7-0.8,5.5
			c-7.7,46.2-43.8,83.2-89.8,91.9c-13.7,2.6-28.5,2.6-42.2,0c-46-8.7-82.1-45.7-89.8-91.8c-0.4-2.7-0.8-5.5-1.1-8.3l-2.8-45.1
			c-0.3-4.1-3.8-7.3-8-7c-4.1,0.3-7.3,3.8-7,8l1,16.1h-26c-3.8,0-6.8-3.1-6.8-6.8V76.6c0-3.8,3.1-6.8,6.8-6.8h21.7l1.3,20.3
			c0.2,4,3.5,7,7.5,7c4.1,0,7.5-3.4,7.5-7.5c0-0.3,0-0.5,0-0.8L134.5,15h243l-9.5,151.8C367.9,167.7,367.8,168.6,367.7,169.5
			L367.7,169.5z M447.6,131.9c0,20.3-16.5,36.8-36.8,36.8h-27.9c0-0.2,0-0.4,0.1-0.6c0-0.1,0-0.2,0-0.2l0.9-14.2h27
			c12,0,21.8-9.8,21.8-21.8V76.6c0-12-9.8-21.8-21.8-21.8H390l0.9-15h19.8c20.3,0,36.8,16.5,36.8,36.8L447.6,131.9L447.6,131.9z"/>
		<path d="M211.3,426.1c-4.1,0-7.5,3.4-7.5,7.5s3.4,7.5,7.5,7.5h89.4c4.1,0,7.5-3.4,7.5-7.5s-3.4-7.5-7.5-7.5H211.3z"/>
	</g>
</g>
</svg>
