<?xml version="1.0" encoding="utf-8"?>
<!-- Generator: Adobe Illustrator 24.2.1, SVG Export Plug-In . SVG Version: 6.00 Build 0)  -->
<svg version="1.1" id="Layer_1" xmlns="http://www.w3.org/2000/svg" xmlns:xlink="http://www.w3.org/1999/xlink" x="0px" y="0px"
	 viewBox="0 0 512 512" style="enable-background:new 0 0 512 512;" xml:space="preserve">
<style type="text/css">
	.st0{fill:#00E5FF;}
	.st1{fill:#FFBB00;}
</style>
<path class="st0" d="M198,320v96c0,17.7,14.3,32,32,32h145l66,54v-54h29c17.7,0,32-14.3,32-32V222c0-17.7-14.3-32-32-32H320L198,320
	z"/>
<path class="st1" d="M165,10C79.4,10,10,79.4,10,165c0,34.1,11,65.6,29.6,91.1l-19.1,42l47.3-12.4v0C94.4,307.2,128.2,320,165,320
	c85.6,0,155-69.4,155-155C320,79.4,250.6,10,165,10z"/>
<path d="M470,180H329.4c0.4-4.9,0.7-9.9,0.7-15C330,74,256,0,165,0c-29,0-57.5,7.6-82.5,22c-4.8,2.8-6.4,8.9-3.7,13.7
	c2.8,4.8,8.9,6.4,13.7,3.7C114.5,26.7,139.5,20,165,20c80,0,145,65.1,145,145S245,310,165,310c-33.5,0-64.9-11.1-90.9-32.1
	c-2.6-2.1-6.1-2.7-9.2-1.8l-26.5,6.9l10.4-22.9c1.5-3.3,1.1-7.1-1-10C29.6,225.4,20,195.9,20,165c0-25.5,6.7-50.7,19.5-72.6
	c2.8-4.8,1.1-10.9-3.6-13.7s-10.9-1.1-13.7,3.6C7.7,107.4,0,136,0,165c0,33.2,9.7,64.9,28.2,92.2L11.4,294c-1.6,3.5-1,7.6,1.4,10.6
	s6.4,4.2,10.2,3.2l42.5-11.1C94.1,318.2,129.2,330,165,330c7.8,0,15.5-0.6,23-1.6V416c0,23.2,18.8,42,42,42h141.4l63.2,51.7
	c1.8,1.5,4.1,2.3,6.3,2.3c1.5,0,2.9-0.3,4.3-1c3.5-1.7,5.7-5.2,5.7-9v-44h19c23.2,0,42-18.8,42-42V222C512,198.8,493.2,180,470,180z
	 M492,416c0,12.1-9.9,22-22,22h-29c-5.5,0-10,4.5-10,10v32.9l-49.4-40.4c-2.7-2.5-5.1-2.5-10.5-2.5H230c-12.1,0-22-9.9-22-22v-91.6
	c59.2-16,105.2-64.1,118.3-124.4H470c12.1,0,22,9.9,22,22V416z"/>
<path d="M399.8,348.6c3.4-1.6,5.7-5,5.7-9c0-5.5-4.5-10-10-10h-4.1l-32.3-73.5c-1.6-3.6-5.2-6-9.2-6s-7.6,2.3-9.2,6l-32.3,73.5h-4.1
	c-5.5,0-10,4.5-10,10c0,4,2.4,7.4,5.7,9l-12,27.4c-2.2,5.1,0.1,11,5.1,13.2c5.1,2.2,11-0.1,13.2-5.1l15.1-34.4h56.7l15.1,34.4
	c1.6,3.8,5.3,6,9.2,6c1.3,0,2.7-0.3,4-0.8c5.1-2.2,7.4-8.1,5.1-13.2L399.8,348.6z M330.4,329.6L350,285l19.6,44.6H330.4z"/>
<path d="M55.4,65.4c2.6,0,5.2-1.1,7.1-2.9c1.9-1.9,2.9-4.4,2.9-7.1c0-2.6-1.1-5.2-2.9-7.1c-1.9-1.9-4.4-2.9-7.1-2.9
	c-2.6,0-5.2,1.1-7.1,2.9c-1.9,1.9-2.9,4.4-2.9,7.1c0,2.6,1.1,5.2,2.9,7.1C50.2,64.3,52.8,65.4,55.4,65.4z"/>
<g>
	<path d="M195.6,242.2c-5.9,0-9.2-3.2-9.9-9.6l-2.9-22.4c-1-8-1.4-15.4-1.4-22.4c0-1.9,0.1-5.1,0.4-9.7c0.2-4.6,0.4-7.8,0.4-9.7
		c0-14.7-2.7-22.1-8.2-22.1c-7.6,0-14.9,4.5-21.9,13.6c-6.3,8.2-11.2,18.7-14.7,31.3c-0.1,2.7-0.4,6-0.9,10
		c-0.4,3.4-0.6,6.7-0.6,9.9c0,2,0.2,5.1,0.6,9.2c0.4,4.1,0.6,7.1,0.6,9.2c0,3.1-0.9,5.5-2.8,7.5c-1.9,1.9-4.3,2.9-7.2,2.9
		c-3,0-5.4-1-7.3-2.9c-1.8-1.9-2.8-4.4-2.8-7.5c0-2-0.2-5.1-0.7-9.2c-0.4-4.1-0.7-7.1-0.7-9.2c0-7,0.5-16.7,1.5-29.2
		c1-12.4,1.5-22.1,1.5-29.2c0-2.2-0.1-5.4-0.4-9.7c-0.2-4.3-0.4-7.5-0.4-9.7c0-2.9,1-5.3,2.9-7.2c1.9-1.9,4.3-2.8,7.2-2.8
		c6.3,0,9.7,4.4,10.3,13.3l0.3,11.9c11.4-15.3,23.2-22.9,35.2-22.9c10.9,0,18.5,4.8,22.8,14.4c2.9,6.4,4.5,15.9,4.8,28.4v10.3
		l-0.1,9.5c0,5.7,0.7,13,2.2,21.9c1.5,9,2.2,16.2,2.2,21.8c0,3-1,5.4-2.9,7.3C200.9,241.3,198.5,242.2,195.6,242.2z M147.1,76.3
		c6.8,0,12.3,2,16.4,5.9l8.5,10.8c3.2,3.9,7,5.9,11.4,5.9c3.9,0,6.8-1.3,8.7-3.8l4.7-9l2-6c1-2,3-3,6.1-3c5.1,0,7.7,2.5,7.7,7.6
		c0,2.5-1.5,6.6-4.4,12.4c-2.7,5.4-5.1,9.2-7,11.2c-3.8,3.9-8.7,5.8-14.6,5.8c-8.9,0-15.9-1.9-20.9-5.8c-1.8-1.4-4.8-5.1-9-10.9
		c-2.9-3.9-6.1-5.8-9.6-5.8c-2.1,0-4,0.4-5.7,1.2c-1.7,0.8-3.1,2-4.3,3.5l-4.5,8.7c-1.7,3.1-3.9,4.6-6.6,4.6c-2.1,0-3.9-0.7-5.5-2.1
		c-1.6-1.4-2.3-3.1-2.3-5.3c0-0.7,0.1-1.5,0.3-2.3c1.9-6.9,5.3-12.6,10.3-16.9C134.1,78.5,140.2,76.3,147.1,76.3z"/>
</g>
</svg>
