<?xml version="1.0" encoding="utf-8"?>
<!-- Generator: Adobe Illustrator 24.2.1, SVG Export Plug-In . SVG Version: 6.00 Build 0)  -->
<svg version="1.1" id="Capa_1" xmlns="http://www.w3.org/2000/svg" xmlns:xlink="http://www.w3.org/1999/xlink" x="0px" y="0px"
	 viewBox="0 0 512 512" style="enable-background:new 0 0 512 512;" xml:space="preserve">
<style type="text/css">
	.st0{fill:#EEFAFF;}
	.st1{fill:#2962FF;}
	.st2{fill:#00E5FF;}
</style>
<g>
	<g>
		<path class="st0" d="M215.7,128.4C204.3,60.1,145.3,10,76,10l4.6,63.1C69.3,71.1,57.7,70,46,70l8.2,73.9l171.6,45.9l0.1,0.3
			L215.7,128.4z"/>
		<path class="st0" d="M431.4,73.1L436,10c-69.3,0-128.3,50.1-139.7,118.4L286,190l0.1-0.3l171.6-45.9L466,70
			C454.3,70,442.7,71.1,431.4,73.1L431.4,73.1z"/>
		<path class="st1" d="M502,160l-30,252c0,0-62.2-9.8-96,0c-56.3,16.3-90,60-90,60V190l0.1-0.3c2.3-4.3,32.2-59.7,89.9-59.7
			C436,130,501.9,160,502,160z"/>
		<path class="st2" d="M286,190v282c0,16.6-13.4,30-30,30s-30-13.4-30-30V190c0,16.6,13.4,30,30,30S286,206.6,286,190z"/>
		<path class="st1" d="M226,190v282c0,0-33.8-43.8-90-60c-33.8-9.8-96,0-96,0L10,160c0.6-0.2,65.4-30,126-30
			c57.7,0,87.6,55.4,89.9,59.7L226,190z"/>
	</g>
	<g>
		<path d="M30.1,413.2c0.3,2.7,1.7,5.1,3.9,6.8c2.2,1.6,4.9,2.3,7.6,1.9c0.6-0.1,60.4-9.3,91.7-0.3c45.1,13,75.3,45.4,83,54.2
			c1.9,20.3,19,36.2,39.8,36.2c20.8,0,37.9-15.9,39.8-36.2c7.6-8.9,37.7-41.1,83-54.2c31.2-9,91.1,0.2,91.7,0.3
			c5.6,0.9,10.8-3.1,11.5-8.7l9.7-81.3c0.7-5.5-3.3-10.5-8.7-11.1c-5.5-0.6-10.5,3.3-11.1,8.7l-8.5,71.2c-19.6-2.4-62.7-6.2-90,1.7
			c-34.7,10-61.1,29.7-77.2,44.6V192.5c5.4-9.5,32.6-52.5,80-52.5c36.8,0,81.1,12.3,115.2,26.3l-8.8,73.9
			c-0.7,5.9,3.9,11.2,9.9,11.2c5,0,9.3-3.7,9.9-8.8l9.7-81.3c0.5-4.3-1.8-8.5-5.8-10.3c-0.7-0.3-15.5-7-37.5-14.1l7.3-65.7
			c0.3-2.8-0.6-5.7-2.5-7.8c-1.9-2.1-4.6-3.3-7.5-3.3c-7.9,0-15.9,0.5-23.7,1.4l3.7-50.7c0.2-2.8-0.8-5.5-2.6-7.5
			c-1.9-2-4.5-3.2-7.3-3.2c-74,0-137.4,53.5-149.6,126.7C275.9,190.3,276,188.3,276,190c0,11-9,20-20,20s-20-9-20-20
			c0-2.1-0.7-4.2-10.4-63.3C213.4,53.7,150.2,0,76,0c-2.8,0-5.4,1.2-7.3,3.2c-1.9,2-2.9,4.8-2.7,7.5l3.7,50.7
			C61.9,60.5,53.9,60,46,60c-2.8,0-5.6,1.2-7.5,3.3c-1.9,2.1-2.8,4.9-2.5,7.8l7.3,65.7c-22,7.1-36.8,13.8-37.5,14.1
			c-4,1.8-6.3,6-5.8,10.3L30.1,413.2z M454.8,80.3l-5.6,50.6c-26.8-7.3-51.4-11-73.2-11c-11,0-21,1.8-30.2,4.7
			C376.2,98.6,414.2,82.8,454.8,80.3z M306.1,130c10-60.2,59.3-104.8,119.1-109.6L422,64.8c-45.2,10-87.1,35.3-117.4,74.3L306.1,130
			z M256,230c7.3,0,14.1-2,20-5.4V472c0,11-9,20-20,20s-20-9-20-20V224.6C241.9,228,248.7,230,256,230z M205.9,130l1.5,9.1
			C177.1,100.1,135.1,74.8,90,64.8l-3.2-44.4C146.6,25.3,195.8,69.8,205.9,130z M166.2,124.7c-9.1-3-19.2-4.7-30.2-4.7
			c-21.8,0-46.3,3.7-73.2,11l-5.6-50.6C97.6,82.8,135.7,98.5,166.2,124.7z M136,140c47.4,0,74.5,43,80,52.5V447
			c-16.1-14.8-42.5-34.5-77.2-44.6c-25-7.2-64.2-4.8-90-1.7L20.8,166.3C55,152.3,99.2,140,136,140z"/>
		<circle cx="487" cy="286" r="10"/>
	</g>
</g>
</svg>
