<svg id="Layer_1" data-name="Layer 1" xmlns="http://www.w3.org/2000/svg" viewBox="0 0 500 500"><defs><style>.cls-1{fill:#2962ff;}</style></defs><title>iconos</title><g id="_Group_" data-name="&lt;Group&gt;"><g id="_Group_2" data-name="&lt;Group&gt;"><path id="_Compound_Path_" data-name="&lt;Compound Path&gt;" class="cls-1" d="M344.16,334.59H314.8l-15.25-6.79V309.28a103.59,103.59,0,0,0,46.83-53.94h13.09A56.49,56.49,0,0,0,389.52,151v-6.44C389.52,67.62,326.93,5,250,5S110.48,67.62,110.48,144.56V151a56.49,56.49,0,0,0,30,104.35h13.09a103.59,103.59,0,0,0,46.83,53.94v18.45L185,334.59H155.84C72.69,334.59,5,402.24,5,485.39A9.57,9.57,0,0,0,14.61,495H206.94a9.57,9.57,0,1,0,0-19.14H24.52A131.85,131.85,0,0,1,149.69,353.87c0,0.08-.06.16-0.08,0.24a9.57,9.57,0,0,0,1.29,8l45.27,66.55a9.57,9.57,0,0,0,7,4.15q0.45,0,.9,0a9.57,9.57,0,0,0,6.77-2.8L249.91,391,289,430a9.57,9.57,0,0,0,6.77,2.8c0.3,0,.6,0,0.9,0a9.57,9.57,0,0,0,7-4.15l45.27-66.55a9.57,9.57,0,0,0,1.29-8c0-.08-0.06-0.16-0.08-0.24a131.85,131.85,0,0,1,125.35,122H293.06a9.57,9.57,0,1,0,0,19.14H485.39a9.57,9.57,0,0,0,9.57-9.57c0-83.15-67.65-150.8-150.8-150.8h0ZM333.67,153.94A110.62,110.62,0,0,1,279.88,131a9.57,9.57,0,0,0-11.76-.09A115.84,115.84,0,0,1,197,155a117,117,0,0,1-30.65-4.09v-4.86a83.63,83.63,0,0,1,167.26,0s0,7.61,0,7.86h0Zm25.79,82.26H353V161.45h6.47A37.38,37.38,0,0,1,359.46,236.21ZM250,24.18a120.51,120.51,0,0,1,120.37,119.2,56.56,56.56,0,0,0-10.9-1.07h-6.77a102.76,102.76,0,0,0-205.39,0h-6.77a56.51,56.51,0,0,0-10.9,1.07A120.51,120.51,0,0,1,250,24.18h0Zm-103,212h-6.46a37.38,37.38,0,0,1,0-74.76H147v74.76h0ZM166.13,219V170.64A136.3,136.3,0,0,0,197,174.17a134.71,134.71,0,0,0,76.86-23.77,129.56,129.56,0,0,0,60,22.86v46.26a83.52,83.52,0,0,1-4.2,25.71H284A28.83,28.83,0,0,0,256.82,226H244a28.78,28.78,0,0,0,0,57.57h12.81A28.83,28.83,0,0,0,284,264.36h36.54A83.84,83.84,0,0,1,166.13,219h0Zm100.34,35.79a9.66,9.66,0,0,1-9.65,9.65H244a9.65,9.65,0,0,1,0-19.29h12.81A9.66,9.66,0,0,1,266.47,254.79ZM250,322a102.66,102.66,0,0,0,30.4-4.58v16l-30.49,30.49L219.6,333.59V317.42A102.67,102.67,0,0,0,250,322h0Zm-44.51,86.33-32.32-47.52,32.24-14.35,31,31Zm88.85,0-30.89-30.89,31-31,32.24,14.35Z"/><path id="_Path_" data-name="&lt;Path&gt;" class="cls-1" d="M250,475.82a9.57,9.57,0,1,0,6.76,2.8A9.64,9.64,0,0,0,250,475.82Z"/></g></g></svg>