<?xml version="1.0" encoding="utf-8"?>
<!-- Generator: Adobe Illustrator 24.2.1, SVG Export Plug-In . SVG Version: 6.00 Build 0)  -->
<svg version="1.1" id="Layer_1" xmlns="http://www.w3.org/2000/svg" xmlns:xlink="http://www.w3.org/1999/xlink" x="0px" y="0px"
	 viewBox="0 0 292.1 57" style="enable-background:new 0 0 292.1 57;" xml:space="preserve">
<style type="text/css">
	.st0{fill:#2962FF;}
</style>
<path class="st0" d="M70.9,0H3.5C1.6,0,0,1.6,0,3.5v44C0,49.4,1.6,51,3.5,51h11l-5.2,5.2c-0.2,0.2-0.2,0.5,0,0.7
	C9.4,57,9.5,57,9.6,57s0.3,0,0.4-0.1l5.9-5.9h42.8l5.9,5.9C64.7,57,64.8,57,65,57s0.3,0,0.4-0.1c0.2-0.2,0.2-0.5,0-0.7L60.1,51h10.8
	c1.9,0,3.5-1.6,3.5-3.5v-44C74.4,1.6,72.8,0,70.9,0z M70.9,50H3.6C2.1,50,1,48.8,1,47.5v-2.8h72.4v2.8C73.4,48.8,72.3,50,70.9,50z
	 M73.4,43.7H1V3.5C1,2.1,2.1,1,3.5,1h67.4c1.4,0,2.5,1.1,2.5,2.5V43.7z"/>
<path class="st0" d="M175.7,50h-2.2V17.2c0-3.9-3.2-7.1-7.1-7.1h-53.1c-3.9,0-7.1,3.2-7.1,7.1V50H104c-0.3,0-0.5,0.2-0.5,0.5
	c0,0.1,0,0.2,0.1,0.3c0.2,3.4,3,6.2,6.5,6.2h59.7c3.6,0,6.5-2.9,6.5-6.5C176.2,50.2,175.9,50,175.7,50z M113.2,11.1h53.1
	c2.8,0,5.2,1.9,5.9,4.6h-64.9C108,13.1,110.4,11.1,113.2,11.1z M107.1,17.2c0-0.2,0-0.3,0-0.5h65.3c0,0.2,0,0.3,0,0.5V50h-25.5
	h-14.3h-25.5C107.1,50,107.1,17.2,107.1,17.2z M146.4,51c-0.2,1.1-1.2,2-2.4,2h-8.2c-1.2,0-2.2-0.9-2.4-2H146.4z M169.7,56H110
	c-2.9,0-5.2-2.2-5.5-5h2.1h25.6c0.2,1.7,1.7,3,3.4,3h8.2c1.8,0,3.2-1.3,3.4-3h25.6h2.2C174.9,53.8,172.5,56,169.7,56z"/>
<g>
	<path class="st0" d="M231.1,10h-22l0,0c-3.6,0-6.6,2.9-6.6,6.6l0,0v33.7v0.1c0,3.6,3,6.6,6.6,6.6h0.1h22c3.7,0,6.6-3,6.6-6.6V16.6
		h-0.1C237.7,13,234.7,10,231.1,10z M203.5,17.2h33.3v32.7h-33.3V17.2z M209.1,11h22c2.9,0,5.4,2.3,5.6,5.1h-33.2
		C203.8,13.3,206.2,11,209.1,11z M231.2,55.9h-22c-2.9,0-5.4-2.2-5.7-5.1h33.3C236.5,53.7,234.1,55.9,231.2,55.9z"/>
	<path class="st0" d="M220.1,54.5c0.7,0,1.3-0.6,1.3-1.3s-0.6-1.3-1.3-1.3s-1.3,0.6-1.3,1.3S219.4,54.5,220.1,54.5z M220.1,52.9
		c0.1,0,0.3,0.1,0.3,0.3c0,0.3-0.5,0.3-0.5,0C219.9,53,220,52.9,220.1,52.9z"/>
</g>
<g>
	<path class="st0" d="M280.3,51.9c-0.7,0-1.3,0.6-1.3,1.3s0.6,1.3,1.3,1.3s1.3-0.6,1.3-1.3S281,51.9,280.3,51.9z M280,53.2
		c0-0.1,0.1-0.3,0.3-0.3c0.1,0,0.3,0.1,0.3,0.3C280.5,53.5,280,53.5,280,53.2z"/>
	<path class="st0" d="M288.6,18.1h-3h-10.7h-3c-1.9,0-3.5,1.6-3.5,3.5v31.9c0,1.9,1.6,3.5,3.5,3.5h16.7c1.9,0,3.5-1.6,3.5-3.5V21.6
		C292.1,19.7,290.5,18.1,288.6,18.1z M285.1,19.1v1.1c0,0.5-0.4,1-1,1h-7.8c-0.5,0-1-0.4-1-1v-1.1H285.1z M291.1,53.5
		c0,1.4-1.1,2.5-2.5,2.5h-16.7c-1.4,0-2.5-1.1-2.5-2.5V21.6c0-1.4,1.1-2.5,2.5-2.5h2.5v1.1c0,1.1,0.9,1.9,2,1.9h7.8c1.1,0,2-0.9,2-2
		V19h2.5c1.4,0,2.5,1.1,2.5,2.5L291.1,53.5L291.1,53.5z"/>
</g>
</svg>
