<?xml version="1.0" encoding="utf-8"?>
<!-- Generator: Adobe Illustrator 25.1.0, SVG Export Plug-In . SVG Version: 6.00 Build 0)  -->
<svg version="1.1" id="Capa_1" xmlns="http://www.w3.org/2000/svg" xmlns:xlink="http://www.w3.org/1999/xlink" x="0px" y="0px"
	 viewBox="0 0 512 512" style="enable-background:new 0 0 512 512;" xml:space="preserve">
<style type="text/css">
	.st0{fill:#FF6D00;}
</style>
<g>
	<path class="st0" d="M256,234.7c0-11.8-9.6-21.3-21.3-21.3s-21.3,9.6-21.3,21.3c0,11.8,9.6,21.3,21.3,21.3S256,246.4,256,234.7z"/>
	<path class="st0" d="M298.7,234.7c0-35.3-28.7-64-64-64c-35.3,0-64,28.7-64,64c0,35.3,28.7,64,64,64
		C270,298.7,298.7,270,298.7,234.7z M192,234.7c0-23.5,19.1-42.7,42.7-42.7s42.7,19.1,42.7,42.7c0,23.5-19.1,42.7-42.7,42.7
		C211.1,277.3,192,258.2,192,234.7z"/>
	<path class="st0" d="M245.3,96c0-5.9-4.8-10.7-10.7-10.7c-82.3,0-149.3,67-149.3,149.3c0,5.9,4.8,10.7,10.7,10.7
		s10.7-4.8,10.7-10.7c0-70.6,57.4-128,128-128C240.6,106.7,245.3,101.9,245.3,96z"/>
	<path class="st0" d="M234.7,64c5.9,0,10.7-4.8,10.7-10.7s-4.8-10.7-10.7-10.7c-105.9,0-192,86.1-192,192c0,5.9,4.8,10.7,10.7,10.7
		S64,240.6,64,234.7C64,140.6,140.6,64,234.7,64z"/>
	<path class="st0" d="M480,256c-3.7,0-7.3,0.7-10.7,1.8v-12.5c0-0.9,0-1.9-0.1-2.8c0.1-2.6,0.1-5.2,0.1-7.9
		C469.3,105.3,364.1,0,234.7,0C105.3,0,0,105.3,0,234.7s105.3,234.7,234.7,234.7c23.9,0,47.4-3.6,70-10.6c15.9,32,48.9,53.3,86,53.3
		H416c52.9,0,96-43.1,96-96V288C512,270.4,497.6,256,480,256z M234.7,448C117,448,21.3,352.3,21.3,234.7S117,21.3,234.7,21.3
		c111,0,202.4,85.1,212.4,193.5c-3.1-1-6.3-1.5-9.7-1.5c-4.2,0-8.1,0.8-11.8,2.3c-3.7-13.6-16.1-23.6-30.9-23.6
		c-14.7,0-27.2,10-30.9,23.6c-3.7-1.5-7.6-2.3-11.8-2.3c-17.6,0-32,14.4-32,32v55.2c-3.3-1.2-6.9-1.8-10.7-1.8
		c-17.6,0-32,14.4-32,32c0,2,0.2,3.9,0.5,5.7c0,0.1,0,0.2,0,0.3l3.3,17.2c-14.8,5.8-30.4,8.7-46.5,8.7c-5.9,0-10.7,4.8-10.7,10.7
		s4.8,10.7,10.7,10.7c17.4,0,34.4-3,50.5-8.8l4,21.2c-17.5,5.9-35.8,8.9-54.6,8.9c-5.9,0-10.7,4.8-10.7,10.7s4.8,10.7,10.7,10.7
		c20.1,0,39.7-3.1,58.6-9.1l3.1,16.4c0.3,1.6,0.6,3.2,1,4.7C277.1,444.8,256.1,448,234.7,448z M490.7,416
		c0,41.2-33.5,74.7-74.7,74.7h-25.3c-31.5,0-59.1-19.8-69.9-48.5c0-0.1-0.1-0.2-0.1-0.4c0-0.1-0.1-0.2-0.1-0.3
		c-1.4-3.7-2.5-7.6-3.2-11.6l-5.3-28.2c0-0.3-0.1-0.6-0.2-0.9l-7.9-41.8c-0.1-0.5-0.1-0.9-0.3-1.4l-4.7-24.8c0-0.8-0.1-1.5-0.2-2.2
		c0-5.9,4.8-10.7,10.7-10.7s10.7,4.8,10.7,10.7V352c0,5.9,4.8,10.7,10.7,10.7s10.7-4.8,10.7-10.7V245.3c0-5.9,4.8-10.7,10.7-10.7
		c5.9,0,10.7,4.8,10.7,10.6V352c0,5.9,4.8,10.7,10.7,10.7S384,357.9,384,352V224c0-5.9,4.8-10.7,10.7-10.7s10.7,4.8,10.7,10.7v21.3
		c0,0,0,0.1,0,0.1c0,0,0,0,0,0V352c0,5.9,4.8,10.7,10.7,10.7s10.7-4.8,10.7-10.7V245.3c0-5.9,4.8-10.6,10.7-10.6
		c5.4,0,9.9,4.1,10.6,9.3c0,0.1,0,0.3,0,0.4c0,0.3,0,0.6,0,0.9V288c0,0,0,0,0,0c0,0,0,0,0,0v64c0,5.9,4.8,10.7,10.7,10.7
		s10.7-4.8,10.7-10.7v-64c0-5.9,4.8-10.6,10.7-10.6c5.9,0,10.7,4.8,10.7,10.7V416z"/>
</g>
</svg>
