<?xml version="1.0" encoding="utf-8"?>
<!-- Generator: Adobe Illustrator 24.2.1, SVG Export Plug-In . SVG Version: 6.00 Build 0)  -->
<svg version="1.1" id="Capa_1" xmlns="http://www.w3.org/2000/svg" xmlns:xlink="http://www.w3.org/1999/xlink" x="0px" y="0px"
	 viewBox="0 0 465 512" style="enable-background:new 0 0 465 512;" xml:space="preserve">
<style type="text/css">
	.st0{fill:#E1E6E9;}
	.st1{fill:#CBCBCB;}
	.st2{fill:#7297FF;}
	.st3{fill:#5481FF;}
	.st4{fill:#2962FF;}
	.st5{fill:#FFC21A;}
	.st6{fill:#FFBB00;}
	.st7{fill:#00E5FF;}
</style>
<path class="st0" d="M260.4,491.6l-22.2,11.7c-3.6,1.9-7.8,1.9-11.4,0l-22.2-11.7C82.5,427.5,7.4,309.1,7.4,181v-78.2
	c0-6.2,4.6-11.5,10.8-12.1C60.3,86.3,93.7,56.1,99.1,18c0.9-6.1,6-10.7,12.1-10.7H354c6.2,0,11.3,4.6,12.1,10.7
	c5.3,38.1,38.8,68.2,80.9,72.7c6.2,0.6,10.8,5.9,10.8,12.1V181C457.6,309.1,382.5,427.5,260.4,491.6z"/>
<path class="st1" d="M446.9,90.6C404.8,86.2,371.4,56,366,17.9c-0.9-6.1-6-10.7-12.1-10.7h-16.5c2.4,52.8,40,90.3,80.7,94.6
	c6.2,0.6,10.8,5.9,10.8,12.1v78.2c0,128.1-75.2,246.5-197.2,310.6l-2.6,1.3c3,0.9,6.3,0.6,9.1-0.9l22.2-11.7
	C382.5,427.5,457.6,309.1,457.6,181v-78.2C457.6,96.6,453,91.3,446.9,90.6z"/>
<path class="st2" d="M224.3,460.3C169,431.2,122.9,389.4,91.2,339.4c-31.4-49.4-48-105.6-48-162.4v-44.4c0-6.4,3.9-12.2,9.9-14.6
	c32.9-13,59.5-37.5,74-68c2.6-5.4,8.1-8.9,14.1-8.9h182.6c6,0,11.6,3.4,14.1,8.9c14.5,30.5,41.1,55,74,68c6,2.4,9.9,8.2,9.9,14.6
	V177c0,56.8-16.6,113-48,162.4c-31.8,50-77.8,91.8-133.1,120.9l-0.9,0.5c-4.6,2.4-10.1,2.4-14.6,0L224.3,460.3z"/>
<path class="st3" d="M412,117.9c-0.3-0.1-0.5-0.2-0.8-0.3c-0.4-0.2-0.9-0.3-1.3-0.5c-0.7-0.3-1.5-0.6-2.2-0.9
	c-0.4-0.2-0.8-0.4-1.2-0.5c-0.8-0.3-1.5-0.7-2.3-1c-0.3-0.2-0.7-0.3-1-0.5c-1.1-0.5-2.2-1.1-3.3-1.6c-0.1,0-0.2-0.1-0.2-0.1
	c-1-0.5-2-1-3-1.6c-0.3-0.2-0.7-0.4-1-0.6c-0.7-0.4-1.4-0.8-2.1-1.2c-0.4-0.2-0.8-0.5-1.2-0.7c-0.7-0.4-1.3-0.8-2-1.2
	c-0.4-0.2-0.8-0.5-1.1-0.7c-0.7-0.4-1.4-0.9-2.1-1.3c-0.3-0.2-0.7-0.4-1-0.6c-0.9-0.6-1.9-1.2-2.8-1.9c-0.1,0-0.1-0.1-0.2-0.1
	c-1-0.7-2-1.4-2.9-2.1c-0.3-0.2-0.6-0.4-0.9-0.7c-0.7-0.5-1.3-1-2-1.5c-0.4-0.3-0.7-0.5-1-0.8c-0.6-0.5-1.2-0.9-1.8-1.4
	c-0.3-0.3-0.7-0.6-1-0.8c-0.6-0.5-1.2-1-1.8-1.5c-0.3-0.3-0.6-0.5-0.9-0.8c-0.7-0.6-1.5-1.3-2.2-2c-0.1-0.1-0.3-0.3-0.5-0.4
	c-0.9-0.8-1.7-1.6-2.6-2.4c-0.2-0.2-0.5-0.5-0.7-0.7c-0.6-0.6-1.2-1.2-1.8-1.8c-0.3-0.3-0.6-0.6-0.9-0.9c-0.5-0.5-1.1-1.1-1.6-1.7
	c-0.3-0.3-0.6-0.7-0.9-1c-0.5-0.6-1-1.1-1.5-1.7c-0.3-0.3-0.6-0.6-0.8-0.9c-0.6-0.7-1.2-1.4-1.8-2.1c-0.2-0.2-0.3-0.4-0.5-0.6
	c-0.7-0.9-1.5-1.8-2.2-2.7c-0.2-0.2-0.4-0.5-0.5-0.7c-0.5-0.7-1.1-1.4-1.6-2.1c-0.2-0.3-0.5-0.7-0.7-1c-0.4-0.6-0.9-1.2-1.3-1.9
	c-0.3-0.4-0.5-0.7-0.8-1.1c-0.4-0.6-0.8-1.3-1.3-1.9c-0.2-0.4-0.5-0.7-0.7-1.1c-0.5-0.7-0.9-1.4-1.4-2.2c-0.2-0.3-0.3-0.5-0.5-0.8
	c-0.6-1-1.2-2-1.8-3c-0.1-0.2-0.2-0.4-0.4-0.6c-0.5-0.8-0.9-1.6-1.3-2.4c-0.2-0.4-0.4-0.7-0.6-1.1c-0.4-0.7-0.7-1.4-1.1-2.1
	c-0.2-0.4-0.4-0.8-0.6-1.2c-0.1-0.3-0.3-0.6-0.4-0.9c-2.6-5.4-8.1-8.9-14.1-8.9h-91.3v421.5c2.5,0,5-0.6,7.3-1.8l0.9-0.5
	c55.3-29.1,101.4-70.9,133.1-120.9c31.4-49.4,48-105.6,48-162.4v-44.4C421.8,126.1,417.9,120.3,412,117.9z"/>
<path class="st4" d="M412,117.9c-0.3-0.1-0.5-0.2-0.8-0.3c-0.4-0.2-0.9-0.3-1.3-0.5c-0.7-0.3-1.5-0.6-2.2-0.9
	c-0.4-0.2-0.8-0.4-1.2-0.5c-0.8-0.3-1.5-0.7-2.3-1c-0.3-0.2-0.7-0.3-1-0.5c-1.1-0.5-2.2-1.1-3.3-1.6c-0.1,0-0.2-0.1-0.2-0.1
	c-1-0.5-2-1-3-1.6c-0.3-0.2-0.7-0.4-1-0.6c-0.7-0.4-1.4-0.8-2.1-1.2c-0.4-0.2-0.8-0.5-1.2-0.7c-0.7-0.4-1.3-0.8-2-1.2
	c-0.4-0.2-0.8-0.5-1.1-0.7c-0.7-0.4-1.4-0.9-2.1-1.3c-0.3-0.2-0.7-0.4-1-0.6c-0.9-0.6-1.9-1.2-2.8-1.9c-0.1,0-0.1-0.1-0.2-0.1
	c-1-0.7-2-1.4-2.9-2.1c-0.3-0.2-0.6-0.4-0.9-0.7c-0.7-0.5-1.3-1-2-1.5c-0.4-0.3-0.7-0.5-1-0.8c-0.6-0.5-1.2-0.9-1.8-1.4
	c-0.3-0.3-0.7-0.6-1-0.8c-0.6-0.5-1.2-1-1.8-1.5c-0.3-0.3-0.6-0.5-0.9-0.8c-0.7-0.6-1.5-1.3-2.2-2c-0.1-0.1-0.3-0.3-0.5-0.4
	c-0.9-0.8-1.7-1.6-2.6-2.4c-0.2-0.2-0.5-0.5-0.7-0.7c-0.6-0.6-1.2-1.2-1.8-1.8c-0.3-0.3-0.6-0.6-0.9-0.9c-0.5-0.5-1.1-1.1-1.6-1.7
	c-0.3-0.3-0.6-0.7-0.9-1c-0.5-0.6-1-1.1-1.5-1.7c-0.3-0.3-0.6-0.6-0.8-0.9c-0.6-0.7-1.2-1.4-1.8-2.1c-0.2-0.2-0.3-0.4-0.5-0.6
	c-0.7-0.9-1.5-1.8-2.2-2.7c-0.2-0.2-0.4-0.5-0.5-0.7c-0.5-0.7-1.1-1.4-1.6-2.1c-0.2-0.3-0.5-0.7-0.7-1c-0.4-0.6-0.9-1.2-1.3-1.9
	c-0.3-0.4-0.5-0.7-0.8-1.1c-0.4-0.6-0.8-1.3-1.3-1.9c-0.2-0.4-0.5-0.7-0.7-1.1c-0.5-0.7-0.9-1.5-1.4-2.2c-0.2-0.3-0.3-0.5-0.5-0.8
	c-0.6-1-1.2-2-1.8-3c-0.1-0.2-0.2-0.4-0.4-0.6c-0.5-0.8-0.9-1.6-1.3-2.4c-0.2-0.4-0.4-0.7-0.6-1.1c-0.4-0.7-0.7-1.4-1.1-2.1
	c-0.2-0.4-0.4-0.8-0.6-1.2c-0.1-0.3-0.3-0.6-0.4-0.9c-2.6-5.4-8.1-8.9-14.1-8.9h-25.3c3.3,4.1,6.9,9.6,11.1,16.8
	c0.2,0.3,0.3,0.6,0.4,0.9c0.2,0.4,0.4,0.8,0.6,1.2c0.3,0.7,0.7,1.4,1.1,2.1c0.2,0.4,0.4,0.7,0.6,1.1c0.4,0.8,0.9,1.6,1.3,2.4
	c0.1,0.2,0.2,0.4,0.4,0.6c0.6,1,1.2,2,1.8,3c0.2,0.3,0.3,0.5,0.5,0.8c0.4,0.7,0.9,1.5,1.4,2.2c0.2,0.4,0.5,0.7,0.7,1.1
	c0.4,0.6,0.8,1.3,1.3,1.9c0.3,0.4,0.5,0.7,0.8,1.1c0.4,0.6,0.9,1.2,1.3,1.9c0.2,0.3,0.5,0.7,0.7,1c0.5,0.7,1,1.4,1.6,2.1
	c0.2,0.2,0.4,0.5,0.5,0.7c0.7,0.9,1.5,1.8,2.2,2.7c0.2,0.2,0.3,0.4,0.5,0.6c0.6,0.7,1.2,1.4,1.8,2.1c0.3,0.3,0.5,0.6,0.8,0.9
	c0.5,0.6,1,1.2,1.5,1.7c0.3,0.3,0.6,0.7,0.9,1c0.5,0.6,1,1.1,1.6,1.7c0.3,0.3,0.6,0.6,0.9,0.9c0.6,0.6,1.2,1.2,1.8,1.8
	c0.2,0.2,0.5,0.5,0.7,0.7c0.8,0.8,1.7,1.6,2.6,2.4c0.1,0.1,0.3,0.3,0.5,0.4c0.7,0.7,1.5,1.3,2.2,2c0.3,0.3,0.6,0.5,0.9,0.8
	c0.6,0.5,1.2,1,1.8,1.5c0.3,0.3,0.7,0.6,1,0.8c0.6,0.5,1.2,1,1.8,1.4c0.3,0.3,0.7,0.5,1,0.8c0.7,0.5,1.3,1,2,1.5
	c0.3,0.2,0.6,0.4,0.9,0.7c1,0.7,1.9,1.4,2.9,2.1c0.1,0,0.1,0.1,0.2,0.1c0.9,0.6,1.8,1.3,2.8,1.9c0.3,0.2,0.7,0.4,1,0.6
	c0.7,0.4,1.4,0.9,2.1,1.3c0.4,0.2,0.8,0.5,1.1,0.7c0.7,0.4,1.3,0.8,2,1.2c0.4,0.2,0.8,0.5,1.2,0.7c0.7,0.4,1.4,0.8,2.1,1.2
	c0.3,0.2,0.7,0.4,1,0.6c1,0.5,2,1,3,1.6c0.1,0,0.2,0.1,0.2,0.1c1.1,0.5,2.2,1.1,3.3,1.6c0.3,0.2,0.7,0.3,1,0.5
	c0.8,0.4,1.5,0.7,2.3,1c0.4,0.2,0.8,0.4,1.2,0.5c0.7,0.3,1.4,0.6,2.2,0.9c0.4,0.2,0.9,0.4,1.3,0.5c0.3,0.1,0.5,0.2,0.8,0.3
	c6,2.4,9.9,8.2,9.9,14.6v44.4c0,56.8-16.6,113-48,162.4C317.8,391,279,432.8,232.5,462.1v0.4c2.5,0,5-0.6,7.3-1.8l0.9-0.5
	c55.3-29.1,101.4-70.9,133.1-120.9c31.4-49.4,48-105.6,48-162.4v-44.4C421.8,126.1,417.9,120.3,412,117.9z"/>
<path class="st5" d="M316,325.3H149.6c-8.8,0-15.9-7.1-15.9-15.9V205c0-8.8,7.1-15.9,15.9-15.9H316c8.8,0,15.9,7.1,15.9,15.9v104.3
	C331.8,318.1,324.7,325.3,316,325.3z"/>
<path class="st6" d="M316,189.2h-28.8c8.8,0,15.9,7.1,15.9,15.9v104.3c0,8.8-7.1,15.9-15.9,15.9H316c8.8,0,15.9-7.1,15.9-15.9V205
	C331.8,196.3,324.7,189.2,316,189.2z"/>
<path d="M225.5,264.7v20.7c0,4,3.3,7.3,7.3,7.3c4,0,7.3-3.3,7.3-7.3v-20.7c5.8-2.7,9.8-8.6,9.8-15.4c0-9.4-7.6-17.1-17.1-17.1
	s-17.1,7.6-17.1,17.1C215.7,256.1,219.7,262,225.5,264.7z"/>
<path d="M220.9,466.7L220.9,466.7l0.9,0.5c3.4,1.8,7,2.6,10.7,2.6s7.4-0.9,10.7-2.6l0.9-0.5C300.6,437,347.6,394.3,380,343.2
	c32.1-50.6,49.1-108.1,49.1-166.3v-44.4c0-9.5-5.7-17.9-14.5-21.4c-31.4-12.4-56.3-35.3-70.1-64.4c-3.8-7.9-11.9-13-20.7-13H141.2
	c-8.8,0-17,5.1-20.7,13c-13.8,29.1-38.7,52-70.1,64.4c-8.8,3.5-14.5,11.9-14.5,21.4v44.4c0,58.2,17,115.7,49.1,166.3
	C117.4,394.3,164.4,437,220.9,466.7z M50.5,176.9v-44.4c0-3.5,2.1-6.6,5.3-7.8c34.8-13.8,62.5-39.2,77.9-71.7
	c1.4-2.9,4.3-4.7,7.6-4.7h182.6c3.2,0,6.2,1.8,7.6,4.7c15.4,32.4,43.1,57.9,77.9,71.7c3.2,1.3,5.3,4.3,5.3,7.8v44.4
	c0,55.4-16.2,110.3-46.8,158.5c-31.1,48.9-76.2,89.9-130.4,118.4l-0.9,0.5c-2.5,1.3-5.4,1.3-7.9,0l-0.9-0.5
	c-54.2-28.5-99.3-69.4-130.4-118.4C66.6,287.2,50.5,232.4,50.5,176.9z"/>
<path class="st7" d="M451.2,246.1c-3.9-0.9-7.8,1.6-8.7,5.5c-22.2,98.2-89.8,183.3-185.4,233.6l-22.2,11.7c-1.4,0.8-3.1,0.8-4.6,0
	l-22.2-11.7c-95.9-50.4-163.5-135.7-185.6-234c-0.9-3.9-4.8-6.4-8.7-5.5s-6.4,4.8-5.5,8.7c23,102.5,93.4,191.4,193,243.7l22.2,11.7
	c2.8,1.5,6,2.2,9.1,2.2s6.2-0.7,9.1-2.2l22.2-11.7c99.4-52.3,169.7-140.9,192.9-243.3C457.6,250.9,455.1,247,451.2,246.1z"/>
<path class="st7" d="M447.6,83.4C408.7,79.3,378.1,52,373.2,17c-1.4-9.7-9.7-17-19.3-17H111.1c-9.7,0-18,7.3-19.3,17
	c-4.9,35-35.5,62.3-74.4,66.4c-9.9,1-17.3,9.4-17.3,19.4V181c0,11.4,0.6,22.9,1.8,34.2c0.4,3.8,3.5,6.5,7.2,6.5c0.2,0,0.5,0,0.8,0
	c4-0.4,6.9-4,6.5-8c-1.1-10.8-1.7-21.8-1.7-32.7v-78.2c0-2.5,1.9-4.6,4.3-4.9c45.5-4.8,81.4-37.3,87.2-78.9c0.4-2.6,2.4-4.4,4.9-4.4
	h242.8c2.5,0,4.5,1.9,4.9,4.4c5.8,41.6,41.7,74.1,87.3,78.9c2.4,0.3,4.3,2.4,4.3,4.9V181c0,10.8-0.6,21.6-1.6,32.3
	c-0.4,4,2.5,7.6,6.5,8s7.6-2.5,8-6.5c1.1-11.2,1.7-22.6,1.7-33.8v-78.2C464.9,92.7,457.5,84.4,447.6,83.4z"/>
<path d="M316,332.5c12.8,0,23.2-10.4,23.2-23.2V205c0-12.8-10.4-23.2-23.2-23.2h-12V147c0-39.3-31.9-71.2-71.2-71.2
	s-71.2,31.9-71.2,71.2v34.8h-12c-12.8,0-23.2,10.4-23.2,23.2v104.3c0,12.8,10.4,23.2,23.2,23.2H316L316,332.5z M176.2,147.1
	c0-31.2,25.4-56.6,56.6-56.6s56.6,25.4,56.6,56.6v34.8H176.2V147.1z M141,309.4V205c0-4.7,3.9-8.6,8.6-8.6H316
	c4.7,0,8.6,3.9,8.6,8.6v104.3c0,4.7-3.9,8.6-8.6,8.6H149.6C144.9,318,141,314.1,141,309.4z"/>
</svg>
