<?xml version="1.0" encoding="utf-8"?>
<!-- Generator: Adobe Illustrator 24.2.1, SVG Export Plug-In . SVG Version: 6.00 Build 0)  -->
<svg version="1.1" id="Capa_1" xmlns="http://www.w3.org/2000/svg" xmlns:xlink="http://www.w3.org/1999/xlink" x="0px" y="0px"
	 viewBox="0 0 512 512" style="enable-background:new 0 0 512 512;" xml:space="preserve">
<style type="text/css">
	.st0{fill:#EBBA16;}
	.st1{fill:#FF8A8A;}
	.st2{fill:#D5354E;}
	.st3{fill:#ED8A19;}
	.st4{fill:#F76363;}
	.st5{fill:#FFBB00;}
</style>
<rect x="446.4" y="36.8" class="st0" width="28.8" height="28.8"/>
<path class="st1" d="M503.5,238.9c0-40.2-30.9-73.1-70.2-76.5c-7.6-34.4-38.3-60.1-74.9-60.1c-6.9,0-13.5,1-19.8,2.7
	c-13.5-22.1-37.7-36.8-65.5-36.8c-36.8,0-67.5,25.9-75,60.4c-15.5-16.2-37.3-26.3-61.5-26.3c-47,0-85.1,38-85.3,84.9
	C26,199.8,8.5,225.9,8.5,256c0,40.8,31.9,74.1,72.1,76.6c10.8,34.7,43.2,60,81.5,60c18,0,34.7-5.6,48.5-15.1
	c11.7,16.3,29.6,27.8,50.2,31.1c12,35.3,45.4,60.8,84.8,60.8c32.3,0,60.6-17.2,76.3-42.9c40.6-2,73-35.5,73-76.6
	c0-19.8-7.5-37.8-19.8-51.4C492.4,284.4,503.5,263,503.5,238.9z"/>
<g>
	<path class="st2" d="M51.3,195.8c-2.9,0-5.7-1.5-7.3-4.1c-2.4-4-1.2-9.2,2.8-11.7c0.9-0.6,22.2-13.4,48.5-9.2
		c4.7,0.7,7.8,5.1,7.1,9.8s-5.1,7.8-9.8,7.1c-19.9-3.2-36.7,6.8-36.9,6.9C54.3,195.4,52.8,195.8,51.3,195.8z"/>
	<path class="st2" d="M210.6,385.9c-2.3,0-4.6-0.9-6.2-2.7c-3.2-3.4-3-8.8,0.4-12.1c7.1-6.6,18.9-20.3,20.4-28.7
		c0.9-4.6,5.3-7.7,9.9-6.8c4.6,0.9,7.7,5.3,6.8,10c-3.1,16.7-23.3,35.9-25.6,38.1C214.8,385.2,212.7,385.9,210.6,385.9z"/>
</g>
<rect x="33.1" y="442.7" transform="matrix(0.7071 -0.7071 0.7071 0.7071 -310.8404 171.1719)" class="st3" width="36.2" height="36.2"/>
<g>
	<path class="st4" d="M307.2,358.4c-37.6,0-68.3-30.6-68.3-68.3s30.6-68.3,68.3-68.3c4.7,0,8.5,3.8,8.5,8.5s-3.8,8.5-8.5,8.5
		c-28.2,0-51.2,23-51.2,51.2s23,51.2,51.2,51.2c4.7,0,8.5,3.8,8.5,8.5C315.7,354.6,311.9,358.4,307.2,358.4z"/>
	<path class="st4" d="M205.7,272.6c-2.2,0-4.4-0.8-6-2.5c-12.9-12.9-20-30-20-48.3s7.1-35.4,20-48.3c17.5-17.6,43.3-24.2,67.1-17.3
		c4.5,1.3,7.2,6,5.8,10.6c-1.3,4.5-6,7.2-10.6,5.9c-17.9-5.2-37.2-0.2-50.4,13c-9.7,9.7-15,22.5-15,36.2s5.3,26.5,15,36.2
		c3.3,3.3,3.3,8.7,0,12.1C210,271.8,207.8,272.6,205.7,272.6z"/>
	<path class="st4" d="M409.6,384c-18.2,0-35.4-7.1-48.3-20c-12.9-12.9-20-30-20-48.3c0-18.2,7.1-35.4,20-48.3
		c3.3-3.3,8.7-3.3,12.1,0c3.3,3.3,3.3,8.7,0,12.1c-9.7,9.7-15,22.5-15,36.2s5.3,26.5,15,36.2c9.7,9.7,22.5,15,36.2,15
		s26.5-5.3,36.2-15c3.3-3.3,8.7-3.3,12.1,0s3.3,8.7,0,12.1C445,376.9,427.8,384,409.6,384z"/>
	<path class="st4" d="M441.6,280.4c-0.7,0-1.5-0.1-2.3-0.3c-4.5-1.2-7.2-5.9-6-10.5c4.9-17.7-0.2-36.8-13.2-49.8
		c-9.7-9.7-22.5-15-36.2-15s-26.5,5.3-36.2,15c-3.3,3.3-8.7,3.3-12.1,0c-3.3-3.3-3.3-8.7,0-12.1c12.9-12.9,30-20,48.3-20
		c18.2,0,35.4,7.1,48.3,20c17.3,17.3,24,42.7,17.6,66.4C448.8,277.9,445.4,280.4,441.6,280.4z"/>
	<path class="st4" d="M387.3,171c-2.2,0-4.4-0.8-6-2.5c-9.7-9.7-22.5-15-36.2-15c-13.7,0-26.5,5.3-36.2,15c-3.3,3.3-8.7,3.3-12.1,0
		c-3.3-3.3-3.3-8.7,0-12.1c12.9-12.9,30-20,48.3-20c18.2,0,35.4,7.1,48.3,20c3.3,3.3,3.3,8.7,0,12.1
		C391.7,170.2,389.5,171,387.3,171z"/>
	<path class="st4" d="M161.3,341.3c-2.2,0-4.4-0.8-6-2.5c-3.3-3.3-3.3-8.7,0-12.1c9.7-9.7,15-22.5,15-36.2c0-13.7-5.3-26.5-15-36.2
		c-9.7-9.7-22.5-15-36.2-15s-26.5,5.3-36.2,15c-3.3,3.3-8.7,3.3-12.1,0s-3.3-8.7,0-12.1c12.9-12.9,30-20,48.3-20s35.4,7.1,48.3,20
		s20,30,20,48.3s-7.1,35.4-20,48.3C165.6,340.5,163.5,341.3,161.3,341.3z"/>
	<path class="st4" d="M345.6,477.9c-40.3,0-76.3-24.7-91.1-61.9c-17.9-4-33.8-13.5-45.8-27.3c-14.2,8.1-30.1,12.4-46.5,12.4
		c-39.4,0-74-24.1-87.8-60.5C32.2,335.1,0,299,0,256c0-30.8,16.3-58.7,42.9-73.9c3-49.1,43.9-88.2,93.7-88.2
		c21.1,0,41,6.9,57.3,19.6c12.8-31.8,44.1-53.7,79.2-53.7c27.8,0,53.3,13.2,69.3,35.7c43.6-8.5,85.5,18.7,97.7,59.3
		c40.8,6.5,71.9,42.4,71.9,84.2c0,22.9-9.1,44.5-25.1,60.5c10.8,14.6,16.6,32.2,16.6,50.5c0,44-33.3,80.4-76.7,84.8
		C408.5,461.8,378.4,477.9,345.6,477.9z M210.6,368.9c2.7,0,5.3,1.2,6.9,3.6c10.7,14.9,26.5,24.8,44.6,27.7c3.1,0.5,5.7,2.7,6.7,5.7
		c11.2,32.9,42,55,76.7,55c28.3,0,54.2-14.5,69.1-38.8c1.5-2.4,4-3.9,6.9-4.1c36.4-1.8,64.9-31.7,64.9-68.1
		c0-16.8-6.3-33.1-17.6-45.7c-1.6-1.7-2.4-4-2.2-6.4c0.2-2.3,1.3-4.5,3.1-6c16-13,25.2-32.3,25.2-52.9c0-35.1-27.4-65-62.3-68
		c-3.7-0.3-6.8-3-7.6-6.6c-8.1-36.6-45.7-61.3-84.2-51c-3.6,1-7.5-0.6-9.5-3.8C318.7,89,297,76.8,273.1,76.8
		c-31.9,0-59.9,22.6-66.7,53.7c-0.7,3.1-3,5.5-6,6.4c-3,0.9-6.3,0-8.5-2.3c-14.7-15.3-34.3-23.7-55.4-23.7
		c-42.1,0-76.6,34.3-76.8,76.4c0,3.2-1.9,6.2-4.7,7.6c-23.4,11.6-38,35-38,61.1c0,36,28.2,65.9,64.1,68c3.5,0.2,6.6,2.6,7.6,6
		c10,32.3,39.5,54,73.4,54c15.6,0,30.7-4.7,43.6-13.6C207.2,369.3,208.9,368.9,210.6,368.9z"/>
	<path class="st4" d="M409.8,435.8c-50,0-74.5-36.9-75.6-38.6c-2.6-4-1.4-9.2,2.5-11.8c4-2.6,9.2-1.4,11.8,2.5
		c1,1.6,24.4,36.1,72.4,30.1c4.7-0.6,8.9,2.7,9.5,7.4c0.6,4.7-2.7,8.9-7.4,9.5C418.4,435.5,414,435.8,409.8,435.8z"/>
	<path class="st4" d="M193.6,167.5c-0.1,0-0.2,0-0.3,0c-4.7-0.2-8.4-4.1-8.2-8.9c0.6-14.5,4.5-31.2,4.7-31.9
		c1.1-4.6,5.7-7.4,10.3-6.3c4.6,1.1,7.4,5.7,6.3,10.3c0,0.2-3.7,15.7-4.2,28.6C201.9,163.9,198.2,167.5,193.6,167.5z"/>
	<path class="st4" d="M51.3,195.8c-2.9,0-5.7-1.5-7.3-4.1c-2.4-4-1.2-9.2,2.8-11.7c0.9-0.6,22.2-13.4,48.5-9.2
		c4.7,0.7,7.8,5.1,7.1,9.8s-5.1,7.8-9.8,7.1c-19.9-3.2-36.7,6.8-36.9,6.9C54.3,195.4,52.8,195.8,51.3,195.8z"/>
	<path class="st4" d="M434.4,191.4c-4.7,0-8.5-3.8-8.5-8.5c-0.1-9.2-1-19.6-1-19.7c-0.4-4.7,3-8.8,7.7-9.3c4.7-0.4,8.8,3,9.3,7.7
		c0,0.5,1,11.2,1.1,21.1C443,187.5,439.2,191.4,434.4,191.4C434.4,191.4,434.4,191.4,434.4,191.4z"/>
	<path class="st4" d="M210.6,385.9c-2.3,0-4.6-0.9-6.2-2.7c-3.2-3.4-3-8.8,0.4-12.1c7.1-6.6,18.9-20.3,20.4-28.7
		c0.9-4.6,5.3-7.7,9.9-6.8c4.6,0.9,7.7,5.3,6.8,10c-3.1,16.7-23.3,35.9-25.6,38.1C214.8,385.2,212.7,385.9,210.6,385.9z"/>
	<path class="st4" d="M290.1,418.4c-0.1,0-0.3,0-0.4,0l-29.3-1.3c-4.7-0.2-8.3-4.2-8.1-8.9c0.2-4.7,4.2-8.2,8.9-8.1l29.3,1.3
		c4.7,0.2,8.3,4.2,8.1,8.9C298.4,414.8,294.7,418.4,290.1,418.4z"/>
	<path class="st4" d="M80.6,341.1c-3.8,0-7.3-2.6-8.3-6.5c-0.2-1-2.4-10.3-0.2-25.9c0.7-4.7,5-7.9,9.6-7.3s7.9,5,7.3,9.6
		c-1.7,12.3-0.2,19.5-0.1,19.5c1,4.6-1.8,9.1-6.4,10.2C81.9,341,81.3,341.1,80.6,341.1z"/>
	<path class="st4" d="M439.2,324.5c-3.5,0-6.8-2.2-8.1-5.7c-1.6-4.4,0.8-9.3,5.2-10.9c24.4-8.6,33-15.8,33.1-15.8
		c3.5-3,8.9-2.7,12,0.8s2.8,8.8-0.6,11.9c-1,0.9-11,9.5-38.8,19.2C441.1,324.4,440.1,324.5,439.2,324.5z"/>
	<path class="st5" d="M51.2,498.5l-37.7-37.7l37.7-37.7l37.7,37.7L51.2,498.5z M37.7,460.8l13.5,13.5l13.5-13.5l-13.5-13.5
		L37.7,460.8z"/>
	<path class="st5" d="M51.2,443.7c-4.7,0-8.5-3.8-8.5-8.5v-17.1c0-4.7,3.8-8.5,8.5-8.5s8.5,3.8,8.5,8.5v17.1
		C59.7,439.9,55.9,443.7,51.2,443.7z"/>
	<path class="st5" d="M93.9,469.3H76.8c-4.7,0-8.5-3.8-8.5-8.5s3.8-8.5,8.5-8.5h17.1c4.7,0,8.5,3.8,8.5,8.5S98.6,469.3,93.9,469.3z"
		/>
	<path class="st5" d="M51.2,512c-4.7,0-8.5-3.8-8.5-8.5v-17.1c0-4.7,3.8-8.5,8.5-8.5s8.5,3.8,8.5,8.5v17.1
		C59.7,508.2,55.9,512,51.2,512z"/>
	<path class="st5" d="M25.6,469.3H8.5c-4.7,0-8.5-3.8-8.5-8.5s3.8-8.5,8.5-8.5h17.1c4.7,0,8.5,3.8,8.5,8.5S30.3,469.3,25.6,469.3z"
		/>
	<path class="st5" d="M460.8,102.4c-4.7,0-8.5-3.8-8.5-8.5c0-18.8-15.3-34.1-34.1-34.1c-4.7,0-8.5-3.8-8.5-8.5s3.8-8.5,8.5-8.5
		c18.8,0,34.1-15.3,34.1-34.1c0-4.7,3.8-8.5,8.5-8.5s8.5,3.8,8.5,8.5c0,18.8,15.3,34.1,34.1,34.1c4.7,0,8.5,3.8,8.5,8.5
		s-3.8,8.5-8.5,8.5c-18.8,0-34.1,15.3-34.1,34.1C469.3,98.6,465.5,102.4,460.8,102.4z M446.4,51.2c5.7,3.8,10.6,8.7,14.4,14.4
		c3.8-5.7,8.7-10.6,14.4-14.4c-5.7-3.8-10.6-8.7-14.4-14.4C457,42.5,452.1,47.4,446.4,51.2z"/>
</g>
</svg>
