<?xml version="1.0" encoding="utf-8"?>
<!-- Generator: Adobe Illustrator 24.2.1, SVG Export Plug-In . SVG Version: 6.00 Build 0)  -->
<svg version="1.1" id="Capa_1" xmlns="http://www.w3.org/2000/svg" xmlns:xlink="http://www.w3.org/1999/xlink" x="0px" y="0px"
	 viewBox="0 0 512 676" style="enable-background:new 0 0 512 676;" xml:space="preserve">
<style type="text/css">
	.st0{fill:#00E5FF;}
	.st1{fill:#FFBB00;}
	.st2{fill:#546E7A;}
</style>
<g>
	<g>
		<path class="st0" d="M256,536h-79.2V250.9h-39.6c-13.2,0-25.6-6.6-33-17.6L25,114.4c-12.1-18.2-7.2-42.8,11-54.9
			c18.2-12.2,42.8-7.2,54.9,11l67.5,101.2h195.3l67.5-101.2c12.1-18.2,36.7-23.2,54.9-11c18.2,12.1,23.1,36.7,11,54.9l-79.2,118.8
			c-7.3,11-19.7,17.6-33,17.6h-39.6V536H256z"/>
		<path class="st1" d="M414.4,536v126.8H97.6V536H414.4z"/>
		<circle class="st1" cx="256" cy="72.6" r="59.4"/>
	</g>
	<g>
		<path class="st2" d="M183.4,72.6c0,40,32.6,72.6,72.6,72.6s72.6-32.6,72.6-72.6S296,0,256,0S183.4,32.6,183.4,72.6z M302.2,72.6
			c0,25.5-20.7,46.2-46.2,46.2s-46.2-20.7-46.2-46.2s20.7-46.2,46.2-46.2S302.2,47.1,302.2,72.6z"/>
		<circle class="st2" cx="256" cy="662.8" r="13.2"/>
		<path class="st2" d="M13.2,676h183.4c7.3,0,13.2-5.9,13.2-13.2s-5.9-13.2-13.2-13.2h-85.8V549.3h290.5v100.3h-85.8
			c-7.3,0-13.2,5.9-13.2,13.2s5.9,13.2,13.2,13.2h183.4c7.3,0,13.2-5.9,13.2-13.2s-5.9-13.2-13.2-13.2h-71.2V536
			c0-7.3-5.9-13.2-13.2-13.2h-66V264.1h26.4c17.7,0,34.1-8.8,43.9-23.5L498,121.7c16.2-24.3,9.6-57.1-14.6-73.2
			c-24.3-16.2-57-9.7-73.2,14.6l-63.5,95.3H165.4l-63.5-95.3C85.6,38.6,52.7,32.4,28.7,48.5C4.4,64.7-2.2,97.4,14,121.7l79.2,118.8
			c9.8,14.7,26.2,23.5,43.9,23.5h26.4v258.8h-66c-7.3,0-13.2,5.9-13.2,13.2v113.5H13.2c-7.3,0-13.2,5.9-13.2,13.2S5.9,676,13.2,676
			L13.2,676z M176.8,237.7h-39.6c-8.9,0-17.1-4.4-22-11.8L36,107.1c-8.1-12.1-4.9-28.5,7.4-36.6c12.1-8.1,28.5-4.8,36.6,7.3
			L147.4,179c2.4,3.7,6.6,5.9,11,5.9h195.3c4.4,0,8.5-2.2,11-5.9l67.5-101.2c8.1-12.1,24.4-15.5,36.6-7.3
			c12.1,8.1,15.4,24.5,7.3,36.6l-79.2,118.8c-4.9,7.4-13.1,11.8-22,11.8h-39.6c-7.3,0-13.2,5.9-13.2,13.2v272h-52.8V369.7
			c0-7.3-5.9-13.2-13.2-13.2c-7.3,0-13.2,5.9-13.2,13.2v153.2H190v-272C190,243.6,184.1,237.7,176.8,237.7L176.8,237.7z"/>
	</g>
</g>
</svg>
