<?xml version="1.0" encoding="utf-8"?>
<!-- Generator: Adobe Illustrator 24.2.1, SVG Export Plug-In . SVG Version: 6.00 Build 0)  -->
<svg version="1.1" id="Layer_1" xmlns="http://www.w3.org/2000/svg" xmlns:xlink="http://www.w3.org/1999/xlink" x="0px" y="0px"
	 viewBox="0 0 512 638" style="enable-background:new 0 0 512 638;" xml:space="preserve">
<style type="text/css">
	.st0{fill:#D92B2F;}
	.st1{fill:#00E5FF;}
	.st2{fill:#FFBB00;}
	.st3{fill:#FF6D00;}
	.st4{fill:#FFFFFF;}
</style>
<path class="st0" d="M453.5,365.3H58.1C30.5,365.3,8,387.7,8,415.4V588c0,27.5,22.5,50,50.1,50h395.4c27.6,0,50.1-22.5,50.1-50.1
	V415.4C503.6,387.7,481.1,365.3,453.5,365.3z"/>
<path class="st1" d="M255.8,249.3c18.5,0,36.9-7,51-21.1c13.7-13.7,21.1-31.8,21.1-51s-7.4-37.4-21.1-51c-28.1-28.1-74-28.1-102.1,0
	c-13.7,13.7-21.1,31.8-21.1,51s7.4,37.4,21.1,51C218.9,242.3,237.4,249.3,255.8,249.3z M237.7,159.1c5-5,11.6-7.4,18.2-7.4
	c6.6,0,13.2,2.5,18.2,7.4c4.8,4.8,7.4,11.3,7.4,18.2s-2.6,13.2-7.4,18.2c-10.1,9.9-26.4,9.9-36.3,0c-4.8-4.8-7.4-11.3-7.4-18.2
	S232.9,164,237.7,159.1z"/>
<path class="st2" d="M340.8,279.1c4.5,4.5,10.5,6.8,16.4,6.8s11.9-2.3,16.4-6.8c27.3-27.1,42.2-63.3,42.2-101.8s-15-74.6-42.2-101.8
	c-9.2-9.2-23.9-9-32.9,0s-9,23.9,0,32.9c18.5,18.5,28.5,42.8,28.5,68.9s-10.1,50.4-28.5,68.9C331.8,255.2,331.8,269.9,340.8,279.1z"
	/>
<path class="st2" d="M137.8,279.1c4.5,4.5,10.5,6.8,16.4,6.8s11.9-2.3,16.4-6.8c9.2-9.2,9-23.9,0-32.9
	c-18.5-18.5-28.5-42.8-28.5-68.9s10.1-50.4,28.5-68.9c9.2-9.2,9.2-23.7,0-32.9s-23.9-9.2-32.9,0c-27.3,27.1-42.2,63.3-42.2,101.8
	C95.6,215.8,110.6,251.9,137.8,279.1z"/>
<path class="st3" d="M450.5,177.3c0,51.8-20.3,100.7-57.1,137.3c-9.2,9.2-9.2,23.9,0,32.9c4.5,4.5,10.5,6.8,16.4,6.8
	s11.9-2.3,16.4-6.8c45.6-45.5,70.7-106,70.7-170.3s-25-124.9-70.6-170.4c-9.2-9.2-23.9-9-32.9,0c-9.2,9.2-9,23.9,0,32.9
	C430.3,76.6,450.5,125.3,450.5,177.3z"/>
<path class="st3" d="M101.6,354.3c5.9,0,11.9-2.3,16.4-6.8c9.2-9.2,9-23.9,0-32.9c-36.7-36.8-57-85.5-57-137.5
	c0-51.8,20.3-100.7,57.1-137.3c9.2-9.2,9.2-23.9,0-32.9c-9.2-9.2-23.9-9.2-32.9,0c-45.6,45.5-70.7,106-70.7,170.3
	s25.1,124.9,70.7,170.3C89.7,352.1,95.7,354.3,101.6,354.3z"/>
<g>
	<path class="st4" d="M147.8,431.5c2,0,3.9,0.3,5.7,1c1.9,0.7,3.5,1.6,4.9,2.8c1.5,1.1,2.6,2.6,3.4,4.2c0.8,1.6,1.2,3.4,1.2,5.2
		c0,0.9,0,1.7-0.1,2.6c-0.1,0.8-0.2,1.5-0.3,2.1c-0.2,0.8-0.3,1.5-0.6,1.9c-4.7,18.4-9.5,37.2-14.7,56.3
		c-5.1,19.1-10,37.8-14.7,56.2c-1,2.4-2.4,4.4-4.2,6.2c-1.5,1.6-3.4,3-5.6,4.3c-2.4,1.2-5.2,1.9-8.6,1.9h-3.3
		c-3.5,0-6.3-0.7-8.6-1.9s-4.3-2.7-5.7-4.3c-1.7-1.8-3-3.8-4-6.2L63.3,451.4c-0.2-0.6-0.3-1.2-0.6-1.9c-0.3-1.3-0.6-2.9-0.6-4.6
		c0-1.9,0.4-3.6,1.2-5.2c0.8-1.6,1.9-3,3.3-4.2c1.3-1.1,3-2.1,4.8-2.8c1.9-0.7,3.8-1,6-1c3.3,0,6,0.7,8,2.1c2,1.5,3.6,3,4.8,4.8
		c1.3,2,2.2,4.4,2.9,7.1c0.8,3.3,1.7,7.1,2.7,11.2c1,4.2,1.9,8.5,2.9,12.9c1,4.5,1.9,9,2.9,13.7c1,4.6,1.9,9.1,2.8,13.5
		c2.1,10.2,4.3,20.7,6.4,31.3h3.3c2.4-10.7,4.6-21.1,6.9-31.3c0.9-4.4,1.8-8.9,2.8-13.5s2-9.2,2.9-13.7c1-4.5,1.9-8.8,2.8-12.9
		c0.9-4.2,1.7-7.9,2.4-11.2c0.7-2.6,1.7-4.9,3-7.1c1.1-1.8,2.8-3.4,4.7-4.8C141.8,432.1,144.4,431.5,147.8,431.5z"/>
	<path class="st4" d="M181.3,455.3c0-2.9,0.1-5.8,0.4-8.6c0.3-2.8,1-5.4,2.1-7.6s2.8-4,5.2-5.4c2.2-1.3,5.4-2,9.4-2s7.1,0.7,9.4,2
		c2.2,1.3,3.9,3.1,5.2,5.4c1.1,2.2,1.9,4.7,2.1,7.6c0.3,2.8,0.4,5.7,0.4,8.6v97c0,3-0.1,6-0.4,8.8c-0.2,2.8-1,5.4-2.1,7.6
		c-1.1,2.2-2.8,4-5.2,5.4c-2.4,1.3-5.5,2-9.4,2c-4,0-7.1-0.7-9.4-2c-2.4-1.3-3.9-3.1-5.2-5.4c-1.1-2.2-1.9-4.7-2.1-7.6
		c-0.3-2.8-0.4-5.7-0.4-8.8V455.3z"/>
	<path class="st4" d="M319.8,431.5c2,0,3.9,0.3,5.7,1c1.9,0.7,3.5,1.6,4.9,2.8c1.5,1.1,2.6,2.6,3.4,4.2s1.2,3.4,1.2,5.2
		c0,0.9,0,1.7-0.1,2.6c-0.1,0.8-0.2,1.5-0.3,2.1c-0.2,0.8-0.3,1.5-0.6,1.9c-4.7,18.4-9.5,37.2-14.7,56.3
		c-5.1,19.1-10,37.8-14.7,56.2c-1,2.4-2.4,4.4-4.2,6.2c-1.5,1.6-3.4,3-5.6,4.3c-2.4,1.2-5.2,1.9-8.6,1.9H283c-3.5,0-6.3-0.7-8.6-1.9
		c-2.4-1.2-4.3-2.7-5.7-4.3c-1.7-1.8-3-3.8-4-6.2l-29.3-112.3c-0.2-0.6-0.3-1.2-0.6-1.9c-0.3-1.3-0.6-2.9-0.6-4.6
		c0-1.9,0.4-3.6,1.2-5.2s1.9-3,3.3-4.2s3-2.1,4.8-2.8c1.9-0.7,3.8-1,6-1c3.3,0,6,0.7,8,2.1c2,1.5,3.6,3,4.8,4.8
		c1.3,2,2.2,4.4,2.9,7.1c0.8,3.3,1.7,7.1,2.7,11.2c1,4.2,1.9,8.5,2.9,12.9c1,4.5,1.9,9,2.9,13.7c1,4.6,1.9,9.1,2.8,13.5
		c2.1,10.2,4.3,20.7,6.4,31.3h3.3c2.4-10.7,4.6-21.1,6.9-31.3c0.9-4.4,1.8-8.9,2.8-13.5s2-9.2,2.9-13.7c1-4.5,1.9-8.8,2.8-12.9
		c0.9-4.2,1.7-7.9,2.4-11.2c0.7-2.6,1.7-4.9,3-7.1c1.1-1.8,2.8-3.4,4.7-4.8C313.9,432.1,316.5,431.5,319.8,431.5z"/>
	<path class="st4" d="M346.7,472.4c0-6.6,1-12.2,2.9-16.8c1.9-4.6,4.4-8.5,7.4-11.6s6.3-5.5,9.9-7.3s7.1-3,10.6-3.9
		c3.4-0.9,6.5-1.5,9.2-1.7c2.8-0.2,4.8-0.3,6.1-0.3h3.5c1.3,0,3.4,0.1,6.1,0.3c2.8,0.2,5.8,0.8,9.2,1.7c3.4,0.9,6.9,2.2,10.4,3.9
		c3.6,1.8,6.9,4.2,9.8,7.3c2.9,3.1,5.3,7,7.2,11.6c1.9,4.6,2.8,10.2,2.8,16.8v61.8c0,6.9-0.9,12.6-2.8,17.3s-4.3,8.8-7.2,11.9
		c-2.9,3.1-6.2,5.6-9.8,7.5c-3.6,1.8-7.1,3.1-10.4,4c-3.4,0.9-6.4,1.5-9.2,1.7c-2.8,0.2-4.8,0.3-6.1,0.3h-3.5
		c-1.3,0-3.4-0.1-6.1-0.3c-2.8-0.2-5.8-0.8-9.2-1.7c-3.4-0.9-7-2.2-10.6-4s-7-4.3-9.9-7.5c-3-3.1-5.5-7.1-7.4-11.9
		c-1.9-4.7-2.9-10.6-2.9-17.3V472.4z M380.9,538.1c0.1,2.6,0.7,4.8,1.8,6.7c0.9,1.7,2.2,3.3,4,4.6s4.4,2,7.7,2c3.3,0,5.8-0.7,7.6-2
		c1.8-1.3,3.1-2.9,4-4.6c1-1.9,1.6-4.2,1.8-6.7v-67.3c-0.2-2.5-0.8-4.7-1.8-6.7c-0.9-1.7-2.2-3.1-4-4.6s-4.4-2.1-7.6-2.1
		c-3.4,0-6,0.7-7.7,2.1c-1.8,1.5-3.1,2.9-4,4.6c-1,2-1.6,4.3-1.8,6.7V538.1z"/>
</g>
</svg>
