<svg id="Layer_1" data-name="Layer 1" xmlns="http://www.w3.org/2000/svg" viewBox="0 0 635.34 102.9"><defs><style>.cls-1{fill:#f9f9f9;}.cls-2{fill:#ff6d00;}.cls-3{fill:#fb0;}.cls-4{fill:#00e4ff;}.cls-5{fill:#80aeff;}</style></defs><title>escoolar</title><path class="cls-1" d="M213.8,51.64c0-13.86,9.87-24.21,23.35-24.21,13.19,0,21.93,9.3,21.93,23v0.76c0,2-.66,2.75-2.85,2.75h-33.7c0.66,8.45,6.93,14.14,15.57,14.14,8,0,12-3.51,14.33-7.59,0.19-.19,4.94.66,4.94,4.65s-7,10.35-19.46,10.35C223.48,75.47,213.8,65.88,213.8,51.64Zm8.83-4.08H250c-0.47-7.88-5.32-13-12.91-13S223.77,40,222.63,47.56Z"/><path class="cls-1" d="M262.12,65.69c0-2.94,3.42-4.46,3.7-4.27,3,3.89,8.16,6.83,15.38,6.83,6.46,0,10.06-2.37,10.06-6.17,0-4.65-4.27-5.51-11.77-7.12-6.74-1.42-16-3.51-16-13.2,0-8.54,7.12-14.33,18.23-14.33,11.68,0,17.56,4.94,17.56,9.21,0,2.94-3.61,4.65-3.8,4.37a16.51,16.51,0,0,0-13.38-6.46c-6.46,0-9.87,2.47-9.87,6.27,0,4.18,4,5.13,11.39,6.74,7,1.52,16.8,3.61,16.8,13.48,0,8.73-7.21,14.33-19,14.33C268.67,75.37,262.12,70.05,262.12,65.69Z"/><path class="cls-1" d="M304.36,51.35c0-13.86,10.06-23.92,23.73-23.92s19.55,8.35,19.55,12.63c0,3.89-5.32,4.65-5.6,4.18-2.09-5-6-8.92-13.76-8.92-8.54,0-15,6.74-15,16s6.36,16.23,15,16.23c7.69,0,11.68-3.89,13.76-8.92,0.28-.47,5.6.19,5.6,4.27s-6.07,12.53-19.55,12.53C314.33,75.47,304.36,65.4,304.36,51.35Z"/><path class="cls-1" d="M351,51.35c0-14,9.87-23.92,24-23.92,14,0,23.83,10.06,23.83,24.11s-9.87,23.92-23.92,23.92S351,65.5,351,51.35Zm39.11,0.19c0-9.49-6.36-16.42-15.19-16.42S359.61,42,359.61,51.35s6.55,16.42,15.28,16.42S390.08,60.85,390.08,51.54Z"/><path class="cls-1" d="M402.51,51.35c0-14,9.87-23.92,24-23.92,14,0,23.83,10.06,23.83,24.11s-9.87,23.92-23.92,23.92S402.51,65.5,402.51,51.35Zm39.11,0.19c0-9.49-6.36-16.42-15.19-16.42S411.15,42,411.15,51.35s6.55,16.42,15.28,16.42S441.62,60.85,441.62,51.54Z"/><path class="cls-1" d="M457.19,70.15V10.06c0-.28,1.61-1,3.42-1,2.94,0,6,1.52,6,8.07V70.15c0,3.42-1.71,4.46-4.18,4.46h-0.95C459,74.61,457.19,73.57,457.19,70.15Z"/><path class="cls-1" d="M473.61,62.27c0-10.54,10.06-15.09,30.66-15.47h1.23V45.85c0-6.93-4-10.73-11.3-10.73-6.93,0-11,3.61-13.1,7.78,0,0.09-5.79,0-5.79-4.56,0-4.37,6.64-10.92,19.55-10.92s19.93,6.64,19.93,18.23v28c0,0.47-1.71,1-3.42,1-3.32,0-5.7-1.8-5.79-7.31-3.51,4.94-9.49,7.88-16.42,7.88C479.4,75.28,473.61,70.05,473.61,62.27Zm31.9-6.08V52.68l-2.56.09c-13.29.47-20.12,2.94-20.12,9.11,0,4.08,3.23,6.64,8.64,6.64C499.62,68.54,505.51,63.41,505.51,56.19Z"/><path class="cls-1" d="M532.84,36.07c2-5.6,5.79-8.64,11.58-8.64,4.75,0,7.5,2.28,7.5,6.08,0,3.61-2.66,5-2.85,4.84a8.84,8.84,0,0,0-5.79-2c-7.4,0-10.35,7.21-10.35,17.75v16c0,3.42-1.8,4.46-4.18,4.46h-1c-2.47,0-4.18-1-4.18-4.46v-41c0-.28,1.52-1,3.42-1C529.71,28.1,532.75,29.62,532.84,36.07Z"/><path class="cls-2" d="M171.45,83.52a46.38,46.38,0,0,1-31.6,13.86,47.77,47.77,0,0,1-17.71-2.88,49,49,0,0,1-15.64-9.43,46.29,46.29,0,0,0,14.95,11.09,47.58,47.58,0,0,0,18.39,4.46,49.1,49.1,0,0,0,35.42-13.22h0l0.08-.08A2.72,2.72,0,1,0,171.45,83.52Z"/><path class="cls-2" d="M189.5,38.09A51.21,51.21,0,0,0,180.66,20,51,51,0,0,0,126.05,2a50.65,50.65,0,0,0-17.93,9.34c-1.31,1.07-2.58,2.19-3.78,3.38-0.63.6-1.13,1.14-1.69,1.7L101,18.09l-6.59,6.73L81.28,38.31A3.35,3.35,0,0,0,86,43L99.51,29.91l6.72-6.59,1.68-1.65c0.55-.53,1.14-1.14,1.66-1.6,1-1,2.14-2,3.27-2.85A44,44,0,0,1,145.3,8.14a43.51,43.51,0,0,1,16.32,5.3A44.29,44.29,0,0,1,182.56,40,45.68,45.68,0,0,1,184,57.26v0a3.34,3.34,0,0,0,6.63.84A51.74,51.74,0,0,0,189.5,38.09Z"/><path class="cls-2" d="M59.49,61L59.42,61a16,16,0,0,1-3.09,2.28,14.81,14.81,0,0,1-3.65,1.31,14.4,14.4,0,0,1-3.91.2,13.58,13.58,0,0,1-3.84-.94,13.9,13.9,0,0,1-6.17-5,14.52,14.52,0,0,1-1.81-3.64,14.69,14.69,0,0,1-.69-4.06,14.41,14.41,0,0,1,2.22-8,14.87,14.87,0,0,1,6.39-5.62,16.69,16.69,0,0,1,4.21-1.22,17.42,17.42,0,0,1,4.45,0,16.42,16.42,0,0,1,4.32,1.31,17.84,17.84,0,0,1,3.83,2.53,16.93,16.93,0,0,0-3.59-3A16.17,16.17,0,0,0,48.95,35a16.61,16.61,0,0,0-9.1,3.27A17.06,17.06,0,0,0,33,51.15,17.82,17.82,0,0,0,48.19,69.5a19.23,19.23,0,0,0,5.32,0A19.87,19.87,0,0,0,58.65,68a19.51,19.51,0,0,0,4.5-3L63.21,65A2.73,2.73,0,0,0,59.49,61Z"/><circle class="cls-2" cx="72.36" cy="51.99" r="4.61"/><circle class="cls-2" cx="182.6" cy="72.67" r="4.61"/><path class="cls-3" d="M171.8,49.2a2.72,2.72,0,0,0-2.69,2.74,29.4,29.4,0,0,1-4.67,16.19,28.9,28.9,0,0,1-2.6,3.45l-0.72.81-0.78.75c-0.53.49-1,1-1.58,1.49a32.91,32.91,0,0,1-7.34,4.7,33.56,33.56,0,0,1-8.49,2.39,31.18,31.18,0,0,1-17.56-2.78,35.61,35.61,0,0,1-7.65-5.08,33.92,33.92,0,0,0,7.19,5.93,33.28,33.28,0,0,0,8.74,3.59,34.88,34.88,0,0,0,9.52.91,33,33,0,0,0,18-6.62c0.65-.5,1.25-1.05,1.88-1.58l0.93-.81,0.87-.87a33.2,33.2,0,0,0,3.19-3.78A34,34,0,0,0,174.54,52v0s0-.08,0-0.12A2.72,2.72,0,0,0,171.8,49.2Z"/><path class="cls-3" d="M119.62,32.52l0.82-.83,0.76-.7a28.29,28.29,0,0,1,34.7-3.11l0,0a3.34,3.34,0,0,0,3.67-5.58,35.1,35.1,0,0,0-39.47-.2A36.27,36.27,0,0,0,116,25.4l-1,.89-0.84.83-1.67,1.65-6.69,6.62L92.52,48.68,79.24,62,72.62,68.7,71,70.38l-0.82.83-0.76.7a27.77,27.77,0,0,1-18.8,7.63A29,29,0,0,1,34.69,75l0,0A3.35,3.35,0,0,0,31,80.58a35.11,35.11,0,0,0,39.47.19,36.31,36.31,0,0,0,4.12-3.27l1-.89,0.84-.83L78,74.13l6.69-6.62L98.07,54.22l13.28-13.34L118,34.19Z"/><path class="cls-3" d="M31.85,28.27a32.94,32.94,0,0,1,7.34-4.7,33.55,33.55,0,0,1,8.49-2.39,34.17,34.17,0,0,1,8.92.1A34,34,0,0,1,65.23,24,35.61,35.61,0,0,1,72.88,29,33.91,33.91,0,0,0,65.7,23.1,33.29,33.29,0,0,0,57,19.5a34.8,34.8,0,0,0-9.52-.91A36.46,36.46,0,0,0,38,20.54a36.42,36.42,0,0,0-8.58,4.67c-0.65.5-1.25,1.06-1.88,1.58l-0.93.81-0.87.87a33.2,33.2,0,0,0-3.19,3.78A33.92,33.92,0,0,0,16,50.87v0S16,51,16,51a2.73,2.73,0,1,0,5.46,0,29.44,29.44,0,0,1,4.67-16.19,28.9,28.9,0,0,1,2.6-3.45l0.72-.81,0.78-.75C30.79,29.27,31.3,28.74,31.85,28.27Z"/><circle class="cls-3" cx="22.41" cy="66.19" r="4.61"/><circle class="cls-3" cx="168.15" cy="36.79" r="4.61"/><path class="cls-4" d="M157.09,46.65A17.89,17.89,0,0,0,142.4,33.41a19.21,19.21,0,0,0-5.32,0,19.85,19.85,0,0,0-5.14,1.52,19.6,19.6,0,0,0-4.5,3l-0.06.05a2.72,2.72,0,0,0,3.7,4l0.07-.06a15.92,15.92,0,0,1,3.09-2.28,14.82,14.82,0,0,1,3.65-1.31,14.42,14.42,0,0,1,3.92-.2,13.59,13.59,0,0,1,3.84.94,13.94,13.94,0,0,1,6.18,5,14.49,14.49,0,0,1,1.81,3.64,14.7,14.7,0,0,1,.69,4.07,14.42,14.42,0,0,1-2.22,8,14.86,14.86,0,0,1-6.39,5.63,16.69,16.69,0,0,1-4.22,1.22,17.4,17.4,0,0,1-4.45,0,16.43,16.43,0,0,1-4.32-1.31,17.83,17.83,0,0,1-3.83-2.53,16.93,16.93,0,0,0,3.59,3,16.17,16.17,0,0,0,9.14,2.3,16.6,16.6,0,0,0,9.1-3.27,17,17,0,0,0,6.85-12.92A18.1,18.1,0,0,0,157.09,46.65Z"/><path class="cls-4" d="M104.57,59.87L91.08,73l-6.72,6.59-1.68,1.65c-0.55.53-1.14,1.14-1.66,1.6q-1.57,1.5-3.27,2.85a44,44,0,0,1-32.46,9.08A43.57,43.57,0,0,1,29,89.46a44.85,44.85,0,0,1-7.08-4.94,46.18,46.18,0,0,1-6-6.23A44.78,44.78,0,0,1,8,62.93,45.77,45.77,0,0,1,6.64,45.64v0A3.35,3.35,0,0,0,0,44.76a51.65,51.65,0,0,0,1.08,20A51.11,51.11,0,0,0,9.92,82.93a51,51,0,0,0,54.61,18,50.77,50.77,0,0,0,17.93-9.34,50.15,50.15,0,0,0,3.78-3.38c0.63-.6,1.13-1.14,1.69-1.7l1.65-1.68,6.59-6.73,13.13-13.49A3.34,3.34,0,0,0,104.57,59.87Z"/><path class="cls-4" d="M19.14,19.39A46.39,46.39,0,0,1,50.73,5.53,47.76,47.76,0,0,1,68.44,8.4a49,49,0,0,1,15.65,9.42A46.27,46.27,0,0,0,69.14,6.73,47.6,47.6,0,0,0,50.75,2.27,49.1,49.1,0,0,0,15.33,15.49h0l-0.08.08A2.73,2.73,0,0,0,19.14,19.39Z"/><circle class="cls-4" cx="7.96" cy="30.31" r="4.61"/><circle class="cls-4" cx="118.2" cy="50.99" r="4.61"/><path class="cls-5" d="M545.86,72.75V72.2a2.21,2.21,0,0,1,2.45-2.49h0.59a2.23,2.23,0,0,1,2.49,2.49v0.54a2.21,2.21,0,0,1-2.49,2.45h-0.59A2.2,2.2,0,0,1,545.86,72.75Z"/><path class="cls-5" d="M553.07,64A11,11,0,0,1,564.4,52.53c6.48,0,9.34,4,9.34,6,0,1.86-2.54,2.22-2.67,2a6.47,6.47,0,0,0-6.57-4.26c-4.08,0-7.16,3.22-7.16,7.66s3,7.75,7.16,7.75a6.51,6.51,0,0,0,6.57-4.26c0.14-.23,2.67.09,2.67,2s-2.9,6-9.34,6S553.07,70.66,553.07,64Z"/><path class="cls-5" d="M575.32,64c0-6.66,4.71-11.42,11.47-11.42s11.38,4.8,11.38,11.51a11,11,0,0,1-11.42,11.42C580,75.47,575.32,70.71,575.32,64ZM594,64c0-4.53-3-7.84-7.25-7.84s-7.3,3.26-7.3,7.75,3.13,7.84,7.3,7.84S594,68.48,594,64Z"/><path class="cls-5" d="M605.69,56.2a8.1,8.1,0,0,1,6.75-3.67c3.54,0,6,1.68,7.12,4.58a8.57,8.57,0,0,1,7.57-4.58c5.53,0,8.2,3.35,8.2,9V72.93c0,1.63-.82,2.13-2,2.13h-0.45c-1.22,0-2-.5-2-2.13V62c0-3.67-1.59-5.58-4.8-5.58a6.37,6.37,0,0,0-5.53,3.63V72.93c0,1.63-.82,2.13-2,2.13h-0.45a1.83,1.83,0,0,1-2-2.13V62.23c0-3.85-1.59-5.76-4.8-5.76a6.31,6.31,0,0,0-5.48,3.63V72.93c0,1.63-.86,2.13-2,2.13h-0.5c-1.18,0-2-.5-2-2.13V53.34a2.23,2.23,0,0,1,1.63-.5C604.15,52.85,605.51,53.48,605.69,56.2Z"/></svg>