<?xml version="1.0" encoding="utf-8"?>
<!-- Generator: Adobe Illustrator 24.2.1, SVG Export Plug-In . SVG Version: 6.00 Build 0)  -->
<svg version="1.1" id="Layer_1" xmlns="http://www.w3.org/2000/svg" xmlns:xlink="http://www.w3.org/1999/xlink" x="0px" y="0px"
	 viewBox="0 0 16 16" style="enable-background:new 0 0 16 16;" xml:space="preserve">
<style type="text/css">
	.st0{fill:#2962FF;}
	.st1{fill:#FFBB00;}
	.st2{fill:#FF6D00;}
	.st3{fill:#00E4FF;}
</style>
<circle class="st0" cx="8" cy="8" r="6.6"/>
<path class="st1" d="M4.9,12.7l3.9-3.9l3.9-3.9L14.6,3c0.4-0.4,0.4-1.1,0-1.6l0,0C14.1,1,13.4,1,13,1.4l-1.9,1.9L7.2,7.2l-3.9,3.9
	L1.4,13c-0.4,0.4-0.4,1.1,0,1.6l0,0C1.9,15,2.6,15,3,14.6L4.9,12.7z"/>
<path class="st2" d="M2.8,8c0-0.8-0.6-1.3-1.3-1.3C0.7,6.7,0.1,7.3,0.1,8s0.6,1.3,1.3,1.3C2.2,9.4,2.8,8.8,2.8,8z"/>
<path class="st3" d="M14.6,6.7c-0.8,0-1.3,0.6-1.3,1.3c0,0.8,0.6,1.3,1.3,1.3s1.4-0.6,1.4-1.3C15.9,7.2,15.3,6.7,14.6,6.7z"/>
<g>
	<path class="st2" d="M4,5.4c0.4,0.4,1,0.4,1.4,0l3.9-3.8C8.9,1.5,8.5,1.4,8,1.4c-0.6,0-1.1,0.1-1.7,0.2L4,4C3.7,4.4,3.7,5,4,5.4z"
		/>
	<path class="st3" d="M12,10.6c-0.4-0.4-1-0.4-1.4,0l-3.9,3.8c0.4,0.1,0.9,0.1,1.4,0.1c0.6,0,1.1-0.1,1.6-0.2L12,12
		C12.3,11.6,12.3,11,12,10.6z"/>
</g>
</svg>
