<?xml version="1.0"?>
<svg xmlns="http://www.w3.org/2000/svg" id="Outline" viewBox="0 0 64 64" width="512" height="512"><path d="M61,54H60V20a3,3,0,0,0-3-3H49V3a1,1,0,0,0-1-1H19a4,4,0,0,0-4,4V17H7a3,3,0,0,0-3,3V54H3a1,1,0,0,0-1,1v2a5.006,5.006,0,0,0,5,5H57a5.006,5.006,0,0,0,5-5V55A1,1,0,0,0,61,54ZM15,39a4,4,0,0,0,4,4h2v4a1,1,0,0,0,1.707.707L25,45.414l2.293,2.293A1,1,0,0,0,28,48a.987.987,0,0,0,.383-.076A1,1,0,0,0,29,47V43H48a1,1,0,0,0,1-1V23h5V50H10V23h5Zm32-2v4H29V40a1,1,0,0,0-1-1H22a1,1,0,0,0-1,1v1H19a2,2,0,0,1,0-4ZM27,41v3.586l-1.293-1.293a1,1,0,0,0-1.414,0L23,44.586V41Zm20-6H21V4H47ZM19,4V35a3.959,3.959,0,0,0-2,.556V6A2,2,0,0,1,19,4ZM6,20a1,1,0,0,1,1-1h8v2H9a1,1,0,0,0-1,1V51a1,1,0,0,0,1,1H55a1,1,0,0,0,1-1V22a1,1,0,0,0-1-1H49V19h8a1,1,0,0,1,1,1V54H39a1,1,0,0,0-1,1,1,1,0,0,1-1,1H27a1,1,0,0,1-1-1,1,1,0,0,0-1-1H6ZM60,57a3,3,0,0,1-3,3H7a3,3,0,0,1-3-3V56H24.171A3.006,3.006,0,0,0,27,58H37a3.006,3.006,0,0,0,2.829-2H60Z" style="fill:rgb(0,0,0)"/><path d="M24,29a3,3,0,0,1,3,3,1,1,0,0,0,1,1H40a1,1,0,0,0,1-1,3,3,0,0,1,3-3,1,1,0,0,0,1-1V11a1,1,0,0,0-1-1,3,3,0,0,1-3-3,1,1,0,0,0-1-1H28a1,1,0,0,0-1,1,3,3,0,0,1-3,3,1,1,0,0,0-1,1V28A1,1,0,0,0,24,29Zm1-17.1A5.013,5.013,0,0,0,28.9,8H39.1A5.013,5.013,0,0,0,43,11.9V27.1A5.013,5.013,0,0,0,39.1,31H28.9A5.013,5.013,0,0,0,25,27.1Z" style="fill:rgb(0,0,0)"/></svg>