<svg id="Layer_1" data-name="Layer 1" xmlns="http://www.w3.org/2000/svg" viewBox="0 0 500 500"><defs><style>.cls-1{fill:#2962ff;}</style></defs><title>iconos</title><g id="_Group_" data-name="&lt;Group&gt;"><g id="_Group_2" data-name="&lt;Group&gt;"><path id="_Compound_Path_" data-name="&lt;Compound Path&gt;" class="cls-1" d="M490.34,165.41l-48.5-48.5V16.38a9.5,9.5,0,0,0-9.5-9.5H292.43a9.5,9.5,0,0,0,0,19H422.84v193.6L249.57,392.74,77.16,220.33V25.88H207a9.5,9.5,0,1,0,0-19H67.66a9.5,9.5,0,0,0-9.5,9.5V116.91l-48.5,48.5a9.5,9.5,0,0,0-2.78,6.72V445.63a47.54,47.54,0,0,0,47.48,47.48H445.63a47.54,47.54,0,0,0,47.48-47.48V172.13A9.5,9.5,0,0,0,490.34,165.41ZM474.12,445.63a28.32,28.32,0,0,1-2.78,12.28l-130-130L474.12,195.05V445.63ZM441.83,143.77l28.36,28.36-28.36,28.35V143.77ZM28.66,457.91a28.32,28.32,0,0,1-2.78-12.28V195.91L158.27,328.3Zm29.5-256.57L29.38,172.55l28.78-28.78v57.56Zm-3.8,272.79a28.31,28.31,0,0,1-12.27-2.78L171.7,341.73l71.16,71.16a9.5,9.5,0,0,0,13.43,0l71.59-71.58,130,130a28.32,28.32,0,0,1-12.28,2.78H54.37Z"/><path id="_Path_" data-name="&lt;Path&gt;" class="cls-1" d="M249.7,25.88A9.5,9.5,0,1,0,243,23.09,9.57,9.57,0,0,0,249.7,25.88Z"/><path id="_Compound_Path_2" data-name="&lt;Compound Path&gt;" class="cls-1" d="M160.16,122A103.16,103.16,0,0,0,187,253.27a104.24,104.24,0,0,0,60.75,21.86H248a9.5,9.5,0,0,0,.26-19A84.43,84.43,0,0,1,225,91.32a84.41,84.41,0,0,1,106.4,55.89c4.21,15.89,2.84,30.62-4.55,49.22-2.11,5.3-8.66,17.64-23.89,17.64a9.83,9.83,0,0,1-6.87-3.14,14.92,14.92,0,0,1-4.23-10.58V121.82a9.5,9.5,0,0,0-19,0v3a41.47,41.47,0,0,0-26.94-9.71c-24,0-48.79,20.79-48.79,55.59,0,15.34,4.86,29.7,13.69,40.44s21.38,17.14,34.11,17.14c11.93,0,22.68-5.27,30.86-14.05a33.31,33.31,0,0,0,6.83,10.06A28.65,28.65,0,0,0,303,233.05c21.95,0,35.85-15.3,41.54-29.61,8.93-22.45,10.54-41.35,5.22-61.29l-0.08-.3A103.27,103.27,0,0,0,160.16,122h0ZM245,209.32c-15.88,0-28.8-17.31-28.8-38.59,0-22.91,15.15-36.6,29.8-36.6,15.78,0,26.81,14.93,26.81,36.31s-12.47,38.88-27.8,38.88h0Z"/></g></g></svg>