<svg id="Layer_1" data-name="Layer 1" xmlns="http://www.w3.org/2000/svg" viewBox="0 0 500 500"><defs><style>.cls-1{fill:#2962ff;}</style></defs><title>iconos</title><path class="cls-1" d="M373.72,415a215.48,215.48,0,0,1-191.91,28.28,9.6,9.6,0,0,0-7.83.79l-55.06,31.79a5.57,5.57,0,0,1-5.79,0,5.71,5.71,0,0,1-2.9-5.06V407.19A9.58,9.58,0,0,0,107,400,215.12,215.12,0,0,1,74,115.24a9.59,9.59,0,0,0-15.67-11.06A234.3,234.3,0,0,0,91.06,411.44v59.14a24.93,24.93,0,0,0,37.45,21.9l51.38-29.66a234.68,234.68,0,0,0,204.9-32.14A9.59,9.59,0,0,0,373.72,415Z"/><path class="cls-1" d="M415.48,73.48A234.32,234.32,0,0,0,114.84,47.63,9.59,9.59,0,1,0,125.9,63.3,213.69,213.69,0,0,1,249.81,24c118.61,0,215.12,96.5,215.12,215.11a213.7,213.7,0,0,1-39.26,123.92,9.59,9.59,0,1,0,15.67,11.06A234.32,234.32,0,0,0,415.48,73.48Z"/><path class="cls-1" d="M391.88,160.87c-8.44-7.45-20.9-7.26-29.78.4l-68,51.47-0.11.09c-0.85.67-1.82,1.42-4.38-.28L236.4,173.34c-10.91-8-24.19-11.39-36.43-9.18a39.12,39.12,0,0,0-26.28,17.63l-67.92,104c-8.81,12.91-5.36,25.2,2,31.69a21.65,21.65,0,0,0,14.41,5.46A23.58,23.58,0,0,0,137.54,317l68-51.47,0.12-.09c0.85-.67,1.82-1.42,4.38.28L263.23,305c10.91,8,24.19,11.39,36.43,9.18a39.13,39.13,0,0,0,26.28-17.63l67.92-104C402.67,179.65,399.22,167.35,391.88,160.87ZM378,181.78l-0.13.19L309.88,286a20.1,20.1,0,0,1-13.63,9.25c-7,1.25-15.06-.89-21.65-5.75l-53.37-39.32L221,250c-8.89-6.06-19-5.94-27.06.31L125.69,302c-0.2.15-.4,0.31-0.59,0.48-2,1.75-3.74,1.43-4.66.62-1.51-1.33-.37-4.25,1.2-6.53l0.13-.19,68-104.05A20.11,20.11,0,0,1,203.37,183c7-1.26,15.06.89,21.65,5.75l53.37,39.32,0.28,0.2c8.88,6.06,19,5.94,27.06-.32l68.2-51.63c0.2-.15.4-0.31,0.59-0.49,2-1.75,3.74-1.43,4.66-.62C380.7,176.58,379.56,179.5,378,181.78Z"/><path class="cls-1" d="M90.92,89.85a9.59,9.59,0,1,0-6.78-16.37h0A9.59,9.59,0,0,0,90.92,89.85Z"/><path class="cls-1" d="M401.61,391.59h0a9.59,9.59,0,1,0,13.55-.65,9.58,9.58,0,0,0-13.55.65Z"/></svg>