<svg id="Capa_1" enable-background="new 0 0 512 512" height="512" viewBox="0 0 512 512" width="512" xmlns="http://www.w3.org/2000/svg"><g><path d="m337.607 262.942h-300.098c-4.143 0-7.502 3.359-7.502 7.502v180.059c0 4.086 3.419 7.502 7.502 7.502h202.616c4.143 0 7.502-3.359 7.502-7.502s-3.359-7.502-7.502-7.502h-167.234l127.177-56.474 130.036 34.267v22.207h-57.289c-4.143 0-7.502 3.359-7.502 7.502s3.359 7.502 7.502 7.502h64.791c4.143 0 7.502-3.359 7.502-7.502v-35.492-144.566c.001-4.144-3.358-7.503-7.501-7.503zm-292.593 176.02v-42.086l45.791 21.752zm156.33-67.617c-1.649-.434-3.398-.295-4.957.398l-87.503 38.861-63.872-30.342v-102.315h285.093v127.329z"/><path d="m114.106 288.102c-21.847 0-39.622 17.774-39.622 39.622 0 21.847 17.774 39.622 39.622 39.622s39.622-17.774 39.622-39.622-17.774-39.622-39.622-39.622zm0 64.238c-13.574 0-24.617-11.043-24.617-24.617s11.043-24.617 24.617-24.617 24.617 11.043 24.617 24.617-11.043 24.617-24.617 24.617z"/><path d="m304.328 295.047h-.338c-7.806 0-14.853 3.294-19.839 8.558-4.987-5.264-12.034-8.558-19.84-8.558h-.338c-4.143 0-7.502 3.359-7.502 7.502s3.359 7.502 7.502 7.502h.338c6.803 0 12.338 5.535 12.338 12.338 0 4.143 3.359 7.502 7.502 7.502s7.502-3.359 7.502-7.502c0-6.803 5.535-12.338 12.337-12.338h.338c4.143 0 7.502-3.359 7.502-7.502s-3.359-7.502-7.502-7.502z"/><path d="m227.916 322.826h-.338c-7.806 0-14.853 3.293-19.84 8.558-4.987-5.264-12.034-8.558-19.84-8.558h-.338c-4.143 0-7.502 3.359-7.502 7.502s3.359 7.502 7.502 7.502h.338c6.803 0 12.337 5.535 12.337 12.337 0 4.143 3.359 7.502 7.502 7.502s7.502-3.359 7.502-7.502c0-6.803 5.535-12.337 12.338-12.337h.338c4.143 0 7.502-3.359 7.502-7.502.001-4.143-3.358-7.502-7.501-7.502z"/><path d="m504.498 124.909h-81.233v-93.422c0-4.143-3.359-7.502-7.502-7.502h-263.667c-4.143 0-7.502 3.359-7.502 7.502s3.359 7.502 7.502 7.502h256.164v85.919h-15.008v-63.41c0-4.143-3.359-7.502-7.502-7.502h-300.099c-4.143 0-7.502 3.359-7.502 7.502v171.434h-15.002v-193.942h56.259c4.143 0 7.502-3.359 7.502-7.502s-3.359-7.502-7.502-7.502h-63.761c-4.143 0-7.502 3.359-7.502 7.502v201.445h-40.641c-4.143 0-7.502 3.359-7.502 7.502v240.078c0 4.143 3.359 7.502 7.502 7.502h360.118c4.143 0 7.502-3.359 7.502-7.502v-100.521h129.375c4.143 0 7.502-3.359 7.502-7.502v-240.079c.001-4.143-3.358-7.502-7.501-7.502zm-411.345-55.909h285.093v55.908l-233.865-.001c-4.069 0-7.503 3.381-7.503 7.504v100.521h-43.725zm-78.148 404.01v-225.073h345.11l.003 29.855v195.218zm399.156-223.659c1.479 1.858 3.751 2.904 6.125 2.825.188-.006.372-.017.556-.028l.079-.008c6.773 0 12.284 5.506 12.284 12.274 0 6.773-5.511 12.284-12.284 12.284h-45.796l-.002-36.263c0-.219.221-21.656 19.229-21.656 10.513 0 19.066 8.553 19.066 19.066 0 1.662-.215 3.312-.638 4.903-.611 2.296-.099 4.745 1.381 6.603zm82.834 115.636h-121.873v-15.006h99.369c4.143 0 7.502-3.359 7.502-7.502v-114.858c0-4.143-3.359-7.502-7.502-7.502s-7.502 3.359-7.502 7.502v107.355h-91.861l-.004-43.273h45.797c15.047 0 27.289-12.242 27.289-27.289 0-12.443-8.376-22.966-19.788-26.231.001-.112.001-.225.001-.338 0-18.787-15.284-34.071-34.071-34.071-21.101 0-30.906 15.472-33.504 29.158h-178.952v-63.01h285.093v25.008c0 4.143 3.359 7.502 7.502 7.502s7.502-3.359 7.502-7.502v-32.511c0-4.143-3.359-7.502-7.502-7.502h-300.098c-4.143 0-7.502 3.359-7.502 7.502v70.513h-15.007v-93.019h345.112v225.074z"/></g></svg>