<?xml version="1.0" encoding="iso-8859-1"?>
<!-- Generator: Adobe Illustrator 19.0.0, SVG Export Plug-In . SVG Version: 6.00 Build 0)  -->
<svg version="1.1" id="Capa_1" xmlns="http://www.w3.org/2000/svg" xmlns:xlink="http://www.w3.org/1999/xlink" x="0px" y="0px"
	 viewBox="0 0 512 512" style="enable-background:new 0 0 512 512;" xml:space="preserve">
<g>
	<g>
		<path d="M511.969,439.878c-0.299-27.187-20.061-49.772-45.984-54.466c0,0,0-91.818,0-92.443c0-30.961-22.049-57.769-52.427-63.742
			l-30.578-6.014c9.25-9.644,14.952-22.715,14.952-37.1v-48.698c11.52-8.602,18.992-22.338,18.992-37.788V50.5
			c0-3.901-2.27-7.447-5.812-9.081c-3.545-1.633-7.713-1.058-10.681,1.475l-8.928,7.62c-7.453,6.362-16.953,9.865-26.752,9.865
			h-75.477c-16.042,0-29.093,13.051-29.093,29.092v25.467c0,7.993,2.969,15.302,7.854,20.898v50.277
			c0,14.482,5.778,27.634,15.138,37.296l-30.532,5.89c-30.512,5.887-52.658,32.713-52.658,63.788c0,0.605,0.063,1.195,0.166,1.771
			c-0.103,0.576-0.166,1.165-0.166,1.771v88.785c-9.782,1.771-18.686,6.083-26,12.237V360.5c0-5.522-4.478-10-10-10H30
			c-16.542,0-30,13.458-30,30c0,7.678,2.902,14.688,7.664,20C2.902,405.812,0,412.822,0,420.5c0,4.626,1.054,9.01,2.932,12.927
			C1.121,435.236,0,437.737,0,440.5v48c0,5.522,4.478,10,10,10h492c5.522,0,10-4.478,10-10v-48
			C512,440.29,511.981,440.085,511.969,439.878z M465.984,405.913c11.825,3.424,21.163,12.763,24.587,24.587h-24.587V405.913z
			 M280.184,114.938V89.471h-0.001c0-5.014,4.079-9.092,9.093-9.092h75.477c11.414,0,22.556-3.2,32.172-9.139v28.386
			c0,14.963-12.174,27.136-27.137,27.136h-77.78C285.488,126.762,280.184,121.457,280.184,114.938z M377.933,146.043v40.069h-0.001
			c0,18.555-15.095,33.649-33.649,33.649h-22.597c-18.555,0-33.649-15.095-33.649-33.649v-39.607
			c1.302,0.163,2.625,0.257,3.971,0.257h77.78C372.566,146.762,375.285,146.507,377.933,146.043z M219.984,394.5v-87.873H295
			c5.522,0,10-4.478,10-10c0-5.522-4.478-10-10-10h-74.542c2.713-18.675,17.003-34.032,35.974-37.69l53.894-10.397
			c3.664,0.793,7.462,1.222,11.36,1.222h22.597c4.199,0,8.28-0.5,12.204-1.417c0.245,0.068,0.489,0.136,0.743,0.186l52.47,10.32
			c18.918,3.72,33.163,19.118,35.829,37.776H371c-5.522,0-10,4.478-10,10c0,5.522,4.478,10,10,10h74.984V430.5h-226V394.5z
			 M199.984,405.913V430.5h-24.587C178.821,418.676,188.16,409.337,199.984,405.913z M30,370.5h123.984v20H30
			c-5.514,0-10-4.486-10-10C20,374.986,24.486,370.5,30,370.5z M30,410.5h123.984v20H30c-5.514,0-10-4.486-10-10
			C20,414.986,24.486,410.5,30,410.5z M492,478.5H20v-28h472V478.5z"/>
	</g>
</g>
<g>
	<g>
		<path d="M334.719,286.627h-0.594c-5.522,0-10,4.478-10,10c0,5.522,4.478,10,10,10h0.594c5.522,0,10-4.478,10-10
			C344.719,291.105,340.241,286.627,334.719,286.627z"/>
	</g>
</g>
<g>
	<g>
		<path d="M332.984,339.023c-16.542,0-30,13.458-30,30s13.458,30,30,30s30-13.458,30-30S349.526,339.023,332.984,339.023z
			 M332.984,379.023c-5.514,0-10-4.486-10-10c0-5.514,4.487-10,10-10c5.514,0,10,4.486,10,10
			C342.984,374.537,338.498,379.023,332.984,379.023z"/>
	</g>
</g>
<g>
	<g>
		<path d="M193.875,219.179l-72.469-115.34V23.5c0-5.522-4.478-10-10-10c-5.522,0-10,4.478-10,10v80.339L28.939,219.181
			c-1.936,3.082-2.045,6.973-0.284,10.158c1.761,3.184,5.113,5.162,8.752,5.162l41.26-0.001c5.523,0,10-4.478,10-10
			c0-5.523-4.478-10-10-10L55.5,214.501l55.906-88.983l55.908,88.981l-21.647,0.001c-5.523,0-10,4.478-10,10c0,5.523,4.478,10,10,10
			l39.74-0.001c3.64,0,6.992-1.978,8.752-5.163C195.92,226.15,195.81,222.261,193.875,219.179z"/>
	</g>
</g>
<g>
	<g>
		<path d="M113.083,214.5h-0.417c-5.522,0-10,4.478-10,10c0,5.522,4.478,10,10,10h0.417c5.522,0,10-4.478,10-10
			C123.083,218.978,118.605,214.5,113.083,214.5z"/>
	</g>
</g>
<g>
</g>
<g>
</g>
<g>
</g>
<g>
</g>
<g>
</g>
<g>
</g>
<g>
</g>
<g>
</g>
<g>
</g>
<g>
</g>
<g>
</g>
<g>
</g>
<g>
</g>
<g>
</g>
<g>
</g>
</svg>
