<?xml version="1.0" encoding="utf-8"?>
<!-- Generator: Adobe Illustrator 25.1.0, SVG Export Plug-In . SVG Version: 6.00 Build 0)  -->
<svg version="1.1" id="Capa_1" xmlns="http://www.w3.org/2000/svg" xmlns:xlink="http://www.w3.org/1999/xlink" x="0px" y="0px"
	 viewBox="0 0 512 512" style="enable-background:new 0 0 512 512;" xml:space="preserve">
<style type="text/css">
	.st0{fill:#FF6D00;}
</style>
<g>
	<path class="st0" d="M346,290h-40v-12.7c5.7-3.1,11.2-6.7,16.3-10.9c16-13.1,27.9-30.7,33.9-50.3C376.6,208,391,188.2,391,165v-30
		C391,60.6,330.4,0,256,0S121,60.6,121,135v30c0,23.2,14.4,43,34.8,51.1c6.1,19.6,17.9,37.2,33.9,50.3c5.1,4.2,10.6,7.8,16.3,10.9
		V290h-40c-52.4,0-95,42.6-95,95v112c0,8.3,6.7,15,15,15h340c8.3,0,15-6.7,15-15V385C441,332.6,398.4,290,346,290L346,290z
		 M329.4,60H182.6c18.9-18.5,44.9-30,73.4-30S310.5,41.5,329.4,60z M151,135c0-16.1,3.6-31.4,10.1-45h189.7
		c6.5,13.6,10.1,28.9,10.1,45v30c0,12.1-8.6,22.2-20,24.5V135c0-8.3-6.7-15-15-15H186c-8.3,0-15,6.7-15,15v54.5
		c-11.4-2.3-20-12.4-20-24.5L151,135z M189.5,219.6c6.6-1.6,11.5-7.5,11.5-14.6v-55h110v55c0,7.1,4.9,13,11.5,14.6
		C309.8,243.8,284.3,260,256,260S202.2,243.8,189.5,219.6L189.5,219.6z M256,290c6.7,0,13.4-0.7,20-2v17c0,8.3,6.7,15,15,15h9.1
		L256,397l-44.1-77h9.1c8.3,0,15-6.7,15-15v-17C242.6,289.3,249.3,290,256,290L256,290z M101,385c0-35.8,29.2-65,65-65h11.3
		l61.4,107.2L207.3,482H161v-77c0-8.3-6.7-15-15-15s-15,6.7-15,15v77h-30V385z M411,482h-30v-77c0-8.3-6.7-15-15-15s-15,6.7-15,15
		v77H241.9l92.8-162H346c35.8,0,65,29.2,65,65V482z"/>
</g>
</svg>
