<?xml version="1.0" encoding="utf-8"?>
<!-- Generator: Adobe Illustrator 25.1.0, SVG Export Plug-In . SVG Version: 6.00 Build 0)  -->
<svg version="1.1" id="Layer_1" xmlns="http://www.w3.org/2000/svg" xmlns:xlink="http://www.w3.org/1999/xlink" x="0px" y="0px"
	 viewBox="0 0 511 511" style="enable-background:new 0 0 511 511;" xml:space="preserve">
<style type="text/css">
	.st0{fill:#FF6D00;}
</style>
<path class="st0" d="M504.4,65.4c-1.7-1.2-42.8-28.5-143.3-28.5c-100.6,0-141.6,27.4-143.3,28.5c-4.1,2.8-6.6,7.5-6.6,12.4v30
	c-22.9,4.5-53.6,13.6-91.5,31.5C28.7,182,3.1,224.3,2.1,226c-2.5,4.3-2.8,9.5-0.7,14.1l61.3,130.7c30.1,64.2,94.3,103.4,162.6,103.4
	c15.1,0,30.5-1.9,45.7-5.9c0,0,0.1,0,0.1,0h0c1.7-0.5,3.4-1.2,4.8-2.3c26.7-19.1,46.8-44.4,59.5-72.8c7.4,2.4,15.1,4.3,22.9,5.8
	c0.5,0.1,0.9,0.1,1.4,0.2h0c0.5,0,0.9,0.1,1.4,0.1c0.9,0,1.8-0.1,2.7-0.2C449.1,383.3,511,309,511,222.3V77.9
	C511,72.9,508.5,68.3,504.4,65.4z M90.1,358L32.6,235.5c10-11.9,38.1-39.8,99.9-68.8c61.8-29,101.3-32.8,116.8-32.9l57.5,122.5
	c30.2,64.5,10.8,141.1-46.1,183.5C191.7,456.5,120.3,422.4,90.1,358z M480.8,222.3c0,71.2-50.2,132.4-119.7,146.5
	c-5.3-1.1-10.6-2.5-15.7-4.1c7.3-28.1,7.7-57.9,0.7-86.9c18.7-5.2,39.6-0.5,54.3,14.2c2.9,2.9,6.8,4.4,10.7,4.4
	c3.9,0,7.7-1.5,10.7-4.4c5.9-5.9,5.9-15.4,0-21.3c-23-23-56-30.2-85.2-21.6c-0.8-1.9-1.6-3.7-2.5-5.6l-24.5-52.2
	c12.2-0.1,23.6-4.9,32.3-13.5c5.9-5.9,5.9-15.4,0-21.3c-5.9-5.9-15.4-5.9-21.3,0c-3,3-7,4.7-11.3,4.7c-4.3,0-8.3-1.7-11.3-4.7
	c-1.9-1.9-4.1-3.1-6.4-3.8l-18.7-39.9c-2.1-4.5-6.3-7.7-11.2-8.5c-0.7-0.1-7.5-1.1-20.2-0.4V86.9c14-6.5,51.2-19.8,119.7-19.8
	c68.3,0,105.6,13.3,119.7,19.8V222.3z"/>
<path class="st0" d="M166.8,284.8c2.8-7.8-1.2-16.5-9.1-19.3c-11.6-4.2-24.1-3.6-35.3,1.6s-19.6,14.5-23.8,26.1
	c-2.8,7.8,1.2,16.5,9.1,19.3c1.7,0.6,3.4,0.9,5.1,0.9c6.2,0,12-3.8,14.2-10c1.5-4,4.4-7.2,8.2-9c3.9-1.8,8.2-2,12.2-0.6
	C155.3,296.7,163.9,292.6,166.8,284.8z"/>
<path class="st0" d="M207.3,265.8c1.7,0.6,3.4,0.9,5.1,0.9c6.2,0,12-3.8,14.2-10c1.5-4,4.4-7.2,8.2-9c3.9-1.8,8.2-2,12.2-0.6
	c7.8,2.8,16.5-1.2,19.3-9.1c2.8-7.8-1.2-16.5-9.1-19.3c-23.9-8.7-50.5,3.8-59.1,27.7C195.4,254.3,199.5,262.9,207.3,265.8z"/>
<path class="st0" d="M273.8,324.9c2.8-7.8-1.2-16.5-9.1-19.3c-7.8-2.8-16.5,1.2-19.3,9.1c-10.4,28.9-42.4,43.8-71.2,33.4
	c-7.8-2.8-16.5,1.2-19.3,9.1c-2.8,7.8,1.2,16.5,9.1,19.3c9.6,3.5,19.4,5.1,29.1,5.1C228.2,381.6,261.2,359.8,273.8,324.9z"/>
<path class="st0" d="M419.4,191.3c12.3,0,23.9-4.8,32.7-13.5c5.9-5.9,5.9-15.4,0-21.3c-5.9-5.9-15.4-5.9-21.3,0c-3,3-7,4.7-11.3,4.7
	c-4.3,0-8.3-1.7-11.3-4.7c-5.9-5.9-15.4-5.9-21.3,0c-5.9,5.9-5.9,15.4,0,21.3C395.5,186.5,407.1,191.3,419.4,191.3z"/>
</svg>
