<?xml version="1.0" encoding="utf-8"?>
<!-- Generator: Adobe Illustrator 25.1.0, SVG Export Plug-In . SVG Version: 6.00 Build 0)  -->
<svg version="1.1" id="Capa_1" xmlns="http://www.w3.org/2000/svg" xmlns:xlink="http://www.w3.org/1999/xlink" x="0px" y="0px"
	 viewBox="0 0 512 512" style="enable-background:new 0 0 512 512;" xml:space="preserve">
<style type="text/css">
	.st0{fill:#FF6D00;}
</style>
<g>
	<path class="st0" d="M467,0H45C20.2,0,0,20.2,0,45v242c0,24.8,20.2,45,45,45h151v23.4l-68.7,17.7C76.5,386.2,41,432,41,484.5V497
		c0,8.3,6.7,15,15,15h400c8.3,0,15-6.7,15-15v-12.5c0-52.5-35.5-98.2-86.3-111.4L316,355.4V332h151c24.8,0,45-20.2,45-45V45
		C512,20.2,491.8,0,467,0z M441,482h-50v-25c0-8.3-6.7-15-15-15s-15,6.7-15,15v25H151v-25c0-8.3-6.7-15-15-15s-15,6.7-15,15v25H71
		c1.1-37.7,27-70.4,63.7-79.8l71-18.3c13.3,13.2,31.1,20.7,50.2,20.7s36.9-7.4,50.2-20.7l71,18.3C414,411.6,439.9,444.3,441,482
		L441,482z M286,361.6c-7.8,8.3-18.5,12.9-30,12.9s-22.2-4.7-30-12.9V332h60V361.6z M482,287c0,8.3-6.7,15-15,15H45
		c-8.3,0-15-6.7-15-15V45c0-8.3,6.7-15,15-15h422c8.3,0,15,6.7,15,15V287z"/>
	<path class="st0" d="M141.9,200.9C141.9,200.9,141.8,200.9,141.9,200.9c-6.9,0-14,0.1-20,0.1v-85c0-8.3-6.7-15-15-15s-15,6.7-15,15
		v99.9c0,7.3,5.3,13.6,12.5,14.8c1.1,0.2,1.8,0.3,13,0.3c5.4,0,13.2,0,24.7-0.1c8.3,0,15-6.8,14.9-15.1
		C156.8,207.6,150.1,200.9,141.9,200.9L141.9,200.9z"/>
	<path class="st0" d="M405.1,131c8.3,0,15-6.7,15-15s-6.7-15-15-15H363c-8.3,0-15,6.7-15,15v100c0,8.3,6.7,15,15,15h42.1
		c8.3,0,15-6.7,15-15s-6.7-15-15-15H378v-20h24c8.3,0,15-6.7,15-15s-6.7-15-15-15h-24v-20H405.1z"/>
	<path class="st0" d="M317.7,101.9c-7.9-2.6-16.4,1.6-19,9.5l-20.8,62.7l-21.9-63c-2.7-7.8-11.3-12-19.1-9.3
		c-7.8,2.7-12,11.3-9.3,19.1l34.2,98.5c0,0,0,0.1,0,0.1c2.4,6.9,9,11.5,16.3,11.5c0,0,0.1,0,0.1,0c7.3-0.1,13.9-4.8,16.2-11.7
		c0,0,0-0.1,0-0.1l32.7-98.3C329.8,113.1,325.6,104.6,317.7,101.9z"/>
</g>
<path class="st0" d="M191.9,101c-8.3,0-15,6.7-15,15v100c0,8.3,6.7,15,15,15s15-6.7,15-15V116C206.9,107.7,200.2,101,191.9,101z"/>
</svg>
