<?xml version="1.0" encoding="utf-8"?>
<!-- Generator: Adobe Illustrator 25.3.1, SVG Export Plug-In . SVG Version: 6.00 Build 0)  -->
<svg version="1.1" id="Layer_1" xmlns="http://www.w3.org/2000/svg" xmlns:xlink="http://www.w3.org/1999/xlink" x="0px" y="0px"
	 viewBox="0 0 500 500" style="enable-background:new 0 0 500 500;" xml:space="preserve">
<style type="text/css">
	.st0{fill:#00E5FF;}
</style>
<g>
	<path class="st0" d="M493.5,171.4c-3.3-9.1-7.8-15.6-13.7-19.8c-5.9-4.2-13.5-6.2-23.2-6.2c-3.5,0-7.1,0-10.6,0c-4,0-7.9,0-11.9,0
		c-6.9,0-12.6,0-17.8,0.1l-0.3,0c-0.8,0-1.2-0.1-1.4-0.1c-0.1-0.3-0.1-0.8-0.1-1.7c0.2-25.9,0.2-45.7,0-64.2
		c-0.2-15.5-10.4-28.7-25.5-32.8c-3.9-1-7.8-1.6-11.8-1.6c-0.6,0-1.3,0-1.9,0c-0.1,0-0.2,0-0.4,0c-0.3,0-0.5,0-0.6,0
		c0-0.2,0-0.5,0-0.9c0.5-9.2-1.4-17.2-5.7-23.5c-4.2-6.2-10.7-11-19.4-14.2c-0.7-0.3-1.5-0.4-2.3-0.4h-80.3c-1.4,0-2.8,0.5-3.9,1.3
		c-6.5,4.9-8.7,10.4-6.8,16.8c1.5,4.9,5.5,10.7,16.3,10.8c10.7,0,21.2,0,31,0l8.3,0l8.3,0c5.7,0,11.4,0,17.1,0
		c3.6,0,5.8,0.4,6.7,1.3c0.9,0.9,1.3,3,1.3,6.5c0,56.1,0,114.8,0,174.3c0,3.6-0.4,5.8-1.3,6.7c-0.9,0.9-3,1.3-6.6,1.3
		c-14.6,0-29.3,0-43.9,0c-13,0-26,0-39,0l-0.1,0c-6.3,0-15.7,0.7-24,6.6c-0.1,0-0.1,0.1-0.1,0.1c-0.1,0-0.1-0.1-0.2-0.2
		c-6.3-4.5-13.8-6.6-23.6-6.6c0,0-0.1,0-0.1,0c-13.1,0-26.2,0-39.2,0c-14.6,0-29.1,0-43.7,0c-7,0-8.3-1.3-8.4-8.3
		c0-57.4-0.1-116.3-0.1-175.2c0-4.8,1.7-6.6,6.6-6.6c6,0,12.4,0,19.8,0c4,0,8,0,12.1,0c0.7,0,1.6,0,2.4,0c0,0.8,0,1.8,0,2.6
		c0,6.1,0,12.2,0,18.3c0,20.3,0,41.2-0.1,61.8c0,3.3-0.1,12.1,8.8,15.7c1.9,0.8,3.8,1.1,5.7,1.1c4.3,0,8.3-1.9,12.2-6
		c2.4-2.5,5-5,7.4-7.5c3.2-3.2,6.6-6.5,9.7-9.9c0.2-0.2,0.4-0.4,0.5-0.5c0.1,0.1,0.3,0.3,0.6,0.6c3.5,4,7.4,8.2,11.6,11.7
		c2.7,2.2,3.6,4.6,3.6,9.2c-0.2,20.9-0.2,42.1-0.1,62.6l0,4.9c0,7.9,5.4,14.1,13.1,14.9c0.5,0.1,1,0.1,1.5,0.1
		c6.7,0,12.5-4.9,14.1-11.8c0.6-2.4,0.6-4.9,0.6-6.9c0-10.7,0-21.6,0-32.1l0-9.6l0-31.6c0-32.3,0-65.7,0-98.6c0-5.2-0.8-12.7-8.2-17
		c-1-0.6-2.1-0.9-3.3-0.9H113.6c-0.7,0-1.5,0.1-2.2,0.4c-17.9,6.3-25.9,17.6-26,36.4c0,0.7,0,1.6,0,2.3c-0.7,0-1.6,0-2.3,0.1
		c-18.4,0.3-31.6,9.5-36.2,25.3c-1.1,3.9-1.7,8.2-1.7,13.1c0,21.8,0,43.2,0,59.4c0,0.6,0,1.5,0,2.2c-0.7,0-1.7,0-2.3,0
		c-18.8,0.1-30,8.2-36.4,26c-0.3,0.7-0.4,1.5-0.4,2.2V467c0,0.7,0.1,1.4,0.3,2.1c4.1,12.1,12.3,20.3,24.5,24.5
		c0.7,0.2,1.4,0.4,2.1,0.4H467c0.7,0,1.4-0.1,2.1-0.4c12.1-4.2,20.3-12.4,24.5-24.5c0.2-0.7,0.4-1.4,0.4-2.1V173.6
		C493.9,172.8,493.8,172.1,493.5,171.4z M35,233.1c0-4.7,0-9.4,0-14.1c0-11.8,0-24,0-36c0-5.8,2.4-8.8,7.1-8.8c1,0,2,0.1,3.2,0.4
		c0,0.2,0,0.5,0,0.7c0,0.2,0,0.4,0,0.6c0,10,0,20.2,0,30.1l0,9.2c0,4.4,0,8.7,0,13.1c0,9.4,0,19.1,0,28.6
		c0.1,23.2,14.5,37.6,37.6,37.6c98.1,0,196.1,0.1,294.2,0.1c22.8,0,37.6-14.8,37.6-37.6c0-14.8,0-29.6,0-44.3c0-11.6,0-23.2,0-34.8
		c0-1.1,0-2.2,0-3.1c0.9,0,2.1-0.1,3.3-0.1c3.6,0,7.2,0,10.8,0c7.3,0,14.7,0,22,0c2.3,0,4.7,0,7,0c5.6,0,7.2,1.5,7.2,7
		c0,52.3,0,105.5,0,156.9l0,21.6c0,37.3,0,68-0.1,96.5c0,1.4,0,5.7-1.2,7c-1.2,1.2-5.5,1.2-6.9,1.2c-35.6,0-71.2,0-106.8,0l-49.9,0
		l-49.9,0c-0.3,0-0.6,0-0.9,0.1l-28.9,0h-29.8c-47.4,0-94.9,0-142.3,0l-1.4,0l-1.4,0c-1.2,0-2.6,0-4-0.1c-5-0.2-6.3-1.6-6.5-6.6
		c0-1.5,0-2.9,0-4.5c0-0.5,0-1,0-1.5L35,233.1z M255.2,254.5c16.1,0,32.2,0,48.3,0c11.8,0,23.7,0,35.5,0c10,0,19-3.5,25.4-9.9
		c6.4-6.4,9.9-15.4,9.9-25.3c0-14.2,0-28.4,0-42.5c0-31.9,0-65,0.1-97.5c0-1-0.2-2-0.3-2.9c-0.1-0.5-0.2-1.2-0.2-1.7
		c0.1,0,0.2-0.1,0.4-0.1c1-0.2,1.9-0.2,2.8-0.2c2,0,6.7,0.4,7.8,4.4c0.4,1.3,0.4,2.9,0.4,4.7l0,0.3c0,23.3,0,46.9,0,69.8l0,16.8
		l0,25.6c0,20.3,0,40.7,0,61c0,7-1.4,8.4-8.3,8.4l-11.4,0c-13.4,0-26.8,0-40.2,0c-30.6,0-54.2,0-76.3-0.1c-0.9,0-1.8,0.1-2.6,0.2
		c-0.5,0.1-1,0.2-1.4,0.2c0-0.1,0-0.1,0-0.2c-0.8-3.8-0.8-8.6,3.3-10.2C250.3,254.6,252.4,254.5,255.2,254.5L255.2,254.5z
		 M255.1,250.4L255.1,250.4L255.1,250.4L255.1,250.4z M85.4,219.1c0,17.2,10.6,30.8,27,34.5c2.7,0.6,5.5,0.7,8.3,0.7
		c15.1,0,30.3,0,45.4,0c13.3,0,26.5,0,39.8,0c7.8,0,9.7,2,9.7,10c0,0.4,0,0.7-0.1,0.9c-0.2,0-0.6,0.1-1.1,0.1l-0.1,0
		c-7.7,0-15.8-0.1-26.3-0.1c-4.8,0-9.6,0-14.4,0c-4.7,0-9.4,0-14.1,0l-23.8,0l-26.9,0c-8.3,0-16.5,0-24.8,0c-8.1,0-9.6-1.5-9.6-9.7
		c0-20.6,0-41.5,0-61.7c0-8.1,0-16.2,0-24.3c0,0,0-0.1,0-0.1c0-0.2,0-0.4,0-0.6c0-7.9,0-15.7,0-23.6c0-20.5,0-41.6,0-62.4
		c0-5.4,3-8.7,8-8.7c0.9,0,1.8,0.1,2.8,0.3c0,0.1,0,0.3,0,0.5c0,1.5,0,3.1,0,4.6c0,3.2,0.1,6.6,0.1,9.9c0,14.3,0,28.6,0,42.9
		C85.4,160.7,85.4,190.2,85.4,219.1z M184.8,36.9c0-1.1,0.1-1.6,0.2-1.9c0.2,0,0.5-0.1,1.1-0.1c0.1,0,0.3,0,0.5,0
		c3.5,0.1,7,0.2,10,0.2c1,0,2,0,3,0c1,0,2,0,3,0c1.8,0,4.2,0,6.6,0.1c6.1,0.1,6.1,3.6,6.2,4.9c0.3,12.6,0.2,25.4,0.2,37.9
		c0,1.8,0,3.5,0,5.3l-1.3,0.5c-0.9-1-1.7-1.9-2.5-2.7c-3.8-3.8-7.6-5.6-11.6-5.6c-4,0-7.8,1.9-11.6,5.7c-1.2,1.2-2.4,2.4-3.5,3.7
		c0-4.7,0-9.4,0-14.1C184.9,59.6,185,48.1,184.8,36.9z"/>
	<path class="st0" d="M63.5,454.7c27.9,0,55.9,0,83.8,0l35.7,0l35.7,0l11,0l6.7,0l10.7,0l10.7,0c6.2,0,12.5,0,18.7,0
		c11.7,0,23.3,0,35,0c16.7,0,33.4,0,50.1,0c11.1,0,22.2,0,33.4,0c14.3,0,19.4-5.1,19.5-19.4c0.1-25.5,0-51.3,0-76.4
		c0-8.3,0-16.5,0-24.8c0-1.2,0-2.3,0-3.5c0-3.5,0-7.2-0.1-10.8c-0.4-8.5-6.4-14.4-14.6-14.4c-0.5,0-1,0-1.5,0.1
		c-8,0.7-13.2,7.1-13.2,16.4c0,21.3,0,42.5,0,63.8c0,12.5,0,24.9,0,37.4c0,0.7,0,1.6,0,2.3c-0.7,0-1.5,0-2.1,0H383
		c-10.5,0-20.9,0-31.4,0c-11.6,0-23.1,0-34.7,0l-31.7,0c-22.1,0-44.2,0-66.3,0c-38.9,0-90.2,0-142.3,0.1c-1.2,0-1.8-0.1-2-0.2
		c-0.1-0.2-0.2-0.8-0.2-1.9c0.1-17.3,0.1-34.9,0.1-52c0-5.6,0-11.3,0-16.9c0-2.9,0-5.9,0-8.8c0-8.5,0-17.2-0.1-25.9
		c-0.1-8.4-6-14.3-14.3-14.3c-0.6,0-1.2,0-1.8,0.1c-8.2,0.8-13,7.4-13,17.5c0,41.6,0,78.6,0,113.4C45.3,449.1,50.9,454.7,63.5,454.7
		z"/>
	<path class="st0" d="M425.5,330.8c0.5,7,5.4,12.5,12,13.4c0.8,0.1,1.7,0.2,2.5,0.2c7,0,12.3-4,13.7-10.3c1.9-8.9,2-18.3,0.2-28
		c-1.2-6.2-7-10.7-13.8-10.7c0,0,0,0,0,0c-0.5,0-1.1,0-1.6,0.1c-7.1,0.8-12.5,6.7-12.8,13.9c-0.1,2.5-0.1,4.9,0,7.3
		c0,0.8,0,1.6,0,2.3c-0.1,0.3-0.1,0.5-0.1,0.8l0,2.1l0,7.7C425.4,329.9,425.4,330.4,425.5,330.8z"/>
</g>
</svg>
