<?xml version="1.0" encoding="utf-8"?>
<!-- Generator: Adobe Illustrator 25.3.1, SVG Export Plug-In . SVG Version: 6.00 Build 0)  -->
<svg version="1.1" id="Layer_1" xmlns="http://www.w3.org/2000/svg" xmlns:xlink="http://www.w3.org/1999/xlink" x="0px" y="0px"
	 viewBox="0 0 500 500" style="enable-background:new 0 0 500 500;" xml:space="preserve">
<style type="text/css">
	.st0{fill:#FFBB00;}
</style>
<g>
	<path class="st0" d="M106.2,188.1c0,79.3,64.5,143.8,143.8,143.8s143.8-64.5,143.8-143.8c0-79.3-64.5-143.9-143.8-143.9
		S106.2,108.7,106.2,188.1z M132.8,188.1c0-64.6,52.6-117.2,117.2-117.2s117.2,52.6,117.2,117.2c0,64.6-52.6,117.1-117.2,117.1
		S132.8,252.6,132.8,188.1z"/>
	<path class="st0" d="M187.6,256.3c-0.8,4.9,1.3,10,5.3,13c2.3,1.7,5,2.6,7.9,2.6c2.1,0,4.2-0.5,6.1-1.5l43.2-22.4l43.1,22.4
		c1.8,1,3.9,1.5,6.1,1.5c2.8,0,5.6-0.9,7.9-2.6c4.1-3,6.1-8,5.3-13l-8-48l34.6-34.1c3.6-3.6,4.9-8.8,3.3-13.6
		c-1.5-4.8-5.7-8.3-10.7-9l-48-7.3l-21.8-43.5c-2.2-4.5-6.9-7.4-11.9-7.4c-5,0-9.6,2.8-11.9,7.3l-21.8,43.5l-48.1,7.3
		c-5,0.7-9.2,4.3-10.7,9.1l0,0l0,0.1c-1.4,4.9,0,10,3.6,13.5l34.6,34.1L187.6,256.3z M277.1,205.9l4.7,28.6l-25.7-13.3l0,0l0,0
		c-2-1-4-1.5-6.1-1.5c-2,0-4.2,0.5-6.1,1.5l0,0l0,0l-25.7,13.3l4.7-28.6c0.7-4.3-0.7-8.7-3.8-11.7L198.5,174l28.6-4.3
		c4.3-0.7,8-3.3,10-7.2l0,0l0,0l12.9-25.9l12.9,25.9c1.9,3.9,5.7,6.6,10,7.2l28.6,4.3L281,194.2
		C277.8,197.2,276.4,201.5,277.1,205.9z"/>
	<path class="st0" d="M250,33.6c7.3,0,13.3-6,13.3-13.3c0-7.3-5.9-13.3-13.1-13.3L250,7c-7.3,0-13.3,6-13.3,13.3
		C236.7,27.6,242.7,33.6,250,33.6z"/>
	<path class="st0" d="M373.7,320.2c17.8-16.6,31.8-36.3,41.7-58.5c10.3-23.2,15.6-48,15.6-73.6c0-82.8-56-155-136.2-175.5
		c-1.1-0.3-2.2-0.4-3.3-0.4c-6.1,0-11.4,4.1-12.9,10c-0.9,3.4-0.3,7,1.5,10.1c1.8,3.1,4.7,5.2,8.2,6.1
		c68.4,17.5,116.1,79,116.1,149.7c0,85.2-69.3,154.5-154.5,154.5S95.4,273.2,95.4,188.1c0-70.7,47.8-132.2,116.1-149.7
		c7.1-1.8,11.4-9,9.6-16.1c-1.4-5.9-6.6-10.1-12.7-10.1c-1.1,0-2.3,0.1-3.4,0.4C124.9,33.1,68.9,105.2,68.9,188.1
		c0,25.6,5.2,50.3,15.6,73.5c9.9,22.2,23.9,41.9,41.7,58.6l-54.6,96.2c-2.6,4.4-2.2,10.1,0.8,14.4c2.5,3.5,6.5,5.5,10.7,5.5
		c0.9,0,1.9-0.1,2.8-0.3l60.3-12.5l21.3,59.9c1.8,4.9,6.3,8.4,11.4,8.8c0.4,0,0.7,0,1.1,0c4.8,0,9.2-2.6,11.6-6.7L250,382.7
		l58.3,102.7c2.3,4.2,6.7,6.7,11.5,6.7h0.9h0.2l0.2,0c5.1-0.4,9.6-3.8,11.4-8.7l0,0l0,0l21.3-59.9l60.3,12.5
		c0.9,0.2,1.8,0.3,2.7,0.3c4.3,0,8.3-2.1,10.7-5.5c3.1-4.2,3.4-9.9,0.8-14.4L373.7,320.2z M390.8,403.8l-43-8.9
		c-0.9-0.2-1.8-0.3-2.7-0.3c-5.6,0-10.6,3.6-12.5,8.9l-15.4,43.3l-45-79.2c29.1-3.6,56.8-14.1,80.7-30.7L390.8,403.8z M227.9,367.8
		l-45,79.1l-15.4-43.3c-1.8-5.3-6.9-8.9-12.5-8.9c-0.9,0-1.8,0.1-2.7,0.3l-43,8.9l37.9-66.8C171.2,353.6,198.9,364.2,227.9,367.8z"
		/>
</g>
</svg>
