<svg height="512" viewBox="0 0 64 64" width="512" xmlns="http://www.w3.org/2000/svg"><g id="book-smarphone-mobile-hand-education"><path d="m20 3h28a2 2 0 0 1 2 2v39a0 0 0 0 1 0 0h-32a0 0 0 0 1 0 0v-39a2 2 0 0 1 2-2z" fill="#acabb1"/><path d="m21 6h26v35h-26z" fill="#2488ff"/><path d="m50 44v6a2.006 2.006 0 0 1 -2 2h-28a2.006 2.006 0 0 1 -2-2v-6z" fill="#e9e9ea"/><path d="m59 38v13l-5 5v6h-23v-10h17a2.006 2.006 0 0 0 2-2v-6h-5a2.006 2.006 0 0 1 -2-2v-3a2.006 2.006 0 0 1 2-2h13a1 1 0 0 1 1 1z" fill="#f5e0cd"/><path d="m3 10h38v26h-38z" fill="#d80027"/><path d="m22 18v15h-16v-20h12a4 4 0 0 1 4 4z" fill="#fff"/><path d="m22 33v-16a4 4 0 0 1 4-4h12v20z" fill="#e9e9ea"/><rect height="2" rx="1" width="2" x="33" y="47"/><path d="m58 36h-7v-31a3.009 3.009 0 0 0 -3-3h-28a3.009 3.009 0 0 0 -3 3v4h-14a1 1 0 0 0 -1 1v26a1 1 0 0 0 1 1h14v13a3.009 3.009 0 0 0 3 3h10v9h2v-9h16a3.009 3.009 0 0 0 3-3v-6a1 1 0 0 0 -1-1h-5a1 1 0 0 1 -1-1v-3a1 1 0 0 1 1-1h13v12.59l-4.71 4.7a1.033 1.033 0 0 0 -.29.71v6h2v-5.59l4.71-4.7a1.033 1.033 0 0 0 .29-.71v-13a2.006 2.006 0 0 0 -2-2zm-54-1v-24h36v24zm17 7h21a3 3 0 0 0 .18 1h-23.18v-6h1v4a1 1 0 0 0 1 1zm28 3v5a1 1 0 0 1 -1 1h-28a1 1 0 0 1 -1-1v-5zm-3-9h-1a3.009 3.009 0 0 0 -3 3v1h-20v-3h19a1 1 0 0 0 1-1v-26a1 1 0 0 0 -1-1h-19v-2h24zm3 0h-1v-30a1 1 0 0 0 -1-1h-26a1 1 0 0 0 -1 1v3h-1v-4a1 1 0 0 1 1-1h28a1 1 0 0 1 1 1z"/><path d="m38 12h-12a4.994 4.994 0 0 0 -4 2.03 4.994 4.994 0 0 0 -4-2.03h-12a1 1 0 0 0 -1 1v20a1 1 0 0 0 1 1h32a1 1 0 0 0 1-1v-20a1 1 0 0 0 -1-1zm-17 20h-14v-18h11a3.009 3.009 0 0 1 3 3zm16 0h-14v-15a3.009 3.009 0 0 1 3-3h11z"/><path d="m25 16h10v2h-10z"/><path d="m25 20h10v2h-10z"/><path d="m25 24h10v2h-10z"/><path d="m25 28h10v2h-10z"/><path d="m9 16h10v2h-10z"/><path d="m9 20h10v2h-10z"/><path d="m9 24h10v2h-10z"/><path d="m9 28h10v2h-10z"/></g></svg>