<?xml version="1.0" encoding="utf-8"?>
<!-- Generator: Adobe Illustrator 25.3.1, SVG Export Plug-In . SVG Version: 6.00 Build 0)  -->
<svg version="1.1" id="Layer_1" xmlns="http://www.w3.org/2000/svg" xmlns:xlink="http://www.w3.org/1999/xlink" x="0px" y="0px"
	 viewBox="0 0 500 500" style="enable-background:new 0 0 500 500;" xml:space="preserve">
<style type="text/css">
	.st0{fill:#FF6D00;}
</style>
<g>
	<path class="st0" d="M250,188.8c-22.3-40.3-57.3-66.8-102.4-66.8c-67.8,0-116.9,56.4-116.9,125.7c0,83.5,83.1,146.3,156.6,207.9
		c11.5,9.7,23.4,19.7,35.8,30.2c17.3,14.7,43.2,14.6,60.2-0.2c127.7-110.5,186-160.4,186-237.9c0-69.2-49-125.7-116.9-125.7
		C307.3,122,272.3,148.5,250,188.8L250,188.8z M250,235.6c15.9,0,28.9,13,28.9,28.9s-13,28.9-28.9,28.9s-28.9-13-28.9-28.9
		S234.1,235.6,250,235.6z M264.4,463.7c-6.4,5.5-16.1,5.5-22.6,0c-12.4-10.6-48.6-40.9-54.7-46c3.5-1.9,6.7-4.3,9.6-7.2
		c8.4-8.4,13-20.1,12.6-32.1c-0.2-5.9-1.6-11.6-4-16.8c13.8-6.8,29-10.4,44.7-10.4c16.3,0,32.1,3.8,46.3,11.2
		c-7.7,16.2-5.1,36,8.3,49.4c3.2,3.2,6.7,5.7,10.5,7.7C299.8,433.1,282.9,447.7,264.4,463.7z M352.4,151c50.2,0,88,41.6,88,96.7
		c0,47.4-28.6,84.3-94.7,144.5c-1.9,0.6-11.9,8-20.7-0.8c-5.9-5.9-5.5-15.5,0.7-21.1c49-44.5,76.3-74.1,83.7-105.4
		c2.1-9.1-4.8-17.8-14.1-17.8h0c-6.7,0-12.5,4.5-14.1,11c-4.7,20.1-23.1,42.8-65.5,82c-19.9-11.7-42.4-17.9-65.8-17.9
		c-22.8,0-44.8,5.9-64.3,17c-36.5-32.4-60.8-58.4-66.8-81.4c-1.7-6.4-7.4-10.8-14-10.8h0c-9.5,0-16.4,8.9-14,18.1
		c8.3,31.8,38.2,63.2,84.5,103.6c6.4,5.5,6.8,15.4,0.9,21.3c-9,9-20.9,0.6-20.8,0.6c-59.2-51.8-95.9-92.9-95.9-142.9
		c0-55.1,37.8-96.7,88-96.7c45.5,0,70,35.9,81.3,59.7c-22.6,8.9-38.3,31.7-36.5,57.8c1.9,28.4,24.8,51.5,53.2,53.7
		c33.9,2.6,62.3-24.3,62.3-57.7c0-24.4-15.2-45.3-36.7-53.8C282.4,186.9,306.9,151,352.4,151L352.4,151z"/>
	<path class="st0" d="M119.9,3.3c-15.5,0-30.1,6.2-41.1,17.6C68,32,62,46.6,62,62.1c0,31.9,25.9,57.8,57.8,57.8s57.8-25.9,57.8-57.8
		c0-15.4-6-30.1-16.8-41.2C149.9,9.5,135.3,3.3,119.9,3.3z M119.9,91c-15.9,0-28.9-13-28.9-28.9c0-16.2,13.2-29.9,28.9-29.9
		s28.9,13.7,28.9,29.9C148.8,78,135.8,91,119.9,91z"/>
	<path class="st0" d="M438,62.1c0-15.4-6-30.1-16.8-41.2c-11-11.3-25.6-17.6-41.1-17.6s-30.1,6.2-41.1,17.6
		c-10.8,11.2-16.8,25.8-16.8,41.2c0,31.9,25.9,57.8,57.8,57.8S438,94,438,62.1z M351.2,62.1c0-16.2,13.2-29.9,28.9-29.9
		c15.7,0,28.9,13.7,28.9,29.9c0,15.9-13,28.9-28.9,28.9C364.2,91,351.2,78,351.2,62.1z"/>
</g>
</svg>
