<svg id="Layer_1" enable-background="new 0 0 52 52" height="512" viewBox="0 0 52 52" width="512" xmlns="http://www.w3.org/2000/svg"><g><g><g><path d="m31.83261 5.37078v41.26594c0 1.86025-1.51023 3.36047-3.37048 3.36047h-23.09334c-1.86025 0-3.37048-1.50021-3.37048-3.36047v-41.26594c0-1.86025 1.51023-3.37048 3.37048-3.37048h23.09335c1.86025.00001 3.37047 1.51023 3.37047 3.37048z" fill="#3f5176"/></g><g opacity=".07"><path d="m31.81988 5.36337v41.26974c0 1.85873-1.50131 3.36004-3.35998 3.36004h-23.0911c-1.49102 0-2.75746-.97023-3.1966-2.30809 7.47575-.01022 14.24682-3.05361 19.13877-7.95578 4.91234-4.9225 7.95572-11.70379 7.95572-19.19998v-18.43402c1.47064.35742 2.55319 1.68513 2.55319 3.26809z" fill="#010101"/></g><g><path d="m1.998 8.831h29.834v33.155h-29.834z" fill="#fff"/></g><g opacity=".05"><path d="m31.83474 8.82658v33.16474h-29.8343v-4.2406h11.53169c7.76106 0 14.06202-6.30089 14.06202-14.06202v-14.86212z" fill="#010101"/></g><g opacity=".07"><path d="m19.10543 45.97292c0 1.20018-.99013 2.18037-2.19032 2.18037-.7401 0-1.39021-.37011-1.78029-.93019.35009.23008.77013.37011 1.22021.37011 1.20012 0 2.18031-.98018 2.18031-2.18037 0-.45002-.14004-.87012-.37005-1.22015.5701.39008.94014 1.04013.94014 1.78023z" fill="#010101"/></g></g><g><path d="m31.06089 27.83142v7.04807l-6.5836-.00002c1.48483-2.2782-.13593-5.33894-2.89379-5.33895-2.75084-.00001-4.38192 3.05567-2.8938 5.33893l-6.58031-.00002v-7.04807c-2.20562 2.20561-5.93211.65869-5.93212-2.41792.00001-3.08268 3.72975-4.62041 5.93212-2.41783v-7.05786l6.58342.00002c-1.49694 2.2891.14408 5.34348 2.89128 5.34349 2.74618.00001 4.38889-3.05335 2.89129-5.34347l6.58551.00002v7.05786c2.20549-2.20569 5.93212-.65851 5.93212 2.41786-.00001 3.08277-3.72958 4.62043-5.93212 2.41789z" fill="#f5c560"/><g><path d="m42.95022 15.93291 7.04807.00002v6.58359c-2.2782-1.48483-5.33894.1359-5.33895 2.89377 0 2.75084 3.05568 4.38192 5.33894 2.89381v6.58031l-7.04807-.00002c2.20561 2.20562.65871 5.93211-2.41791 5.9321-3.08268-.00001-4.62043-3.72975-2.41784-5.93212l-7.05787-.00002v-6.58341c2.28898 1.49686 5.34348-.144 5.34348-2.89127 0-2.74618-3.05336-4.38889-5.34348-2.8913v-6.5855l7.05787.00002c-2.20569-2.20549-.65855-5.93211 2.41785-5.9321 3.08278.00001 4.62046 3.72957 2.41791 5.93212z" fill="#f05b76"/><g fill="#2a3d66"><path d="m16.9154 43.79641c-1.20239 0-2.18524.97235-2.18524 2.1748 0 1.20233.98285 2.18518 2.18524 2.18518 1.20245 0 2.1853-.98285 2.1853-2.18518 0-1.20245-.98285-2.1748-2.1853-2.1748z"/><path d="m20.58416 4.59572h-7.00635c-.55225 0-1 .44775-1 1s.44775 1 1 1h7.00635c.55225 0 1-.44775 1-1s-.44775-1-1-1z"/><path d="m49.45232 23.35451c.66426.43266 1.5459-.04478 1.5459-.83789v-6.5835c0-.55225-.44775-1-1-1h-5.25488c.96301-2.72349-.96866-5.93213-4.21094-5.93213-3.2335 0-5.17561 3.20154-4.21094 5.93213l-3.49213-.00031c-.00031-2.92065-.00061-6.08868-.00104-9.56512 0-2.4082-1.95947-4.36768-4.36768-4.36768h-23.09032c-2.4082 0-4.36768 1.95947-4.36768 4.36768 0 .1001-.00189 44.0459 0 41.26465 0 2.4082 1.95947 4.36768 4.36768 4.36768h23.09033c2.4082 0 4.36768-1.95947 4.36768-4.36768.00006.06061.00171-1.33832.00195-10.74805h3.49121c-.96336 2.72447.96912 5.93213 4.21094 5.93213 3.23351 0 5.17561-3.20154 4.21094-5.93213h5.25488c.55225 0 1-.44775 1-1v-6.58008c0-.79096-.8796-1.27188-1.5459-.83789-1.63387 1.06514-3.79297-.12553-3.79297-2.05615.00001-1.93101 2.15921-3.12074 3.79297-2.05566zm-27.86865 5.18603c-2.98142 0-4.90433 2.75906-4.37305 5.33887h-4.10107v-6.04785c0-.4043-.24365-.76904-.61719-.92383-.37451-.15527-.8042-.07031-1.08984.2168-1.57719 1.57594-4.2251.48113-4.2251-1.71094 0-2.19671 2.65057-3.28547 4.2251-1.71094.28564.28613.71533.37109 1.08984.2168.37354-.15479.61719-.51953.61719-.92383v-6.05811l4.10254.00049c-.53708 2.58227 1.39248 5.34326 4.37207 5.34326 2.97215 0 4.91023-2.75457 4.37207-5.34326h4.10059c.00008.11912.00407 6.31746.00391 6.05762 0 .4043.24365.76904.61719.92383.37305.1543.80273.06934 1.08984-.2168 1.61497-1.61497 3.63232-.06412 3.63232 1.70703 0 1.71973-1.99731 3.34862-3.63232 1.71484-.28711-.28711-.7168-.37207-1.08984-.2168-.37354.15479-.61719.51953-.61719.92383-.00035.54865-.00415 6.42359-.00391 6.04785h-4.10889c.53683-2.65583-1.43339-5.33886-4.36426-5.33886zm-18.58105-23.17285c0-1.30566 1.06201-2.36768 2.36768-2.36768h23.09033c1.30566 0 2.36768 1.06201 2.36768 2.36768v2.46338h-27.82569zm27.82568 41.26465c0 1.30566-1.06201 2.36768-2.36768 2.36768h-23.09033c-1.30566 0-2.36768-1.06201-2.36768-2.36768v-3.64648h27.82569zm-27.82568-5.64648v-31.15479h27.82568v5.10693h-6.35303c-.36719 0-.70508.20117-.87939.52441-.1748.32275-.15869.71533.04248 1.02295 1.06417 1.62742-.10104 3.7959-2.0542 3.7959-1.95244 0-3.11885-2.16772-2.0542-3.7959.20117-.30713.21729-.70019.04248-1.02295-.17432-.32324-.51221-.52441-.87939-.52441l-6.5835-.00049c-.26514 0-.51953.10547-.70703.29297s-.29297.44189-.29297.70703v5.26855c-2.50586-.87988-5.93213.78418-5.93213 4.20752 0 3.16232 3.13476 5.18975 5.93213 4.20752v5.2583c0 .55225.44775 1 1 1h6.58008c.36669 0 .70459-.20117.87939-.52344.1748-.32275.15869-.71533-.0415-1.02246-1.05863-1.62371.10123-3.79297 2.05615-3.79297 1.95824 0 3.11273 2.17062 2.05566 3.79297-.2002.30713-.21631.69971-.0415 1.02246.1748.32227.5127.52344.87939.52344h6.35107v5.10645h-27.82567zm45.9956-11.20655v4.10498h-6.04785c-.4043 0-.76905.24365-.92383.61719-.15479.37402-.06934.80371.2168 1.08984 1.57636 1.57636.47149 4.2251-1.71094 4.2251-2.19077 0-3.28283-2.65321-1.71094-4.2251.28613-.28613.37158-.71582.2168-1.08984-.15479-.37354-.51953-.61719-.92383-.61719h-6.05371v-.71039c-.00146-.00098-.00244-.00269-.00391-.00366v-3.39191c2.70924.56117 5.34326-1.52705 5.34326-4.36865 0-2.83968-2.63118-4.93041-5.34326-4.36865.0001-.10069.00417-4.38037.00391-4.1084l6.05371.00049c.4043 0 .76904-.24365.92383-.61719.15479-.37402.06934-.80371-.2168-1.08984-1.57636-1.57636-.47148-4.2251 1.71094-4.2251 2.19077 0 3.28275 2.65329 1.71094 4.2251-.28613.28613-.37158.71582-.2168 1.08984.15478.37354.51953.61719.92383.61719h6.04785v4.1084c-2.7364-.55569-5.33887 1.54996-5.33887 4.36865.00001 2.8191 2.60338 4.92465 5.33887 4.36914z"/></g></g></g></g></svg>