<svg id="Layer_35" enable-background="new 0 0 64 64" height="512" viewBox="0 0 64 64" width="512" xmlns="http://www.w3.org/2000/svg"><g><g><g><path d="m2 10h54v30h-54z" fill="#69d6f4"/></g><g><path d="m38 48.9v-2.9-1.58c0-.94-.22-1.85-.63-2.69l-.87-1.73h-3.5-25.99-5.01v6 4c0 1.1.9 2 2 2h34.87c-.57-.93-.87-2-.87-3.1z" fill="#ccd1d9"/></g><g><path d="m54 2h-50c-1.1 0-2 .9-2 2v6h32c0-1.1.9-2 2-2h20v-4c0-1.1-.9-2-2-2z" fill="#b4dd7f"/></g><g><path d="m56 62h-16c0-1.96.58-3.87 1.66-5.5l.34-.5h12l.34.5c1.08 1.63 1.66 3.54 1.66 5.5z" fill="#fcd770"/></g><g><circle cx="12" cy="46" fill="#ff826e" r="2"/></g><g><path d="m24.01 37 1.78-4.44v-.01c.42.08.88.18 1.34.27 3.42.68 5.88 3.69 5.87 7.17v.01h-25.99v-.02c0-3.48 2.46-6.48 5.87-7.16l1.35-.27v.01l1.78 4.44 4-2z" fill="#ff826e"/></g><g><path d="m25.79 32.56-1.78 4.44-4-2 3-3v-.01s1.21.24 2.78.56z" fill="#fc6e51"/></g><g><path d="m20.01 35-4 2-1.78-4.44v-.01l2.78-.56v.01z" fill="#fc6e51"/></g><g><path d="m13.01 22c-.63 0-1.19.29-1.56.75l-.25-1.01c-.13-.49-.19-1-.19-1.51 0-3.44 2.79-6.23 6.23-6.23h5.54c1.72 0 3.28.7 4.4 1.82 1.13 1.13 1.83 2.69 1.83 4.41 0 .51-.06 1.02-.19 1.51l-.25 1.01c-.37-.46-.93-.75-1.56-.75h-2-1.17c-1.86 0-3.7-.43-5.36-1.27l-1.13-.56c-.22-.11-.47-.17-.72-.17-.9 0-1.62.72-1.62 1.62v.38z" fill="#656d78"/></g><g><path d="m60 8h-4-20c-1.1 0-2 .9-2 2v16c0 1.1.9 2 2 2h24c1.1 0 2-.9 2-2v-16c0-1.1-.9-2-2-2z" fill="#ffeaa7"/></g><g><path d="m53.11 16.55c.54.28.89.84.89 1.45s-.35 1.17-.89 1.45l-8.77 4.38c-.22.11-.47.17-.72.17-.9 0-1.62-.72-1.62-1.62v-8.76c0-.9.72-1.62 1.62-1.62.25 0 .5.06.72.17z" fill="#ff826e"/></g><g><path d="m54 36 2 .5.49.12c.89.22 1.51 1.02 1.51 1.94v10.34c0 1.36-.46 2.68-1.31 3.74l-2.69 3.36h-12l-2.69-3.36c-.16-.2-.31-.42-.44-.64-.57-.93-.87-2-.87-3.1v-2.9-1.58c0-.94-.22-1.85-.63-2.69l-.87-1.73-.33-.66c-.11-.22-.17-.47-.17-.72 0-.9.72-1.62 1.62-1.62 1.21 0 2.3.49 3.1 1.28.79.8 1.28 1.89 1.28 3.1v-13.38-2c0-1.1.9-2 2-2 .55 0 1.05.22 1.41.59.37.36.59.86.59 1.41v2 6l4 1z" fill="#f0d0b4"/></g><g><path d="m28.42 25.41c-.36.37-.86.59-1.41.59h-2v-.01-3.99h2c.63 0 1.19.29 1.56.75.27.34.44.78.44 1.25 0 .55-.23 1.05-.59 1.41z" fill="#f0d0b4"/></g><g><path d="m23.01 31.99v.01l-3 3-3-3v-.01l.57-2.26c.44.17.92.26 1.43.26h2c.51 0 .99-.09 1.43-.26z" fill="#f0d0b4"/></g><g><path d="m25.01 22v3.99.01c0 1.7-1.07 3.15-2.57 3.73-.44.17-.92.26-1.43.26h-2c-.51 0-.99-.09-1.43-.26-1.5-.58-2.57-2.03-2.57-3.73v-.01-3.99-.38c0-.9.72-1.62 1.62-1.62.25 0 .5.06.72.17l1.13.56c1.66.84 3.5 1.27 5.36 1.27z" fill="#f0d0b4"/></g><g><path d="m15.01 25.99v.01h-2c-.55 0-1.05-.22-1.41-.59-.36-.36-.59-.86-.59-1.41 0-.47.17-.91.44-1.25.37-.46.93-.75 1.56-.75h2z" fill="#f0d0b4"/></g><g><path d="m22 6h4v4h-4z" fill="#e6e9ed"/></g><g><path d="m14 6h4v4h-4z" fill="#e6e9ed"/></g><g><path d="m6 6h4v4h-4z" fill="#e6e9ed"/></g></g><g><path d="m60 7h-3v-3c0-1.654-1.346-3-3-3h-50c-1.654 0-3 1.346-3 3v46c0 1.654 1.346 3 3 3h34.354c.063.087.112.184.18.269l2.231 2.789c-1.153 1.773-1.765 3.824-1.765 5.942v1h18v-1c0-2.118-.612-4.169-1.765-5.942l2.231-2.789c.989-1.237 1.534-2.79 1.534-4.373v-10.334c0-1.281-.812-2.397-2-2.817v-6.745h3c1.654 0 3-1.346 3-3v-16c0-1.654-1.346-3-3-3zm-56-4h50c.551 0 1 .448 1 1v3h-19c-1.302 0-2.402.839-2.816 2h-6.184v-4h-6v4h-2v-4h-6v4h-2v-4h-6v4h-2v-5c0-.552.449-1 1-1zm39 19.382v-8.764c0-.341.277-.618.618-.618.095 0 .191.022.276.065l8.763 4.382c.212.106.343.318.343.553s-.131.447-.342.553l-8.764 4.382c-.392.196-.894-.117-.894-.553zm-2 14.848c-.927-.757-2.094-1.23-3.382-1.23-1.444 0-2.618 1.175-2.618 2.618 0 .128.026.255.045.382h-1.11c-.42-3.52-3.064-6.454-6.608-7.164l-3.5-.702-.223-.89c1.161-.711 2.02-1.868 2.303-3.244h1.103c1.654 0 3-1.346 3-3 0-.512-.141-.987-.368-1.409l.151-.604c.144-.572.217-1.163.217-1.755 0-3.988-3.245-7.232-7.233-7.232h-5.535c-3.988 0-7.232 3.244-7.232 7.232 0 .591.073 1.182.216 1.754l.151.606c-.226.422-.367.897-.367 1.408 0 1.654 1.346 3 3 3h1.103c.283 1.375 1.142 2.533 2.303 3.243l-.223.89-3.508.701c-3.544.709-6.19 3.644-6.61 7.165h-3.075v-27.999h30v15c0 1.654 1.346 3 3 3h5zm-26.99-12.23h-1c-.551 0-1-.448-1-1s.449-1 1-1h1zm.082-4h-1.082c-.319 0-.62.063-.908.156-.055-.305-.092-.613-.092-.923 0-2.885 2.347-5.232 5.232-5.232h5.535c2.885 0 5.233 2.348 5.233 5.232 0 .31-.037.618-.092.923-.288-.093-.589-.156-.908-.156h-1-1-1.167c-1.699 0-3.4-.401-4.919-1.161l-1.125-.563c-.362-.18-.767-.276-1.171-.276-1.23 0-2.256.855-2.536 2zm11.918 2h1c.551 0 1 .448 1 1s-.449 1-1 1h-1zm-10-1.382c0-.341.277-.618.618-.618.095 0 .191.022.276.065l1.125.563c1.796.897 3.806 1.372 5.814 1.372h.167v2.99c0 1.654-1.346 3-3 3h-2c-1.654 0-3-1.346-3-3zm7.336 11.46 1.069.214-.931 2.327-1.787-.893zm-4.336-2.088h2c.24 0 .47-.038.701-.071l.193.772-1.894 1.894-1.894-1.894.193-.772c.231.033.461.071.701.071zm-2.337 2.087 1.649 1.649-1.787.893-.931-2.328zm-3.064.613 1.876 4.691 4.525-2.263 4.525 2.263 1.875-4.689.524.105c2.611.523 4.575 2.637 4.98 5.203h-23.817c.406-2.567 2.37-4.682 4.981-5.204zm-4.609-24.69h-2v-2h2zm8 0h-2v-2h2zm8 0h-2v-2h2zm-21 42c-.551 0-1-.448-1-1v-9h32.882l.59 1.181c.345.69.528 1.464.528 2.235v4.479c0 .718.126 1.426.341 2.104h-33.341zm37.056 10c.158-1.406.648-2.752 1.44-3.941l.039-.059h10.93l.039.059c.792 1.189 1.282 2.535 1.44 3.941zm15.944-12.104c0 1.131-.389 2.24-1.096 3.123l-2.385 2.981h-11.038l-2.385-2.981c-.707-.883-1.096-1.993-1.096-3.123v-4.479c0-1.081-.255-2.163-.739-3.13l-1.196-2.392c-.043-.085-.065-.181-.065-.277 0-.341.277-.618.618-.618 1.865 0 3.382 1.518 3.382 3.382v1.618 3h2v-3-1.618-15.382c0-.552.449-1 1-1s1 .448 1 1v6.719 13.281h2v-10.719l2 .5v10.219h2v-9.719l2 .5v9.219h2v-8.72l1.242.311c.446.112.758.511.758.971zm-2-13.677-4-1-2-.5-2-.5v-4.219h8zm6-9.219c0 .552-.449 1-1 1h-13v-1c0-.768-.299-1.463-.775-1.994l7.329-3.664c.891-.447 1.446-1.344 1.446-2.342s-.555-1.895-1.447-2.342l-8.764-4.382c-.362-.18-.767-.276-1.171-.276-1.444 0-2.618 1.175-2.618 2.618v8.764c0 .671.261 1.278.678 1.742-.417.515-.678 1.162-.678 1.876v1h-5c-.551 0-1-.448-1-1v-16c0-.552.449-1 1-1h24c.551 0 1 .448 1 1z"/><path d="m12 43c-1.302 0-2.402.839-2.816 2h-4.184v2h4.184c.414 1.161 1.514 2 2.816 2s2.402-.839 2.816-2h20.184v-2h-20.184c-.414-1.161-1.514-2-2.816-2zm0 4c-.551 0-1-.448-1-1s.449-1 1-1 1 .448 1 1-.449 1-1 1z"/></g></g></svg>