<svg id="Layer_1" data-name="Layer 1" xmlns="http://www.w3.org/2000/svg" viewBox="0 0 1920 374"><defs><style>.cls-1{fill:#ff6d00;}.cls-2{fill:#ffc400;}.cls-3{fill:#00e5ff;}.cls-4{fill:#445a65;}</style></defs><title>academy</title><path class="cls-1" d="M15.17,105.73A326.44,326.44,0,0,1,84.46,56.52a320.64,320.64,0,0,1,79-29.24,12.93,12.93,0,0,1,6.75,24.93l-.09,0A290.23,290.23,0,0,0,42.56,133.12,19.39,19.39,0,1,1,14,106.88c.34-.37.7-.73,1.07-1.07Z"/><path class="cls-1" d="M327.69,33.52a309.8,309.8,0,0,1,136.21,85.9,307.27,307.27,0,0,0-65.3-46.14A300.85,300.85,0,0,0,324.36,46a6.46,6.46,0,1,1,2.82-12.61A4.23,4.23,0,0,1,327.69,33.52Z"/><path class="cls-2" d="M101.37,191.93A207.1,207.1,0,0,1,166,143a212.55,212.55,0,0,1,80.34-20.8,217.46,217.46,0,0,1,84,11.85,222,222,0,0,1,74.67,44.2l.15.14a19.41,19.41,0,1,1-25.9,28.92,21.36,21.36,0,0,1-1.64-1.66,188,188,0,0,0-58.38-44.75,193,193,0,0,0-72.94-19.33,198,198,0,0,0-76.64,10.38A202.54,202.54,0,0,0,101.37,191.93Z"/><path class="cls-3" d="M160.18,250.74a119.17,119.17,0,0,1,41.4-22,114.16,114.16,0,0,1,44.8-4.05,109.45,109.45,0,0,1,41.1,13,104.4,104.4,0,0,1,31.41,26.72,99.46,99.46,0,0,0-35.12-17.77,94.76,94.76,0,0,0-37.39-2.58,89.7,89.7,0,0,0-33.69,11.53,85,85,0,0,0-25.12,22.51,19.57,19.57,0,1,1-31.4-23.36,20,20,0,0,1,3.25-3.42Z"/><circle class="cls-3" cx="246.36" cy="337.46" r="21.32"/><circle class="cls-1" cx="246.36" cy="29.32" r="21.32"/><path class="cls-4" d="M553.1,245.89c0-39.11,37.35-56,113.81-57.44h4.59v-3.52c0-25.72-14.8-39.82-41.94-39.82-25.72,0-40.87,13.39-48.62,28.9,0,.35-21.5,0-21.5-16.92,0-16.21,24.67-40.52,72.59-40.52s74,24.66,74,67.65v104c0,1.77-6.35,3.88-12.69,3.88-12.33,0-21.14-6.7-21.49-27.13-13,18.32-35.24,29.24-61,29.24C574.59,294.16,553.1,274.78,553.1,245.89Zm118.4-22.55v-13l-9.52.35c-49.33,1.76-74.7,10.93-74.7,33.83,0,15.15,12,24.67,32.06,24.67C649.65,269.15,671.5,250.12,671.5,223.34Z"/><path class="cls-4" d="M728.22,205.37c0-51.45,37.35-88.8,88.09-88.8,50.39,0,72.59,31,72.59,46.86,0,14.45-19.73,17.27-20.79,15.51-7.75-18.68-22.2-33.12-51.1-33.12-31.71,0-55.67,25-55.67,59.55,0,34.88,23.61,60.25,55.67,60.25,28.55,0,43.35-14.45,51.1-33.12,1.06-1.76,20.79.7,20.79,15.86,0,15.5-22.55,46.51-72.59,46.51C765.22,294.87,728.22,257.52,728.22,205.37Z"/><path class="cls-4" d="M901.57,245.89c0-39.11,37.35-56,113.82-57.44H1020v-3.52c0-25.72-14.8-39.82-41.93-39.82-25.73,0-40.88,13.39-48.63,28.9,0,.35-21.5,0-21.5-16.92,0-16.21,24.67-40.52,72.59-40.52s74,24.66,74,67.65v104c0,1.77-6.34,3.88-12.68,3.88-12.34,0-21.15-6.7-21.5-27.13-13,18.32-35.24,29.24-61,29.24C923.07,294.16,901.57,274.78,901.57,245.89ZM1020,223.34v-13l-9.52.35c-49.33,1.76-74.7,10.93-74.7,33.83,0,15.15,12,24.67,32.07,24.67C998.12,269.15,1020,250.12,1020,223.34Z"/><path class="cls-4" d="M1076.69,205.72c0-53.56,33.48-89.15,80.34-89.15,27.49,0,48.28,12.68,58.14,27.84V52.08c0-1,6-3.87,12.69-3.87,10.92,0,22.2,5.64,22.2,29.95v197c0,12.68-6.35,16.56-15.51,16.56H1231c-9.16,0-15.51-3.88-15.51-16.56v-13c-13.39,20.44-32.77,32.77-59.55,32.77C1110.52,294.87,1076.69,259.28,1076.69,205.72Zm138.83,10.57V180.35c-8.81-21.5-26.07-34.89-52.15-34.89-31.71,0-52.85,24-52.85,60.26,0,35.24,21.84,60.25,52.15,60.25C1190.86,266,1215.52,245.18,1215.52,216.29Z"/><path class="cls-4" d="M1274,206.42c0-51.44,36.65-89.85,86.69-89.85,49,0,81.39,34.53,81.39,85.27v2.82c0,7.4-2.46,10.22-10.57,10.22H1306.42c2.47,31.36,25.73,52.5,57.79,52.5,29.6,0,44.4-13,53.21-28.19.7-.7,18.32,2.47,18.32,17.27s-26.07,38.41-72.23,38.41C1310,294.87,1274,259.28,1274,206.42Zm32.77-15.15h101.49C1406.5,162,1388.53,143,1360.34,143,1332.5,143,1311,163.08,1306.77,191.27Z"/><path class="cls-4" d="M1500.22,145.11c11.63-16.56,29.24-28.54,52.5-28.54,27.49,0,46.51,13,55.32,35.59,11.63-19.73,30.66-35.59,58.85-35.59,43,0,63.78,26.07,63.78,69.77v88.8c0,12.68-6.34,16.56-15.51,16.56h-3.52c-9.51,0-15.86-3.88-15.86-16.56V190.57c0-28.54-12.33-43.34-37.35-43.34-18,0-34.18,11.27-43,28.19v99.72c0,12.68-6.34,16.56-15.5,16.56h-3.53c-9.16,0-15.85-3.88-15.85-16.56V192c0-29.95-12.33-44.75-37.35-44.75-17.62,0-34.18,11.27-42.64,28.19v99.72c0,12.68-6.69,16.56-15.5,16.56h-3.88c-9.16,0-15.51-3.88-15.51-16.56V122.91c0-1.06,5.64-3.87,12.69-3.87C1488.24,119,1498.81,124,1500.22,145.11Z"/><path class="cls-4" d="M1791.26,349.49l28.19-68.72c-7.75-.7-12-2.82-14.8-9.86L1744,129.25c-.7-2.11,7-10.21,18.33-10.21,9.86,0,16.56,4.58,22.19,19.73l45.81,117,40.53-116.29c4.93-15.5,12.68-20.43,21.84-20.43,9.52,0,19,7.75,18.33,9.51l-80,211.07c-5.64,15.15-13.39,19.38-21.5,19.38C1799.72,359,1790.55,351.25,1791.26,349.49Z"/></svg>