<svg id="Layer_1" data-name="Layer 1" xmlns="http://www.w3.org/2000/svg" xmlns:xlink="http://www.w3.org/1999/xlink" viewBox="0 0 500 500"><defs><style>.cls-1{fill:none;}.cls-2{fill:#ff6d00;}.cls-3{fill:#fb0;}.cls-4{fill:#2962ff;}.cls-5{fill:#00e5ff;}.cls-6{fill:#eceff1;}.cls-7{clip-path:url(#clip-path);}</style><clipPath id="clip-path"><rect class="cls-1" x="191.8" y="279.1" width="116.4" height="116.4" rx="40"/></clipPath></defs><path class="cls-2" d="M191.8,104.5h0a0,0,0,0,1,0,0V220.9a0,0,0,0,1,0,0H75.4a0,0,0,0,1,0,0v0A116.4,116.4,0,0,1,191.8,104.5Z"/><path class="cls-3" d="M191.8,104.5H308.2a0,0,0,0,1,0,0V220.9a0,0,0,0,1,0,0h0A116.4,116.4,0,0,1,191.8,104.5v0a0,0,0,0,1,0,0Z"/><path class="cls-4" d="M75.4,220.9H191.8a0,0,0,0,1,0,0V337.3a0,0,0,0,1,0,0h0A116.4,116.4,0,0,1,75.4,220.9v0A0,0,0,0,1,75.4,220.9Z"/><path class="cls-5" d="M308.2,220.9h0a0,0,0,0,1,0,0V337.3a0,0,0,0,1,0,0H191.8a0,0,0,0,1,0,0v0A116.4,116.4,0,0,1,308.2,220.9Z" transform="translate(500 558.2) rotate(180)"/><rect class="cls-2" x="75.4" y="337.3" width="116.4" height="116.4" rx="58.2"/><path class="cls-4" d="M308.2,337.3h0a0,0,0,0,1,0,0V453.7a0,0,0,0,1,0,0H191.8a0,0,0,0,1,0,0v0A116.4,116.4,0,0,1,308.2,337.3Z"/><path class="cls-3" d="M308.2,337.3H424.6a0,0,0,0,1,0,0V453.7a0,0,0,0,1,0,0h0A116.4,116.4,0,0,1,308.2,337.3v0A0,0,0,0,1,308.2,337.3Z" transform="translate(-29.1 761.9) rotate(-90)"/><path class="cls-6" d="M198.35,160.46a2.13,2.13,0,1,0,2.13-2.25,2.18,2.18,0,0,0-2.13,2.25"/><path class="cls-6" d="M198.35,144.47a2.13,2.13,0,1,0,2.13-2.25,2.18,2.18,0,0,0-2.13,2.25"/><path class="cls-6" d="M198.35,128.48a2.13,2.13,0,1,0,2.13-2.25,2.19,2.19,0,0,0-2.13,2.25"/><path class="cls-6" d="M198.35,112.49a2.13,2.13,0,1,0,2.13-2.24,2.19,2.19,0,0,0-2.13,2.24"/><path class="cls-6" d="M198.35,96.5a2.13,2.13,0,1,0,2.13-2.24,2.19,2.19,0,0,0-2.13,2.24"/><path class="cls-6" d="M213.74,160.46a2.13,2.13,0,1,0,2.13-2.25,2.18,2.18,0,0,0-2.13,2.25"/><path class="cls-6" d="M213.74,144.47a2.13,2.13,0,1,0,2.13-2.25,2.18,2.18,0,0,0-2.13,2.25"/><path class="cls-6" d="M213.74,128.48a2.13,2.13,0,1,0,2.13-2.25,2.19,2.19,0,0,0-2.13,2.25"/><path class="cls-6" d="M213.74,112.49a2.13,2.13,0,1,0,2.13-2.24,2.19,2.19,0,0,0-2.13,2.24"/><path class="cls-6" d="M213.74,96.5a2.13,2.13,0,1,0,2.13-2.24,2.19,2.19,0,0,0-2.13,2.24"/><path class="cls-6" d="M229.13,160.46a2.13,2.13,0,1,0,2.13-2.25,2.18,2.18,0,0,0-2.13,2.25"/><path class="cls-6" d="M229.13,144.47a2.13,2.13,0,1,0,2.13-2.25,2.18,2.18,0,0,0-2.13,2.25"/><path class="cls-6" d="M229.13,128.48a2.13,2.13,0,1,0,2.13-2.25,2.19,2.19,0,0,0-2.13,2.25"/><path class="cls-6" d="M229.13,112.49a2.13,2.13,0,1,0,2.13-2.24,2.19,2.19,0,0,0-2.13,2.24"/><path class="cls-6" d="M229.13,96.5a2.13,2.13,0,1,0,2.13-2.24,2.19,2.19,0,0,0-2.13,2.24"/><path class="cls-6" d="M244.52,160.46a2.13,2.13,0,1,0,2.13-2.25,2.18,2.18,0,0,0-2.13,2.25"/><path class="cls-6" d="M244.52,144.47a2.13,2.13,0,1,0,2.13-2.25,2.18,2.18,0,0,0-2.13,2.25"/><path class="cls-6" d="M244.52,128.48a2.13,2.13,0,1,0,2.13-2.25,2.19,2.19,0,0,0-2.13,2.25"/><path class="cls-6" d="M244.52,112.49a2.13,2.13,0,1,0,2.13-2.24,2.19,2.19,0,0,0-2.13,2.24"/><path class="cls-6" d="M244.52,96.5a2.13,2.13,0,1,0,2.13-2.24,2.19,2.19,0,0,0-2.13,2.24"/><path class="cls-6" d="M259.91,160.46a2.13,2.13,0,1,0,2.12-2.25,2.18,2.18,0,0,0-2.12,2.25"/><path class="cls-6" d="M259.91,144.47a2.13,2.13,0,1,0,2.12-2.25,2.18,2.18,0,0,0-2.12,2.25"/><path class="cls-6" d="M259.91,128.48a2.13,2.13,0,1,0,2.12-2.25,2.19,2.19,0,0,0-2.12,2.25"/><path class="cls-6" d="M259.91,112.49a2.13,2.13,0,1,0,2.12-2.24,2.19,2.19,0,0,0-2.12,2.24"/><path class="cls-6" d="M259.91,96.5A2.13,2.13,0,1,0,262,94.26a2.19,2.19,0,0,0-2.12,2.24"/><path class="cls-6" d="M275.3,160.46a2.13,2.13,0,1,0,2.12-2.25,2.18,2.18,0,0,0-2.12,2.25"/><path class="cls-6" d="M275.3,144.47a2.13,2.13,0,1,0,2.12-2.25,2.18,2.18,0,0,0-2.12,2.25"/><path class="cls-6" d="M275.3,128.48a2.13,2.13,0,1,0,2.12-2.25,2.19,2.19,0,0,0-2.12,2.25"/><path class="cls-6" d="M275.3,112.49a2.13,2.13,0,1,0,2.12-2.24,2.19,2.19,0,0,0-2.12,2.24"/><path class="cls-6" d="M275.3,96.5a2.13,2.13,0,1,0,2.12-2.24,2.19,2.19,0,0,0-2.12,2.24"/><path class="cls-6" d="M290.69,160.46a2.13,2.13,0,1,0,2.12-2.25,2.18,2.18,0,0,0-2.12,2.25"/><path class="cls-6" d="M290.69,144.47a2.13,2.13,0,1,0,2.12-2.25,2.18,2.18,0,0,0-2.12,2.25"/><path class="cls-6" d="M290.69,128.48a2.13,2.13,0,1,0,2.12-2.25,2.19,2.19,0,0,0-2.12,2.25"/><path class="cls-6" d="M290.69,112.49a2.13,2.13,0,1,0,2.12-2.24,2.19,2.19,0,0,0-2.12,2.24"/><path class="cls-6" d="M290.69,96.5a2.13,2.13,0,1,0,2.12-2.24,2.19,2.19,0,0,0-2.12,2.24"/><path class="cls-6" d="M306.07,160.46a2.13,2.13,0,1,0,2.13-2.25,2.19,2.19,0,0,0-2.13,2.25"/><path class="cls-6" d="M306.07,144.47a2.13,2.13,0,1,0,2.13-2.25,2.19,2.19,0,0,0-2.13,2.25"/><path class="cls-6" d="M306.07,128.48a2.13,2.13,0,1,0,2.13-2.25,2.2,2.2,0,0,0-2.13,2.25"/><path class="cls-6" d="M306.07,112.49a2.13,2.13,0,1,0,2.13-2.24,2.2,2.2,0,0,0-2.13,2.24"/><path class="cls-6" d="M306.07,96.5a2.13,2.13,0,1,0,2.13-2.24,2.2,2.2,0,0,0-2.13,2.24"/><path class="cls-6" d="M306.07,160.46a2.13,2.13,0,1,0,2.13-2.25,2.18,2.18,0,0,0-2.13,2.25"/><path class="cls-6" d="M306.07,144.47a2.13,2.13,0,1,0,2.13-2.25,2.18,2.18,0,0,0-2.13,2.25"/><path class="cls-6" d="M306.07,128.48a2.13,2.13,0,1,0,2.13-2.25,2.19,2.19,0,0,0-2.13,2.25"/><path class="cls-6" d="M306.07,112.49a2.13,2.13,0,1,0,2.13-2.24,2.19,2.19,0,0,0-2.13,2.24"/><path class="cls-6" d="M306.07,96.5a2.13,2.13,0,1,0,2.13-2.24,2.19,2.19,0,0,0-2.13,2.24"/><path class="cls-6" d="M321.46,160.46a2.13,2.13,0,1,0,2.13-2.25,2.18,2.18,0,0,0-2.13,2.25"/><path class="cls-6" d="M321.46,144.47a2.13,2.13,0,1,0,2.13-2.25,2.18,2.18,0,0,0-2.13,2.25"/><path class="cls-6" d="M321.46,128.48a2.13,2.13,0,1,0,2.13-2.25,2.19,2.19,0,0,0-2.13,2.25"/><path class="cls-6" d="M321.46,112.49a2.13,2.13,0,1,0,2.13-2.24,2.19,2.19,0,0,0-2.13,2.24"/><path class="cls-6" d="M321.46,96.5a2.13,2.13,0,1,0,2.13-2.24,2.19,2.19,0,0,0-2.13,2.24"/><path class="cls-6" d="M336.85,160.46a2.13,2.13,0,1,0,2.13-2.25,2.18,2.18,0,0,0-2.13,2.25"/><path class="cls-6" d="M336.85,144.47a2.13,2.13,0,1,0,2.13-2.25,2.18,2.18,0,0,0-2.13,2.25"/><path class="cls-6" d="M336.85,128.48a2.13,2.13,0,1,0,2.13-2.25,2.19,2.19,0,0,0-2.13,2.25"/><path class="cls-6" d="M336.85,112.49a2.13,2.13,0,1,0,2.13-2.24,2.19,2.19,0,0,0-2.13,2.24"/><path class="cls-6" d="M336.85,96.5A2.13,2.13,0,1,0,339,94.26a2.19,2.19,0,0,0-2.13,2.24"/><path class="cls-6" d="M352.24,160.46a2.13,2.13,0,1,0,2.13-2.25,2.18,2.18,0,0,0-2.13,2.25"/><path class="cls-6" d="M352.24,144.47a2.13,2.13,0,1,0,2.13-2.25,2.18,2.18,0,0,0-2.13,2.25"/><path class="cls-6" d="M352.24,128.48a2.13,2.13,0,1,0,2.13-2.25,2.19,2.19,0,0,0-2.13,2.25"/><path class="cls-6" d="M352.24,112.49a2.13,2.13,0,1,0,2.13-2.24,2.19,2.19,0,0,0-2.13,2.24"/><path class="cls-6" d="M352.24,96.5a2.13,2.13,0,1,0,2.13-2.24,2.19,2.19,0,0,0-2.13,2.24"/><path class="cls-6" d="M367.63,160.46a2.13,2.13,0,1,0,2.12-2.25,2.18,2.18,0,0,0-2.12,2.25"/><path class="cls-6" d="M367.63,144.47a2.13,2.13,0,1,0,2.12-2.25,2.18,2.18,0,0,0-2.12,2.25"/><path class="cls-6" d="M367.63,128.48a2.13,2.13,0,1,0,2.12-2.25,2.19,2.19,0,0,0-2.12,2.25"/><path class="cls-6" d="M367.63,112.49a2.13,2.13,0,1,0,2.12-2.24,2.19,2.19,0,0,0-2.12,2.24"/><path class="cls-6" d="M367.63,96.5a2.13,2.13,0,1,0,2.12-2.24,2.19,2.19,0,0,0-2.12,2.24"/><path class="cls-6" d="M383,160.46a2.13,2.13,0,1,0,2.12-2.25,2.18,2.18,0,0,0-2.12,2.25"/><path class="cls-6" d="M383,144.47a2.13,2.13,0,1,0,2.12-2.25,2.18,2.18,0,0,0-2.12,2.25"/><path class="cls-6" d="M383,128.48a2.13,2.13,0,1,0,2.12-2.25,2.19,2.19,0,0,0-2.12,2.25"/><path class="cls-6" d="M383,112.49a2.13,2.13,0,1,0,2.12-2.24,2.19,2.19,0,0,0-2.12,2.24"/><path class="cls-6" d="M383,96.5a2.13,2.13,0,1,0,2.12-2.24A2.19,2.19,0,0,0,383,96.5"/><path class="cls-6" d="M398.4,160.46a2.13,2.13,0,1,0,2.13-2.25,2.19,2.19,0,0,0-2.13,2.25"/><path class="cls-6" d="M398.4,144.47a2.13,2.13,0,1,0,2.13-2.25,2.19,2.19,0,0,0-2.13,2.25"/><path class="cls-6" d="M398.4,128.48a2.13,2.13,0,1,0,2.13-2.25,2.2,2.2,0,0,0-2.13,2.25"/><path class="cls-6" d="M398.4,112.49a2.13,2.13,0,1,0,2.13-2.24,2.2,2.2,0,0,0-2.13,2.24"/><path class="cls-6" d="M398.4,96.5a2.13,2.13,0,1,0,2.13-2.24,2.2,2.2,0,0,0-2.13,2.24"/><path class="cls-6" d="M413.79,160.46a2.13,2.13,0,1,0,2.13-2.25,2.19,2.19,0,0,0-2.13,2.25"/><path class="cls-6" d="M413.79,144.47a2.13,2.13,0,1,0,2.13-2.25,2.19,2.19,0,0,0-2.13,2.25"/><path class="cls-6" d="M413.79,128.48a2.13,2.13,0,1,0,2.13-2.25,2.2,2.2,0,0,0-2.13,2.25"/><path class="cls-6" d="M413.79,112.49a2.13,2.13,0,1,0,2.13-2.24,2.2,2.2,0,0,0-2.13,2.24"/><path class="cls-6" d="M413.79,96.5a2.13,2.13,0,1,0,2.13-2.24,2.2,2.2,0,0,0-2.13,2.24"/><path class="cls-6" d="M198.35,112.5a2.13,2.13,0,1,0,2.13-2.24,2.19,2.19,0,0,0-2.13,2.24"/><path class="cls-6" d="M198.35,96.51a2.13,2.13,0,1,0,2.13-2.24,2.19,2.19,0,0,0-2.13,2.24"/><path class="cls-6" d="M198.35,80.53a2.13,2.13,0,1,0,2.13-2.25,2.19,2.19,0,0,0-2.13,2.25"/><path class="cls-6" d="M198.35,64.54a2.13,2.13,0,1,0,2.13-2.25,2.18,2.18,0,0,0-2.13,2.25"/><path class="cls-6" d="M198.35,48.55a2.13,2.13,0,1,0,2.13-2.25,2.18,2.18,0,0,0-2.13,2.25"/><path class="cls-6" d="M213.74,112.5a2.13,2.13,0,1,0,2.13-2.24,2.19,2.19,0,0,0-2.13,2.24"/><path class="cls-6" d="M213.74,96.51a2.13,2.13,0,1,0,2.13-2.24,2.19,2.19,0,0,0-2.13,2.24"/><path class="cls-6" d="M213.74,80.53a2.13,2.13,0,1,0,2.13-2.25,2.19,2.19,0,0,0-2.13,2.25"/><path class="cls-6" d="M213.74,64.54a2.13,2.13,0,1,0,2.13-2.25,2.18,2.18,0,0,0-2.13,2.25"/><path class="cls-6" d="M213.74,48.55a2.13,2.13,0,1,0,2.13-2.25,2.18,2.18,0,0,0-2.13,2.25"/><path class="cls-6" d="M229.13,112.5a2.13,2.13,0,1,0,2.13-2.24,2.19,2.19,0,0,0-2.13,2.24"/><path class="cls-6" d="M229.13,96.51a2.13,2.13,0,1,0,2.13-2.24,2.19,2.19,0,0,0-2.13,2.24"/><path class="cls-6" d="M229.13,80.53a2.13,2.13,0,1,0,2.13-2.25,2.19,2.19,0,0,0-2.13,2.25"/><path class="cls-6" d="M229.13,64.54a2.13,2.13,0,1,0,2.13-2.25,2.18,2.18,0,0,0-2.13,2.25"/><path class="cls-6" d="M229.13,48.55a2.13,2.13,0,1,0,2.13-2.25,2.18,2.18,0,0,0-2.13,2.25"/><path class="cls-6" d="M244.52,112.5a2.13,2.13,0,1,0,2.13-2.24,2.19,2.19,0,0,0-2.13,2.24"/><path class="cls-6" d="M244.52,96.51a2.13,2.13,0,1,0,2.13-2.24,2.19,2.19,0,0,0-2.13,2.24"/><path class="cls-6" d="M244.52,80.53a2.13,2.13,0,1,0,2.13-2.25,2.19,2.19,0,0,0-2.13,2.25"/><path class="cls-6" d="M244.52,64.54a2.13,2.13,0,1,0,2.13-2.25,2.18,2.18,0,0,0-2.13,2.25"/><path class="cls-6" d="M244.52,48.55a2.13,2.13,0,1,0,2.13-2.25,2.18,2.18,0,0,0-2.13,2.25"/><path class="cls-6" d="M259.91,112.5a2.13,2.13,0,1,0,2.12-2.24,2.19,2.19,0,0,0-2.12,2.24"/><path class="cls-6" d="M259.91,96.51A2.13,2.13,0,1,0,262,94.27a2.19,2.19,0,0,0-2.12,2.24"/><path class="cls-6" d="M259.91,80.53A2.13,2.13,0,1,0,262,78.28a2.19,2.19,0,0,0-2.12,2.25"/><path class="cls-6" d="M259.91,64.54A2.13,2.13,0,1,0,262,62.29a2.18,2.18,0,0,0-2.12,2.25"/><path class="cls-6" d="M259.91,48.55A2.13,2.13,0,1,0,262,46.3a2.18,2.18,0,0,0-2.12,2.25"/><path class="cls-6" d="M275.3,112.5a2.13,2.13,0,1,0,2.12-2.24,2.19,2.19,0,0,0-2.12,2.24"/><path class="cls-6" d="M275.3,96.51a2.13,2.13,0,1,0,2.12-2.24,2.19,2.19,0,0,0-2.12,2.24"/><path class="cls-6" d="M275.3,80.53a2.13,2.13,0,1,0,2.12-2.25,2.19,2.19,0,0,0-2.12,2.25"/><path class="cls-6" d="M275.3,64.54a2.13,2.13,0,1,0,2.12-2.25,2.18,2.18,0,0,0-2.12,2.25"/><path class="cls-6" d="M275.3,48.55a2.13,2.13,0,1,0,2.12-2.25,2.18,2.18,0,0,0-2.12,2.25"/><path class="cls-6" d="M290.69,112.5a2.13,2.13,0,1,0,2.12-2.24,2.19,2.19,0,0,0-2.12,2.24"/><path class="cls-6" d="M290.69,96.51a2.13,2.13,0,1,0,2.12-2.24,2.19,2.19,0,0,0-2.12,2.24"/><path class="cls-6" d="M290.69,80.53a2.13,2.13,0,1,0,2.12-2.25,2.19,2.19,0,0,0-2.12,2.25"/><path class="cls-6" d="M290.69,64.54a2.13,2.13,0,1,0,2.12-2.25,2.18,2.18,0,0,0-2.12,2.25"/><path class="cls-6" d="M290.69,48.55a2.13,2.13,0,1,0,2.12-2.25,2.18,2.18,0,0,0-2.12,2.25"/><path class="cls-6" d="M306.07,112.5a2.13,2.13,0,1,0,2.13-2.24,2.2,2.2,0,0,0-2.13,2.24"/><path class="cls-6" d="M306.07,96.51a2.13,2.13,0,1,0,2.13-2.24,2.2,2.2,0,0,0-2.13,2.24"/><path class="cls-6" d="M306.07,80.53a2.13,2.13,0,1,0,2.13-2.25,2.2,2.2,0,0,0-2.13,2.25"/><path class="cls-6" d="M306.07,64.54a2.13,2.13,0,1,0,2.13-2.25,2.19,2.19,0,0,0-2.13,2.25"/><path class="cls-6" d="M306.07,48.55a2.13,2.13,0,1,0,2.13-2.25,2.19,2.19,0,0,0-2.13,2.25"/><path class="cls-6" d="M306.07,112.5a2.13,2.13,0,1,0,2.13-2.24,2.19,2.19,0,0,0-2.13,2.24"/><path class="cls-6" d="M306.07,96.51a2.13,2.13,0,1,0,2.13-2.24,2.19,2.19,0,0,0-2.13,2.24"/><path class="cls-6" d="M306.07,80.53a2.13,2.13,0,1,0,2.13-2.25,2.19,2.19,0,0,0-2.13,2.25"/><path class="cls-6" d="M306.07,64.54a2.13,2.13,0,1,0,2.13-2.25,2.18,2.18,0,0,0-2.13,2.25"/><path class="cls-6" d="M306.07,48.55a2.13,2.13,0,1,0,2.13-2.25,2.18,2.18,0,0,0-2.13,2.25"/><path class="cls-6" d="M321.46,112.5a2.13,2.13,0,1,0,2.13-2.24,2.19,2.19,0,0,0-2.13,2.24"/><path class="cls-6" d="M321.46,96.51a2.13,2.13,0,1,0,2.13-2.24,2.19,2.19,0,0,0-2.13,2.24"/><path class="cls-6" d="M321.46,80.53a2.13,2.13,0,1,0,2.13-2.25,2.19,2.19,0,0,0-2.13,2.25"/><path class="cls-6" d="M321.46,64.54a2.13,2.13,0,1,0,2.13-2.25,2.18,2.18,0,0,0-2.13,2.25"/><path class="cls-6" d="M321.46,48.55a2.13,2.13,0,1,0,2.13-2.25,2.18,2.18,0,0,0-2.13,2.25"/><path class="cls-6" d="M336.85,112.5a2.13,2.13,0,1,0,2.13-2.24,2.19,2.19,0,0,0-2.13,2.24"/><path class="cls-6" d="M336.85,96.51A2.13,2.13,0,1,0,339,94.27a2.19,2.19,0,0,0-2.13,2.24"/><path class="cls-6" d="M336.85,80.53A2.13,2.13,0,1,0,339,78.28a2.19,2.19,0,0,0-2.13,2.25"/><path class="cls-6" d="M336.85,64.54A2.13,2.13,0,1,0,339,62.29a2.18,2.18,0,0,0-2.13,2.25"/><path class="cls-6" d="M336.85,48.55A2.13,2.13,0,1,0,339,46.3a2.18,2.18,0,0,0-2.13,2.25"/><path class="cls-6" d="M352.24,112.5a2.13,2.13,0,1,0,2.13-2.24,2.19,2.19,0,0,0-2.13,2.24"/><path class="cls-6" d="M352.24,96.51a2.13,2.13,0,1,0,2.13-2.24,2.19,2.19,0,0,0-2.13,2.24"/><path class="cls-6" d="M352.24,80.53a2.13,2.13,0,1,0,2.13-2.25,2.19,2.19,0,0,0-2.13,2.25"/><path class="cls-6" d="M352.24,64.54a2.13,2.13,0,1,0,2.13-2.25,2.18,2.18,0,0,0-2.13,2.25"/><path class="cls-6" d="M352.24,48.55a2.13,2.13,0,1,0,2.13-2.25,2.18,2.18,0,0,0-2.13,2.25"/><path class="cls-6" d="M367.63,112.5a2.13,2.13,0,1,0,2.12-2.24,2.19,2.19,0,0,0-2.12,2.24"/><path class="cls-6" d="M367.63,96.51a2.13,2.13,0,1,0,2.12-2.24,2.19,2.19,0,0,0-2.12,2.24"/><path class="cls-6" d="M367.63,80.53a2.13,2.13,0,1,0,2.12-2.25,2.19,2.19,0,0,0-2.12,2.25"/><path class="cls-6" d="M367.63,64.54a2.13,2.13,0,1,0,2.12-2.25,2.18,2.18,0,0,0-2.12,2.25"/><path class="cls-6" d="M367.63,48.55a2.13,2.13,0,1,0,2.12-2.25,2.18,2.18,0,0,0-2.12,2.25"/><path class="cls-6" d="M383,112.5a2.13,2.13,0,1,0,2.12-2.24A2.19,2.19,0,0,0,383,112.5"/><path class="cls-6" d="M383,96.51a2.13,2.13,0,1,0,2.12-2.24A2.19,2.19,0,0,0,383,96.51"/><path class="cls-6" d="M383,80.53a2.13,2.13,0,1,0,2.12-2.25A2.19,2.19,0,0,0,383,80.53"/><path class="cls-6" d="M383,64.54a2.13,2.13,0,1,0,2.12-2.25A2.18,2.18,0,0,0,383,64.54"/><path class="cls-6" d="M383,48.55a2.13,2.13,0,1,0,2.12-2.25A2.18,2.18,0,0,0,383,48.55"/><path class="cls-6" d="M398.4,112.5a2.13,2.13,0,1,0,2.13-2.24,2.2,2.2,0,0,0-2.13,2.24"/><path class="cls-6" d="M398.4,96.51a2.13,2.13,0,1,0,2.13-2.24,2.2,2.2,0,0,0-2.13,2.24"/><path class="cls-6" d="M398.4,80.53a2.13,2.13,0,1,0,2.13-2.25,2.2,2.2,0,0,0-2.13,2.25"/><path class="cls-6" d="M398.4,64.54a2.13,2.13,0,1,0,2.13-2.25,2.19,2.19,0,0,0-2.13,2.25"/><path class="cls-6" d="M398.4,48.55a2.13,2.13,0,1,0,2.13-2.25,2.19,2.19,0,0,0-2.13,2.25"/><path class="cls-6" d="M413.79,112.5a2.13,2.13,0,1,0,2.13-2.24,2.2,2.2,0,0,0-2.13,2.24"/><path class="cls-6" d="M413.79,96.51a2.13,2.13,0,1,0,2.13-2.24,2.2,2.2,0,0,0-2.13,2.24"/><path class="cls-6" d="M413.79,80.53a2.13,2.13,0,1,0,2.13-2.25,2.2,2.2,0,0,0-2.13,2.25"/><path class="cls-6" d="M413.79,64.54a2.13,2.13,0,1,0,2.13-2.25,2.19,2.19,0,0,0-2.13,2.25"/><path class="cls-6" d="M413.79,48.55a2.13,2.13,0,1,0,2.13-2.25,2.19,2.19,0,0,0-2.13,2.25"/><g class="cls-7"><path class="cls-6" d="M194,337.27a1.09,1.09,0,1,0,1.08-1.15,1.11,1.11,0,0,0-1.08,1.15"/><path class="cls-6" d="M194,329.12a1.09,1.09,0,1,0,2.17,0,1.09,1.09,0,1,0-2.17,0"/><path class="cls-6" d="M194,321a1.09,1.09,0,1,0,1.08-1.14A1.12,1.12,0,0,0,194,321"/><path class="cls-6" d="M194,312.82a1.09,1.09,0,1,0,1.08-1.14,1.11,1.11,0,0,0-1.08,1.14"/><path class="cls-6" d="M194,304.68a1.09,1.09,0,1,0,2.17,0,1.09,1.09,0,1,0-2.17,0"/><path class="cls-6" d="M201.87,337.27a1.09,1.09,0,1,0,1.08-1.15,1.11,1.11,0,0,0-1.08,1.15"/><path class="cls-6" d="M201.87,329.12a1.09,1.09,0,1,0,2.17,0,1.09,1.09,0,1,0-2.17,0"/><path class="cls-6" d="M201.87,321a1.09,1.09,0,1,0,1.08-1.14,1.12,1.12,0,0,0-1.08,1.14"/><path class="cls-6" d="M201.87,312.82a1.09,1.09,0,1,0,1.08-1.14,1.11,1.11,0,0,0-1.08,1.14"/><path class="cls-6" d="M201.87,304.68a1.09,1.09,0,1,0,2.17,0,1.09,1.09,0,1,0-2.17,0"/><path class="cls-6" d="M209.71,337.27a1.09,1.09,0,1,0,1.08-1.15,1.12,1.12,0,0,0-1.08,1.15"/><path class="cls-6" d="M209.71,329.12a1.09,1.09,0,1,0,1.08-1.15,1.12,1.12,0,0,0-1.08,1.15"/><path class="cls-6" d="M209.71,321a1.09,1.09,0,1,0,1.08-1.14,1.12,1.12,0,0,0-1.08,1.14"/><path class="cls-6" d="M209.71,312.82a1.09,1.09,0,1,0,1.08-1.14,1.12,1.12,0,0,0-1.08,1.14"/><path class="cls-6" d="M209.71,304.68a1.09,1.09,0,1,0,1.08-1.15,1.12,1.12,0,0,0-1.08,1.15"/><path class="cls-6" d="M217.55,337.27a1.09,1.09,0,1,0,1.09-1.15,1.12,1.12,0,0,0-1.09,1.15"/><path class="cls-6" d="M217.55,329.12a1.09,1.09,0,1,0,1.09-1.15,1.12,1.12,0,0,0-1.09,1.15"/><path class="cls-6" d="M217.55,321a1.09,1.09,0,1,0,1.09-1.14,1.13,1.13,0,0,0-1.09,1.14"/><path class="cls-6" d="M217.55,312.82a1.09,1.09,0,1,0,1.09-1.14,1.12,1.12,0,0,0-1.09,1.14"/><path class="cls-6" d="M217.55,304.68a1.09,1.09,0,1,0,1.09-1.15,1.12,1.12,0,0,0-1.09,1.15"/><path class="cls-6" d="M225.39,337.27a1.09,1.09,0,1,0,1.09-1.15,1.12,1.12,0,0,0-1.09,1.15"/><path class="cls-6" d="M225.39,329.12a1.09,1.09,0,1,0,1.09-1.15,1.12,1.12,0,0,0-1.09,1.15"/><path class="cls-6" d="M225.39,321a1.09,1.09,0,1,0,2.17,0,1.09,1.09,0,1,0-2.17,0"/><path class="cls-6" d="M225.39,312.82a1.09,1.09,0,1,0,1.09-1.14,1.12,1.12,0,0,0-1.09,1.14"/><path class="cls-6" d="M225.39,304.68a1.09,1.09,0,1,0,1.09-1.15,1.12,1.12,0,0,0-1.09,1.15"/><path class="cls-6" d="M233.23,337.27a1.09,1.09,0,1,0,1.09-1.15,1.12,1.12,0,0,0-1.09,1.15"/><path class="cls-6" d="M233.23,329.12a1.09,1.09,0,1,0,1.09-1.15,1.12,1.12,0,0,0-1.09,1.15"/><path class="cls-6" d="M233.23,321a1.09,1.09,0,1,0,2.17,0,1.09,1.09,0,1,0-2.17,0"/><path class="cls-6" d="M233.23,312.82a1.09,1.09,0,1,0,1.09-1.14,1.12,1.12,0,0,0-1.09,1.14"/><path class="cls-6" d="M233.23,304.68a1.09,1.09,0,1,0,1.09-1.15,1.12,1.12,0,0,0-1.09,1.15"/><path class="cls-6" d="M241.08,337.27a1.08,1.08,0,1,0,1.08-1.15,1.11,1.11,0,0,0-1.08,1.15"/><path class="cls-6" d="M241.08,329.12a1.08,1.08,0,1,0,1.08-1.15,1.11,1.11,0,0,0-1.08,1.15"/><path class="cls-6" d="M241.08,321a1.08,1.08,0,1,0,1.08-1.14,1.12,1.12,0,0,0-1.08,1.14"/><path class="cls-6" d="M241.08,312.82a1.08,1.08,0,1,0,1.08-1.14,1.11,1.11,0,0,0-1.08,1.14"/><path class="cls-6" d="M241.08,304.68a1.08,1.08,0,1,0,1.08-1.15,1.11,1.11,0,0,0-1.08,1.15"/><path class="cls-6" d="M248.92,337.27a1.08,1.08,0,1,0,1.08-1.15,1.11,1.11,0,0,0-1.08,1.15"/><path class="cls-6" d="M248.92,329.12A1.08,1.08,0,1,0,250,328a1.11,1.11,0,0,0-1.08,1.15"/><path class="cls-6" d="M248.92,321a1.08,1.08,0,1,0,1.08-1.14,1.12,1.12,0,0,0-1.08,1.14"/><path class="cls-6" d="M248.92,312.82a1.08,1.08,0,1,0,1.08-1.14,1.11,1.11,0,0,0-1.08,1.14"/><path class="cls-6" d="M248.92,304.68a1.08,1.08,0,1,0,1.08-1.15,1.11,1.11,0,0,0-1.08,1.15"/><path class="cls-6" d="M248.92,337.27a1.08,1.08,0,1,0,1.08-1.15,1.11,1.11,0,0,0-1.08,1.15"/><path class="cls-6" d="M248.92,329.12A1.08,1.08,0,1,0,250,328a1.11,1.11,0,0,0-1.08,1.15"/><path class="cls-6" d="M248.92,321a1.08,1.08,0,1,0,1.08-1.14,1.12,1.12,0,0,0-1.08,1.14"/><path class="cls-6" d="M248.92,312.82a1.08,1.08,0,1,0,1.08-1.14,1.11,1.11,0,0,0-1.08,1.14"/><path class="cls-6" d="M248.92,304.68a1.08,1.08,0,1,0,1.08-1.15,1.11,1.11,0,0,0-1.08,1.15"/><path class="cls-6" d="M256.76,337.27a1.08,1.08,0,1,0,1.08-1.15,1.11,1.11,0,0,0-1.08,1.15"/><path class="cls-6" d="M256.76,329.12a1.08,1.08,0,1,0,1.08-1.15,1.11,1.11,0,0,0-1.08,1.15"/><path class="cls-6" d="M256.76,321a1.08,1.08,0,1,0,1.08-1.14,1.12,1.12,0,0,0-1.08,1.14"/><path class="cls-6" d="M256.76,312.82a1.08,1.08,0,1,0,1.08-1.14,1.11,1.11,0,0,0-1.08,1.14"/><path class="cls-6" d="M256.76,304.68a1.08,1.08,0,1,0,1.08-1.15,1.11,1.11,0,0,0-1.08,1.15"/><path class="cls-6" d="M264.6,337.27a1.09,1.09,0,1,0,1.08-1.15,1.11,1.11,0,0,0-1.08,1.15"/><path class="cls-6" d="M264.6,329.12a1.09,1.09,0,1,0,2.17,0,1.09,1.09,0,1,0-2.17,0"/><path class="cls-6" d="M264.6,321a1.09,1.09,0,1,0,1.08-1.14A1.12,1.12,0,0,0,264.6,321"/><path class="cls-6" d="M264.6,312.82a1.09,1.09,0,1,0,1.08-1.14,1.11,1.11,0,0,0-1.08,1.14"/><path class="cls-6" d="M264.6,304.68a1.09,1.09,0,1,0,2.17,0,1.09,1.09,0,1,0-2.17,0"/><path class="cls-6" d="M272.44,337.27a1.09,1.09,0,1,0,1.08-1.15,1.11,1.11,0,0,0-1.08,1.15"/><path class="cls-6" d="M272.44,329.12a1.09,1.09,0,1,0,2.17,0,1.09,1.09,0,1,0-2.17,0"/><path class="cls-6" d="M272.44,321a1.09,1.09,0,1,0,1.08-1.14,1.12,1.12,0,0,0-1.08,1.14"/><path class="cls-6" d="M272.44,312.82a1.09,1.09,0,1,0,1.08-1.14,1.11,1.11,0,0,0-1.08,1.14"/><path class="cls-6" d="M272.44,304.68a1.09,1.09,0,1,0,2.17,0,1.09,1.09,0,1,0-2.17,0"/><path class="cls-6" d="M280.28,337.27a1.09,1.09,0,1,0,1.09-1.15,1.12,1.12,0,0,0-1.09,1.15"/><path class="cls-6" d="M280.28,329.12a1.09,1.09,0,1,0,1.09-1.15,1.12,1.12,0,0,0-1.09,1.15"/><path class="cls-6" d="M280.28,321a1.09,1.09,0,1,0,1.09-1.14,1.13,1.13,0,0,0-1.09,1.14"/><path class="cls-6" d="M280.28,312.82a1.09,1.09,0,1,0,1.09-1.14,1.12,1.12,0,0,0-1.09,1.14"/><path class="cls-6" d="M280.28,304.68a1.09,1.09,0,1,0,1.09-1.15,1.12,1.12,0,0,0-1.09,1.15"/><path class="cls-6" d="M288.12,337.27a1.09,1.09,0,1,0,1.09-1.15,1.12,1.12,0,0,0-1.09,1.15"/><path class="cls-6" d="M288.12,329.12a1.09,1.09,0,1,0,1.09-1.15,1.12,1.12,0,0,0-1.09,1.15"/><path class="cls-6" d="M288.12,321a1.09,1.09,0,1,0,1.09-1.14,1.13,1.13,0,0,0-1.09,1.14"/><path class="cls-6" d="M288.12,312.82a1.09,1.09,0,1,0,1.09-1.14,1.12,1.12,0,0,0-1.09,1.14"/><path class="cls-6" d="M288.12,304.68a1.09,1.09,0,1,0,1.09-1.15,1.12,1.12,0,0,0-1.09,1.15"/><path class="cls-6" d="M296,337.27a1.09,1.09,0,1,0,1.09-1.15,1.12,1.12,0,0,0-1.09,1.15"/><path class="cls-6" d="M296,329.12a1.09,1.09,0,1,0,1.09-1.15,1.12,1.12,0,0,0-1.09,1.15"/><path class="cls-6" d="M296,321a1.09,1.09,0,1,0,2.17,0,1.09,1.09,0,1,0-2.17,0"/><path class="cls-6" d="M296,312.82a1.09,1.09,0,1,0,1.09-1.14,1.12,1.12,0,0,0-1.09,1.14"/><path class="cls-6" d="M296,304.68a1.09,1.09,0,1,0,1.09-1.15,1.12,1.12,0,0,0-1.09,1.15"/><path class="cls-6" d="M303.8,337.27a1.09,1.09,0,1,0,1.09-1.15,1.12,1.12,0,0,0-1.09,1.15"/><path class="cls-6" d="M303.8,329.12a1.09,1.09,0,1,0,1.09-1.15,1.12,1.12,0,0,0-1.09,1.15"/><path class="cls-6" d="M303.8,321a1.09,1.09,0,1,0,2.17,0,1.09,1.09,0,1,0-2.17,0"/><path class="cls-6" d="M303.8,312.82a1.09,1.09,0,1,0,1.09-1.14,1.12,1.12,0,0,0-1.09,1.14"/><path class="cls-6" d="M303.8,304.68a1.09,1.09,0,1,0,1.09-1.15,1.12,1.12,0,0,0-1.09,1.15"/><path class="cls-6" d="M194,312.83a1.09,1.09,0,1,0,1.08-1.14,1.12,1.12,0,0,0-1.08,1.14"/><path class="cls-6" d="M194,304.68a1.09,1.09,0,1,0,1.08-1.14,1.11,1.11,0,0,0-1.08,1.14"/><path class="cls-6" d="M194,296.54a1.09,1.09,0,1,0,2.17,0,1.09,1.09,0,1,0-2.17,0"/><path class="cls-6" d="M194,288.39a1.09,1.09,0,1,0,1.08-1.14,1.12,1.12,0,0,0-1.08,1.14"/><path class="cls-6" d="M194,280.24a1.09,1.09,0,1,0,1.08-1.14,1.11,1.11,0,0,0-1.08,1.14"/><path class="cls-6" d="M201.87,312.83a1.09,1.09,0,1,0,1.08-1.14,1.12,1.12,0,0,0-1.08,1.14"/><path class="cls-6" d="M201.87,304.68a1.09,1.09,0,1,0,1.08-1.14,1.11,1.11,0,0,0-1.08,1.14"/><path class="cls-6" d="M201.87,296.54a1.09,1.09,0,1,0,2.17,0,1.09,1.09,0,1,0-2.17,0"/><path class="cls-6" d="M201.87,288.39a1.09,1.09,0,1,0,1.08-1.14,1.12,1.12,0,0,0-1.08,1.14"/><path class="cls-6" d="M201.87,280.24A1.09,1.09,0,1,0,203,279.1a1.11,1.11,0,0,0-1.08,1.14"/><path class="cls-6" d="M209.71,312.83a1.09,1.09,0,1,0,1.08-1.14,1.12,1.12,0,0,0-1.08,1.14"/><path class="cls-6" d="M209.71,304.68a1.09,1.09,0,1,0,1.08-1.14,1.12,1.12,0,0,0-1.08,1.14"/><path class="cls-6" d="M209.71,296.54a1.09,1.09,0,1,0,1.08-1.15,1.12,1.12,0,0,0-1.08,1.15"/><path class="cls-6" d="M209.71,288.39a1.09,1.09,0,1,0,1.08-1.14,1.12,1.12,0,0,0-1.08,1.14"/><path class="cls-6" d="M209.71,280.24a1.09,1.09,0,1,0,1.08-1.14,1.12,1.12,0,0,0-1.08,1.14"/><path class="cls-6" d="M217.55,312.83a1.09,1.09,0,1,0,1.09-1.14,1.13,1.13,0,0,0-1.09,1.14"/><path class="cls-6" d="M217.55,304.68a1.09,1.09,0,1,0,1.09-1.14,1.12,1.12,0,0,0-1.09,1.14"/><path class="cls-6" d="M217.55,296.54a1.09,1.09,0,1,0,1.09-1.15,1.12,1.12,0,0,0-1.09,1.15"/><path class="cls-6" d="M217.55,288.39a1.09,1.09,0,1,0,1.09-1.14,1.13,1.13,0,0,0-1.09,1.14"/><path class="cls-6" d="M217.55,280.24a1.09,1.09,0,1,0,1.09-1.14,1.12,1.12,0,0,0-1.09,1.14"/><path class="cls-6" d="M225.39,312.83a1.09,1.09,0,1,0,2.17,0,1.09,1.09,0,1,0-2.17,0"/><path class="cls-6" d="M225.39,304.68a1.09,1.09,0,1,0,1.09-1.14,1.12,1.12,0,0,0-1.09,1.14"/><path class="cls-6" d="M225.39,296.54a1.09,1.09,0,1,0,1.09-1.15,1.12,1.12,0,0,0-1.09,1.15"/><path class="cls-6" d="M225.39,288.39a1.09,1.09,0,1,0,2.17,0,1.09,1.09,0,1,0-2.17,0"/><path class="cls-6" d="M225.39,280.24a1.09,1.09,0,1,0,1.09-1.14,1.12,1.12,0,0,0-1.09,1.14"/><path class="cls-6" d="M233.23,312.83a1.09,1.09,0,1,0,2.17,0,1.09,1.09,0,1,0-2.17,0"/><path class="cls-6" d="M233.23,304.68a1.09,1.09,0,1,0,1.09-1.14,1.12,1.12,0,0,0-1.09,1.14"/><path class="cls-6" d="M233.23,296.54a1.09,1.09,0,1,0,1.09-1.15,1.12,1.12,0,0,0-1.09,1.15"/><path class="cls-6" d="M233.23,288.39a1.09,1.09,0,1,0,2.17,0,1.09,1.09,0,1,0-2.17,0"/><path class="cls-6" d="M233.23,280.24a1.09,1.09,0,1,0,1.09-1.14,1.12,1.12,0,0,0-1.09,1.14"/><path class="cls-6" d="M241.08,312.83a1.08,1.08,0,1,0,1.08-1.14,1.12,1.12,0,0,0-1.08,1.14"/><path class="cls-6" d="M241.08,304.68a1.08,1.08,0,1,0,1.08-1.14,1.11,1.11,0,0,0-1.08,1.14"/><path class="cls-6" d="M241.08,296.54a1.08,1.08,0,1,0,1.08-1.15,1.11,1.11,0,0,0-1.08,1.15"/><path class="cls-6" d="M241.08,288.39a1.08,1.08,0,1,0,1.08-1.14,1.12,1.12,0,0,0-1.08,1.14"/><path class="cls-6" d="M241.08,280.24a1.08,1.08,0,1,0,1.08-1.14,1.11,1.11,0,0,0-1.08,1.14"/><path class="cls-6" d="M248.92,312.83a1.08,1.08,0,1,0,1.08-1.14,1.12,1.12,0,0,0-1.08,1.14"/><path class="cls-6" d="M248.92,304.68a1.08,1.08,0,1,0,1.08-1.14,1.11,1.11,0,0,0-1.08,1.14"/><path class="cls-6" d="M248.92,296.54a1.08,1.08,0,1,0,1.08-1.15,1.11,1.11,0,0,0-1.08,1.15"/><path class="cls-6" d="M248.92,288.39a1.08,1.08,0,1,0,1.08-1.14,1.12,1.12,0,0,0-1.08,1.14"/><path class="cls-6" d="M248.92,280.24A1.08,1.08,0,1,0,250,279.1a1.11,1.11,0,0,0-1.08,1.14"/><path class="cls-6" d="M248.92,312.83a1.08,1.08,0,1,0,1.08-1.14,1.12,1.12,0,0,0-1.08,1.14"/><path class="cls-6" d="M248.92,304.68a1.08,1.08,0,1,0,1.08-1.14,1.11,1.11,0,0,0-1.08,1.14"/><path class="cls-6" d="M248.92,296.54a1.08,1.08,0,1,0,1.08-1.15,1.11,1.11,0,0,0-1.08,1.15"/><path class="cls-6" d="M248.92,288.39a1.08,1.08,0,1,0,1.08-1.14,1.12,1.12,0,0,0-1.08,1.14"/><path class="cls-6" d="M248.92,280.24A1.08,1.08,0,1,0,250,279.1a1.11,1.11,0,0,0-1.08,1.14"/><path class="cls-6" d="M256.76,312.83a1.08,1.08,0,1,0,1.08-1.14,1.12,1.12,0,0,0-1.08,1.14"/><path class="cls-6" d="M256.76,304.68a1.08,1.08,0,1,0,1.08-1.14,1.11,1.11,0,0,0-1.08,1.14"/><path class="cls-6" d="M256.76,296.54a1.08,1.08,0,1,0,1.08-1.15,1.11,1.11,0,0,0-1.08,1.15"/><path class="cls-6" d="M256.76,288.39a1.08,1.08,0,1,0,1.08-1.14,1.12,1.12,0,0,0-1.08,1.14"/><path class="cls-6" d="M256.76,280.24a1.08,1.08,0,1,0,1.08-1.14,1.11,1.11,0,0,0-1.08,1.14"/><path class="cls-6" d="M264.6,312.83a1.09,1.09,0,1,0,1.08-1.14,1.12,1.12,0,0,0-1.08,1.14"/><path class="cls-6" d="M264.6,304.68a1.09,1.09,0,1,0,1.08-1.14,1.11,1.11,0,0,0-1.08,1.14"/><path class="cls-6" d="M264.6,296.54a1.09,1.09,0,1,0,2.17,0,1.09,1.09,0,1,0-2.17,0"/><path class="cls-6" d="M264.6,288.39a1.09,1.09,0,1,0,1.08-1.14,1.12,1.12,0,0,0-1.08,1.14"/><path class="cls-6" d="M264.6,280.24a1.09,1.09,0,1,0,1.08-1.14,1.11,1.11,0,0,0-1.08,1.14"/><path class="cls-6" d="M272.44,312.83a1.09,1.09,0,1,0,1.08-1.14,1.12,1.12,0,0,0-1.08,1.14"/><path class="cls-6" d="M272.44,304.68a1.09,1.09,0,1,0,1.08-1.14,1.11,1.11,0,0,0-1.08,1.14"/><path class="cls-6" d="M272.44,296.54a1.09,1.09,0,1,0,2.17,0,1.09,1.09,0,1,0-2.17,0"/><path class="cls-6" d="M272.44,288.39a1.09,1.09,0,1,0,1.08-1.14,1.12,1.12,0,0,0-1.08,1.14"/><path class="cls-6" d="M272.44,280.24a1.09,1.09,0,1,0,1.08-1.14,1.11,1.11,0,0,0-1.08,1.14"/><path class="cls-6" d="M280.28,312.83a1.09,1.09,0,1,0,1.09-1.14,1.13,1.13,0,0,0-1.09,1.14"/><path class="cls-6" d="M280.28,304.68a1.09,1.09,0,1,0,1.09-1.14,1.12,1.12,0,0,0-1.09,1.14"/><path class="cls-6" d="M280.28,296.54a1.09,1.09,0,1,0,1.09-1.15,1.12,1.12,0,0,0-1.09,1.15"/><path class="cls-6" d="M280.28,288.39a1.09,1.09,0,1,0,1.09-1.14,1.13,1.13,0,0,0-1.09,1.14"/><path class="cls-6" d="M280.28,280.24a1.09,1.09,0,1,0,1.09-1.14,1.12,1.12,0,0,0-1.09,1.14"/><path class="cls-6" d="M288.12,312.83a1.09,1.09,0,1,0,1.09-1.14,1.13,1.13,0,0,0-1.09,1.14"/><path class="cls-6" d="M288.12,304.68a1.09,1.09,0,1,0,1.09-1.14,1.12,1.12,0,0,0-1.09,1.14"/><path class="cls-6" d="M288.12,296.54a1.09,1.09,0,1,0,1.09-1.15,1.12,1.12,0,0,0-1.09,1.15"/><path class="cls-6" d="M288.12,288.39a1.09,1.09,0,1,0,1.09-1.14,1.13,1.13,0,0,0-1.09,1.14"/><path class="cls-6" d="M288.12,280.24a1.09,1.09,0,1,0,1.09-1.14,1.12,1.12,0,0,0-1.09,1.14"/><path class="cls-6" d="M296,312.83a1.09,1.09,0,1,0,2.17,0,1.09,1.09,0,1,0-2.17,0"/><path class="cls-6" d="M296,304.68a1.09,1.09,0,1,0,1.09-1.14,1.12,1.12,0,0,0-1.09,1.14"/><path class="cls-6" d="M296,296.54a1.09,1.09,0,1,0,1.09-1.15,1.12,1.12,0,0,0-1.09,1.15"/><path class="cls-6" d="M296,288.39a1.09,1.09,0,1,0,2.17,0,1.09,1.09,0,1,0-2.17,0"/><path class="cls-6" d="M296,280.24a1.09,1.09,0,1,0,1.09-1.14,1.12,1.12,0,0,0-1.09,1.14"/><path class="cls-6" d="M303.8,312.83a1.09,1.09,0,1,0,2.17,0,1.09,1.09,0,1,0-2.17,0"/><path class="cls-6" d="M303.8,304.68a1.09,1.09,0,1,0,1.09-1.14,1.12,1.12,0,0,0-1.09,1.14"/><path class="cls-6" d="M303.8,296.54a1.09,1.09,0,1,0,1.09-1.15,1.12,1.12,0,0,0-1.09,1.15"/><path class="cls-6" d="M303.8,288.39a1.09,1.09,0,1,0,2.17,0,1.09,1.09,0,1,0-2.17,0"/><path class="cls-6" d="M303.8,280.24a1.09,1.09,0,1,0,1.09-1.14,1.12,1.12,0,0,0-1.09,1.14"/><path class="cls-6" d="M194,394.32a1.09,1.09,0,1,0,1.08-1.14,1.11,1.11,0,0,0-1.08,1.14"/><path class="cls-6" d="M194,386.17a1.09,1.09,0,1,0,1.08-1.14,1.11,1.11,0,0,0-1.08,1.14"/><path class="cls-6" d="M194,378a1.09,1.09,0,1,0,1.08-1.15A1.11,1.11,0,0,0,194,378"/><path class="cls-6" d="M194,369.88a1.09,1.09,0,1,0,1.08-1.14,1.11,1.11,0,0,0-1.08,1.14"/><path class="cls-6" d="M194,361.73a1.09,1.09,0,1,0,1.08-1.14,1.12,1.12,0,0,0-1.08,1.14"/><path class="cls-6" d="M201.87,394.32a1.09,1.09,0,1,0,1.08-1.14,1.11,1.11,0,0,0-1.08,1.14"/><path class="cls-6" d="M201.87,386.17A1.09,1.09,0,1,0,203,385a1.11,1.11,0,0,0-1.08,1.14"/><path class="cls-6" d="M201.87,378a1.09,1.09,0,1,0,1.08-1.15,1.11,1.11,0,0,0-1.08,1.15"/><path class="cls-6" d="M201.87,369.88a1.09,1.09,0,1,0,1.08-1.14,1.11,1.11,0,0,0-1.08,1.14"/><path class="cls-6" d="M201.87,361.73a1.09,1.09,0,1,0,1.08-1.14,1.12,1.12,0,0,0-1.08,1.14"/><path class="cls-6" d="M209.71,394.32a1.09,1.09,0,1,0,1.08-1.14,1.12,1.12,0,0,0-1.08,1.14"/><path class="cls-6" d="M209.71,386.17a1.09,1.09,0,1,0,1.08-1.14,1.12,1.12,0,0,0-1.08,1.14"/><path class="cls-6" d="M209.71,378a1.09,1.09,0,1,0,1.08-1.15,1.12,1.12,0,0,0-1.08,1.15"/><path class="cls-6" d="M209.71,369.88a1.09,1.09,0,1,0,1.08-1.14,1.12,1.12,0,0,0-1.08,1.14"/><path class="cls-6" d="M209.71,361.73a1.09,1.09,0,1,0,1.08-1.14,1.12,1.12,0,0,0-1.08,1.14"/><path class="cls-6" d="M217.55,394.32a1.09,1.09,0,1,0,1.09-1.14,1.12,1.12,0,0,0-1.09,1.14"/><path class="cls-6" d="M217.55,386.17a1.09,1.09,0,1,0,1.09-1.14,1.12,1.12,0,0,0-1.09,1.14"/><path class="cls-6" d="M217.55,378a1.09,1.09,0,1,0,1.09-1.15,1.12,1.12,0,0,0-1.09,1.15"/><path class="cls-6" d="M217.55,369.88a1.09,1.09,0,1,0,1.09-1.14,1.12,1.12,0,0,0-1.09,1.14"/><path class="cls-6" d="M217.55,361.73a1.09,1.09,0,1,0,1.09-1.14,1.13,1.13,0,0,0-1.09,1.14"/><path class="cls-6" d="M225.39,394.32a1.09,1.09,0,1,0,1.09-1.14,1.12,1.12,0,0,0-1.09,1.14"/><path class="cls-6" d="M225.39,386.17a1.09,1.09,0,1,0,1.09-1.14,1.12,1.12,0,0,0-1.09,1.14"/><path class="cls-6" d="M225.39,378a1.09,1.09,0,1,0,1.09-1.15,1.12,1.12,0,0,0-1.09,1.15"/><path class="cls-6" d="M225.39,369.88a1.09,1.09,0,1,0,1.09-1.14,1.12,1.12,0,0,0-1.09,1.14"/><path class="cls-6" d="M225.39,361.73a1.09,1.09,0,1,0,2.17,0,1.09,1.09,0,1,0-2.17,0"/><path class="cls-6" d="M233.23,394.32a1.09,1.09,0,1,0,1.09-1.14,1.12,1.12,0,0,0-1.09,1.14"/><path class="cls-6" d="M233.23,386.17a1.09,1.09,0,1,0,1.09-1.14,1.12,1.12,0,0,0-1.09,1.14"/><path class="cls-6" d="M233.23,378a1.09,1.09,0,1,0,1.09-1.15,1.12,1.12,0,0,0-1.09,1.15"/><path class="cls-6" d="M233.23,369.88a1.09,1.09,0,1,0,1.09-1.14,1.12,1.12,0,0,0-1.09,1.14"/><path class="cls-6" d="M233.23,361.73a1.09,1.09,0,1,0,2.17,0,1.09,1.09,0,1,0-2.17,0"/><path class="cls-6" d="M241.08,394.32a1.08,1.08,0,1,0,1.08-1.14,1.11,1.11,0,0,0-1.08,1.14"/><path class="cls-6" d="M241.08,386.17a1.08,1.08,0,1,0,1.08-1.14,1.11,1.11,0,0,0-1.08,1.14"/><path class="cls-6" d="M241.08,378a1.08,1.08,0,1,0,1.08-1.15,1.11,1.11,0,0,0-1.08,1.15"/><path class="cls-6" d="M241.08,369.88a1.08,1.08,0,1,0,1.08-1.14,1.11,1.11,0,0,0-1.08,1.14"/><path class="cls-6" d="M241.08,361.73a1.08,1.08,0,1,0,1.08-1.14,1.12,1.12,0,0,0-1.08,1.14"/><path class="cls-6" d="M248.92,394.32a1.08,1.08,0,1,0,1.08-1.14,1.11,1.11,0,0,0-1.08,1.14"/><path class="cls-6" d="M248.92,386.17A1.08,1.08,0,1,0,250,385a1.11,1.11,0,0,0-1.08,1.14"/><path class="cls-6" d="M248.92,378a1.08,1.08,0,1,0,1.08-1.15,1.11,1.11,0,0,0-1.08,1.15"/><path class="cls-6" d="M248.92,369.88a1.08,1.08,0,1,0,1.08-1.14,1.11,1.11,0,0,0-1.08,1.14"/><path class="cls-6" d="M248.92,361.73a1.08,1.08,0,1,0,1.08-1.14,1.12,1.12,0,0,0-1.08,1.14"/><path class="cls-6" d="M248.92,394.32a1.08,1.08,0,1,0,1.08-1.14,1.11,1.11,0,0,0-1.08,1.14"/><path class="cls-6" d="M248.92,386.17A1.08,1.08,0,1,0,250,385a1.11,1.11,0,0,0-1.08,1.14"/><path class="cls-6" d="M248.92,378a1.08,1.08,0,1,0,1.08-1.15,1.11,1.11,0,0,0-1.08,1.15"/><path class="cls-6" d="M248.92,369.88a1.08,1.08,0,1,0,1.08-1.14,1.11,1.11,0,0,0-1.08,1.14"/><path class="cls-6" d="M248.92,361.73a1.08,1.08,0,1,0,1.08-1.14,1.12,1.12,0,0,0-1.08,1.14"/><path class="cls-6" d="M256.76,394.32a1.08,1.08,0,1,0,1.08-1.14,1.11,1.11,0,0,0-1.08,1.14"/><path class="cls-6" d="M256.76,386.17a1.08,1.08,0,1,0,1.08-1.14,1.11,1.11,0,0,0-1.08,1.14"/><path class="cls-6" d="M256.76,378a1.08,1.08,0,1,0,1.08-1.15,1.11,1.11,0,0,0-1.08,1.15"/><path class="cls-6" d="M256.76,369.88a1.08,1.08,0,1,0,1.08-1.14,1.11,1.11,0,0,0-1.08,1.14"/><path class="cls-6" d="M256.76,361.73a1.08,1.08,0,1,0,1.08-1.14,1.12,1.12,0,0,0-1.08,1.14"/><path class="cls-6" d="M264.6,394.32a1.09,1.09,0,1,0,1.08-1.14,1.11,1.11,0,0,0-1.08,1.14"/><path class="cls-6" d="M264.6,386.17a1.09,1.09,0,1,0,1.08-1.14,1.11,1.11,0,0,0-1.08,1.14"/><path class="cls-6" d="M264.6,378a1.09,1.09,0,1,0,1.08-1.15A1.11,1.11,0,0,0,264.6,378"/><path class="cls-6" d="M264.6,369.88a1.09,1.09,0,1,0,1.08-1.14,1.11,1.11,0,0,0-1.08,1.14"/><path class="cls-6" d="M264.6,361.73a1.09,1.09,0,1,0,1.08-1.14,1.12,1.12,0,0,0-1.08,1.14"/><path class="cls-6" d="M272.44,394.32a1.09,1.09,0,1,0,1.08-1.14,1.11,1.11,0,0,0-1.08,1.14"/><path class="cls-6" d="M272.44,386.17a1.09,1.09,0,1,0,1.08-1.14,1.11,1.11,0,0,0-1.08,1.14"/><path class="cls-6" d="M272.44,378a1.09,1.09,0,1,0,1.08-1.15,1.11,1.11,0,0,0-1.08,1.15"/><path class="cls-6" d="M272.44,369.88a1.09,1.09,0,1,0,1.08-1.14,1.11,1.11,0,0,0-1.08,1.14"/><path class="cls-6" d="M272.44,361.73a1.09,1.09,0,1,0,1.08-1.14,1.12,1.12,0,0,0-1.08,1.14"/><path class="cls-6" d="M280.28,394.32a1.09,1.09,0,1,0,1.09-1.14,1.12,1.12,0,0,0-1.09,1.14"/><path class="cls-6" d="M280.28,386.17a1.09,1.09,0,1,0,1.09-1.14,1.12,1.12,0,0,0-1.09,1.14"/><path class="cls-6" d="M280.28,378a1.09,1.09,0,1,0,1.09-1.15,1.12,1.12,0,0,0-1.09,1.15"/><path class="cls-6" d="M280.28,369.88a1.09,1.09,0,1,0,1.09-1.14,1.12,1.12,0,0,0-1.09,1.14"/><path class="cls-6" d="M280.28,361.73a1.09,1.09,0,1,0,1.09-1.14,1.13,1.13,0,0,0-1.09,1.14"/><path class="cls-6" d="M288.12,394.32a1.09,1.09,0,1,0,1.09-1.14,1.12,1.12,0,0,0-1.09,1.14"/><path class="cls-6" d="M288.12,386.17a1.09,1.09,0,1,0,1.09-1.14,1.12,1.12,0,0,0-1.09,1.14"/><path class="cls-6" d="M288.12,378a1.09,1.09,0,1,0,1.09-1.15,1.12,1.12,0,0,0-1.09,1.15"/><path class="cls-6" d="M288.12,369.88a1.09,1.09,0,1,0,1.09-1.14,1.12,1.12,0,0,0-1.09,1.14"/><path class="cls-6" d="M288.12,361.73a1.09,1.09,0,1,0,1.09-1.14,1.13,1.13,0,0,0-1.09,1.14"/><path class="cls-6" d="M296,394.32a1.09,1.09,0,1,0,1.09-1.14,1.12,1.12,0,0,0-1.09,1.14"/><path class="cls-6" d="M296,386.17a1.09,1.09,0,1,0,1.09-1.14,1.12,1.12,0,0,0-1.09,1.14"/><path class="cls-6" d="M296,378a1.09,1.09,0,1,0,1.09-1.15A1.12,1.12,0,0,0,296,378"/><path class="cls-6" d="M296,369.88a1.09,1.09,0,1,0,1.09-1.14,1.12,1.12,0,0,0-1.09,1.14"/><path class="cls-6" d="M296,361.73a1.09,1.09,0,1,0,2.17,0,1.09,1.09,0,1,0-2.17,0"/><path class="cls-6" d="M303.8,394.32a1.09,1.09,0,1,0,1.09-1.14,1.12,1.12,0,0,0-1.09,1.14"/><path class="cls-6" d="M303.8,386.17a1.09,1.09,0,1,0,1.09-1.14,1.12,1.12,0,0,0-1.09,1.14"/><path class="cls-6" d="M303.8,378a1.09,1.09,0,1,0,1.09-1.15A1.12,1.12,0,0,0,303.8,378"/><path class="cls-6" d="M303.8,369.88a1.09,1.09,0,1,0,1.09-1.14,1.12,1.12,0,0,0-1.09,1.14"/><path class="cls-6" d="M303.8,361.73a1.09,1.09,0,1,0,2.17,0,1.09,1.09,0,1,0-2.17,0"/><path class="cls-6" d="M194,369.89a1.09,1.09,0,1,0,1.08-1.15,1.11,1.11,0,0,0-1.08,1.15"/><path class="cls-6" d="M194,361.74a1.09,1.09,0,1,0,2.17,0,1.09,1.09,0,1,0-2.17,0"/><path class="cls-6" d="M194,353.59a1.09,1.09,0,1,0,1.08-1.14,1.12,1.12,0,0,0-1.08,1.14"/><path class="cls-6" d="M194,345.44a1.09,1.09,0,1,0,1.08-1.14,1.11,1.11,0,0,0-1.08,1.14"/><path class="cls-6" d="M194,337.3a1.09,1.09,0,1,0,2.17,0,1.09,1.09,0,1,0-2.17,0"/><path class="cls-6" d="M201.87,369.89a1.09,1.09,0,1,0,1.08-1.15,1.11,1.11,0,0,0-1.08,1.15"/><path class="cls-6" d="M201.87,361.74a1.09,1.09,0,1,0,2.17,0,1.09,1.09,0,1,0-2.17,0"/><path class="cls-6" d="M201.87,353.59a1.09,1.09,0,1,0,1.08-1.14,1.12,1.12,0,0,0-1.08,1.14"/><path class="cls-6" d="M201.87,345.44A1.09,1.09,0,1,0,203,344.3a1.11,1.11,0,0,0-1.08,1.14"/><path class="cls-6" d="M201.87,337.3a1.09,1.09,0,1,0,2.17,0,1.09,1.09,0,1,0-2.17,0"/><path class="cls-6" d="M209.71,369.89a1.09,1.09,0,1,0,1.08-1.15,1.12,1.12,0,0,0-1.08,1.15"/><path class="cls-6" d="M209.71,361.74a1.09,1.09,0,1,0,1.08-1.15,1.12,1.12,0,0,0-1.08,1.15"/><path class="cls-6" d="M209.71,353.59a1.09,1.09,0,1,0,1.08-1.14,1.12,1.12,0,0,0-1.08,1.14"/><path class="cls-6" d="M209.71,345.44a1.09,1.09,0,1,0,1.08-1.14,1.12,1.12,0,0,0-1.08,1.14"/><path class="cls-6" d="M209.71,337.3a1.09,1.09,0,1,0,1.08-1.15,1.12,1.12,0,0,0-1.08,1.15"/><path class="cls-6" d="M217.55,369.89a1.09,1.09,0,1,0,1.09-1.15,1.12,1.12,0,0,0-1.09,1.15"/><path class="cls-6" d="M217.55,361.74a1.09,1.09,0,1,0,1.09-1.15,1.12,1.12,0,0,0-1.09,1.15"/><path class="cls-6" d="M217.55,353.59a1.09,1.09,0,1,0,1.09-1.14,1.13,1.13,0,0,0-1.09,1.14"/><path class="cls-6" d="M217.55,345.44a1.09,1.09,0,1,0,1.09-1.14,1.12,1.12,0,0,0-1.09,1.14"/><path class="cls-6" d="M217.55,337.3a1.09,1.09,0,1,0,1.09-1.15,1.12,1.12,0,0,0-1.09,1.15"/><path class="cls-6" d="M225.39,369.89a1.09,1.09,0,1,0,1.09-1.15,1.12,1.12,0,0,0-1.09,1.15"/><path class="cls-6" d="M225.39,361.74a1.09,1.09,0,1,0,1.09-1.15,1.12,1.12,0,0,0-1.09,1.15"/><path class="cls-6" d="M225.39,353.59a1.09,1.09,0,1,0,2.17,0,1.09,1.09,0,1,0-2.17,0"/><path class="cls-6" d="M225.39,345.44a1.09,1.09,0,1,0,1.09-1.14,1.12,1.12,0,0,0-1.09,1.14"/><path class="cls-6" d="M225.39,337.3a1.09,1.09,0,1,0,1.09-1.15,1.12,1.12,0,0,0-1.09,1.15"/><path class="cls-6" d="M233.23,369.89a1.09,1.09,0,1,0,1.09-1.15,1.12,1.12,0,0,0-1.09,1.15"/><path class="cls-6" d="M233.23,361.74a1.09,1.09,0,1,0,1.09-1.15,1.12,1.12,0,0,0-1.09,1.15"/><path class="cls-6" d="M233.23,353.59a1.09,1.09,0,1,0,2.17,0,1.09,1.09,0,1,0-2.17,0"/><path class="cls-6" d="M233.23,345.44a1.09,1.09,0,1,0,1.09-1.14,1.12,1.12,0,0,0-1.09,1.14"/><path class="cls-6" d="M233.23,337.3a1.09,1.09,0,1,0,1.09-1.15,1.12,1.12,0,0,0-1.09,1.15"/><path class="cls-6" d="M241.08,369.89a1.08,1.08,0,1,0,1.08-1.15,1.11,1.11,0,0,0-1.08,1.15"/><path class="cls-6" d="M241.08,361.74a1.08,1.08,0,1,0,1.08-1.15,1.11,1.11,0,0,0-1.08,1.15"/><path class="cls-6" d="M241.08,353.59a1.08,1.08,0,1,0,1.08-1.14,1.12,1.12,0,0,0-1.08,1.14"/><path class="cls-6" d="M241.08,345.44a1.08,1.08,0,1,0,1.08-1.14,1.11,1.11,0,0,0-1.08,1.14"/><path class="cls-6" d="M241.08,337.3a1.08,1.08,0,1,0,1.08-1.15,1.11,1.11,0,0,0-1.08,1.15"/><path class="cls-6" d="M248.92,369.89a1.08,1.08,0,1,0,1.08-1.15,1.11,1.11,0,0,0-1.08,1.15"/><path class="cls-6" d="M248.92,361.74a1.08,1.08,0,1,0,1.08-1.15,1.11,1.11,0,0,0-1.08,1.15"/><path class="cls-6" d="M248.92,353.59a1.08,1.08,0,1,0,1.08-1.14,1.12,1.12,0,0,0-1.08,1.14"/><path class="cls-6" d="M248.92,345.44A1.08,1.08,0,1,0,250,344.3a1.11,1.11,0,0,0-1.08,1.14"/><path class="cls-6" d="M248.92,337.3a1.08,1.08,0,1,0,1.08-1.15,1.11,1.11,0,0,0-1.08,1.15"/><path class="cls-6" d="M248.92,369.89a1.08,1.08,0,1,0,1.08-1.15,1.11,1.11,0,0,0-1.08,1.15"/><path class="cls-6" d="M248.92,361.74a1.08,1.08,0,1,0,1.08-1.15,1.11,1.11,0,0,0-1.08,1.15"/><path class="cls-6" d="M248.92,353.59a1.08,1.08,0,1,0,1.08-1.14,1.12,1.12,0,0,0-1.08,1.14"/><path class="cls-6" d="M248.92,345.44A1.08,1.08,0,1,0,250,344.3a1.11,1.11,0,0,0-1.08,1.14"/><path class="cls-6" d="M248.92,337.3a1.08,1.08,0,1,0,1.08-1.15,1.11,1.11,0,0,0-1.08,1.15"/><path class="cls-6" d="M256.76,369.89a1.08,1.08,0,1,0,1.08-1.15,1.11,1.11,0,0,0-1.08,1.15"/><path class="cls-6" d="M256.76,361.74a1.08,1.08,0,1,0,1.08-1.15,1.11,1.11,0,0,0-1.08,1.15"/><path class="cls-6" d="M256.76,353.59a1.08,1.08,0,1,0,1.08-1.14,1.12,1.12,0,0,0-1.08,1.14"/><path class="cls-6" d="M256.76,345.44a1.08,1.08,0,1,0,1.08-1.14,1.11,1.11,0,0,0-1.08,1.14"/><path class="cls-6" d="M256.76,337.3a1.08,1.08,0,1,0,1.08-1.15,1.11,1.11,0,0,0-1.08,1.15"/><path class="cls-6" d="M264.6,369.89a1.09,1.09,0,1,0,1.08-1.15,1.11,1.11,0,0,0-1.08,1.15"/><path class="cls-6" d="M264.6,361.74a1.09,1.09,0,1,0,2.17,0,1.09,1.09,0,1,0-2.17,0"/><path class="cls-6" d="M264.6,353.59a1.09,1.09,0,1,0,1.08-1.14,1.12,1.12,0,0,0-1.08,1.14"/><path class="cls-6" d="M264.6,345.44a1.09,1.09,0,1,0,1.08-1.14,1.11,1.11,0,0,0-1.08,1.14"/><path class="cls-6" d="M264.6,337.3a1.09,1.09,0,1,0,2.17,0,1.09,1.09,0,1,0-2.17,0"/><path class="cls-6" d="M272.44,369.89a1.09,1.09,0,1,0,1.08-1.15,1.11,1.11,0,0,0-1.08,1.15"/><path class="cls-6" d="M272.44,361.74a1.09,1.09,0,1,0,2.17,0,1.09,1.09,0,1,0-2.17,0"/><path class="cls-6" d="M272.44,353.59a1.09,1.09,0,1,0,1.08-1.14,1.12,1.12,0,0,0-1.08,1.14"/><path class="cls-6" d="M272.44,345.44a1.09,1.09,0,1,0,1.08-1.14,1.11,1.11,0,0,0-1.08,1.14"/><path class="cls-6" d="M272.44,337.3a1.09,1.09,0,1,0,2.17,0,1.09,1.09,0,1,0-2.17,0"/><path class="cls-6" d="M280.28,369.89a1.09,1.09,0,1,0,1.09-1.15,1.12,1.12,0,0,0-1.09,1.15"/><path class="cls-6" d="M280.28,361.74a1.09,1.09,0,1,0,1.09-1.15,1.12,1.12,0,0,0-1.09,1.15"/><path class="cls-6" d="M280.28,353.59a1.09,1.09,0,1,0,1.09-1.14,1.13,1.13,0,0,0-1.09,1.14"/><path class="cls-6" d="M280.28,345.44a1.09,1.09,0,1,0,1.09-1.14,1.12,1.12,0,0,0-1.09,1.14"/><path class="cls-6" d="M280.28,337.3a1.09,1.09,0,1,0,1.09-1.15,1.12,1.12,0,0,0-1.09,1.15"/><path class="cls-6" d="M288.12,369.89a1.09,1.09,0,1,0,1.09-1.15,1.12,1.12,0,0,0-1.09,1.15"/><path class="cls-6" d="M288.12,361.74a1.09,1.09,0,1,0,1.09-1.15,1.12,1.12,0,0,0-1.09,1.15"/><path class="cls-6" d="M288.12,353.59a1.09,1.09,0,1,0,1.09-1.14,1.13,1.13,0,0,0-1.09,1.14"/><path class="cls-6" d="M288.12,345.44a1.09,1.09,0,1,0,1.09-1.14,1.12,1.12,0,0,0-1.09,1.14"/><path class="cls-6" d="M288.12,337.3a1.09,1.09,0,1,0,1.09-1.15,1.12,1.12,0,0,0-1.09,1.15"/><path class="cls-6" d="M296,369.89a1.09,1.09,0,1,0,1.09-1.15,1.12,1.12,0,0,0-1.09,1.15"/><path class="cls-6" d="M296,361.74a1.09,1.09,0,1,0,1.09-1.15,1.12,1.12,0,0,0-1.09,1.15"/><path class="cls-6" d="M296,353.59a1.09,1.09,0,1,0,2.17,0,1.09,1.09,0,1,0-2.17,0"/><path class="cls-6" d="M296,345.44a1.09,1.09,0,1,0,1.09-1.14,1.12,1.12,0,0,0-1.09,1.14"/><path class="cls-6" d="M296,337.3a1.09,1.09,0,1,0,1.09-1.15A1.12,1.12,0,0,0,296,337.3"/><path class="cls-6" d="M303.8,369.89a1.09,1.09,0,1,0,1.09-1.15,1.12,1.12,0,0,0-1.09,1.15"/><path class="cls-6" d="M303.8,361.74a1.09,1.09,0,1,0,1.09-1.15,1.12,1.12,0,0,0-1.09,1.15"/><path class="cls-6" d="M303.8,353.59a1.09,1.09,0,1,0,2.17,0,1.09,1.09,0,1,0-2.17,0"/><path class="cls-6" d="M303.8,345.44a1.09,1.09,0,1,0,1.09-1.14,1.12,1.12,0,0,0-1.09,1.14"/><path class="cls-6" d="M303.8,337.3a1.09,1.09,0,1,0,1.09-1.15,1.12,1.12,0,0,0-1.09,1.15"/></g></svg>