<?xml version="1.0" encoding="utf-8"?>
<!-- Generator: Adobe Illustrator 25.3.1, SVG Export Plug-In . SVG Version: 6.00 Build 0)  -->
<svg version="1.1" id="Layer_1" xmlns="http://www.w3.org/2000/svg" xmlns:xlink="http://www.w3.org/1999/xlink" x="0px" y="0px"
	 viewBox="0 0 85.3 12.7" style="enable-background:new 0 0 85.3 12.7;" xml:space="preserve">
<style type="text/css">
	.st0{fill:#00E5FF;}
</style>
<g>
	<path class="st0" d="M0.6,10.5L0.6,10.5c-0.8-0.8-0.8-2.2,0-3l6.9-6.9c0.8-0.8,2.2-0.8,3,0L15.9,6c0.8,0.8,2.2,0.8,3,0l5.4-5.4
		c0.8-0.8,2.2-0.8,3,0L32.8,6c0.8,0.8,2.2,0.8,3,0l5.4-5.4c0.8-0.8,2.2-0.8,3,0L49.6,6c0.8,0.8,2.2,0.8,3,0L58,0.6
		c0.8-0.8,2.2-0.8,3,0L66.4,6c0.8,0.8,2.2,0.8,3,0l5.4-5.4c0.8-0.8,2.2-0.8,3,0l6.9,6.9c0.8,0.8,0.8,2.2,0,3s-2.2,0.8-3,0l-3.9-3.9
		c-0.8-0.8-2.2-0.8-3,0L69.4,12c-0.8,0.8-2.2,0.8-3,0L61,6.6c-0.8-0.8-2.2-0.8-3,0L52.6,12c-0.8,0.8-2.2,0.8-3,0l-5.4-5.4
		c-0.8-0.8-2.2-0.8-3,0L35.8,12c-0.8,0.8-2.2,0.8-3,0l-5.4-5.4c-0.8-0.8-2.2-0.8-3,0L18.9,12c-0.8,0.8-2.2,0.8-3,0l-5.4-5.4
		c-0.8-0.8-2.2-0.8-3,0l-3.9,3.9C2.8,11.4,1.5,11.4,0.6,10.5"/>
</g>
</svg>
