<svg xmlns="http://www.w3.org/2000/svg" viewBox="0 0 263.09 29.26"><defs><style>.cls-1{fill:#fff;}.cls-2{fill:#00e5ff;}.cls-3{fill:#ffc400;}.cls-4{fill:#ff6d00;}.cls-5{fill:#fcfcfc;}.cls-6{fill:#ff6d01;stroke:#ff6d01;stroke-miterlimit:10;stroke-width:2px;}</style></defs><g id="Capa_2" data-name="Capa 2"><g id="Capa_1-2" data-name="Capa 1"><path class="cls-1" d="M44.64,19.82c0-3.21,3.07-4.6,9.36-4.72h.37v-.29c0-2.11-1.21-3.27-3.44-3.27a4.21,4.21,0,0,0-4,2.37s-1.77,0-1.77-1.39,2-3.33,6-3.33,6.08,2,6.08,5.56V23.3c0,.14-.52.32-1,.32-1,0-1.74-.55-1.77-2.23a6,6,0,0,1-5,2.4c-3,0-4.75-1.59-4.75-4M54.37,18V16.9l-.78,0c-4.05.14-6.14.89-6.14,2.78,0,1.24,1,2,2.64,2,2.49,0,4.28-1.56,4.28-3.76"/><path class="cls-1" d="M59,16.49a7,7,0,0,1,7.24-7.3c4.14,0,6,2.55,6,3.86s-1.62,1.41-1.71,1.27a4.11,4.11,0,0,0-4.2-2.72,4.61,4.61,0,0,0-4.57,4.89,4.62,4.62,0,0,0,4.57,5,4.14,4.14,0,0,0,4.2-2.72c.09-.14,1.71.06,1.71,1.31s-1.85,3.82-6,3.82A7,7,0,0,1,59,16.49"/><path class="cls-1" d="M73.28,19.82c0-3.21,3.07-4.6,9.36-4.72H83v-.29c0-2.11-1.21-3.27-3.44-3.27a4.21,4.21,0,0,0-4,2.37s-1.77,0-1.77-1.39,2-3.33,6-3.33,6.08,2,6.08,5.56V23.3c0,.14-.52.32-1,.32-1,0-1.74-.55-1.77-2.23a6,6,0,0,1-5,2.4c-3,0-4.75-1.59-4.75-4M83,18V16.9l-.78,0c-4,.14-6.14.89-6.14,2.78,0,1.24,1,2,2.64,2C81.22,21.73,83,20.17,83,18"/><path class="cls-1" d="M87.68,16.52c0-4.4,2.75-7.33,6.6-7.33a5.64,5.64,0,0,1,4.78,2.29V3.89a1.53,1.53,0,0,1,1-.31c.9,0,1.83.46,1.83,2.46V22.23c0,1-.53,1.36-1.28,1.36h-.29c-.75,0-1.27-.32-1.27-1.36V21.15a5.58,5.58,0,0,1-4.9,2.7c-3.73,0-6.51-2.93-6.51-7.33m11.41.87v-3a4.36,4.36,0,0,0-4.29-2.87c-2.61,0-4.34,2-4.34,4.95s1.79,4.95,4.28,4.95a4.2,4.2,0,0,0,4.35-4.08"/><path class="cls-1" d="M103.89,16.58A7.07,7.07,0,0,1,111,9.19c4,0,6.69,2.84,6.69,7v.23c0,.61-.2.84-.87.84H106.56a5,5,0,0,0,9.12,2c.06-.06,1.51.2,1.51,1.42s-2.15,3.16-5.94,3.16c-4.4,0-7.36-2.93-7.36-7.27m2.7-1.25h8.34c-.15-2.4-1.62-4-3.94-4a4.43,4.43,0,0,0-4.4,4"/><path class="cls-1" d="M122.49,11.54a5.16,5.16,0,0,1,4.31-2.35,4.54,4.54,0,0,1,4.55,2.93,5.47,5.47,0,0,1,4.83-2.93c3.54,0,5.25,2.15,5.25,5.74v7.3c0,1-.52,1.36-1.28,1.36h-.29c-.78,0-1.3-.32-1.3-1.36v-7c0-2.35-1-3.57-3.07-3.57A4.06,4.06,0,0,0,132,14v8.2c0,1-.52,1.36-1.28,1.36h-.29c-.75,0-1.3-.32-1.3-1.36V15.39c0-2.46-1-3.68-3.07-3.68A4,4,0,0,0,122.51,14v8.2c0,1-.55,1.36-1.27,1.36h-.32c-.75,0-1.27-.32-1.27-1.36V9.71a1.46,1.46,0,0,1,1-.31c.81,0,1.68.4,1.8,2.14"/><path class="cls-1" d="M146.41,28.34l2.31-5.65a1.2,1.2,0,0,1-1.21-.81l-5-11.64c-.06-.18.58-.84,1.5-.84s1.36.37,1.83,1.62l3.76,9.61L153,11.08c.41-1.28,1-1.68,1.8-1.68s1.56.63,1.5.78l-6.57,17.35c-.46,1.24-1.1,1.59-1.77,1.59s-1.56-.64-1.5-.78"/><path class="cls-2" d="M168.49,15h-4.22V10.7c0-.9-.46-1.25-1.1-1.25h-.24c-.67,0-1.1.35-1.1,1.25V15h-3.37l-.86,2.32h4.23V21.9c0,.9.43,1.25,1.1,1.25h.24c.64,0,1.1-.35,1.1-1.25V17.33h4.22c.93,0,1.25-.4,1.25-1.07v-.18C169.74,15.41,169.42,15,168.49,15Z"/><path class="cls-3" d="M32.64,13.88a18.42,18.42,0,0,0-6.2-3.56,18,18,0,0,0-6.91-.88A17.59,17.59,0,0,0,13,11.23a23.77,23.77,0,0,0-6.16,4.36.27.27,0,0,0,.35.4c3-2.41,4.65-3.24,6.23-3.76a16,16,0,0,1,6.1-.72,15.49,15.49,0,0,1,5.74,1.63,15,15,0,0,1,4.51,3.6h0A1.52,1.52,0,0,0,30,17a2,2,0,0,0,1.33.5,1.32,1.32,0,0,0,.28,0A2,2,0,0,0,33,16.52,2,2,0,0,0,32.64,13.88Z"/><path class="cls-2" d="M25.41,21.12a8.46,8.46,0,0,0-2.5-2.26,9.14,9.14,0,0,0-3.37-1.17,9.65,9.65,0,0,0-3.74.25,10.07,10.07,0,0,0-3.52,1.77l-.14.11a1.84,1.84,0,0,0-.44.48,2.07,2.07,0,0,0,1.72,3.2,2,2,0,0,0,.41-.05,2,2,0,0,0,1.31-.88,6.6,6.6,0,0,1,4.41-2.81,7.66,7.66,0,0,1,5.79,1.43.06.06,0,0,0,.07,0A0,0,0,0,0,25.41,21.12Z"/><path class="cls-4" d="M37.26,9.28A25.28,25.28,0,0,0,27.6,2.64l-.08,0a.87.87,0,0,0-.67.09.85.85,0,0,0-.41.53.92.92,0,0,0,.08.67.89.89,0,0,0,.54.41,24.13,24.13,0,0,1,9.79,5.38.32.32,0,0,0,.2.08.3.3,0,0,0,.21-.49Z"/><path class="cls-4" d="M12.5,2.22a1.44,1.44,0,0,0-1.09-.14A26.57,26.57,0,0,0,.68,8l0,0a1.85,1.85,0,0,0-.14.14A2,2,0,0,0,.67,11a2,2,0,0,0,2.85-.15,23,23,0,0,1,8.78-6h0a1.43,1.43,0,0,0,.19-2.58Z"/><circle class="cls-4" cx="19.54" cy="2.22" r="2.22"/><path class="cls-2" d="M19.54,24.71A2.28,2.28,0,1,0,21.81,27,2.27,2.27,0,0,0,19.54,24.71Z"/><path class="cls-5" d="M185,13.77a3.92,3.92,0,0,1,1.47-1.5,4.28,4.28,0,0,1,2.16-.54,4,4,0,0,1,2.36.67,2.32,2.32,0,0,1,.55.59,1.2,1.2,0,0,1,.19.58.75.75,0,0,1-.24.58,1.22,1.22,0,0,1-.52.31c-.19.06-.29.08-.31,0a2.06,2.06,0,0,0-.82-.81,2.37,2.37,0,0,0-1.15-.29,2.29,2.29,0,0,0-1.2.32,2.21,2.21,0,0,0-.82.89,2.86,2.86,0,0,0-.3,1.33,2.67,2.67,0,0,0,.31,1.31,2.29,2.29,0,0,0,.83.91,2.26,2.26,0,0,0,1.21.32,2.3,2.3,0,0,0,1.23-.32,1.83,1.83,0,0,0,.76-.89s.12,0,.32,0a1.34,1.34,0,0,1,.54.31.78.78,0,0,1,.24.59,1.18,1.18,0,0,1-.2.61,2.19,2.19,0,0,1-.57.62,3.87,3.87,0,0,1-2.44.73,4.2,4.2,0,0,1-2.14-.54A3.8,3.8,0,0,1,185,18.13a4.75,4.75,0,0,1,0-4.36Z"/><path class="cls-5" d="M192.5,15.29a2.91,2.91,0,0,1,1.15-1.13,3.69,3.69,0,0,1,3.38,0,2.88,2.88,0,0,1,1.14,1.13,3.41,3.41,0,0,1,.41,1.67,3.32,3.32,0,0,1-.41,1.66A3,3,0,0,1,197,19.75a3.48,3.48,0,0,1-1.7.41,3.44,3.44,0,0,1-1.69-.41,2.84,2.84,0,0,1-1.14-1.14,3.36,3.36,0,0,1-.4-1.67A3.21,3.21,0,0,1,192.5,15.29Zm4,.35a1.69,1.69,0,0,0-2.42,0,1.78,1.78,0,0,0-.49,1.3,1.8,1.8,0,0,0,.49,1.31,1.67,1.67,0,0,0,2.42,0A1.81,1.81,0,0,0,197,17,1.85,1.85,0,0,0,196.54,15.64Z"/><path class="cls-5" d="M200.3,19.75a2.8,2.8,0,0,1-1-1.13A3.7,3.7,0,0,1,199,17a3.79,3.79,0,0,1,.36-1.69,2.63,2.63,0,0,1,1-1.11,2.69,2.69,0,0,1,1.48-.4,2.52,2.52,0,0,1,1.14.26,2,2,0,0,1,.78.67V11.51s.07-.08.21-.13a1.33,1.33,0,0,1,.45-.07,1.06,1.06,0,0,1,.79.31,1.61,1.61,0,0,1,.31,1.1V19.2a.89.89,0,0,1-.2.64.8.8,0,0,1-.58.19h-.17a.82.82,0,0,1-.52-.14.65.65,0,0,1-.24-.47c0-.18,0-.33,0-.42a2.37,2.37,0,0,1-.81.85,2.27,2.27,0,0,1-1.17.31A2.67,2.67,0,0,1,200.3,19.75Zm3.42-3.61a1.55,1.55,0,0,0-1.51-1,1.49,1.49,0,0,0-1.15.48,1.89,1.89,0,0,0-.44,1.31,1.93,1.93,0,0,0,.44,1.3,1.44,1.44,0,0,0,1.13.5,1.53,1.53,0,0,0,1.08-.42,1.34,1.34,0,0,0,.45-1Z"/><path class="cls-5" d="M206.73,11.35a1,1,0,0,1,.72-.24,1.05,1.05,0,0,1,.73.24.87.87,0,0,1,.26.67.9.9,0,0,1-.26.67,1.22,1.22,0,0,1-1.45,0,.9.9,0,0,1-.26-.67A.84.84,0,0,1,206.73,11.35Zm-.16,3.33c0-.57.26-.85.78-.85h.19a.81.81,0,0,1,.58.19.87.87,0,0,1,.21.66V19.2c0,.55-.27.83-.79.83h-.17a.85.85,0,0,1-.6-.19.86.86,0,0,1-.2-.64Z"/><path class="cls-5" d="M214.79,14.45a2.78,2.78,0,0,1,.56,1.81V19.2c0,.55-.26.83-.78.83h-.19a.81.81,0,0,1-.58-.19.82.82,0,0,1-.21-.64V16.54a1.41,1.41,0,0,0-.29-1,1,1,0,0,0-.83-.35,1.52,1.52,0,0,0-.8.21,1.48,1.48,0,0,0-.53.58V19.2c0,.55-.26.83-.78.83h-.19a.84.84,0,0,1-.59-.19.82.82,0,0,1-.21-.64V14s.08-.08.22-.13a1.33,1.33,0,0,1,.45-.07,1.07,1.07,0,0,1,.68.23,1.23,1.23,0,0,1,.37.79,2.3,2.3,0,0,1,2-1.1A2.06,2.06,0,0,1,214.79,14.45Z"/><path class="cls-5" d="M216.36,22.2a1.35,1.35,0,0,1-.76-1.26,1.33,1.33,0,0,1,.53-1.05,2.8,2.8,0,0,1,1.37-.56.75.75,0,0,1-.22-.56.68.68,0,0,1,.11-.39,1,1,0,0,1,.31-.31,2.47,2.47,0,0,1-1.23-.75,1.93,1.93,0,0,1-.44-1.26,2.15,2.15,0,0,1,.35-1.18,2.42,2.42,0,0,1,1-.83,3.25,3.25,0,0,1,1.42-.3,3.19,3.19,0,0,1,1.3.29l.27-.51a1.46,1.46,0,0,1,.38-.47.82.82,0,0,1,.5-.14.75.75,0,0,1,.48.16,1.19,1.19,0,0,1,.3.35c.07.13.09.21.08.22l-1.05,1A2,2,0,0,1,221.6,16a1.93,1.93,0,0,1-.72,1.55,3.07,3.07,0,0,1-1.91.62h-.25v0a.26.26,0,0,0,.09.17.37.37,0,0,0,.24.23,4.52,4.52,0,0,0,.69.2l.53.13c1.18.31,1.76.88,1.76,1.71a1.59,1.59,0,0,1-.87,1.41,4.74,4.74,0,0,1-2.41.52A5.18,5.18,0,0,1,216.36,22.2Zm3.61-.75a.63.63,0,0,0,.41-.58.47.47,0,0,0-.25-.43,3.15,3.15,0,0,0-.76-.28l-.23-.06-.33-.07a2.76,2.76,0,0,0-1.14.29.69.69,0,0,0-.44.61.6.6,0,0,0,.39.54,2.92,2.92,0,0,0,1.17.18A2.67,2.67,0,0,0,220,21.45Zm-.32-4.56a1.26,1.26,0,0,0,0-1.7,1.2,1.2,0,0,0-.86-.31,1.16,1.16,0,0,0-.84.31,1.27,1.27,0,0,0,0,1.7,1.28,1.28,0,0,0,1.69,0Z"/><path class="cls-5" d="M224.53,13.77a3.92,3.92,0,0,1,1.47-1.5,4.28,4.28,0,0,1,2.16-.54,4,4,0,0,1,2.36.67,2.32,2.32,0,0,1,.55.59,1.2,1.2,0,0,1,.19.58.75.75,0,0,1-.24.58,1.22,1.22,0,0,1-.52.31c-.19.06-.29.08-.3,0a2.09,2.09,0,0,0-.83-.81,2.37,2.37,0,0,0-1.15-.29,2.2,2.2,0,0,0-2,1.21,2.86,2.86,0,0,0-.3,1.33,2.67,2.67,0,0,0,.31,1.31,2.29,2.29,0,0,0,.83.91,2.26,2.26,0,0,0,1.21.32,2.3,2.3,0,0,0,1.23-.32,1.91,1.91,0,0,0,.77-.89s.11,0,.31,0a1.34,1.34,0,0,1,.54.31.78.78,0,0,1,.24.59,1.18,1.18,0,0,1-.2.61,2.19,2.19,0,0,1-.57.62,3.84,3.84,0,0,1-2.43.73,4.21,4.21,0,0,1-2.15-.54,3.8,3.8,0,0,1-1.46-1.49,4.75,4.75,0,0,1,0-4.36Z"/><path class="cls-5" d="M232.08,15.29a2.91,2.91,0,0,1,1.15-1.13,3.48,3.48,0,0,1,1.7-.41,3.43,3.43,0,0,1,1.68.41,2.88,2.88,0,0,1,1.14,1.13,3.41,3.41,0,0,1,.41,1.67,3.32,3.32,0,0,1-.41,1.66,3,3,0,0,1-1.15,1.13,3.48,3.48,0,0,1-1.7.41,3.44,3.44,0,0,1-1.69-.41,2.84,2.84,0,0,1-1.14-1.14,3.36,3.36,0,0,1-.4-1.67A3.31,3.31,0,0,1,232.08,15.29Zm4,.35a1.69,1.69,0,0,0-2.42,0,1.82,1.82,0,0,0-.48,1.3,1.84,1.84,0,0,0,.48,1.31,1.67,1.67,0,0,0,2.42,0A1.81,1.81,0,0,0,236.6,17,1.85,1.85,0,0,0,236.12,15.64Z"/><path class="cls-5" d="M239.1,19.84a.79.79,0,0,1-.22-.64V11.51s.07-.08.22-.13a1.33,1.33,0,0,1,.45-.07,1.06,1.06,0,0,1,.78.31,1.56,1.56,0,0,1,.31,1.1V19.2c0,.55-.25.83-.77.83h-.19A.81.81,0,0,1,239.1,19.84Z"/><path class="cls-5" d="M242,19.84a.82.82,0,0,1-.21-.64V11.51s.07-.08.21-.13a1.41,1.41,0,0,1,.45-.07,1.06,1.06,0,0,1,.79.31,1.56,1.56,0,0,1,.31,1.1V19.2c0,.55-.26.83-.77.83h-.19A.85.85,0,0,1,242,19.84Z"/><path class="cls-5" d="M244.66,15.33a2.93,2.93,0,0,1,1.13-1.16,3.16,3.16,0,0,1,1.62-.42,3.11,3.11,0,0,1,1.58.39,2.71,2.71,0,0,1,1.07,1.08,3.16,3.16,0,0,1,.38,1.58v.11a.61.61,0,0,1-.1.35.37.37,0,0,1-.32.11H245.8l0,.2a1.62,1.62,0,0,0,.6,1,1.86,1.86,0,0,0,1.14.35,2.11,2.11,0,0,0,1.06-.24,1.67,1.67,0,0,0,.65-.64s.09,0,.25,0a1,1,0,0,1,.42.23.63.63,0,0,1,.2.49.88.88,0,0,1-.18.5,1.68,1.68,0,0,1-.5.44,3.7,3.7,0,0,1-1.95.47,3.64,3.64,0,0,1-1.72-.39,2.74,2.74,0,0,1-1.15-1.11,3.31,3.31,0,0,1-.41-1.67A3.38,3.38,0,0,1,244.66,15.33Zm3.74,0a1.3,1.3,0,0,0-1-.4,1.5,1.5,0,0,0-1.06.41,1.7,1.7,0,0,0-.52,1h3A1.62,1.62,0,0,0,248.4,15.36Z"/><path class="cls-5" d="M251.18,22.2a1.33,1.33,0,0,1-.76-1.26,1.32,1.32,0,0,1,.52-1.05,2.8,2.8,0,0,1,1.37-.56.75.75,0,0,1-.22-.56.77.77,0,0,1,.11-.39,1.14,1.14,0,0,1,.31-.31,2.47,2.47,0,0,1-1.23-.75,1.93,1.93,0,0,1-.44-1.26,2.08,2.08,0,0,1,.36-1.18,2.45,2.45,0,0,1,1-.83,3.28,3.28,0,0,1,1.42-.3,3.15,3.15,0,0,1,1.3.29l.28-.51a1.24,1.24,0,0,1,.38-.47.79.79,0,0,1,.49-.14.75.75,0,0,1,.48.16,1.24,1.24,0,0,1,.31.35c.06.13.09.21.07.22l-1.05,1a2,2,0,0,1,.54,1.35,1.93,1.93,0,0,1-.72,1.55,3,3,0,0,1-1.9.62h-.25v0a.26.26,0,0,0,.09.17.33.33,0,0,0,.23.23,4.92,4.92,0,0,0,.69.2l.54.13c1.17.31,1.76.88,1.76,1.71A1.59,1.59,0,0,1,256,22.1a4.81,4.81,0,0,1-2.42.52A5.14,5.14,0,0,1,251.18,22.2Zm3.61-.75a.64.64,0,0,0,.41-.58.47.47,0,0,0-.26-.43,3.22,3.22,0,0,0-.75-.28L254,20.1l-.32-.07a2.81,2.81,0,0,0-1.15.29.7.7,0,0,0-.44.61.6.6,0,0,0,.39.54,3,3,0,0,0,1.17.18A2.72,2.72,0,0,0,254.79,21.45Zm-.32-4.56a1.26,1.26,0,0,0,0-1.7,1.2,1.2,0,0,0-.87-.31,1.16,1.16,0,0,0-.84.31,1.18,1.18,0,0,0-.32.85,1.15,1.15,0,0,0,.33.85,1.2,1.2,0,0,0,.86.32A1.17,1.17,0,0,0,254.47,16.89Z"/><path class="cls-5" d="M257.3,15.33a3,3,0,0,1,1.13-1.16,3.38,3.38,0,0,1,3.21,0,2.78,2.78,0,0,1,1.07,1.08,3.27,3.27,0,0,1,.38,1.58v.11a.61.61,0,0,1-.1.35.39.39,0,0,1-.33.11h-4.22l0,.2a1.59,1.59,0,0,0,.61,1,1.86,1.86,0,0,0,1.14.35,2.13,2.13,0,0,0,1.06-.24,1.74,1.74,0,0,0,.65-.64s.09,0,.24,0a1,1,0,0,1,.43.23.63.63,0,0,1,.19.49.94.94,0,0,1-.17.5,1.81,1.81,0,0,1-.5.44,3.7,3.7,0,0,1-1.95.47,3.65,3.65,0,0,1-1.73-.39,2.74,2.74,0,0,1-1.15-1.11,3.3,3.3,0,0,1-.4-1.67A3.37,3.37,0,0,1,257.3,15.33Zm3.75,0a1.33,1.33,0,0,0-1-.4,1.46,1.46,0,0,0-1.05.41,1.7,1.7,0,0,0-.52,1h3A1.56,1.56,0,0,0,261.05,15.36Z"/><line class="cls-6" x1="180.45" y1="9.2" x2="180.45" y2="22.62"/></g></g></svg>